<?xml version="1.0" encoding="utf-8"?>
<!-- Generator: Adobe Illustrator 16.0.0, SVG Export Plug-In . SVG Version: 6.00 Build 0)  -->
<!DOCTYPE svg PUBLIC "-//W3C//DTD SVG 1.1//EN" "http://www.w3.org/Graphics/SVG/1.1/DTD/svg11.dtd">
<svg version="1.1" id="Layer_1" xmlns="http://www.w3.org/2000/svg" xmlns:xlink="http://www.w3.org/1999/xlink" x="0px" y="0px"
	 width="109.2px" height="86.5px" viewBox="0 0 109.2 86.5" enable-background="new 0 0 109.2 86.5" xml:space="preserve">
<g>
	<defs>
		<rect id="SVGID_1_" width="109.2" height="86.5"/>
	</defs>
	<clipPath id="SVGID_2_">
		<use xlink:href="#SVGID_1_"  overflow="visible"/>
	</clipPath>
	<g clip-path="url(#SVGID_2_)">
		<defs>
			<rect id="SVGID_3_" width="109.2" height="86.5"/>
		</defs>
		<clipPath id="SVGID_4_">
			<use xlink:href="#SVGID_3_"  overflow="visible"/>
		</clipPath>
		<g opacity="0.25" clip-path="url(#SVGID_4_)">
			<g>
				<defs>
					<rect id="SVGID_5_" width="95.25" height="50"/>
				</defs>
				<clipPath id="SVGID_6_">
					<use xlink:href="#SVGID_5_"  overflow="visible"/>
				</clipPath>
				<polygon clip-path="url(#SVGID_6_)" fill="#00BEAF" points="46.25,0 0,24 48.75,50 95.25,26 				"/>
			</g>
		</g>
		<path clip-path="url(#SVGID_4_)" fill="none" stroke="#00383C" stroke-width="2" stroke-miterlimit="10" d="M65.625,2l41,21l-15,5
			c0,0-1.008-5.81-26-7c-21-1-26,7-26,7l-14-6L65.625,2z"/>
		
			<circle clip-path="url(#SVGID_4_)" fill="none" stroke="#00383C" stroke-width="2" stroke-miterlimit="10" cx="31.125" cy="48.5" r="5"/>
		
			<line clip-path="url(#SVGID_4_)" fill="none" stroke="#00383C" stroke-width="2" stroke-miterlimit="10" x1="30.625" y1="44" x2="30.625" y2="24"/>
		
			<line clip-path="url(#SVGID_4_)" fill="none" stroke="#00383C" stroke-width="2" stroke-miterlimit="10" x1="39.625" y1="28" x2="39.625" y2="44.75"/>
		<path clip-path="url(#SVGID_4_)" fill="none" stroke="#00383C" stroke-width="2" stroke-miterlimit="10" d="M65.625,60v-4
			c0,0-1-3,3-3h8c0,0,4,0,4-5s-5-4-5-4h-20c0,0-4,0-4-4"/>
		<path clip-path="url(#SVGID_4_)" fill="none" stroke="#00383C" stroke-width="2" stroke-miterlimit="10" d="M65.625,26v8
			c0,0,0,2-2,3"/>
		<path clip-path="url(#SVGID_4_)" fill="none" stroke="#00383C" stroke-width="2" stroke-miterlimit="10" d="M45.625,40
			c0,0-12.003,3.801-1.375,10c6,3.5,17.25,2.625,17.25,2.625"/>
		<path clip-path="url(#SVGID_4_)" fill="none" stroke="#00383C" stroke-width="2" stroke-miterlimit="10" d="M70.625,36.75
			c0,0,20.972,1.625,20.972,8L91.625,28"/>
		<path clip-path="url(#SVGID_4_)" fill="none" stroke="#00383C" stroke-width="2" stroke-miterlimit="10" d="M91.625,44
			c0,0,0.5,4-5.375,6"/>
		<path clip-path="url(#SVGID_4_)" fill="none" stroke="#00383C" stroke-width="2" stroke-miterlimit="10" d="M71.625,85.5H60.604
			c-1.648,0-3-1.35-3-3v-19c0-1.65,1.352-3,3-3h11.021c1.65,0,3,1.35,3,3v19C74.625,84.15,73.275,85.5,71.625,85.5z"/>
		
			<line clip-path="url(#SVGID_4_)" fill="none" stroke="#00383C" stroke-width="2" stroke-miterlimit="10" x1="66.125" y1="65" x2="66.125" y2="69.75"/>
		<path clip-path="url(#SVGID_4_)" fill="none" stroke="#00383C" stroke-width="2" stroke-miterlimit="10" d="M64.625,37H54.75
			c0,0-2-0.25-3.125,1.875s1.05,3.942,1.05,3.942"/>
	</g>
</g>
</svg>
