<?xml version="1.0" encoding="utf-8"?>
<!-- Generator: Adobe Illustrator 16.0.0, SVG Export Plug-In . SVG Version: 6.00 Build 0)  -->
<!DOCTYPE svg PUBLIC "-//W3C//DTD SVG 1.1//EN" "http://www.w3.org/Graphics/SVG/1.1/DTD/svg11.dtd">
<svg version="1.1" id="Layer_1" xmlns="http://www.w3.org/2000/svg" xmlns:xlink="http://www.w3.org/1999/xlink" x="0px" y="0px"
	 width="92.583px" height="98.499px" viewBox="0 0 92.583 98.499" enable-background="new 0 0 92.583 98.499" xml:space="preserve">
<g>
	<defs>
		<rect id="SVGID_1_" width="92.583" height="98.499"/>
	</defs>
	<clipPath id="SVGID_2_">
		<use xlink:href="#SVGID_1_"  overflow="visible"/>
	</clipPath>
	<g clip-path="url(#SVGID_2_)">
		<defs>
			<rect id="SVGID_3_" width="92.583" height="98.499"/>
		</defs>
		<clipPath id="SVGID_4_">
			<use xlink:href="#SVGID_3_"  overflow="visible"/>
		</clipPath>
		<g opacity="0.25" clip-path="url(#SVGID_4_)">
			<g>
				<defs>
					<rect id="SVGID_5_" x="15.542" y="19" width="77.042" height="54.667"/>
				</defs>
				<clipPath id="SVGID_6_">
					<use xlink:href="#SVGID_5_"  overflow="visible"/>
				</clipPath>
				<rect x="15.541" y="19" clip-path="url(#SVGID_6_)" fill="#00BEAF" width="77.042" height="54.667"/>
			</g>
		</g>
		
			<rect x="6.166" y="86.834" clip-path="url(#SVGID_4_)" fill="none" stroke="#00383C" stroke-width="2" stroke-miterlimit="10" width="24.167" height="8.333"/>
		<path clip-path="url(#SVGID_4_)" fill="none" stroke="#00383C" stroke-width="2" stroke-miterlimit="10" d="M10.069,86.834v-6.167
			l-2.235-1V58c0,0-0.041-2.166,2.235-2.166c2.765,0,2.765,2.166,2.765,2.166v6.834"/>
		<path clip-path="url(#SVGID_4_)" fill="none" stroke="#00383C" stroke-width="2" stroke-miterlimit="10" d="M12.458,56.229
			c0,0,0.875-2.563,3.208-2.396c2.334,0.167,2.584,2,2.584,2v8.834"/>
		<path clip-path="url(#SVGID_4_)" fill="none" stroke="#00383C" stroke-width="2" stroke-miterlimit="10" d="M18.25,57.824v-12.49
			c0,0-0.018-2.667,2.916-2.667c2.722,0,2.667,2.833,2.667,2.833l0.006,1.999l0.049,17.168"/>
		<path clip-path="url(#SVGID_4_)" fill="none" stroke="#00383C" stroke-width="2" stroke-miterlimit="10" d="M23.888,48.334
			c0,0,0.106-1.5,2.612-1.5c1.49,0,2.333,1.5,2.333,1.5l0.002,23.833L32,68.5v-4.666c0,0-0.5-2.51,2.5-2.588
			c3-0.079,2.666,2.421,2.666,2.421l0.012,9.167L27.5,82v4.834"/>
		
			<rect x="52.178" y="90.166" clip-path="url(#SVGID_4_)" fill="none" stroke="#00383C" stroke-width="2" stroke-miterlimit="10" width="24.166" height="7.333"/>
		<path clip-path="url(#SVGID_4_)" fill="none" stroke="#00383C" stroke-width="2" stroke-miterlimit="10" d="M72.442,90.166v-6.167
			l2.235-1V61.332c0,0,0.04-2.166-2.235-2.166c-2.765,0-2.765,2.166-2.765,2.166v6.834"/>
		<path clip-path="url(#SVGID_4_)" fill="none" stroke="#00383C" stroke-width="2" stroke-miterlimit="10" d="M70.083,59.542
			c0,0-0.904-2.543-3.238-2.376c-2.333,0.166-2.583,2-2.583,2v8.833"/>
		<path clip-path="url(#SVGID_4_)" fill="none" stroke="#00383C" stroke-width="2" stroke-miterlimit="10" d="M64.261,61.156v-12.49
			c0,0,0.421-2.659-2.917-2.667c-2.721-0.007-2.666,2.833-2.666,2.833l-0.006,2l-0.049,17.167"/>
		<path clip-path="url(#SVGID_4_)" fill="none" stroke="#00383C" stroke-width="2" stroke-miterlimit="10" d="M58.623,51.666
			c0,0-0.111-1.667-2.611-1.5c-2.5,0.166-2.333,1.5-2.333,1.5l-0.003,23.833l-3.164-3.667v-5.666c0,0,0.501-2.589-2.5-2.588
			c-2.678,0-2.667,2.421-2.667,2.421l-0.011,10.167l9.678,9.166v4.834"/>
		<polyline clip-path="url(#SVGID_4_)" fill="none" stroke="#00383C" stroke-width="2" stroke-miterlimit="10" points="7,63.834 
			1,63.834 1,27.334 81.166,26.501 81.166,63.834 74.679,63.834 		"/>
		<path clip-path="url(#SVGID_4_)" fill="none" stroke="#00383C" stroke-width="2" stroke-miterlimit="10" d="M41.083,26.5V22
			c0,0,0.083-3.833-3.083-4.333c-3.167-0.5-6.334,1.166-6.5-3.167c-0.167-4.333,0.333-5,2.833-5h11"/>
		
			<rect x="7.792" y="33.166" clip-path="url(#SVGID_4_)" fill="none" stroke="#00383C" stroke-width="2" stroke-miterlimit="10" width="6.021" height="6.021"/>
		
			<rect x="17.867" y="33.166" clip-path="url(#SVGID_4_)" fill="none" stroke="#00383C" stroke-width="2" stroke-miterlimit="10" width="6.021" height="6.021"/>
		
			<rect x="27.989" y="33.166" clip-path="url(#SVGID_4_)" fill="none" stroke="#00383C" stroke-width="2" stroke-miterlimit="10" width="6.021" height="6.021"/>
		
			<rect x="38.064" y="33.166" clip-path="url(#SVGID_4_)" fill="none" stroke="#00383C" stroke-width="2" stroke-miterlimit="10" width="6.021" height="6.021"/>
		
			<rect x="48.166" y="33.166" clip-path="url(#SVGID_4_)" fill="none" stroke="#00383C" stroke-width="2" stroke-miterlimit="10" width="6.02" height="6.021"/>
		
			<rect x="58.24" y="33.166" clip-path="url(#SVGID_4_)" fill="none" stroke="#00383C" stroke-width="2" stroke-miterlimit="10" width="6.021" height="6.021"/>
		
			<rect x="8.057" y="42.982" clip-path="url(#SVGID_4_)" fill="none" stroke="#00383C" stroke-width="2" stroke-miterlimit="10" width="6.021" height="6.021"/>
		
			<rect x="68.697" y="33.149" clip-path="url(#SVGID_4_)" fill="none" stroke="#00383C" stroke-width="2" stroke-miterlimit="10" width="6.021" height="14.851"/>
		
			<rect x="38.111" y="42.982" clip-path="url(#SVGID_4_)" fill="none" stroke="#00383C" stroke-width="2" stroke-miterlimit="10" width="6.021" height="6.021"/>
		
			<rect x="48.166" y="42.982" clip-path="url(#SVGID_4_)" fill="none" stroke="#00383C" stroke-width="2" stroke-miterlimit="10" width="6.02" height="6.021"/>
		
			<line clip-path="url(#SVGID_4_)" fill="none" stroke="#00383C" stroke-width="2" stroke-miterlimit="10" x1="29.333" y1="53.334" x2="52.833" y2="53.334"/>
		
			<line clip-path="url(#SVGID_4_)" fill="none" stroke="#00383C" stroke-width="2" stroke-miterlimit="10" x1="28.834" y1="57.996" x2="53.678" y2="57.996"/>
		<polyline clip-path="url(#SVGID_4_)" fill="none" stroke="#00383C" stroke-width="2" stroke-miterlimit="10" points="67.697,51.5 
			74.719,51.5 74.719,57.156 		"/>
		<polyline clip-path="url(#SVGID_4_)" fill="none" stroke="#00383C" stroke-width="2" stroke-miterlimit="10" points="
			26.833,42.982 33.833,42.982 33.833,50.003 		"/>
		<path clip-path="url(#SVGID_4_)" fill="none" stroke="#00383C" stroke-width="2" stroke-miterlimit="10" d="M44.132,9.5
			c0,0,2.589,0.417,4.034-1.198c1.063-1.187,1-2.635,1-2.635V0"/>
		
			<line clip-path="url(#SVGID_4_)" fill="none" stroke="#00383C" stroke-width="2" stroke-miterlimit="10" x1="57.24" y1="42.982" x2="65.277" y2="42.982"/>
	</g>
</g>
</svg>
