<?xml version="1.0" encoding="utf-8"?>
<!-- Generator: Adobe Illustrator 21.1.0, SVG Export Plug-In . SVG Version: 6.00 Build 0)  -->
<svg version="1.1" id="Слой_1" xmlns="http://www.w3.org/2000/svg" xmlns:xlink="http://www.w3.org/1999/xlink" x="0px" y="0px"
	 viewBox="0 0 82.3 65.3" style="enable-background:new 0 0 82.3 65.3;" xml:space="preserve">
<style type="text/css">
	.st0{fill:#727576;}
</style>
<path class="st0" d="M32.9,0l4.7,5.8c0,0-8.3,6.8-11.8,11.3s-4.7,7.8-4.7,7.8s18.8,7.7,18.3,22.3s-13,17.6-18.3,17.6
	c-9.6,0-17.9-6.1-19.6-15.9s0.4-20.1,9.1-30.3S32.9,0,32.9,0z"/>
<path class="st0" d="M74.8,0.2L79.5,6c0,0-8.3,6.8-11.8,11.3S63,25.1,63,25.1s18.8,7.7,18.3,22.3C80.8,61.9,68.2,65,63,65
	c-9.6,0-17.9-6.1-19.6-15.9s0.4-20.1,9.1-30.3S74.8,0.2,74.8,0.2z"/>
</svg>
