<?xml version="1.0" encoding="utf-8"?>
<!-- Generator: Adobe Illustrator 16.0.0, SVG Export Plug-In . SVG Version: 6.00 Build 0)  -->
<!DOCTYPE svg PUBLIC "-//W3C//DTD SVG 1.1//EN" "http://www.w3.org/Graphics/SVG/1.1/DTD/svg11.dtd">
<svg version="1.1" id="Layer_1" xmlns="http://www.w3.org/2000/svg" xmlns:xlink="http://www.w3.org/1999/xlink" x="0px" y="0px"
	 width="175px" height="126.724px" viewBox="0 0 175 126.724" enable-background="new 0 0 175 126.724" xml:space="preserve">
<g>
	<defs>
		<rect id="SVGID_1_" width="175" height="126.724"/>
	</defs>
	<clipPath id="SVGID_2_">
		<use xlink:href="#SVGID_1_"  overflow="visible"/>
	</clipPath>
	<path clip-path="url(#SVGID_2_)" d="M9.5,71.362c-4.411,0-8-3.589-8-8s3.589-8,8-8h156c4.411,0,8,3.589,8,8s-3.589,8-8,8H9.5z"/>
	<path clip-path="url(#SVGID_2_)" d="M165.5,56.862c3.575,0,6.5,2.925,6.5,6.5c0,3.575-2.925,6.5-6.5,6.5H9.5
		c-3.575,0-6.5-2.925-6.5-6.5c0-3.575,2.925-6.5,6.5-6.5H165.5 M165.5,53.862H9.5c-5.238,0-9.5,4.262-9.5,9.5
		c0,5.238,4.262,9.5,9.5,9.5h156c5.238,0,9.5-4.262,9.5-9.5C175,58.124,170.738,53.862,165.5,53.862"/>
	<path clip-path="url(#SVGID_2_)" d="M165.37,71.224c-2.142,0-4.151-0.83-5.657-2.335l-53.74-53.741
		c-3.118-3.119-3.118-8.194,0-11.313c1.507-1.506,3.516-2.336,5.657-2.336c2.143,0,4.151,0.83,5.657,2.336l53.74,53.74
		c3.119,3.119,3.119,8.194,0,11.314C169.521,70.394,167.512,71.224,165.37,71.224"/>
	<path clip-path="url(#SVGID_2_)" d="M111.63,3c1.666,0,3.333,0.632,4.596,1.896l53.74,53.74c2.528,2.528,2.528,6.665,0,9.193
		c-1.264,1.263-2.93,1.896-4.596,1.896s-3.332-0.634-4.597-1.896l-53.739-53.741c-2.528-2.527-2.528-6.664,0-9.192
		C108.298,3.632,109.964,3,111.63,3 M111.63,0c-2.542,0-4.928,0.985-6.717,2.775c-3.704,3.704-3.704,9.731,0,13.435l53.739,53.74
		c1.789,1.789,4.176,2.775,6.718,2.775c2.543,0,4.928-0.986,6.718-2.775c3.704-3.704,3.704-9.731,0-13.435l-53.74-53.74
		C116.558,0.985,114.173,0,111.63,0"/>
	<path clip-path="url(#SVGID_2_)" d="M111.63,125.224c-2.142,0-4.151-0.83-5.657-2.335c-3.119-3.12-3.119-8.195,0-11.313
		l53.74-53.74c1.506-1.506,3.515-2.336,5.657-2.336c2.142,0,4.15,0.83,5.657,2.336c3.118,3.119,3.118,8.193,0,11.312l-53.74,53.741
		C115.781,124.394,113.771,125.224,111.63,125.224"/>
	<path clip-path="url(#SVGID_2_)" d="M165.37,57c1.666,0,3.332,0.632,4.596,1.896c2.528,2.528,2.528,6.666,0,9.192l-53.739,53.741
		c-1.265,1.263-2.931,1.896-4.597,1.896s-3.332-0.634-4.596-1.896c-2.528-2.528-2.528-6.665,0-9.193l53.74-53.74
		C162.037,57.632,163.704,57,165.37,57 M165.37,54c-2.543,0-4.928,0.985-6.718,2.775l-53.74,53.74
		c-3.704,3.704-3.704,9.731,0,13.436c1.79,1.789,4.175,2.775,6.718,2.775s4.928-0.986,6.718-2.775l53.739-53.74
		c3.704-3.704,3.704-9.731,0-13.435C170.298,54.985,167.912,54,165.37,54"/>
</g>
</svg>
