<?xml version="1.0" encoding="utf-8"?>
<!-- Generator: Adobe Illustrator 16.0.0, SVG Export Plug-In . SVG Version: 6.00 Build 0)  -->
<!DOCTYPE svg PUBLIC "-//W3C//DTD SVG 1.1//EN" "http://www.w3.org/Graphics/SVG/1.1/DTD/svg11.dtd">
<svg version="1.1" id="Layer_1" xmlns="http://www.w3.org/2000/svg" xmlns:xlink="http://www.w3.org/1999/xlink" x="0px" y="0px"
	 width="79px" height="72px" viewBox="0 0 79 72" enable-background="new 0 0 79 72" xml:space="preserve">
<g>
	<defs>
		<rect id="SVGID_1_" width="79" height="72"/>
	</defs>
	<clipPath id="SVGID_2_">
		<use xlink:href="#SVGID_1_"  overflow="visible"/>
	</clipPath>
	<path clip-path="url(#SVGID_2_)" d="M30.5,60H3V17h65v5.5c0,0.829,0.672,1.5,1.5,1.5s1.5-0.671,1.5-1.5v-21
		C71,0.671,70.328,0,69.5,0h-68C0.671,0,0,0.671,0,1.5v60C0,62.328,0.671,63,1.5,63h29c0.829,0,1.5-0.672,1.5-1.5S31.329,60,30.5,60
		 M68,14H3V3h65V14z"/>
	<path clip-path="url(#SVGID_2_)" d="M8.5,10h5c0.829,0,1.5-0.671,1.5-1.5S14.329,7,13.5,7h-5C7.671,7,7,7.671,7,8.5
		S7.671,10,8.5,10"/>
	<path clip-path="url(#SVGID_2_)" d="M19.5,10h5c0.829,0,1.5-0.671,1.5-1.5S25.329,7,24.5,7h-5C18.671,7,18,7.671,18,8.5
		S18.671,10,19.5,10"/>
	<path clip-path="url(#SVGID_2_)" d="M55,38c-5.522,0-10,4.478-10,10s4.478,10,10,10s10-4.478,10-10S60.522,38,55,38 M55,55
		c-3.866,0-7-3.134-7-7s3.134-7,7-7s7,3.134,7,7S58.866,55,55,55"/>
	<path clip-path="url(#SVGID_2_)" d="M77.72,42.65L72,41.78c-0.292-0.896-0.653-1.77-1.08-2.61l3.44-4.67
		c0.468-0.608,0.403-1.47-0.15-2l-4.76-4.76c-0.53-0.554-1.394-0.618-2-0.15l-4.65,3.43c-0.836-0.405-1.702-0.746-2.59-1.02
		l-0.86-5.7c-0.1-0.742-0.731-1.297-1.479-1.3h-6.74c-0.742,0.002-1.371,0.546-1.479,1.28L48.79,30
		c-0.903,0.294-1.783,0.659-2.63,1.09l-4.65-3.43c-0.606-0.469-1.47-0.404-2,0.15l-4.76,4.76c-0.554,0.531-0.619,1.393-0.15,2
		l3.44,4.67c-0.41,0.819-0.758,1.668-1.04,2.54l-5.74,0.87C30.534,42.769,30,43.395,30,44.13v6.74
		c0.002,0.742,0.546,1.371,1.28,1.48l5.77,0.869c0.291,0.881,0.649,1.735,1.07,2.561l-3.47,4.7c-0.468,0.606-0.404,1.469,0.15,2
		l4.76,4.76c0.53,0.554,1.394,0.618,2,0.149l4.721-3.479c0.818,0.413,1.668,0.764,2.54,1.05l0.88,5.8
		c0.123,0.7,0.72,1.218,1.43,1.24h6.74c0.742-0.002,1.371-0.546,1.479-1.28l0.881-5.8c0.871-0.286,1.721-0.637,2.539-1.05
		l4.721,3.48c0.606,0.468,1.47,0.403,2-0.15l4.76-4.76c0.554-0.53,0.618-1.394,0.15-2l-3.471-4.7c0.42-0.812,0.777-1.654,1.07-2.521
		l5.77-0.869c0.715-0.131,1.232-0.755,1.23-1.48v-6.74C78.998,43.388,78.454,42.759,77.72,42.65 M76,49.58l-5.43,0.82
		c-0.587,0.09-1.065,0.517-1.221,1.09c-0.348,1.284-0.862,2.519-1.529,3.67c-0.299,0.516-0.264,1.159,0.09,1.64l3.27,4.431
		L68.24,64.17l-4.45-3.28c-0.48-0.353-1.124-0.389-1.64-0.09c-1.146,0.659-2.373,1.167-3.65,1.51c-0.572,0.155-1,0.634-1.09,1.221
		L56.58,69h-4.16l-0.83-5.47c-0.09-0.587-0.518-1.065-1.09-1.221c-1.277-0.343-2.504-0.851-3.65-1.51
		c-0.516-0.299-1.159-0.263-1.64,0.09l-4.45,3.28l-2.94-2.939L41.1,56.8c0.354-0.48,0.389-1.124,0.091-1.64
		c-0.668-1.151-1.182-2.386-1.53-3.67c-0.155-0.573-0.634-1-1.22-1.09L33,49.58v-4.16l5.41-0.819
		c0.593-0.089,1.076-0.521,1.229-1.101c0.345-1.299,0.859-2.546,1.53-3.71c0.299-0.516,0.264-1.16-0.09-1.64l-3.24-4.39l2.94-2.94
		l4.38,3.23c0.48,0.353,1.124,0.388,1.64,0.09c1.17-0.679,2.424-1.201,3.73-1.55c0.579-0.154,1.012-0.637,1.1-1.23L52.42,26h4.16
		l0.81,5.37c0.088,0.593,0.521,1.076,1.101,1.23c1.307,0.349,2.561,0.871,3.729,1.55c0.516,0.301,1.161,0.266,1.641-0.091
		l4.38-3.229l2.939,2.939L67.94,38.16c-0.354,0.48-0.389,1.124-0.091,1.64c0.672,1.164,1.186,2.411,1.53,3.71
		c0.153,0.58,0.637,1.013,1.23,1.101l5.409,0.819L76,49.58z"/>
</g>
</svg>
