<?xml version="1.0" encoding="utf-8"?>
<!-- Generator: Adobe Illustrator 16.0.0, SVG Export Plug-In . SVG Version: 6.00 Build 0)  -->
<!DOCTYPE svg PUBLIC "-//W3C//DTD SVG 1.1//EN" "http://www.w3.org/Graphics/SVG/1.1/DTD/svg11.dtd">
<svg version="1.1" id="Layer_1" xmlns="http://www.w3.org/2000/svg" xmlns:xlink="http://www.w3.org/1999/xlink" x="0px" y="0px"
	 width="86.27px" height="66.107px" viewBox="0 0 86.27 66.107" enable-background="new 0 0 86.27 66.107" xml:space="preserve">
<g>
	<defs>
		<rect id="SVGID_1_" y="0" width="86.27" height="66.107"/>
	</defs>
	<clipPath id="SVGID_2_">
		<use xlink:href="#SVGID_1_"  overflow="visible"/>
	</clipPath>
	<path clip-path="url(#SVGID_2_)" d="M84.729,53.104H68.92v-41c0-6.627-5.373-12-12-12h-43.5c-0.23,0-0.46-0.06-0.7-0.08
		c-3.362-0.212-6.663,0.966-9.13,3.26C1.3,5.405-0.001,8.384,0,11.504c0,0.829,0.671,1.5,1.5,1.5h19.42v40.81
		c-0.104,6.41,4.798,11.794,11.19,12.29h0.06h0.24H74.27c6.488,0.14,11.86-5.007,12-11.495v-0.005
		c0.001-0.828-0.671-1.5-1.499-1.501C84.757,53.104,84.743,53.104,84.729,53.104 M3.14,10.004c0.332-1.739,1.212-3.326,2.51-4.53
		c1.495-1.367,3.401-2.201,5.42-2.37c0.116,0.014,0.234,0.014,0.35,0h1.9c3.615,0.604,6.509,3.328,7.33,6.9H3.14z M32.29,63.104
		c-4.806-0.399-8.471-4.469-8.37-9.29v-41.52c0.013-3.488-1.438-6.822-4-9.19h37c4.971,0,9,4.029,9,9v41H43.34
		c-0.828,0-1.5,0.672-1.5,1.5c-0.014,2.281-0.973,4.453-2.65,6C37.332,62.353,34.836,63.257,32.29,63.104 M74.29,63.104H40.92
		l0.31-0.28c1.914-1.766,3.153-4.141,3.51-6.72h38.35c-0.889,4.143-4.585,7.075-8.82,7H74.29z"/>
	<path clip-path="url(#SVGID_2_)" d="M31.42,22.104h27c0.828,0,1.5-0.671,1.5-1.5s-0.672-1.5-1.5-1.5h-27
		c-0.829,0-1.5,0.671-1.5,1.5S30.591,22.104,31.42,22.104"/>
	<path clip-path="url(#SVGID_2_)" d="M31.42,31.104h27c0.828,0,1.5-0.671,1.5-1.5s-0.672-1.5-1.5-1.5h-27
		c-0.829,0-1.5,0.671-1.5,1.5S30.591,31.104,31.42,31.104"/>
	<path clip-path="url(#SVGID_2_)" d="M46.92,38.604c0-0.828-0.672-1.5-1.5-1.5h-14c-0.829,0-1.5,0.672-1.5,1.5s0.671,1.5,1.5,1.5h14
		C46.248,40.104,46.92,39.433,46.92,38.604"/>
</g>
</svg>
