<?xml version="1.0" encoding="utf-8"?>
<!-- Generator: Adobe Illustrator 16.0.0, SVG Export Plug-In . SVG Version: 6.00 Build 0)  -->
<!DOCTYPE svg PUBLIC "-//W3C//DTD SVG 1.1//EN" "http://www.w3.org/Graphics/SVG/1.1/DTD/svg11.dtd">
<svg version="1.1" id="Layer_1" xmlns="http://www.w3.org/2000/svg" xmlns:xlink="http://www.w3.org/1999/xlink" x="0px" y="0px"
	 width="74.644px" height="70.208px" viewBox="0 0 74.644 70.208" enable-background="new 0 0 74.644 70.208" xml:space="preserve">
<g>
	<defs>
		<rect id="SVGID_1_" y="0" width="74.644" height="70.208"/>
	</defs>
	<clipPath id="SVGID_2_">
		<use xlink:href="#SVGID_1_"  overflow="visible"/>
	</clipPath>
	<path clip-path="url(#SVGID_2_)" d="M74.552,12.788l-4.55-11.53c-0.128-0.813-0.89-1.368-1.704-1.24
		c-0.217,0.035-0.424,0.117-0.604,0.24l-12.241,4.52c-0.746,0.36-1.059,1.257-0.699,2.003c0.308,0.635,1.015,0.971,1.699,0.807
		l9.14-3.4l-15.26,33.57l-7.79-13.26c-0.42-0.714-1.339-0.953-2.053-0.533c-0.26,0.153-0.468,0.38-0.597,0.653l-11.21,23.92
		l-9.02-17.28c-0.25-0.522-0.791-0.843-1.37-0.81c-0.545,0.016-1.039,0.326-1.29,0.81l-14,30.611V1.758c0-0.828-0.671-1.5-1.5-1.5
		c-0.828,0-1.5,0.672-1.5,1.5v67v0.1c-0.003,0.057-0.003,0.113,0,0.17v0.141v0.14l0.07,0.142l0.07,0.118l0.09,0.12l0.09,0.11
		l0.11,0.1l0.11,0.092l0.15,0.09l0.09,0.049l0.23,0.08h0.06h0.29h67.001c0.828,0,1.5-0.671,1.5-1.5s-0.672-1.5-1.5-1.5H3.832
		l14.59-31.87l9,17.281c0.383,0.733,1.289,1.019,2.024,0.636c0.293-0.152,0.527-0.397,0.666-0.697l11.291-24.08l7.809,13.29
		c0.419,0.715,1.339,0.954,2.054,0.535c0.267-0.157,0.479-0.392,0.606-0.675l16.531-36.26l3.358,8.52
		c0.323,0.763,1.204,1.119,1.968,0.796C74.464,14.371,74.826,13.538,74.552,12.788"/>
</g>
</svg>
