<?xml version="1.0" encoding="utf-8"?>
<!-- Generator: Adobe Illustrator 16.0.0, SVG Export Plug-In . SVG Version: 6.00 Build 0)  -->
<!DOCTYPE svg PUBLIC "-//W3C//DTD SVG 1.1//EN" "http://www.w3.org/Graphics/SVG/1.1/DTD/svg11.dtd">
<svg version="1.1" id="Layer_1" xmlns="http://www.w3.org/2000/svg" xmlns:xlink="http://www.w3.org/1999/xlink" x="0px" y="0px"
	 width="76px" height="71px" viewBox="0 0 76 71" enable-background="new 0 0 76 71" xml:space="preserve">
<g>
	<defs>
		<rect id="SVGID_1_" width="76" height="71"/>
	</defs>
	<clipPath id="SVGID_2_">
		<use xlink:href="#SVGID_1_"  overflow="visible"/>
	</clipPath>
	<path clip-path="url(#SVGID_2_)" d="M69.23,0H6.77C3.06,0,0.09,2.43,0,5.58v45.74C0,54.45,3,57,6.77,57H36v11H18.5
		c-0.829,0-1.5,0.672-1.5,1.5s0.671,1.5,1.5,1.5h39c0.828,0,1.5-0.672,1.5-1.5S58.328,68,57.5,68H39V57h30.23
		C73,57,76,54.45,76,51.32V5.68C76,2.549,73,0,69.23,0 M73,51.32C73,52.77,71.27,54,69.23,54H6.77C4.77,54,3,52.77,3,51.32V5.62
		C3,4.18,4.73,3,6.77,3h62.46c2,0,3.77,1.23,3.77,2.68V51.32z"/>
	<path clip-path="url(#SVGID_2_)" d="M43.27,19.63c-0.731-0.365-1.622-0.076-2,0.65L33.189,36c-0.378,0.737-0.087,1.642,0.65,2.02
		c0.738,0.379,1.642,0.088,2.02-0.649l8.061-15.75C44.278,20.89,43.99,20.007,43.27,19.63"/>
	<path clip-path="url(#SVGID_2_)" d="M52.86,19.08c-0.605-0.565-1.556-0.531-2.12,0.075c-0.537,0.576-0.537,1.469,0,2.045
		l7.479,7.47l-7.479,7.47c-0.606,0.565-0.64,1.515-0.075,2.12c0.564,0.606,1.514,0.64,2.12,0.075
		c0.025-0.024,0.051-0.049,0.075-0.075l8.54-8.53c0.585-0.586,0.585-1.534,0-2.12L52.86,19.08z"/>
	<path clip-path="url(#SVGID_2_)" d="M26.4,19.08c-0.585-0.585-1.534-0.585-2.12,0l-8.54,8.54c-0.585,0.585-0.585,1.534,0,2.12
		l8.54,8.54c0.606,0.564,1.556,0.531,2.12-0.075c0.537-0.576,0.537-1.469,0-2.045l-7.48-7.47l7.48-7.49
		C26.985,20.614,26.985,19.665,26.4,19.08"/>
</g>
</svg>
