<svg width="13" height="10" viewBox="0 0 13 10" fill="none" xmlns="http://www.w3.org/2000/svg">
<path d="M13 8.12495C13 8.40994 12.9198 8.67414 12.7914 8.90659L8.68679 4.3141L12.7469 0.761844C12.9049 1.01249 13 1.30691 13 1.62507V8.12495ZM6.50001 5.14796L12.1496 0.204748C11.9177 0.0778321 11.6567 0 11.375 0H1.62499C1.34303 0 1.08188 0.0778321 0.850982 0.204748L6.50001 5.14796ZM8.07506 4.8489L6.76735 5.99385C6.69086 6.06048 6.59561 6.09376 6.50001 6.09376C6.40436 6.09376 6.30912 6.06048 6.23262 5.99385L4.92462 4.84885L0.76806 9.50005C1.0172 9.65635 1.30919 9.74999 1.62496 9.74999H11.375C11.6908 9.74999 11.9829 9.65635 12.2319 9.50005L8.07506 4.8489ZM0.253135 0.761817C0.0952204 1.01246 0 1.30688 0 1.62507V8.12498C0 8.40997 0.079788 8.67417 0.208687 8.90662L4.31284 4.31332L0.253135 0.761817Z" fill="#EAEAEA"/>
</svg>
