<svg width="225" height="212" viewBox="0 0 225 212" fill="none" xmlns="http://www.w3.org/2000/svg">
<g filter="url(#filter0_d)">
<path d="M183.456 78.1377L167.936 50.7607L158.045 48.3973L149.053 50.7607L149.702 51.9056C149.924 52.2979 150.307 52.5642 150.745 52.6701C152.552 53.1065 153.894 54.733 153.894 56.6734C153.894 57.1177 153.823 57.5443 153.693 57.9449C153.557 58.3606 153.619 58.8157 153.835 59.1962L153.921 59.3487C154.119 59.697 154.443 59.9518 154.82 60.0831C156.432 60.6425 157.588 62.1735 157.588 63.9754C157.588 64.2608 157.559 64.54 157.503 64.8089C157.421 65.2028 157.472 65.6122 157.671 65.962L157.825 66.234C158.034 66.6035 158.384 66.865 158.79 66.9891C160.479 67.5034 161.708 69.0727 161.708 70.9302C161.708 71.2825 161.664 71.6245 161.58 71.9505C161.474 72.363 161.548 72.8016 161.758 73.1721L161.81 73.2645C162.027 73.647 162.394 73.9127 162.818 74.031C164.554 74.5152 165.828 76.108 165.828 77.9991C165.828 78.3785 165.776 78.7464 165.68 79.0952C165.565 79.5114 165.603 79.9551 165.816 80.3314L167.98 84.0597L176.578 83.9123L183.456 78.1377Z" fill="#189A5B"/>
<path d="M157.913 48.4321L149.053 50.7608L149.702 51.9056C149.925 52.298 150.307 52.5642 150.745 52.6701C152.552 53.107 153.894 54.733 153.894 56.674C153.894 57.1177 153.823 57.5448 153.693 57.9449C153.557 58.3606 153.619 58.8158 153.835 59.1962L153.921 59.3493C154.119 59.6975 154.443 59.9518 154.82 60.0831C156.432 60.6431 157.588 62.174 157.588 63.9754C157.588 64.2614 157.558 64.54 157.503 64.8094C157.421 65.2028 157.472 65.6122 157.671 65.962L157.825 66.234C158.034 66.6035 158.384 66.8651 158.79 66.9891C160.479 67.5034 161.708 69.0728 161.708 70.9302C161.708 71.2826 161.664 71.6246 161.58 71.9505C161.474 72.3631 161.548 72.8016 161.758 73.1721L161.81 73.2645C162.027 73.647 162.394 73.9127 162.818 74.031C164.554 74.5152 165.828 76.108 165.828 77.9991C165.828 78.3785 165.776 78.7459 165.68 79.0952C165.565 79.5114 165.603 79.9551 165.816 80.3309L167.979 84.0597L176.578 83.9118L177.56 83.0877L157.913 48.4321Z" fill="#3AD189"/>
<path d="M166.699 50.7605H140.864C138.949 50.7605 137.395 49.2072 137.395 47.2916V34.4688C137.395 32.5533 138.948 31 140.864 31H166.699C172.155 31 176.579 35.4237 176.579 40.8802C176.579 46.3367 172.155 50.7605 166.699 50.7605Z" fill="#DC9714"/>
<path d="M191.072 91.1211L171.127 98.7542C169.035 99.5544 166.691 98.5077 165.89 96.4162L163.482 90.1221C162.681 88.0306 163.728 85.6864 165.82 84.8862L185.765 77.2536C187.857 76.4528 190.202 77.4996 191.002 79.5911L193.41 85.8852C194.211 87.9767 193.164 90.3209 191.072 91.1211Z" fill="#189A5B"/>
<path d="M191.002 79.5912C190.202 77.4997 187.857 76.453 185.766 77.2537L165.82 84.8863C163.728 85.6865 162.682 88.0308 163.482 90.1222L164.719 93.3554L192.233 82.8068L191.002 79.5912Z" fill="#3AD189"/>
<path d="M176.579 40.8802C176.579 35.4237 172.155 31 166.699 31H140.864C138.949 31 137.395 32.5533 137.395 34.4688V40.8802H176.579Z" fill="#FDB813"/>
<path d="M63.5581 148.442H31V97.2789C31 90.8574 36.2064 85.651 42.6279 85.651H126.349C132.77 85.651 137.977 90.8574 137.977 97.2789V148.442H105.419" fill="#3AD189"/>
<path d="M44.9535 148.442V137.488C44.9535 135.831 46.2966 134.488 47.9535 134.488H121.023C122.68 134.488 124.023 135.831 124.023 137.488V148.442" fill="#189A5B"/>
<path d="M54.2559 62.0697C54.2559 60.9651 55.1513 60.0697 56.2559 60.0697H112.721C113.826 60.0697 114.721 60.9651 114.721 62.0697V85.6511H54.2559V62.0697Z" fill="#3AD189"/>
<path d="M63.5581 44.4651C63.5581 42.8082 64.9013 41.4651 66.5581 41.4651H102.419C104.075 41.4651 105.419 42.8082 105.419 44.4651V85.6511H63.5581V44.4651Z" fill="#FDB813"/>
<path d="M63.5581 134.488H105.419V178C105.419 179.657 104.075 181 102.419 181H66.5581C64.9013 181 63.5581 179.657 63.5581 178V134.488Z" fill="#E8E8E8"/>
<path d="M49.6045 134.488V128.186C49.6045 126.529 50.9476 125.186 52.6045 125.186H116.372C118.029 125.186 119.372 126.529 119.372 128.186V134.488" fill="#FDB813"/>
<path d="M44.9535 85.651V104.256C44.9535 106.825 49.3605 108.907 51.9302 108.907H117.047C119.616 108.907 124.023 106.825 124.023 104.256V85.651" fill="#189A5B"/>
<path d="M54.2559 99.6045C54.2559 98.3201 55.2971 97.2789 56.5814 97.2789C57.8658 97.2789 58.907 98.3201 58.907 99.6045C58.907 100.889 57.8658 101.93 56.5814 101.93C55.2971 101.93 54.2559 100.889 54.2559 99.6045Z" fill="#FDB813"/>
<path d="M63.5581 99.6045C63.5581 98.3201 64.5993 97.2789 65.8837 97.2789C67.1681 97.2789 68.2093 98.3201 68.2093 99.6045C68.2093 100.889 67.1681 101.93 65.8837 101.93C64.5993 101.93 63.5581 100.889 63.5581 99.6045Z" fill="#FDB813"/>
<path d="M72.8605 99.6045C72.8605 98.3201 73.9017 97.2789 75.1861 97.2789C76.4704 97.2789 77.5116 98.3201 77.5116 99.6045C77.5116 100.889 76.4704 101.93 75.1861 101.93C73.9017 101.93 72.8605 100.889 72.8605 99.6045Z" fill="#FDB813"/>
<path d="M112.395 99.6045C112.395 98.3201 113.436 97.2789 114.721 97.2789C116.005 97.2789 117.046 98.3201 117.046 99.6045C117.046 100.889 116.005 101.93 114.721 101.93C113.436 101.93 112.395 100.889 112.395 99.6045Z" fill="#FDB813"/>
<path d="M103.093 99.6045C103.093 98.3201 104.134 97.2789 105.418 97.2789C106.703 97.2789 107.744 98.3201 107.744 99.6045C107.744 100.889 106.703 101.93 105.418 101.93C104.134 101.93 103.093 100.889 103.093 99.6045Z" fill="#FDB813"/>
<path d="M70.6245 170.847C70.6245 170.082 71.2452 169.461 72.0109 169.461H96.9662C97.7319 169.461 98.3526 170.082 98.3526 170.847C98.3526 171.613 97.7319 172.234 96.9662 172.234H72.0109C71.2452 172.234 70.6245 171.613 70.6245 170.847Z" fill="#48456E"/>
<path d="M70.6245 162.529C70.6245 161.764 71.2452 161.143 72.0109 161.143H96.9662C97.7319 161.143 98.3526 161.764 98.3526 162.529C98.3526 163.295 97.7319 163.916 96.9662 163.916H72.0109C71.2452 163.916 70.6245 163.295 70.6245 162.529Z" fill="#48456E"/>
<path d="M70.6245 154.211C70.6245 153.445 71.2452 152.825 72.0109 152.825H96.9662C97.7319 152.825 98.3526 153.445 98.3526 154.211C98.3526 154.977 97.7319 155.597 96.9662 155.597H72.0109C71.2452 155.597 70.6245 154.977 70.6245 154.211Z" fill="#48456E"/>
<path d="M70.6245 145.893C70.6245 145.127 71.2452 144.506 72.0109 144.506H96.9662C97.7319 144.506 98.3526 145.127 98.3526 145.893C98.3526 146.658 97.7319 147.279 96.9662 147.279H72.0109C71.2452 147.279 70.6245 146.658 70.6245 145.893Z" fill="#48456E"/>
</g>
<defs>
<filter id="filter0_d" x="0" y="0" width="224.679" height="212" filterUnits="userSpaceOnUse" color-interpolation-filters="sRGB">
<feFlood flood-opacity="0" result="BackgroundImageFix"/>
<feColorMatrix in="SourceAlpha" type="matrix" values="0 0 0 0 0 0 0 0 0 0 0 0 0 0 0 0 0 0 127 0"/>
<feOffset/>
<feGaussianBlur stdDeviation="15.5"/>
<feColorMatrix type="matrix" values="0 0 0 0 0.227451 0 0 0 0 0.890196 0 0 0 0 0.572549 0 0 0 0.3 0"/>
<feBlend mode="normal" in2="BackgroundImageFix" result="effect1_dropShadow"/>
<feBlend mode="normal" in="SourceGraphic" in2="effect1_dropShadow" result="shape"/>
</filter>
</defs>
</svg>
