<svg width="80" height="80" viewBox="0 0 80 80" fill="none" xmlns="http://www.w3.org/2000/svg">
<path d="M76.0138 39.973L72.3842 39.5184C71.2808 36.8187 69.6955 34.3216 67.7252 32.1609L70.3938 20.8556C70.5035 20.391 70.3947 19.9017 70.0985 19.5274C69.8022 19.153 69.3511 18.9346 68.8738 18.9342L68.5324 18.9341C68.5303 18.9341 68.5289 18.9341 68.5269 18.9341C64.0971 18.9341 60.1047 21.7213 58.5344 25.8094C57.4238 25.368 56.2821 25.0044 55.1177 24.7289C54.2779 24.5303 53.4361 25.0499 53.2376 25.8899C53.039 26.7297 53.5586 27.5714 54.3985 27.77C58.3758 28.7108 61.9238 30.722 64.7203 33.5131C64.8225 33.6628 64.9499 33.7953 65.0996 33.9025C67.1382 36.0422 68.7496 38.6094 69.7949 41.4862C69.995 42.0375 70.4874 42.4303 71.0692 42.5031L75.6258 43.0736C76.3381 43.1628 76.8752 43.7714 76.8752 44.4892V52.3668C76.8752 53.0847 76.338 53.6933 75.6258 53.7825L71.4035 54.3111C70.7961 54.387 70.2891 54.8106 70.1063 55.3948C68.8536 59.3971 66.4736 62.9364 63.2232 65.6295C62.8649 65.9264 62.6575 66.3675 62.6575 66.8326V75.4692C62.6575 76.2443 62.0269 76.8749 61.2519 76.8749H52.1883C51.4132 76.8749 50.7826 76.2443 50.7826 75.4692V72.1776C50.7826 71.3146 50.0829 70.6151 49.2201 70.6151H36.0929C35.2301 70.6151 34.5304 71.3146 34.5304 72.1776V75.4692C34.5304 76.2443 33.8998 76.8749 33.1246 76.8749H24.0609C23.2859 76.8749 22.6553 76.2443 22.6553 75.4692V69.3709C22.6553 68.7979 22.3417 68.271 21.8382 67.9978C14.8254 64.1903 10.4687 56.8729 10.4687 48.9014C10.4687 36.9283 20.2095 27.1875 32.1826 27.1875H34.1406C35.0034 27.1875 35.7031 26.488 35.7031 25.625C35.7031 24.762 35.0034 24.0625 34.1406 24.0625H32.1826C20.5839 24.0625 10.8175 32.0542 8.09795 42.8203H6.95311C4.84218 42.8203 3.12499 41.103 3.12499 38.9922C3.12499 36.8814 4.84218 35.1641 6.95311 35.1641C7.81592 35.1641 8.51561 34.4645 8.51561 33.6016C8.51561 32.7386 7.81592 32.0391 6.95311 32.0391C3.11921 32.0391 0 35.1581 0 38.9922C0 42.8262 3.11921 45.9453 6.95311 45.9453H7.52045C7.40483 46.915 7.34374 47.9011 7.34374 48.9014C7.34374 57.7059 11.9897 65.8126 19.5301 70.2806V75.4693C19.5301 77.9676 21.5626 80.0001 24.0607 80.0001H33.1243C35.6226 80.0001 37.6551 77.9676 37.6551 75.4693V73.7402H47.6572V75.4693C47.6572 77.9676 49.6897 80.0001 52.188 80.0001H61.2516C63.7497 80.0001 65.7822 77.9676 65.7822 75.4693V67.5531C68.9547 64.7629 71.3488 61.2434 72.7656 57.29L76.0136 56.8832C78.2861 56.5989 79.9998 54.6572 79.9998 52.3668V44.4892C79.9998 42.199 78.2863 40.2573 76.0138 39.973ZM65.1011 29.6745C63.9355 28.7211 62.6871 27.8764 61.3739 27.1511C62.2372 24.6706 64.3428 22.825 66.8539 22.2488L65.1011 29.6745Z" fill="#3AD189"/>
<path d="M62.1985 39.6766C61.9081 39.3859 61.5049 39.2188 61.094 39.2188C60.6831 39.2188 60.2799 39.3859 59.9893 39.6766C59.6987 39.9672 59.5315 40.3703 59.5315 40.7812C59.5315 41.1922 59.6985 41.5953 59.9893 41.8859C60.2801 42.1766 60.6831 42.3437 61.094 42.3437C61.5049 42.3437 61.9081 42.1766 62.1985 41.8859C62.4891 41.5953 62.6565 41.1922 62.6565 40.7812C62.6565 40.3703 62.4891 39.9672 62.1985 39.6766Z" fill="white"/>
<path d="M45.8191 9.1145C44.9563 9.1145 44.2566 9.81403 44.2566 10.677V16.8746C44.2566 17.7376 44.9563 18.4371 45.8191 18.4371C46.6819 18.4371 47.3816 17.7376 47.3816 16.8746V10.677C47.3816 9.81419 46.6821 9.1145 45.8191 9.1145Z" fill="white"/>
<path d="M46.9234 3.90312C46.6329 3.6125 46.2298 3.44531 45.8188 3.44531C45.4078 3.44531 45.0048 3.6125 44.7142 3.90312C44.4235 4.19375 44.2563 4.59687 44.2563 5.00781C44.2563 5.42031 44.4234 5.82187 44.7142 6.1125C45.0048 6.40312 45.4078 6.57031 45.8188 6.57031C46.2298 6.57031 46.6329 6.40312 46.9234 6.1125C47.214 5.82187 47.3813 5.41875 47.3813 5.00781C47.3813 4.59687 47.214 4.19531 46.9234 3.90312Z" fill="white"/>
<path d="M33.125 0C32.2622 0 31.5625 0.69953 31.5625 1.5625V4.21874C31.5625 5.08171 32.2622 5.78124 33.125 5.78124C33.9878 5.78124 34.6875 5.08171 34.6875 4.21874V1.5625C34.6875 0.69953 33.988 0 33.125 0Z" fill="white"/>
<path d="M17.803 48.9013C17.803 48.0383 17.1033 47.3388 16.2405 47.3388C15.3777 47.3388 14.678 48.0383 14.678 48.9013L14.6781 48.9843C14.6834 49.8438 15.382 50.5371 16.2405 50.5371C16.2436 50.5371 16.2469 50.5371 16.2503 50.5371C17.1131 50.5316 17.8084 49.8277 17.8031 48.9647L17.803 48.9013Z" fill="white"/>
<path d="M24.7192 61.1953C22.0031 59.5423 19.8829 57.0028 18.7495 54.0445C18.4406 53.2384 17.537 52.8355 16.7314 53.1445C15.9256 53.4533 15.5226 54.3567 15.8314 55.1627C17.2111 58.7637 19.7906 61.8542 23.0948 63.8648C23.3486 64.0192 23.6287 64.0928 23.9054 64.0928C24.4328 64.0928 24.9476 63.8258 25.2418 63.3423C25.6904 62.6051 25.4562 61.6439 24.7192 61.1953Z" fill="white"/>
<path d="M33.125 7.50812C29.5064 7.50812 26.5625 10.452 26.5625 14.0706C26.5625 17.6892 29.5064 20.6331 33.125 20.6331C36.7436 20.6331 39.6875 17.6892 39.6875 14.0706C39.6875 10.452 36.7436 7.50812 33.125 7.50812ZM33.125 17.5081C31.2295 17.5081 29.6875 15.9661 29.6875 14.0706C29.6875 12.1751 31.2295 10.6331 33.125 10.6331C35.0205 10.6331 36.5625 12.1751 36.5625 14.0706C36.5625 15.9661 35.0205 17.5081 33.125 17.5081Z" fill="white"/>
<path d="M52.8125 33.125H51.4062C52.024 32.1245 52.3815 30.9472 52.3815 29.6875C52.3815 26.0689 49.4376 23.125 45.819 23.125C42.2004 23.125 39.2565 26.0689 39.2565 29.6875C39.2564 30.9472 39.6139 32.1245 40.2317 33.125H32.5C31.6372 33.125 30.9375 33.8245 30.9375 34.6875C30.9375 35.5504 31.6372 36.25 32.5 36.25H52.8125C53.6753 36.25 54.375 35.5504 54.375 34.6875C54.375 33.8245 53.6754 33.125 52.8125 33.125ZM45.819 33.125C43.9236 33.125 42.3815 31.583 42.3815 29.6875C42.3815 27.792 43.9236 26.25 45.819 26.25C47.7145 26.25 49.2565 27.792 49.2565 29.6875C49.2565 31.583 47.7143 33.125 45.819 33.125Z" fill="white"/>
</svg>
