<svg width="80" height="80" viewBox="0 0 80 80" fill="none" xmlns="http://www.w3.org/2000/svg">
<path d="M73.3333 13.3333H58.6667V2.33333C58.6667 0.5 57.5 0 56.3333 0H23.6667C22 0 21.3333 1 21.3333 2.33333V13.3333H6.66667C2.98667 13.3377 0.00433333 16.32 0 20V62.6667C0.00433333 66.3467 2.98667 69.329 6.66667 69.3333H34.6667V77.3333H16C15.2637 77.3333 14.6667 77.9303 14.6667 78.6667C14.6667 79.403 15.2637 80 16 80H64C64.7363 80 65.3333 79.403 65.3333 78.6667C65.3333 77.9303 64.7363 77.3333 64 77.3333H45.3333V69.3333H73.3333C77.0133 69.329 79.9957 66.3467 80 62.6667V20C79.9957 16.32 77.0133 13.3377 73.3333 13.3333ZM56 2.66667V6.47733C55.756 6.41983 55.5163 6.3455 55.2827 6.25467C55.248 6.24 55.2147 6.21867 55.18 6.204C54.932 6.093 54.693 5.96283 54.4653 5.81467C54.3973 5.772 54.332 5.728 54.2667 5.68133C53.7695 5.3295 53.3358 4.89583 52.984 4.39867C52.9387 4.33467 52.8947 4.26533 52.8507 4.2C52.7025 3.97233 52.5723 3.73333 52.4613 3.48533C52.4467 3.45067 52.4253 3.41733 52.4107 3.38267C52.3203 3.1495 52.2463 2.91017 52.1893 2.66667H56ZM24 2.66667H27.8107C27.7532 2.91067 27.6788 3.15033 27.588 3.384C27.5733 3.41867 27.5533 3.452 27.5373 3.48667C27.4262 3.735 27.296 3.97433 27.148 4.20267C27.1053 4.26933 27.0613 4.336 27.0147 4.4C26.6628 4.89717 26.2292 5.33083 25.732 5.68267C25.668 5.728 25.5987 5.772 25.5347 5.816C25.3063 5.964 25.067 6.09417 24.8187 6.20533C24.784 6.22 24.7507 6.24133 24.716 6.256C24.4828 6.34633 24.2435 6.42017 24 6.47733V2.66667ZM24 9.22267C24.032 9.22267 24.0613 9.204 24.0933 9.19867C24.4547 9.13467 24.811 9.0455 25.16 8.932C25.2227 8.91067 25.2827 8.88667 25.344 8.864C25.6547 8.75417 25.958 8.62467 26.252 8.476C26.3027 8.452 26.3533 8.43067 26.4027 8.404C26.7178 8.236 27.0213 8.04667 27.3107 7.83733C27.3747 7.792 27.436 7.744 27.4987 7.69733C28.0777 7.257 28.5943 6.74033 29.0347 6.16133C29.0813 6.09867 29.1293 6.03733 29.1747 5.97333C29.3812 5.68417 29.5678 5.38117 29.7333 5.06667C29.76 5.01733 29.7813 4.96667 29.8053 4.916C29.954 4.622 30.0835 4.31867 30.1933 4.008C30.216 3.94667 30.24 3.88667 30.2613 3.824C30.375 3.475 30.464 3.11867 30.528 2.75733C30.528 2.72533 30.5453 2.696 30.552 2.664H49.444C49.4507 2.696 49.4627 2.72533 49.468 2.75733C49.532 3.11867 49.621 3.475 49.7347 3.824C49.756 3.88667 49.78 3.94667 49.8027 4.008C49.9125 4.31867 50.042 4.622 50.1907 4.916C50.2147 4.96667 50.236 5.01733 50.2627 5.06667C50.4307 5.38183 50.62 5.68533 50.8293 5.97467C50.8747 6.03867 50.9227 6.1 50.9627 6.16267C51.403 6.74167 51.9197 7.25833 52.4987 7.69867C52.5613 7.74533 52.6227 7.79333 52.6867 7.83867C52.978 8.04633 53.2832 8.234 53.6 8.4C53.6493 8.42667 53.7 8.448 53.7507 8.472C54.0472 8.62233 54.3532 8.75317 54.6667 8.864C54.728 8.88667 54.788 8.91067 54.8507 8.932C55.1997 9.04567 55.556 9.13467 55.9173 9.19867C55.9493 9.19867 55.9787 9.216 56.0107 9.22267V26.6667H49.2373C49.2227 26.564 49.1973 26.4653 49.1787 26.364C49.156 26.2373 49.1347 26.1093 49.1067 25.984C49.0693 25.816 49.024 25.6507 48.9733 25.4867C48.94 25.368 48.9093 25.248 48.8707 25.132C48.816 24.9613 48.7507 24.7947 48.6867 24.628C48.6453 24.5227 48.6093 24.416 48.564 24.3133C48.484 24.1267 48.3933 23.9467 48.2973 23.7667C48.2573 23.6893 48.2227 23.608 48.1813 23.532C48.048 23.2813 47.8947 23.036 47.7347 22.7987C47.6947 22.74 47.6493 22.6853 47.608 22.628C47.484 22.4507 47.3573 22.276 47.2213 22.1093C47.152 22.0253 47.0773 21.9467 47.0053 21.8653C46.888 21.732 46.7707 21.5987 46.6467 21.4653C46.564 21.38 46.476 21.3 46.3893 21.2187C46.2667 21.104 46.144 20.9893 46.016 20.88C45.9227 20.8 45.8253 20.7253 45.728 20.6493C45.5947 20.548 45.4613 20.4493 45.328 20.3547C45.2253 20.2827 45.1213 20.2133 45.0147 20.1453C44.8813 20.0573 44.7387 19.9733 44.5973 19.892C44.488 19.8293 44.376 19.768 44.264 19.7093C44.1187 19.6347 43.9693 19.564 43.82 19.496C43.7053 19.444 43.5907 19.392 43.4747 19.3453C43.3173 19.2813 43.1573 19.2253 42.9973 19.1693C42.88 19.1307 42.7653 19.088 42.6467 19.0533C42.476 19.0027 42.3027 18.9613 42.1293 18.92C42.0147 18.8933 41.9027 18.8627 41.7867 18.84C41.592 18.8013 41.3933 18.7747 41.1933 18.7493C41.0947 18.736 40.9973 18.7173 40.8973 18.708C40.6133 18.684 40.308 18.6667 40 18.6667C39.692 18.6667 39.3867 18.684 39.0867 18.7133C38.9867 18.7227 38.8893 18.7413 38.7907 18.7547C38.5907 18.78 38.3907 18.8067 38.1973 18.8453C38.0813 18.868 37.9693 18.8987 37.8547 18.9253C37.6813 18.9667 37.508 19.008 37.3373 19.0587C37.2187 19.0933 37.104 19.136 36.9867 19.1747C36.8267 19.2307 36.6667 19.2867 36.5093 19.3507C36.3933 19.3973 36.2787 19.4493 36.164 19.5013C36.0147 19.5693 35.8653 19.6347 35.72 19.7147C35.608 19.7733 35.496 19.8347 35.3867 19.8973C35.2453 19.9787 35.1053 20.0627 34.9693 20.1507C34.8627 20.2187 34.7587 20.284 34.656 20.36C34.5227 20.4547 34.3893 20.5533 34.256 20.6547C34.1587 20.7307 34.0613 20.8053 33.968 20.8853C33.8347 20.9947 33.7173 21.1093 33.5947 21.224C33.508 21.3053 33.42 21.3853 33.3373 21.4707C33.2133 21.5973 33.096 21.7307 32.9787 21.8707C32.9067 21.952 32.832 22.0307 32.7627 22.1147C32.6293 22.2813 32.496 22.456 32.376 22.6333C32.3347 22.6907 32.2893 22.7453 32.2427 22.804C32.0827 23.0413 31.9347 23.2867 31.796 23.5373C31.7547 23.6133 31.72 23.6947 31.68 23.772C31.588 23.952 31.4973 24.132 31.4133 24.3187C31.368 24.4213 31.332 24.528 31.2907 24.6333C31.2267 24.8 31.1573 24.9667 31.1067 25.1373C31.068 25.2533 31.0373 25.3733 31.004 25.492C30.9587 25.656 30.9133 25.8213 30.8707 25.9893C30.8427 26.1147 30.8213 26.2427 30.7987 26.3693C30.78 26.4707 30.7547 26.5693 30.74 26.672H24V9.22267ZM46.544 26.6667H33.4667C33.4667 26.6427 33.4827 26.6213 33.488 26.5973C33.5703 26.2177 33.6858 25.846 33.8333 25.4867C33.8853 25.36 33.9547 25.244 34.0147 25.1213C34.1295 24.8767 34.2587 24.6388 34.4013 24.4093C34.4867 24.276 34.5827 24.156 34.6773 24.032C34.8237 23.832 34.9812 23.6407 35.1493 23.4587C35.26 23.34 35.3787 23.228 35.4973 23.1187C35.676 22.9535 35.8638 22.7987 36.06 22.6547C36.1933 22.5573 36.3267 22.4627 36.46 22.376C36.6727 22.2447 36.8927 22.1253 37.1187 22.0187C37.26 21.9507 37.3987 21.8773 37.5453 21.8187C37.8045 21.7205 38.0695 21.6382 38.3387 21.572C38.472 21.5373 38.5973 21.492 38.7387 21.4653C39.5745 21.2947 40.4362 21.2947 41.272 21.4653C41.4053 21.492 41.5387 21.5373 41.6653 21.572C41.9368 21.6378 42.204 21.7202 42.4653 21.8187C42.612 21.8773 42.7507 21.952 42.892 22.0187C43.1182 22.1253 43.338 22.2447 43.5507 22.376C43.684 22.4627 43.8173 22.5573 43.9507 22.6547C44.1468 22.7987 44.3347 22.9535 44.5133 23.1187C44.632 23.228 44.7507 23.34 44.8613 23.4587C45.0295 23.6407 45.187 23.832 45.3333 24.032C45.428 24.156 45.524 24.2787 45.6093 24.4093C45.752 24.6388 45.8812 24.8767 45.996 25.1213C46.056 25.244 46.1293 25.36 46.1773 25.4867C46.3248 25.846 46.4403 26.2177 46.5227 26.5973C46.5227 26.6213 46.5387 26.6427 46.544 26.6667ZM42.6667 77.3333H37.3333V69.3333H42.6667V77.3333ZM77.3333 62.6667C77.3333 64.8758 75.5425 66.6667 73.3333 66.6667H6.66667C4.4575 66.6667 2.66667 64.8758 2.66667 62.6667V61.3333H77.3333V62.6667ZM77.3333 58.6667H2.66667V20C2.66667 17.7908 4.4575 16 6.66667 16H21.3333V26.6667H18.6667C17.9303 26.6667 17.3333 27.2637 17.3333 28C17.3333 28.7363 17.9303 29.3333 18.6667 29.3333H61.3333C62.0697 29.3333 62.6667 28.7363 62.6667 28C62.6667 27.2637 62.0697 26.6667 61.3333 26.6667H58.6667V16H73.3333C75.5425 16 77.3333 17.7908 77.3333 20V58.6667Z" fill="#3AD189"/>
<path d="M14.6667 18.6667H6.66671C5.93037 18.6667 5.33337 19.2637 5.33337 20V28C5.33337 28.7364 5.93037 29.3334 6.66671 29.3334C7.40304 29.3334 8.00004 28.7364 8.00004 28V21.3334H14.6667C15.403 21.3334 16 20.7364 16 20C16 19.2637 15.403 18.6667 14.6667 18.6667Z" fill="white"/>
<path d="M73.3333 45.3333C72.597 45.3333 72 45.9303 72 46.6666V53.3333H65.3333C64.597 53.3333 64 53.9303 64 54.6666C64 55.403 64.597 56 65.3333 56H73.3333C74.0697 56 74.6667 55.403 74.6667 54.6666V46.6666C74.6667 45.9303 74.0697 45.3333 73.3333 45.3333Z" fill="white"/>
<path d="M55 40H33C32.4477 40 32 40.4477 32 41V41.6667C32 42.219 32.4477 42.6667 33 42.6667H55C55.5523 42.6667 56 42.219 56 41.6667V41C56 40.4477 55.5523 40 55 40Z" fill="white"/>
<path d="M55 45.3333H25C24.4477 45.3333 24 45.781 24 46.3333V47C24 47.5523 24.4477 48 25 48H55C55.5523 48 56 47.5523 56 47V46.3333C56 45.781 55.5523 45.3333 55 45.3333Z" fill="white"/>
<path d="M55 50.6667H25C24.4477 50.6667 24 51.1144 24 51.6667V52.3334C24 52.8856 24.4477 53.3334 25 53.3334H55C55.5523 53.3334 56 52.8856 56 52.3334V51.6667C56 51.1144 55.5523 50.6667 55 50.6667Z" fill="white"/>
<path d="M28.3333 40H25C24.4477 40 24 40.4477 24 41V41.6667C24 42.219 24.4477 42.6667 25 42.6667H28.3333C28.8856 42.6667 29.3333 42.219 29.3333 41.6667V41C29.3333 40.4477 28.8856 40 28.3333 40Z" fill="white"/>
</svg>
