<svg width="214" height="212" viewBox="0 0 214 212" fill="none" xmlns="http://www.w3.org/2000/svg">
<g filter="url(#filter0_d)">
<path d="M125.272 174.641L120.027 156.686H93.8429L87.8948 174.641H82.1322C79.9231 174.641 78.1322 176.432 78.1322 178.641V181H135.738V178.641C135.738 176.432 133.947 174.641 131.738 174.641H125.272Z" fill="#3AD189"/>
<path d="M175.015 51.9476H38.8554C34.5173 51.9476 31 55.4649 31 59.803V140.975H182.87V59.803C182.87 55.4649 179.353 51.9476 175.015 51.9476Z" fill="#F4F4F4"/>
<path d="M31 148.83C31 153.169 34.5173 156.686 38.8554 156.686H175.015C179.353 156.686 182.87 153.169 182.87 148.83V140.975H31V148.83Z" fill="#3AD189"/>
<path d="M159.304 31H54.5662C50.2281 31 46.7108 34.5173 46.7108 38.8554V140.975H167.16V38.8554C167.16 34.5173 163.642 31 159.304 31Z" fill="white"/>
<path d="M130.501 119.409C130.501 118.304 131.397 117.409 132.501 117.409H149.449C150.553 117.409 151.449 118.304 151.449 119.409V125.883C151.449 126.987 150.553 127.883 149.449 127.883H132.501C131.397 127.883 130.501 126.987 130.501 125.883V119.409Z" fill="#FDB813"/>
<path d="M128.175 98.4614C128.175 97.3569 129.07 96.4614 130.175 96.4614H147.123C148.227 96.4614 149.123 97.3569 149.123 98.4614V104.935C149.123 106.04 148.227 106.935 147.123 106.935H130.175C129.07 106.935 128.175 106.04 128.175 104.935V98.4614Z" fill="#FDB813"/>
<path d="M128.175 77.5137C128.175 76.4091 129.07 75.5137 130.175 75.5137H147.123C148.227 75.5137 149.123 76.4091 149.123 77.5137V83.9875C149.123 85.0921 148.227 85.9875 147.123 85.9875H130.175C129.07 85.9875 128.175 85.0921 128.175 83.9875V77.5137Z" fill="#FDB813"/>
<path d="M133.412 108.935C133.412 107.831 134.307 106.935 135.412 106.935H152.36C153.464 106.935 154.36 107.831 154.36 108.935V115.409C154.36 116.514 153.464 117.409 152.36 117.409H135.412C134.307 117.409 133.412 116.514 133.412 115.409V108.935Z" fill="#DC9714"/>
<path d="M133.412 87.9875C133.412 86.883 134.307 85.9875 135.412 85.9875H152.36C153.464 85.9875 154.36 86.883 154.36 87.9875V94.4614C154.36 95.5659 153.464 96.4614 152.36 96.4614H135.412C134.307 96.4614 133.412 95.5659 133.412 94.4614V87.9875Z" fill="#DC9714"/>
<path d="M130.793 67.0399C130.793 65.9353 131.689 65.0399 132.793 65.0399H149.741C150.846 65.0399 151.741 65.9353 151.741 67.0399V73.5137C151.741 74.6183 150.846 75.5137 149.741 75.5137H132.793C131.689 75.5137 130.793 74.6183 130.793 73.5137V67.0399Z" fill="#DC9714"/>
<path d="M103.227 43.2157C103.227 42.4709 102.623 41.8672 101.878 41.8672H100.529V40.5186C100.529 39.7738 99.9257 39.17 99.1809 39.17C98.4361 39.17 97.8324 39.7738 97.8324 40.5186V41.8672H96.4838C95.739 41.8672 95.1353 42.4709 95.1353 43.2157C95.1353 43.9605 95.739 44.5643 96.4838 44.5643H97.8324V45.9128C97.8324 46.6576 98.4361 47.2614 99.1809 47.2614C99.9257 47.2614 100.529 46.6576 100.529 45.9128V44.5643H101.878C102.623 44.5643 103.227 43.9605 103.227 43.2157Z" fill="#3AD189"/>
<path d="M124.804 60.747C124.804 60.0022 124.2 59.3984 123.455 59.3984H122.107V58.0499C122.107 57.3051 121.503 56.7013 120.758 56.7013C120.013 56.7013 119.409 57.3051 119.409 58.0499V59.3984H118.061C117.316 59.3984 116.712 60.0022 116.712 60.747C116.712 61.4918 117.316 62.0955 118.061 62.0955H119.409V63.4441C119.409 64.1889 120.013 64.7927 120.758 64.7927C121.503 64.7927 122.107 64.1889 122.107 63.4441V62.0955H123.455C124.2 62.0955 124.804 61.4918 124.804 60.747Z" fill="#3AD189"/>
<path d="M68.164 68.8384C68.164 68.0936 67.5602 67.4898 66.8154 67.4898H65.4669V66.1413C65.4669 65.3965 64.8631 64.7927 64.1183 64.7927C63.3735 64.7927 62.7698 65.3965 62.7698 66.1413V67.4898H61.4212C60.6764 67.4898 60.0726 68.0936 60.0726 68.8384C60.0726 69.5832 60.6764 70.187 61.4212 70.187H62.7698V71.5355C62.7698 72.2803 63.3735 72.8841 64.1183 72.8841C64.8631 72.8841 65.4669 72.2803 65.4669 71.5355V70.187H66.8154C67.5602 70.187 68.164 69.5832 68.164 68.8384Z" fill="#3AD189"/>
<path d="M123.207 167.16L120.027 156.686H93.8429L90.365 167.16H123.207Z" fill="#189A5B"/>
<path d="M118.176 123.413L114.79 120.027V93.843C114.782 82.0364 106.897 71.811 95.7263 68.6631C94.4894 68.3146 93.763 66.9718 94.2693 65.7906L97.8849 57.354C98.4506 56.0343 97.4825 54.5662 96.0467 54.5662H81.1652C79.7294 54.5662 78.7613 56.0343 79.3269 57.354L82.9426 65.7906C83.4488 66.9718 82.7225 68.3146 81.4856 68.6631C70.3152 71.811 62.4297 82.0364 62.4214 93.843V120.027L59.0358 123.413C58.2866 124.162 58.0628 125.289 58.4681 126.267C58.8734 127.245 59.8285 127.883 60.8871 127.883H116.325C117.383 127.883 118.338 127.245 118.744 126.267C119.149 125.289 118.925 124.162 118.176 123.413Z" fill="#FDB813"/>
<path d="M114.791 120.028V93.843C114.785 92.6424 114.699 91.4444 114.528 90.2554C99.0799 114.791 83.3692 122.646 61.1123 127.883H116.325C117.383 127.883 118.339 127.245 118.744 126.267C119.149 125.289 118.925 124.162 118.176 123.413L114.791 120.028Z" fill="#F2AB26"/>
<path d="M93.3379 95.904L84.7359 94.472C83.8946 94.3352 83.3001 93.5758 83.3678 92.7268C83.4369 91.8779 84.1465 91.2245 84.998 91.2245H96.4614V85.9876H91.2245V80.7507H85.9876V85.9876H85.0031C81.4245 85.9825 78.4403 88.725 78.145 92.2921C77.8509 95.8593 80.3428 99.0556 83.8742 99.6374L92.4762 101.069C93.3175 101.206 93.912 101.966 93.8442 102.815C93.7752 103.663 93.0656 104.317 92.2141 104.317H80.7507V109.554H85.9876V114.791H91.2245V109.554H92.209C95.7876 109.559 98.7717 106.816 99.0671 103.249C99.3611 99.6821 96.8693 96.4858 93.3379 95.904Z" fill="#FD6D2F"/>
<path d="M46.7108 135.738H167.16V140.975H46.7108V135.738Z" fill="#FDB813"/>
<path d="M51.9812 37.4844C51.9812 36.5534 52.7359 35.7987 53.6669 35.7987C54.5979 35.7987 55.3526 36.5534 55.3526 37.4844C55.3526 38.4154 54.5979 39.1701 53.6669 39.1701C52.7359 39.1701 51.9812 38.4154 51.9812 37.4844Z" fill="#EB5757"/>
<path d="M57.3755 37.4844C57.3755 36.5534 58.1302 35.7987 59.0612 35.7987C59.9922 35.7987 60.7469 36.5534 60.7469 37.4844C60.7469 38.4154 59.9922 39.1701 59.0612 39.1701C58.1302 39.1701 57.3755 38.4154 57.3755 37.4844Z" fill="#F2C94C"/>
<path d="M62.7698 37.4844C62.7698 36.5534 63.5245 35.7987 64.4555 35.7987C65.3865 35.7987 66.1412 36.5534 66.1412 37.4844C66.1412 38.4154 65.3865 39.1701 64.4555 39.1701C63.5245 39.1701 62.7698 38.4154 62.7698 37.4844Z" fill="#27AE60"/>
<path d="M93.3379 95.904L84.7359 94.472C83.8946 94.3352 83.3001 93.5758 83.3678 92.7268C83.4369 91.8779 84.1465 91.2245 84.998 91.2245H96.4614V85.9876H91.2245V80.7507H85.9876V85.9876H85.0031C81.4245 85.9825 78.4403 88.725 78.145 92.2921C77.8509 95.8593 80.3428 99.0556 83.8742 99.6374L92.4762 101.069C93.3175 101.206 93.912 101.966 93.8442 102.815C93.7752 103.663 93.0656 104.317 92.2141 104.317H80.7507V109.554H85.9876V114.791H91.2245V109.554H92.209C95.7876 109.559 98.7717 106.816 99.0671 103.249C99.3611 99.6821 96.8693 96.4858 93.3379 95.904Z" fill="#28263A"/>
</g>
<defs>
<filter id="filter0_d" x="0" y="0" width="213.87" height="212" filterUnits="userSpaceOnUse" color-interpolation-filters="sRGB">
<feFlood flood-opacity="0" result="BackgroundImageFix"/>
<feColorMatrix in="SourceAlpha" type="matrix" values="0 0 0 0 0 0 0 0 0 0 0 0 0 0 0 0 0 0 127 0"/>
<feOffset/>
<feGaussianBlur stdDeviation="15.5"/>
<feColorMatrix type="matrix" values="0 0 0 0 0.227451 0 0 0 0 0.890196 0 0 0 0 0.572549 0 0 0 0.3 0"/>
<feBlend mode="normal" in2="BackgroundImageFix" result="effect1_dropShadow"/>
<feBlend mode="normal" in="SourceGraphic" in2="effect1_dropShadow" result="shape"/>
</filter>
</defs>
</svg>
