<svg width="78" height="80" viewBox="0 0 78 80" fill="none" xmlns="http://www.w3.org/2000/svg">
<path d="M12.6609 65.1078C13.5238 65.1078 14.2234 64.4083 14.2234 63.5453C14.2234 62.6824 13.5238 61.9828 12.6609 61.9828C11.7979 61.9828 11.0984 62.6824 11.0984 63.5453C11.0984 64.4083 11.7979 65.1078 12.6609 65.1078Z" fill="white"/>
<path d="M72.5 46.475C73.3629 46.475 74.0625 45.7754 74.0625 44.9125C74.0625 44.0495 73.3629 43.35 72.5 43.35C71.6371 43.35 70.9375 44.0495 70.9375 44.9125C70.9375 45.7754 71.6371 46.475 72.5 46.475Z" fill="white"/>
<path d="M54.4135 33.1788H53.5078H52.9201H52.0143C51.2559 33.1788 50.639 32.5619 50.639 31.8035V30.408C50.6392 29.6496 51.256 29.0327 52.0143 29.0327H54.6724C55.2879 29.0327 55.7888 29.5333 55.7888 30.1489C55.7888 31.0117 56.4885 31.7114 57.3513 31.7114C58.2142 31.7114 58.9138 31.0117 58.9138 30.1489C58.9138 27.8453 57.0673 25.966 54.7765 25.9103V24.5691C54.7765 23.7063 54.0768 23.0066 53.214 23.0066C52.3512 23.0066 51.6515 23.7063 51.6515 24.5691V25.9236C49.3393 26.1092 47.5142 28.0489 47.5142 30.408V31.8035C47.5142 34.2849 49.5331 36.3038 52.0145 36.3038H52.9203H53.5079H54.4137C55.1721 36.3038 55.789 36.9207 55.789 37.6789V39.0746C55.789 39.8328 55.1721 40.4497 54.4137 40.4497H51.7556C51.1401 40.4497 50.6392 39.9491 50.6392 39.3335C50.6392 38.4707 49.9395 37.771 49.0767 37.771C48.2138 37.771 47.5142 38.4707 47.5142 39.3335C47.5142 41.6372 49.3609 43.5164 51.6515 43.5721V44.9133C51.6515 45.7761 52.3512 46.4758 53.214 46.4758C54.0768 46.4758 54.7765 45.7761 54.7765 44.9133V43.5588C57.0887 43.3732 58.9138 41.4336 58.9138 39.0746V37.6789C58.9138 35.1975 56.8949 33.1788 54.4135 33.1788Z" fill="white"/>
<path d="M77.1091 52.9702C76.4662 51.5141 75.2946 50.3953 73.8104 49.8203C72.3262 49.2453 70.7066 49.2825 69.2505 49.9258C69.2427 49.9291 69.2349 49.9327 69.2274 49.9361L59.3854 54.4749C58.6016 54.8363 58.2594 55.7645 58.6207 56.5481C58.9821 57.3319 59.9105 57.6739 60.694 57.3128L70.5234 52.7799C71.2132 52.4788 71.9791 52.4627 72.6816 52.7344C73.3876 53.008 73.9446 53.5399 74.2504 54.2325C74.5563 54.9252 74.574 55.6952 74.3005 56.4011C74.027 57.1072 73.4951 57.6642 72.8024 57.97L52.6618 66.8628C49.4859 68.2652 45.881 68.1836 42.771 66.6386L35.3984 62.9759C31.4549 61.0167 26.883 60.9128 22.8551 62.6917L22.7613 62.733L17.2968 50.3564L24.8949 47.0017C28.526 45.3985 32.5776 45.2694 36.303 46.6374L51.1288 52.0819C52.453 52.5681 53.1588 54.0497 52.7021 55.3842C52.2368 56.7442 50.7504 57.4759 49.3888 57.0155L37.924 53.1377C37.1063 52.8611 36.2198 53.2997 35.9432 54.1172C35.6666 54.9347 36.1052 55.8214 36.9227 56.098L48.3876 59.9758C48.9938 60.181 49.6112 60.2783 50.219 60.2783C52.6069 60.2783 54.8449 58.7752 55.659 56.3958C56.661 53.4667 55.1119 50.2156 52.206 49.1486L37.3802 43.7041C36.383 43.3378 35.3665 43.0611 34.3405 42.8727V34.2356C34.3405 25.7194 41.2691 18.7908 49.7854 18.7908H55.4923C64.0087 18.7908 70.9373 25.7194 70.9373 34.2356V38.3077C70.9373 39.1705 71.6369 39.8702 72.4998 39.8702C73.3626 39.8702 74.0623 39.1705 74.0623 38.3077V34.2356C74.0623 25.2167 67.599 17.68 59.061 16.0113V11.3045L63.009 4.55111C63.2323 4.16939 63.2832 3.71079 63.1491 3.28939C63.0151 2.86798 62.709 2.52298 62.3063 2.34001L57.4641 0.140013C57.0934 -0.0284241 56.6716 -0.0454554 56.2887 0.0923571L52.6957 1.38548L49.5088 0.111576C49.1424 -0.0346741 48.7345 -0.0370179 48.3663 0.104701L43.2994 2.05954C42.8779 2.2222 42.5474 2.55954 42.393 2.98439C42.239 3.40923 42.2762 3.87986 42.4954 4.27517L46.383 11.2856V15.9791C37.7629 17.5819 31.2155 25.1578 31.2155 34.2353V42.5728C28.6343 42.5485 26.0559 43.0727 23.6327 44.1425L15.978 47.5222C15.5396 46.8661 14.9143 46.3589 14.1632 46.068C13.1988 45.6942 12.1465 45.7186 11.2041 46.1347L1.31507 50.468C0.746792 50.717 0.379761 51.2786 0.379761 51.8991V78.4375C0.379761 78.9802 0.661323 79.4839 1.12351 79.7684C1.37398 79.9224 1.65773 80 1.94226 80C2.1832 80 2.42476 79.9444 2.64679 79.8322L21.8457 70.1336C22.7716 69.712 23.4827 68.9589 23.8509 68.0086C24.1516 67.2322 24.1944 66.3989 23.9819 65.6099L24.1171 65.5502C27.2932 64.1475 30.8985 64.2292 34.0079 65.7744L41.3805 69.4372C45.3241 71.396 49.8959 71.4995 53.9238 69.7213L74.0644 60.8285C75.5205 60.1856 76.6393 59.0141 77.2143 57.5299C77.7893 56.0456 77.7519 54.4263 77.1091 52.9702ZM55.936 15.6655H55.4923H49.7854H49.508V12.4439H55.936V15.6655ZM46.0985 4.32876L48.9187 3.24111L52.0866 4.50751C52.4416 4.64939 52.8363 4.65642 53.1959 4.52673L56.7496 3.24751L59.4373 4.46861L56.602 9.31861H48.8657L46.0985 4.32876ZM20.5418 67.2934C20.5171 67.3044 20.4926 67.3161 20.4684 67.3283L3.50476 75.8977V69.5658L7.89742 67.4088C8.6721 67.0283 8.99164 66.092 8.61132 65.3175C8.23085 64.5428 7.29492 64.223 6.52007 64.6036L3.5046 66.0842V52.9203L12.4623 48.995C12.7084 48.8866 12.9263 48.94 13.0343 48.9819C13.1419 49.0238 13.3391 49.1305 13.4479 49.3769L13.806 50.1878C13.8062 50.1881 13.8062 50.1885 13.8063 50.1888C13.8065 50.1891 13.8066 50.1894 13.8068 50.1897L20.9234 66.3075C21.0901 66.6847 20.919 67.1269 20.5418 67.2934Z" fill="#3AD189"/>
</svg>
