<svg width="215" height="212" viewBox="0 0 215 212" fill="none" xmlns="http://www.w3.org/2000/svg">
<g filter="url(#filter0_d)">
<path d="M167.424 94.5593H47.1173C43.1296 94.5593 39.8978 91.713 39.8978 88.2033C39.8978 84.6926 43.1296 81.8474 47.1173 81.8474H167.425C171.412 81.8474 174.644 84.6926 174.644 88.2033C174.644 91.713 171.412 94.5593 167.424 94.5593Z" fill="#3AD189"/>
<path d="M79.699 94.0603H134.842V108.441H79.699V94.0603Z" fill="#189A5B"/>
<path d="M170.569 181H43.9725C34.5771 181 28.3042 171.312 32.1494 162.739L53.0689 116.097C55.1579 111.439 59.7875 108.441 64.8931 108.441H149.648C154.754 108.441 159.384 111.439 161.473 116.097L182.392 162.739C186.237 171.312 179.964 181 170.569 181Z" fill="#3AD189"/>
<path d="M170.569 176.829H43.9727C37.268 176.829 32.1565 171.894 31.1743 165.953C29.9057 173.562 35.7399 181 43.9727 181H170.569C178.802 181 184.636 173.562 183.368 165.953C182.385 171.894 177.274 176.829 170.569 176.829Z" fill="#189A5B"/>
<path d="M107.271 119.89C88.3496 119.89 71.2521 127.681 59.0007 140.227L89.0339 169.552C93.6624 164.81 100.121 161.865 107.271 161.865C114.42 161.865 120.879 164.81 125.508 169.552L155.541 140.227C143.289 127.681 126.192 119.89 107.271 119.89Z" fill="#F4F4F4"/>
<path d="M115.859 161.845C115.859 166.588 112.015 170.433 107.271 170.433C102.527 170.433 98.6831 166.588 98.6831 161.845C98.6831 157.101 102.527 153.256 107.271 153.256C112.015 153.256 115.859 157.101 115.859 161.845Z" fill="#F2AB26"/>
<path d="M107.271 165.42C105.297 165.42 103.696 163.82 103.696 161.845V135.541C103.696 133.567 105.297 131.965 107.271 131.965C109.245 131.965 110.846 133.567 110.846 135.541V161.845C110.846 163.82 109.245 165.42 107.271 165.42Z" fill="#FDB914"/>
<path d="M107.271 119.89C106.429 119.89 105.591 119.911 104.757 119.941V124.957C104.757 126.273 105.824 127.34 107.14 127.34C108.457 127.34 109.524 126.273 109.524 124.957V119.932C108.775 119.907 108.025 119.89 107.271 119.89Z" fill="#FDB813"/>
<path d="M88.0925 127.862C88.3788 128.927 89.3412 129.628 90.3933 129.628C90.597 129.628 90.8041 129.603 91.0113 129.547C92.2833 129.206 93.0375 127.899 92.6965 126.628L91.3954 121.773C89.844 122.147 88.3113 122.573 86.803 123.053L88.0925 127.862Z" fill="#FDB813"/>
<path d="M72.7477 134.981C73.1888 135.745 73.9895 136.173 74.8135 136.173C75.2185 136.173 75.6281 136.07 76.0029 135.853C77.1434 135.195 77.5333 133.737 76.8757 132.597L74.4538 128.402C73.0631 129.177 71.7026 130 70.3735 130.869L72.7477 134.981Z" fill="#FDB813"/>
<path d="M138.362 135.537C138.737 135.754 139.146 135.857 139.551 135.857C140.375 135.857 141.176 135.43 141.617 134.665L143.906 130.701C142.574 129.838 141.212 129.018 139.817 128.249L137.489 132.282C136.832 133.421 137.221 134.879 138.362 135.537Z" fill="#FDB813"/>
<path d="M126.209 127.699L127.476 122.97C125.966 122.497 124.433 122.075 122.88 121.706L121.605 126.465C121.264 127.736 122.019 129.043 123.291 129.384C123.497 129.44 123.704 129.465 123.909 129.465C124.961 129.467 125.924 128.764 126.209 127.699Z" fill="#FDB813"/>
<path d="M146.45 82.2202H67.8303C65.4491 82.2202 63.5195 80.2906 63.5195 77.9095V41.1018H150.761V77.9095C150.761 80.2906 148.83 82.2202 146.45 82.2202Z" fill="#FDB813"/>
<path d="M151.352 31H62.9286C61.5728 31 60.4741 32.0998 60.4741 33.4545V38.6474C60.4741 40.0032 61.5728 41.1018 62.9286 41.1018H151.352C152.708 41.1018 153.807 40.0032 153.807 38.6474V33.4545C153.807 32.0998 152.708 31 151.352 31Z" fill="#D39911"/>
<path d="M151.352 31H62.9286C61.5728 31 60.4741 32.0998 60.4741 33.4545V35.9392C60.4741 34.5834 61.5728 33.4847 62.9286 33.4847H151.352C152.708 33.4847 153.807 34.5845 153.807 35.9392V33.4545C153.807 32.0998 152.708 31 151.352 31Z" fill="#FDB813"/>
<path d="M116.425 51.6331H97.8555C96.5218 51.6331 95.4395 50.5519 95.4395 49.217C95.4395 47.8833 96.5218 46.8021 97.8555 46.8021H116.425C117.76 46.8021 118.841 47.8833 118.841 49.217C118.841 50.5519 117.76 51.6331 116.425 51.6331Z" fill="#D39911"/>
</g>
<defs>
<filter id="filter0_d" x="0" y="0" width="214.542" height="212" filterUnits="userSpaceOnUse" color-interpolation-filters="sRGB">
<feFlood flood-opacity="0" result="BackgroundImageFix"/>
<feColorMatrix in="SourceAlpha" type="matrix" values="0 0 0 0 0 0 0 0 0 0 0 0 0 0 0 0 0 0 127 0"/>
<feOffset/>
<feGaussianBlur stdDeviation="15.5"/>
<feColorMatrix type="matrix" values="0 0 0 0 0.227451 0 0 0 0 0.890196 0 0 0 0 0.572549 0 0 0 0.3 0"/>
<feBlend mode="normal" in2="BackgroundImageFix" result="effect1_dropShadow"/>
<feBlend mode="normal" in="SourceGraphic" in2="effect1_dropShadow" result="shape"/>
</filter>
</defs>
</svg>
