<?xml version="1.0" encoding="utf-8"?>
<!-- Generator: Adobe Illustrator 16.0.0, SVG Export Plug-In . SVG Version: 6.00 Build 0)  -->
<!DOCTYPE svg PUBLIC "-//W3C//DTD SVG 1.1//EN" "http://www.w3.org/Graphics/SVG/1.1/DTD/svg11.dtd">
<svg version="1.1" id="Layer_1" xmlns="http://www.w3.org/2000/svg" xmlns:xlink="http://www.w3.org/1999/xlink" x="0px" y="0px"
	 width="11.7px" height="11.7px" viewBox="0 0 11.7 11.7" enable-background="new 0 0 11.7 11.7" xml:space="preserve">
<g>
	<defs>
		<rect id="SVGID_1_" width="11.7" height="11.7"/>
	</defs>
	<clipPath id="SVGID_2_">
		<use xlink:href="#SVGID_1_"  overflow="visible"/>
	</clipPath>
	<path clip-path="url(#SVGID_2_)" fill="#FFFFFF" d="M5.85,1.054c1.562,0,1.747,0.006,2.364,0.034C8.785,1.114,9.094,1.21,9.3,1.29
		c0.274,0.106,0.468,0.232,0.673,0.438c0.205,0.204,0.332,0.399,0.438,0.671c0.08,0.207,0.175,0.517,0.2,1.087
		c0.028,0.617,0.034,0.802,0.034,2.364s-0.006,1.748-0.034,2.364c-0.025,0.57-0.12,0.88-0.2,1.086
		c-0.106,0.273-0.233,0.47-0.438,0.674S9.574,10.306,9.3,10.41c-0.206,0.08-0.515,0.176-1.086,0.202
		c-0.616,0.028-0.802,0.034-2.364,0.034c-1.562,0-1.747-0.006-2.364-0.034c-0.57-0.026-0.88-0.122-1.086-0.202
		c-0.273-0.104-0.468-0.232-0.673-0.437C1.523,9.77,1.396,9.573,1.29,9.3C1.21,9.094,1.114,8.784,1.088,8.214
		C1.06,7.598,1.054,7.412,1.054,5.85S1.06,4.103,1.088,3.486c0.026-0.57,0.122-0.88,0.202-1.087
		c0.106-0.272,0.233-0.467,0.437-0.671C1.932,1.522,2.127,1.396,2.4,1.29c0.206-0.08,0.516-0.176,1.086-0.202
		C4.103,1.06,4.288,1.054,5.85,1.054 M5.85,0C4.262,0,4.062,0.007,3.438,0.035c-0.622,0.028-1.047,0.127-1.42,0.273
		c-0.384,0.149-0.71,0.348-1.036,0.673C0.657,1.307,0.457,1.634,0.308,2.018c-0.145,0.373-0.244,0.797-0.272,1.42
		C0.007,4.062,0,4.262,0,5.85c0,1.588,0.007,1.789,0.036,2.412c0.028,0.623,0.127,1.049,0.272,1.421
		c0.149,0.384,0.349,0.711,0.674,1.035c0.326,0.325,0.652,0.525,1.036,0.676c0.373,0.144,0.798,0.243,1.42,0.271
		C4.062,11.693,4.262,11.7,5.85,11.7c1.589,0,1.788-0.007,2.412-0.035c0.623-0.028,1.048-0.128,1.42-0.271
		c0.385-0.15,0.711-0.351,1.036-0.676c0.325-0.324,0.526-0.651,0.675-1.035c0.145-0.372,0.244-0.798,0.272-1.421
		C11.692,7.639,11.7,7.438,11.7,5.85c0-1.588-0.008-1.788-0.035-2.412c-0.028-0.623-0.128-1.047-0.272-1.42
		c-0.148-0.384-0.35-0.711-0.675-1.037c-0.325-0.325-0.651-0.524-1.036-0.673C9.31,0.162,8.885,0.063,8.262,0.035
		C7.638,0.007,7.438,0,5.85,0"/>
	<path clip-path="url(#SVGID_2_)" fill="#FFFFFF" d="M5.85,2.846c-1.659,0-3.004,1.346-3.004,3.004c0,1.659,1.345,3.005,3.004,3.005
		c1.659,0,3.004-1.347,3.004-3.005C8.854,4.192,7.509,2.846,5.85,2.846 M5.85,7.8C4.773,7.8,3.9,6.927,3.9,5.85
		c0-1.076,0.873-1.949,1.95-1.949c1.077,0,1.95,0.873,1.95,1.949C7.8,6.927,6.927,7.8,5.85,7.8"/>
	<path clip-path="url(#SVGID_2_)" fill="#FFFFFF" d="M9.675,2.728c0,0.388-0.313,0.702-0.702,0.702
		c-0.388,0-0.701-0.314-0.701-0.702c0-0.388,0.313-0.702,0.701-0.702C9.361,2.026,9.675,2.34,9.675,2.728"/>
</g>
</svg>
