<?xml version="1.0" encoding="utf-8"?>
<!-- Generator: Adobe Illustrator 16.0.0, SVG Export Plug-In . SVG Version: 6.00 Build 0)  -->
<!DOCTYPE svg PUBLIC "-//W3C//DTD SVG 1.1//EN" "http://www.w3.org/Graphics/SVG/1.1/DTD/svg11.dtd">
<svg version="1.1" id="Layer_1" xmlns="http://www.w3.org/2000/svg" xmlns:xlink="http://www.w3.org/1999/xlink" x="0px" y="0px"
	 width="11.097px" height="9.018px" viewBox="0 0 11.097 9.018" enable-background="new 0 0 11.097 9.018" xml:space="preserve">
<g>
	<defs>
		<rect id="SVGID_1_" width="11.097" height="9.018"/>
	</defs>
	<clipPath id="SVGID_2_">
		<use xlink:href="#SVGID_1_"  overflow="visible"/>
	</clipPath>
	<path clip-path="url(#SVGID_2_)" fill="#FFFFFF" d="M11.097,1.067c-0.407,0.181-0.847,0.304-1.308,0.359
		c0.47-0.282,0.831-0.728,1.001-1.26c-0.439,0.261-0.927,0.45-1.445,0.552C8.929,0.276,8.338,0,7.683,0
		C6.426,0,5.406,1.019,5.406,2.276c0,0.179,0.02,0.353,0.059,0.519C3.573,2.7,1.895,1.794,0.772,0.416
		C0.576,0.753,0.464,1.144,0.464,1.561c0,0.79,0.402,1.486,1.013,1.895C1.104,3.444,0.753,3.342,0.446,3.171V3.2
		c0,1.103,0.784,2.023,1.826,2.232c-0.191,0.052-0.392,0.08-0.6,0.08c-0.147,0-0.289-0.014-0.429-0.041
		C1.534,6.376,2.374,7.034,3.37,7.052C2.591,7.664,1.61,8.027,0.543,8.027C0.359,8.027,0.178,8.016,0,7.996
		c1.007,0.646,2.204,1.022,3.49,1.022c4.188,0,6.478-3.469,6.478-6.478c0-0.098-0.003-0.197-0.007-0.294
		C10.406,1.925,10.792,1.524,11.097,1.067"/>
</g>
</svg>
