<?xml version="1.0" encoding="utf-8"?>
<!-- Generator: Adobe Illustrator 16.0.0, SVG Export Plug-In . SVG Version: 6.00 Build 0)  -->
<!DOCTYPE svg PUBLIC "-//W3C//DTD SVG 1.1//EN" "http://www.w3.org/Graphics/SVG/1.1/DTD/svg11.dtd">
<svg version="1.1" id="Layer_1" xmlns="http://www.w3.org/2000/svg" xmlns:xlink="http://www.w3.org/1999/xlink" x="0px" y="0px"
	 width="10.374px" height="5.871px" viewBox="0 0 10.374 5.871" enable-background="new 0 0 10.374 5.871" xml:space="preserve">
<g>
	<defs>
		<rect id="SVGID_1_" width="10.374" height="5.871"/>
	</defs>
	<clipPath id="SVGID_2_">
		<use xlink:href="#SVGID_1_"  overflow="visible"/>
	</clipPath>
	<path clip-path="url(#SVGID_2_)" fill-rule="evenodd" clip-rule="evenodd" fill="#FFFFFF" d="M8.929,3.733
		c0.344,0.335,0.708,0.651,1.017,1.022c0.136,0.165,0.265,0.333,0.363,0.522c0.14,0.273,0.014,0.571-0.23,0.587l-1.51-0.001
		c-0.39,0.033-0.701-0.125-0.963-0.391C7.396,5.261,7.201,5.033,7,4.813c-0.082-0.09-0.168-0.175-0.271-0.242
		C6.523,4.438,6.345,4.479,6.226,4.692c-0.119,0.22-0.148,0.462-0.159,0.707C6.051,5.755,5.943,5.848,5.585,5.864
		C4.821,5.9,4.096,5.784,3.423,5.399C2.828,5.061,2.368,4.58,1.968,4.037c-0.781-1.058-1.379-2.22-1.915-3.414
		c-0.122-0.27-0.033-0.414,0.263-0.419c0.493-0.01,0.987-0.009,1.48-0.001c0.2,0.004,0.334,0.118,0.41,0.307
		C2.473,1.167,2.8,1.791,3.209,2.37c0.11,0.154,0.221,0.307,0.379,0.416c0.175,0.121,0.309,0.081,0.391-0.114
		C4.032,2.546,4.055,2.415,4.066,2.28C4.105,1.826,4.11,1.37,4.042,0.916C4,0.63,3.84,0.447,3.556,0.394
		C3.412,0.367,3.434,0.313,3.503,0.23C3.625,0.088,3.74,0,3.968,0h1.708c0.269,0.053,0.329,0.174,0.365,0.445l0.002,1.897
		c-0.004,0.105,0.053,0.416,0.24,0.485c0.151,0.05,0.251-0.072,0.342-0.167c0.408-0.434,0.7-0.947,0.961-1.478
		c0.116-0.234,0.217-0.476,0.312-0.719c0.072-0.18,0.183-0.268,0.386-0.265L9.929,0.2c0.048,0,0.098,0,0.146,0.008
		c0.276,0.048,0.354,0.167,0.267,0.438c-0.135,0.424-0.397,0.778-0.653,1.132c-0.275,0.38-0.567,0.747-0.84,1.128
		C8.599,3.254,8.618,3.431,8.929,3.733"/>
</g>
</svg>
