<svg width="13" height="13" viewBox="0 0 13 13" fill="none" xmlns="http://www.w3.org/2000/svg">
<path d="M12.8882 5.93191L6.49988 0L0.111806 5.93191C0.0218211 6.01566 0.0164754 6.15665 0.100224 6.24686C0.183528 6.33685 0.324965 6.34197 0.414951 6.25844L1.37695 5.36505V6.09518V13H4.94073V8.99075C4.94073 8.12965 5.63878 7.43159 6.49988 7.43159C7.36098 7.43159 8.05903 8.12965 8.05903 8.99075V13H11.6228V6.09518V5.36505L12.5848 6.25844C12.6276 6.29831 12.6821 6.31791 12.7365 6.31791C12.7964 6.31791 12.8559 6.29408 12.8995 6.24686C12.9835 6.15665 12.9782 6.01566 12.8882 5.93191Z" fill="#EAEAEA"/>
</svg>
