<?xml version="1.0" encoding="utf-8"?>
<!-- Generator: Adobe Illustrator 16.0.0, SVG Export Plug-In . SVG Version: 6.00 Build 0)  -->
<!DOCTYPE svg PUBLIC "-//W3C//DTD SVG 1.1//EN" "http://www.w3.org/Graphics/SVG/1.1/DTD/svg11.dtd">
<svg version="1.1" id="Layer_1" xmlns="http://www.w3.org/2000/svg" xmlns:xlink="http://www.w3.org/1999/xlink" x="0px" y="0px"
	 width="85.127px" height="91.324px" viewBox="0 0 85.127 91.324" enable-background="new 0 0 85.127 91.324" xml:space="preserve">
<g>
	<defs>
		<rect id="SVGID_1_" width="85.127" height="91.324"/>
	</defs>
	<clipPath id="SVGID_2_">
		<use xlink:href="#SVGID_1_"  overflow="visible"/>
	</clipPath>
	<path clip-path="url(#SVGID_2_)" d="M84.46,27.628L43.396,0.252c-0.504-0.336-1.161-0.336-1.665,0L0.667,27.628
		C0.251,27.906,0,28.375,0,28.876s0.25,0.97,0.667,1.248l6.237,4.158v21.913c0,0.511,0.261,0.987,0.69,1.263l34.4,22.053
		c0.246,0.158,0.528,0.237,0.809,0.237c0.296,0,0.592-0.087,0.845-0.261l17.947-12.244v8.538L54.91,89.153
		c-0.232,0.465-0.207,1.019,0.064,1.46c0.273,0.441,0.757,0.711,1.277,0.711h13.688c0.521,0,1.004-0.27,1.276-0.711
		s0.298-0.995,0.065-1.46l-6.687-13.372V65.196l11.377-7.762c0.409-0.279,0.655-0.743,0.655-1.239V35.346l7.833-5.222
		c0.417-0.278,0.667-0.747,0.667-1.248S84.877,27.906,84.46,27.628 M58.679,88.324l4.417-8.834l4.417,8.834H58.679z M42.777,76.45
		L9.904,55.375V36.282l31.827,21.219c0.252,0.168,0.542,0.253,0.832,0.253c0.291,0,0.581-0.085,0.833-0.253l18.199-12.134v18.244
		L42.777,76.45z M73.627,55.403l-9.031,6.162V43.367l9.031-6.021V55.403z M74.605,33.088c-0.221,0.082-0.416,0.213-0.573,0.383
		l-10.937,7.291L43.396,27.628c-0.691-0.46-1.622-0.273-2.081,0.416s-0.273,1.621,0.416,2.08l18.66,12.44L42.563,54.45L4.205,28.876
		L42.563,3.303l38.36,25.573L74.605,33.088z"/>
</g>
</svg>
