<?xml version="1.0" encoding="utf-8"?>
<!-- Generator: Adobe Illustrator 16.0.0, SVG Export Plug-In . SVG Version: 6.00 Build 0)  -->
<!DOCTYPE svg PUBLIC "-//W3C//DTD SVG 1.1//EN" "http://www.w3.org/Graphics/SVG/1.1/DTD/svg11.dtd">
<svg version="1.1" id="Layer_1" xmlns="http://www.w3.org/2000/svg" xmlns:xlink="http://www.w3.org/1999/xlink" x="0px" y="0px"
	 width="95.491px" height="51.733px" viewBox="0 0 95.491 51.733" enable-background="new 0 0 95.491 51.733" xml:space="preserve">
<g>
	<defs>
		<rect id="SVGID_1_" width="95.492" height="51.733"/>
	</defs>
	<clipPath id="SVGID_2_">
		<use xlink:href="#SVGID_1_"  overflow="visible"/>
	</clipPath>
	<path clip-path="url(#SVGID_2_)" d="M64.891,36.545c-2.883-2.354-6.982-2.25-9.742,0.047L36.887,22.063
		c0.228-0.872,0.308-1.785,0.215-2.709c-0.206-2.036-1.192-3.87-2.778-5.164c-3.272-2.671-8.108-2.18-10.779,1.091
		c-2.399,2.939-2.241,7.134,0.186,9.896L12.413,38.071c-1.572-1.247-3.532-1.831-5.526-1.621c-2.036,0.206-3.87,1.192-5.164,2.777
		c-2.671,3.272-2.181,8.107,1.091,10.778c1.381,1.127,3.071,1.729,4.83,1.729c0.261,0,0.523-0.015,0.786-0.04
		c2.036-0.206,3.87-1.193,5.164-2.779c1.294-1.585,1.893-3.579,1.687-5.615c-0.105-1.04-0.417-2.025-0.906-2.917l11.757-13.392
		c1.06,0.516,2.199,0.793,3.342,0.793c2.224,0,4.43-0.96,5.942-2.813c0.041-0.05,0.074-0.103,0.113-0.154L53.26,38.923
		c-1.655,3.155-0.923,7.153,1.941,9.492c1.421,1.158,3.134,1.722,4.838,1.722c2.223,0,4.43-0.96,5.941-2.812
		c1.294-1.585,1.894-3.579,1.688-5.615C67.463,39.673,66.475,37.839,64.891,36.545 M11.269,47.019
		c-0.787,0.966-1.903,1.564-3.142,1.689c-1.234,0.129-2.451-0.239-3.417-1.026c-1.991-1.625-2.288-4.565-0.664-6.559
		c1.625-1.991,4.568-2.288,6.558-0.663c0.192,0.157,0.358,0.336,0.521,0.518c0.083,0.161,0.195,0.312,0.341,0.44
		c0.449,0.645,0.747,1.382,0.829,2.185C12.42,44.84,12.057,46.053,11.269,47.019 M33.091,23.074
		c-0.787,0.964-1.903,1.564-3.141,1.69c-1.239,0.125-2.452-0.239-3.417-1.026c-1.991-1.625-2.289-4.567-0.664-6.558
		c1.625-1.992,4.568-2.289,6.558-0.664c0.965,0.787,1.565,1.903,1.69,3.142C34.243,20.896,33.877,22.108,33.091,23.074
		 M63.656,45.427c-1.624,1.99-4.565,2.29-6.559,0.664c-1.99-1.625-2.288-4.565-0.663-6.559c0.92-1.126,2.262-1.71,3.615-1.71
		c1.036,0,2.079,0.342,2.942,1.047C64.983,40.495,65.281,43.436,63.656,45.427"/>
	<path clip-path="url(#SVGID_2_)" d="M71.811,30.093c-0.647-0.516-1.593-0.404-2.106,0.24l-2.275,2.862
		c-0.515,0.646-0.407,1.592,0.24,2.105c0.277,0.222,0.605,0.326,0.934,0.326c0.44,0,0.879-0.193,1.176-0.564l2.272-2.862
		C72.566,31.552,72.459,30.609,71.811,30.093"/>
	<path clip-path="url(#SVGID_2_)" d="M81.263,18.214c-0.646-0.515-1.592-0.408-2.105,0.24l-4.728,5.94
		c-0.516,0.648-0.406,1.592,0.24,2.108c0.276,0.22,0.606,0.326,0.934,0.326c0.44,0,0.88-0.194,1.176-0.566l4.725-5.94
		C82.019,19.674,81.911,18.729,81.263,18.214"/>
	<path clip-path="url(#SVGID_2_)" d="M88.266,9.413c-0.646-0.516-1.593-0.407-2.106,0.24l-2.277,2.861
		c-0.515,0.648-0.407,1.592,0.24,2.108c0.275,0.22,0.605,0.326,0.933,0.326c0.441,0,0.88-0.194,1.176-0.566l2.275-2.861
		C89.021,10.873,88.913,9.929,88.266,9.413"/>
	<path clip-path="url(#SVGID_2_)" d="M94.858,0.277c-0.404-0.288-0.926-0.355-1.39-0.183L82.236,4.256
		c-0.775,0.288-1.173,1.151-0.885,1.928c0.286,0.776,1.149,1.173,1.928,0.886l9.176-3.399l-0.169,9.783
		c-0.015,0.829,0.645,1.511,1.474,1.526h0.027c0.815,0,1.483-0.655,1.499-1.474l0.206-11.978C95.5,1.031,95.263,0.562,94.858,0.277"
		/>
</g>
</svg>
