<?xml version="1.0" encoding="utf-8"?>
<!-- Generator: Adobe Illustrator 16.0.0, SVG Export Plug-In . SVG Version: 6.00 Build 0)  -->
<!DOCTYPE svg PUBLIC "-//W3C//DTD SVG 1.1//EN" "http://www.w3.org/Graphics/SVG/1.1/DTD/svg11.dtd">
<svg version="1.1" id="Layer_1" xmlns="http://www.w3.org/2000/svg" xmlns:xlink="http://www.w3.org/1999/xlink" x="0px" y="0px"
	 width="79px" height="66px" viewBox="0 0 79 66" enable-background="new 0 0 79 66" xml:space="preserve">
<g>
	<defs>
		<rect id="SVGID_1_" width="79" height="66"/>
	</defs>
	<clipPath id="SVGID_2_">
		<use xlink:href="#SVGID_1_"  overflow="visible"/>
	</clipPath>
	<path clip-path="url(#SVGID_2_)" d="M14,7H8C7.171,7,6.5,7.671,6.5,8.5S7.171,10,8,10h6c0.829,0,1.5-0.671,1.5-1.5S14.829,7,14,7"
		/>
	<path clip-path="url(#SVGID_2_)" d="M28,7h-6c-0.829,0-1.5,0.671-1.5,1.5S21.171,10,22,10h6c0.829,0,1.5-0.671,1.5-1.5
		S28.829,7,28,7"/>
	<path clip-path="url(#SVGID_2_)" d="M74.44,13H72v-7.94C71.994,2.268,69.732,0.005,66.94,0H5.06C2.268,0.005,0.005,2.268,0,5.061
		v39.88c0.005,2.792,2.268,5.054,5.06,5.06H9v11.44c0.005,2.516,2.044,4.554,4.56,4.56h13.88c2.516-0.006,4.555-2.044,4.56-4.56V50
		h7v11.44c0.006,2.516,2.044,4.554,4.56,4.56H74.44c2.516-0.006,4.554-2.044,4.56-4.56v-43.88C78.994,15.044,76.956,13.005,74.44,13
		 M27.44,63H13.56c-0.859-0.006-1.555-0.701-1.56-1.56v-29.88c0.005-0.86,0.701-1.555,1.56-1.56h13.88
		c0.859,0.005,1.555,0.7,1.56,1.56v16.93v12.95C28.995,62.299,28.299,62.994,27.44,63 M32,47V31.561
		c-0.005-2.516-2.044-4.555-4.56-4.56H13.56c-2.516,0.005-4.555,2.044-4.56,4.56V47H5.06C3.922,47,3,46.078,3,44.94V5.061
		C3,3.922,3.922,3,5.06,3h61.88C68.078,3,69,3.922,69,5.061V13H43.56c-2.516,0.005-4.554,2.044-4.56,4.56V47H32z M76,61.44
		c-0.006,0.858-0.701,1.554-1.56,1.56H43.56c-0.858-0.006-1.554-0.701-1.56-1.56v-43.88c0.006-0.86,0.701-1.555,1.56-1.56H74.44
		c0.858,0.005,1.554,0.7,1.56,1.56V61.44z"/>
	<path clip-path="url(#SVGID_2_)" d="M58.988,54.502c1.381-0.005,2.504,1.11,2.509,2.491s-1.11,2.504-2.491,2.509
		s-2.504-1.11-2.509-2.491S57.608,54.507,58.988,54.502"/>
</g>
</svg>
