<?xml version="1.0" encoding="utf-8"?>
<!-- Generator: Adobe Illustrator 16.0.0, SVG Export Plug-In . SVG Version: 6.00 Build 0)  -->
<!DOCTYPE svg PUBLIC "-//W3C//DTD SVG 1.1//EN" "http://www.w3.org/Graphics/SVG/1.1/DTD/svg11.dtd">
<svg version="1.1" id="Layer_1" xmlns="http://www.w3.org/2000/svg" xmlns:xlink="http://www.w3.org/1999/xlink" x="0px" y="0px"
	 width="71.99px" height="71.999px" viewBox="0 0 71.99 71.999" enable-background="new 0 0 71.99 71.999" xml:space="preserve">
<g>
	<defs>
		<rect id="SVGID_1_" width="71.99" height="71.999"/>
	</defs>
	<clipPath id="SVGID_2_">
		<use xlink:href="#SVGID_1_"  overflow="visible"/>
	</clipPath>
	<path clip-path="url(#SVGID_2_)" d="M70.5,0h-69C0.672,0,0,0.671,0,1.5v69C0,71.328,0.673,72,1.5,71.999
		c0.387,0,0.76-0.15,1.039-0.419c0.327-0.005,0.643-0.117,0.9-0.32l7.24-5.79l7.41,5.92c0.548,0.437,1.323,0.437,1.87,0l7.25-5.8
		l7.37,5.891c0.547,0.436,1.323,0.436,1.872,0l7.539-6l7.42,5.93c0.547,0.436,1.323,0.436,1.87,0l7.46-6l7.819,6.25
		c0.402,0.326,0.947,0.414,1.431,0.229c0.773,0.282,1.628-0.116,1.91-0.89c0.061-0.167,0.092-0.343,0.09-0.52v-69
		C71.979,0.663,71.316,0.005,70.5,0 M69,27H10.241L69,3.32V27z M61.77,3L3,26.68V3H61.77z M61.68,62.33
		c-0.547-0.438-1.322-0.438-1.87,0l-7.46,6l-7.42-5.93c-0.547-0.437-1.322-0.437-1.87,0l-7.54,6l-7.37-5.9
		c-0.547-0.437-1.323-0.437-1.87,0L19,68.3l-7.41-5.92c-0.547-0.436-1.323-0.436-1.869,0L3,67.76V30h66v38.18L61.68,62.33z"/>
	<path clip-path="url(#SVGID_2_)" d="M54.5,37h-37c-0.829,0-1.5,0.672-1.5,1.5s0.671,1.5,1.5,1.5h37c0.828,0,1.5-0.672,1.5-1.5
		S55.328,37,54.5,37"/>
	<path clip-path="url(#SVGID_2_)" d="M54.5,44h-37c-0.829,0-1.5,0.672-1.5,1.5s0.671,1.5,1.5,1.5h37c0.828,0,1.5-0.672,1.5-1.5
		S55.328,44,54.5,44"/>
	<path clip-path="url(#SVGID_2_)" d="M36.5,51h-19c-0.829,0-1.5,0.672-1.5,1.5s0.671,1.5,1.5,1.5h19c0.828,0,1.5-0.672,1.5-1.5
		S37.328,51,36.5,51"/>
</g>
</svg>
