<?xml version="1.0" encoding="utf-8"?>
<!-- Generator: Adobe Illustrator 16.0.0, SVG Export Plug-In . SVG Version: 6.00 Build 0)  -->
<!DOCTYPE svg PUBLIC "-//W3C//DTD SVG 1.1//EN" "http://www.w3.org/Graphics/SVG/1.1/DTD/svg11.dtd">
<svg version="1.1" id="Layer_1" xmlns="http://www.w3.org/2000/svg" xmlns:xlink="http://www.w3.org/1999/xlink" x="0px" y="0px"
	 width="99.118px" height="88.087px" viewBox="0 0 99.118 88.087" enable-background="new 0 0 99.118 88.087" xml:space="preserve">
<g>
	<defs>
		<rect id="SVGID_1_" width="99.118" height="88.087"/>
	</defs>
	<clipPath id="SVGID_2_">
		<use xlink:href="#SVGID_1_"  overflow="visible"/>
	</clipPath>
	<path clip-path="url(#SVGID_2_)" d="M51.317,47.224c-0.736-0.376-1.643-0.086-2.02,0.652l-10.049,19.64
		c-0.377,0.739-0.085,1.644,0.652,2.021c0.219,0.112,0.452,0.165,0.682,0.165c0.545,0,1.071-0.298,1.336-0.816l10.048-19.641
		C52.347,48.505,52.055,47.602,51.317,47.224"/>
	<path clip-path="url(#SVGID_2_)" fill="none" stroke="#000000" stroke-width="0.5" stroke-miterlimit="10" d="M51.317,47.224
		c-0.736-0.376-1.643-0.086-2.02,0.652l-10.049,19.64c-0.377,0.739-0.085,1.644,0.652,2.021c0.219,0.112,0.452,0.165,0.682,0.165
		c0.545,0,1.071-0.298,1.336-0.816l10.048-19.641C52.347,48.505,52.055,47.602,51.317,47.224z"/>
	<path clip-path="url(#SVGID_2_)" d="M61.832,46.474c-0.586-0.585-1.535-0.585-2.121,0s-0.586,1.536,0,2.121l9.583,9.58l-9.583,9.58
		c-0.586,0.585-0.586,1.535,0,2.121c0.293,0.293,0.677,0.439,1.062,0.439c0.384,0,0.768-0.146,1.061-0.439l10.645-10.641
		c0.281-0.281,0.439-0.663,0.439-1.062c0-0.397-0.158-0.78-0.439-1.061L61.832,46.474z"/>
	<path clip-path="url(#SVGID_2_)" fill="none" stroke="#000000" stroke-width="0.5" stroke-miterlimit="10" d="M61.832,46.474
		c-0.586-0.585-1.535-0.585-2.121,0s-0.586,1.536,0,2.121l9.583,9.58l-9.583,9.58c-0.586,0.585-0.586,1.535,0,2.121
		c0.293,0.293,0.677,0.439,1.062,0.439c0.384,0,0.768-0.146,1.061-0.439l10.645-10.641c0.281-0.281,0.439-0.663,0.439-1.062
		c0-0.397-0.158-0.78-0.439-1.061L61.832,46.474z"/>
	<path clip-path="url(#SVGID_2_)" d="M31.535,46.475c-0.585-0.586-1.535-0.586-2.121,0L18.771,57.115
		c-0.281,0.281-0.439,0.663-0.439,1.061c0,0.398,0.158,0.779,0.439,1.062l10.643,10.64c0.293,0.293,0.677,0.439,1.061,0.439
		s0.768-0.146,1.061-0.439c0.586-0.586,0.586-1.535,0-2.121l-9.581-9.58l9.581-9.58C32.121,48.01,32.121,47.061,31.535,46.475"/>
	<path clip-path="url(#SVGID_2_)" fill="none" stroke="#000000" stroke-width="0.5" stroke-miterlimit="10" d="M31.535,46.475
		c-0.585-0.586-1.535-0.586-2.121,0L18.771,57.115c-0.281,0.281-0.439,0.663-0.439,1.061c0,0.398,0.158,0.779,0.439,1.062
		l10.643,10.64c0.293,0.293,0.677,0.439,1.061,0.439s0.768-0.146,1.061-0.439c0.586-0.586,0.586-1.535,0-2.121l-9.581-9.58
		l9.581-9.58C32.121,48.01,32.121,47.061,31.535,46.475z"/>
	<path clip-path="url(#SVGID_2_)" d="M88.498,9.664H1.75c-0.829,0-1.5,0.671-1.5,1.5v75.173c0,0.828,0.671,1.5,1.5,1.5h86.748
		c0.828,0,1.5-0.672,1.5-1.5V11.164C89.998,10.335,89.326,9.664,88.498,9.664 M86.998,31.526H3.25V12.664h83.748V31.526z
		 M3.25,34.526h83.748v50.311H3.25V34.526z"/>
	<path clip-path="url(#SVGID_2_)" fill="none" stroke="#000000" stroke-width="0.5" stroke-miterlimit="10" d="M88.498,9.664H1.75
		c-0.829,0-1.5,0.671-1.5,1.5v75.173c0,0.828,0.671,1.5,1.5,1.5h86.748c0.828,0,1.5-0.672,1.5-1.5V11.164
		C89.998,10.335,89.326,9.664,88.498,9.664z M86.998,31.526H3.25V12.664h83.748V31.526z M3.25,34.526h83.748v50.311H3.25V34.526z"/>
	<path clip-path="url(#SVGID_2_)" d="M11.186,23.101h6.89c0.829,0,1.5-0.671,1.5-1.5s-0.671-1.5-1.5-1.5h-6.89
		c-0.829,0-1.5,0.671-1.5,1.5S10.357,23.101,11.186,23.101"/>
	<path clip-path="url(#SVGID_2_)" fill="none" stroke="#000000" stroke-width="0.5" stroke-miterlimit="10" d="M11.186,23.101h6.89
		c0.829,0,1.5-0.671,1.5-1.5s-0.671-1.5-1.5-1.5h-6.89c-0.829,0-1.5,0.671-1.5,1.5S10.357,23.101,11.186,23.101z"/>
	<path clip-path="url(#SVGID_2_)" d="M25.95,23.101h6.89c0.829,0,1.5-0.671,1.5-1.5s-0.671-1.5-1.5-1.5h-6.89
		c-0.829,0-1.5,0.671-1.5,1.5S25.122,23.101,25.95,23.101"/>
	<path clip-path="url(#SVGID_2_)" fill="none" stroke="#000000" stroke-width="0.5" stroke-miterlimit="10" d="M25.95,23.101h6.89
		c0.829,0,1.5-0.671,1.5-1.5s-0.671-1.5-1.5-1.5h-6.89c-0.829,0-1.5,0.671-1.5,1.5S25.122,23.101,25.95,23.101z"/>
	<rect x="95.624" y="0.25" clip-path="url(#SVGID_2_)" width="3" height="80"/>
	
		<rect x="95.624" y="0.25" clip-path="url(#SVGID_2_)" fill="none" stroke="#000000" stroke-width="0.5" stroke-miterlimit="10" width="3" height="80"/>
	<polygon clip-path="url(#SVGID_2_)" points="9.771,3.25 8.771,0.25 97.771,0.25 98.771,3.25 	"/>
	<polygon clip-path="url(#SVGID_2_)" fill="none" stroke="#000000" stroke-width="0.5" stroke-miterlimit="10" points="9.771,3.25 
		8.771,0.25 97.771,0.25 98.771,3.25 	"/>
</g>
</svg>
