<?xml version="1.0" encoding="utf-8"?>
<!-- Generator: Adobe Illustrator 16.0.0, SVG Export Plug-In . SVG Version: 6.00 Build 0)  -->
<!DOCTYPE svg PUBLIC "-//W3C//DTD SVG 1.1//EN" "http://www.w3.org/Graphics/SVG/1.1/DTD/svg11.dtd">
<svg version="1.1" id="Layer_1" xmlns="http://www.w3.org/2000/svg" xmlns:xlink="http://www.w3.org/1999/xlink" x="0px" y="0px"
	 width="85.882px" height="63px" viewBox="0 0 85.882 63" enable-background="new 0 0 85.882 63" xml:space="preserve">
<g>
	<defs>
		<rect id="SVGID_1_" width="85.882" height="63"/>
	</defs>
	<clipPath id="SVGID_2_">
		<use xlink:href="#SVGID_1_"  overflow="visible"/>
	</clipPath>
	<path clip-path="url(#SVGID_2_)" d="M69.5,60H3V17h65v6.46c0,0.829,0.672,1.5,1.5,1.5s1.5-0.671,1.5-1.5v-22
		C70.979,0.647,70.313,0,69.5,0h-68C0.671,0,0,0.671,0,1.5v60C0,62.328,0.671,63,1.5,63h68c0.828,0,1.5-0.672,1.5-1.5
		S70.328,60,69.5,60 M68,14H3V3h65V14z"/>
	<path clip-path="url(#SVGID_2_)" d="M8,10h6c0.829,0,1.5-0.671,1.5-1.5S14.829,7,14,7H8C7.171,7,6.5,7.671,6.5,8.5S7.171,10,8,10"
		/>
	<path clip-path="url(#SVGID_2_)" d="M22,10h6c0.829,0,1.5-0.671,1.5-1.5S28.829,7,28,7h-6c-0.829,0-1.5,0.671-1.5,1.5
		S21.171,10,22,10"/>
	<path clip-path="url(#SVGID_2_)" d="M85.88,42.56v-0.13c0.003-0.05,0.003-0.1,0-0.149V42.14V41.99v-0.15V41.7
		c0.003-0.05,0.003-0.101,0-0.15v-0.13l-0.06-0.14l-0.08-0.13l-0.05-0.091C85.28,40.55,75.52,28,62.88,28
		C49,28,38.76,40.53,38.33,41.06l-0.08,0.12l-0.08,0.12c-0.022,0.049-0.042,0.1-0.06,0.15v0.12c-0.003,0.053-0.003,0.106,0,0.16
		v0.13v0.149v0.15v0.13c-0.003,0.054-0.003,0.106,0,0.16v0.12c0.018,0.051,0.038,0.101,0.06,0.149l0.08,0.12l0.08,0.12
		C38.76,43.47,49,56,62.88,56c12.64,0,22.4-12.55,22.811-13.09l0.05-0.09l0.08-0.13L85.88,42.56z M62.88,53
		c-10.37,0-18.8-8.19-21.39-11c2.59-2.81,11-11,21.39-11c9.311,0,17.24,8.22,19.66,11C80.13,44.78,72.19,53,62.88,53"/>
	<path clip-path="url(#SVGID_2_)" d="M62,33.5c-4.694,0-8.5,3.806-8.5,8.5s3.806,8.5,8.5,8.5s8.5-3.806,8.5-8.5
		C70.494,37.308,66.692,33.506,62,33.5 M62,47.5c-3.037,0-5.5-2.463-5.5-5.5s2.463-5.5,5.5-5.5s5.5,2.463,5.5,5.5
		C67.494,45.035,65.035,47.494,62,47.5"/>
</g>
</svg>
