<?xml version="1.0" encoding="utf-8"?>
<!-- Generator: Adobe Illustrator 16.0.0, SVG Export Plug-In . SVG Version: 6.00 Build 0)  -->
<!DOCTYPE svg PUBLIC "-//W3C//DTD SVG 1.1//EN" "http://www.w3.org/Graphics/SVG/1.1/DTD/svg11.dtd">
<svg version="1.1" id="Layer_1" xmlns="http://www.w3.org/2000/svg" xmlns:xlink="http://www.w3.org/1999/xlink" x="0px" y="0px"
	 width="171.41px" height="126px" viewBox="0 0 171.41 126" enable-background="new 0 0 171.41 126" xml:space="preserve">
<g>
	<defs>
		<rect id="SVGID_1_" width="171.41" height="126"/>
	</defs>
	<clipPath id="SVGID_2_">
		<use xlink:href="#SVGID_1_"  overflow="visible"/>
	</clipPath>
	<path clip-path="url(#SVGID_2_)" d="M136.75,6.006l22.475,22.474H33.568c-1.972,0-3.571,1.599-3.571,3.571
		c0,1.972,1.599,3.571,3.571,3.571h125.657L136.75,58.096c-1.442,1.345-1.522,3.604-0.178,5.047
		c1.345,1.443,3.604,1.523,5.047,0.179c0.062-0.058,0.121-0.117,0.179-0.179l28.568-28.569c1.393-1.394,1.393-3.652,0-5.047
		L141.798,0.959c-1.444-1.345-3.703-1.265-5.048,0.178C135.473,2.508,135.473,4.634,136.75,6.006"/>
	<path clip-path="url(#SVGID_2_)" d="M29.613,62.857L1.044,91.426c-1.392,1.395-1.392,3.653,0,5.047l28.569,28.57
		c1.443,1.343,3.703,1.264,5.047-0.18c1.278-1.371,1.278-3.497,0-4.869L12.186,97.521h125.656c1.973,0,3.572-1.599,3.572-3.571
		c0-1.972-1.6-3.57-3.572-3.57H12.186L34.66,67.904c1.345-1.442,1.265-3.702-0.178-5.047C33.111,61.58,30.985,61.58,29.613,62.857"
		/>
</g>
</svg>
