<?xml version="1.0" encoding="utf-8"?>
<!-- Generator: Adobe Illustrator 16.0.0, SVG Export Plug-In . SVG Version: 6.00 Build 0)  -->
<!DOCTYPE svg PUBLIC "-//W3C//DTD SVG 1.1//EN" "http://www.w3.org/Graphics/SVG/1.1/DTD/svg11.dtd">
<svg version="1.1" id="Layer_1" xmlns="http://www.w3.org/2000/svg" xmlns:xlink="http://www.w3.org/1999/xlink" x="0px" y="0px"
	 width="86.178px" height="86.784px" viewBox="0 0 86.178 86.784" enable-background="new 0 0 86.178 86.784" xml:space="preserve">
<g>
	<defs>
		<rect id="SVGID_1_" width="86.178" height="86.784"/>
	</defs>
	<clipPath id="SVGID_2_">
		<use xlink:href="#SVGID_1_"  overflow="visible"/>
	</clipPath>
	<path clip-path="url(#SVGID_2_)" d="M82.382,43.408c2.29-1.474,3.795-3.915,3.795-6.676c0-4.478-3.971-8.12-8.852-8.12H53.739
		c1.114-2.09,2.244-5.515,1.985-10.615C55.218,7.542,48.874,2.118,45.205,0.562c-2.164-0.918-4.519-0.7-6.298,0.583
		c-1.786,1.288-3.802,4.246-3.263,11.026c0.558,7.046-8.411,14.689-12.781,17.973v-2.682c0-0.829-0.671-1.5-1.5-1.5H1.5
		c-0.829,0-1.5,0.671-1.5,1.5v54.182c0,0.828,0.671,1.5,1.5,1.5h19.863c0.829,0,1.5-0.672,1.5-1.5v-2.737
		c5.654,2.033,21.553,7.511,29.41,7.768l15.776,0.11c4.875,0,8.841-3.805,8.841-8.48c0-2.153-0.844-4.115-2.223-5.614
		c4.208-0.655,7.434-4.148,7.434-8.36c0-2.242-0.921-4.279-2.41-5.797c3.734-0.997,6.486-4.278,6.486-8.172
		C86.177,47.484,84.673,44.942,82.382,43.408 M3,80.143V28.96h16.863v4.02c-0.002,0.04-0.001,0.08,0,0.12v43.634
		c-0.001,0.041-0.003,0.082,0,0.123v3.286L3,80.143L3,80.143z M77.325,55.849h-7.689c-0.003,0-0.006,0.001-0.01,0.001H68.05
		c-0.828,0-1.5,0.672-1.5,1.5s0.672,1.5,1.5,1.5h5.195c3.229,0,5.855,2.459,5.855,5.479c0,3.022-2.627,5.48-5.855,5.48H68.07
		c-0.008,0-0.014-0.001-0.021-0.001h-5.514c-0.828,0-1.5,0.672-1.5,1.5s0.672,1.5,1.5,1.5h5.504c0.003,0,0.006,0.001,0.01,0.001
		h0.021c3.211,0.011,5.819,2.47,5.819,5.494c0,3.021-2.62,5.48-5.83,5.48l-15.728-0.109c-7.822-0.257-25.169-6.396-29.469-7.961
		V33.85c3.249-2.235,16.556-12.025,15.771-21.917C38.3,7.729,39.02,4.761,40.661,3.578c1.365-0.983,2.926-0.442,3.373-0.254
		c3.023,1.284,8.26,5.85,8.694,14.823c0.396,7.798-2.763,10.715-2.884,10.823c-0.479,0.408-0.652,1.07-0.437,1.661
		c0.218,0.59,0.778,0.982,1.408,0.982h26.508c3.227,0,5.852,2.297,5.852,5.12c0,2.837-2.625,5.146-5.852,5.146h-6.413
		c-0.828,0-1.5,0.671-1.5,1.5c0,0.829,0.672,1.5,1.5,1.5h6.413c3.227,0,5.852,2.458,5.852,5.481
		C83.177,53.386,80.552,55.849,77.325,55.849"/>
</g>
</svg>
