<?xml version="1.0" encoding="utf-8"?>
<!-- Generator: Adobe Illustrator 16.0.0, SVG Export Plug-In . SVG Version: 6.00 Build 0)  -->
<!DOCTYPE svg PUBLIC "-//W3C//DTD SVG 1.1//EN" "http://www.w3.org/Graphics/SVG/1.1/DTD/svg11.dtd">
<svg version="1.1" id="Слой_2" xmlns="http://www.w3.org/2000/svg" xmlns:xlink="http://www.w3.org/1999/xlink" x="0px" y="0px"
	 width="90px" height="90px" viewBox="0 0 90 90" enable-background="new 0 0 90 90" xml:space="preserve">
<path fill="#FFFFFF" stroke="#FFFFFF" stroke-width="2" stroke-miterlimit="10" d="M81.18,20.043L69.957,8.82
	c-1.561-1.561-4.09-1.561-5.651,0l-0.001,0L43.02,30.105c-1.561,1.561-1.561,4.09-0.001,5.651c0,0,0,0,0,0L47.7,40.41l-7.713,7.713
	l-5.121-5.103c-1.564-1.562-4.098-1.562-5.661,0L7.92,64.296c-1.562,1.563-1.562,4.097,0,5.661L19.134,81.18
	c1.566,1.558,4.096,1.558,5.661,0L46.08,59.904c1.562-1.564,1.562-4.098,0-5.661l-4.203-4.203l7.713-7.74l4.653,4.653
	c1.56,1.561,4.091,1.561,5.651,0l0,0L81.18,25.695C82.74,24.135,82.741,21.604,81.18,20.043
	C81.181,20.044,81.18,20.043,81.18,20.043z M44.172,56.143c0.509,0.509,0.509,1.335,0,1.844L22.887,79.271
	c-0.51,0.51-1.335,0.51-1.845,0L9.828,68.059c-0.509-0.51-0.509-1.336,0-1.846l21.285-21.285c0.51-0.509,1.335-0.509,1.845,0
	l5.103,5.103l-6.165,6.164c-0.545,0.509-0.576,1.363-0.067,1.908c0.508,0.546,1.363,0.576,1.908,0.068
	c0.023-0.021,0.045-0.045,0.067-0.068l6.165-6.164L44.172,56.143z M79.271,23.742l-21.285,21.33c-0.507,0.471-1.292,0.471-1.799,0
	l-4.689-4.662l6.605-6.606c0.509-0.546,0.479-1.4-0.066-1.908c-0.52-0.483-1.322-0.483-1.842,0l-6.605,6.606l-4.653-4.653
	c-0.485-0.502-0.485-1.298,0-1.8l21.276-21.321c0.502-0.485,1.298-0.485,1.801,0l11.258,11.223c0.485,0.502,0.485,1.298,0,1.8
	V23.742z"/>
</svg>
