<?xml version="1.0" encoding="utf-8"?>
<!-- Generator: Adobe Illustrator 16.0.0, SVG Export Plug-In . SVG Version: 6.00 Build 0)  -->
<!DOCTYPE svg PUBLIC "-//W3C//DTD SVG 1.1//EN" "http://www.w3.org/Graphics/SVG/1.1/DTD/svg11.dtd">
<svg version="1.1" id="Layer_1" xmlns="http://www.w3.org/2000/svg" xmlns:xlink="http://www.w3.org/1999/xlink" x="0px" y="0px"
	 width="147.41px" height="46.025px" viewBox="0 0 147.41 46.025" enable-background="new 0 0 147.41 46.025" xml:space="preserve">
<rect x="7.182" y="32.85" fill="#FFFFFF" width="35.998" height="10.637"/>
<polygon fill="#FFFFFF" points="50.394,32.766 43.199,43.486 27.281,22.838 34.963,12.553 "/>
<polygon fill="#FFFFFF" points="25.454,0 0,32.766 7.196,43.486 33.127,10.01 "/>
<polygon fill="#FFFFFF" points="50.394,32.766 43.199,43.486 34.998,32.849 "/>
<g>
	<path fill="#FFFFFF" d="M64.712,17.796h-2.964l-0.835,1.871h-0.856l3.204-6.954l3.121,6.954h-0.855L64.712,17.796z M64.409,17.1
		l-1.169-2.656L62.051,17.1H64.409z"/>
	<path fill="#FFFFFF" d="M67.367,13.031h3.173v0.696h-2.4v5.938h-0.772L67.367,13.031L67.367,13.031z"/>
	<path fill="#FFFFFF" d="M75.197,13.727h-2.838v1.97h2.754v0.697h-2.754v2.577h2.838v0.695h-3.611v-6.636h3.611V13.727z"/>
	<path fill="#FFFFFF" d="M77.393,15.727h3.569v-2.696h0.772v6.636h-0.772v-3.243h-3.569v3.243H76.62v-6.636h0.772V15.727
		L77.393,15.727z"/>
	<path fill="#FFFFFF" d="M85.246,13.727v5.938h-0.771v-5.938h-1.69v-0.696h4.153v0.696H85.246z"/>
	<path fill="#FFFFFF" d="M92.951,14.493c-0.221-0.209-0.555-0.458-0.908-0.617c-0.365-0.159-0.793-0.259-1.2-0.259
		c-1.606,0-2.797,1.234-2.797,2.766c0,1.802,1.534,2.706,2.808,2.706c0.47,0,0.93-0.129,1.295-0.308
		c0.396-0.189,0.679-0.438,0.804-0.557v0.915c-0.772,0.526-1.576,0.646-2.099,0.646c-2.066,0-3.602-1.493-3.602-3.413
		c0-1.979,1.557-3.452,3.643-3.452c0.418,0,1.223,0.051,2.058,0.657L92.951,14.493L92.951,14.493z"/>
	<path fill="#FFFFFF" d="M96.087,13.727v5.938h-0.772v-5.938h-1.689v-0.696h4.152v0.696H96.087z"/>
	<path fill="#FFFFFF" d="M100.077,13.031c0.386,0,1.085,0.03,1.597,0.418c0.219,0.159,0.626,0.567,0.626,1.373
		c0,0.329-0.073,0.905-0.688,1.304c0.972,0.229,1.326,1.034,1.326,1.671c0,0.638-0.334,1.154-0.711,1.434
		c-0.553,0.418-1.188,0.438-1.67,0.438h-1.731v-6.636L100.077,13.031L100.077,13.031z M99.598,15.946h0.584
		c0.406,0,1.367-0.08,1.367-1.104c0-1.094-1.128-1.113-1.347-1.113h-0.604V15.946L99.598,15.946z M99.598,18.97h0.887
		c0.449,0,0.888-0.03,1.222-0.279c0.271-0.189,0.459-0.518,0.459-0.915c0-0.527-0.323-0.836-0.595-0.976
		c-0.262-0.139-0.627-0.198-1.18-0.198h-0.793V18.97z"/>
	<path fill="#FFFFFF" d="M103.982,16.354c0-1.979,1.619-3.433,3.623-3.433s3.621,1.453,3.621,3.433c0,1.97-1.606,3.433-3.621,3.433
		C105.59,19.787,103.982,18.323,103.982,16.354z M104.777,16.354c0,1.521,1.263,2.735,2.828,2.735c1.564,0,2.828-1.213,2.828-2.735
		s-1.264-2.736-2.828-2.736C106.04,13.618,104.777,14.832,104.777,16.354z"/>
</g>
<g>
	<path fill="#FFFFFF" d="M60.871,24.967h0.772v5.939h3.528v-5.939h0.772v5.939h0.793v2.089h-0.73v-1.393h-5.135V24.967z"/>
	<path fill="#FFFFFF" d="M72.627,26.539l-4.843,5.362v-6.936h0.772v5.084l4.843-5.361v6.914h-0.773L72.627,26.539L72.627,26.539z"/>
	<path fill="#FFFFFF" d="M78.206,30.667h-0.188c-2.588,0-3.193-1.512-3.193-2.586c0-1.075,0.605-2.587,3.193-2.587h0.188v-0.796
		h0.772v0.796h0.188c2.589,0,3.193,1.512,3.193,2.587c0,1.074-0.604,2.586-3.193,2.586h-0.188v0.937h-0.772V30.667z M78.206,26.19
		h-0.209c-1.899,0-2.379,1.045-2.379,1.891s0.479,1.891,2.379,1.891h0.209V26.19z M78.979,29.971h0.209
		c1.899,0,2.379-1.045,2.379-1.891s-0.479-1.891-2.379-1.891h-0.209V29.971z"/>
	<path fill="#FFFFFF" d="M85.048,24.967c0.699,0,1.284,0.079,1.754,0.469c0.511,0.418,0.638,1.005,0.638,1.423
		c0,0.935-0.616,1.859-2.203,1.859h-0.678v2.886h-0.772v-6.637H85.048z M84.559,28.021h0.637c0.918,0,1.472-0.438,1.472-1.204
		c0-1.055-1.033-1.154-1.534-1.154h-0.574V28.021L84.559,28.021z"/>
	<path fill="#FFFFFF" d="M88.171,28.29c0-1.979,1.618-3.433,3.622-3.433s3.621,1.452,3.621,3.433c0,1.97-1.605,3.433-3.621,3.433
		S88.171,30.26,88.171,28.29z M88.965,28.29c0,1.521,1.264,2.735,2.828,2.735s2.828-1.214,2.828-2.735s-1.264-2.735-2.828-2.735
		S88.965,26.768,88.965,28.29z"/>
	<path fill="#FFFFFF" d="M98.093,24.967c0.386,0,1.085,0.029,1.597,0.418c0.22,0.159,0.627,0.566,0.627,1.373
		c0,0.328-0.073,0.905-0.688,1.304c0.972,0.229,1.325,1.035,1.325,1.672s-0.334,1.154-0.71,1.433
		c-0.554,0.418-1.188,0.438-1.67,0.438H96.84v-6.637L98.093,24.967L98.093,24.967z M97.611,27.882h0.586
		c0.406,0,1.367-0.08,1.367-1.104c0-1.095-1.129-1.114-1.348-1.114h-0.605V27.882z M97.611,30.906h0.888
		c0.449,0,0.888-0.03,1.222-0.278c0.271-0.188,0.459-0.518,0.459-0.916c0-0.526-0.322-0.835-0.595-0.975
		c-0.261-0.14-0.626-0.199-1.181-0.199h-0.793V30.906z"/>
	<path fill="#FFFFFF" d="M101.999,28.29c0-1.979,1.618-3.433,3.622-3.433s3.621,1.452,3.621,3.433c0,1.97-1.605,3.433-3.621,3.433
		S101.999,30.26,101.999,28.29z M102.793,28.29c0,1.521,1.264,2.735,2.828,2.735s2.828-1.214,2.828-2.735s-1.264-2.735-2.828-2.735
		S102.793,26.768,102.793,28.29z"/>
	<path fill="#FFFFFF" d="M115.51,26.539l-4.843,5.362v-6.936h0.772v5.084l4.843-5.361v6.914h-0.772V26.539z M112.588,23.235
		c0.167,0.548,0.805,0.558,0.887,0.558c0.084,0,0.721-0.01,0.887-0.558l0.731,0.229c-0.063,0.169-0.429,0.966-1.618,0.966
		c-1.188,0-1.555-0.797-1.617-0.966L112.588,23.235z"/>
</g>
<g>
	<g>
		<defs>
			<rect id="SVGID_1_" y="0" width="147.41" height="46.025"/>
		</defs>
		<use   overflow="visible" fill="#FFFFFF"/>
		<clipPath id="SVGID_2_">
			<use xlink:href="#SVGID_1_"  overflow="visible"/>
		</clipPath>
		<g clip-path="url(#SVGID_2_)">
			<path fill="#FFFFFF" d="M62.583,37.6v5.938h-0.772V37.6H60.12v-0.696h4.154V37.6H62.583z"/>
			<path fill="#FFFFFF" d="M66.583,36.903c0.699,0,1.284,0.079,1.753,0.468c0.511,0.418,0.637,1.005,0.637,1.423
				c0,0.936-0.616,1.86-2.203,1.86h-0.678v2.885H65.32v-6.636H66.583L66.583,36.903z M66.093,39.957h0.637
				c0.918,0,1.472-0.438,1.472-1.203c0-1.055-1.033-1.153-1.534-1.153h-0.574v2.356H66.093z"/>
			<path fill="#FFFFFF" d="M73.422,41.669h-2.964l-0.835,1.87h-0.856l3.204-6.954l3.121,6.954h-0.855L73.422,41.669z M73.119,40.973
				l-1.169-2.656l-1.189,2.656H73.119z"/>
			<path fill="#FFFFFF" d="M76.85,39.6h3.569v-2.696h0.772v6.636h-0.772v-3.243H76.85v3.243h-0.771v-6.636h0.771V39.6z"/>
			<path fill="#FFFFFF" d="M88.314,38.365c-0.221-0.208-0.555-0.457-0.908-0.616c-0.365-0.159-0.793-0.259-1.2-0.259
				c-1.606,0-2.797,1.233-2.797,2.766c0,1.802,1.534,2.706,2.808,2.706c0.469,0,0.93-0.129,1.295-0.309
				c0.396-0.188,0.678-0.438,0.803-0.557v0.915c-0.771,0.526-1.575,0.646-2.098,0.646c-2.066,0-3.602-1.492-3.602-3.412
				c0-1.979,1.556-3.452,3.643-3.452c0.418,0,1.223,0.05,2.057,0.656V38.365L88.314,38.365z"/>
			<path fill="#FFFFFF" d="M92.744,42.604h-0.188c-2.59,0-3.195-1.513-3.195-2.586c0-1.075,0.605-2.587,3.195-2.587h0.188v-0.797
				h0.771v0.797h0.188c2.589,0,3.194,1.512,3.194,2.587c0,1.073-0.605,2.586-3.194,2.586h-0.188v0.936h-0.771V42.604z
				 M92.744,38.127h-0.209c-1.898,0-2.379,1.045-2.379,1.892c0,0.846,0.479,1.89,2.379,1.89h0.209V38.127z M93.518,41.907h0.209
				c1.898,0,2.379-1.044,2.379-1.89c0-0.847-0.479-1.892-2.379-1.892h-0.209V41.907z"/>
			<path fill="#FFFFFF" d="M97.947,40.227c0-1.98,1.617-3.434,3.621-3.434c2.005,0,3.623,1.452,3.623,3.434
				c0,1.97-1.607,3.432-3.623,3.432C99.555,43.659,97.947,42.196,97.947,40.227z M98.741,40.227c0,1.521,1.263,2.734,2.827,2.734
				c1.565,0,2.828-1.214,2.828-2.734c0-1.522-1.263-2.736-2.828-2.736C100.004,37.491,98.741,38.704,98.741,40.227z"/>
			<path fill="#FFFFFF" d="M107.878,36.903c0.699,0,1.284,0.079,1.754,0.468c0.511,0.418,0.638,1.005,0.638,1.423
				c0,0.936-0.617,1.86-2.203,1.86h-0.678v2.885h-0.772v-6.636H107.878L107.878,36.903z M107.389,39.957h0.637
				c0.918,0,1.472-0.438,1.472-1.203c0-1.055-1.033-1.153-1.534-1.153h-0.574V39.957L107.389,39.957z"/>
			<path fill="#FFFFFF" d="M111.033,43.539l1.158-7.004l2.672,5.603l2.725-5.611l1.086,7.014h-0.794l-0.657-4.616l-2.369,4.896
				l-2.338-4.896l-0.688,4.616L111.033,43.539L111.033,43.539z"/>
			<path fill="#FFFFFF" d="M123.918,41.669h-2.964l-0.835,1.87h-0.855l3.204-6.954l3.12,6.954h-0.855L123.918,41.669z
				 M123.615,40.973l-1.17-2.656l-1.188,2.656H123.615z"/>
			<path fill="#FFFFFF" d="M126.573,36.903h0.772v5.938h3.526v-5.938h0.772v5.938h0.793v2.09h-0.73v-1.394h-5.135L126.573,36.903
				L126.573,36.903z"/>
			<path fill="#FFFFFF" d="M138.33,38.476l-4.844,5.361v-6.935h0.772v5.084l4.843-5.362v6.914h-0.771V38.476z"/>
			<path fill="#FFFFFF" d="M145.745,38.476l-4.843,5.361v-6.935h0.771v5.084l4.844-5.362v6.914h-0.772V38.476z"/>
		</g>
	</g>
</g>
</svg>
