<svg width="112" height="117" viewBox="0 0 112 117" fill="none" xmlns="http://www.w3.org/2000/svg">
<path d="M109.216 92.9933C105.125 79.1447 84.5948 80.6809 75.7334 76.7039C66.8723 72.7269 68.2556 59.3834 67.132 57.0619H45.5151C44.3934 59.3834 45.777 72.7288 36.9137 76.7039C28.0527 80.6809 7.52002 79.145 3.43154 92.9933C1.95723 97.9861 1.49236 100.714 1.17336 104.367C0.821721 108.394 3.63248 112.004 7.62176 112.657C17.6403 114.298 36.9829 117 55.6875 117C74.5226 117 94.6314 114.26 104.963 112.623C108.981 111.987 111.826 108.359 111.469 104.306C111.15 100.683 110.682 97.9588 109.216 92.9933Z" fill="#3AD189"/>
<path d="M109.216 92.9933C105.125 79.1447 84.5948 80.6809 75.7334 76.7039C66.8723 72.7269 68.2555 59.3834 67.132 57.0619H55.6856C55.6856 57.0619 55.4219 75.7781 64.283 79.7551C73.144 83.732 93.6767 82.1962 97.7652 96.0444C99.9136 103.318 99.9176 105.784 100.452 113.311C102.1 113.07 103.608 112.839 104.95 112.626C108.967 111.99 111.824 108.362 111.468 104.311C111.15 100.685 110.682 97.9609 109.216 92.9933Z" fill="#189A5B"/>
<path d="M20.0613 114.47C30.1966 115.773 43.0864 117 55.6875 117C68.567 117 82.0443 115.718 92.5817 114.384V110.645C92.5817 108.2 90.4125 106.317 87.9874 106.632C80.9423 107.545 67.0839 109.128 55.6361 109.128C44.3683 109.128 31.4382 107.595 24.6989 106.675C22.2594 106.343 20.0635 108.232 20.0635 110.694V114.47H20.0613Z" fill="#189A5B"/>
<path d="M67.5528 83.0395C71.1259 81.6438 74.0659 79.5881 76.051 77.0935L76.2036 76.9038C76.0448 76.8378 75.8882 76.7718 75.7356 76.7039C66.8745 72.7269 68.2578 59.3834 67.1342 57.0619H45.5151C44.3934 59.3834 45.777 72.7288 36.9137 76.7039C36.7611 76.7718 36.6045 76.84 36.4457 76.9038L36.5983 77.0935C38.5838 79.5859 41.5238 81.6416 45.0966 83.0395C48.4819 84.3611 52.3642 85.0599 56.3247 85.0599C60.2851 85.0599 64.1674 84.3607 67.5528 83.0395Z" fill="#EAE5DC"/>
<path d="M75.7337 76.7035C74.1399 75.9883 72.8803 74.9696 71.8763 73.7676C70.0188 76.0994 66.8044 77.9507 62.8627 78.9382C63.308 79.2536 63.7823 79.5276 64.2852 79.7525C66.0129 80.5276 68.1858 81.0946 70.594 81.606C72.8062 80.3669 74.6615 78.8373 76.0492 77.0927L76.2018 76.9031C76.043 76.8396 75.8863 76.7718 75.7337 76.7035Z" fill="#E0DBD3"/>
<path d="M71.876 73.768C67.2909 68.2838 68.0535 58.9649 67.1342 57.0601H45.5151C44.5937 58.9649 45.3585 68.2841 40.7733 73.768C43.5813 77.2934 49.4902 79.722 56.3247 79.722C63.1591 79.722 69.0681 77.2934 71.876 73.768Z" fill="#DBB491"/>
<path d="M62.8623 78.9385C66.8044 77.9511 70.0184 76.0994 71.876 73.768C67.2908 68.2838 68.0534 58.9649 67.1342 57.0601H55.6875C55.6875 57.0619 55.4527 73.71 62.8623 78.9385Z" fill="#CCA483"/>
<path d="M42.6062 70.8525C46.1936 73.772 50.3973 76.6665 56.3022 77.5036C62.2215 76.6643 66.4148 73.71 70.0063 70.7784C67.019 65.2862 67.9426 58.736 67.1342 57.0597H45.515C44.7029 58.7379 45.6078 65.3581 42.6062 70.8525Z" fill="#C69E7F"/>
<path d="M77.4512 42.7325C76.6844 46.9965 77.9423 50.7912 80.261 51.2082C82.5796 51.6252 85.0809 48.5066 85.8477 44.2425C86.6146 39.9785 85.3566 36.1838 83.038 35.7668C80.7193 35.3498 78.2181 38.4685 77.4512 42.7325Z" fill="#CCA483"/>
<path d="M29.5465 35.7707C27.2278 36.1877 25.9699 39.9824 26.7367 44.2464C27.5036 48.5104 30.0048 51.629 32.3235 51.2121C34.6421 50.7951 35.9001 47.0004 35.1332 42.7363C34.3664 38.4723 31.8651 35.3537 29.5465 35.7707Z" fill="#DBB491"/>
<path d="M79.8587 17.374H56.3017H32.7572C32.7572 17.374 19.556 71.1537 56.3017 76.3595C93.0621 71.1537 79.8587 17.374 79.8587 17.374Z" fill="#DBB491"/>
<path d="M56.3016 76.3595C93.062 71.1537 79.8586 17.374 79.8586 17.374H74.3477C75.8567 39.8383 77.9454 51.7714 69.2802 64.7807C62.4146 75.0892 56.3016 76.3595 56.3016 76.3595Z" fill="#CCA483"/>
<path d="M68.4968 20.2605L30.951 30.5793C34.128 31.8514 40.3319 34.1975 53.6009 34.1399C60.9859 34.1069 77.228 31.8514 80.8194 23.2108L68.4968 20.2605Z" fill="#CCA483"/>
<path d="M66.7257 2.01012C66.7257 2.01012 59.4541 -1.41223 49.6774 0.674189C42.3584 2.23681 30.4481 7.21407 27.7678 17.8751C27.7678 17.8751 23.7578 35.2924 30.586 42.793C30.586 42.793 30.25 35.9893 30.9367 30.5734C30.9367 30.5734 39.3135 32.6249 48.9251 32.6455C59.143 32.666 72.7667 30.9879 80.8197 23.2111C80.8197 23.2111 82.028 30.6086 82.028 42.7933C82.028 42.7933 84.2032 39.4513 84.665 35.0144C85.7123 24.949 83.657 10.8202 76.1212 11.2842C76.119 11.2816 72.9274 4.94828 66.7257 2.01012Z" fill="#393C3D"/>
<path d="M83.228 37.0035C73.1422 33.4696 59.3431 37.2757 59.3431 37.2757C58.0277 37.5992 57.1474 37.6612 56.6918 37.6652C56.6896 37.6652 56.325 37.6652 56.325 37.6652H55.9582C55.5026 37.6612 54.6222 37.5992 53.3047 37.2757C53.3047 37.2757 39.5056 33.4718 29.4197 37.0035C29.4197 37.0035 29.1186 38.422 29.4197 40.3558C29.4197 40.3558 29.4443 40.6485 29.7704 40.7721C29.7704 40.7721 30.8712 41.1184 31.1559 42.2401C31.1559 42.2401 31.7868 44.7678 31.9907 45.9284C31.9907 45.9284 32.3329 48.1652 33.5596 49.4146C33.5596 49.4146 34.6296 50.7835 37.3718 51.3917C37.3718 51.3917 40.9387 52.3091 45.3815 51.7794C45.3815 51.7794 48.5545 51.3899 50.1853 49.8581C50.1853 49.8581 51.9852 48.316 52.983 45.3327C52.983 45.3327 53.2944 44.4153 53.9624 42.4235C53.9624 42.4235 54.284 41.0648 56.321 40.9761C58.3601 41.0648 58.6796 42.4235 58.6796 42.4235C59.3475 44.4153 59.6589 45.3327 59.6589 45.3327C60.6567 48.3182 62.4566 49.8581 62.4566 49.8581C64.0875 51.3899 67.2604 51.7794 67.2604 51.7794C71.7032 52.3091 75.2701 51.3917 75.2701 51.3917C78.0102 50.7835 79.0823 49.4146 79.0823 49.4146C80.3112 48.1652 80.6512 45.9284 80.6512 45.9284C80.8551 44.7656 81.4861 42.2401 81.4861 42.2401C81.7707 41.1184 82.8715 40.7721 82.8715 40.7721C83.1972 40.6503 83.2218 40.3558 83.2218 40.3558C83.5288 38.422 83.228 37.0035 83.228 37.0035ZM52.2508 42.4833C52.2508 42.4833 51.0737 47.8046 49.0962 49.2539C49.0962 49.2539 47.1829 50.8312 43.4389 50.895C43.4389 50.895 37.8619 51.1382 35.3632 49.2767C35.3632 49.2767 33.718 48.1098 33.188 44.4006C33.188 44.4006 32.4808 40.0668 33.3919 38.8299C33.3919 38.8299 34.6288 36.7662 38.371 36.83C38.371 36.83 41.5583 36.7662 44.1542 37.0237C44.1542 37.0237 47.3726 37.2709 50.2323 38.1967C50.2304 38.1931 53.3435 39.0547 52.2508 42.4833ZM79.4591 44.3988C78.929 48.1076 77.2839 49.2748 77.2839 49.2748C74.7851 51.1386 69.2081 50.8932 69.2081 50.8932C65.4641 50.8294 63.5508 49.2521 63.5508 49.2521C61.5737 47.8006 60.3962 42.4815 60.3962 42.4815C59.3035 39.0529 62.4148 38.1912 62.4148 38.1912C65.2745 37.2654 68.4929 37.0182 68.4929 37.0182C71.0884 36.7603 74.276 36.8245 74.276 36.8245C78.0201 36.7607 79.2551 38.8244 79.2551 38.8244C80.1663 40.0631 79.4591 44.3988 79.4591 44.3988Z" fill="#3B3B3B"/>
</svg>
