<?xml version="1.0" encoding="utf-8"?>
<!-- Generator: Adobe Illustrator 16.0.0, SVG Export Plug-In . SVG Version: 6.00 Build 0)  -->
<!DOCTYPE svg PUBLIC "-//W3C//DTD SVG 1.1//EN" "http://www.w3.org/Graphics/SVG/1.1/DTD/svg11.dtd">
<svg version="1.1" id="Layer_1" xmlns="http://www.w3.org/2000/svg" xmlns:xlink="http://www.w3.org/1999/xlink" x="0px" y="0px"
	 width="62.7px" height="87.4px" viewBox="0 0 62.7 87.4" enable-background="new 0 0 62.7 87.4" xml:space="preserve">
<g>
	<g>
		<defs>
			<rect id="SVGID_1_" y="0" width="62.7" height="87.4"/>
		</defs>
		<clipPath id="SVGID_2_">
			<use xlink:href="#SVGID_1_"  overflow="visible"/>
		</clipPath>
		<path clip-path="url(#SVGID_2_)" fill="#004144" d="M52,1H10.7C5.4,1,1,5.3,1,10.6V76.8C1,82.1,5.3,86.4,10.7,86.4H52
			c5.299,0,9.699-4.3,9.699-9.601V10.6C61.7,5.3,57.4,1,52,1 M58.7,76.8c0,3.699-3,6.601-6.699,6.601H10.7C7,83.4,4,80.4,4,76.8
			V10.6C4,6.9,7,4,10.7,4H52C55.7,4,58.7,7,58.7,10.6V76.8z"/>
	</g>
	<g>
		<defs>
			<rect id="SVGID_3_" y="0" width="62.7" height="87.4"/>
		</defs>
		<clipPath id="SVGID_4_">
			<use xlink:href="#SVGID_3_"  overflow="visible"/>
		</clipPath>
		<path clip-path="url(#SVGID_4_)" fill="none" stroke="#004144" stroke-width="2" stroke-miterlimit="10" d="M52,1H10.7
			C5.4,1,1,5.3,1,10.6V76.8C1,82.1,5.3,86.4,10.7,86.4H52c5.299,0,9.699-4.3,9.699-9.601V10.6C61.7,5.3,57.4,1,52,1z M58.7,76.8
			c0,3.699-3,6.601-6.699,6.601H10.7C7,83.4,4,80.4,4,76.8V10.6C4,6.9,7,4,10.7,4H52C55.7,4,58.7,7,58.7,10.6V76.8z"/>
	</g>
	<g>
		<defs>
			<rect id="SVGID_5_" y="0" width="62.7" height="87.4"/>
		</defs>
		<clipPath id="SVGID_6_">
			<use xlink:href="#SVGID_5_"  overflow="visible"/>
		</clipPath>
		<path clip-path="url(#SVGID_6_)" fill="#004144" d="M43.601,10.5H18.9c-0.8,0-1.5,0.7-1.5,1.5s0.7,1.5,1.5,1.5h24.7
			c0.8,0,1.5-0.7,1.5-1.5S44.4,10.5,43.601,10.5"/>
	</g>
	<g>
		<defs>
			<rect id="SVGID_7_" y="0" width="62.7" height="87.4"/>
		</defs>
		<clipPath id="SVGID_8_">
			<use xlink:href="#SVGID_7_"  overflow="visible"/>
		</clipPath>
		<path clip-path="url(#SVGID_8_)" fill="none" stroke="#004144" stroke-width="2" stroke-miterlimit="10" d="M43.601,10.5H18.9
			c-0.8,0-1.5,0.7-1.5,1.5s0.7,1.5,1.5,1.5h24.7c0.8,0,1.5-0.7,1.5-1.5S44.4,10.5,43.601,10.5z"/>
	</g>
	<g>
		<defs>
			<rect id="SVGID_9_" y="0" width="62.7" height="87.4"/>
		</defs>
		<clipPath id="SVGID_10_">
			<use xlink:href="#SVGID_9_"  overflow="visible"/>
		</clipPath>
		<path clip-path="url(#SVGID_10_)" fill="#004144" d="M31.3,67.8c-2.8,0-5,2.301-5,5c0,1.301,0.5,2.601,1.5,3.5
			c0.9,0.9,2.2,1.4,3.5,1.4c2.801,0,5-2.3,5-5S34.101,67.8,31.3,67.8 M31.4,74.8L31.4,74.8c-0.5,0-1-0.199-1.4-0.601
			C29.6,73.8,29.4,73.3,29.4,72.8c0-1.101,0.9-2,2-2c1.101,0,2,0.899,2,2S32.5,74.8,31.4,74.8"/>
	</g>
	<g>
		<defs>
			<rect id="SVGID_11_" y="0" width="62.7" height="87.4"/>
		</defs>
		<clipPath id="SVGID_12_">
			<use xlink:href="#SVGID_11_"  overflow="visible"/>
		</clipPath>
		<path clip-path="url(#SVGID_12_)" fill="none" stroke="#004144" stroke-width="2" stroke-miterlimit="10" d="M31.3,67.8
			c-2.8,0-5,2.301-5,5c0,1.301,0.5,2.601,1.5,3.5c0.9,0.9,2.2,1.4,3.5,1.4c2.801,0,5-2.3,5-5S34.101,67.8,31.3,67.8z M31.4,74.8
			L31.4,74.8c-0.5,0-1-0.199-1.4-0.601C29.6,73.8,29.4,73.3,29.4,72.8c0-1.101,0.9-2,2-2c1.101,0,2,0.899,2,2S32.5,74.8,31.4,74.8z"
			/>
	</g>
</g>
</svg>
