<?xml version="1.0" encoding="utf-8"?>
<!-- Generator: Adobe Illustrator 16.0.0, SVG Export Plug-In . SVG Version: 6.00 Build 0)  -->
<!DOCTYPE svg PUBLIC "-//W3C//DTD SVG 1.1//EN" "http://www.w3.org/Graphics/SVG/1.1/DTD/svg11.dtd">
<svg version="1.1" id="Layer_1" xmlns="http://www.w3.org/2000/svg" xmlns:xlink="http://www.w3.org/1999/xlink" x="0px" y="0px"
	 width="78.036px" height="58.127px" viewBox="0 0 78.036 58.127" enable-background="new 0 0 78.036 58.127" xml:space="preserve">
<g>
	<defs>
		<rect id="SVGID_1_" width="78.036" height="58.127"/>
	</defs>
	<clipPath id="SVGID_2_">
		<use xlink:href="#SVGID_1_"  overflow="visible"/>
	</clipPath>
	<path clip-path="url(#SVGID_2_)" fill="#004144" d="M76.967,56.085c0.041-0.146,0.069-0.298,0.069-0.459V2.499
		c0-0.162-0.028-0.316-0.07-0.462c-0.007-0.02-0.01-0.04-0.017-0.06c-0.058-0.171-0.141-0.325-0.244-0.46
		c-0.007-0.009-0.008-0.02-0.015-0.029c-0.006-0.005-0.01-0.007-0.015-0.012c-0.11-0.134-0.243-0.242-0.39-0.323
		c-0.011-0.006-0.021-0.014-0.031-0.02c-0.14-0.071-0.291-0.111-0.451-0.123c-0.016-0.001-0.03-0.005-0.047-0.005
		C75.742,1.004,75.728,1,75.714,1H2.324C2.309,1,2.295,1.004,2.28,1.005C2.265,1.006,2.252,1.009,2.238,1.01
		C2.076,1.022,1.922,1.063,1.781,1.135C1.772,1.139,1.765,1.146,1.756,1.15c-0.15,0.081-0.283,0.191-0.395,0.327
		c-0.005,0.005-0.01,0.006-0.014,0.011C1.34,1.496,1.339,1.507,1.331,1.516c-0.104,0.135-0.187,0.29-0.244,0.461
		c-0.007,0.02-0.01,0.04-0.016,0.061C1.028,2.184,1,2.338,1,2.5v53.128c0,0.164,0.029,0.32,0.072,0.468
		c0.006,0.021,0.01,0.039,0.016,0.06c0.057,0.172,0.142,0.326,0.247,0.462c0.006,0.008,0.008,0.018,0.014,0.025
		c0.005,0.007,0.013,0.012,0.019,0.019c0.043,0.051,0.091,0.097,0.14,0.14c0.022,0.02,0.042,0.042,0.065,0.061
		c0.058,0.046,0.12,0.083,0.185,0.116c0.015,0.009,0.029,0.021,0.046,0.028c0.159,0.077,0.335,0.121,0.519,0.121h73.389
		c0.185,0,0.36-0.043,0.52-0.121c0.025-0.012,0.048-0.03,0.071-0.044c0.055-0.031,0.109-0.063,0.16-0.103
		c0.026-0.021,0.05-0.048,0.076-0.07c0.045-0.041,0.089-0.082,0.128-0.129c0.007-0.009,0.015-0.015,0.021-0.022
		c0.007-0.009,0.009-0.021,0.016-0.03c0.103-0.134,0.186-0.287,0.243-0.458C76.956,56.128,76.96,56.106,76.967,56.085 M3.647,5.901
		l22.269,23.061L3.647,52.207V5.901z M49.289,27.832c-0.092,0.068-0.189,0.125-0.266,0.221c-0.029,0.036-0.039,0.083-0.064,0.121
		l-9.941,10.294L5.734,3.999h66.569L49.289,27.832z M27.877,30.993l10.249,10.612c0.253,0.263,0.572,0.394,0.892,0.394
		c0.321,0,0.641-0.131,0.893-0.394l10.121-10.48l22.266,23.002H5.715L27.877,30.993z M51.994,29.093L74.39,5.901v46.33
		L51.994,29.093z"/>
	<path clip-path="url(#SVGID_2_)" fill="none" stroke="#004144" stroke-width="2" stroke-miterlimit="10" d="M76.967,56.085
		c0.041-0.146,0.069-0.298,0.069-0.459V2.499c0-0.162-0.028-0.316-0.07-0.462c-0.007-0.02-0.01-0.04-0.017-0.06
		c-0.058-0.171-0.141-0.325-0.244-0.46c-0.007-0.009-0.008-0.02-0.015-0.029c-0.006-0.005-0.01-0.007-0.015-0.012
		c-0.11-0.134-0.243-0.242-0.39-0.323c-0.011-0.006-0.021-0.014-0.031-0.02c-0.14-0.071-0.291-0.111-0.451-0.123
		c-0.016-0.001-0.03-0.005-0.047-0.005C75.742,1.004,75.728,1,75.714,1H2.324C2.309,1,2.295,1.004,2.28,1.005
		C2.265,1.006,2.252,1.009,2.238,1.01C2.076,1.022,1.922,1.063,1.781,1.135C1.772,1.139,1.765,1.146,1.756,1.15
		c-0.15,0.081-0.283,0.191-0.395,0.327c-0.005,0.005-0.01,0.006-0.014,0.011C1.34,1.496,1.339,1.507,1.331,1.516
		c-0.104,0.135-0.187,0.29-0.244,0.461c-0.007,0.02-0.01,0.04-0.016,0.061C1.028,2.184,1,2.338,1,2.5v53.128
		c0,0.164,0.029,0.32,0.072,0.468c0.006,0.021,0.01,0.039,0.016,0.06c0.057,0.172,0.142,0.326,0.247,0.462
		c0.006,0.008,0.008,0.018,0.014,0.025c0.005,0.007,0.013,0.012,0.019,0.019c0.043,0.051,0.091,0.097,0.14,0.14
		c0.022,0.02,0.042,0.042,0.065,0.061c0.058,0.046,0.12,0.083,0.185,0.116c0.015,0.009,0.029,0.021,0.046,0.028
		c0.159,0.077,0.335,0.121,0.519,0.121h73.389c0.185,0,0.36-0.043,0.52-0.121c0.025-0.012,0.048-0.03,0.071-0.044
		c0.055-0.031,0.109-0.063,0.16-0.103c0.026-0.021,0.05-0.048,0.076-0.07c0.045-0.041,0.089-0.082,0.128-0.129
		c0.007-0.009,0.015-0.015,0.021-0.022c0.007-0.009,0.009-0.021,0.016-0.03c0.103-0.134,0.186-0.287,0.243-0.458
		C76.956,56.128,76.96,56.106,76.967,56.085z M3.647,5.901l22.269,23.061L3.647,52.207V5.901z M49.289,27.832
		c-0.092,0.068-0.189,0.125-0.266,0.221c-0.029,0.036-0.039,0.083-0.064,0.121l-9.941,10.294L5.734,3.999h66.569L49.289,27.832z
		 M27.877,30.993l10.249,10.612c0.253,0.263,0.572,0.394,0.892,0.394c0.321,0,0.641-0.131,0.893-0.394l10.121-10.48l22.266,23.002
		H5.715L27.877,30.993z M51.994,29.093L74.39,5.901v46.33L51.994,29.093z"/>
</g>
</svg>
