<?xml version="1.0" encoding="utf-8"?>
<!-- Generator: Adobe Illustrator 16.0.0, SVG Export Plug-In . SVG Version: 6.00 Build 0)  -->
<!DOCTYPE svg PUBLIC "-//W3C//DTD SVG 1.1//EN" "http://www.w3.org/Graphics/SVG/1.1/DTD/svg11.dtd">
<svg version="1.1" id="Isolation_Mode" xmlns="http://www.w3.org/2000/svg" xmlns:xlink="http://www.w3.org/1999/xlink" x="0px"
	 y="0px" width="50px" height="50px" viewBox="0 0 50 50" enable-background="new 0 0 50 50" xml:space="preserve">
<g>
	<circle fill="#00383C" cx="24.969" cy="24.969" r="24.969"/>
	<path fill="#FFFFFF" d="M31.153,25.03c-2.258,0-4.248,1.326-5.153,3.298c-2.132-1.085-3.87-2.822-4.955-4.954
		c1.972-0.906,3.299-2.896,3.299-5.154c0-3.129-2.546-5.675-5.675-5.675s-5.675,2.546-5.675,5.675
		c0,10.013,8.146,18.159,18.159,18.159c3.129,0,5.675-2.545,5.675-5.674S34.282,25.03,31.153,25.03z M31.153,34.109
		c-8.762,0-15.89-7.128-15.89-15.889c0-1.878,1.527-3.405,3.405-3.405s3.405,1.527,3.405,3.405c0,1.643-1.17,3.049-2.78,3.344
		l-1.342,0.246l0.485,1.275c1.378,3.611,4.239,6.473,7.852,7.852l1.275,0.486l0.245-1.344c0.295-1.61,1.701-2.779,3.344-2.779
		c1.878,0,3.405,1.527,3.405,3.405C34.559,32.582,33.031,34.109,31.153,34.109z"/>
</g>
</svg>
