<?xml version="1.0" encoding="utf-8"?>
<!-- Generator: Adobe Illustrator 16.0.0, SVG Export Plug-In . SVG Version: 6.00 Build 0)  -->
<!DOCTYPE svg PUBLIC "-//W3C//DTD SVG 1.1//EN" "http://www.w3.org/Graphics/SVG/1.1/DTD/svg11.dtd">
<svg version="1.1" id="Layer_1" xmlns="http://www.w3.org/2000/svg" xmlns:xlink="http://www.w3.org/1999/xlink" x="0px" y="0px"
	 width="132px" height="129px" viewBox="0 0 132 129" enable-background="new 0 0 132 129" xml:space="preserve">
<ellipse fill="#EAE73F" cx="66.167" cy="65" rx="65.5" ry="64"/>
<g>
	<defs>
		<rect id="SVGID_1_" x="27.333" y="23.304" width="76.667" height="75.695"/>
	</defs>
	<clipPath id="SVGID_2_">
		<use xlink:href="#SVGID_1_"  overflow="visible"/>
	</clipPath>
	<path clip-path="url(#SVGID_2_)" d="M102.543,96.088h-4.367V36.406c0-0.804-0.651-1.456-1.455-1.456H83.133
		c-0.803,0-1.455,0.652-1.455,1.456v59.683h-7.764V58.726c0-0.804-0.652-1.456-1.456-1.456H58.873c-0.805,0-1.456,0.652-1.456,1.456
		v37.362h-7.764V80.076c0-0.804-0.651-1.456-1.456-1.456H34.611c-0.805,0-1.456,0.652-1.456,1.456v16.013h-4.367
		c-0.805,0-1.456,0.651-1.456,1.455c0,0.806,0.651,1.456,1.456,1.456h73.755c0.804,0,1.456-0.65,1.456-1.456
		C104,96.74,103.347,96.088,102.543,96.088 M84.59,37.861h10.675v58.227H84.59V37.861z M60.329,60.182h10.675v35.907H60.329V60.182z
		 M36.067,81.532h10.675v14.557H36.067V81.532z"/>
	<path clip-path="url(#SVGID_2_)" d="M29.759,68.916c0.385,0,0.756-0.153,1.029-0.427l40.215-40.215v6.191
		c0,0.804,0.651,1.456,1.455,1.456s1.456-0.652,1.456-1.456V24.76c-0.002-0.184-0.038-0.364-0.106-0.534
		c-0.147-0.361-0.434-0.648-0.796-0.795c-0.175-0.079-0.362-0.122-0.554-0.127h-9.704c-0.805,0-1.456,0.652-1.456,1.456
		c0,0.804,0.651,1.456,1.456,1.456h6.192L28.73,66.432c-0.569,0.569-0.568,1.49,0.001,2.059
		C29.004,68.762,29.374,68.916,29.759,68.916"/>
</g>
</svg>
