<?xml version="1.0" encoding="utf-8"?>
<!-- Generator: Adobe Illustrator 16.0.0, SVG Export Plug-In . SVG Version: 6.00 Build 0)  -->
<!DOCTYPE svg PUBLIC "-//W3C//DTD SVG 1.1//EN" "http://www.w3.org/Graphics/SVG/1.1/DTD/svg11.dtd">
<svg version="1.1" id="Layer_1" xmlns="http://www.w3.org/2000/svg" xmlns:xlink="http://www.w3.org/1999/xlink" x="0px" y="0px"
	 width="132px" height="129px" viewBox="0 0 132 129" enable-background="new 0 0 132 129" xml:space="preserve">
<ellipse fill="#EAE73F" cx="66.167" cy="65" rx="65.5" ry="64"/>
<g>
	<defs>
		<rect id="SVGID_1_" x="26.667" y="24.272" width="81.133" height="80.394"/>
	</defs>
	<clipPath id="SVGID_2_">
		<use xlink:href="#SVGID_1_"  overflow="visible"/>
	</clipPath>
	<path clip-path="url(#SVGID_2_)" d="M93.57,50.516v-2.495c3.141-1.848,5.175-5.267,5.175-8.963v-4.436
		c0-5.729-4.621-10.35-10.351-10.35s-10.441,4.621-10.441,10.35v4.436c0,3.604,1.847,6.93,4.99,8.778v2.68
		c-1.387,0.37-2.681,0.924-3.976,1.664c-2.031-4.712-6.743-8.039-12.195-8.039c-5.36,0-9.888,3.141-12.014,7.762
		c-1.201-0.554-2.403-1.109-3.604-1.386v-2.495c3.142-1.848,5.175-5.267,5.175-8.963v-4.436c0-5.729-4.62-10.35-10.35-10.35
		c-5.729,0-10.349,4.621-10.349,10.35v4.436c0,3.604,1.848,6.93,4.99,8.778v2.68c-8.316,2.403-13.954,9.888-13.954,18.575
		c0,0.739,0.647,1.386,1.386,1.386h27.353h0.277c1.109,1.756,2.679,3.234,4.527,4.345v4.158
		C49.214,81.933,41.729,91.82,41.729,103.28c0,0.74,0.647,1.386,1.386,1.386h47.589c0.741,0,1.387-0.646,1.387-1.386
		c0-11.365-7.854-21.438-18.759-24.301v-3.976c1.94-1.107,3.513-2.587,4.713-4.436h28.369c0.74,0,1.386-0.646,1.386-1.387
		C107.708,60.496,101.792,52.826,93.57,50.516 M29.438,67.795c0.555-7.208,5.73-13.121,12.845-14.784
		c0.647-0.185,1.109-0.74,1.109-1.386v-4.621c0-0.555-0.277-1.017-0.739-1.201c-2.587-1.294-4.25-3.881-4.25-6.746v-4.436
		c0-4.159,3.419-7.577,7.577-7.577s7.578,3.418,7.578,7.577v4.436c0,2.864-1.756,5.544-4.343,6.838
		c-0.462,0.185-0.832,0.739-0.832,1.293v4.436c0,0.646,0.462,1.201,1.109,1.386c1.571,0.37,3.049,0.924,4.436,1.663
		c-0.185,0.924-0.277,1.848-0.277,2.865v5.914c0,1.479,0.277,2.957,0.739,4.342H29.438z M71.299,72.878
		c-0.462,0.185-0.832,0.739-0.832,1.293v5.914c0,0.647,0.462,1.203,1.108,1.387c9.797,2.126,17.004,10.626,17.65,20.513H44.5
		c0.555-9.887,7.578-18.203,17.374-20.42c0.646-0.186,1.108-0.739,1.108-1.387v-6.098c0-0.556-0.277-1.018-0.739-1.202
		c-3.604-1.755-5.821-5.36-5.821-9.333v-5.914c0-5.822,4.712-10.442,10.442-10.442s10.441,4.713,10.441,10.442v5.822
		C77.305,67.427,74.996,71.124,71.299,72.878 M79.338,67.795c0.461-1.386,0.739-2.863,0.739-4.342v-5.914
		c0-0.832-0.092-1.756-0.278-2.495c1.479-0.924,3.144-1.571,4.807-1.941c0.647-0.185,1.109-0.739,1.109-1.386v-4.621
		c0-0.554-0.277-1.016-0.74-1.201c-2.587-1.293-4.251-3.881-4.251-6.746v-4.436c0-4.158,3.42-7.577,7.577-7.577
		c4.158,0,7.579,3.419,7.579,7.577v4.436c0,2.864-1.757,5.544-4.345,6.838c-0.462,0.185-0.832,0.739-0.832,1.293v4.436
		c0,0.646,0.463,1.201,1.11,1.386c7.115,1.571,12.383,7.67,13.029,14.786L79.338,67.795z"/>
</g>
</svg>
