<?xml version="1.0" encoding="utf-8"?>
<!-- Generator: Adobe Illustrator 16.0.0, SVG Export Plug-In . SVG Version: 6.00 Build 0)  -->
<!DOCTYPE svg PUBLIC "-//W3C//DTD SVG 1.1//EN" "http://www.w3.org/Graphics/SVG/1.1/DTD/svg11.dtd">
<svg version="1.1" id="Layer_1" xmlns="http://www.w3.org/2000/svg" xmlns:xlink="http://www.w3.org/1999/xlink" x="0px" y="0px"
	 width="132px" height="129px" viewBox="0 0 132 129" enable-background="new 0 0 132 129" xml:space="preserve">
<ellipse fill="#EAE73F" cx="66.167" cy="65" rx="65.5" ry="64"/>
<g>
	<defs>
		<rect id="SVGID_1_" x="26.333" y="21" width="72.179" height="88.613"/>
	</defs>
	<clipPath id="SVGID_2_">
		<use xlink:href="#SVGID_1_"  overflow="visible"/>
	</clipPath>
	<path clip-path="url(#SVGID_2_)" fill="#231F20" d="M97.514,41.679c1.401-7.037,2.022-16.125-2.972-19.45
		c-4.994-3.331-13.141,0.741-19.097,4.742c-6.38,4.288-13.095,10.528-15.968,14.841l-2.206,3.31
		c-3.268-0.094-14.274-0.271-18.261,1.356c-4.351,1.779-12.279,11.155-12.66,14.976c-0.138,1.372,0.547,2.046,0.965,2.322
		c0.815,0.546,3.1,0.744,5.979,0.744c3.463,0,7.78-0.286,11.451-0.595l-0.965,1.448c-0.005,0.007-0.01,0.012-0.015,0.019
		c-0.004,0.008-0.006,0.015-0.011,0.022l-6.073,9.114c-4.074,6.113-4.06,14.098-0.072,20.189l-2.612,3.919
		c-1.032,1.549-1.373,3.419-0.958,5.269c0.41,1.827,1.508,3.413,3.093,4.469c1.257,0.837,2.677,1.238,4.068,1.238
		c2.253,0,4.434-1.052,5.742-3.014l2.605-3.913c1.115,0.21,2.236,0.315,3.35,0.315c6.029,0,11.829-2.996,15.271-8.161l7.545-11.324
		c2.066,6.424,5.049,14.835,6.846,16.029c0.246,0.163,0.655,0.36,1.199,0.36c0.379,0,0.823-0.096,1.324-0.366
		c3.377-1.826,8.976-12.754,8.938-17.451c-0.029-4.306-4.438-14.397-5.781-17.374l1.723-2.584
		C92.836,57.82,96.012,49.219,97.514,41.679 M61.832,43.381c2.31-3.466,8.271-9.409,15.193-14.061
		c7.295-4.904,13.107-6.631,15.948-4.737c2.839,1.89,3.481,7.919,1.765,16.543c-1.629,8.182-4.819,15.968-7.13,19.434L72.684,82.959
		L55.017,71.191c-0.006-0.006-0.011-0.011-0.019-0.017c-0.007-0.006-0.015-0.007-0.022-0.011l-8.071-5.377l12.22-18.342
		c0.037-0.047,0.068-0.098,0.1-0.149L61.832,43.381z M29.185,61.514c0.448-2.404,7.122-10.873,10.896-12.417
		c2.715-1.105,10.525-1.246,15.332-1.182l-8.654,12.99C39.477,61.573,31.189,61.951,29.185,61.514 M40.036,76.099l5.302-7.961
		l6.914,4.605L39.344,92.115C36.617,87.123,36.822,80.919,40.036,76.099 M44.588,105.029c-1.251,1.874-3.892,2.32-5.887,0.989
		c-0.977-0.649-1.651-1.619-1.901-2.731c-0.243-1.087-0.047-2.182,0.552-3.08l3.132-4.702c0.021-0.029,0.042-0.059,0.06-0.09
		l14.062-21.101l7.234,4.82L44.588,105.029z M65.817,93.268c-3.219,4.827-8.871,7.406-14.528,6.808l12.907-19.373l6.921,4.609
		L65.817,93.268z M91.193,82.108c0.031,4.073-5.194,13.467-7.249,14.834c-1.23-1.789-4.045-9.521-6.216-16.447l8.651-12.988
		C88.292,71.915,91.173,79.177,91.193,82.108"/>
	<path clip-path="url(#SVGID_2_)" fill="#231F20" d="M69.496,58.859c1.885,1.256,4.018,1.859,6.131,1.859
		c3.587,0,7.112-1.735,9.25-4.939l0.002-0.001c3.386-5.091,2-11.992-3.086-15.383c-2.467-1.643-5.428-2.226-8.329-1.644
		c-2.905,0.582-5.41,2.26-7.051,4.725c-1.643,2.466-2.227,5.424-1.646,8.329C65.349,54.71,67.027,57.214,69.496,58.859
		 M68.769,45.044c1.222-1.835,3.086-3.085,5.249-3.519c0.547-0.11,1.096-0.163,1.642-0.163c1.613,0,3.19,0.474,4.563,1.388
		c3.789,2.526,4.82,7.666,2.299,11.459c-2.531,3.793-7.673,4.82-11.457,2.295c-1.841-1.225-3.092-3.09-3.524-5.254
		C67.106,49.085,67.542,46.883,68.769,45.044"/>
</g>
</svg>
