<?xml version="1.0" encoding="utf-8"?>
<!-- Generator: Adobe Illustrator 16.0.0, SVG Export Plug-In . SVG Version: 6.00 Build 0)  -->
<!DOCTYPE svg PUBLIC "-//W3C//DTD SVG 1.1//EN" "http://www.w3.org/Graphics/SVG/1.1/DTD/svg11.dtd">
<svg version="1.1" id="Layer_1" xmlns="http://www.w3.org/2000/svg" xmlns:xlink="http://www.w3.org/1999/xlink" x="0px" y="0px"
	 width="132px" height="129px" viewBox="0 0 132 129" enable-background="new 0 0 132 129" xml:space="preserve">
<ellipse fill="#EAE73F" cx="66.167" cy="65" rx="65.5" ry="64"/>
<g>
	<defs>
		<rect id="SVGID_1_" x="24.849" y="17.534" width="79.87" height="89.8"/>
	</defs>
	<clipPath id="SVGID_2_">
		<use xlink:href="#SVGID_1_"  overflow="visible"/>
	</clipPath>
	<path clip-path="url(#SVGID_2_)" d="M70.774,31.148v-4.103h3.825c0.744,0,1.397-0.653,1.397-1.398v-6.714
		c0-0.746-0.653-1.399-1.397-1.399H58.28c-0.747,0-1.399,0.653-1.399,1.399v6.714c0,0.746,0.652,1.398,1.399,1.398h3.821v4.103
		c-9.044,1.026-17.063,5.222-23.125,11.376l-1.586-1.585l2.612-2.611c0.56-0.56,0.56-1.399,0-1.958l-5.41-5.408
		c-0.558-0.56-1.399-0.56-1.957,0l-7.368,7.181c-0.559,0.559-0.559,1.398,0,1.958l5.409,5.409c0.279,0.28,0.652,0.374,1.026,0.374
		c0.373,0,0.746-0.094,1.024-0.374l2.706-2.704l1.771,1.771c-5.595,6.621-8.952,15.2-8.952,24.525
		c0,21.074,17.157,38.232,38.232,38.232c21.073,0,38.233-17.158,38.233-38.232C104.625,49.519,89.798,33.292,70.774,31.148
		 M31.703,42.618l-3.451-3.543l5.222-5.223l3.449,3.451l-2.05,2.052c-0.281,0.279-0.654,0.652-1.026,1.025L31.703,42.618z
		 M63.5,24.248h-3.822v-3.917h13.522v3.917h-3.825c-0.747,0-1.399,0.653-1.399,1.399v5.315h-1.491h-1.492v-5.315
		C64.898,24.807,64.247,24.248,63.5,24.248 M66.392,104.536c-19.489,0-35.436-15.853-35.436-35.435
		c0-19.583,15.852-35.435,35.436-35.435c0.748,0,1.492,0,2.237,0.093c0.375,0,0.747,0.092,1.12,0.092
		c17.997,1.679,32.079,16.879,32.079,35.25C101.828,88.683,85.975,104.536,66.392,104.536"/>
	<path clip-path="url(#SVGID_2_)" d="M86.535,46.161c-0.095-0.093-0.188-0.187-0.28-0.279c-5.316-4.57-12.217-7.274-19.77-7.274
		c-16.878,0-30.493,13.708-30.493,30.493c0,16.784,13.614,30.585,30.399,30.585c16.785,0,30.493-13.708,30.493-30.491
		C96.977,59.962,92.875,51.756,86.535,46.161 M66.392,96.889c-15.293,0-27.695-12.401-27.695-27.694
		c0-15.294,12.402-27.696,27.695-27.696c6.435,0,12.308,2.238,16.971,5.875L68.257,64.718c-0.56-0.186-1.213-0.373-1.772-0.373
		c-2.611,0-4.756,2.144-4.756,4.755c0,2.61,2.145,4.756,4.756,4.756c2.611,0,4.662-2.146,4.662-4.756
		c0-0.933-0.28-1.865-0.746-2.611l15.201-17.438c5.314,5.036,8.578,12.123,8.578,20.049C94.18,84.393,81.685,96.889,66.392,96.889
		 M68.35,69.101c0,1.119-0.84,1.958-1.958,1.958c-1.12,0-1.958-0.839-1.958-1.958c0-1.025,0.837-1.958,1.958-1.958
		C67.51,67.143,68.35,68.076,68.35,69.101"/>
</g>
</svg>
