<?xml version="1.0" encoding="utf-8"?>
<!-- Generator: Adobe Illustrator 16.0.0, SVG Export Plug-In . SVG Version: 6.00 Build 0)  -->
<!DOCTYPE svg PUBLIC "-//W3C//DTD SVG 1.1//EN" "http://www.w3.org/Graphics/SVG/1.1/DTD/svg11.dtd">
<svg version="1.1" id="Layer_1" xmlns="http://www.w3.org/2000/svg" xmlns:xlink="http://www.w3.org/1999/xlink" x="0px" y="0px"
	 width="59.268px" height="59.268px" viewBox="0 0 59.268 59.268" enable-background="new 0 0 59.268 59.268" xml:space="preserve">
<g>
	<defs>
		<rect id="SVGID_1_" y="0" width="59.268" height="59.268"/>
	</defs>
	<clipPath id="SVGID_2_">
		<use xlink:href="#SVGID_1_"  overflow="visible"/>
	</clipPath>
	<path clip-path="url(#SVGID_2_)" d="M24,5c10.477,0,19,8.523,19,19c0,10.477-8.523,19-19,19C13.523,43,5,34.477,5,24
		C5,13.523,13.523,5,24,5 M24,0C10.745,0,0,10.745,0,24c0,13.255,10.745,24,24,24s24-10.745,24-24C48,10.745,37.255,0,24,0"/>
	
		<line clip-path="url(#SVGID_2_)" fill="none" stroke="#000000" stroke-width="5" stroke-miterlimit="10" x1="39.5" y1="39.5" x2="57.5" y2="57.5"/>
</g>
</svg>
