<svg width="76" height="80" viewBox="0 0 76 80" fill="none" xmlns="http://www.w3.org/2000/svg">
<path d="M74.9529 15.8925C73.7004 12.82 71.3444 9.4617 68.3191 6.43639C65.3179 3.43514 62.2673 1.37921 59.4977 0.491083C56.6362 -0.426103 54.1795 -0.0504786 52.5798 1.54905C52.5613 1.56733 52.5435 1.58639 52.5265 1.60593L43.2965 12.1508C42.8696 12.6386 42.9188 13.38 43.4067 13.8068C43.8943 14.2337 44.6357 14.1845 45.0626 13.6967L54.2646 3.18389C55.5443 1.93749 57.6407 2.36061 58.781 2.72624C61.056 3.45561 63.6046 5.14561 66.1808 7.62701C65.1947 6.97811 64.2108 6.44717 63.2635 6.06108C60.7543 5.03826 58.7007 5.12155 57.4601 6.2867C57.4443 6.29998 57.429 6.31436 57.4137 6.32857C57.4044 6.33764 57.3943 6.34529 57.3851 6.35436C57.3804 6.35904 57.3765 6.3642 57.3719 6.36889C57.3671 6.37389 57.3618 6.37811 57.3571 6.38326L40.0095 24.96C39.0062 26.0343 36.8596 28.2337 34.0492 31.0685C33.1684 29.966 32.4982 29.0598 32.0742 28.4681C32.729 27.7646 33.3573 27.0695 33.9487 26.3937L41.422 17.8559C41.8489 17.3681 41.7996 16.6268 41.3118 16.1998C40.8242 15.7729 40.0828 15.8222 39.6559 16.31L32.1826 24.8478C31.4534 25.6807 30.665 26.5453 29.8395 27.4189C28.7328 28.0287 25.8862 29.7359 21.7367 35.0629L1.09017 53.1193C1.07939 53.1287 1.06877 53.1384 1.0583 53.1482C-0.120917 54.2584 -0.245604 56.1132 0.774394 57.371L3.31595 60.5055L2.03845 61.7021C2.02908 61.7108 2.01986 61.7197 2.0108 61.7288C0.778613 62.961 0.674394 65.0487 1.71736 67.6072C2.6283 69.8419 4.33689 72.2796 6.52845 74.471C9.61344 77.5561 13.6247 80.0003 16.59 80C17.6458 80 18.5694 79.69 19.2708 78.9886C19.2798 78.9796 19.2887 78.9704 19.2975 78.961L26.5351 71.2335C26.9783 70.7605 26.9539 70.0177 26.4808 69.5747C26.0078 69.1316 25.2651 69.156 24.822 69.6291L17.6005 77.3394C16.5822 78.3204 12.4283 77.0516 8.18813 72.8114C6.21267 70.836 4.68657 68.6732 3.89095 66.7215C3.2608 65.1754 3.17298 63.9052 3.66017 63.3993L19.4865 48.5762L18.7367 50.3996C18.5287 50.9049 18.6181 51.4787 18.9695 51.8971C19.2514 52.2327 19.6611 52.4193 20.0873 52.4193C20.1925 52.4193 20.2987 52.408 20.4042 52.3848L25.7123 51.2152L24.5428 56.5237C24.4253 57.0573 24.6123 57.6069 25.0306 57.9583C25.4492 58.3097 26.0229 58.3988 26.5278 58.191L29.8637 56.8191L32.3143 59.4658C32.5957 59.7697 32.9843 59.9352 33.3857 59.9352C33.5139 59.9352 33.6432 59.9183 33.7707 59.8837C33.8715 59.8563 33.9659 59.816 34.0562 59.7694L28.5556 65.6422C28.1125 66.1152 28.1368 66.858 28.61 67.301C28.8364 67.513 29.1245 67.618 29.412 67.618C29.7253 67.618 30.0378 67.4933 30.2689 67.2468L37.6598 59.3555C38.4131 58.5513 39.7996 57.124 41.6726 55.2248C44.3926 53.8612 48.1634 50.0835 49.6698 47.2087C52.6234 44.2784 54.9412 42.0151 56.0391 40.9896L74.616 23.6421C74.6207 23.6378 74.6246 23.6329 74.6293 23.6284C74.6344 23.6236 74.6399 23.6193 74.6449 23.6143C74.6543 23.605 74.6621 23.5945 74.6713 23.5851C74.6857 23.5696 74.7 23.5542 74.7135 23.5382C76.2277 21.9445 76.316 19.2368 74.9529 15.8925ZM34.9662 34.9613C36.7596 34.9613 38.5529 35.644 39.9181 37.0092C42.6485 39.7396 42.6485 44.1824 39.9181 46.9129C37.1878 49.6434 32.7448 49.6434 30.0143 46.9129C27.2839 44.1824 27.2839 39.7396 30.0143 37.0092C31.3795 35.644 33.1728 34.9613 34.9662 34.9613ZM30.2257 29.9198C30.7242 30.6132 31.5067 31.6637 32.5389 32.936C31.0051 33.3457 29.5554 34.1484 28.3545 35.3495C27.3303 36.3737 26.5939 37.5785 26.1451 38.8623C25.0326 37.4974 24.3683 36.5356 24.0089 35.971C26.9012 32.3528 29.009 30.7045 30.2257 29.9198ZM18.1409 42.1109C17.6073 42.2284 17.187 42.6287 17.0437 43.1559C16.9006 43.6831 17.0606 44.2413 17.4616 44.6127L18.8809 45.927L5.03329 58.8968L2.59736 55.8926C2.3508 55.5884 2.37705 55.1419 2.65517 54.8685L22.3184 37.6721C22.7942 38.3795 23.525 39.3818 24.6061 40.6863L18.1409 42.1109ZM26.2689 48.6888L21.5503 49.7284L22.5126 47.3879C22.7437 46.826 22.5994 46.171 22.1536 45.7584L20.2969 44.0393L25.6631 42.857C25.7817 44.0996 26.15 45.3221 26.7633 46.4452L26.2689 48.6888ZM32.8879 56.6302L31.1689 54.7735C30.7561 54.3276 30.1011 54.1833 29.539 54.4144L27.1987 55.3768L28.6384 48.8423C30.1876 50.2682 32.104 51.0765 34.0701 51.264L32.8879 56.6302ZM35.9468 57.751L34.7264 59.0541C34.7635 58.9685 34.7956 58.8801 34.8162 58.7866L36.2692 52.1921C37.4756 53.1757 38.4635 53.9194 39.1646 54.4269C37.6982 55.9194 36.5954 57.0585 35.9468 57.751ZM41.0559 52.8916C40.4801 52.4876 39.4856 51.7643 38.1975 50.7319C39.4314 50.2794 40.5892 49.5612 41.5778 48.5726C42.7993 47.3509 43.6095 45.8721 44.0123 44.3091C45.3406 45.3993 46.467 46.2756 47.1837 46.8226C45.7938 49.0151 43.0901 51.7021 41.0559 52.8916ZM54.4373 39.2743C53.3815 40.2602 51.326 42.2643 48.6082 44.9563C47.6988 44.2616 46.1045 43.0179 44.2999 41.4949C44.1893 39.2582 43.2821 37.054 41.5778 35.3495C39.9628 33.7345 37.8989 32.8364 35.7839 32.6523C38.5774 29.8339 40.715 27.6432 41.7246 26.5618L56.5809 10.6533C56.6993 11.1561 56.8671 11.6828 57.0913 12.2329C58.0023 14.4676 59.7109 16.9053 61.9024 19.0967C64.094 21.2882 66.5316 22.9968 68.7663 23.9078C69.3158 24.1318 69.8427 24.3009 70.3449 24.4192L54.4373 39.2743ZM72.9888 21.9503L72.9747 21.9634C72.4694 22.4515 71.1996 22.365 69.6524 21.7342C67.7005 20.9386 65.5377 19.4125 63.5622 17.437C61.5869 15.4615 60.0607 13.2987 59.2651 11.347C58.634 9.79904 58.5476 8.52857 59.0366 8.02373L59.049 8.01045C59.2654 7.79717 59.6249 7.6917 60.0894 7.6917C60.7013 7.6917 61.4943 7.87467 62.3774 8.23467C64.3291 9.03029 66.4919 10.5564 68.4674 12.5318C72.7168 16.7809 73.9814 20.9431 72.9888 21.9503Z" fill="#3AD189"/>
<path d="M38.7885 38.1386C37.7674 37.1177 36.4101 36.5554 34.9662 36.5554C33.5223 36.5554 32.1649 37.1175 31.144 38.1386C30.1231 39.1596 29.5607 40.5169 29.5607 41.9608C29.5607 43.4047 30.1229 44.7622 31.144 45.7831C32.1649 46.8041 33.5223 47.3664 34.9662 47.3664C36.4101 47.3664 37.7674 46.8042 38.7885 45.7831C40.896 43.6755 40.896 40.2463 38.7885 38.1386ZM37.1287 44.1236C36.551 44.7013 35.7829 45.0194 34.966 45.0194C34.1492 45.0194 33.3812 44.7013 32.8035 44.1236C32.2259 43.546 31.9078 42.7778 31.9078 41.961C31.9078 41.1441 32.2259 40.3761 32.8035 39.7985C33.3812 39.2208 34.1492 38.9027 34.966 38.9027C35.7829 38.9027 36.551 39.2208 37.1287 39.7985C38.3212 40.991 38.3212 42.9311 37.1287 44.1236Z" fill="#EAEAEA"/>
</svg>
