<svg width="72" height="80" viewBox="0 0 72 80" fill="none" xmlns="http://www.w3.org/2000/svg">
<path d="M20.3834 21.8005H13.6738C12.811 21.8005 12.1113 22.5001 12.1113 23.363C12.1113 24.2259 12.811 24.9255 13.6738 24.9255H20.3834C21.2462 24.9255 21.9459 24.2259 21.9459 23.363C21.9459 22.5001 21.2462 21.8005 20.3834 21.8005Z" fill="#EAEAEA"/>
<path d="M18.561 30.4684C18.5409 30.3679 18.5096 30.2695 18.4706 30.1759C18.4315 30.0806 18.3846 29.99 18.3284 29.9054C18.2707 29.8195 18.2049 29.74 18.1331 29.6681C18.0612 29.5962 17.9815 29.5306 17.8956 29.4743C17.8112 29.4181 17.7206 29.3697 17.6268 29.3306C17.5315 29.2915 17.4331 29.2618 17.3331 29.2415C16.8268 29.1384 16.2862 29.3056 15.9235 29.6683C15.8517 29.7401 15.786 29.8198 15.7298 29.9056C15.6737 29.99 15.6251 30.0806 15.586 30.1761C15.547 30.2698 15.5157 30.3681 15.4954 30.4683C15.4767 30.5683 15.4659 30.6714 15.4659 30.7728C15.4659 30.8759 15.4767 30.9776 15.4954 31.079C15.5157 31.1792 15.547 31.2761 15.586 31.3712C15.6251 31.4651 15.6737 31.5558 15.7298 31.6401C15.786 31.7261 15.8517 31.8058 15.9235 31.8776C16.2142 32.1698 16.6173 32.3355 17.0282 32.3355C17.1296 32.3355 17.2327 32.3261 17.3329 32.3059C17.4329 32.2856 17.5313 32.2559 17.6267 32.2169C17.7204 32.1778 17.811 32.1294 17.8954 32.0731C17.9813 32.0153 18.061 31.9512 18.1329 31.8778C18.2048 31.8059 18.2706 31.7262 18.3267 31.6403C18.3829 31.5559 18.4313 31.4653 18.4704 31.3714C18.5095 31.2762 18.5407 31.1792 18.561 31.0792C18.5813 30.9778 18.5909 30.8761 18.5909 30.7729C18.5909 30.6714 18.5813 30.5683 18.561 30.4684Z" fill="#EAEAEA"/>
<path d="M69.7684 48.573H56.8982C56.0354 48.573 55.3357 49.2727 55.3357 50.1355V51.7758H50.9193L45.0827 47.8643C42.1055 45.8374 39.58 43.1172 37.7791 39.998L34.2774 33.9328C33.3534 32.3326 31.8617 31.1881 30.077 30.7098C28.3072 30.2354 26.4597 30.4728 24.8684 31.3776C24.6406 31.4934 24.4215 31.6204 24.2117 31.7576C24.2114 30.7597 24.2112 30.0656 24.2111 29.5825C29.9016 27.1614 33.3878 21.484 33.3877 14.4911C33.3878 8.63706 30.2272 3.19282 25.1398 0.282968C24.5072 -0.0792214 23.6908 -0.0770338 23.0601 0.289061C22.4228 0.658594 22.0423 1.34782 22.0423 2.12672C22.042 2.20719 22.0114 10.1997 22.0115 12.8519C22.0115 12.9674 21.8182 13.2079 21.6548 13.3311C21.6043 13.3635 21.5906 13.3765 21.5404 13.4182C19.929 14.7585 17.8629 16.2944 17.0226 16.7129C16.1707 16.2954 14.0707 14.7321 12.4363 13.3661C12.3741 13.3141 12.3849 13.3152 12.3313 13.2835C12.2524 13.2133 12.043 12.9899 12.043 12.5943C12.043 9.83379 12.0146 2.20688 12.0143 2.13594C12.0143 1.31782 11.6485 0.636875 11.0107 0.267655C10.3759 -0.0998464 9.56398 -0.0881276 8.89179 0.297499C3.81989 3.21048 0.669254 8.64894 0.669098 14.4911C0.669254 21.4838 4.15552 27.1614 9.8457 29.5825C9.84492 31.1022 9.84429 34.7084 9.8432 43.2964H8.10428C4.96599 43.2964 2.3441 45.8081 2.25942 48.8957C2.21645 50.4654 2.79504 51.9488 3.88864 53.0727C3.94958 53.1352 4.01145 53.1963 4.07458 53.2557C2.95661 54.3071 2.25723 55.799 2.25723 57.4513C2.25723 59.1045 2.95739 60.5973 4.07677 61.6487C2.95754 62.7001 2.25723 64.1929 2.25723 65.846C2.25723 67.4982 2.95661 68.9901 4.07458 70.0414C4.01145 70.1009 3.94942 70.1618 3.88864 70.2243C2.79504 71.3484 2.21645 72.832 2.25942 74.4015C2.3441 77.4889 4.96615 80.0005 8.10428 80.0005H35.5922C37.5519 80.0005 46.3049 76.4431 50.524 74.6794H55.3357V76.2347C55.3357 77.0975 56.0354 77.7972 56.8982 77.7972H69.7684C70.6313 77.7972 71.3309 77.0975 71.3309 76.2347V50.1355C71.3309 49.2725 70.6313 48.573 69.7684 48.573ZM3.79458 14.4913C3.79474 10.3933 5.71162 6.54049 8.89663 4.05189C8.90507 6.51409 8.91851 10.7022 8.91851 12.5943C8.91851 14.4697 10.0998 15.5135 10.4666 15.7924C15.3892 19.9035 16.5798 19.9035 17.0287 19.9035C17.466 19.9035 18.6257 19.9035 23.497 15.8557C23.8637 15.5852 25.1364 14.5252 25.1364 12.8519C25.1362 11.0154 25.1511 6.60627 25.1601 4.05142C28.3459 6.54002 30.2627 10.3916 30.2625 14.4913C30.2627 20.5268 27.1526 25.3306 22.1462 27.0278C21.5068 27.2446 21.0803 27.8468 21.0854 28.5195C21.0864 28.7537 21.0878 37.5445 21.0886 43.2964H18.591V36.525C18.591 35.662 17.8914 34.9625 17.0285 34.9625C16.1657 34.9625 15.466 35.662 15.466 36.525V43.2964H12.9687C12.9695 37.558 12.9709 28.7948 12.9718 28.5214C12.9777 27.8479 12.5509 27.2448 11.9109 27.0278C6.90459 25.3306 3.79458 20.5268 3.79458 14.4913ZM48.8834 71.9772C43.0625 74.3972 36.7291 76.8039 35.5817 76.8755H8.10428C6.64256 76.8755 5.42177 75.727 5.38302 74.3158C5.36334 73.5965 5.62787 72.9175 6.12834 72.4034C6.62522 71.8928 7.28991 71.6098 8.00147 71.6058C8.00694 71.6058 8.01225 71.6059 8.01772 71.6059H15.1663C16.0292 71.6059 16.7288 70.9062 16.7288 70.0434C16.7288 69.1804 16.0292 68.4809 15.1663 68.4809H8.04085C8.03288 68.4807 8.02491 68.4806 8.01694 68.4806C6.56396 68.4806 5.38209 67.2987 5.38209 65.8457C5.38209 64.3928 6.56396 63.2109 8.01694 63.2109H15.1156C15.9784 63.2109 16.6781 62.5112 16.6781 61.6484C16.6781 60.7856 15.9784 60.0859 15.1156 60.0859H8.0171C6.56412 60.0859 5.38224 58.904 5.38224 57.451C5.38224 55.998 6.56412 54.816 8.0171 54.816C8.02506 54.816 8.03303 54.8158 8.041 54.8157H15.1157C15.9785 54.8157 16.6782 54.116 16.6782 53.2532C16.6782 52.3904 15.9785 51.6907 15.1157 51.6907H7.97835C7.27553 51.6807 6.61975 51.3983 6.12818 50.8932C5.62802 50.3791 5.36334 49.6999 5.38302 48.981C5.42177 47.5696 6.64256 46.4211 8.10428 46.4211H26.4147C26.9728 46.4211 27.4887 46.1233 27.7678 45.6399C28.0469 45.1564 28.0469 44.5608 27.7678 44.0774L24.8462 39.017C24.3503 38.1581 24.229 37.1795 24.5047 36.2619C24.7803 35.3442 25.4206 34.5945 26.3076 34.1509C26.3356 34.1369 26.3631 34.122 26.3901 34.1065C27.2676 33.6001 28.2901 33.4654 29.2678 33.7276C30.2464 33.9898 31.0642 34.6173 31.5706 35.4947L35.0724 41.56C37.1082 45.0858 39.9632 48.16 43.3285 50.4502C43.3316 50.4522 43.3346 50.4543 43.3377 50.4563L48.8834 54.1727V71.9772ZM55.3356 71.5543H52.0084V54.9008H55.3356V71.5543ZM68.2061 74.6722H68.2059H58.4607V51.698H61.7709V64.3928C61.7709 65.2556 62.4706 65.9553 63.3334 65.9553C64.1962 65.9553 64.8959 65.2556 64.8959 64.3928V51.698H68.2062V74.6722H68.2061Z" fill="#3AD189"/>
<path d="M64.8654 70.1066C64.8451 70.0068 64.8154 69.9083 64.7763 69.8144C64.7373 69.7193 64.6887 69.6286 64.6326 69.5443C64.5748 69.4583 64.5107 69.3785 64.4373 69.3066C64.3654 69.2347 64.2857 69.1691 64.1996 69.1129C64.1152 69.0568 64.0246 69.0082 63.9309 68.9691C63.8356 68.93 63.7371 68.9005 63.6387 68.8802C63.4371 68.8394 63.2293 68.8394 63.0277 68.8802C62.9277 68.9005 62.8293 68.93 62.7356 68.9691C62.6404 69.0082 62.5498 69.0568 62.4654 69.1129C62.3795 69.1691 62.2996 69.2347 62.2277 69.3066C62.1559 69.3785 62.0902 69.4583 62.0341 69.5443C61.9779 69.6286 61.9295 69.7193 61.8904 69.8144C61.8513 69.9083 61.8216 70.0066 61.8013 70.1066C61.781 70.2066 61.7701 70.3097 61.7701 70.4113C61.7701 70.5128 61.781 70.616 61.8013 70.7175C61.8216 70.816 61.8513 70.9144 61.8904 71.0097C61.9295 71.1035 61.9779 71.1941 62.0341 71.2785C62.0902 71.3644 62.1559 71.4441 62.2277 71.516C62.2996 71.5878 62.3795 71.6535 62.4654 71.7096C62.5498 71.7674 62.6404 71.816 62.7356 71.855C62.8295 71.8941 62.9277 71.9236 63.0277 71.9439C63.1279 71.9642 63.231 71.9736 63.3324 71.9736C63.434 71.9736 63.5373 71.9641 63.6387 71.9439C63.7371 71.9236 63.8356 71.8941 63.9309 71.855C64.0246 71.816 64.1152 71.7674 64.1996 71.7096C64.2857 71.6535 64.3652 71.5878 64.4373 71.516C64.5107 71.4441 64.5748 71.3642 64.6326 71.2785C64.6887 71.1941 64.7373 71.1035 64.7763 71.0097C64.8154 70.9144 64.8449 70.816 64.8654 70.7175C64.8857 70.616 64.8949 70.5128 64.8949 70.4113C64.8949 70.3097 64.8856 70.2064 64.8654 70.1066Z" fill="#EAEAEA"/>
<path d="M25.3753 51.3974C25.3565 51.2974 25.3253 51.1991 25.2862 51.1037C25.2472 51.0099 25.1987 50.9193 25.1425 50.8349C25.0862 50.749 25.0206 50.6693 24.9487 50.5973C24.8768 50.5254 24.7972 50.4598 24.7112 50.4037C24.6268 50.3474 24.5362 50.299 24.4409 50.2599C24.3471 50.2208 24.2489 50.1896 24.1487 50.1708C23.9471 50.1302 23.7411 50.1302 23.5395 50.1708C23.4393 50.1896 23.341 50.2208 23.2457 50.2599C23.1518 50.299 23.0612 50.3473 22.9768 50.4037C22.8909 50.4598 22.8112 50.5254 22.7393 50.5973C22.6675 50.6693 22.6018 50.749 22.544 50.8349C22.4878 50.9193 22.4393 51.0099 22.4018 51.1037C22.3628 51.199 22.3315 51.2974 22.3128 51.3974C22.2924 51.4976 22.2817 51.6007 22.2817 51.7021C22.2817 51.8037 22.2924 51.9069 22.3128 52.0068C22.3315 52.1068 22.3628 52.2052 22.4018 52.299C22.4409 52.3941 22.4878 52.4848 22.5456 52.5691C22.6018 52.6552 22.6675 52.7348 22.7393 52.8068C22.8112 52.8787 22.8909 52.9443 22.9768 53.0005C23.0612 53.0566 23.1518 53.1052 23.2457 53.1443C23.3409 53.1834 23.4393 53.2145 23.5395 53.2332C23.6395 53.2535 23.7426 53.2645 23.8442 53.2645C23.9456 53.2645 24.0489 53.2535 24.1487 53.2332C24.2489 53.2145 24.3473 53.1834 24.4409 53.1443C24.5362 53.1052 24.627 53.0566 24.7112 53.0005C24.7972 52.9443 24.8768 52.8787 24.9487 52.8068C25.0206 52.7349 25.0862 52.6552 25.1425 52.5691C25.1987 52.4848 25.2472 52.3941 25.2862 52.299C25.3253 52.2051 25.3565 52.1068 25.3753 52.0068C25.3956 51.9068 25.4065 51.8037 25.4065 51.7021C25.4065 51.6007 25.3956 51.4974 25.3753 51.3974Z" fill="#EAEAEA"/>
<path d="M23.844 56.1725C22.9812 56.1725 22.2815 56.8722 22.2815 57.7351V72.7864C22.2815 73.6492 22.9812 74.3489 23.844 74.3489C24.707 74.3489 25.4065 73.6492 25.4065 72.7864V57.7351C25.4065 56.8721 24.7068 56.1725 23.844 56.1725Z" fill="#EAEAEA"/>
</svg>
