<svg width="80" height="80" viewBox="0 0 80 80" fill="none" xmlns="http://www.w3.org/2000/svg">
<path d="M60 0C48.9542 0 40 8.95417 40 20C40 31.0458 48.9542 40 60 40C71.0458 40 80 31.0458 80 20C79.9875 8.95917 71.0408 0.0125001 60 0ZM42.7342 21.3333H49.5563C49.6375 24.0258 49.9742 26.7042 50.5617 29.3333H45.4171C43.8729 26.9313 42.9504 24.1817 42.7342 21.3333ZM61.3333 8V2.73417C62.3413 2.8125 63.3408 2.97917 64.3183 3.23333C65.0288 4.78167 65.6396 6.37417 66.1462 8H61.3333ZM66.8854 10.6667C67.5163 13.2896 67.8796 15.97 67.9692 18.6667H61.3333V10.6667H66.8854ZM58.6667 8H54.0467C54.5546 6.37083 55.1663 4.77667 55.8775 3.225L55.8183 3.2C56.7533 2.96583 57.7058 2.81 58.6667 2.73417V8ZM58.6667 10.6667V18.6667H52.2242C52.3133 15.97 52.6771 13.2896 53.3079 10.6667H58.6667ZM49.5563 18.6667H42.7342C42.9504 15.8183 43.8729 13.0688 45.4171 10.6667H50.5617C49.9742 13.2958 49.6375 15.9742 49.5563 18.6667ZM52.2229 21.3333H58.6667V29.3333H53.3079C52.6771 26.7104 52.3133 24.03 52.2242 21.3333H52.2229ZM58.6667 32V37.2658C57.7063 37.1908 56.7533 37.0358 55.8183 36.8025L55.8775 36.775C55.1663 35.2233 54.5546 33.6292 54.0467 32H58.6667ZM61.3333 32H66.1462C65.6396 33.6258 65.0288 35.2183 64.3183 36.7667C63.3408 37.0208 62.3413 37.1875 61.3333 37.2658V32ZM61.3333 29.3333V21.3333H67.9692C67.8796 24.03 67.5163 26.7104 66.8854 29.3333H61.3333ZM70.6375 21.3333H77.2658C77.0496 24.1817 76.1271 26.9313 74.5829 29.3333H69.6325C70.2192 26.7042 70.5563 24.0258 70.6375 21.3333ZM70.6375 18.6667C70.5563 15.9742 70.2192 13.2958 69.6325 10.6667H74.5829C76.1271 13.0688 77.0496 15.8183 77.2658 18.6667H70.6375ZM72.4788 8H68.9333C68.5892 6.82917 68.2 5.66667 67.7546 4.52125C69.515 5.405 71.1121 6.58125 72.4788 8ZM52.4788 4.40833C52.015 5.59083 51.6133 6.79083 51.2583 8H47.5254C48.9508 6.52 50.6283 5.30333 52.4788 4.40833ZM47.5213 32H51.2546C51.6092 33.2092 52.0104 34.4092 52.4746 35.5917C50.6246 34.6967 48.9475 33.48 47.5213 32ZM67.7558 35.4788C68.2008 34.3333 68.5908 33.1708 68.935 32H72.4788C71.1125 33.4188 69.5158 34.595 67.7558 35.4788Z" fill="#3AD189"/>
<path d="M5.33333 70.6667H14.2317L12.3271 77.3333H9.33333V80H30.6667V77.3333H27.6729L25.7683 70.6667H34.6667C37.6121 70.6667 40 68.2788 40 65.3333V45.3333C40 42.3879 37.6121 40 34.6667 40H5.33333C2.38792 40 0 42.3879 0 45.3333V65.3333C0 68.2788 2.38792 70.6667 5.33333 70.6667ZM24.8983 77.3333H15.1017L17.005 70.6667H22.995L24.8983 77.3333ZM34.6667 68H5.33333C3.86042 68 2.66667 66.8063 2.66667 65.3333V62.6667H37.3333V65.3333C37.3333 66.8063 36.1396 68 34.6667 68ZM5.33333 42.6667H34.6667C36.1396 42.6667 37.3333 43.8604 37.3333 45.3333V60H2.66667V45.3333C2.66667 43.8604 3.86042 42.6667 5.33333 42.6667Z" fill="#EAEAEA"/>
<path d="M34.6667 10.6667H37.3334V13.3334H34.6667V10.6667Z" fill="#EAEAEA"/>
<path d="M29.3333 10.6667H32V13.3334H29.3333V10.6667Z" fill="#EAEAEA"/>
<path d="M24 10.6667H26.6667V13.3334H24V10.6667Z" fill="#EAEAEA"/>
<path d="M18.6667 10.6667H21.3333V13.3334H18.6667V10.6667Z" fill="#EAEAEA"/>
<path d="M18.6667 29.3333H21.3333V32H18.6667V29.3333Z" fill="#EAEAEA"/>
<path d="M18.6667 34.6667H21.3333V37.3334H18.6667V34.6667Z" fill="#EAEAEA"/>
<path d="M42.6667 58.6667H45.3334V61.3334H42.6667V58.6667Z" fill="#EAEAEA"/>
<path d="M25.3334 21.3333C25.3334 18.3879 22.9454 16 20 16C17.0546 16 14.6667 18.3879 14.6667 21.3333C14.6667 24.2787 17.0546 26.6667 20 26.6667C22.9454 26.6667 25.3334 24.2787 25.3334 21.3333ZM20 24C18.5271 24 17.3334 22.8062 17.3334 21.3333C17.3334 19.8604 18.5271 18.6667 20 18.6667C21.4729 18.6667 22.6667 19.8604 22.6667 21.3333C22.6667 22.8062 21.4729 24 20 24Z" fill="#3AD189"/>
<path d="M64 60C64 57.0546 61.6121 54.6667 58.6666 54.6667C55.7212 54.6667 53.3333 57.0546 53.3333 60C53.3333 62.9454 55.7212 65.3334 58.6666 65.3334C61.6121 65.3334 64 62.9454 64 60ZM56 60C56 58.5271 57.1937 57.3334 58.6666 57.3334C60.1396 57.3334 61.3333 58.5271 61.3333 60C61.3333 61.4729 60.1396 62.6667 58.6666 62.6667C57.1937 62.6667 56 61.4729 56 60Z" fill="#3AD189"/>
<path d="M48 58.6667H50.6667V61.3334H48V58.6667Z" fill="#EAEAEA"/>
<path d="M66.6667 58.6667H69.3334V61.3334H66.6667V58.6667Z" fill="#EAEAEA"/>
<path d="M66.6667 53.3333H69.3334V56H66.6667V53.3333Z" fill="#EAEAEA"/>
<path d="M66.6667 48H69.3334V50.6667H66.6667V48Z" fill="#EAEAEA"/>
<path d="M66.6667 42.6667H69.3334V45.3334H66.6667V42.6667Z" fill="#EAEAEA"/>
</svg>
