<svg width="80" height="80" viewBox="0 0 80 80" fill="none" xmlns="http://www.w3.org/2000/svg">
<path d="M12.0001 0C7.5895 0 4.00013 3.58796 4.00013 7.99998C4.00013 12.412 7.5895 16 12.0001 16C16.4107 16 20.0001 12.412 20.0001 7.99998C20.0001 3.58796 16.4107 0 12.0001 0ZM12.0001 13.3333C9.05872 13.3333 6.66685 10.9412 6.66685 7.99998C6.66685 5.05874 9.05872 2.66671 12.0001 2.66671C14.9415 2.66671 17.3334 5.05874 17.3334 7.99998C17.3334 10.9412 14.9415 13.3333 12.0001 13.3333Z" fill="#3AD189"/>
<path d="M17.336 10.6667H17.3028C16.8854 10.6667 16.4907 10.8627 16.2387 11.1961C15.2134 12.5547 13.6681 13.3333 12.0001 13.3333C10.3322 13.3333 8.78685 12.5547 7.76154 11.1959C7.50951 10.8627 7.08154 10.6666 6.6642 10.6666C2.98952 10.6667 0.000148773 13.6559 0.000148773 17.3306V22.6665C0.000148773 23.4025 0.597491 23.9998 1.33343 23.9998H22.6667C23.4026 23.9998 23.9999 23.4025 23.9999 22.6665V17.3306C24.0001 13.6559 21.0107 10.6667 17.336 10.6667ZM21.3334 21.3333H2.66686V17.3306C2.66686 15.3239 4.15217 13.6586 6.10685 13.3759C7.62419 15.052 9.73482 16 12.0001 16C14.2668 16 16.3787 15.0506 17.896 13.372C19.836 13.6453 21.3334 15.3173 21.3334 17.3306V21.3333Z" fill="#3AD189"/>
<path d="M68 0C63.5894 0 60 3.58796 60 7.99998C60 12.412 63.5894 16 68 16C72.4106 16 76 12.412 76 7.99998C76 3.58796 72.4106 0 68 0ZM68 13.3333C65.0586 13.3333 62.6667 10.9412 62.6667 7.99998C62.6667 5.05874 65.0588 2.66671 68 2.66671C70.9414 2.66671 73.3333 5.05874 73.3333 7.99998C73.3333 10.9412 70.9414 13.3333 68 13.3333Z" fill="#EAEAEA"/>
<path d="M73.3359 10.6667H73.3027C72.8853 10.6667 72.4906 10.8627 72.2386 11.1961C71.2133 12.5547 69.668 13.3335 67.9999 13.3335C66.3319 13.3335 64.7866 12.5549 63.7613 11.1961C63.5092 10.8628 63.0813 10.6667 62.6639 10.6667C58.9892 10.6667 55.9999 13.6561 55.9999 17.3308V22.6667C55.9999 23.4027 56.5972 24 57.3332 24H78.6664C79.4023 24 79.9997 23.4027 79.9997 22.6667V17.3308C80 13.656 77.0106 10.6667 73.3359 10.6667ZM77.3333 21.3333H58.6667V17.3306C58.6667 15.3239 60.1521 13.6586 62.1067 13.376C63.6241 15.0519 65.7347 16 68 16C70.2667 16 72.3786 15.0506 73.8959 13.3721C75.8359 13.6453 77.3333 15.3174 77.3333 17.3306V21.3333Z" fill="#EAEAEA"/>
<path d="M12.0001 55.9998C7.5895 55.9998 4.00013 59.5878 4.00013 63.9998C4.00013 68.4118 7.5895 71.9998 12.0001 71.9998C16.4107 71.9998 20.0001 68.4118 20.0001 63.9998C20.0001 59.5878 16.4107 55.9998 12.0001 55.9998ZM12.0001 69.3331C9.05872 69.3331 6.66685 66.941 6.66685 63.9998C6.66685 61.0584 9.05888 58.6665 12.0001 58.6665C14.9414 58.6665 17.3334 61.0586 17.3334 63.9998C17.3334 66.9412 14.9415 69.3331 12.0001 69.3331Z" fill="#EAEAEA"/>
<path d="M17.3361 66.6666H17.3028C16.8854 66.6666 16.4907 66.8626 16.2387 67.196C15.2134 68.5546 13.6681 69.3333 12 69.3333C10.332 69.3333 8.7867 68.5547 7.76139 67.196C7.50936 66.8627 7.08139 66.6666 6.66405 66.6666C2.98937 66.6666 0 69.656 0 73.3307V78.6666C0.00015625 79.4025 0.597499 79.9999 1.33343 79.9999H22.6667C23.4026 79.9999 24 79.4025 24 78.6666V73.3307C24.0001 69.6558 21.0107 66.6666 17.3361 66.6666ZM21.3334 77.3332H2.66687V73.3305C2.66687 71.3238 4.15218 69.6585 6.10686 69.3758C7.6242 71.0519 9.73482 71.9999 12.0001 71.9999C14.2668 71.9999 16.3787 71.0505 17.8961 69.3719C19.8361 69.6452 21.3334 71.3172 21.3334 73.3305V77.3332Z" fill="#EAEAEA"/>
<path d="M68 55.9998C63.5894 55.9998 60 59.5878 60 63.9998C60 68.4118 63.5894 71.9998 68 71.9998C72.4106 71.9998 76 68.4118 76 63.9998C76 59.5878 72.4106 55.9998 68 55.9998ZM68 69.3331C65.0586 69.3331 62.6667 66.941 62.6667 63.9998C62.6667 61.0584 65.0588 58.6665 68 58.6665C70.9414 58.6665 73.3333 61.0586 73.3333 63.9998C73.3333 66.9412 70.9414 69.3331 68 69.3331Z" fill="#3AD189"/>
<path d="M73.3359 66.6666H73.3027C72.8853 66.6666 72.4906 66.8626 72.2386 67.196C71.2133 68.5546 69.668 69.3333 67.9999 69.3333C66.3319 69.3333 64.7866 68.5547 63.7613 67.196C63.5092 66.8627 63.0813 66.6666 62.6639 66.6666C58.9892 66.6666 55.9999 69.656 55.9999 73.3307V78.6666C55.9999 79.4025 56.5972 79.9999 57.3332 79.9999H78.6664C79.4023 79.9999 79.9997 79.4025 79.9997 78.6666V73.3307C80 69.6558 77.0106 66.6666 73.3359 66.6666ZM77.3333 77.3332H58.6667V73.3305C58.6667 71.3238 60.1521 69.6585 62.1067 69.3758C63.6241 71.0518 65.7347 71.9999 68 71.9999C70.2667 71.9999 72.3786 71.0505 73.8959 69.3719C75.8359 69.6452 77.3333 71.3172 77.3333 73.3305V77.3332Z" fill="#3AD189"/>
<path d="M62.0947 6.65861C60.9467 5.89721 59.7494 5.18799 58.5361 4.5519C57.8841 4.21049 57.0788 4.46127 56.7361 5.1133C56.3947 5.76533 56.6467 6.57189 57.2988 6.9133C58.4321 7.50799 59.5494 8.16923 60.6202 8.88001C60.8469 9.03064 61.1028 9.10267 61.3561 9.10267C61.7867 9.10267 62.2108 8.8933 62.4681 8.50673C62.8747 7.8933 62.708 7.06533 62.0947 6.65861Z" fill="#EAEAEA"/>
<path d="M51.408 1.65325C48.9533 0.923877 46.4121 0.42919 43.8547 0.183878C43.1241 0.118566 42.4694 0.651846 42.4001 1.38388C42.3294 2.11591 42.8668 2.76794 43.6001 2.83856C45.9868 3.06793 48.3586 3.52918 50.648 4.20918C50.7747 4.24653 50.9027 4.26512 51.028 4.26512C51.6013 4.26512 52.1321 3.88918 52.3066 3.31184C52.516 2.60528 52.1133 1.86262 51.408 1.65325Z" fill="#EAEAEA"/>
<path d="M36.1615 0.182689C33.6041 0.426751 31.0629 0.920031 28.6068 1.6494C27.9015 1.85878 27.4988 2.60143 27.7082 3.30674C27.8802 3.88674 28.4109 4.26143 28.9855 4.26143C29.1109 4.26143 29.2388 4.24284 29.3669 4.20549C31.6576 3.52549 34.0283 3.06409 36.4149 2.83753C37.1469 2.76815 37.6843 2.11753 37.6149 1.38425C37.5455 0.650969 36.8947 0.11472 36.1615 0.182689Z" fill="#EAEAEA"/>
<path d="M23.2642 5.11323C22.9227 4.4612 22.1162 4.21058 21.4642 4.55183C20.2509 5.18777 19.0535 5.89714 17.9054 6.65854C17.2921 7.06526 17.1242 7.89323 17.5321 8.50651C17.7881 8.89323 18.2121 9.10245 18.6442 9.10245C18.8974 9.10245 19.1535 9.03041 19.3801 8.87979C20.4507 8.16776 21.5695 7.50651 22.7015 6.91307C23.3548 6.57198 23.6054 5.76526 23.2642 5.11323Z" fill="#3AD189"/>
<path d="M75.62 55.1146C74.9533 54.8013 74.16 55.0919 73.848 55.7587C73.3066 56.9187 72.6973 58.0654 72.0373 59.1666C71.66 59.7987 71.8641 60.6173 72.4959 60.996C72.7106 61.1254 72.9466 61.1866 73.18 61.1866C73.6333 61.1866 74.0759 60.9546 74.3226 60.5387C75.0306 59.3587 75.684 58.1307 76.264 56.8866C76.5759 56.2199 76.2867 55.4266 75.62 55.1146Z" fill="#3AD189"/>
<path d="M79.8187 36.1852C79.7494 35.452 79.1014 34.9212 78.3655 34.9838C77.6322 35.0532 77.0948 35.7038 77.164 36.4371C77.2773 37.6145 77.3334 38.8131 77.3334 39.9998C77.3334 42.1198 77.1534 44.2465 76.8001 46.3212C76.6775 47.0465 77.1655 47.7358 77.8908 47.8598C77.9655 47.873 78.0414 47.8783 78.1161 47.8783C78.7534 47.8783 79.3175 47.4198 79.4281 46.7704C79.808 44.5479 80 42.2705 80 39.9999C80 38.7293 79.9386 37.4452 79.8187 36.1852Z" fill="#EAEAEA"/>
<path d="M77.4186 25.8547C76.9333 24.5733 76.3733 23.2988 75.7545 22.068C75.4225 21.4106 74.6212 21.1439 73.9639 21.476C73.3053 21.8066 73.0398 22.608 73.3706 23.2666C73.948 24.4145 74.4706 25.6039 74.9239 26.7999C75.1253 27.3319 75.6319 27.6613 76.1706 27.6613C76.328 27.6613 76.4866 27.6333 76.6439 27.5745C77.3333 27.3133 77.68 26.5441 77.4186 25.8547Z" fill="#EAEAEA"/>
<path d="M6.03746 21.476C5.37887 21.1439 4.57747 21.4106 4.24684 22.068C3.62825 23.2986 3.06825 24.5733 2.58279 25.8547C2.32138 26.5441 2.6681 27.3134 3.35747 27.5747C3.51341 27.6333 3.67216 27.6614 3.8295 27.6614C4.36809 27.6614 4.87481 27.332 5.07747 26.8C5.53075 25.6041 6.0534 24.4147 6.63074 23.2667C6.96152 22.608 6.69481 21.8067 6.03746 21.476Z" fill="#3AD189"/>
<path d="M3.19871 46.312C2.84543 44.2414 2.66668 42.1174 2.66668 40C2.66668 38.808 2.72402 37.6068 2.83465 36.4307C2.90527 35.6974 2.36793 35.0466 1.63465 34.976C0.907933 34.9133 0.25059 35.4427 0.181372 36.176C0.0615282 37.4374 0.00012207 38.7227 0.00012207 40C0.00012207 42.268 0.192153 44.5414 0.569496 46.76C0.681527 47.4106 1.24418 47.8694 1.88277 47.8694C1.95746 47.8694 2.0334 47.8641 2.10809 47.8506C2.8348 47.7267 3.32277 47.0373 3.19871 46.312Z" fill="#EAEAEA"/>
<path d="M7.96012 59.1666C7.30012 58.0652 6.69075 56.9187 6.1495 55.7587C5.83747 55.0919 5.04419 54.8013 4.37747 55.1146C3.71075 55.4266 3.42278 56.2199 3.73341 56.8866C4.31481 58.1307 4.96669 59.3587 5.67481 60.5387C5.92544 60.956 6.36684 61.1866 6.82012 61.1866C7.0534 61.1866 7.2895 61.1252 7.50153 60.996C8.1334 60.6173 8.33871 59.7985 7.96012 59.1666Z" fill="#EAEAEA"/>
<path d="M43.996 26.6667H20.0028C18.5307 26.6667 17.3334 27.864 17.3334 29.3361V45.3307C17.3334 46.8028 18.5307 48.0001 20.0028 48.0001H21.3334V54.6668C21.3334 55.2054 21.6587 55.6921 22.1575 55.8988C22.3215 55.9668 22.4948 56.0002 22.6668 56.0002C23.0135 56.0002 23.3548 55.8643 23.6095 55.6096L31.2188 48.0002H33.3335C34.0695 48.0002 34.6668 47.4029 34.6668 46.667V37.3359L45.3335 37.3332C46.0694 37.3332 46.6668 36.7359 46.6668 36V29.3359C46.6668 27.864 45.4694 26.6667 43.996 26.6667ZM44.0001 34.6667H34.6695C33.1974 34.6667 32.0001 35.864 32.0001 37.336V45.3334H30.6668C30.3135 45.3334 29.9735 45.4734 29.7242 45.724L24.0001 51.4479V46.6665C24.0001 45.9306 23.4028 45.3332 22.6668 45.3332L20.0001 45.3306L20.0028 29.3332L44.0001 29.3359V34.6667Z" fill="#EAEAEA"/>
<path d="M58.6627 34.6667H34.6695C33.1974 34.6667 32.0001 35.864 32.0001 37.3361V53.3307C32.0001 54.8027 33.1974 56.0001 34.6707 56.0001H47.448L55.0574 63.6094C55.3121 63.8641 55.6533 64.0001 56.0001 64.0001C56.1721 64.0001 56.3454 63.9668 56.5107 63.8987C57.008 63.6919 57.3333 63.2054 57.3333 62.6666V55.9999H58.664C60.136 55.9999 61.3333 54.8026 61.3333 53.3293V37.3359C61.3333 35.864 60.136 34.6667 58.6627 34.6667ZM58.6641 53.3332H56.0001C55.2641 53.3332 54.6668 53.9306 54.6668 54.6665V59.4479L48.9427 53.7238C48.6934 53.4732 48.3534 53.3332 48.0001 53.3332L34.6668 53.3291V37.3359L34.6695 37.3332L58.6668 37.3359L58.6641 53.3332Z" fill="#3AD189"/>
<path d="M46.6668 41.3333H38.6668C37.9308 41.3333 37.3335 41.9306 37.3335 42.6665C37.3335 43.4025 37.9308 43.9998 38.6668 43.9998H46.6668C47.4027 43.9998 48 43.4025 48 42.6665C48 41.9306 47.4027 41.3333 46.6668 41.3333Z" fill="#3AD189"/>
<path d="M54.6668 41.3333H52C51.2641 41.3333 50.6668 41.9306 50.6668 42.6665C50.6668 43.4025 51.2641 43.9998 52 43.9998H54.6668C55.4027 43.9998 56 43.4025 56 42.6665C56 41.9306 55.4027 41.3333 54.6668 41.3333Z" fill="#3AD189"/>
<path d="M54.6668 46.6666H46.6668C45.9308 46.6666 45.3335 47.264 45.3335 47.9999C45.3335 48.7358 45.9308 49.3332 46.6668 49.3332H54.6668C55.4027 49.3332 56 48.7358 56 47.9999C56 47.264 55.4027 46.6666 54.6668 46.6666Z" fill="#3AD189"/>
<path d="M41.3333 46.6666H38.6666C37.9307 46.6666 37.3333 47.264 37.3333 47.9999C37.3333 48.7358 37.9307 49.3332 38.6666 49.3332H41.3333C42.0693 49.3332 42.6666 48.7358 42.6666 47.9999C42.6666 47.264 42.0694 46.6666 41.3333 46.6666Z" fill="#3AD189"/>
<path d="M26.7987 74.9239C25.604 74.4706 24.416 73.9492 23.2654 73.3706C22.6081 73.0412 21.8054 73.3053 21.4748 73.9626C21.1442 74.6212 21.4095 75.4226 22.0681 75.7532C23.3001 76.3732 24.5748 76.9332 25.8548 77.4173C26.0107 77.4759 26.1695 77.504 26.3268 77.504C26.8655 77.504 27.3721 77.1746 27.5735 76.6426C27.8348 75.9531 27.488 75.1839 26.7987 74.9239Z" fill="#EAEAEA"/>
<path d="M45.9574 78.2331C45.8694 77.5024 45.2094 76.9798 44.4747 77.0678C41.5227 77.421 38.468 77.421 35.5041 77.0651C34.7708 76.9771 34.1094 77.4984 34.0215 78.2292C33.9347 78.9598 34.4562 79.6238 35.1868 79.7118C36.776 79.9024 38.3947 79.9998 40 79.9998C41.6014 79.9998 43.2147 79.9038 44.7921 79.7157C45.5241 79.6277 46.0453 78.9638 45.9574 78.2331Z" fill="white"/>
<path d="M58.5241 73.9626C58.192 73.3052 57.3908 73.0385 56.7335 73.3705C55.5841 73.9491 54.3949 74.472 53.2002 74.9238C52.5122 75.1838 52.1643 75.9532 52.4255 76.6424C52.6282 77.1745 53.1349 77.5038 53.6735 77.5038C53.8308 77.5038 53.9894 77.4759 54.1441 77.4171C55.4241 76.9318 56.6988 76.3718 57.9308 75.7531C58.5894 75.4226 58.8547 74.6213 58.5241 73.9626Z" fill="#3AD189"/>
</svg>
