<svg width="85" height="80" viewBox="0 0 85 80" fill="none" xmlns="http://www.w3.org/2000/svg">
<path d="M66.6283 9.99132C66.3645 8.08312 65.2509 6.44976 63.5734 5.5098C57.1392 1.90523 49.7949 0 42.3349 0C34.8749 0 27.5308 1.90539 21.0966 5.51013C19.419 6.45009 18.3055 8.08345 18.0416 9.99166C17.7768 11.907 18.4087 13.7894 19.7753 15.156C20.9504 16.3309 22.5241 16.946 24.1088 16.946C25.1166 16.946 26.129 16.6971 27.0458 16.1854C29.386 14.8795 31.889 13.8835 34.502 13.2147C36.0209 15.9814 38.9624 17.8613 42.3351 17.8613C45.7078 17.8613 48.6493 15.9814 50.1682 13.2147C52.7814 13.8835 55.2842 14.8795 57.6244 16.1854C59.9826 17.5011 62.9724 17.0779 64.8949 15.1558C66.2612 13.7889 66.893 11.9068 66.6283 9.99132ZM33.4051 8.9313C33.4051 9.31513 33.4322 9.69234 33.4794 10.0634C30.6631 10.8021 27.9633 11.8858 25.434 13.2971C24.3607 13.8959 22.9954 13.6986 22.114 12.817C21.4862 12.1893 21.1962 11.3245 21.3177 10.4443C21.4385 9.57145 21.947 8.82464 22.713 8.3955C26.4956 6.27629 30.6203 4.79441 34.8973 3.99633C33.9555 5.41124 33.4051 7.10793 33.4051 8.9313ZM42.3349 14.5539C39.2346 14.5539 36.7124 12.0317 36.7124 8.9313C36.7124 5.83095 39.2346 3.30872 42.3349 3.30872C45.4353 3.30872 47.9575 5.83095 47.9575 8.9313C47.9575 12.0317 45.4353 14.5539 42.3349 14.5539ZM62.5559 12.8172C61.6745 13.6988 60.309 13.8965 59.2359 13.2972C56.7067 11.886 54.0067 10.8023 51.1905 10.0636C51.2376 9.6925 51.2647 9.31513 51.2647 8.93147C51.2647 7.1081 50.7144 5.41124 49.7724 3.9965C54.0496 4.79457 58.1744 6.27662 61.9567 8.39567C62.7227 8.82464 63.2312 9.57128 63.352 10.4444C63.4738 11.3245 63.1836 12.1894 62.5559 12.8172Z" fill="#EAEAEA"/>
<path d="M27.5097 68.6498C25.2084 67.2759 23.0951 65.6052 21.2096 63.6766C22.8454 60.978 23.0025 57.4913 21.3164 54.5709C19.6299 51.6501 16.5312 50.0427 13.3758 50.1105C12.6484 47.5134 12.2594 44.8478 12.2204 42.168C12.181 39.4673 10.3195 37.0898 7.69338 36.3863C5.82635 35.8857 3.88044 36.2798 2.35408 37.467C0.833499 38.6494 -0.0244406 40.4304 0.000530303 42.3532C0.0959488 49.728 2.11793 57.0407 5.84801 63.5013C9.5781 69.9619 14.9002 75.3694 21.239 79.1394C22.1988 79.7102 23.2658 79.9993 24.3415 79.9993C25.1182 79.9991 25.8993 79.8485 26.6476 79.5442C28.4387 78.8158 29.7529 77.3274 30.253 75.4607C30.957 72.8352 29.8288 70.0343 27.5097 68.6498ZM5.58739 55.0541C4.14189 50.9534 3.36383 46.6432 3.30777 42.311C3.29652 41.4329 3.68894 40.6191 4.38465 40.0782C5.08615 39.5326 5.98031 39.3517 6.83759 39.5812C8.04181 39.9039 8.89545 40.9875 8.91331 42.2164C8.95565 45.1127 9.36709 47.9928 10.1356 50.8009C9.7906 50.9456 9.45027 51.1108 9.11787 51.3028C7.57497 52.1933 6.36066 53.4933 5.58739 55.0541ZM8.71371 61.8471C7.16353 59.1624 8.08679 55.7169 10.7717 54.1667C11.308 53.8571 11.8807 53.6418 12.4703 53.5223C12.4965 53.5176 12.5227 53.514 12.5488 53.508C12.8865 53.4445 13.2293 53.411 13.5739 53.411C14.0623 53.411 14.5539 53.4753 15.0383 53.6051C16.4889 53.9936 17.7014 54.9239 18.4524 56.2246C20.0025 58.9095 19.0793 62.355 16.3943 63.9052C13.7094 65.4557 10.2639 64.5319 8.71371 61.8471ZM27.0585 74.6051C26.8288 75.4624 26.2249 76.146 25.4019 76.4809C24.5853 76.813 23.6843 76.746 22.9297 76.2972C19.2041 74.0814 15.8605 71.2499 13.0314 67.9458C13.2197 67.9577 13.4086 67.9642 13.5979 67.9642C15.1119 67.9642 16.6454 67.5794 18.0479 66.7696C18.3802 66.5777 18.6935 66.3656 18.9913 66.1392C21.0391 68.2088 23.3275 70.0052 25.8145 71.4897C26.8697 72.1198 27.3812 73.4007 27.0585 74.6051Z" fill="#EAEAEA"/>
<path d="M82.3156 37.4673C80.7894 36.2805 78.8431 35.8862 76.9763 36.3866C74.3504 37.0901 72.4888 39.4677 72.4493 42.1683C72.4101 44.848 72.0213 47.5136 71.2938 50.1107C68.1382 50.0427 65.0395 51.6505 63.3532 54.5712C61.6671 57.4918 61.8242 60.9785 63.4601 63.677C61.5745 65.6055 59.4613 67.2763 57.16 68.6502C54.841 70.0346 53.7128 72.8355 54.4165 75.4614C54.9166 77.3281 56.2308 78.8166 58.0219 79.5449C58.7702 79.8492 59.5512 80 60.328 80C61.4035 79.9998 62.4708 79.7108 63.4305 79.1401C69.7694 75.37 75.0914 69.9624 78.8213 63.502C82.5514 57.0415 84.5734 49.7287 84.6688 42.3539C84.6941 40.4308 83.8361 38.6497 82.3156 37.4673ZM61.7401 76.297C60.9855 76.7459 60.0845 76.8127 59.2679 76.4808C58.4447 76.1461 57.841 75.4622 57.6113 74.6046C57.2886 73.4006 57.8003 72.1196 58.8555 71.4894C61.3425 70.0047 63.6311 68.2083 65.6787 66.1389C65.9765 66.3652 66.2897 66.5774 66.6221 66.7692C68.0249 67.5791 69.5579 67.9639 71.0721 67.9639C71.2612 67.9639 71.4503 67.9574 71.6386 67.9455C68.8093 71.2498 65.4657 74.0812 61.7401 76.297ZM75.9564 61.847C74.4062 64.532 70.9611 65.4552 68.2758 63.905C65.5909 62.3552 64.6676 58.9097 66.2178 56.2246C66.9687 54.924 68.1812 53.9936 69.6319 53.605C70.1164 53.4752 70.6077 53.4108 71.0962 53.4108C71.4403 53.4108 71.7825 53.4444 72.1198 53.5077C72.1476 53.514 72.1754 53.5182 72.2032 53.5229C72.7916 53.6427 73.3633 53.8577 73.8984 54.1666C76.5833 55.7167 77.5064 59.1622 75.9564 61.847ZM79.0824 55.0539C78.309 53.4932 77.0947 52.1932 75.5519 51.3025C75.2195 51.1105 74.8792 50.9453 74.5342 50.8006C75.3027 47.9925 75.7142 45.1126 75.7565 42.2161C75.7744 40.9872 76.628 39.9037 77.8322 39.5809C78.6902 39.3512 79.5838 39.5325 80.2851 40.0779C80.9809 40.6188 81.3733 41.4326 81.362 42.3105C81.306 46.6431 80.5281 50.9533 79.0824 55.0539Z" fill="#EAEAEA"/>
<path d="M59.725 32.2156L57.2966 30.7529C56.5142 30.2815 55.498 30.5335 55.0267 31.316C54.5554 32.0984 54.8076 33.1146 55.5899 33.5861L57.218 34.5667V39.3136C57.218 48.7877 51.2589 57.0941 42.3349 60.1466C33.4107 57.0939 27.4517 48.7877 27.4517 39.3136V34.5667L42.3349 25.6008L43.7863 26.4751C44.5684 26.9464 45.5847 26.6943 46.0562 25.9121C46.5275 25.1299 46.2753 24.1135 45.4929 23.6422L43.188 22.2537C42.6631 21.9374 42.0064 21.9377 41.4814 22.2537L24.9446 32.2158C24.4479 32.515 24.1442 33.0526 24.1442 33.6322V39.3135C24.1442 44.7337 25.8372 49.9097 29.0404 54.2823C32.2435 58.6547 36.6683 61.8298 41.8361 63.464C41.9983 63.5154 42.1665 63.541 42.3347 63.541C42.5029 63.541 42.6711 63.5154 42.8333 63.464C48.0013 61.8296 52.4261 58.6547 55.629 54.2823C58.8323 49.9097 60.5254 44.7335 60.5254 39.3135V33.6322C60.5254 33.0522 60.2218 32.5148 59.725 32.2156Z" fill="#3AD189"/>
<path d="M52.2554 27.7727C51.9479 27.4653 51.5212 27.2881 51.0863 27.2881C50.6497 27.2881 50.2247 27.4651 49.9171 27.7727C49.6079 28.0803 49.4326 28.5069 49.4326 28.9418C49.4326 29.3768 49.6079 29.8034 49.9171 30.111C50.2247 30.4184 50.6497 30.5955 51.0863 30.5955C51.5212 30.5955 51.9479 30.4186 52.2554 30.111C52.563 29.8034 52.74 29.3768 52.74 28.9418C52.74 28.5069 52.563 28.0803 52.2554 27.7727Z" fill="#3AD189"/>
<path d="M51.0241 38.4593C50.3785 37.8137 49.3314 37.8137 48.6856 38.4593L42.2479 44.897L39.0245 41.6736C38.3788 41.028 37.3316 41.028 36.6857 41.6736C36.0399 42.3194 36.0399 43.3665 36.6857 44.0124L41.0784 48.4052C41.4014 48.728 41.8246 48.8895 42.2478 48.8895C42.671 48.8895 43.0943 48.728 43.4171 48.4052L51.0241 40.7981C51.6699 40.1524 51.6699 39.1052 51.0241 38.4593Z" fill="#3AD189"/>
</svg>
