<svg width="80" height="80" viewBox="0 0 80 80" fill="none" xmlns="http://www.w3.org/2000/svg">
<path d="M59.7625 22.0621L63.8905 17.9341C64.4141 18.183 64.978 18.3228 65.5469 18.3228C66.5379 18.3228 67.529 17.9461 68.2838 17.1913C69.7921 15.6811 69.7921 13.2258 68.2838 11.7162C66.7729 10.2067 64.3177 10.2092 62.8087 11.7162C61.6205 12.9032 61.3829 14.6724 62.0647 16.1095L58.6776 19.4966L56.3225 14.1935H50.3226V16.7742C50.3226 18.1975 49.1652 19.3548 47.7419 19.3548C46.3187 19.3548 45.1613 18.1975 45.1613 16.7742V14.1935H41.2903V7.50441C42.7886 6.97014 43.871 5.55065 43.871 3.87097C43.871 1.73702 42.134 0 40 0C37.8661 0 36.129 1.73702 36.129 3.87097C36.129 5.55065 37.2115 6.97014 38.7097 7.50441V14.1935H34.8387V16.7742C34.8387 18.1975 33.6813 19.3548 32.2581 19.3548C30.8348 19.3548 29.6774 18.1975 29.6774 16.7742V14.1935H23.6776L21.3212 19.4966L17.9341 16.1095C18.6171 14.6724 18.3783 12.9032 17.1894 11.7162C15.6786 10.2067 13.2246 10.2092 11.715 11.7162C10.2067 13.2258 10.2067 15.6811 11.715 17.1913C12.4698 17.9461 13.4608 18.3228 14.4519 18.3228C15.0208 18.3228 15.5847 18.183 16.1082 17.9341L20.2363 22.0621C18.796 25.8424 18.0645 29.8116 18.0645 33.8855C18.0645 45.4335 23.9107 55.9822 33.7046 62.1031L38.7097 65.2312V72.4956C37.2115 73.0299 36.129 74.4493 36.129 76.129C36.129 78.263 37.8661 80 40 80C42.134 80 43.871 78.263 43.871 76.129C43.871 74.4493 42.7886 73.0299 41.2903 72.4956V65.2312L46.2954 62.1031C56.0894 55.9822 61.9355 45.4335 61.9355 33.8855C61.9355 29.8116 61.204 25.8424 59.7625 22.0621ZM40 2.58065C40.7107 2.58065 41.2903 3.16028 41.2903 3.87097C41.2903 4.58165 40.7107 5.16129 40 5.16129C39.2893 5.16129 38.7097 4.58165 38.7097 3.87097C38.7097 3.16028 39.2893 2.58065 40 2.58065ZM64.6346 13.5408C64.8866 13.2888 65.2167 13.1641 65.5481 13.1641C65.8789 13.1641 66.2091 13.2888 66.4604 13.5408C66.9638 14.0436 66.9638 14.862 66.4604 15.3667C65.9577 15.8682 65.1393 15.8695 64.6346 15.3667C64.1318 14.862 64.1318 14.0436 64.6346 13.5408ZM13.5408 15.3654C13.0374 14.862 13.0374 14.0436 13.5408 13.5408C13.7922 13.2888 14.1224 13.1641 14.4531 13.1641C14.7833 13.1641 15.1147 13.2888 15.3667 13.5408C15.8695 14.0436 15.8695 14.862 15.3667 15.3667C14.862 15.8669 14.0436 15.8682 13.5408 15.3654ZM40 77.4193C39.2893 77.4193 38.7097 76.8397 38.7097 76.129C38.7097 75.4183 39.2893 74.8387 40 74.8387C40.7107 74.8387 41.2903 75.4183 41.2903 76.129C41.2903 76.8397 40.7107 77.4193 40 77.4193ZM44.9276 59.9149L40 62.9946L35.0725 59.9149C26.0389 54.2685 20.6452 44.5382 20.6452 33.8855C20.6452 29.5628 21.5354 25.3679 23.2913 21.4182L25.3547 16.7742H27.0968C27.0968 19.6207 29.4116 21.9355 32.2581 21.9355C35.1046 21.9355 37.4194 19.6207 37.4194 16.7742H42.5807C42.5807 19.6207 44.8954 21.9355 47.7419 21.9355C50.5885 21.9355 52.9032 19.6207 52.9032 16.7742H54.6453L56.7099 21.4182C58.4646 25.3679 59.3549 29.5628 59.3549 33.8855C59.3549 44.5382 53.9611 54.2685 44.9276 59.9149Z" fill="#EAEAEA"/>
<path d="M52.5189 32.4465L47.5535 27.4811L44.5665 28.9756L43.5112 25.8065H36.49L35.4347 28.9756L32.4477 27.4811L27.4823 32.4465L28.9768 35.4335L25.8064 36.4888V43.51L28.9755 44.5653L27.4811 47.5523L32.4464 52.5176L35.4334 51.0232L36.4888 54.1936H43.5099L44.5652 51.0245L47.5523 52.5189L52.5176 47.5536L51.0232 44.5665L54.1935 43.5112V36.4901L51.0244 35.4347L52.5189 32.4465ZM51.6129 38.3499V41.6513L48.6504 42.6399L48.4337 43.2132C48.3713 43.377 48.3071 43.5396 48.2346 43.6983L47.9845 44.2566L49.3794 47.0464L47.0451 49.3807L44.2553 47.9858L43.6971 48.2359C43.537 48.3083 43.3745 48.3714 43.2113 48.435L42.6386 48.6517L41.6501 51.6129H38.3486L37.3601 48.6505L36.7868 48.4337C36.623 48.3714 36.4604 48.3071 36.3016 48.2346L35.7434 47.9845L32.9536 49.3794L30.6193 47.0451L32.0142 44.2553L31.7641 43.6971C31.6916 43.5371 31.6286 43.3745 31.565 43.2113L31.3483 42.6386L28.3871 41.6501V38.3487L31.3495 37.3601L31.5663 36.7868C31.6286 36.623 31.6929 36.4604 31.7653 36.3017L32.0155 35.7435L30.6206 32.9536L32.9549 30.6193L35.7447 32.0142L36.3029 31.7641C36.4629 31.6917 36.6255 31.6287 36.7887 31.565L37.3614 31.3483L38.3499 28.3871H41.6513L42.6398 31.3496L43.2132 31.5663C43.377 31.6287 43.5395 31.6929 43.6983 31.7654L44.2565 32.0155L47.0463 30.6206L49.3806 32.9549L47.9857 35.7447L48.2359 36.3029C48.3083 36.463 48.3713 36.6255 48.435 36.7887L48.6517 37.3614L51.6129 38.3499Z" fill="#3AD189"/>
<path d="M40 33.5484C36.4428 33.5484 33.5484 36.4428 33.5484 40C33.5484 43.5572 36.4428 46.4516 40 46.4516C43.5572 46.4516 46.4516 43.5572 46.4516 40C46.4516 36.4428 43.5572 33.5484 40 33.5484ZM40 43.871C37.866 43.871 36.129 42.134 36.129 40C36.129 37.8661 37.866 36.129 40 36.129C42.1339 36.129 43.8709 37.8661 43.8709 40C43.8709 42.134 42.1339 43.871 40 43.871Z" fill="#3AD189"/>
<path d="M15.4839 41.2904V38.7097H7.50441C6.97014 37.2115 5.55065 36.1291 3.87097 36.1291C1.73702 36.1291 0 37.8661 0 40.0001C0 42.134 1.73702 43.871 3.87097 43.871C5.55065 43.871 6.97014 42.7886 7.50441 41.2904H15.4839ZM3.87097 41.2904C3.16028 41.2904 2.58065 40.7107 2.58065 40.0001C2.58065 39.2894 3.16028 38.7097 3.87097 38.7097C4.58165 38.7097 5.16129 39.2894 5.16129 40.0001C5.16129 40.7107 4.58165 41.2904 3.87097 41.2904Z" fill="#3AD189"/>
<path d="M21.7521 56.4233L16.1095 62.0659C14.6724 61.383 12.9032 61.6205 11.7162 62.8106C10.2079 64.3202 10.2079 66.7755 11.7162 68.2851C12.471 69.0386 13.4621 69.4153 14.4531 69.4153C15.4454 69.4153 16.4359 69.0386 17.1913 68.2838C18.3795 67.0968 18.6171 65.3276 17.9354 63.8905L23.578 58.2479L21.7521 56.4233ZM15.3654 66.4592C14.8633 66.9626 14.0423 66.9639 13.5408 66.4592C13.0374 65.9564 13.0374 65.138 13.5408 64.6333C14.0436 64.1306 14.862 64.1306 15.3667 64.6333C15.8682 65.138 15.8682 65.9564 15.3654 66.4592Z" fill="#3AD189"/>
<path d="M63.8905 62.0659L58.2478 56.4233L56.4232 58.2479L62.0659 63.8905C61.3829 65.3276 61.6217 67.0968 62.8106 68.2838C63.5654 69.0373 64.5558 69.4141 65.5469 69.4141C66.5392 69.4141 67.5302 69.0373 68.285 68.2825C69.7933 66.773 69.7933 64.3177 68.285 62.8075C67.0955 61.6205 65.3263 61.383 63.8905 62.0659ZM66.4592 66.4592C65.9551 66.9639 65.1354 66.9613 64.6333 66.4592C64.1305 65.9564 64.1305 65.138 64.6333 64.6333C65.1367 64.1306 65.9551 64.1306 66.4579 64.6333C66.9626 65.138 66.9626 65.9564 66.4592 66.4592Z" fill="#3AD189"/>
<path d="M76.129 36.1291C74.4493 36.1291 73.0298 37.2115 72.4956 38.7097H64.5161V41.2904H72.4956C73.0298 42.7886 74.4493 43.871 76.129 43.871C78.263 43.871 80 42.134 80 40.0001C80 37.8661 78.263 36.1291 76.129 36.1291ZM76.129 41.2904C75.4183 41.2904 74.8387 40.7107 74.8387 40.0001C74.8387 39.2894 75.4183 38.7097 76.129 38.7097C76.8397 38.7097 77.4193 39.2894 77.4193 40.0001C77.4193 40.7107 76.8397 41.2904 76.129 41.2904Z" fill="#3AD189"/>
</svg>
