<?xml version="1.0" encoding="utf-8"?>
<!-- Generator: Adobe Illustrator 16.0.0, SVG Export Plug-In . SVG Version: 6.00 Build 0)  -->
<!DOCTYPE svg PUBLIC "-//W3C//DTD SVG 1.1//EN" "http://www.w3.org/Graphics/SVG/1.1/DTD/svg11.dtd">
<svg version="1.1" id="Layer_1" xmlns="http://www.w3.org/2000/svg" xmlns:xlink="http://www.w3.org/1999/xlink" x="0px" y="0px"
	 width="161.667px" height="162.333px" viewBox="0 0 161.667 162.333" enable-background="new 0 0 161.667 162.333"
	 xml:space="preserve">
<circle fill="#EAE73F" cx="80.833" cy="81.5" r="80.5"/>
<g>
	<defs>
		<rect id="SVGID_1_" x="38" y="43" width="85.955" height="74.1"/>
	</defs>
	<clipPath id="SVGID_2_">
		<use xlink:href="#SVGID_1_"  overflow="visible"/>
	</clipPath>
	<path clip-path="url(#SVGID_2_)" d="M123.541,96.699V96.5V59.201c0-9-7.299-16.2-16.199-16.2H94.041c-0.799,0-1.5,0.7-1.5,1.5
		c0,0.799,0.701,1.5,1.5,1.5h13.301c7.301,0,13.199,5.899,13.199,13.2v30.901c-2.299-3.102-5.699-5.301-9.5-6.301
		c-4.398-1.102-8.898-0.4-12.799,2c-3.9,2.301-6.6,6-7.6,10.398c-0.201,0.801-0.301,1.701-0.4,2.5h-18.6c-0.201-2.5-1-5-2.4-7.299
		c-2.301-3.9-6-6.6-10.401-7.6c-4.4-1.102-8.9-0.4-12.8,2c-1.8,1.1-3.399,2.6-4.7,4.199V59.201c0-7.301,5.9-13.2,13.2-13.2h13.4
		c0.801,0,1.5-0.701,1.5-1.5c0-0.8-0.699-1.5-1.5-1.5H54.642c-9,0-16.201,7.299-16.201,16.2v37.2c-2.1,9,3.5,18,12.4,20.201
		c1.301,0.299,2.7,0.5,4,0.5c7.6,0,14.5-5.201,16.401-12.902c0.199-0.799,0.299-1.699,0.4-2.5h18.699c0.199,2.5,1,5,2.4,7.301
		c2.299,3.9,6,6.602,10.4,7.602c1.299,0.299,2.699,0.5,4,0.5c7.6,0,14.5-5.201,16.398-12.902
		C124.041,101.699,124.142,99.102,123.541,96.699 M68.341,103.5c-1.801,7.4-9.3,12-16.8,10.199c-7.399-1.799-12-9.299-10.2-16.799
		c0.9-3.6,3.1-6.6,6.301-8.6c2.199-1.301,4.699-2,7.199-2c1.1,0,2.2,0.1,3.301,0.398c3.6,0.902,6.6,3.102,8.6,6.301
		C68.642,96.102,69.242,99.9,68.341,103.5 M120.541,103.5c-1.799,7.4-9.299,12-16.799,10.199c-3.6-0.898-6.6-3.098-8.6-6.299
		c-1.301-2.201-2-4.6-2-7.1v-0.102v-0.098c0-1.102,0.1-2.102,0.398-3.201c0.9-3.6,3.102-6.6,6.301-8.6c2.199-1.301,4.699-2,7.199-2
		c1.102,0,2.201,0.1,3.301,0.398c3.6,0.902,6.6,3.102,8.6,6.301C120.841,96.102,121.441,99.9,120.541,103.5"/>
</g>
</svg>
