<?xml version="1.0" encoding="utf-8"?>
<!-- Generator: Adobe Illustrator 16.0.0, SVG Export Plug-In . SVG Version: 6.00 Build 0)  -->
<!DOCTYPE svg PUBLIC "-//W3C//DTD SVG 1.1//EN" "http://www.w3.org/Graphics/SVG/1.1/DTD/svg11.dtd">
<svg version="1.1" id="Layer_1" xmlns="http://www.w3.org/2000/svg" xmlns:xlink="http://www.w3.org/1999/xlink" x="0px" y="0px"
	 width="161.667px" height="162.333px" viewBox="0 0 161.667 162.333" enable-background="new 0 0 161.667 162.333"
	 xml:space="preserve">
<circle fill="#EAE73F" cx="80.833" cy="81.5" r="80.5"/>
<g>
	<defs>
		<rect id="SVGID_1_" x="43.333" y="45.23" width="79.019" height="72.77"/>
	</defs>
	<clipPath id="SVGID_2_">
		<use xlink:href="#SVGID_1_"  overflow="visible"/>
	</clipPath>
	<path clip-path="url(#SVGID_2_)" d="M120.852,59.81h-16.203v-0.583c0-7.719-6.278-13.996-13.997-13.996H75.033
		c-7.718,0-13.996,6.277-13.996,13.996v0.583H44.833c-0.828,0-1.5,0.671-1.5,1.5v55.19c0,0.827,0.672,1.5,1.5,1.5h76.02
		c0.828,0,1.5-0.673,1.5-1.5V61.31C122.352,60.48,121.68,59.81,120.852,59.81 M64.037,59.227c0-6.063,4.933-10.996,10.996-10.996
		h15.619c6.063,0,10.997,4.933,10.997,10.996v0.583H64.037V59.227z M119.352,62.81v17.827H89.611c-0.827,0-1.5,0.672-1.5,1.5v5.727
		c0,3.193-2.596,5.789-5.788,5.789c-3.192,0-5.79-2.596-5.79-5.789v-5.727c0-0.828-0.672-1.5-1.5-1.5H46.333V62.81H119.352z
		 M46.333,115.001V83.638h27.199v4.227c0,4.848,3.943,8.789,8.79,8.789c4.847,0,8.788-3.941,8.788-8.789v-4.227h28.241v31.363
		H46.333z"/>
</g>
</svg>
