<?xml version="1.0" encoding="utf-8"?>
<!-- Generator: Adobe Illustrator 21.1.0, SVG Export Plug-In . SVG Version: 6.00 Build 0)  -->
<svg version="1.1" id="Слой_1" xmlns="http://www.w3.org/2000/svg" xmlns:xlink="http://www.w3.org/1999/xlink" x="0px" y="0px"
	 viewBox="0 0 12 12" style="enable-background:new 0 0 12 12;" xml:space="preserve">
<style type="text/css">
	.st0{fill:#1DBAAD;}
</style>
<g>
	<path class="st0" d="M6,1.2c1.6,0,1.7,0,2.4,0c0.6,0,0.9,0.1,1.1,0.2c0.3,0.1,0.5,0.2,0.7,0.4c0.2,0.2,0.3,0.4,0.4,0.7
		c0.1,0.2,0.2,0.5,0.2,1.1c0,0.6,0,0.8,0,2.4s0,1.7,0,2.4c0,0.6-0.1,0.9-0.2,1.1c-0.1,0.3-0.2,0.5-0.4,0.7c-0.2,0.2-0.4,0.3-0.7,0.4
		c-0.2,0.1-0.5,0.2-1.1,0.2c-0.6,0-0.8,0-2.4,0s-1.7,0-2.4,0c-0.6,0-0.9-0.1-1.1-0.2c-0.3-0.1-0.5-0.2-0.7-0.4
		C1.7,9.9,1.6,9.7,1.4,9.5C1.4,9.3,1.3,8.9,1.2,8.4c0-0.6,0-0.8,0-2.4s0-1.7,0-2.4c0-0.6,0.1-0.9,0.2-1.1c0.1-0.3,0.2-0.5,0.4-0.7
		c0.2-0.2,0.4-0.3,0.7-0.4c0.2-0.1,0.5-0.2,1.1-0.2C4.3,1.2,4.4,1.2,6,1.2 M6,0.2c-1.6,0-1.8,0-2.4,0c-0.6,0-1,0.1-1.4,0.3
		c-0.4,0.1-0.7,0.3-1,0.7c-0.3,0.3-0.5,0.7-0.7,1C0.3,2.5,0.2,3,0.2,3.6c0,0.6,0,0.8,0,2.4c0,1.6,0,1.8,0,2.4c0,0.6,0.1,1,0.3,1.4
		c0.1,0.4,0.3,0.7,0.7,1c0.3,0.3,0.7,0.5,1,0.7c0.4,0.1,0.8,0.2,1.4,0.3c0.6,0,0.8,0,2.4,0s1.8,0,2.4,0c0.6,0,1-0.1,1.4-0.3
		c0.4-0.1,0.7-0.3,1-0.7c0.3-0.3,0.5-0.7,0.7-1c0.1-0.4,0.2-0.8,0.3-1.4c0-0.6,0-0.8,0-2.4s0-1.8,0-2.4c0-0.6-0.1-1-0.3-1.4
		c-0.1-0.4-0.3-0.7-0.7-1c-0.3-0.3-0.7-0.5-1-0.7C9.5,0.3,9,0.2,8.4,0.2C7.8,0.2,7.6,0.2,6,0.2L6,0.2z"/>
	<path class="st0" d="M6,3C4.3,3,3,4.3,3,6s1.3,3,3,3s3-1.3,3-3S7.7,3,6,3z M6,8c-1.1,0-2-0.9-2-2s0.9-2,2-2c1.1,0,2,0.9,2,2
		S7.1,8,6,8z"/>
	<circle class="st0" cx="9.1" cy="2.9" r="0.7"/>
</g>
</svg>
