<?xml version="1.0" encoding="utf-8"?>
<!-- Generator: Adobe Illustrator 16.0.0, SVG Export Plug-In . SVG Version: 6.00 Build 0)  -->
<!DOCTYPE svg PUBLIC "-//W3C//DTD SVG 1.1//EN" "http://www.w3.org/Graphics/SVG/1.1/DTD/svg11.dtd">
<svg version="1.1" id="Layer_1" xmlns="http://www.w3.org/2000/svg" xmlns:xlink="http://www.w3.org/1999/xlink" x="0px" y="0px"
	 width="132px" height="129px" viewBox="0 0 132 129" enable-background="new 0 0 132 129" xml:space="preserve">
<ellipse fill="#FFFFFF" cx="66.167" cy="65" rx="65.5" ry="64"/>
<g>
	<defs>
		<rect id="SVGID_1_" x="29.667" y="30" width="72.784" height="71"/>
	</defs>
	<clipPath id="SVGID_2_">
		<use xlink:href="#SVGID_1_"  overflow="visible"/>
	</clipPath>
	<path clip-path="url(#SVGID_2_)" d="M102.398,66.18c0,0,0-0.09,0.051-0.13c0.003-0.051,0.003-0.1,0-0.15v-0.129v-0.15V65.48v-0.14
		c0.003-0.047,0.003-0.093,0-0.14c0,0,0-0.09-0.051-0.139l-0.06-0.131l-0.09-0.139l-0.061-0.091c-3.118-3.79-6.629-7.242-10.47-10.3
		C83.239,47.59,74.529,44,66.518,44c-21.29,0-36.09,19.88-36.709,20.72v0.071l-0.08,0.129l-0.06,0.13v0.13
		c-0.003,0.05-0.003,0.1,0,0.15v0.14v0.15v0.14v0.14c-0.002,0.047-0.002,0.094,0,0.142v0.139l0.06,0.131l0.08,0.139v0.061
		c0.62,0.841,15.42,20.501,36.709,20.501c8,0,16.721-3.551,25.21-10.271c3.842-3.034,7.351-6.468,10.471-10.239l0.06-0.101
		l0.09-0.129L102.398,66.18z M66.518,84c-17.28,0-30.5-14.609-33.59-18.4c3.09-3.82,16.28-18.6,33.59-18.6
		c15.5,0,29.2,14.72,32.5,18.611C95.718,69.5,82.018,84,66.518,84"/>
	<path clip-path="url(#SVGID_2_)" d="M66.018,50c-8.561,0-15.5,6.94-15.5,15.5c0,8.562,6.939,15.501,15.5,15.501
		c8.562,0,15.5-6.939,15.5-15.501C81.507,56.944,74.575,50.011,66.018,50 M66.018,78c-6.903,0-12.5-5.597-12.5-12.501
		c0-6.902,5.597-12.5,12.5-12.5c6.903,0,12.5,5.597,12.5,12.5C78.507,72.399,72.917,77.989,66.018,78"/>
	<path clip-path="url(#SVGID_2_)" d="M32.019,47c0.829,0,1.5-0.672,1.5-1.5V33h12.5c0.829,0,1.5-0.672,1.5-1.5
		c0-0.829-0.671-1.5-1.5-1.5h-14c-0.829,0-1.5,0.671-1.5,1.5v14C30.519,46.329,31.189,47,32.019,47"/>
	<path clip-path="url(#SVGID_2_)" d="M86.018,33h12.5v12.5c0,0.828,0.672,1.5,1.5,1.5s1.5-0.672,1.5-1.5v-14
		c0-0.829-0.672-1.5-1.5-1.5h-14c-0.828,0-1.5,0.671-1.5,1.5C84.518,32.329,85.19,33,86.018,33"/>
	<path clip-path="url(#SVGID_2_)" d="M100.018,84c-0.828,0-1.5,0.672-1.5,1.5V98h-12.5c-0.828,0-1.5,0.672-1.5,1.5
		c0,0.829,0.672,1.5,1.5,1.5h14c0.828,0,1.5-0.671,1.5-1.5v-14C101.518,84.672,100.846,84,100.018,84"/>
	<path clip-path="url(#SVGID_2_)" d="M46.019,98h-12.5V85.5c0-0.828-0.671-1.5-1.5-1.5c-0.829,0-1.5,0.672-1.5,1.5v14
		c0,0.829,0.671,1.5,1.5,1.5h14c0.829,0,1.5-0.671,1.5-1.5C47.519,98.672,46.847,98,46.019,98"/>
	<path clip-path="url(#SVGID_2_)" d="M66.018,58c-4.142,0-7.5,3.358-7.5,7.5c0,4.144,3.358,7.501,7.5,7.501
		c4.144,0,7.5-3.357,7.5-7.501C73.512,61.36,70.159,58.006,66.018,58 M66.018,70c-2.485,0-4.5-2.016-4.5-4.501
		c0-2.484,2.015-4.5,4.5-4.5c2.485,0,4.5,2.015,4.5,4.5C70.518,67.985,68.503,70,66.018,70"/>
</g>
</svg>
