<?xml version="1.0" encoding="utf-8"?>
<!-- Generator: Adobe Illustrator 16.0.0, SVG Export Plug-In . SVG Version: 6.00 Build 0)  -->
<!DOCTYPE svg PUBLIC "-//W3C//DTD SVG 1.1//EN" "http://www.w3.org/Graphics/SVG/1.1/DTD/svg11.dtd">
<svg version="1.1" id="Layer_1" xmlns="http://www.w3.org/2000/svg" xmlns:xlink="http://www.w3.org/1999/xlink" x="0px" y="0px"
	 width="132px" height="129px" viewBox="0 0 132 129" enable-background="new 0 0 132 129" xml:space="preserve">
<ellipse fill="#FFFFFF" cx="66.167" cy="65" rx="65.5" ry="64"/>
<g>
	<defs>
		<rect id="SVGID_1_" x="21" y="25.667" width="89.428" height="81.601"/>
	</defs>
	<clipPath id="SVGID_2_">
		<use xlink:href="#SVGID_1_"  overflow="visible"/>
	</clipPath>
	<path clip-path="url(#SVGID_2_)" fill="#231F20" d="M100.358,34.593H22.5c-0.829,0-1.5,0.671-1.5,1.5v69.674
		c0,0.828,0.671,1.5,1.5,1.5h77.858c0.828,0,1.5-0.672,1.5-1.5V36.093C101.858,35.264,101.186,34.593,100.358,34.593
		 M98.858,104.267H24V37.593h74.858V104.267z"/>
	<path clip-path="url(#SVGID_2_)" fill="#231F20" d="M61.426,93.335c11.734,0,21.385-9.068,22.326-20.562
		c0.049-0.146,0.082-0.303,0.082-0.467c0-0.096-0.012-0.188-0.029-0.277c0.018-0.363,0.029-0.73,0.029-1.098
		c0-12.355-10.053-22.407-22.408-22.407c-12.353,0-22.403,10.052-22.403,22.407C39.024,83.285,49.074,93.335,61.426,93.335
		 M80.829,70.806H62.926V51.6C72.887,52.368,80.762,60.668,80.829,70.806 M59.926,51.6v20.707c0,0.828,0.672,1.5,1.5,1.5h19.17
		c-1.396,9.336-9.447,16.529-19.17,16.529c-10.698,0-19.403-8.705-19.403-19.404C42.024,60.736,49.929,52.371,59.926,51.6"/>
	<rect x="30.762" y="25.667" clip-path="url(#SVGID_2_)" fill="#231F20" width="78" height="3.333"/>
	<rect x="107.096" y="25.667" clip-path="url(#SVGID_2_)" fill="#231F20" width="3.332" height="78.001"/>
</g>
</svg>
