<?xml version="1.0" encoding="utf-8"?>
<!-- Generator: Adobe Illustrator 16.0.0, SVG Export Plug-In . SVG Version: 6.00 Build 0)  -->
<!DOCTYPE svg PUBLIC "-//W3C//DTD SVG 1.1//EN" "http://www.w3.org/Graphics/SVG/1.1/DTD/svg11.dtd">
<svg version="1.1" id="Layer_1" xmlns="http://www.w3.org/2000/svg" xmlns:xlink="http://www.w3.org/1999/xlink" x="0px" y="0px"
	 width="132px" height="129px" viewBox="0 0 132 129" enable-background="new 0 0 132 129" xml:space="preserve">
<ellipse fill="#FFFFFF" cx="66.167" cy="65" rx="65.5" ry="64"/>
<g>
	<defs>
		<rect id="SVGID_1_" x="24" y="22.666" width="81.417" height="86.867"/>
	</defs>
	<clipPath id="SVGID_2_">
		<use xlink:href="#SVGID_1_"  overflow="visible"/>
	</clipPath>
	<path clip-path="url(#SVGID_2_)" d="M89.272,36.873c-4.721-4.224-10.812-6.357-17.123-6.006
		c-6.324,0.351-12.132,3.143-16.354,7.861c-8.718,9.742-7.885,24.762,1.856,33.479c4.519,4.043,10.168,6.031,15.799,6.031
		c6.516,0,13.006-2.662,17.68-7.887C99.848,60.61,99.014,45.591,89.272,36.873 M88.893,68.351
		c-7.613,8.51-20.732,9.236-29.242,1.619c-8.51-7.615-9.236-20.732-1.623-29.241c3.689-4.122,8.764-6.561,14.285-6.867
		c0.393-0.021,0.783-0.032,1.174-0.032c5.098,0,9.955,1.851,13.785,5.278C95.782,46.724,96.508,59.842,88.893,68.351"/>
	<path clip-path="url(#SVGID_2_)" d="M60.694,43.069c-0.553,0.618-0.5,1.566,0.117,2.118c0.287,0.256,0.644,0.382,1,0.382
		c0.412,0,0.821-0.168,1.117-0.5c5.223-5.837,14.221-6.335,20.057-1.113c0.617,0.553,1.564,0.5,2.119-0.117
		c0.551-0.618,0.498-1.566-0.119-2.118C77.915,35.396,67.018,36.001,60.694,43.069"/>
	<path clip-path="url(#SVGID_2_)" d="M105.358,52.608c-0.51-8.492-4.293-16.276-10.658-21.921
		c-6.363-5.645-14.537-8.465-23.037-7.964c-8.492,0.509-16.276,4.294-21.92,10.659c-11.315,12.756-10.501,32.141,1.584,43.922
		l-5.172,5.902l-1.659-1.471c-0.619-0.551-1.563-0.494-2.113,0.121l-18,20.115c-0.266,0.295-0.402,0.686-0.38,1.082
		c0.022,0.398,0.201,0.771,0.497,1.037l5.655,5.061c0.287,0.256,0.644,0.381,1,0.381c0.412,0,0.822-0.168,1.118-0.5l18.023-20.141
		c0.267-0.297,0.404-0.688,0.381-1.088c-0.023-0.396-0.204-0.77-0.502-1.035l-1.775-1.572l5.17-5.898
		c5.684,4.596,12.66,7.064,19.957,7.064c0.646,0,1.297-0.021,1.947-0.061c8.492-0.508,16.277-4.295,21.922-10.658
		C103.042,69.281,105.868,61.1,105.358,52.608 M31.037,105.916l-3.419-3.061L43.622,84.97l3.434,3.045L31.037,105.916z
		 M95.151,73.654c-5.113,5.766-12.166,9.193-19.855,9.654c-7.691,0.475-15.104-2.1-20.868-7.213
		c-11.9-10.555-12.995-28.824-2.44-40.724c5.113-5.765,12.166-9.193,19.855-9.654c0.59-0.036,1.18-0.053,1.766-0.053
		c7.055,0,13.779,2.546,19.104,7.267c5.766,5.113,9.193,12.165,9.654,19.856C102.825,60.479,100.262,67.89,95.151,73.654"/>
</g>
</svg>
