<?xml version="1.0" encoding="utf-8"?>
<!-- Generator: Adobe Illustrator 16.0.0, SVG Export Plug-In . SVG Version: 6.00 Build 0)  -->
<!DOCTYPE svg PUBLIC "-//W3C//DTD SVG 1.1//EN" "http://www.w3.org/Graphics/SVG/1.1/DTD/svg11.dtd">
<svg version="1.1" id="Layer_1" xmlns="http://www.w3.org/2000/svg" xmlns:xlink="http://www.w3.org/1999/xlink" x="0px" y="0px"
	 width="132px" height="129px" viewBox="0 0 132 129" enable-background="new 0 0 132 129" xml:space="preserve">
<ellipse fill="#FFFFFF" cx="66.167" cy="65" rx="65.5" ry="64"/>
<g>
	<defs>
		<rect id="SVGID_1_" x="25.833" y="23" width="79" height="78"/>
	</defs>
	<clipPath id="SVGID_2_">
		<use xlink:href="#SVGID_1_"  overflow="visible"/>
	</clipPath>
	<path clip-path="url(#SVGID_2_)" d="M103.333,98h-4.5V36.5c0-0.828-0.672-1.5-1.5-1.5h-14c-0.828,0-1.5,0.672-1.5,1.5V98h-8V59.5
		c0-0.828-0.672-1.5-1.5-1.5h-14c-0.83,0-1.5,0.672-1.5,1.5V98h-8V81.5c0-0.828-0.671-1.5-1.5-1.5h-14c-0.829,0-1.5,0.672-1.5,1.5
		V98h-4.5c-0.829,0-1.5,0.672-1.5,1.5c0,0.83,0.671,1.5,1.5,1.5h76c0.828,0,1.5-0.67,1.5-1.5C104.833,98.671,104.162,98,103.333,98
		 M84.833,38h11v60h-11V38z M59.833,61h11v37h-11V61z M34.833,83h11v15h-11V83z"/>
	<path clip-path="url(#SVGID_2_)" d="M28.333,70c0.397,0,0.779-0.158,1.06-0.439l41.44-41.44v6.38c0,0.828,0.672,1.5,1.5,1.5
		s1.5-0.672,1.5-1.5v-10c-0.002-0.189-0.039-0.375-0.111-0.55c-0.152-0.372-0.447-0.668-0.818-0.82
		c-0.18-0.081-0.375-0.125-0.57-0.13h-10c-0.83,0-1.5,0.671-1.5,1.5c0,0.828,0.67,1.5,1.5,1.5h6.379L27.273,67.441
		c-0.586,0.586-0.585,1.535,0.001,2.121C27.555,69.841,27.936,70,28.333,70"/>
</g>
</svg>
