<?xml version="1.0" encoding="utf-8"?>
<!-- Generator: Adobe Illustrator 16.0.0, SVG Export Plug-In . SVG Version: 6.00 Build 0)  -->
<!DOCTYPE svg PUBLIC "-//W3C//DTD SVG 1.1//EN" "http://www.w3.org/Graphics/SVG/1.1/DTD/svg11.dtd">
<svg version="1.1" id="Layer_1" xmlns="http://www.w3.org/2000/svg" xmlns:xlink="http://www.w3.org/1999/xlink" x="0px" y="0px"
	 width="132px" height="129px" viewBox="0 0 132 129" enable-background="new 0 0 132 129" xml:space="preserve">
<ellipse fill="#FFFFFF" cx="66.167" cy="65" rx="65.5" ry="64"/>
<g>
	<defs>
		<rect id="SVGID_1_" x="27" y="30" width="78.711" height="68.421"/>
	</defs>
	<clipPath id="SVGID_2_">
		<use xlink:href="#SVGID_1_"  overflow="visible"/>
	</clipPath>
	<path clip-path="url(#SVGID_2_)" fill="#231F20" d="M52.254,38.876h51.957c0.828,0,1.5-0.672,1.5-1.5c0-0.829-0.672-1.5-1.5-1.5
		H52.254c-0.83,0-1.5,0.671-1.5,1.5C50.754,38.204,51.426,38.876,52.254,38.876"/>
	<path clip-path="url(#SVGID_2_)" fill="#231F20" d="M104.211,62.999H52.253c-0.829,0-1.5,0.673-1.5,1.501s0.671,1.5,1.5,1.5h51.958
		c0.828,0,1.5-0.672,1.5-1.5S105.038,62.999,104.211,62.999"/>
	<path clip-path="url(#SVGID_2_)" fill="#231F20" d="M104.211,89.544H52.253c-0.829,0-1.5,0.672-1.5,1.5s0.671,1.5,1.5,1.5h51.958
		c0.828,0,1.5-0.672,1.5-1.5S105.038,89.544,104.211,89.544"/>
	<path clip-path="url(#SVGID_2_)" fill="#231F20" d="M34.377,30C30.309,30,27,33.308,27,37.374c0,4.069,3.31,7.379,7.377,7.379
		s7.377-3.311,7.377-7.379C41.755,33.308,38.445,30,34.377,30 M34.377,41.753c-2.414,0-4.377-1.965-4.377-4.379
		C30,34.962,31.964,33,34.377,33s4.377,1.962,4.377,4.374C38.755,39.788,36.791,41.753,34.377,41.753"/>
	<path clip-path="url(#SVGID_2_)" fill="#231F20" d="M34.377,57.121c-4.068,0-7.377,3.309-7.377,7.377s3.31,7.379,7.377,7.379
		s7.377-3.311,7.377-7.379C41.755,60.429,38.445,57.121,34.377,57.121 M34.377,68.876c-2.414,0-4.377-1.965-4.377-4.379
		s1.964-4.377,4.377-4.377s4.377,1.963,4.377,4.377C38.755,66.912,36.791,68.876,34.377,68.876"/>
	<path clip-path="url(#SVGID_2_)" fill="#231F20" d="M34.377,83.666c-4.068,0-7.377,3.311-7.377,7.377
		c0,4.068,3.31,7.379,7.377,7.379s7.377-3.311,7.377-7.379C41.755,86.976,38.445,83.666,34.377,83.666 M34.377,95.421
		c-2.414,0-4.377-1.965-4.377-4.377c0-2.414,1.964-4.379,4.377-4.379s4.377,1.965,4.377,4.379
		C38.755,93.457,36.791,95.421,34.377,95.421"/>
</g>
</svg>
