<svg width="13" height="13" viewBox="0 0 13 13" fill="none" xmlns="http://www.w3.org/2000/svg">
<path d="M12.9715 10.0726C12.9348 9.96181 12.7008 9.7986 12.2699 9.58335C12.1532 9.51551 11.9868 9.42331 11.7716 9.30634C11.5561 9.18937 11.3606 9.08159 11.1853 8.98309C11.0096 8.88462 10.845 8.78922 10.6913 8.69702C10.6667 8.67856 10.5898 8.62478 10.4605 8.53533C10.3311 8.44614 10.222 8.37994 10.1326 8.33677C10.0434 8.29386 9.9556 8.27226 9.86942 8.27226C9.74634 8.27226 9.5926 8.36002 9.40801 8.53533C9.22342 8.71086 9.0541 8.90153 8.9003 9.10791C8.74647 9.3142 8.58332 9.50487 8.41115 9.6803C8.23872 9.8558 8.09705 9.94347 7.98639 9.94347C7.93083 9.94347 7.86156 9.92798 7.77855 9.89742C7.69557 9.86667 7.63244 9.84031 7.58911 9.81907C7.54616 9.79737 7.47246 9.75442 7.36775 9.68958C7.26285 9.62494 7.20451 9.58953 7.19222 9.58335C6.349 9.11545 5.62581 8.57992 5.02254 7.97691C4.41946 7.37354 3.88387 6.65042 3.4161 5.8071C3.40995 5.79478 3.37448 5.73628 3.3099 5.6317C3.24522 5.52702 3.20211 5.45325 3.18058 5.41005C3.15904 5.36701 3.13288 5.30388 3.10216 5.22081C3.07144 5.13773 3.05601 5.06852 3.05601 5.01306C3.05601 4.90234 3.14374 4.7607 3.31918 4.58833C3.49458 4.41607 3.68544 4.25289 3.89157 4.09912C4.09786 3.94535 4.28852 3.77602 4.46399 3.59144C4.63939 3.40675 4.7271 3.25295 4.7271 3.12987C4.7271 3.04375 4.70556 2.95596 4.66252 2.86673C4.61944 2.77732 4.55328 2.66821 4.46399 2.53889C4.37467 2.40963 4.32083 2.33276 4.30233 2.30802C4.2101 2.15425 4.1148 1.98962 4.0162 1.81418C3.9176 1.63878 3.80998 1.44326 3.69298 1.22786C3.57608 1.01255 3.48381 0.846296 3.41603 0.72936C3.20072 0.29858 3.03764 0.0645798 2.92682 0.0277787C2.88371 0.00931346 2.81903 0 2.73295 0C2.56667 0 2.34974 0.0307215 2.08201 0.0923584C1.81418 0.153898 1.60343 0.218446 1.44954 0.286259C1.14177 0.415451 0.815574 0.7909 0.470847 1.41248C0.156938 1.99095 0 2.5635 0 3.12971C0 3.29577 0.0107687 3.45733 0.032306 3.61443C0.0538434 3.77137 0.0923261 3.94836 0.147786 4.14536C0.20315 4.3423 0.247809 4.4886 0.28157 4.58387C0.315364 4.6792 0.378456 4.84998 0.470815 5.09627C0.563044 5.3425 0.618504 5.49323 0.636969 5.54862C0.852375 6.15186 1.10782 6.69039 1.40323 7.16438C1.88927 7.9522 2.55257 8.76639 3.39272 9.6066C4.2329 10.4468 5.04692 11.11 5.83482 11.5963C6.30873 11.8916 6.84746 12.147 7.4506 12.3626C7.50603 12.381 7.65676 12.4363 7.90289 12.5289C8.14911 12.6212 8.31995 12.6842 8.41529 12.7181C8.51065 12.752 8.65699 12.7967 8.85377 12.8521C9.05097 12.9076 9.22779 12.9461 9.38473 12.9678C9.54176 12.989 9.70336 13 9.86945 13C10.4356 13 11.0082 12.843 11.5868 12.5291C12.2083 12.1845 12.5836 11.8582 12.7129 11.5502C12.7809 11.3965 12.8453 11.1857 12.9068 10.9179C12.9685 10.6502 12.9992 10.4333 12.9992 10.267C12.9994 10.1806 12.9901 10.1161 12.9715 10.0726Z" fill="#EAEAEA"/>
</svg>
