<?xml version="1.0" encoding="UTF-8"?>
<svg width="100px" height="30px" viewBox="0 0 100 30" version="1.1" xmlns="http://www.w3.org/2000/svg" xmlns:xlink="http://www.w3.org/1999/xlink">
    <!-- Generator: sketchtool 49.3 (51167) - http://www.bohemiancoding.com/sketch -->
    <title>5AC70B2F-C41A-46DE-B52D-214E79925BF7</title>
    <desc>Created with sketchtool.</desc>
    <defs>
        <linearGradient x1="50.0074293%" y1="103.132135%" x2="50.0074293%" y2="1.35233356%" id="linearGradient-1">
            <stop stop-color="#43A0DE" offset="0%"></stop>
            <stop stop-color="#4599D8" offset="50.3%"></stop>
            <stop stop-color="#488DCD" offset="100%"></stop>
        </linearGradient>
        <linearGradient x1="50.0040446%" y1="31.538107%" x2="50.0040446%" y2="204.511202%" id="linearGradient-2">
            <stop stop-color="#4FB0EB" offset="0%"></stop>
            <stop stop-color="#50A9E5" offset="50.3%"></stop>
            <stop stop-color="#4599D8" offset="100%"></stop>
        </linearGradient>
        <linearGradient x1="10.0929601%" y1="96.4436599%" x2="95.1971193%" y2="-2.46445648%" id="linearGradient-3">
            <stop stop-color="#FFFFFF" offset="0%"></stop>
            <stop stop-color="#A0CFF3" offset="50.3%"></stop>
            <stop stop-color="#99A9D7" offset="66.27%"></stop>
            <stop stop-color="#90CEF6" offset="86.39%"></stop>
            <stop stop-color="#FFFFFF" offset="100%"></stop>
        </linearGradient>
    </defs>
    <g id="Page-1" stroke="none" stroke-width="1" fill="none" fill-rule="evenodd">
        <g id="AFR_supply-of-equipment" transform="translate(-1179.000000, -2922.000000)">
            <g id="666" transform="translate(1179.000000, 2922.000000)">
                <path d="M15.0765864,27.1991247 L13.7417943,29.321663 L97.8774617,29.321663 L98.7746171,27.1991247 L15.0765864,27.1991247 M90.8752735,4.55142232 L97.3522976,4.55142232 L98.5776805,0.722100656 L91.9912473,0.722100656 L90.8752735,4.55142232 M90.131291,6.41137856 L84.7702407,24.6170678 L91.7724289,24.6170678 L97.1334792,6.41137856 L90.131291,6.41137856 M57.2866521,6.41137856 L85.9299781,6.41137856 L80.7439825,24.595186 L73.7417943,24.595186 L78.512035,8.6214442 L73.0415755,8.6214442 L68.3150985,24.595186 L64.1794311,24.595186 L68.6870897,8.6214442 L63.5448578,8.6214442 L59.0371991,24.595186 L51.8161926,24.595186 L57.2866521,6.41137856 M39.8905908,6.41137856 L34.6389497,24.6170678 L48.5339168,24.6170678 L49.2341357,21.9693654 L42.2319475,21.9693654 L45.95186,8.66520788 L52.4726477,8.66520788 L53.3698031,6.43326039 L39.8905908,6.43326039 M18.8840263,18.3369803 L24.9671772,18.3369803 L28.8621444,6.19256018 L18.8840263,18.3369803 M1.59737418,29.321663 L25.7768053,0.722100656 L37.0897155,0.722100656 L30.3063457,24.595186 L23.3041575,24.595186 L24.1575492,21.3129103 L16.5426696,21.3129103 L9.91247265,29.321663 L1.59737418,29.321663" id="Shape" fill="#000000" fill-rule="nonzero"></path>
                <path d="M15.0765864,27.1991247 L14.5295405,26.8490153 L12.5820569,29.9781182 L98.3369803,29.9781182 L99.8030635,26.5426696 L14.7045952,26.5426696 L14.5076586,26.8490153 L15.0765864,27.1991247 L15.0765864,27.8555799 L97.7899344,27.8555799 L97.4398249,28.6652079 L14.9234136,28.6652079 L15.6236324,27.5492341 L15.0765864,27.1991247 L15.0765864,27.8555799 L15.0765864,27.1991247 M90.8752735,4.55142232 L90.8752735,5.20787746 L97.8118162,5.20787746 L99.452954,0.0875273523 L91.487965,0.0875273523 L89.9781182,5.20787746 L90.8533917,5.20787746 L90.8533917,4.55142232 L91.487965,4.72647702 L92.4726477,1.3785558 L97.6586433,1.3785558 L96.8490153,3.89496718 L90.8533917,3.89496718 L90.8533917,4.55142232 L91.487965,4.72647702 L90.8752735,4.55142232 M90.131291,6.41137856 L89.4967177,6.21444201 L83.8949672,25.2516411 L92.2757112,25.2516411 L98.0087527,5.73304158 L89.6498906,5.73304158 L89.5185996,6.21444201 L90.131291,6.41137856 L90.131291,7.0678337 L96.2582057,7.0678337 L91.2910284,23.9606127 L85.6673961,23.9606127 L90.7877462,6.6083151 L90.131291,6.41137856 L90.131291,7.0678337 L90.131291,6.41137856 M57.2866521,6.41137856 L57.2866521,7.0678337 L85.0547046,7.0678337 L80.2407002,23.9606127 L74.6170678,23.9606127 L79.3873085,7.9868709 L72.5601751,7.9868709 L67.833698,23.9606127 L65.0547046,23.9606127 L69.5623632,7.9868709 L63.0634573,7.9868709 L58.5557987,23.9606127 L52.7133479,23.9606127 L57.9212254,6.6083151 L57.2866521,6.41137856 L57.2866521,7.0678337 L57.2866521,6.41137856 L56.6520788,6.21444201 L50.940919,25.2516411 L59.5404814,25.2516411 L64.04814,9.27789934 L67.833698,9.27789934 L63.3260394,25.2516411 L68.8183807,25.2516411 L73.5448578,9.27789934 L77.6367615,9.27789934 L72.8665208,25.2516411 L81.2472648,25.2516411 L86.8052516,5.73304158 L56.8052516,5.73304158 L56.6739606,6.19256018 L57.2866521,6.41137856 M39.8905908,6.41137856 L39.2560175,6.23632385 L33.7636761,25.273523 L49.0371991,25.273523 L50.0656455,21.3129103 L43.0853392,21.3129103 L46.4332604,9.32166302 L52.8884026,9.32166302 L54.3326039,5.77680525 L39.3873085,5.77680525 L39.2560175,6.25820569 L39.8905908,6.41137856 L39.8905908,7.0678337 L52.3851204,7.0678337 L52.0131291,7.9868709 L45.4266958,7.9868709 L41.356674,22.6039387 L48.380744,22.6039387 L48.0306346,23.9387309 L35.5142232,23.9387309 L40.5251641,6.58643326 L39.8905908,6.41137856 L39.8905908,7.0678337 L39.8905908,6.41137856 M18.8840263,18.3369803 L18.8840263,18.9934354 L25.4485777,18.9934354 L29.4967177,6.38949672 L28.3588621,5.77680525 L17.5054705,18.9934354 L18.9059081,18.9934354 L18.9059081,18.3369803 L19.4091904,18.7527352 L27.2210066,9.25601751 L24.5076586,17.6805252 L18.9059081,17.6805252 L18.9059081,18.3369803 L19.4091904,18.7527352 L18.8840263,18.3369803 M1.59737418,29.321663 L2.10065646,29.7374179 L26.1050328,1.3785558 L36.2363239,1.3785558 L29.8249453,23.9387309 L24.1575492,23.9387309 L25.0109409,20.6564551 L16.2363239,20.6564551 L9.58424508,28.6652079 L1.57549234,28.6652079 L1.57549234,29.321663 L2.07877462,29.7374179 L1.59737418,29.321663 L1.59737418,29.9781182 L10.2188184,29.9781182 L16.8271335,21.9693654 L23.3041575,21.9693654 L22.4507659,25.2516411 L30.7877462,25.2516411 L37.9431072,0.0656455142 L25.4704595,0.0656455142 L0.175054705,29.9781182 L1.59737418,29.9781182 L1.59737418,29.321663" id="Shape" fill="#FFFFFF" fill-rule="nonzero"></path>
                <path d="M98.7746171,27.1991247 L15.0765864,27.1991247 L13.7417943,29.321663 L97.8774617,29.321663 L98.7746171,27.1991247 M39.0153173,14.04814 C38.6652079,14.04814 38.4682713,13.785558 38.5557987,13.4573304 L40.2625821,7.50547046 C40.3501094,7.17724289 40.7221007,6.91466083 41.0503282,6.91466083 L51.9037199,6.91466083 C52.2538293,6.91466083 52.2757112,7.50547046 52.2319475,7.63676149 C52.166302,7.78993435 51.8380744,7.89934354 51.5098468,7.89934354 L46.1706783,7.89934354 C45.8205689,7.89934354 45.4704595,8.1619256 45.3829322,8.49015317 L44.0043764,13.4354486 C43.916849,13.7636761 43.5667396,14.0262582 43.2166302,14.0262582 L39.0153173,14.0262582 M53.3698031,6.41137856 L39.8905908,6.41137856 L34.6389497,24.6170678 L48.5339168,24.6170678 L49.2341357,21.9693654 L42.2319475,21.9693654 L45.95186,8.66520788 L52.4726477,8.66520788 L53.3698031,6.41137856 M56.345733,14.04814 C55.9956236,14.04814 55.7986871,13.785558 55.9080963,13.4573304 L57.702407,7.50547046 C57.8118162,7.17724289 58.1619256,6.91466083 58.4901532,6.91466083 L84.6170678,6.91466083 C84.9671772,6.91466083 85.1641138,7.17724289 85.0765864,7.50547046 L83.3698031,13.4573304 C83.2822757,13.785558 82.9102845,14.04814 82.5820569,14.04814 L78.249453,14.04814 C77.8993435,14.04814 77.702407,13.785558 77.8118162,13.4573304 L79.2997812,8.49015317 C79.3873085,8.1619256 79.190372,7.89934354 78.8621444,7.89934354 L73.3041575,7.89934354 C72.9540481,7.89934354 72.6039387,8.1619256 72.5164114,8.49015317 L71.0503282,13.4354486 C70.9628009,13.7636761 70.5908096,14.0262582 70.2625821,14.0262582 L68.512035,14.0262582 C68.1619256,14.0262582 67.9649891,13.7636761 68.0525164,13.4354486 L69.452954,8.49015317 C69.5404814,8.1619256 69.3435449,7.89934354 68.9934354,7.89934354 L63.8074398,7.89934354 C63.4573304,7.89934354 63.107221,8.1619256 63.0196937,8.49015317 L61.619256,13.4354486 C61.5317287,13.7636761 61.1816193,14.0262582 60.8315098,14.0262582 L56.345733,14.0262582 M85.9299781,6.41137856 L57.2866521,6.41137856 L51.8161926,24.6170678 L59.0371991,24.6170678 L63.5448578,8.64332604 L68.7089716,8.64332604 L64.2013129,24.6170678 L68.3369803,24.6170678 L73.0634573,8.64332604 L78.5339168,8.64332604 L73.7636761,24.6170678 L80.7658643,24.6170678 L85.9299781,6.41137856 M89.2122538,14.04814 C88.8621444,14.04814 88.6652079,13.785558 88.7746171,13.4573304 L90.5251641,7.50547046 C90.6126915,7.17724289 90.9846827,6.91466083 91.3129103,6.91466083 L95.7768053,6.91466083 C96.1269147,6.91466083 96.3238512,7.17724289 96.214442,7.50547046 L94.463895,13.4573304 C94.3763676,13.785558 94.0043764,14.04814 93.6761488,14.04814 L89.2122538,14.04814 M97.1334792,6.41137856 L90.131291,6.41137856 L84.7702407,24.6170678 L91.7724289,24.6170678 L97.1334792,6.41137856 M28.8840263,6.19256018 L24.9890591,18.3369803 L18.9059081,18.3369803 L28.8840263,6.19256018 M15.95186,14.04814 C15.6017505,14.04814 15.5142232,13.8293217 15.7330416,13.5667396 L25.7768053,1.70678337 C25.9956236,1.44420131 26.4551422,1.22538293 26.8052516,1.22538293 L35.7549234,1.22538293 C36.1050328,1.22538293 36.3019694,1.48796499 36.214442,1.81619256 L32.9102845,13.4354486 C32.8227571,13.7636761 32.4507659,14.0262582 32.1225383,14.0262582 L27.7242888,14.0262582 C27.3741794,14.0262582 27.1991247,13.7636761 27.2866521,13.4354486 L29.4091904,6.82713348 C29.5185996,6.49890591 29.3654267,6.10503282 29.059081,5.95185996 C28.9496718,5.88621444 28.8402626,5.8643326 28.7308534,5.8643326 C28.512035,5.8643326 28.2713348,5.95185996 28.1400438,6.12691466 L22.0350109,13.5667396 C21.8161926,13.8293217 21.356674,14.04814 21.0284464,14.04814 L15.95186,14.04814 M37.0897155,0.722100656 L25.7768053,0.722100656 L25.7549234,0.743982495 L25.9737418,1.0940919 L2.51641138,28.8840263 L1.61925602,29.2560175 L1.57549234,29.2997812 L9.89059081,29.2997812 L16.4989059,21.2910284 L24.1137856,21.2910284 L23.2603939,24.5733042 L30.2625821,24.5733042 L37.0897155,0.722100656 M92.428884,3.80743982 C92.0787746,3.80743982 91.8818381,3.54485777 91.9912473,3.2166302 L92.4070022,1.8380744 C92.4945295,1.50984683 92.8665208,1.24726477 93.1947484,1.24726477 L97.2210066,1.24726477 C97.571116,1.24726477 97.7461707,1.50984683 97.6586433,1.8380744 L97.2210066,3.23851204 C97.1115974,3.56673961 96.761488,3.82932166 96.4113786,3.82932166 L92.428884,3.82932166 M98.5557987,0.722100656 L91.9693654,0.722100656 L90.8533917,4.55142232 L97.3304158,4.55142232 L98.5557987,0.722100656" id="Shape" fill="url(#linearGradient-1)" fill-rule="nonzero"></path>
                <path d="M51.9256018,6.91466083 L41.0722101,6.91466083 C40.7221007,6.91466083 40.3719912,7.17724289 40.2844639,7.50547046 L38.5776805,13.4573304 C38.4901532,13.785558 38.6870897,14.04814 39.0371991,14.04814 L43.2603939,14.04814 C43.6105033,14.04814 43.9606127,13.785558 44.04814,13.4573304 L45.4266958,8.51203501 C45.5142232,8.18380744 45.8643326,7.92122538 46.214442,7.92122538 L51.5536105,7.92122538 C51.9037199,7.92122538 52.2319475,7.81181619 52.2757112,7.65864333 C52.3194748,7.50547046 52.2757112,6.91466083 51.9256018,6.91466083 M84.595186,6.91466083 L58.4682713,6.91466083 C58.1181619,6.91466083 57.7680525,7.17724289 57.6805252,7.50547046 L55.8862144,13.4573304 C55.7986871,13.785558 55.9956236,14.04814 56.3238512,14.04814 L60.8315098,14.04814 C61.1816193,14.04814 61.5317287,13.785558 61.619256,13.4573304 L63.0196937,8.51203501 C63.107221,8.18380744 63.4573304,7.92122538 63.8074398,7.92122538 L68.9934354,7.92122538 C69.3435449,7.92122538 69.5404814,8.18380744 69.452954,8.51203501 L68.0525164,13.4573304 C67.9649891,13.785558 68.1619256,14.04814 68.512035,14.04814 L70.2625821,14.04814 C70.6126915,14.04814 70.9628009,13.785558 71.0503282,13.4573304 L72.5164114,8.51203501 C72.6039387,8.18380744 72.97593,7.92122538 73.3041575,7.92122538 L78.8183807,7.92122538 C79.1684902,7.92122538 79.3654267,8.18380744 79.2560175,8.51203501 L77.7680525,13.4792123 C77.6586433,13.8074398 77.8774617,14.0700219 78.2056893,14.0700219 L82.5382932,14.0700219 C82.8884026,14.0700219 83.238512,13.8074398 83.3260394,13.4792123 L85.0328228,7.5273523 C85.1422319,7.17724289 84.9452954,6.91466083 84.595186,6.91466083 M95.7986871,6.91466083 L91.3347921,6.91466083 C90.9846827,6.91466083 90.6345733,7.17724289 90.547046,7.50547046 L88.7964989,13.4573304 C88.7089716,13.785558 88.9059081,14.04814 89.2341357,14.04814 L93.6980306,14.04814 C94.04814,14.04814 94.3982495,13.785558 94.4857768,13.4573304 L96.2363239,7.50547046 C96.3238512,7.17724289 96.1269147,6.91466083 95.7986871,6.91466083 M35.7549234,1.24726477 L26.8052516,1.24726477 C26.4551422,1.24726477 25.9956236,1.46608315 25.7768053,1.72866521 L15.7330416,13.5886214 C15.5142232,13.8512035 15.6236324,14.0700219 15.95186,14.0700219 L21.0065646,14.0700219 C21.356674,14.0700219 21.7943107,13.8512035 22.0131291,13.5886214 L28.0962801,6.19256018 C28.2275711,6.01750547 28.4682713,5.92997812 28.6870897,5.92997812 C28.7964989,5.92997812 28.9277899,5.95185996 29.0153173,6.01750547 C29.2997812,6.17067834 29.4748359,6.56455142 29.3654267,6.89277899 L27.2428884,13.5010941 C27.1334792,13.8293217 27.3304158,14.0919037 27.6805252,14.0919037 L32.0787746,14.0919037 C32.428884,14.0919037 32.7789934,13.8293217 32.8665208,13.5010941 L36.1706783,1.88183807 C36.3019694,1.50984683 36.083151,1.24726477 35.7549234,1.24726477 M97.1991247,1.24726477 L93.1728665,1.24726477 C92.8227571,1.24726477 92.4726477,1.50984683 92.3851204,1.8380744 L91.9693654,3.2166302 C91.8818381,3.54485777 92.0787746,3.80743982 92.4070022,3.80743982 L96.3676149,3.80743982 C96.7177243,3.80743982 97.0678337,3.54485777 97.1772429,3.2166302 L97.6148796,1.81619256 C97.7461707,1.50984683 97.5492341,1.24726477 97.1991247,1.24726477" id="Shape" fill="url(#linearGradient-2)" fill-rule="nonzero"></path>
                <polyline id="Shape" fill="url(#linearGradient-3)" fill-rule="nonzero" points="25.7330416 0.722100656 1.5536105 29.2997812 1.64113786 29.2778993 25.7549234 0.765864333 25.7330416 0.722100656"></polyline>
                <path d="M95.8424508,22.2538293 C95.6236324,22.4726477 95.5142232,22.7352298 95.5142232,23.0415755 C95.5142232,23.3479212 95.6236324,23.6105033 95.8424508,23.8293217 C96.0612691,24.04814 96.3238512,24.1575492 96.6301969,24.1575492 C96.9365427,24.1575492 97.1991247,24.04814 97.4179431,23.8293217 C97.6367615,23.6105033 97.7461707,23.3479212 97.7461707,23.0415755 C97.7461707,22.7352298 97.6367615,22.4726477 97.4179431,22.2538293 C97.1991247,22.0350109 96.9365427,21.9256018 96.6301969,21.9256018 C96.3238512,21.9256018 96.0612691,22.0350109 95.8424508,22.2538293 Z M97.571116,24.0043764 C97.3085339,24.2669584 97.0021882,24.3763676 96.6301969,24.3763676 C96.2582057,24.3763676 95.9299781,24.2450766 95.6673961,23.9824945 C95.404814,23.7199125 95.273523,23.4135667 95.273523,23.0196937 C95.273523,22.6258206 95.404814,22.297593 95.6892779,22.0350109 C95.95186,21.7943107 96.2582057,21.6630197 96.6083151,21.6630197 C96.9803063,21.6630197 97.2866521,21.7943107 97.5492341,22.0568928 C97.8118162,22.3194748 97.9431072,22.6258206 97.9431072,22.9978118 C97.9868709,23.4135667 97.8555799,23.7417943 97.571116,24.0043764 Z M96.761488,22.5820569 C96.7177243,22.5601751 96.6301969,22.5601751 96.5426696,22.5601751 L96.4551422,22.5601751 L96.4551422,22.9978118 L96.6083151,22.9978118 C96.6958425,22.9978118 96.761488,22.97593 96.8271335,22.9540481 C96.8708972,22.9102845 96.892779,22.8665208 96.892779,22.7789934 C96.892779,22.6695842 96.8490153,22.6258206 96.761488,22.5820569 Z M96.0612691,23.785558 L96.0612691,22.297593 C96.1487965,22.297593 96.3019694,22.297593 96.4770241,22.297593 C96.6520788,22.297593 96.761488,22.297593 96.7833698,22.297593 C96.892779,22.297593 97.0021882,22.3413567 97.0678337,22.3632385 C97.1991247,22.428884 97.2647702,22.5601751 97.2647702,22.7133479 C97.2647702,22.8446389 97.2210066,22.9321663 97.1553611,22.97593 C97.0897155,23.0415755 97.0021882,23.0634573 96.892779,23.0853392 C96.9803063,23.107221 97.0459519,23.1291028 97.1115974,23.1728665 C97.1991247,23.238512 97.2428884,23.3479212 97.2428884,23.5010941 L97.2428884,23.6323851 C97.2428884,23.654267 97.2428884,23.654267 97.2428884,23.6761488 C97.2428884,23.6980306 97.2428884,23.6980306 97.2428884,23.7199125 L97.2647702,23.7636761 L96.892779,23.7636761 C96.8708972,23.7199125 96.8708972,23.654267 96.8708972,23.5667396 C96.8708972,23.4792123 96.8490153,23.4135667 96.8490153,23.3916849 C96.8271335,23.3479212 96.7833698,23.3041575 96.7396061,23.2822757 C96.7177243,23.2603939 96.6739606,23.2603939 96.6083151,23.2603939 L96.5207877,23.2603939 L96.4332604,23.2603939 L96.4332604,23.785558 L96.0612691,23.785558 Z" id="Shape" fill="#4599D8"></path>
            </g>
        </g>
    </g>
</svg>