<svg xmlns="http://www.w3.org/2000/svg" xmlns:xlink="http://www.w3.org/1999/xlink" width="110" height="35" viewBox="0 0 110 35">
    <defs>
        <path id="a" d="M.356.662h109.399v34.16H.356z"/>
        <path id="c" d="M.356.662h109.399v34.16H.356z"/>
    </defs>
    <g fill="none" fill-rule="evenodd">
        <g>
            <mask id="b" fill="#fff">
                <use xlink:href="#a"/>
            </mask>
            <path fill="#231F20" fill-rule="nonzero" d="M60.703 30.042h-.72V31.7c0 .339-.053.608-.162.808-.201.37-.58.554-1.122.554h-.003c-.379 0-.645-.104-.791-.321a.781.781 0 0 1-.117-.447v-2.252h-.735v2.306c0 .289.063.515.187.685.229.316.667.48 1.319.48.418 0 .772-.09 1.061-.266.146-.09.268-.197.366-.323l.052-.068-.01.563h.675v-3.377zm18.481 0h-.792l-1.259 2.84-1.252-2.84h-.812l1.688 3.506-.201.369c-.09.158-.14.243-.158.267l-.003.002-.173.13-.002.002-.002.002a.71.71 0 0 1-.327.057l-.16-.01h-.002a4.392 4.392 0 0 1-.262-.045v.464c.077.016.14.026.19.031.013 0 .026.002.042.004h.39c.348-.024.596-.117.746-.275.177-.186.494-.723.94-1.597.19-.374.424-.853.706-1.444l.004-.009-.004.009c.35-.735.587-1.223.703-1.463zm-15.48-.076c-.3 0-.566.08-.795.245-.234.163-.379.302-.434.41l-.051-.016v-.563h-.68v3.376h.719V31.47c0-.253.109-.478.324-.667h-.001c.216-.197.523-.29.916-.29h.001l.124.003h.001l.1.011v-.549l-.15-.012-.073-.001zm1.64.737c.245-.197.55-.294.91-.294.5 0 .864.14 1.083.427.12.157.193.361.226.615l.004.034h-.032v-.029.03h-2.587l.002-.032a.98.98 0 0 1 .393-.751zm.957-.737c-.643 0-1.161.17-1.556.509-.396.34-.591.778-.592 1.32.001.554.194.979.587 1.285.392.307.871.461 1.44.461.234 0 .442-.017.627-.052.344-.059.631-.174.862-.343.138-.095.261-.22.372-.372a1.06 1.06 0 0 0 .19-.375h-.708c-.06.15-.158.281-.293.394v.002c-.247.204-.577.304-.984.304-.436 0-.765-.106-.978-.323-.213-.217-.325-.505-.34-.86l-.002-.031h3.377c-.002-.33-.025-.572-.067-.72v-.002h-.001a1.292 1.292 0 0 0-.303-.592c-.155-.177-.386-.323-.69-.436a2.655 2.655 0 0 0-.94-.17zm20.68.737c.246-.197.55-.294.91-.294.5 0 .864.14 1.084.427.12.157.193.361.225.615l.004.034h-.031v-.029.03h-2.587l.001-.032a.982.982 0 0 1 .393-.751zm.958-.737c-.644 0-1.161.17-1.557.509-.395.34-.59.778-.591 1.32 0 .552.194.979.586 1.285.393.307.873.461 1.441.461.233 0 .442-.017.627-.052.344-.059.631-.174.862-.343.138-.095.261-.22.372-.372.1-.138.164-.264.19-.375h-.709a.985.985 0 0 1-.292.394v.002c-.248.204-.577.304-.985.304-.435 0-.763-.106-.977-.323-.213-.217-.326-.505-.34-.86l-.002-.031h3.376c-.001-.33-.025-.572-.068-.72v-.002a1.29 1.29 0 0 0-.302-.592c-.156-.177-.386-.323-.69-.436a2.654 2.654 0 0 0-.941-.17zm7.486 0a2.14 2.14 0 0 0-.774.132 1.58 1.58 0 0 0-.594.399l-.024.026-.019-.028a1.152 1.152 0 0 0-.335-.333c-.219-.13-.508-.197-.872-.197-.32 0-.605.064-.856.191a2.44 2.44 0 0 0-.493.365l-.046.044v-.523h-.71v3.376h.719v-1.792c-.001-.448.12-.768.37-.944.244-.172.516-.259.813-.259.325 0 .554.082.68.252v.002c.08.114.118.292.118.528v2.212h.732v-1.969c-.001-.361.11-.629.339-.786.224-.154.493-.233.8-.233.224 0 .416.044.573.132.163.09.248.263.246.5v2.355h.748v-2.257c0-.3-.058-.536-.176-.707-.214-.321-.625-.486-1.24-.486zm-40.96-.014c-.529 0-.946.1-1.256.297h.001c-.307.198-.455.45-.455.764 0 .26.155.465.482.62.182.087.47.17.862.243l.614.115c.33.06.552.116.667.165h.001c.18.078.28.202.28.365 0 .208-.12.366-.345.46-.222.094-.476.141-.767.141-.484 0-.828-.092-1.032-.286a.724.724 0 0 1-.2-.436h-.689c.027.32.173.587.442.81.278.224.757.34 1.439.34h.001c.634 0 1.101-.111 1.404-.328l.002-.002-.002.002c.308-.22.456-.474.456-.768-.001-.306-.142-.523-.435-.669h-.001c-.183-.09-.555-.19-1.11-.29l-.511-.092a2.387 2.387 0 0 1-.515-.143h.001c-.2-.092-.313-.222-.313-.388 0-.15.085-.273.239-.357.158-.087.384-.13.679-.13.44 0 .754.076.94.236l.002.001c.106.103.17.221.19.348h.678c-.003-.202-.09-.39-.27-.57-.298-.295-.79-.448-1.48-.448zm18.457 0c-.527 0-.945.1-1.254.297-.307.198-.454.45-.455.764 0 .26.155.465.483.62.182.087.469.17.861.243l.615.115c.33.06.551.116.667.165.18.078.281.202.28.365.001.208-.12.366-.344.46a1.96 1.96 0 0 1-.767.141c-.485 0-.829-.092-1.032-.286h-.001a.728.728 0 0 1-.199-.436h-.69c.028.32.173.587.443.81.278.224.758.34 1.438.34h.002c.633 0 1.1-.111 1.403-.328.307-.22.455-.474.456-.768 0-.306-.142-.523-.435-.669-.184-.09-.556-.19-1.11-.29l-.512-.092a2.336 2.336 0 0 1-.513-.143c-.201-.092-.314-.222-.314-.388 0-.15.084-.273.24-.357.156-.087.383-.13.677-.13.441 0 .755.076.942.236v.001h.001c.106.103.17.221.19.348h.679c-.004-.202-.091-.39-.27-.57-.298-.295-.791-.448-1.481-.448zm8.32 0c-.53 0-.946.1-1.255.297-.307.198-.455.45-.455.764 0 .26.155.465.482.62.182.087.47.17.862.243l.614.115c.331.06.552.116.668.165.18.078.28.202.28.365 0 .208-.122.365-.344.46-.223.094-.478.141-.768.141-.484 0-.828-.092-1.033-.286a.733.733 0 0 1-.199-.436h-.689c.027.32.173.587.443.81.277.224.757.34 1.438.34h.002c.633 0 1.1-.111 1.402-.328.308-.22.456-.474.457-.768-.001-.306-.142-.523-.435-.669-.185-.09-.556-.19-1.111-.29l-.511-.092a2.35 2.35 0 0 1-.514-.143v-.001.001c-.2-.092-.313-.222-.313-.388-.001-.15.085-.273.238-.357.159-.087.384-.13.68-.13.44 0 .754.076.94.236l.001.001c.107.103.171.221.191.348h.68c-.005-.202-.093-.39-.271-.57-.298-.295-.791-.448-1.48-.448zm18.105 0c-.527 0-.944.1-1.253.297-.307.198-.455.45-.455.764 0 .26.154.465.481.62.183.087.47.17.863.243l.613.115c.33.06.552.116.669.165.18.078.28.202.28.365 0 .208-.122.365-.344.46a1.97 1.97 0 0 1-.768.141c-.484 0-.83-.092-1.033-.286a.724.724 0 0 1-.199-.436h-.689c.027.32.173.587.443.81.276.224.756.34 1.435.34h.004c.634 0 1.101-.111 1.402-.328.308-.22.456-.474.457-.768-.002-.306-.141-.523-.434-.669-.186-.09-.556-.19-1.111-.29l-.511-.092a2.322 2.322 0 0 1-.514-.143c-.202-.092-.314-.222-.313-.388-.001-.15.084-.273.239-.357.157-.087.384-.13.677-.13.442 0 .754.076.942.236l.001.001a.62.62 0 0 1 .191.348h.678c-.003-.202-.09-.39-.27-.57-.298-.295-.79-.448-1.48-.448zm-55.215-.011c-.604 0-1.097.167-1.484.5-.386.33-.578.788-.578 1.384 0 .485.175.885.527 1.21.353.322.825.482 1.423.482.532 0 .968-.102 1.304-.31.328-.203.535-.514.625-.944h-.698c-.074.25-.206.45-.395.598-.193.15-.452.224-.777.224h-.001c-.423 0-.738-.12-.94-.363-.2-.241-.3-.538-.3-.89 0-.347.071-.641.212-.879l.001-.003-.001.003c.216-.368.58-.552 1.079-.552h.003c.363 0 .632.07.803.217a.955.955 0 0 1 .319.52h.698c-.07-.435-.259-.737-.57-.916-.32-.185-.736-.281-1.25-.281zm5.923 3.166c-.47 0-.82-.123-1.043-.375-.22-.25-.33-.565-.33-.937 0-.386.11-.72.33-.994.222-.277.575-.415 1.051-.415h.001c.537 0 .924.162 1.148.488.141.207.212.474.212.8 0 .36-.097.69-.293.986-.197.301-.56.447-1.076.447zm.03-3.166c-.658 0-1.177.17-1.564.507-.386.337-.578.787-.58 1.357.002.532.184.95.55 1.267.366.313.862.472 1.491.472.755 0 1.309-.18 1.663-.536.355-.355.532-.804.532-1.352 0-.566-.2-.986-.603-1.28-.404-.287-.9-.435-1.488-.435zm34.642-.86H84v.96h-.622v.412H84v2.305c0 .215.062.386.186.517.119.13.354.199.71.199h.005a2.73 2.73 0 0 0 .56-.051v-.398l-.12.007h-.122a.976.976 0 0 1-.31-.036.266.266 0 0 1-.182-.27v-2.273h.735v-.411h-.735v-.961zm-37.445-.316h-.718v4.653h.718v-4.653zM66.978 12.44c1.087 0 1.969.948 1.969 2.117 0 1.17-.881 2.119-1.969 2.119h-6.356V12.44h6.356zm2.415-3.336H56.546l.028 17.576h4.05V20.22h5.444c.096-.009.188-.014.277-.014h.003c.562 0 .998.179 1.445.622.604.596.68 1.43.68 2.125 0 1.981.265 3.518.302 3.726h4.3c-.037-.212-.233-1.349-.412-2.308-.08-.424-.09-.875-.09-1.345l.002-.472c0-.728-.022-1.488-.274-2.235-.199-.593-.6-1.062-.952-1.384-.354-.32-.655-.492-.655-.493l-.011-.006-.063-.264-.006-.024.022-.01c1.12-.529 2.583-1.71 2.584-4.319 0-2.138-.956-3.314-1.914-3.959a4.921 4.921 0 0 0-1.317-.621c-.345-.104-.577-.133-.596-.136zM43.068 19.47l2.192-5.54 2.507 5.54h-.044v-.029.03h-4.655zm4.327-10.574h-3.903l-7.516 17.786h4.24l1.51-3.816h7.58l1.727 3.816h4.463l-8.1-17.786zm53.199-.122h-3.939l.016 17.678 13.027.019v-3.515h-9.104V8.773zm-21.59 9.15c0-1.69.642-3.22 1.684-4.324 1.041-1.106 2.48-1.792 4.068-1.792 1.589 0 3.027.686 4.07 1.792 1.04 1.105 1.684 2.635 1.684 4.323a6.297 6.297 0 0 1-1.685 4.323c-1.042 1.107-2.48 1.79-4.069 1.79s-3.027-.683-4.068-1.79c-1.041-1.106-1.685-2.635-1.685-4.323zm5.739-9.63c-2.813 0-5.359 1.083-7.201 2.83-1.842 1.75-2.981 4.164-2.981 6.83 0 2.667 1.139 5.08 2.98 6.828 1.843 1.748 4.39 2.831 7.201 2.831 2.813 0 5.359-1.083 7.2-2.83 1.843-1.749 2.981-4.162 2.981-6.83 0-2.666-1.138-5.08-2.98-6.827-1.842-1.75-4.388-2.832-7.2-2.832zm-53.99 24.058l1.513-2.82.808 1.502-.71 1.318h-.016v-.03.03h-1.595zM3.449 31.027l-.025-.016.8-1.485L5.74 32.35H4.127l-.71-1.324.007-.016.025.016zm24.561 1.324l2.883-5.37.024.045.718 1.334-2.142 3.991H28.01zm-21.012 0l-2.145-3.994.742-1.382 2.887 5.376h-.048v-.03.03H6.998zm18.175 0l4.3-8.014.024.047.75 1.395-3.527 6.572h-1.547zm-15.401 0l-3.53-6.577.773-1.442 4.305 8.019h-.048v-.03.03h-1.5zm12.659 0l5.67-10.564.024.045.686 1.276-4.963 9.244h-1.417v-.001zm-9.788 0l-4.966-9.248.71-1.32 5.675 10.569h-.049v-.03.03h-1.37v-.001zm6.95 0l7.087-13.207.025.045.755 1.407-6.31 11.755h-1.557zm-4.252 0l-6.314-11.76.78-1.45L16.9 32.35h-.048v-.03.03h-1.51zm-4.855-14.41l-.024-.017.016-.033.008-.014 15.566.036-7.75 14.438h-.111l-7.738-14.41.009-.017.024.016zm.695-1.296l-.025-.015.757-1.408h12.66l.78 1.453h-14.22l.023-.045.025.015zm1.421-2.643l-.024-.015.687-1.278h9.957l.71 1.321H12.554l.024-.044.024.016zm1.374-2.553l-.024-.016.75-1.397h7.081l.776 1.442h-8.632l.025-.045.024.016zm1.42-2.645l-.023-.015.718-1.337h4.304l.743 1.382h-5.79l.025-.045.024.015zm1.325-2.524l.808-1.502h1.428l.01.015.798 1.487h-3.044zM18.253.782L.453 33.89H36.05L18.253.782z" mask="url(#b)"/>
        </g>
        <g>
            <mask id="d" fill="#fff">
                <use xlink:href="#c"/>
            </mask>
            <path fill="#231F20" fill-rule="nonzero" d="M98.438 32.79v.002h.001v-.002zM43.051 30.95l-.001.004.001-.004zm21.957.478a.92.92 0 0 1 .368-.676c.235-.188.527-.282.878-.282.491 0 .835.137 1.04.405.105.139.176.321.209.553h-2.495zm1.245-1.018c-.36 0-.665.097-.91.294a.989.989 0 0 0-.395.752l-.002.031h2.587v-.03.03h.033l-.004-.034c-.034-.254-.108-.46-.226-.615-.219-.287-.583-.428-1.083-.428zm20.391 1.018a.929.929 0 0 1 .37-.676c.235-.188.526-.282.878-.282.49 0 .835.137 1.04.405.105.139.175.321.209.553h-2.497zm1.248-1.018c-.36 0-.665.097-.912.294a.99.99 0 0 0-.393.752l-.002.031h2.587v-.03.03h.031l-.004-.034c-.032-.254-.106-.46-.225-.615-.22-.287-.583-.428-1.082-.428zm-37.828-.023c-.477 0-.831.135-1.053.415a1.54 1.54 0 0 0-.328.996c-.001.372.109.685.329.935.223.252.572.375 1.043.375.518 0 .88-.146 1.077-.446l-.023-.018-.022-.018c-.183.278-.522.42-1.03.42-.464 0-.796-.121-1.003-.355-.21-.24-.316-.536-.316-.893 0-.376.106-.693.317-.957.208-.261.54-.393 1.01-.395.528.002.893.159 1.104.464.133.195.2.448.2.764 0 .35-.093.666-.282.952l.022.018.023.018c.195-.296.293-.626.293-.987 0-.325-.07-.592-.212-.799-.225-.327-.611-.49-1.149-.49zm9.756 2.122c.11-.199.163-.47.163-.808v-1.658h.719v3.378h-.675l.01-.565-.051.068c-.099.127-.221.235-.367.323-.29.177-.642.266-1.061.266-.652 0-1.09-.164-1.318-.48h-.001c-.123-.168-.187-.395-.187-.685v-2.305h.735v2.251c0 .179.038.33.117.447.146.217.413.32.791.32h.003c.542.002.921-.182 1.122-.552zm-2.005-2.496v.03-.03zm2.942-.03h-.83V31.7c0 .333-.052.592-.155.776-.19.348-.542.525-1.077.525-.37 0-.616-.1-.746-.295a.72.72 0 0 1-.106-.412v-2.312h-.847v2.366c0 .3.065.539.2.722.246.339.702.503 1.361.503.426 0 .788-.092 1.089-.275.127-.078.238-.168.331-.276l-.009.457h.788v-3.498h.001zm18.52 0h-.902v.03l.025.013-.025-.013v-.03h-.018l-1.224 2.759-1.216-2.76h-.94l1.715 3.566-.186.339a4.569 4.569 0 0 1-.15.257l-.166.123a.653.653 0 0 1-.298.051h-.002l-.157-.009a3.382 3.382 0 0 1-.29-.05l-.032-.008v.572h.287l-.041-.003a3.047 3.047 0 0 1-.19-.031v-.464c.119.024.205.038.261.044v.002h.002l.16.008a.721.721 0 0 0 .328-.056l.001-.002h.002l.174-.132.002-.002c.02-.022.069-.11.158-.267l.201-.369-1.688-3.506h.812l1.252 2.839 1.26-2.839h.791c-.117.24-.353.728-.704 1.465l.004-.01-.004.01c-.282.59-.516 1.07-.707 1.443-.445.874-.762 1.411-.94 1.597-.15.159-.398.252-.746.275h.374a.887.887 0 0 0 .411-.231c.19-.2.503-.735.95-1.612.19-.372.425-.853.707-1.444.374-.787.617-1.29.726-1.508l.024-.048zm-16.802.639c.055-.108.2-.247.434-.41.23-.164.495-.245.796-.247l.073.004.15.012v.55l-.1-.012-.125-.003c-.395 0-.702.095-.917.288-.214.191-.323.416-.323.67v1.946h-.718v-3.377h.679v.563l.051.016zm1.232-.716c-.312 0-.589.085-.828.255-.188.13-.32.246-.4.35v-.529h-.791v3.498h.83v-2.007c0-.235.098-.44.303-.622.202-.182.495-.275.88-.275l.123.002.159.018v-.673l-.027-.001-.176-.013-.073-.003zm2.474 3.636c-.569 0-1.049-.154-1.44-.46-.393-.308-.586-.732-.587-1.284 0-.546.196-.982.592-1.322.395-.34.912-.51 1.556-.51.324 0 .638.056.94.17.304.114.535.26.69.437.152.168.253.366.303.592v.002c.043.15.066.39.068.718h-3.377l.002.033c.016.354.127.643.34.86.213.217.54.323.978.323.407 0 .738-.1.984-.304.135-.113.233-.247.293-.396h.708a1.033 1.033 0 0 1-.19.375c-.11.152-.234.277-.372.372a2.03 2.03 0 0 1-.862.343 3.406 3.406 0 0 1-.626.051zm.12-3.636c-.653 0-1.184.173-1.591.523-.408.35-.612.81-.612 1.369-.001.566.203 1.015.608 1.332.404.315.895.471 1.473.471h.001c.237 0 .449-.018.636-.052.351-.061.645-.178.884-.352.144-.099.272-.23.385-.386.117-.158.186-.302.208-.436l.005-.035h-.813l-.007.02a.927.927 0 0 1-.283.387c-.235.195-.55.292-.95.292-.43 0-.741-.104-.94-.306h.001c-.194-.2-.302-.461-.322-.79h3.373v-.029c0-.348-.022-.603-.07-.766a1.354 1.354 0 0 0-.315-.618c-.165-.186-.403-.335-.712-.452a2.697 2.697 0 0 0-.959-.172zM87.82 33.54c-.57 0-1.049-.154-1.44-.46-.393-.308-.586-.732-.587-1.284 0-.546.196-.982.591-1.322.395-.34.913-.51 1.557-.51.323 0 .636.056.94.17.304.114.533.26.69.437.152.168.252.366.302.592v.002c.043.15.067.39.068.718h-3.376l.002.033c.015.354.127.643.34.86.214.217.54.323.977.323.408 0 .738-.1.985-.304a.99.99 0 0 0 .292-.396h.708a1.047 1.047 0 0 1-.19.375c-.11.152-.233.277-.371.372a2.03 2.03 0 0 1-.862.343 3.406 3.406 0 0 1-.626.051zm.12-3.636c-.652 0-1.185.173-1.591.523-.407.35-.613.81-.613 1.369 0 .566.204 1.015.61 1.332.402.315.895.471 1.472.471h.001c.236 0 .448-.018.636-.052.35-.061.644-.178.883-.352.143-.099.272-.23.386-.386.116-.158.186-.302.207-.436l.006-.035h-.813l-.007.02a.922.922 0 0 1-.284.387c-.234.195-.55.292-.95.292-.429 0-.74-.104-.939-.306-.195-.2-.301-.461-.32-.79h3.373v-.029c-.001-.348-.024-.603-.07-.766h-.001a1.346 1.346 0 0 0-.316-.618c-.165-.186-.401-.335-.712-.452a2.734 2.734 0 0 0-.958-.172zm6.094.617l.024-.022c.168-.18.365-.315.594-.402.229-.088.487-.133.774-.133.614.002 1.025.167 1.24.49.118.172.176.407.176.707v2.26h-.748v-2.36c.002-.235-.083-.407-.247-.497a1.144 1.144 0 0 0-.572-.132c-.308 0-.576.076-.8.233-.229.157-.34.426-.34.786v1.97h-.73V31.21c-.002-.239-.039-.414-.12-.529-.126-.171-.355-.253-.679-.253-.297 0-.569.087-.814.259-.249.175-.37.495-.37.944v1.793h-.717v-3.378h.708v.523l.047-.043c.182-.168.346-.289.493-.363.25-.13.536-.195.856-.195.363 0 .653.067.872.2.122.075.233.184.335.332l.018.023zm1.392-.617a2.17 2.17 0 0 0-.793.137l.001-.002a1.64 1.64 0 0 0-.593.392c-.1-.14-.212-.248-.334-.323-.23-.137-.53-.204-.9-.204-.327 0-.62.065-.878.198-.14.073-.293.182-.46.332v-.454H90.647v3.498h.83v-1.852c0-.44.117-.731.345-.893.236-.166.496-.249.783-.249.318 0 .528.08.636.23.069.097.106.262.106.492v2.273h.843v-2.03c0-.349.104-.588.315-.734.215-.148.47-.223.77-.223.218 0 .399.042.547.126.144.08.215.222.216.443v2.419h.86v-2.318c0-.31-.06-.556-.186-.742-.233-.35-.665-.516-1.287-.516zM53.342 32.37v.029-.03zm-.133-2.122c.31-.197.727-.297 1.255-.297.69 0 1.183.15 1.481.448.18.18.267.368.27.57h-.678a.617.617 0 0 0-.19-.348v-.001h-.001c-.187-.16-.5-.235-.941-.235-.295 0-.522.042-.68.129-.154.085-.239.206-.238.357 0 .166.112.296.313.387.119.055.29.102.514.144l.51.092c.556.1.928.199 1.111.29.294.146.435.363.435.67 0 .293-.148.546-.455.767l.002-.002-.002.002c-.303.217-.771.328-1.404.328h-.001c-.682 0-1.16-.116-1.439-.34-.27-.223-.415-.49-.442-.81h.69a.724.724 0 0 0 .199.436c.203.195.547.286 1.032.286.29 0 .545-.047.767-.14.224-.095.345-.252.345-.461 0-.164-.1-.287-.28-.365-.117-.049-.338-.102-.668-.165l-.614-.117c-.392-.073-.68-.153-.862-.24-.328-.156-.482-.36-.483-.621 0-.314.148-.566.454-.764zm1.255-.356c-.534 0-.961.1-1.283.306-.318.204-.483.478-.482.815 0 .29.18.52.516.676.19.09.48.172.875.246l.615.115c.327.06.549.117.656.162.17.077.244.175.244.31 0 .18-.096.313-.309.404-.213.091-.463.136-.746.136h-.003c-.477 0-.807-.094-.992-.272v.002c-.1-.099-.162-.238-.184-.426l-.004-.026h-.798l.002.031c.02.352.178.649.466.886.296.239.786.353 1.473.353.64 0 1.117-.112 1.435-.34.316-.225.48-.5.48-.818.002-.326-.16-.574-.467-.722-.195-.097-.568-.195-1.125-.295l-.51-.093a2.336 2.336 0 0 1-.502-.139c-.193-.09-.278-.2-.278-.332 0-.125.063-.222.208-.304.145-.082.364-.123.654-.123h.003c.433 0 .735.078.903.222a.55.55 0 0 1 .174.335l.003.028h.783l.001-.03v-.017c0-.226-.098-.436-.289-.63-.315-.31-.823-.46-1.519-.46zM71.8 32.371v.029-.03zm-.132-2.122c.31-.197.727-.297 1.254-.297.69 0 1.183.15 1.481.448.18.18.267.368.27.57h-.679a.61.61 0 0 0-.189-.348v-.001c-.189-.16-.501-.235-.944-.235-.293 0-.52.042-.677.129-.156.085-.24.206-.239.357 0 .166.112.296.313.387.119.055.29.102.514.144l.512.092c.554.1.926.199 1.11.29.293.146.434.363.435.67 0 .293-.149.546-.457.767-.301.217-.77.328-1.402.328h-.002c-.68 0-1.16-.116-1.438-.34-.27-.223-.415-.49-.443-.81h.69a.728.728 0 0 0 .199.436c.204.195.548.286 1.033.286.289 0 .545-.047.766-.14h.001c.223-.095.345-.252.344-.461.001-.164-.1-.287-.28-.365-.116-.049-.337-.102-.667-.165l-.615-.117c-.392-.073-.68-.153-.861-.24-.329-.156-.482-.36-.483-.621 0-.314.147-.566.454-.764zm1.254-.356c-.534 0-.96.1-1.282.306-.319.204-.483.478-.482.815-.001.29.177.52.516.676.19.09.48.172.874.246l.614.115c.329.06.55.117.657.162.169.077.244.175.245.31-.002.18-.097.313-.31.404-.214.091-.463.136-.745.136h-.004c-.476 0-.808-.094-.991-.272-.101-.097-.163-.236-.185-.424l-.004-.026h-.798l.002.031c.02.352.178.649.466.886.295.239.787.353 1.474.353.638 0 1.116-.112 1.433-.34.318-.225.482-.5.48-.818.002-.326-.158-.574-.466-.722h.001c-.195-.097-.569-.195-1.125-.295l-.512-.093a2.36 2.36 0 0 1-.5-.139c-.193-.09-.279-.2-.279-.332 0-.125.064-.222.209-.304.144-.082.362-.123.651-.123h.004c.434 0 .736.078.904.222a.544.544 0 0 1 .175.335l.002.028h.784v-.048c0-.226-.098-.436-.289-.627v.001-.001c-.315-.312-.822-.462-1.52-.462zm7.196 2.478v.029-.03zm-.131-2.122c.309-.197.726-.297 1.254-.297.69 0 1.184.15 1.481.448v-.002c.18.183.267.37.27.572h-.678a.617.617 0 0 0-.19-.348l-.001-.001h-.001c-.186-.16-.5-.235-.94-.235-.296 0-.521.042-.68.129-.154.085-.24.206-.238.357 0 .166.112.296.313.387.118.055.29.102.514.144l.51.092c.556.1.927.199 1.112.29.293.146.434.363.435.67-.001.293-.15.546-.457.767-.302.217-.77.328-1.403.328h-.001c-.681 0-1.162-.116-1.439-.34-.27-.223-.415-.49-.442-.81h.689a.733.733 0 0 0 .2.436c.203.195.548.286 1.032.286.29 0 .544-.047.767-.14.224-.095.345-.252.344-.461 0-.164-.098-.287-.279-.365-.116-.049-.336-.102-.668-.165l-.615-.117c-.39-.073-.68-.153-.861-.24-.328-.156-.482-.36-.483-.621 0-.314.148-.566.455-.764zm1.254-.356c-.534 0-.96.1-1.283.306-.318.204-.483.478-.482.815 0 .29.179.52.516.676.19.09.48.172.875.246l.615.115c.327.06.548.117.656.162.17.077.244.175.245.31-.002.18-.098.313-.31.404-.215.091-.464.136-.746.136h-.003c-.476 0-.807-.094-.993-.272v.002c-.1-.099-.16-.238-.184-.426l-.003-.026h-.798l.002.031c.02.352.178.649.466.886.295.239.785.353 1.474.353.639 0 1.117-.112 1.433-.34.317-.225.482-.5.481-.818.002-.326-.16-.574-.467-.722-.195-.097-.567-.195-1.124-.295l-.511-.093a2.326 2.326 0 0 1-.501-.139c-.194-.09-.28-.2-.28-.332 0-.125.065-.222.208-.304.146-.082.363-.123.655-.123h.002c.434 0 .735.078.903.222a.544.544 0 0 1 .176.335l.002.028h.783v-.05c0-.224-.098-.434-.287-.625v.001-.001c-.316-.312-.823-.462-1.52-.462zm16.985 2.478v.029-.03zm-.132-2.122c.309-.197.726-.297 1.253-.297.69 0 1.183.15 1.482.448v-.002c.18.183.267.37.27.572h-.678a.622.622 0 0 0-.19-.348l-.001-.001h-.001c-.188-.16-.5-.235-.942-.235-.294 0-.52.042-.677.129-.156.085-.24.206-.24.357 0 .166.112.296.314.387.118.055.288.102.514.144l.51.092c.556.1.926.199 1.112.29.292.146.432.363.434.67-.001.293-.15.546-.457.767-.3.217-.769.328-1.402.328h-.004c-.679 0-1.16-.116-1.436-.34-.27-.223-.416-.49-.442-.81h.689a.724.724 0 0 0 .2.436c.202.195.548.286 1.032.286.289 0 .544-.047.767-.14.223-.095.345-.252.345-.461 0-.164-.1-.287-.28-.365-.117-.049-.338-.102-.669-.165l-.614-.117c-.392-.073-.68-.153-.862-.24-.328-.156-.48-.36-.482-.621.001-.314.148-.566.455-.764zm1.253-.356c-.533 0-.96.1-1.282.306l.001-.002-.001.002c-.318.204-.483.478-.482.815 0 .29.178.52.515.676.19.09.481.172.875.246l.614.115c.329.06.55.117.657.162.17.077.244.175.245.31-.001.18-.098.313-.31.404-.214.091-.462.136-.745.136h-.003c-.476 0-.808-.094-.993-.27-.1-.099-.162-.238-.185-.426l-.003-.026h-.797l.001.031c.02.352.178.649.467.886.294.239.785.353 1.473.353.639 0 1.118-.112 1.434-.34.317-.225.481-.5.48-.818.001-.326-.158-.574-.467-.722-.193-.097-.567-.195-1.124-.295l-.511-.093a2.345 2.345 0 0 1-.5-.139h-.001c-.193-.09-.28-.2-.28-.332.001-.125.065-.222.21-.304.145-.082.363-.123.652-.123h.003c.434 0 .736.078.904.222a.552.552 0 0 1 .176.335l.002.028h.783v-.05c0-.226-.098-.434-.288-.625-.315-.312-.823-.462-1.52-.462zm-56.75 3.141a1.574 1.574 0 0 1-.527-1.209c0-.596.192-1.055.578-1.385.387-.332.879-.497 1.484-.497.514 0 .93.093 1.25.277.31.18.499.482.568.916h-.698a.95.95 0 0 0-.318-.52c-.171-.147-.44-.217-.803-.217h-.004c-.498 0-.862.183-1.079.553-.14.238-.21.532-.21.879 0 .351.1.648.299.89.201.242.516.362.94.362.326 0 .585-.075.777-.224.19-.148.321-.348.396-.598h.698c-.09.43-.296.742-.626.945-.336.205-.772.31-1.304.31-.596.001-1.068-.16-1.42-.482zm1.535-3.152c-.613 0-1.12.17-1.519.51-.4.342-.6.823-.6 1.432 0 .5.185.921.547 1.255.364.333.851.499 1.457.499h.002c.538 0 .983-.104 1.332-.318.352-.217.572-.56.659-1.02l.007-.036h-.807l-.007.02a1.1 1.1 0 0 1-.38.588c-.18.14-.428.212-.745.212-.414 0-.71-.115-.9-.343a1.29 1.29 0 0 1-.284-.85c0-.338.068-.62.202-.847.206-.35.547-.523 1.035-.525.358 0 .613.07.768.204.159.136.26.305.304.51l.005.023h.807l-.005-.034c-.066-.467-.267-.803-.603-.994-.329-.19-.754-.286-1.275-.286zm4.359 3.19c-.366-.315-.548-.734-.55-1.266.002-.57.194-1.02.58-1.357.387-.337.906-.505 1.565-.505.588 0 1.085.146 1.488.437.402.29.602.713.603 1.278 0 .547-.177.995-.532 1.352-.354.354-.908.536-1.663.536-.63-.004-1.125-.162-1.491-.475zm1.595-3.19c-.667 0-1.2.172-1.6.52-.4.348-.6.818-.6 1.404 0 .547.19.988.569 1.314.378.323.888.484 1.526.484.764 0 1.331-.18 1.7-.55.367-.367.552-.835.552-1.395 0-.58-.21-1.029-.628-1.327l.002.001-.002-.001c-.414-.3-.922-.45-1.52-.45zm-19.238 2.41l1.418-2.641.742 1.382-.676 1.26h-1.484zm1.418-2.761l-1.513 2.822h1.595v-.031.03h.017l.709-1.32-.808-1.501zM3.48 31.027l.743-1.381 1.42 2.646H4.159l-.678-1.265zm.743-1.5l-.8 1.486.025.014.024-.014-.024.014-.025-.014-.007.014.71 1.326H5.74l-1.516-2.826zM84 29.083h.727v.959h.735v.411h-.735v2.273a.266.266 0 0 0 .181.27.927.927 0 0 0 .31.036h.123l.12-.007v.4a2.707 2.707 0 0 1-.56.049h-.004c-.357 0-.593-.07-.711-.197A.737.737 0 0 1 84 32.76v-2.306h-.622v-.411H84v-.96zm.783-.061H83.946v.96h-.624v.531h.624v2.246a.79.79 0 0 0 .2.56c.14.148.392.213.756.215.113 0 .216-.005.312-.014.097-.009.192-.022.282-.042l.023-.005v-.513l-.03.002-.149.01h-.123a.966.966 0 0 1-.289-.032v-.002c-.1-.038-.144-.102-.145-.212v-2.213h.736v-.532h-.736v-.959zm-38.22-.257h.719v4.654h-.718v-4.654zm.775-.06H46.508v4.774h.83v-4.775zm-19.23 3.587l2.785-5.192.678 1.26-2.11 3.932h-1.354zm2.786-5.252l.024.016-.024-.016zm0-.06l-2.883 5.373h1.484l2.142-3.993-.718-1.334-.025-.046zM7.03 32.292l-2.113-3.935.678-1.262 2.79 5.197H7.03zm-1.435-5.317l-.742 1.382 2.145 3.996h1.436v-.031.03h.048l-2.887-5.377zm19.674 5.317l4.204-7.833.71 1.32-3.495 6.512h-1.42v.001zm4.204-7.893l.024.016-.024-.016zm0-.06l-4.3 8.014h1.548l3.527-6.574-.75-1.395-.025-.045zM9.804 32.292l-3.498-6.517.71-1.32 4.208 7.838h-1.42zm-2.789-7.96l-.774 1.443 3.53 6.579h1.501v-.031.03h.048l-4.305-8.02zm15.513 7.96L28.1 21.907l.645 1.2-4.929 9.185h-1.29zm5.574-10.446l.024.016-.024-.016zm0-.06l-5.67 10.567h1.418l4.963-9.246-.686-1.276-.025-.044zM12.675 32.293l-4.934-9.19.646-1.2 5.578 10.39h-1.29zm-4.288-10.51l-.71 1.32 4.966 9.25h1.37v-.031.03h.049l-5.675-10.57zm11.303 10.51l6.991-13.026.716 1.33-6.278 11.695H19.69v.001zm6.992-13.087l.024.014-.024-.014zm0-.06l-7.088 13.209h1.558l6.31-11.757-.755-1.405-.026-.047zM15.373 32.292L9.092 20.59l.715-1.329 6.997 13.031h-1.43zM9.807 19.141l-.78 1.45 6.314 11.763h1.51v-.031.03h.05L9.806 19.142zm.71-1.2l.002-.005 15.436.039-7.684 14.317h-.048L10.518 17.94zm-.03-.063l-.009.016-.016.03.024.017.024-.016-.024.016-.024-.016-.009.016 7.738 14.413h.111l7.75-14.439-15.566-.037zm.742-1.263l.716-1.332h12.596l.716 1.332H11.229zm13.344-1.39h-12.66l-.757 1.406.025.015-.025-.015-.024.045h14.222l-.781-1.452zm18.58 4.185l2.112-5.336 2.415 5.336h-4.528zm2.108-5.48l-2.192 5.54h4.655v-.03.03h.045l-2.508-5.54zm-32.61.042l.646-1.202h9.892l.646 1.202H12.651zm10.57-1.262h-9.956l-.687 1.277.024.016-.024-.016-.024.046h11.378l-.71-1.323zm43.757-.27h-6.356v4.236h6.356c1.087 0 1.969-.948 1.969-2.118s-.881-2.118-1.969-2.118v.059c1.057.002 1.912.922 1.913 2.058-.002 1.136-.856 2.056-1.913 2.057H60.68v-4.116h6.3V12.44zm12.08 5.481c0-1.67.638-3.184 1.67-4.279 1.03-1.096 2.455-1.773 4.03-1.773 1.572 0 2.997.677 4.029 1.773a6.226 6.226 0 0 1 1.669 4.28c0 1.673-.638 3.186-1.67 4.28-1.03 1.094-2.456 1.774-4.029 1.774-1.574 0-2.998-.68-4.03-1.774-1.03-1.094-1.668-2.608-1.668-4.28zm5.7-6.112c-1.59 0-3.028.684-4.07 1.79-1.041 1.106-1.684 2.636-1.684 4.322 0 1.689.643 3.218 1.685 4.325 1.041 1.106 2.48 1.79 4.068 1.79 1.589 0 3.027-.684 4.07-1.79a6.298 6.298 0 0 0 1.684-4.325 6.293 6.293 0 0 0-1.685-4.321c-1.042-1.108-2.481-1.791-4.069-1.791zm-70.734-.392l.71-1.322h7.017l.71 1.322h-8.437zm7.76-1.381h-7.081l-.75 1.396.024.017-.024-.017-.025.047h8.632l-.776-1.443zm34.762-.93h12.847c.018.002.251.03.596.134.36.109.839.298 1.317.621.958.647 1.913 1.821 1.914 3.96 0 2.608-1.464 3.79-2.584 4.318l-.022.011.006.024.063.264.011.007s.3.17.655.492c.352.321.753.791.952 1.384.252.747.274 1.506.274 2.234l-.001.473c0 .469.01.92.089 1.345.179.959.375 2.095.413 2.308h-4.301a22.695 22.695 0 0 1-.303-3.726c0-.695-.075-1.531-.679-2.125-.447-.443-.883-.622-1.445-.622h-.003c-.089 0-.181.005-.277.012h-5.445v6.46h-4.05l-.027-17.575zm12.85-.061H56.49l.028 17.694h4.161v-6.458H66.074c.093-.01.184-.013.27-.013.553 0 .97.17 1.411.605.586.577.663 1.39.663 2.082 0 2.135.306 3.76.306 3.762l.006.022h4.413l-.007-.034s-.22-1.28-.419-2.345c-.077-.417-.086-.865-.086-1.332v-.473c0-.73-.022-1.496-.277-2.253-.387-1.147-1.5-1.832-1.622-1.905l-.052-.211c1.128-.537 2.598-1.746 2.598-4.364 0-2.16-.972-3.357-1.94-4.01a4.848 4.848 0 0 0-1.941-.767zM35.934 26.71v-.031.03zm.043-.031l7.516-17.786h3.903l8.101 17.786h-4.463l-1.727-3.816h-7.58l-1.51 3.816h-4.24zM47.429 8.834h-3.972l-7.55 17.863-.017.042h4.363l1.51-3.815h7.508l1.727 3.815h4.587L47.429 8.834zm49.226-.06h3.939v14.18h9.104v3.516l-13.027-.019-.016-17.677zm3.994-.06H96.6l.017 17.795 13.14.02v-3.635h-9.106V8.714zm-26.088 9.239c0-2.668 1.139-5.08 2.98-6.83 1.843-1.747 4.39-2.83 7.201-2.83h.001c2.812 0 5.359 1.083 7.2 2.83 1.842 1.75 2.98 4.163 2.98 6.83 0 2.665-1.138 5.08-2.98 6.828-1.843 1.75-4.388 2.831-7.2 2.831-2.813 0-5.36-1.08-7.201-2.83-1.842-1.749-2.981-4.164-2.981-6.83zm10.181-9.72c-2.826 0-5.384 1.087-7.237 2.845-1.852 1.758-3 4.189-3 6.874 0 2.684 1.148 5.115 3 6.874 1.853 1.758 4.411 2.844 7.237 2.844 2.826 0 5.384-1.086 7.237-2.844 1.853-1.76 3-4.19 3-6.874 0-2.685-1.147-5.116-3-6.874s-4.41-2.845-7.237-2.845zm-69.297.541l.679-1.261h4.238l.68 1.261h-5.597zm4.95-1.323H16.09l-.718 1.338.024.015-.024-.015-.025.045h5.79l-.743-1.383zm-3.577-1.23l.743-1.383h1.364l.743 1.383h-2.85zm2.124-1.413v.03-.03zm.015-.03H17.53L16.72 6.28h3.043l-.799-1.488-.008-.014zM.404 33.92v-.03.03zm.048-.03L18.252.784l17.8 33.108H.452zM18.252.664L.38 33.907l-.024.045h35.793L18.253.662z" mask="url(#d)"/>
        </g>
    </g>
</svg>
