<svg xmlns="http://www.w3.org/2000/svg" width="167" height="24" viewBox="0 0 167 24">
    <g fill="none" fill-rule="nonzero">
        <path fill="#234B8D" d="M54.644 17.894c-.095 1.704-.544 2.57-2.081 2.57l-.236.813h7.164l.212-.813c-1.466 0-1.395-1.247-1.324-2.416l1.182-16.987c-.969.432-2.53 1.144-3.759 1.272l-9.48 15.307c-.757 1.221-1.773 2.57-3.215 2.824l-.236.813h5.461l.213-.813c-2.223 0-1.277-1.73-.591-2.899l1.206-1.984h5.627l-.143 2.313zm.78-11.723l-.567 7.96h-4.752l4.894-7.859.425-.101zm20.118 11.876c-.496 1.906-1.158 2.491-3.05 2.491l-.236.738h8.582l.236-.738c-1.915.05-2.175-.686-1.726-2.491L82.917 4.67c.497-1.907 1.135-2.49 3.026-2.49l.142-.713h-14.02l-.236.712c2.27 0 1.702 1.78 1.158 3.331l-4.681 13.02c-.355.966-1.537 1.806-2.223 1.728-.709-.05-1.371-.687-1.395-1.45-.047-1.068 1.064-1.5 1.513-1.5 0-.916-.945-1.755-1.938-1.68-.993.076-2.081 1.12-2.081 2.57 0 1.805 1.277 3.458 3.121 3.458 1.82 0 3.664-.788 4.35-2.72l4.729-13.224c.827-2.313 2.009-3.356 3.333-3.306 1.183.025 1.632 1.322 1.348 2.442l-3.521 13.199zm27.78-10.985h.52l1.418-5.595H89.729l-1.656 5.595h.615c1.064-2.392 4.256-4.655 6.715-4.73l-4.328 15.715c-.543 2.059-1.395 2.416-3.379 2.416l-.142.813h9.338l.143-.813c-1.916 0-2.648-.332-2.08-2.416l4.254-15.715c2.457 0 4.113 2.186 4.113 4.73zM115 4.672c.449-1.704 1.088-2.492 2.861-2.492l.213-.712h-8.418l-.26.712c1.893 0 2.223.635 1.75 2.491l-3.523 13.377c-.613 2.416-3.119 2.491-3.119 2.491l-.143.738h8.416l.213-.738c-1.537 0-2.174-.636-1.631-2.34l9.48-11.468-2.979 11.317c-.449 1.704-1.158 2.491-2.932 2.491l-.143.738h8.439l.166-.738c-1.82 0-2.223-.61-1.75-2.491l3.594-13.377c.473-1.806 1.158-2.49 3.051-2.49l.236-.713h-8.439l-.213.712c1.322 0 1.82.253 1.701 1.6v.409l-9.457 11.214L115 4.671zm22.578 0c.449-1.654.756-2.416 2.529-2.492l.143-.712h-8.039l-.236.712c1.891 0 2.223.534 1.703 2.491l-3.57 13.377c-.449 1.78-1.254 2.491-3.051 2.491l-.164.738h8.463l.213-.738c-1.844 0-2.01-.839-1.584-2.491l1.418-5.188 1.514-1.398 3.311 6.739c.473.966-.143 2.263-1.254 2.263l-.236.71h7.777l.213-.71c-1.418-.154-1.82-1.195-2.387-2.416l-4.375-9.333 4.705-4.374c1.111-1.016 2.104-2.084 3.664-2.16l.213-.713h-6.027l-.213.712c2.293 0 .852 1.984.047 2.696l-6.336 5.543 1.559-5.748zm22.649 13.222c-.096 1.68-.568 2.57-2.08 2.57l-.213.813h7.162l.213-.813c-1.535 0-1.395-1.221-1.322-2.416l1.182-16.987c-1.064.508-2.529 1.144-3.736 1.272l-9.527 15.307c-.756 1.221-1.75 2.57-3.191 2.824l-.213.813h5.414l.236-.813c-2.293 0-1.277-1.73-.592-2.899l1.207-1.984h5.627l-.167 2.313zm.828-11.723l-.592 7.96h-4.729l4.871-7.859.45-.101zM33.816 10.749c1.867 0 3.569 1.042 3.569 3.154 0 3.355-2.601 6.254-5.603 6.254-.497 0-.851-.533-.709-1.068l2.151-8.34h.592zM29.56 1.467l-.142.431c-1.655.66-3.405 1.196-5.13 1.094C20.553 2.84 17.006.551 13.247.602 9.819.677 5.824 3.17 4.665 7.01c1.938-1.577 4.917-3.026 7.495-3.128 3.759-.127 7.281 2.136 11.041 2.238 2.411.05 5.603-1.55 6.927-3.865 1.466.203 1.3 1.195.993 2.415l-3.57 13.377c-.496 1.906-1.205 2.491-3.144 2.491l-.166.738h9.125c3.499 0 7.92-2.34 7.92-6.484 0-3.788-3.806-5.163-6.714-5.163h-.969l1.844-7.069h.969c3.522 0 5.319.712 6.336 4.4h.52l-.567-5.492H29.56zM11.072 8.333c3.759-.05 7.305 2.237 11.064 2.39 2.104.102 4.208-.686 6.194-1.55-.969 2.746-4.61 4.78-7.282 4.704-3.759-.102-7.305-2.365-11.041-2.263-2.601.076-5.414 1.5-7.494 3.153 1.089-3.764 5.037-6.359 8.559-6.434zm-2.151 7.756c3.735-.051 7.281 2.238 11.04 2.39 2.104.103 4.208-.686 6.218-1.55-.993 2.746-4.61 4.78-7.305 4.704-3.735-.102-7.305-2.39-11.041-2.263-2.624.103-5.414 1.502-7.494 3.154 1.111-3.766 5.036-6.36 8.582-6.435z"/>
        <path fill="#947C53" d="M44.407 22.599l-.615-.66h5.461l.614.66h-5.46zM166.09 1.747l.615.636-1.064 15.74c-.023.61-.047 1.424.307 1.958-.826-.915-1.088-1.067-.992-2.288l1.134-16.046zm-6.619 20.852l-.615-.66h7.162l.615.66h-7.162zm-1.018-9.078l-.803-.255 2.15-3.534-.166 1.906-1.181 1.883zm-4.113 6.458c-1.041-.865.945-3.052 1.348-3.712h3.664v.635h-3.049c-.449.738-2.246 2.748-1.324 3.764l-.639-.687zm-4.303 2.62l-.615-.66h5.438l.615.66h-5.438zm-9.764-.077l-.615-.66h7.777l.615.66h-7.777zm1.135-18.97c-1.207.128-1.656.534-2.129 1.807l-.449 1.652-1.016.89.686-2.594c0 .025.449-2.263 2.529-2.442l.379.407.26.254c-.096 0-.189.027-.26.027zm0 6.103c-.096-.178-.166-.355-.26-.533l.26-.255 4.16-4.017c.969-.94 2.34-1.881 3.688-1.983l.615.66c-1.301.102-2.6.992-3.547 1.858L142.07 9.53l4.656 10.223c-.543 0-.922-.585-1.111-1.043-1.416-3.011-2.818-6.03-4.207-9.055zm-4.279 4.196l-.26.254-1.301 5.009c-.07.28-.07.458-.07.788-.615-.05-.828-.534-.734-.991l1.514-5.468.426-.38.425.788zm-8.701 8.748l-.613-.66h8.463l.592.66h-8.442zm-4.586-2.772l-.756-.075c-.756 0-.189-1.883-.023-2.468l3.332-12.23c.449-1.756 1.348-2.187 2.98-2.187l.613.66c-1.465 0-2.434.203-2.908 1.858l-3.332 12.23c-.096.432-.639 1.907.094 2.212zM116.537 6.02l-1.277 4.4-1.135 1.297 1.893-6.663c.117-.508.307-.94.52-1.245.52-.74 1.301-.941 2.459-.941l.613.66c-1.441 0-2.41.203-2.883 1.858l-.19.634zm0 9.154l-3.641 4.373c-.283 0-.898-.152-.615-.661l4.256-5.213 2.412-2.976-.639 2.365-1.773 2.112zm0 7.426h-.189l-.639-.66h8.441l.613.66h-8.226zm-10.639 0l-.615-.66h8.416l.615.66h-8.416zm-.828-14.216h-.213l-.613-.635h.52l.307-1.221 1.111-4.374.615.636-1.418 5.594h-.309zm-4.941-5.39l.615.66-3.9 14.698c-.119.459-.213.712-.07 1.195-.498-.102-1.064-.229-.947-.712l4.302-15.842zM89.09 22.598l-.615-.66h9.338l.615.66H89.09zm1.111-14.216l-.592-.635c.852-1.68 2.789-3.433 4.539-4.273l-.449 1.195c-1.496.818-2.718 2.115-3.498 3.713zm-8.819 11.444l-.757-.075c-.78 0-.189-1.907-.024-2.468l3.31-12.23c.473-1.807 1.3-2.187 2.955-2.187l.615.66c-1.418 0-2.435.203-2.884 1.858l-3.31 12.23c-.165.661-.449 1.628.095 2.212zM75.496 22.6h-1.702l-.615-.66h8.582l.615.66h-6.88zm-8.582-3.841c-.26.076-.473.229-.449.51-.236.05-.639-.077-.686-.382-.071-.609.449-.787 1.135-.89.071 0 .142-.024.213-.024l.614.687c-.142-.001-.52-.001-.827.099zm0 3.942c-.449-.05-.757-.127-.804-.154.236-.024.52-.075.804-.1 1.324-.23 2.908-.79 3.499-2.468l5.083-14.164.26-.711c.189-.586 1.253-2.162 2.08-2.036-.614 1.196-1.04 1.45-1.773 3.561l-.567 1.602-4.09 11.595c-.97 2.748-3.239 2.977-4.492 2.875zM60.483 1.747l.615.636-.898 15.563c0 .509-.071 1.652.166 2.135-.898-.483-.969-1.067-.898-2.288.259-5.366.637-10.706 1.015-16.046zm-6.62 20.852l-.615-.66h7.164l.615.66h-7.164zm-.992-9.078l-.828-.255 2.175-3.534-.189 1.906-1.158 1.883zm-4.114 6.458c-.898-.636.969-3.179 1.277-3.712h3.711v.635h-3.05c-.376.633-2.088 2.904-1.334 3.702l-.604-.625zM44.809 8.282l-.615-.636-.591-5.493.615.636.591 5.493zm-4.847-3.688c-.497-.304-1.041-.66-1.631-.686h-1.372L35.707 8.84l-.804-.05 1.466-5.52c1.938.001 2.317-.05 3.593 1.323zm-5.721 9.486l-1.371 5.34c-.402 0-.733-.126-.663-.61l1.939-7.348h.094c.757 0 1.703.407 2.033 1.194-.212-.153-1.253-.56-1.513-.56l-.519 1.984zm0 8.519c-.307.025-.638.025-.969.025l-7.447-.025-.662-.636h.662l7.329-.024c.355 0 .733-.026 1.087-.052 4.138-.304 8.038-2.442 8.038-7.654.166.458.402 1.246.544 1.907-.402 2.645-2.222 6.128-8.582 6.459zM7.999 20.718c3.168 0 7.116 2.135 10.308 2.16 1.773.026 4.255-.889 6.029-1.422-.993 1.092-3.901 2.364-6.171 2.34-3.167 0-7.849-2.34-10.993-2.315-2.222 0-3.002.51-4.729 1.348 1.395-1.578 3.57-2.111 5.556-2.111zM25.825 7.596c-1.064.407-2.27.687-3.333.687-3.191 0-7.825-2.365-11.017-2.34-2.199 0-2.979.533-4.729 1.373 1.442-1.628 3.618-2.111 5.58-2.111 3.192 0 7.116 2.136 10.308 2.162.946 0 2.081-.254 3.192-.585 1.017-.28 1.986-.61 2.837-.89-.545.584-1.609 1.22-2.838 1.704zm0 6.661c-1.3.917-3.617 1.808-5.485 1.78-3.192 0-7.873-2.339-11.017-2.313-2.222 0-3.002.509-4.728 1.348 1.395-1.577 3.593-2.11 5.556-2.11 3.191 0 7.116 2.134 10.332 2.161 1.536.025 3.664-.687 5.343-1.22.236-.077.473-.154.686-.204-.191.177-.404.381-.687.558z"/>
    </g>
</svg>
