<svg xmlns="http://www.w3.org/2000/svg" width="100" height="51" viewBox="0 0 100 51">
    <g fill="none" fill-rule="nonzero">
        <path fill="#FFF" d="M15.907 6.794C5.804 11.417.237 17.974.237 25.26c0 7.284 5.567 13.843 15.672 18.466 9.112 4.165 21.15 6.461 33.891 6.461 12.74 0 24.774-2.296 33.888-6.461 10.104-4.624 15.67-11.183 15.67-18.466 0-7.287-5.566-13.844-15.67-18.467C74.574 2.623 62.54.33 49.8.33c-12.742 0-24.78 2.293-33.893 6.464z"/>
        <path fill="#7DB55A" d="M95.702 25.26c0-11.597-20.554-20.997-45.904-20.997-25.353 0-45.906 9.399-45.906 20.998 0 11.596 20.553 20.995 45.906 20.995 25.35 0 45.904-9.4 45.904-20.995z"/>
        <path fill="#A3C54D" d="M60.418 7.301c-2.577 0-4.668 2.289-4.668 5.104 0 2.814 2.091 5.104 4.668 5.104 2.576 0 4.67-2.29 4.67-5.104 0-2.816-2.094-5.104-4.67-5.104zm0 9.525c-2.222 0-4.031-1.986-4.031-4.42 0-2.438 1.808-4.419 4.031-4.419 2.224 0 4.032 1.981 4.032 4.418 0 2.435-1.808 4.42-4.032 4.42z"/>
        <path fill="#A2C35A" d="M25.493 36.077c0-.693.058-1.376.165-2.032-4.518-.93-9.18.483-12.583 3.812 4.005 2.437 9.145 4.463 15.06 5.914-1.709-2.141-2.647-4.871-2.642-7.694z"/>
        <path fill="#C0D384" d="M25.658 34.045a12.67 12.67 0 0 0-.165 2.032c0 2.94.995 5.626 2.643 7.695a83.387 83.387 0 0 0 8.95 1.666c-1.446-5.792-5.883-10.27-11.428-11.393z"/>
        <path fill="#A6C55A" d="M47.527 36.077c0-6.545-4.932-11.85-11.017-11.85-5.44 0-9.956 4.241-10.852 9.819 5.545 1.122 9.982 5.6 11.427 11.393a94.94 94.94 0 0 0 5.455.554c3.003-2.116 4.987-5.766 4.987-9.916z"/>
        <path fill="#61A155" d="M11.414 26.154c.079 5.701 3.716 6.307 5.362 6.311 2.778.005 3.934-1.277 3.934-1.277s-.567-1.681-2.295-1.373c-1.245.221-4.325.781-4.325-3.66 0-4.445 3.138-4.146 3.96-3.908 1.414.405 2.555-1.337 2.555-1.337s-.808-1.127-3.329-1.273c-2.744-.16-5.926 2.02-5.862 6.517zm15.99 3.557c-.825.6-2.902.685-2.968-1.24-.056-1.579 1.338-2.578 3.764-2.015v1.102c0 .897-.125 1.662-.796 2.153zm4.252 1.791c-.729-.448-.86-1.725-.86-3.52 0-.803.004-1.78.004-2.188 0-3.087-.386-5.364-3.23-6.003-2.843-.645-4.684.618-4.684.618s.77 1.817 2.135 1.765c.362-.016.515-.033.853-.061 1.267-.105 2.319.344 2.316 2.058-2.61-.516-6.338.39-6.338 4.432-.005 4.504 5.074 4.808 6.643 2.432.11.339.474 1.335 1.56 1.43 1.087.099 1.39-.527 1.6-.963zm53.441-1.79c-.825.599-2.9.684-2.969-1.24-.055-1.58 1.341-2.579 3.767-2.016v1.102c0 .897-.123 1.662-.798 2.153zm4.255 1.79c-.73-.448-.862-1.725-.862-3.52 0-.803.004-1.78.004-2.188 0-3.087-.386-5.364-3.228-6.003-2.844-.645-4.685.618-4.685.618s.77 1.817 2.136 1.765c.363-.016.514-.033.853-.061 1.267-.105 2.317.344 2.315 2.058-2.61-.516-6.337.39-6.34 4.432 0 4.504 5.076 4.808 6.644 2.432.113.339.475 1.335 1.563 1.43 1.086.099 1.391-.527 1.6-.963zm-41.03-7.426c-.01-1.82-.713-4.466-3.8-4.448-1.695.008-2.658.96-2.972 1.353-.727-.87-1.937-1.416-3.192-1.353-1.252.062-1.929.547-2.606 1.366l-.004-1.13h-2.321v12.364h2.584v-8.88c.155-.286.85-1.176 1.765-1.237.92-.06 1.804.537 1.809 1.924v5.956c0 1.8 1.164 2.234 1.834 2.234.281 0 .75.003.75.003v-8.914c.17-.396.81-1.188 1.744-1.203 1.196-.017 1.828.775 1.828 2.371l.001 5.509c0 1.778 1.14 2.239 1.875 2.239.391 0 .705-.002.705-.002v-8.152zm6.565 5.896c-.712-.016-1.107-.209-1.55-.619l.006-6.418c.41-.342.807-.67 1.674-.82.937-.158 3.06.021 3.06 3.972 0 3.95-2.48 3.904-3.19 3.885zm-1.544-8.958v-1.132l-2.576.004-.003 16.252c0 1.76 1.099 2.24 1.878 2.24h.704v-6.411l.008-.002c.633.34.773.424 2.091.52 1.431.1 5.265-.474 5.312-6.323.044-5.792-3.384-6.664-5.027-6.492-1.16.116-1.904.633-2.387 1.344zm9.554-1.15l-.001 10.127c0 1.742 1.114 2.24 1.924 2.24h.714l.008-12.369-2.645.001zm14.895 4.787c0-2.446-.768-3.88-2.056-4.522-1.069-.533-3.512-1.063-5.05.859l.005-1.125H68.35v12.365h2.584V23.3c.3-.434 1.132-1.19 2.086-1.19 1.335 0 2.186.617 2.186 2.97l-.003 4.91c0 1.763 1.136 2.239 1.884 2.239l.701-.002.004-7.577z"/>
        <path fill="#FFF" d="M10.356 24.945c.081 5.732 3.736 6.344 5.388 6.346 2.791.005 3.955-1.282 3.955-1.282s-.57-1.693-2.306-1.383c-1.252.222-4.348.784-4.348-3.681 0-4.463 3.154-4.162 3.98-3.924 1.421.408 2.568-1.345 2.568-1.345s-.81-1.133-3.343-1.279c-2.76-.16-5.96 2.033-5.894 6.548zM26.37 28.52c-.828.605-2.918.69-2.984-1.244-.056-1.587 1.349-2.593 3.784-2.027v1.11c0 .902-.121 1.671-.8 2.16zm4.275 1.801c-.731-.448-.863-1.734-.863-3.537l.002-2.199c0-3.104-.388-5.392-3.246-6.034-2.856-.646-4.706.623-4.706.623s.77 1.825 2.145 1.772c.363-.016.519-.035.856-.062 1.273-.104 2.33.346 2.326 2.07-2.622-.517-6.37.391-6.37 4.453-.002 4.53 5.102 4.832 6.68 2.443.108.343.473 1.345 1.567 1.442 1.094.096 1.4-.534 1.61-.97zm53.422-1.801c-.83.605-2.919.69-2.986-1.244-.055-1.587 1.348-2.593 3.783-2.027v1.11c0 .902-.122 1.671-.797 2.16zm4.272 1.801c-.732-.448-.863-1.734-.863-3.537 0-.809.003-1.79.003-2.199 0-3.104-.388-5.392-3.244-6.034-2.858-.646-4.71.623-4.71.623s.775 1.825 2.147 1.772c.364-.016.517-.035.857-.062 1.271-.104 2.33.346 2.329 2.07-2.627-.517-6.372.391-6.373 4.453-.001 4.53 5.101 4.832 6.678 2.443.11.343.478 1.345 1.569 1.442 1.094.096 1.4-.534 1.607-.97zm-41.015-7.46c-.011-1.83-.719-4.49-3.819-4.473-1.704.009-2.671.964-2.987 1.36-.73-.874-1.948-1.423-3.207-1.36-1.258.062-1.94.55-2.622 1.374l-.003-1.136h-2.333v12.427h2.597v-8.927c.159-.286.855-1.182 1.776-1.242.92-.06 1.814.54 1.817 1.933v5.988c0 1.806 1.17 2.246 1.844 2.246l.754.001v-8.959c.171-.402.813-1.195 1.752-1.209 1.204-.016 1.837.78 1.837 2.383l.001 5.538c0 1.788 1.145 2.247 1.885 2.247h.708v-8.191zm6.521 5.91a2.467 2.467 0 0 1-1.556-.625l.006-6.45c.377-.359.924-.69 1.68-.822.944-.167 3.08.02 3.08 3.99 0 3.969-2.492 3.917-3.21 3.906zm-1.55-9.005v-1.14l-2.59.003-.001 16.336c0 1.772 1.104 2.25 1.886 2.25h.709v-6.444h.008c.638.34.778.427 2.104.52 1.436.104 5.289-.473 5.334-6.352.044-5.822-3.398-6.7-5.052-6.528-1.162.123-1.911.642-2.397 1.355zm9.56-1.14l-.002 10.179c0 1.75 1.12 2.247 1.934 2.247h.718l.009-12.428-2.66.002zM76.78 23.44c0-2.458-.772-3.902-2.063-4.546-1.077-.537-3.534-1.067-5.076.863l.002-1.129h-2.351v12.427h2.596v-8.973c.302-.438 1.14-1.196 2.098-1.196 1.344 0 2.198.62 2.198 2.982l-.004 4.938c0 1.77 1.143 2.248 1.894 2.248h.702l.004-7.614z"/>
        <path fill="#E4E5B5" d="M56.387 12.404c0-2.437 1.809-4.417 4.032-4.417 2.224 0 4.032 1.98 4.032 4.417 0 2.436-1.808 4.421-4.032 4.421-2.223 0-4.032-1.985-4.032-4.42z"/>
    </g>
</svg>
