<?xml version="1.0" encoding="UTF-8"?>
<svg width="100px" height="56px" viewBox="0 0 100 56" version="1.1" xmlns="http://www.w3.org/2000/svg" xmlns:xlink="http://www.w3.org/1999/xlink">
    <!-- Generator: sketchtool 49.3 (51167) - http://www.bohemiancoding.com/sketch -->
    <title>E572DD8D-2124-4D7F-895A-AA76773E5865</title>
    <desc>Created with sketchtool.</desc>
    <defs></defs>
    <g id="Page-1" stroke="none" stroke-width="1" fill="none" fill-rule="evenodd">
        <g id="AFR_services" transform="translate(-41.000000, -1467.000000)" fill="#00321E" fill-rule="nonzero">
            <g id="1-copy" transform="translate(41.000000, 1467.000000)">
                <path d="M26.306288,26.5314402 C24.2028398,28.4685598 21.1744422,29.6673428 18.0912779,29.6673428 C11.5801217,29.6673428 6.12373225,24.3022312 6.12373225,17.8275862 C6.12373225,12.4665314 10.4279919,7.07707911 15.831643,7.07707911 C17.801217,7.07707911 19.9148073,7.86409736 21.1643002,9.10547667 C21.2142066,9.15771674 21.2844501,9.18553856 21.3565921,9.181639 C21.428734,9.17773943 21.4955693,9.14250794 21.5395538,9.0851927 L28.1764706,0.363083164 C28.2464363,0.305136025 28.2693403,0.207735289 28.2325317,0.124679925 C28.195723,0.0416245609 28.1081796,-0.00682786066 28.0182556,0.0060851927 L8.12170385,0.0060851927 C7.92658352,0.00783814278 7.73863037,0.0798508442 7.59229209,0.208924949 C3.0040568,4.31845842 -2.84217094e-14,9.68356998 -2.84217094e-14,15.8661258 C-2.84217094e-14,25.0162272 7.32251521,32.0933063 15.9411765,32.0933063 C20.2515213,32.0933063 24.3083164,30.1906694 27.1359026,27.3691684 C27.7849899,26.7221095 26.9918864,25.8985801 26.3042596,26.5334686 L26.306288,26.5314402 Z M82.1298174,2.30628803 C81.8374314,2.30628803 81.6004057,2.06926231 81.6004057,1.77687627 L81.6004057,0.705882353 C81.6009447,0.51885748 81.5270268,0.339307932 81.3949702,0.20687068 C81.2629135,0.0744334282 81.0835774,-7.76628157e-07 80.8965517,0 C80.7397032,0.00209709423 80.5881659,0.057136575 80.4665314,0.156186613 C80.0029403,0.524106056 79.3786173,0.617599975 78.8275862,0.401622718 C78.3423121,0.209021781 77.7891909,0.401188638 77.5278615,0.853176555 C77.2665322,1.30516447 77.3759578,1.88040114 77.7849899,2.20486815 C78.246945,2.57349597 78.4785956,3.1595721 78.3935091,3.74442191 C78.3499068,4.01137663 78.464982,4.2794058 78.6885619,4.43164897 C78.9121419,4.58389214 79.2036954,4.59275021 79.4361055,4.45436105 L80.36714,3.9168357 C80.5309169,3.82299007 80.732319,3.82364709 80.8954802,3.91855925 C81.0586414,4.01347141 81.1587735,4.18821931 81.1581577,4.3769771 C81.1575419,4.56573489 81.0562719,4.73982577 80.8924949,4.8336714 L79.9634888,5.37119675 C79.8017649,5.46449183 79.6838805,5.61838151 79.6359159,5.79881985 C79.5879512,5.9792582 79.6138602,6.17137144 79.7079108,6.3326572 C79.787337,6.46755058 79.9104122,6.57130587 80.0567951,6.62677485 C80.606763,6.84536514 80.9991585,7.33972165 81.0872211,7.92494929 C81.1660284,8.43871916 81.6080102,8.81807452 82.127789,8.81807452 C82.6475679,8.81807452 83.0895496,8.43871916 83.168357,7.92494929 C83.2595304,7.34044641 83.6518321,6.84717903 84.2008114,6.62677485 C84.3482851,6.57228316 84.4723005,6.46833966 84.5517241,6.3326572 C84.6456067,6.17112495 84.6712069,5.97882614 84.6228538,5.79835846 C84.5745006,5.61789078 84.4561856,5.46415153 84.2941176,5.37119675 L83.3651116,4.8336714 C83.1166939,4.6853101 83.0334064,4.36498845 83.1780962,4.11441453 C83.322786,3.86384061 83.6418474,3.77584871 83.8945233,3.9168357 L84.8235294,4.45436105 C85.0559395,4.59275021 85.347493,4.58389214 85.571073,4.43164897 C85.7946529,4.2794058 85.9097281,4.01137663 85.8661258,3.74442191 C85.7810393,3.1595721 86.0126899,2.57349597 86.474645,2.20486815 C86.8818694,1.88022404 86.9905164,1.30661165 86.7302205,0.855533512 C86.4699246,0.404455373 85.9189242,0.211494451 85.4340771,0.401622718 C84.8830944,0.618028376 84.2585511,0.52450147 83.7951318,0.156186613 C83.6731165,0.0564206348 83.5206879,0.00131734172 83.3630832,0 C82.9748203,0.00223143248 82.6612512,0.317613092 82.6612576,0.705882353 L82.6612576,1.77687627 C82.6612597,2.068472 82.4254678,2.30517081 82.1338742,2.30628803 L82.1298174,2.30628803 Z M72.4279919,16.6064909 C72.4279919,16.2697769 72.3225152,15.4198783 71.2434077,15.4198783 C69.9553753,15.4198783 68.5922921,16.9655172 68.5922921,19.5638945 C71.0892495,19.5638945 72.4300203,17.5801217 72.4300203,16.6044625 L72.4279919,16.6064909 Z M87.3144016,12.8701826 C87.3144016,15.2393509 85.8235294,16.5010142 84.5862069,16.5010142 C83.1257606,16.5010142 83.3245436,15.4868154 82.3732252,15.4868154 C81.7956299,15.4719366 81.3131582,15.9236892 81.2900609,16.5010142 L81.2900609,23.5557809 C81.2971717,23.6700393 81.3805426,23.765082 81.4929006,23.7870183 L82.1866126,23.989858 C82.2860041,24.0162272 82.4198783,24.0912779 82.4198783,24.2210953 L82.4198783,24.8052738 C82.4198783,24.9341029 82.3154417,25.0385396 82.1866126,25.0385396 L77.7058824,25.0385396 C77.576721,25.0385444 77.4717017,24.9344304 77.4705882,24.8052738 L77.4705882,16.6064909 C77.4705882,15.959432 77.0649087,15.6774848 76.5456389,15.6774848 C76.0709939,15.6774848 75.3286004,16.0973631 74.663286,16.5578093 C74.6125761,19.0933063 72.3346856,21.010142 68.7931034,21.010142 C68.7931034,21.4969574 69.8985801,23.3002028 72.0872211,23.3002028 C73.3752535,23.3002028 74.3427992,22.8377282 75.010142,21.959432 C75.3184584,21.5537525 76.0507099,21.7160243 75.7058824,22.5131846 C75.3610548,23.3103448 73.8377282,25.3833671 70.7221095,25.3833671 C67.8388833,25.3921033 65.3420071,23.3839484 64.7322515,20.5659229 C64.0473249,20.361616 63.3940428,20.0633043 62.7910751,19.6795132 L62.7910751,21.8336714 C62.7910751,23.6592292 61.5294118,25.0283976 59.5456389,25.0283976 L57.6916836,25.0283976 C54.9655172,25.0283976 53.2657201,23.5070994 53.2657201,21.1359026 L53.2657201,7.07505071 C53.2584178,6.96127712 53.1749214,6.8669262 53.0628803,6.84584178 L52.36714,6.64300203 C52.2677485,6.61054767 52.1359026,6.53752535 52.1359026,6.41176471 L52.1359026,5.83975659 C52.135356,5.77826269 52.1595428,5.71912843 52.2030273,5.67564395 C52.2465118,5.63215948 52.3056461,5.60797262 52.36714,5.60851927 L56.841785,5.60851927 C56.9034469,5.60740797 56.9629109,5.63141338 57.0065196,5.67502202 C57.0501282,5.71863066 57.0741336,5.77809467 57.0730223,5.83975659 L57.0730223,21.4726166 C57.0730223,22.6064909 58.1825558,23.0953347 58.9817444,23.0953347 C59.8559838,23.0953347 60.8864097,22.7606491 60.8864097,21.5496957 L60.8864097,18.4584178 L59.336714,17.5314402 C59.1097137,17.4221215 58.9688353,17.1889159 58.9776876,16.9371197 L58.9776876,13.7180527 C58.9776852,13.6569097 59.0021122,13.5983 59.0455369,13.5552562 C59.0889616,13.5122124 59.1477843,13.4883027 59.2089249,13.4888438 L62.5557809,13.4888438 C62.6169216,13.4883027 62.6757442,13.5122124 62.719169,13.5552562 C62.7625937,13.5983 62.7870206,13.6569097 62.7870183,13.7180527 L62.7870183,18.0912779 C63.3607033,18.4659898 63.9653331,18.7910377 64.5943205,19.0628803 C64.6760924,15.7458489 67.4000866,13.105767 70.7180527,13.127789 C72.5963489,13.127789 73.7910751,14.0060852 74.3286004,15.0851927 C75.4381339,14.2251521 77.1257606,13.127789 78.4989858,13.127789 C80.0324544,13.127789 80.0365112,14.3914807 80.7910751,14.3914807 C81.053236,14.3794436 81.2582181,14.1609758 81.2535497,13.8985801 C81.2535497,13.5821501 81.0993915,13.346856 81.0993915,13.0486815 C81.0993915,12.4807302 81.6653144,11.9655172 82.2839757,11.9655172 C83.3975659,11.9655172 84.0324544,13.1257606 84.989858,13.1257606 C85.5153796,13.0746139 85.9101205,12.6229735 85.8904665,12.0953347 C85.8904665,11.505071 85.2109533,10.5801217 84.5517241,10.0324544 C84.1014199,9.66125761 84.5902637,8.97363083 85.1602434,9.30223124 C86.5801217,10.1257606 87.3083164,11.4117647 87.3083164,12.8681542 L87.3144016,12.8701826 Z M94.959432,17.3752535 C94.959432,16.6044625 93.9046653,15.831643 92.9310345,15.831643 C91.1298174,15.831643 89.9716024,17.2515213 89.9716024,19.2555781 C89.9716024,21.2596349 91.1298174,22.703854 92.9310345,22.703854 C93.9107505,22.703854 94.959432,21.9290061 94.959432,21.1602434 L94.959432,17.3752535 Z M99.9046653,13.7241379 L99.9046653,14.2920892 C99.9046653,14.4198783 99.7748479,14.494929 99.673428,14.5233266 L98.9756592,14.7261663 C98.8637225,14.7502079 98.7810847,14.8452413 98.7728195,14.959432 L98.7728195,26.8052738 C98.7728195,29.6896552 96.3387424,32.0081136 93.4685598,32.0081136 C91.5131846,32.0081136 89.7870183,31.1075051 88.9087221,29.6146045 C87.7241379,31.7241379 83.8864097,36.2596349 72.7099391,36.2596349 C66.5537525,36.2596349 56.0973631,33.2170385 50.663286,33.2170385 C43.198783,33.2170385 38.2758621,35.2454361 33.1501014,40.3772819 C33.1103468,40.4355985 33.04872,40.4753825 32.9792083,40.4876043 C32.9096966,40.4998261 32.8381954,40.4834493 32.7809331,40.4421907 L23.2312373,35.2271805 C23.167533,35.1938532 23.123791,35.1318712 23.1137361,35.0606824 C23.1036811,34.9894935 23.1285454,34.9178213 23.1805274,34.8681542 C29.4929006,29.5131846 38.63286,26.7545639 45.0993915,26.7545639 C57.7444219,26.7545639 66.5517241,33.0141988 76.9310345,33.0141988 C85.6876268,33.0141988 88.2373225,28.6348884 88.2373225,27.168357 C88.2367814,27.1072163 88.2606911,27.0483937 88.3037349,27.004969 C88.3467787,26.9615443 88.4053884,26.9371173 88.4665314,26.9371197 L89.3427992,26.9371197 C89.4044778,26.9365786 89.4638164,26.960702 89.5076215,27.0041262 C89.5514266,27.0475504 89.5760673,27.106676 89.5760649,27.168357 C89.5760649,28.6348884 90.7931034,29.7444219 92.306288,29.7444219 C93.8194726,29.7444219 94.9574037,28.5557809 94.9574037,26.9614604 L94.9574037,24.6916836 C94.9714484,24.5803743 94.9332469,24.468824 94.8539153,24.3894924 C94.7745837,24.3101608 94.6630334,24.2719593 94.5517241,24.2860041 C94.1460446,24.2860041 93.7667343,25.3894523 91.5496957,25.3894523 C88.6409736,25.3894523 86.2758621,22.6612576 86.2758621,19.2616633 C86.2758621,15.862069 88.6470588,13.1318458 91.5496957,13.1318458 C93.9290061,13.1318458 94.4685598,14.4178499 95.0527383,14.4178499 C95.4137931,14.4178499 95.5659229,14.1359026 95.6470588,13.7221095 C95.6711539,13.5863343 95.7911714,13.4887661 95.9290061,13.4929006 L99.663286,13.4929006 C99.7244267,13.4923595 99.7832493,13.5162692 99.826674,13.559313 C99.8700988,13.6023568 99.8945257,13.6609665 99.8945233,13.7221095 L99.9046653,13.7241379 Z M36.7728195,21.1764706 C36.7728195,24.1764706 39.0527383,25.030426 40.5740365,25.030426 L48.3995943,25.030426 C50.1724138,25.030426 51.862069,23.7403651 51.862069,21.6511156 C51.862069,18.4969574 46.9939148,18.7809331 46.9939148,16.969574 C46.9939148,16.2373225 47.7119675,15.9756592 48.5963489,15.9756592 C49.3441232,16.0027081 50.0696235,16.2372842 50.6916836,16.653144 C50.7486567,16.7023485 50.8263043,16.7201352 50.8990151,16.7006373 C50.9717258,16.6811395 51.0300563,16.6268894 51.0547667,16.5557809 L52.2555781,13.8052738 C52.2855688,13.7365622 52.2790466,13.6573819 52.2382167,13.5945038 C52.1973868,13.5316257 52.1277078,13.4934563 52.0527383,13.4929006 L46.4340771,13.4929006 C44.8284719,13.5346141 43.5474602,14.8461903 43.5436105,16.4523327 C43.5436105,19.6977688 47.7667343,19.127789 47.7667343,21.3204868 C47.7657345,21.7472308 47.5932628,22.1556666 47.2880948,22.4539683 C46.9829268,22.7522701 46.5706725,22.915404 46.1440162,22.9066937 C44.2778905,22.9066937 43.4929006,21.6572008 43.4077079,20.9371197 C43.392552,20.8686455 43.3497116,20.8095071 43.2893719,20.7737645 C43.2290322,20.7380219 43.1565832,20.7288678 43.0892495,20.7484787 L42.3144016,21.0567951 C42.2495421,21.0883706 42.2016892,21.1466755 42.1833692,21.2164475 C42.1650491,21.2862196 42.1780859,21.3605123 42.2190669,21.4198783 C42.3587615,21.5807774 42.4313682,21.7891585 42.4219067,22.0020284 C42.4219067,22.509503 42.0105172,22.9208925 41.5030426,22.9208925 C40.995568,22.9208925 40.5841785,22.509503 40.5841785,22.0020284 L40.5841785,5.83975659 C40.5841785,5.71204775 40.48065,5.60851927 40.3529412,5.60851927 L35.872211,5.60851927 C35.8105323,5.60797821 35.7511938,5.63210158 35.7073886,5.67552577 C35.6635835,5.71894996 35.6389429,5.77807558 35.6389452,5.83975659 L35.6389452,6.40567951 C35.6389452,6.53144016 35.7748479,6.60851927 35.872211,6.63691684 L36.5679513,6.83975659 C36.6796203,6.86149429 36.7627951,6.95548181 36.7707911,7.06896552 L36.7728195,21.1764706 Z M18.5659229,17.3772819 C18.5659229,16.6064909 17.5111562,15.8336714 16.5375254,15.8336714 C14.7342799,15.8336714 13.5760649,17.2535497 13.5760649,19.2576065 C13.5760649,21.2616633 14.7342799,22.7058824 16.5375254,22.7058824 C17.5172414,22.7058824 18.5659229,21.9310345 18.5659229,21.1622718 L18.5659229,17.3772819 Z M35.6044625,15.8336714 C35.6082689,16.558746 35.3217783,17.2551952 34.8088756,17.7677169 C34.2959729,18.2802385 33.5993109,18.5662115 32.8742394,18.5618661 C32.1548824,18.5488821 31.5748502,17.9688498 31.5618661,17.2494929 C31.5618661,16.5780933 31.9208925,16.5659229 31.9208925,16.1156187 C31.9166845,15.77962 31.6482565,15.5067182 31.3123732,15.4969574 C31.0413781,15.4902075 30.7794722,15.5948912 30.5877902,15.7865732 C30.3961083,15.9782551 30.2914245,16.240161 30.2981744,16.5111562 L30.2981744,23.5659229 C30.3052853,23.6801813 30.3886561,23.775224 30.5010142,23.7971602 L31.1967546,24 C31.2941176,24.0263692 31.4279919,24.1014199 31.4279919,24.2312373 L31.4279919,24.8052738 C31.4279967,24.9333149 31.3247908,25.0374262 31.1967546,25.0385396 L26.7099391,25.0385396 C26.58111,25.0385396 26.4766734,24.9341029 26.4766734,24.8052738 L26.4766734,21.6105477 C25.2109533,22.9229209 22.6470588,25.3853955 21.3083164,25.3853955 C19.831643,25.3853955 20.020284,23.7890467 18.9046653,23.7890467 C17.9350913,23.7890467 17.8742394,25.3853955 15.1703854,25.3853955 C12.2596349,25.3853955 9.89655172,22.6572008 9.89655172,19.2576065 C9.89655172,15.8580122 12.2677485,13.127789 15.1703854,13.127789 C17.5476673,13.127789 18.0892495,14.4137931 18.673428,14.4137931 C19.0324544,14.4137931 19.1866126,14.1318458 19.2657201,13.7180527 C19.2914999,13.5824314 19.4116883,13.4854222 19.5496957,13.4888438 L23.2839757,13.4888438 C23.4108965,13.4888389 23.5140996,13.5911367 23.515213,13.7180527 L23.515213,14.2860041 C23.515213,14.4137931 23.3853955,14.4888438 23.2839757,14.5172414 L22.5882353,14.7200811 C22.4762986,14.7441227 22.3936607,14.8391562 22.3853955,14.9533469 L22.3853955,21.1866126 C22.4112824,21.6078721 22.7625492,21.9350674 23.1845842,21.9310345 C23.9330629,21.9310345 25.5334686,20.6105477 26.4807302,19.7647059 L26.4807302,15.3691684 C26.4813683,15.2537716 26.4328313,15.1435641 26.3472683,15.0661316 C26.2617054,14.988699 26.1472148,14.9513702 26.0324544,14.9634888 C25.7505071,14.9634888 25.7383367,15.2210953 25.3752535,15.2210953 C25.0766029,15.2211037 24.8338717,14.9801839 24.831643,14.6815416 C24.831643,14.1926978 25.7079108,13.1359026 27.0628803,13.1359026 C29.4219067,13.1359026 29.0608519,14.8884381 29.9026369,14.8884381 C30.6612576,14.8884381 30.7910751,13.1359026 32.8640974,13.1359026 C33.587267,13.123375 34.2850935,13.4021945 34.8005186,13.9096077 C35.3159437,14.417021 35.6056603,15.1103942 35.6044625,15.8336714 Z" id="Shape"></path>
                <path d="M59.7971602,52.3914807 C59.4198783,52.3914807 59.2799189,52.3123732 59.1217039,52.1318458 C59.0020284,51.9939148 58.9026369,51.7748479 58.6450304,51.7748479 C58.4735492,51.7928604 58.3094915,51.8542948 58.168357,51.9533469 C57.2109149,52.3838789 56.17544,52.6137543 55.1257606,52.6288032 C51.5273834,52.6288032 49.6490872,50.6004057 49.6490872,45.0953347 C49.6490872,39.7890467 52.1135903,37.6409736 55.969574,37.6409736 C57.3270759,37.6580005 58.6716714,37.9070251 59.9452333,38.3772819 L59.4888438,39.7281947 C59.4300203,39.8661258 59.3691684,39.9472617 59.2494929,39.9472617 C59.0965242,39.925705 58.9521855,39.863345 58.831643,39.7667343 C58.1156187,39.2697769 57.2210953,39.0121704 56.0486815,39.0121704 C53.1075051,39.0121704 51.336714,40.4036511 51.336714,45.0973631 C51.336714,49.6490872 52.4503043,51.2008114 56.0892495,51.2008114 C56.9659669,51.2068685 57.8313257,51.0023544 58.6125761,50.6044625 C59.030426,50.326572 59.0507099,50.198783 59.0507099,49.6511156 L59.0507099,45.2576065 L60.1237323,45.2576065 C60.4198783,45.2576065 60.5415822,45.3955375 60.5415822,45.7139959 L60.5415822,52.3914807 L59.7971602,52.3914807 Z" id="Shape"></path>
                <path d="M63.4158215,52.3914807 C63.1176471,52.3914807 62.9979716,52.2535497 62.9979716,51.9330629 L62.9979716,42.1561866 L63.5537525,42.1561866 C63.9716024,42.1561866 64.0892495,42.2150101 64.2089249,42.3955375 C64.36714,42.6125761 64.4117647,42.7728195 64.5862069,42.7728195 C64.7470712,42.759534 64.8999913,42.6972332 65.0243408,42.5943205 C65.7860661,42.1560861 66.648603,41.9233269 67.5273834,41.9188641 C67.6855984,41.9188641 67.9046653,41.9391481 67.9046653,41.9391481 L67.9046653,43.3590264 C67.6145242,43.3233918 67.322706,43.3030796 67.030426,43.2981744 C66.1817163,43.296279 65.3563437,43.5759212 64.68357,44.0933063 C64.464503,44.2718053 64.464503,44.296146 64.464503,44.5091278 L64.464503,52.3914807 L63.4158215,52.3914807 Z" id="Shape"></path>
                <path d="M73.2332657,43.1115619 C71.1257606,43.1115619 70.0933063,44.5314402 70.0933063,47.2657201 C70.0933063,50 71.127789,51.4198783 73.2332657,51.4198783 C75.3387424,51.4198783 76.3732252,50 76.3732252,47.2657201 C76.3732252,44.5314402 75.3387424,43.1115619 73.2332657,43.1115619 M73.2332657,52.63286 C70.1724138,52.63286 68.5233266,50.7647059 68.5233266,47.2657201 C68.5233266,43.7667343 70.1744422,41.8985801 73.2332657,41.8985801 C76.2920892,41.8985801 77.9432049,43.7667343 77.9432049,47.2657201 C77.9432049,50.7647059 76.2941176,52.63286 73.2332657,52.63286" id="Shape"></path>
                <path d="M87.3286004,52.3914807 C86.9107505,52.3914807 86.7910751,52.3306288 86.673428,52.1521298 C86.5131846,51.9330629 86.4705882,51.7748479 86.296146,51.7748479 C86.1217039,51.7748479 86.0567951,51.8356998 85.8580122,51.9533469 C85.1153559,52.3859915 84.273222,52.618714 83.4137931,52.6288032 C80.979716,52.6288032 79.7626775,51.535497 79.7626775,49.2089249 L79.7626775,42.1561866 L80.8154158,42.1561866 C81.1135903,42.1561866 81.2332657,42.2941176 81.2332657,42.6125761 L81.2332657,48.8154158 C81.2332657,50.6247465 81.8093306,51.3204868 83.7180527,51.3204868 C84.612796,51.3468491 85.4896234,51.0662643 86.2028398,50.525355 C86.4219067,50.346856 86.4219067,50.3083164 86.4219067,50.0892495 L86.4219067,42.158215 L87.474645,42.158215 C87.7728195,42.158215 87.8924949,42.296146 87.8924949,42.6146045 L87.8924949,52.3914807 L87.3286004,52.3914807 Z" id="Shape"></path>
                <path d="M91.5415822,50.0872211 C91.5415822,50.306288 91.5415822,50.3448276 91.7586207,50.5233266 C92.40677,51.0429 93.2139461,51.3236569 94.0446247,51.3184584 C95.7728195,51.3184584 97.1845842,50.2839757 97.1845842,47.2616633 C97.1845842,44.6369168 96.1501014,43.2271805 94.1237323,43.2271805 C93.2644255,43.19678 92.4232939,43.4793195 91.7565923,44.0223124 C91.5780933,44.1805274 91.5395538,44.2251521 91.5395538,44.4401623 L91.5415822,50.0872211 Z M90.4868154,55.9310345 C90.188641,55.9310345 90.0689655,55.7931034 90.0689655,55.474645 L90.0689655,42.1561866 L90.6247465,42.1561866 C91.0425963,42.1561866 91.1622718,42.2150101 91.2799189,42.3955375 C91.4381339,42.6125761 91.4827586,42.7707911 91.6572008,42.7707911 C91.831643,42.7707911 91.8965517,42.7119675 92.0953347,42.5922921 C92.85706,42.1540577 93.7195969,41.9212985 94.5983773,41.9168357 C96.9046653,41.9168357 98.7525355,43.525355 98.7525355,47.2434077 C98.7525355,50.9614604 96.7241379,52.6308316 94.5983773,52.6308316 C93.7083445,52.6148001 92.8354968,52.3830152 92.0547667,51.9553753 C91.9600353,51.8899695 91.8506695,51.8488703 91.7363083,51.8356998 C91.5983773,51.8356998 91.5334686,51.9553753 91.5334686,52.2535497 L91.5334686,55.9290061 L90.4868154,55.9310345 Z" id="Shape"></path>
            </g>
        </g>
    </g>
</svg>