<svg xmlns="http://www.w3.org/2000/svg" width="100" height="42" viewBox="0 0 100 42">
    <g fill="#235B2C" fill-rule="nonzero">
        <path d="M99.008 15.19a.59.59 0 0 1-.447.562l.472.857h-.348l-.447-.83h-.322v.83h-.324V14.6h.795c.373 0 .62.268.62.59zm-.323.027c0-.215-.148-.295-.348-.295h-.421v.59h.421c.2-.001.348-.082.348-.295z"/>
        <path d="M96.718 15.608c0-.911.688-1.652 1.534-1.652.846 0 1.533.74 1.533 1.652 0 .913-.687 1.653-1.533 1.653-.846 0-1.534-.74-1.534-1.653zm1.534 1.389c.342 0 .67-.147.911-.408.242-.26.377-.613.377-.98 0-.766-.576-1.387-1.288-1.388-.342 0-.67.146-.912.406-.241.26-.377.613-.377.981s.136.721.377.982c.242.26.57.406.912.407zm-63.86-.635a2.896 2.896 0 0 1-.757 1.985 2.499 2.499 0 0 1-1.844.817c-.686 0-1.25-.635-1.25-1.348 0-.688.342-.7.342-1.163 0-.344-.27-.635-.589-.635a.91.91 0 0 0-.68.298c-.18.194-.28.459-.276.733v7.244c0 .13.103.208.196.237l.663.212c.092.03.22.106.22.238v.582a.246.246 0 0 1-.064.168.213.213 0 0 1-.156.07h-4.269a.213.213 0 0 1-.156-.07.246.246 0 0 1-.065-.168v-3.268c-1.206 1.344-3.65 3.876-4.922 3.876-1.406 0-1.226-1.639-2.29-1.639-.923 0-.98 1.639-3.557 1.639-2.77 0-5.027-2.802-5.027-6.292 0-3.463 2.256-6.291 5.027-6.291 2.265 0 2.781 1.322 3.337 1.322.343 0 .49-.291.564-.714a.271.271 0 0 1 .27-.238h3.557c.058 0 .114.025.156.07a.247.247 0 0 1 .064.168v.582c0 .132-.123.207-.22.238l-.663.21c-.096.032-.196.107-.196.239v6.397c0 .423.368.766.76.766.713 0 2.238-1.356 3.14-2.225v-4.515c0-.29-.205-.423-.425-.423-.27 0-.281.265-.629.265-.32 0-.516-.29-.516-.555 0-.503.835-1.586 2.134-1.586 2.248 0 1.901 1.798 2.698 1.798.724 0 .847-1.798 2.82-1.798 1.45-.002 2.603 1.215 2.603 2.774zm-16.215 1.586c0-.793-1.005-1.585-1.938-1.585-1.717 0-2.82 1.454-2.82 3.515s1.103 3.543 2.82 3.543c.932 0 1.938-.794 1.938-1.587v-3.886zm17.337 3.898c0 3.08 2.172 3.953 3.622 3.953h7.45c1.69 0 3.299-1.324 3.299-3.466 0-3.238-4.633-2.946-4.633-4.804 0-.754.681-1.022 1.527-1.022.635 0 1.506.304 1.994.694.171.135.305.002.347-.1l1.143-2.823c.048-.122-.01-.32-.2-.32h-5.351c-1.461 0-2.754 1.36-2.754 3.038 0 3.333 4.023 2.743 4.023 5.003 0 .877-.648 1.627-1.55 1.627-1.776 0-2.524-1.28-2.606-2.018-.015-.143-.185-.243-.302-.192l-.738.315c-.14.06-.167.269-.091.371.127.168.2.332.2.597 0 .51-.373.946-.882.946-.508 0-.87-.465-.87-.946V6.106a.247.247 0 0 0-.063-.168.213.213 0 0 0-.157-.07h-4.268a.213.213 0 0 0-.157.07.246.246 0 0 0-.064.168v.582c0 .132.128.208.221.237l.662.212c.094.03.196.105.196.237v14.472h.002z"/>
        <path d="M95.639 14.195v.582c0 .132-.124.206-.22.237l-.663.211c-.097.031-.197.106-.197.238v12.159c0 2.961-2.317 5.34-5.052 5.34-1.864 0-3.508-.926-4.341-2.458-1.13 2.167-4.783 6.82-15.43 6.82-5.862 0-15.82-3.12-20.996-3.12-7.109 0-11.8 2.075-16.679 7.349-.111.12-.202.154-.351.066l-9.093-5.353c-.117-.069-.168-.262-.05-.37C28.58 30.4 37.286 27.57 43.442 27.57c12.044 0 20.432 6.423 30.318 6.423 8.34 0 10.767-4.494 10.767-6.001 0-.063.023-.124.065-.169a.213.213 0 0 1 .157-.069h.834c.099 0 .221.08.221.238 0 1.507 1.152 2.643 2.6 2.643 1.448 0 2.526-1.215 2.526-2.853v-2.326c0-.264-.121-.422-.38-.422-.379 0-.747 1.135-2.857 1.135-2.771 0-5.028-2.802-5.028-6.291 0-3.463 2.257-6.292 5.028-6.292 2.265 0 2.78 1.322 3.336 1.322.342 0 .489-.291.563-.713a.273.273 0 0 1 .27-.239h3.558c.059 0 .115.026.156.07a.247.247 0 0 1 .064.169zm-4.71 3.753c0-.793-1.005-1.585-1.937-1.585-1.716 0-2.82 1.454-2.82 3.515s1.104 3.543 2.82 3.543c.932 0 1.937-.794 1.937-1.587v-3.886z"/>
        <path d="M83.645 13.322c0 2.433-1.423 3.726-2.6 3.726-1.394 0-1.2-1.03-2.109-1.03-.54 0-1.03.449-1.03 1.03v7.244c0 .13.102.208.196.238l.662.211c.094.03.221.106.221.238v.583a.246.246 0 0 1-.064.168.213.213 0 0 1-.157.07h-4.268a.212.212 0 0 1-.156-.07.245.245 0 0 1-.064-.168v-8.407c0-.66-.394-.952-.883-.952-.452 0-1.156.432-1.792.906-.048 2.6-2.22 4.566-5.593 4.566 0 .502 1.056 2.351 3.142 2.351 1.225 0 2.145-.475 2.782-1.375.293-.41.992-.249.663.57-.318.794-1.778 2.948-4.745 2.948-2.75.006-5.129-2.057-5.706-4.949a7.19 7.19 0 0 1-1.85-.908v2.208c0 1.876-1.201 3.278-3.09 3.278h-1.766c-2.6 0-4.219-1.56-4.219-3.991V7.374c0-.133-.1-.207-.196-.238l-.663-.211c-.097-.031-.222-.105-.222-.238v-.581c0-.133.1-.239.222-.239h4.269c.122 0 .22.106.22.239v16.043c0 1.165 1.054 1.667 1.816 1.667.833 0 1.814-.344 1.814-1.587v-3.172l-1.471-.951c-.199-.128-.343-.29-.343-.608v-3.305c0-.063.023-.123.064-.168a.213.213 0 0 1 .157-.07h3.188c.059 0 .115.025.157.07a.247.247 0 0 1 .064.168v4.488c.467.334 1.12.721 1.72.996.096-3.395 2.635-6.091 5.835-6.091 1.789 0 2.926.902 3.438 2.01 1.058-.882 2.666-2.01 3.97-2.01 1.462 0 1.465 1.295 2.183 1.295.245 0 .44-.238.44-.502 0-.324-.145-.569-.145-.872 0-.582.54-1.11 1.127-1.11 1.06 0 1.664 1.189 2.577 1.189.392 0 .858-.423.858-1.057 0-.606-.65-1.556-1.276-2.115-.43-.383.036-1.088.577-.753 1.36.847 2.046 2.168 2.046 3.661zm-14.179 3.833c0-.344-.097-1.216-1.128-1.216-1.226 0-2.526 1.586-2.526 4.256 2.38 0 3.654-2.036 3.654-3.04z"/>
        <path d="M78.71 2.48a.486.486 0 0 1-.357-.158.563.563 0 0 1-.147-.383V.837c0-.398-.299-.722-.67-.722a.639.639 0 0 0-.412.16 1.494 1.494 0 0 1-1.559.251c-.463-.198-.991-.001-1.24.463-.249.465-.142 1.055.25 1.387.44.38.66.981.578 1.581a.765.765 0 0 0 .076.464c.186.345.595.463.917.265l.885-.551a.486.486 0 0 1 .67.21.566.566 0 0 1-.168.729l-.885.55c-.32.2-.43.642-.244.987a.674.674 0 0 0 .333.304c.524.224.898.73.982 1.33.073.522.486.923.99.923.505 0 .918-.401.991-.923.084-.6.459-1.106.983-1.33a.686.686 0 0 0 .333-.304c.186-.346.076-.788-.246-.987l-.884-.55a.566.566 0 0 1-.167-.73.486.486 0 0 1 .67-.21l.884.552c.322.199.732.08.917-.265a.765.765 0 0 0 .077-.464c-.082-.6.138-1.202.578-1.581.39-.333.494-.923.246-1.387-.248-.463-.774-.66-1.236-.463a1.496 1.496 0 0 1-1.562-.25.628.628 0 0 0-.41-.16c-.371 0-.67.323-.67.721V1.94a.56.56 0 0 1-.147.383.484.484 0 0 1-.356.159zM26.336 28.202c-2.693 2.893-6.557 4.85-10.661 4.85C7.467 33.05.492 25.786.492 16.395c0-6.348 2.86-11.852 7.23-16.07a.74.74 0 0 1 .503-.211h18.946c.168 0 .281.205.151.366l-6.32 8.961c-.09.13-.257.13-.36.02-1.187-1.28-3.2-2.09-5.076-2.09-5.147 0-9.247 5.534-9.247 11.038 0 6.643 5.199 12.15 11.4 12.15 2.937 0 5.824-1.229 7.825-3.218.655-.65 1.41.194.792.859z"/>
    </g>
</svg>
