<svg xmlns="http://www.w3.org/2000/svg" width="100" height="36" viewBox="0 0 100 36">
    <g fill="#E61A27" fill-rule="nonzero">
        <path d="M38.401 30.858c-3.72-2.578-8.77-3.03-16.915-.6-8.682 2.195-11.577 3.601-15.378.777-1.46-1.387-1.984-3.62-1.593-6.838.907-5.245 3.357-10.293 7.71-15.892 2.43-2.912 4.684-5.412 7.66-6.415 2.281-.63 2.068 1.298 1.792 1.574-.291 0-.78.05-1.159.315-.306.256-1.149 1.082-1.194 2.194-.065 1.702 1.572 1.348 2.279.414.761-1.054 1.886-3.07 1.001-4.95-.37-.67-1.012-1.132-1.808-1.289-2.725-.167-5.263 1.23-7.605 2.775C8.068 6.75 3.97 12.054 1.65 17.86.314 21.363-.894 26.38.918 30.465c1.402 2.834 4.312 4.339 7.784 4.024 2.436-.275 5.38-1.122 7.361-1.633 1.981-.512 12.12-4.26 15.45 2.264 0 0 1.108-2.313 3.877-2.363 2.276-.226 5.56.71 7.95 2.598-.796-1.289-3.055-3.188-4.939-4.497z"/>
        <path d="M22.52 8.965c-1.896-1.339-5.707 1.22-8.76 5.608-2.792 3.937-3.997 8.512-2.685 10.627 1.951 2.49 5.574-1.131 7.114-3.07l.199-.226c1.048-1.21 1.857-2.667 2.64-4.064 0 0 .72-1.28.755-1.339.445-.088.98-.226 1.585-.413-.009.03-2.311 4.192-2.076 6.258.073.63.017 2.933 2.107 3.631 2.785.503 5.01-1.82 6.972-3.886l.524-.54-.11.48c-.816 3.05.283 3.69.97 3.927 2.079.65 4.561-2.598 4.57-2.598-.065 1.023-.253 1.87.75 2.548.945.365 1.903-.19 2.631-.712 2.622-1.988 4.734-5.099 6.44-7.788h-1.088c-.013 0-2.685 4.167-4.42 5.072-.003 0-.32.175-.501.037-.226-.207-.137-.637.002-.941L46.84 9.072h-3.16s-.345.6-.373.64c-.021-.02-.072-.123-.107-.172-1.957-2.913-6.39 1.567-9.727 6.763-1.285 1.997-2.921 4.247-4.617 5.87 0 0-2.513 2.478-3.587.698-.392-.748-.272-1.842-.05-2.56 1.25-3.828 3.404-7.302 5.855-9.398.692-.58 1.444-.748 1.817-.502.356.227.414.787.189 1.171-.571-.02-1.029.167-1.4.58-.733.827-.988 1.624-.755 2.372 1.132 1.732 3.388-1.692 3.279-3.778-.039-.748-.41-1.457-.964-1.801-.825-.531-2.084-.394-2.898.03-1.09.442-2.817 1.987-3.825 3.188-1.268 1.505-3.444 3.178-4.124 2.99.223-.64 2.06-4.683.127-6.198zm15.233 5.982c.614-.915 2.403-3.365 2.84-3.778 1.466-1.388 2.052-.777 2.103-.345a317.743 317.743 0 0 1-4.503 8.374c.003-.01-.476.778-.476.778-.67 1.101-1.346 2.046-2.448 2.705-.157.05-.416.07-.589-.069-.207-.147-.289-.394-.266-.65.066-.845.867-3.433 3.339-7.015zm-17.189 1.584s-.027.09-.04.118c-.004 0-1.378 2.41-1.378 2.41-.83 1.192-1.865 2.688-3.16 3.406-.383.137-.913.226-1.183-.138-.573-.738-.278-1.761-.038-2.588l.085-.295c.688-2.007 1.779-3.779 2.841-5.422a.133.133 0 0 1 .054-.02c.002.01.007.01.008.03.667 1.378 1.917 2.017 2.851 2.313.006 0 .012.01.012.03a.51.51 0 0 1-.052.156zm1.302-2.843c-.006.02-.612 1.515-.612 1.515-.087.079-.226.04-.385 0l-.272-.05c-.854-.284-1.498-.895-1.697-1.623-.273-1.417.852-2.529 1.348-2.932.475-.354 1.215-.541 1.644-.177.265.335.366.767.366 1.24 0 .64-.184 1.358-.392 2.027zm39.943 4.565a1.843 1.843 0 0 0-1.799-1.112c-2.503.247-4.95 2.46-6.236 5.639-.675 1.633-1.043 2.981-1.284 5.126.778-.964 2.365-2.548 4.167-3.414 0 0 .245-2.057 1.495-3.887.473-.758 1.42-1.978 2.483-1.653.928.334.602 3.1-.633 5.776-.913 1.968-2.31 3.936-3.724 5.294-1.25 1.141-3.1 2.519-4.718 1.456-1.02-.649-1.54-2.007-1.43-3.759.487-4.969 2.59-9.2 5.6-14.021C58.833 9.22 62.253 4.625 66.86 2.175c.94-.512 1.81-.63 2.563-.315 0 0-4.326 2.558-6.388 7.291-.524 1.201-1.254 2.824-.519 4.261.384.748 1.065.807 1.614.767 2.528-.63 4.16-3.168 5.495-5.49.773-1.761 1.46-3.513 1.46-5.461 0-.236-.01-.551-.03-.788 1.208-.688 3.684.532 3.684.532 1.935.689 6.055 4.084 7.445 4.733.678-.846 1.792-2.125 2.419-2.765l-.908-.6c-1.454-.955-2.99-1.86-4.503-2.755-3.435-2.017-6.23-1.31-7.654-.758-.559.216-1.07.403-1.07.403C69.413-.01 67.681.108 66.405.443c-4.59 1.417-8.85 4.87-13.418 10.863-3.359 4.694-5.442 8.748-6.552 12.753-.856 2.696-1.116 6.662.973 9.014 1.776 1.997 4.13 1.564 5.794.846 3.603-1.91 6.842-6.022 8.456-10.756.39-1.406.821-3.394.15-4.91zm8.286-14.828c-.477 5.884-4.73 9.338-5.782 9.613-.638.138-1.726-.167-.754-2.637 1.43-3.326 3.872-6.15 6.492-7.596.064.246.062.403.044.62zm25.224.747C93.032 5.57 90.661 6.475 87.79 6.16a46.874 46.874 0 0 0-2.283 2.982c4.028 1.102 8.3-1.349 10.681-3.68C98.708 3.11 100 .148 100 .148s-1.889 2.322-4.68 4.024zm-43.228 4.9h-3l-1.693 2.958h3l1.693-2.958z"/>
        <path d="M87.778 31.132c-.322.236-.775.055-.606-.486.422-1.378 2.1-4.185 2.1-4.185l4.675-8.918h-3.202c-.152.269-.478.886-.478.886-.148-.265-.59-.855-.773-.983-.782-.532-1.93-.28-2.722.202-3.442 2.165-5.954 6.443-7.934 9.779 0 0-2.086 3.708-3.243 3.984-.904.078-.81-1.231-.771-1.536.35-2.205 1.16-4.3 1.978-6.2a45.086 45.086 0 0 0 5.284-4.644c3.743-3.848 6.898-8.207 7.359-9.18 0 0-.5.108-1.089.127-2.879 4.32-8.77 10.598-10.556 11.533.79-2.048 5.903-11.818 10.253-16.492l.685-.709c1.058-1.112 2.155-2.253 3.01-2.44.09-.01.206 0 .307.226.038.866-.262 1.506-.605 2.234l-.482 1.063s.682-.138 1.13-.296c.52-1.052 1.096-2.233.884-3.64-.07-.453-.376-.797-.774-.876-1.297-.266-2.712.767-3.85 1.604l-.046.03c-5.85 4.93-10.79 12.034-15.109 21.736-.313.255-1.522.56-1.728.413.427-.944.964-2.214 1.233-3.592.046-.394.09-.797.09-1.19 0-.847-.19-1.644-.895-2.195-.827-.442-1.85-.236-2.538.099-3.087 1.377-5.395 4.782-7.06 7.586-.895 1.782-1.788 3.69-2.036 5.875-.174 1.711.18 2.814 1.086 3.365.93.511 2.102-.02 2.562-.276 3.127-1.771 5.313-5.323 7.035-8.57.069-.01 1.01-.04 1.72-.237.01 0 .014 0 .03.01-.041.148-.409 1.329-.409 1.329-1.091 3.443-1.596 5.786-.565 7.173 1.474 1.958 3.913-.069 5.898-2.746-.426 3.208 1.12 3.71 2.298 3.464 1.353-.393 2.861-1.948 3.561-2.745-.225.935-.164 2.608 1.068 2.775.843.168 1.475-.326 2.206-.75 2.62-1.534 5.758-6.65 6.573-8.13h-1.068c-1.158 1.884-2.632 4.352-4.486 5.523zm-23.527-.342c-.166-.266-.221-.557-.227-.87-.032-1.93 1.898-5.385 3.26-7.268h.003c.571 1.345 1.864 2.209 2.644 2.573-.969 2.323-4.293 7.296-5.68 5.565zm6.227-6.603c-.092.07-1.722-.521-2.037-2.145-.267-1.398.628-2.49 1.493-3.04.372-.315.932-.423 1.342-.267.382.276.485.769.485 1.3 0 .325-.04.659-.076.964l-.008.069a13.676 13.676 0 0 1-1.199 3.119zm13.075 5.983l-.31.295c-.439.423-.891.876-1.438.65-.15-.06-.257-.276-.282-.444-.025-1.21.481-2.332.973-3.424l.126-.285c1.413-2.539 3.056-5.53 5.47-7.606.406-.316.847-.581 1.313-.374.107.108.232.295.232.482a.86.86 0 0 1-.077.265c-.674 1.172-1.316 2.402-1.94 3.582-1.22 2.332-2.485 4.743-4.067 6.859z"/>
    </g>
</svg>
