<?xml version="1.0" encoding="UTF-8"?>
<svg width="100px" height="48px" viewBox="0 0 100 48" version="1.1" xmlns="http://www.w3.org/2000/svg" xmlns:xlink="http://www.w3.org/1999/xlink">
    <!-- Generator: sketchtool 49.3 (51167) - http://www.bohemiancoding.com/sketch -->
    <title>B181D5B1-A5CD-4B6A-BD0A-FBC2CB243CED</title>
    <desc>Created with sketchtool.</desc>
    <defs></defs>
    <g id="Page-1" stroke="none" stroke-width="1" fill="none" fill-rule="evenodd">
        <g id="AFR_supply-of-equipment" transform="translate(-1179.000000, -3011.000000)" fill-rule="nonzero">
            <g id="555" transform="translate(1179.000000, 3011.000000)">
                <path d="M8.52998066,34.5357834 C9.64216634,34.4970986 10.4255319,34.3423598 10.8994197,34.0812379 C11.615087,33.6750484 11.9825919,32.9206963 11.9825919,31.8085106 L11.9825919,13.0560928 C11.9825919,11.934236 11.6247582,11.1798839 10.9187621,10.7833656 C10.4932302,10.5415861 9.69052224,10.3868472 8.52998066,10.3094778 L8.52998066,9.32301741 L30.5029014,9.32301741 L30.5029014,17.1373308 L29.5551257,17.1373308 C29.0715667,14.729207 28.2688588,13.0464217 27.1373308,12.0793037 C26.0058027,11.1121857 23.9071567,10.6189555 20.8510638,10.6189555 C19.7195358,10.6189555 18.9941973,10.754352 18.6750484,11.0154739 C18.3752418,11.2669246 18.2205029,11.7504836 18.2205029,12.4564797 L18.2205029,21.4313346 C20.3191489,21.4700193 21.7311412,21.0251451 22.4564797,20.106383 C23.2011605,19.1876209 23.762089,17.7176015 24.139265,15.696325 L25.1257253,15.696325 L25.1257253,28.7911025 L24.139265,28.7911025 C23.8781431,26.6924565 23.3365571,25.1740812 22.5338491,24.2069632 C21.7408124,23.2495164 20.2998066,22.7659574 18.2205029,22.7659574 L18.2205029,31.7891683 C18.2205029,32.9883946 18.5686654,33.7524178 19.2649903,34.0812379 C19.9709865,34.4003868 21.0444874,34.5454545 22.4854932,34.516441 L22.4854932,35.5029014 L8.52998066,35.5029014 L8.52998066,34.5357834 Z" id="Shape" fill="#000000"></path>
                <path d="M31.2088975,34.5357834 C32.688588,34.5261122 33.6460348,34.2649903 34.0812379,33.762089 C34.5261122,33.2495164 34.7388781,32.4758221 34.7485493,31.450677 L34.7485493,13.0560928 C34.7485493,11.9922631 34.4970986,11.3056093 33.9941973,10.9767892 C33.4912959,10.6382979 32.5918762,10.4158607 31.3056093,10.3191489 L31.3056093,9.33268859 L41.073501,9.33268859 L48.7040619,27.2727273 L49.0232108,27.2727273 L56.615087,9.33268859 L66.3829787,9.33268859 L66.3829787,10.3191489 C65.0676983,10.4158607 64.1779497,10.6673114 63.6943907,11.0541586 C63.2108317,11.4313346 62.9787234,12.3694391 62.9787234,13.8781431 L62.9787234,31.0058027 C62.9787234,32.4274662 63.2205029,33.3655706 63.6943907,33.8104449 C64.1779497,34.2553191 65.0676983,34.4970986 66.3829787,34.5454545 L66.3829787,35.5319149 L53.5009671,35.5319149 L53.5009671,34.5454545 C54.6518375,34.5067698 55.5125725,34.3133462 56.0928433,33.9748549 C56.6731141,33.6170213 56.9632495,32.8626692 56.9632495,31.6827853 L56.9632495,12.7272727 L56.6827853,12.7272727 L47.1856867,35.5125725 L46.1411992,35.5125725 L36.5473888,13.1818182 L36.3733075,13.1818182 L36.3733075,30.7253385 C36.3733075,32.0116054 36.615087,32.9497099 37.0889749,33.549323 C37.5725338,34.139265 38.6266925,34.4680851 40.270793,34.5357834 L40.270793,35.5222437 L31.2088975,35.5222437 L31.2088975,34.5357834 Z" id="Shape" fill="#000000"></path>
                <path d="M67.3887814,9.32301741 L90.7156673,9.32301741 L90.754352,17.1373308 L89.6421663,17.1373308 C89.2746615,14.3520309 88.2301741,12.4661509 86.4990329,11.4796905 C85.5319149,10.9381044 84.0812379,10.6382979 82.1470019,10.589942 L82.1470019,30.9961315 C82.1470019,32.417795 82.3887814,33.3655706 82.8820116,33.8394584 C83.384913,34.303675 84.4294004,34.5357834 86.0058027,34.5357834 L86.0058027,35.5222437 L72.1953578,35.5222437 L72.1953578,34.5357834 C73.7137331,34.5357834 74.7098646,34.303675 75.2030948,33.8394584 C75.7059961,33.3558994 75.9574468,32.417795 75.9574468,30.9961315 L75.9574468,10.589942 C74.0618956,10.6382979 72.6112186,10.9381044 71.6054159,11.4796905 C69.7485493,12.4854932 68.7040619,14.3713733 68.4622824,17.1373308 L67.3500967,17.1373308 L67.3887814,9.32301741 Z" id="Shape" fill="#000000"></path>
                <polygon id="Shape" fill="#C20D19" points="41.7988395 9.05222437 50.7640232 0.087040619 51.9245648 2.19535783 42.9690522 11.1508704"></polygon>
                <polygon id="Shape" fill="#C20D19" points="41.7988395 13.6363636 50.7640232 4.68085106 51.9245648 6.7794971 42.9690522 15.7350097"></polygon>
                <polygon id="Shape" fill="#C20D19" points="41.7988395 18.2301741 50.7640232 9.26499033 51.9245648 11.3733075 42.9690522 20.3288201"></polygon>
                <path d="M0.0483558994,45.2224371 C0.251450677,45.2030948 0.396518375,45.1644101 0.473887814,45.106383 C0.589941973,45.0193424 0.696324952,44.8452611 0.773694391,44.5647969 L1.85686654,40.6673114 C1.88588008,40.5705996 1.90522244,40.4932302 1.91489362,40.4255319 C1.94390716,40.2998066 1.95357834,40.212766 1.95357834,40.1450677 C1.95357834,39.9903288 1.90522244,39.893617 1.79883946,39.8355899 C1.69245648,39.787234 1.51837524,39.7582205 1.26692456,39.7485493 L1.26692456,39.6034816 L5.65764023,39.6034816 L5.3868472,40.9477756 L5.20309478,40.9284333 C5.21276596,40.8317215 5.21276596,40.7640232 5.21276596,40.7156673 C5.21276596,40.6479691 5.21276596,40.589942 5.21276596,40.5609284 C5.21276596,40.2901354 5.10638298,40.1160542 4.9032882,40.0290135 C4.70019342,39.9419729 4.26499033,39.893617 3.6073501,39.893617 C3.32688588,39.893617 3.14313346,39.9032882 3.05609284,39.9323017 C2.95938104,39.9613153 2.90135397,40.0193424 2.87234043,40.1257253 L2.29206963,42.1760155 C3.04642166,42.1566731 3.50096712,42.1083172 3.66537718,42.040619 C3.82978723,41.9729207 4.00386847,41.7408124 4.20696325,41.3636364 L4.36170213,41.4023211 L3.69439072,43.4622824 L3.53965184,43.4235977 C3.56866538,43.2495164 3.58800774,43.1431335 3.59767892,43.0851064 C3.6073501,43.0270793 3.6073501,42.9690522 3.6073501,42.9206963 C3.6073501,42.7176015 3.52030948,42.5918762 3.35589942,42.5338491 C3.24951644,42.4951644 3.03675048,42.4758221 2.70793037,42.4758221 L2.20502901,42.4758221 L1.66344294,44.4390716 C1.62475822,44.5938104 1.59574468,44.6808511 1.5860735,44.7195358 C1.57640232,44.7485493 1.57640232,44.787234 1.57640232,44.8355899 C1.57640232,44.9903288 1.64410058,45.0967118 1.76982592,45.1547389 C1.85686654,45.1934236 2.01160542,45.212766 2.25338491,45.2321083 L2.25338491,45.377176 L0.0290135397,45.377176 L0.0290135397,45.2224371 L0.0483558994,45.2224371 Z" id="Shape" fill="#000000"></path>
                <path d="M8.13346228,41.8471954 C8.32688588,42.098646 8.43326886,42.4081238 8.43326886,42.7562863 C8.43326886,43.3655706 8.16247582,43.9651838 7.63056093,44.5454545 C7.07930368,45.1547389 6.4893617,45.4545455 5.86073501,45.4545455 C5.46421663,45.4545455 5.1450677,45.3384913 4.91295938,45.106383 C4.67117988,44.8742747 4.55512573,44.5551257 4.55512573,44.139265 C4.55512573,43.5106383 4.82591876,42.9110251 5.35783366,42.3307544 C5.89941973,41.7408124 6.4893617,41.450677 7.12765957,41.450677 C7.59187621,41.4603482 7.9303675,41.5860735 8.13346228,41.8471954 M5.45454545,45.0386847 C5.57059961,45.1934236 5.75435203,45.270793 5.97678917,45.270793 C6.4410058,45.270793 6.85686654,44.9129594 7.22437137,44.2069632 C7.53384913,43.5976789 7.68858801,43.0464217 7.68858801,42.5338491 C7.68858801,42.3210832 7.65957447,42.1470019 7.61121857,42.0116054 C7.51450677,41.7601547 7.33075435,41.6344294 7.05996132,41.6344294 C6.62475822,41.6344294 6.20889749,41.9632495 5.82205029,42.6208897 C5.46421663,43.2398453 5.28046422,43.8394584 5.28046422,44.4294004 C5.28046422,44.6808511 5.3384913,44.8742747 5.45454545,45.0386847" id="Shape" fill="#000000"></path>
                <path d="M12.3307544,41.8471954 C12.5241779,42.098646 12.6305609,42.4081238 12.6305609,42.7562863 C12.6305609,43.3655706 12.3597679,43.9651838 11.827853,44.5454545 C11.2765957,45.1547389 10.6866538,45.4545455 10.0580271,45.4545455 C9.6615087,45.4545455 9.34235977,45.3384913 9.11025145,45.106383 C8.86847195,44.8742747 8.75241779,44.5551257 8.75241779,44.139265 C8.75241779,43.5106383 9.02321083,42.9110251 9.55512573,42.3307544 C10.0967118,41.7408124 10.6866538,41.450677 11.3249516,41.450677 C11.7988395,41.4603482 12.1373308,41.5860735 12.3307544,41.8471954 M9.6615087,45.0386847 C9.77756286,45.1934236 9.96131528,45.270793 10.1837524,45.270793 C10.6479691,45.270793 11.0638298,44.9129594 11.4313346,44.2069632 C11.7408124,43.5976789 11.8955513,43.0464217 11.8955513,42.5338491 C11.8955513,42.3210832 11.8665377,42.1470019 11.8181818,42.0116054 C11.72147,41.7601547 11.5377176,41.6344294 11.2669246,41.6344294 C10.8317215,41.6344294 10.4158607,41.9632495 10.0290135,42.6208897 C9.67117988,43.2398453 9.48742747,43.8394584 9.48742747,44.4294004 C9.48742747,44.6808511 9.54545455,44.8742747 9.6615087,45.0386847" id="Shape" fill="#000000"></path>
                <path d="M15.860735,41.6247582 C15.9187621,41.6924565 15.9574468,41.7988395 15.9864603,41.9439072 L16.4796905,40.1740812 C16.4893617,40.1257253 16.4990329,40.0870406 16.5087041,40.0483559 C16.5183752,40.0096712 16.5183752,39.9709865 16.5183752,39.9419729 C16.5183752,39.8259188 16.4990329,39.7582205 16.450677,39.729207 C16.4119923,39.7001934 16.3539652,39.6905222 16.2765957,39.6905222 C16.2282398,39.6905222 16.1798839,39.6905222 16.1411992,39.6905222 C16.1025145,39.6905222 16.0444874,39.7001934 15.9767892,39.7001934 L15.9767892,39.5551257 C16.3056093,39.516441 16.7504836,39.4390716 17.3210832,39.3326886 L17.3597679,39.3713733 L17.3500967,39.4197292 L16.5183752,42.5145068 L15.9574468,44.5841393 C15.9477756,44.6324952 15.9381044,44.6711799 15.9284333,44.7098646 C15.9187621,44.7485493 15.9187621,44.7775629 15.9187621,44.8162476 C15.9187621,44.893617 15.9381044,44.9419729 15.9767892,44.9709865 C16.0154739,44.9903288 16.0541586,45.0096712 16.0831721,45.0096712 C16.1702128,45.0096712 16.2862669,44.9323017 16.4410058,44.787234 C16.5280464,44.7001934 16.6537718,44.5647969 16.8085106,44.3713733 L16.9052224,44.4680851 L16.8471954,44.5551257 C16.7408124,44.7098646 16.6054159,44.8742747 16.4410058,45.0386847 C16.1411992,45.3288201 15.8800774,45.4738878 15.6479691,45.4738878 C15.5705996,45.4738878 15.5029014,45.4545455 15.4352031,45.4255319 C15.3191489,45.3578337 15.2611219,45.2321083 15.2611219,45.0580271 C15.2611219,45 15.270793,44.9032882 15.2901354,44.7678917 C15.3094778,44.6324952 15.3288201,44.4970986 15.3675048,44.3326886 C15.1450677,44.6615087 14.9129594,44.9419729 14.6518375,45.1547389 C14.3907157,45.3675048 14.1102515,45.4738878 13.8007737,45.4738878 C13.549323,45.4738878 13.3365571,45.3868472 13.1431335,45.2030948 C12.959381,45.0290135 12.8626692,44.7485493 12.8626692,44.3810445 C12.8626692,43.7524178 13.1528046,43.1141199 13.7234043,42.4468085 C14.2940039,41.7891683 14.8549323,41.4603482 15.3965184,41.4603482 C15.5996132,41.4603482 15.7640232,41.5183752 15.860735,41.6247582 M13.7330754,44.8259188 C13.8104449,44.9516441 13.9458414,45.0193424 14.139265,45.0193424 C14.5454545,45.0193424 14.9419729,44.6905222 15.3191489,44.032882 C15.6769826,43.4139265 15.8510638,42.8239845 15.8510638,42.2727273 C15.8510638,42.098646 15.8220503,41.9535783 15.7640232,41.8375242 C15.7059961,41.72147 15.589942,41.6634429 15.4158607,41.6634429 C14.9806576,41.6634429 14.5551257,42.0212766 14.1489362,42.7272727 C13.7814313,43.3558994 13.5976789,43.9071567 13.5976789,44.3713733 C13.6073501,44.5454545 13.655706,44.7001934 13.7330754,44.8259188" id="Shape" fill="#000000"></path>
                <path d="M18.8394584,45.2224371 C19.0909091,45.1934236 19.2649903,45.0967118 19.3713733,44.9516441 C19.4777563,44.8065764 19.6034816,44.4584139 19.7582205,43.9168279 L20.8413926,40.106383 C20.8800774,39.9806576 20.8123791,39.8839458 20.6673114,39.8355899 C20.5222437,39.7775629 20.3578337,39.7485493 20.1934236,39.7485493 L20.1934236,39.6034816 L21.7988395,39.6034816 L22.2727273,43.9071567 L22.3017408,43.9071567 L25.2417795,39.6034816 L26.7117988,39.6034816 L26.7117988,39.7485493 C26.4796905,39.7775629 26.3152805,39.8259188 26.2282398,39.893617 C26.1411992,39.9613153 26.0638298,40.1257253 25.9864603,40.3965184 L24.9032882,44.303675 C24.8742747,44.4197292 24.8452611,44.516441 24.8259188,44.6034816 C24.8065764,44.6905222 24.7969052,44.7678917 24.7969052,44.8355899 C24.7969052,44.9903288 24.8452611,45.0967118 24.9516441,45.1450677 C25.0580271,45.1934236 25.2321083,45.2224371 25.4738878,45.2224371 L25.4738878,45.3675048 L23.065764,45.3675048 L23.065764,45.2224371 C23.3075435,45.2030948 23.4816248,45.1644101 23.5880077,45.106383 C23.762089,45.0096712 23.8781431,44.8355899 23.9555126,44.5647969 L25.0773694,40.4738878 L25.0483559,40.4738878 L21.7698259,45.3578337 L21.615087,45.3578337 L21.0831721,40.6286267 L21.0541586,40.6286267 L20.0483559,44.3520309 C20.0290135,44.4294004 20.0096712,44.516441 19.9903288,44.6034816 C19.9709865,44.6905222 19.9613153,44.7582205 19.9613153,44.8065764 C19.9613153,44.9613153 20.0290135,45.0773694 20.1644101,45.1353965 C20.2514507,45.1740812 20.3868472,45.2030948 20.5802708,45.212766 L20.5802708,45.3578337 L18.8297872,45.3578337 L18.8297872,45.2224371 L18.8394584,45.2224371 Z" id="Shape" fill="#000000"></path>
                <path d="M29.2649903,41.6344294 C29.3326886,41.7021277 29.3810445,41.7794971 29.4197292,41.8858801 L29.4390716,41.9439072 L29.5357834,41.615087 C29.5454545,41.5764023 29.5551257,41.55706 29.5647969,41.5377176 C29.5744681,41.5280464 29.5938104,41.5183752 29.622824,41.5087041 L30.106383,41.450677 C30.1353965,41.450677 30.1450677,41.4603482 30.1450677,41.4700193 C30.1547389,41.4796905 30.1547389,41.4990329 30.1450677,41.5183752 C30.1353965,41.55706 30.1257253,41.5860735 30.1160542,41.6054159 C30.106383,41.6247582 30.106383,41.6537718 30.0870406,41.6924565 L29.6905222,43.2301741 C29.6034816,43.5686654 29.5357834,43.8588008 29.4680851,44.1005803 C29.3617021,44.5454545 29.3133462,44.7969052 29.3133462,44.8549323 C29.3133462,44.893617 29.3230174,44.9226306 29.3423598,44.9419729 C29.3617021,44.9613153 29.3907157,44.9709865 29.4197292,44.9709865 C29.4487427,44.9709865 29.4680851,44.9613153 29.4970986,44.9419729 C29.5261122,44.9226306 29.5647969,44.9032882 29.6131528,44.8646035 L29.6905222,44.8065764 C29.7098646,44.787234 29.7388781,44.7678917 29.7678917,44.7388781 C29.7969052,44.7098646 29.8355899,44.6711799 29.8742747,44.6324952 L30.1450677,44.3520309 L30.2514507,44.4390716 C29.9516441,44.8259188 29.7098646,45.0773694 29.5357834,45.2224371 C29.3520309,45.3578337 29.1779497,45.4255319 29.0232108,45.4255319 C28.9168279,45.4255319 28.8297872,45.3868472 28.7717602,45.3094778 C28.7137331,45.2321083 28.6847195,45.1450677 28.6847195,45.0290135 C28.6847195,44.9226306 28.7040619,44.7775629 28.7427466,44.5841393 C28.7814313,44.3907157 28.8201161,44.2263056 28.8588008,44.0909091 C28.8104449,44.1779497 28.7234043,44.303675 28.5976789,44.4680851 C28.4816248,44.6324952 28.3268859,44.787234 28.1528046,44.9419729 C27.9400387,45.1257253 27.7466151,45.2611219 27.5531915,45.3384913 C27.4081238,45.3868472 27.2630561,45.4158607 27.1179884,45.4158607 C26.8858801,45.4158607 26.6731141,45.3191489 26.4893617,45.1353965 C26.2959381,44.9419729 26.2088975,44.6711799 26.2088975,44.3230174 C26.2088975,43.7234043 26.4796905,43.0947776 27.0212766,42.4371373 C27.582205,41.7601547 28.1528046,41.4119923 28.7524178,41.4119923 C28.9651838,41.4603482 29.139265,41.5183752 29.2649903,41.6344294 M29.1295938,41.7988395 C29.032882,41.7021277 28.9168279,41.6537718 28.7814313,41.6537718 C28.3172147,41.6537718 27.8820116,42.0116054 27.4758221,42.7272727 C27.1179884,43.3558994 26.9439072,43.9071567 26.9439072,44.3617021 C26.9439072,44.5938104 26.9922631,44.7582205 27.0889749,44.8646035 C27.1856867,44.9709865 27.311412,45.0193424 27.4564797,45.0193424 C27.8916828,45.0193424 28.3075435,44.6711799 28.7137331,43.9748549 C29.0812379,43.3365571 29.2649903,42.7659574 29.2649903,42.2533849 C29.2746615,42.0502901 29.2263056,41.8955513 29.1295938,41.7988395" id="Shape" fill="#000000"></path>
                <path d="M33.7814313,41.7117988 C33.9361702,41.8665377 34.0135397,42.0212766 34.0135397,42.1760155 C34.0135397,42.311412 33.9748549,42.417795 33.8974855,42.4854932 C33.8201161,42.5628627 33.7234043,42.6015474 33.6170213,42.6015474 C33.5106383,42.6015474 33.4235977,42.5725338 33.3462282,42.5048356 C33.27853,42.4371373 33.2398453,42.3597679 33.2398453,42.2630561 C33.2398453,42.1856867 33.2591876,42.1083172 33.3075435,42.0212766 C33.3558994,41.934236 33.384913,41.8762089 33.384913,41.8568665 C33.384913,41.8085106 33.3558994,41.7601547 33.2978723,41.7311412 C33.2398453,41.6924565 33.1431335,41.6731141 33.0174081,41.6731141 C32.5531915,41.6731141 32.1566731,41.934236 31.8085106,42.4564797 C31.4700193,42.9787234 31.2959381,43.5299807 31.2959381,44.1102515 C31.2959381,44.4390716 31.3636364,44.6905222 31.4990329,44.8742747 C31.6344294,45.0580271 31.8471954,45.1547389 32.1179884,45.1547389 C32.3404255,45.1547389 32.5531915,45.0870406 32.7562863,44.9613153 C32.9690522,44.8355899 33.1624758,44.6711799 33.3365571,44.4680851 L33.3655706,44.4294004 L33.4912959,44.5261122 C33.2882012,44.7775629 33.0947776,44.9806576 32.9110251,45.1160542 C32.582205,45.3578337 32.2147002,45.4738878 31.8085106,45.4738878 C31.4216634,45.4738878 31.1121857,45.3481625 30.8704062,45.106383 C30.6286267,44.8646035 30.5125725,44.5261122 30.5125725,44.1005803 C30.5125725,43.4526112 30.7736944,42.8529981 31.3056093,42.3017408 C31.827853,41.7601547 32.3984526,41.4796905 33.0077369,41.4796905 C33.3752418,41.4796905 33.6266925,41.55706 33.7814313,41.7117988" id="Shape" fill="#000000"></path>
                <path d="M34.8259188,39.5938104 C35.0096712,39.5647969 35.1547389,39.5454545 35.270793,39.5357834 C35.3868472,39.516441 35.483559,39.5067698 35.5705996,39.4874275 C35.9090909,39.4197292 36.0928433,39.3907157 36.1218569,39.3810445 C36.1508704,39.3713733 36.1702128,39.3713733 36.1798839,39.3713733 C36.2185687,39.3907157 36.2282398,39.410058 36.2282398,39.4390716 L35.212766,43.2882012 C35.5705996,42.7562863 35.8704062,42.3597679 36.1025145,42.1179884 C36.5087041,41.6924565 36.8762089,41.4796905 37.205029,41.4796905 C37.3404255,41.4796905 37.4758221,41.5280464 37.6015474,41.615087 C37.7272727,41.7021277 37.794971,41.8568665 37.794971,42.0889749 C37.794971,42.1470019 37.7852998,42.2147002 37.7756286,42.3017408 C37.7659574,42.3887814 37.7466151,42.4661509 37.7272727,42.5338491 L37.1470019,44.5938104 C37.1276596,44.6518375 37.1179884,44.7098646 37.1083172,44.7582205 C37.098646,44.8065764 37.0889749,44.8549323 37.0889749,44.9032882 C37.0889749,44.9516441 37.098646,44.9903288 37.1276596,45.0193424 C37.1470019,45.0386847 37.1856867,45.0580271 37.2243714,45.0580271 C37.311412,45.0580271 37.417795,45 37.5338491,44.8742747 C37.6112186,44.7969052 37.7466151,44.622824 37.9497099,44.3617021 L38.065764,44.4680851 C37.8626692,44.7678917 37.6982592,44.9806576 37.5531915,45.1257253 C37.3017408,45.3675048 37.0502901,45.4932302 36.7988395,45.4932302 C36.6827853,45.4932302 36.5860735,45.4545455 36.5087041,45.3868472 C36.4313346,45.3191489 36.3926499,45.212766 36.3926499,45.0773694 C36.3926499,45.0386847 36.3926499,45.0096712 36.3926499,44.9709865 C36.4023211,44.9323017 36.4023211,44.9032882 36.4216634,44.8549323 L37.0889749,42.3307544 C37.098646,42.311412 37.098646,42.2823985 37.098646,42.2630561 C37.1083172,42.2340426 37.1083172,42.2147002 37.1083172,42.1856867 C37.1083172,42.1179884 37.0889749,42.0599613 37.040619,42.0212766 C36.9922631,41.9825919 36.934236,41.9632495 36.8665377,41.9632495 C36.6731141,41.9632495 36.4313346,42.1179884 36.1411992,42.4274662 C35.8510638,42.7369439 35.5996132,43.0464217 35.3965184,43.3752418 C35.2611219,43.5976789 35.1547389,43.8201161 35.0773694,44.0135397 C35.0096712,44.2166344 34.8742747,44.6808511 34.6711799,45.3965184 L34.0038685,45.3965184 L35.3868472,40.1740812 C35.3965184,40.1353965 35.3965184,40.106383 35.4061896,40.0773694 C35.4061896,40.0483559 35.4061896,40.0290135 35.4061896,40 C35.4061896,39.8742747 35.3675048,39.8065764 35.2901354,39.7775629 C35.212766,39.7485493 35.0580271,39.7485493 34.8259188,39.7582205 L34.8259188,39.5938104 Z" id="Shape" fill="#000000"></path>
                <path d="M40.0483559,41.4603482 C40.0676983,41.4700193 40.0773694,41.4796905 40.0676983,41.4990329 L39.1972921,44.5744681 C39.1586074,44.7388781 39.139265,44.8355899 39.139265,44.8646035 C39.139265,44.9032882 39.1489362,44.9419729 39.1682785,44.9806576 C39.1779497,45.0193424 39.2166344,45.0290135 39.2746615,45.0290135 C39.3713733,45.0290135 39.4970986,44.9419729 39.6615087,44.7775629 C39.7582205,44.6808511 39.8742747,44.5357834 40.0096712,44.3423598 L40.1257253,44.4390716 L40.0870406,44.4970986 C39.8742747,44.7969052 39.6905222,45.0193424 39.5551257,45.1450677 C39.3326886,45.3481625 39.1199226,45.4545455 38.9071567,45.4545455 C38.7814313,45.4545455 38.6847195,45.4061896 38.5976789,45.2998066 C38.5203095,45.1934236 38.4816248,45.0773694 38.4816248,44.9323017 C38.4816248,44.8452611 38.4912959,44.7775629 38.5009671,44.7195358 C38.5106383,44.6518375 38.5299807,44.5647969 38.5686654,44.4487427 L39.1682785,42.2340426 C39.1779497,42.1953578 39.1876209,42.1663443 39.1876209,42.1373308 C39.1972921,42.1083172 39.1972921,42.0793037 39.1972921,42.0502901 C39.1972921,41.9439072 39.1586074,41.8858801 39.0812379,41.8568665 C39.0038685,41.827853 38.8588008,41.8181818 38.6363636,41.8181818 L38.6363636,41.6827853 C38.8781431,41.6537718 39.0425532,41.6344294 39.1489362,41.615087 C39.2553191,41.5957447 39.3617021,41.5764023 39.4680851,41.5667311 C39.6034816,41.5473888 39.7388781,41.5183752 39.8646035,41.4893617 C39.9613153,41.4603482 40.0290135,41.450677 40.0483559,41.4603482 M39.6421663,40.3868472 C39.5551257,40.2901354 39.516441,40.1837524 39.516441,40.0580271 C39.516441,39.9226306 39.5551257,39.8162476 39.6421663,39.7195358 C39.729207,39.6324952 39.8259188,39.5841393 39.9419729,39.5841393 C40.0580271,39.5841393 40.1644101,39.6324952 40.2417795,39.7195358 C40.3288201,39.8162476 40.3675048,39.9226306 40.3675048,40.0580271 C40.3675048,40.1934236 40.3288201,40.2998066 40.2417795,40.3965184 C40.1547389,40.483559 40.0580271,40.5319149 39.9419729,40.5319149 C39.8259188,40.5222437 39.729207,40.4738878 39.6421663,40.3868472" id="Shape" fill="#000000"></path>
                <path d="M40.4545455,45.3675048 L41.1992263,42.7079304 C41.2669246,42.4854932 41.2959381,42.3500967 41.3056093,42.3017408 C41.3152805,42.2533849 41.3249516,42.205029 41.3249516,42.1470019 C41.3249516,42.0599613 41.2959381,42.0019342 41.2475822,41.9535783 C41.1992263,41.9052224 41.1121857,41.8762089 40.967118,41.8762089 C40.9284333,41.8762089 40.8994197,41.8762089 40.860735,41.8858801 C40.8317215,41.8858801 40.7930368,41.8955513 40.754352,41.8955513 L40.754352,41.7504836 C40.9381044,41.72147 41.073501,41.7021277 41.1508704,41.6827853 C41.2282398,41.6731141 41.3152805,41.6537718 41.4119923,41.6344294 L42.1856867,41.4700193 C42.205029,41.4796905 42.2147002,41.4990329 42.2243714,41.5087041 L41.6537718,43.3655706 C42.0019342,42.8336557 42.2920696,42.4274662 42.5338491,42.1663443 C42.9497099,41.7021277 43.3172147,41.4700193 43.6460348,41.4700193 C43.7717602,41.4700193 43.8781431,41.4990329 43.9748549,41.5473888 C44.1489362,41.6441006 44.2359768,41.8085106 44.2359768,42.0599613 C44.2359768,42.1276596 44.2263056,42.205029 44.2166344,42.2727273 C44.2069632,42.3500967 44.1876209,42.4274662 44.1586074,42.5145068 L43.5976789,44.5744681 C43.5880077,44.6131528 43.5686654,44.6711799 43.5589942,44.7388781 C43.549323,44.7969052 43.5396518,44.8452611 43.5396518,44.8646035 C43.5396518,44.9032882 43.549323,44.9419729 43.5686654,44.9806576 C43.5880077,45.0193424 43.6266925,45.0290135 43.6653772,45.0290135 C43.7427466,45.0290135 43.8297872,44.9903288 43.926499,44.9032882 C44.0232108,44.8162476 44.1876209,44.622824 44.4003868,44.3423598 L44.5261122,44.4584139 C44.2940039,44.7775629 44.1005803,45 43.9651838,45.1257253 C43.7330754,45.3481625 43.5009671,45.4642166 43.2882012,45.4642166 C43.1914894,45.4642166 43.0947776,45.4352031 43.0077369,45.3675048 C42.9206963,45.2998066 42.8723404,45.1837524 42.8723404,45.0096712 C42.8723404,44.9613153 42.8723404,44.9129594 42.8820116,44.8549323 C42.8916828,44.7969052 42.901354,44.7485493 42.9110251,44.7098646 L43.4526112,42.6208897 C43.4816248,42.5048356 43.5009671,42.4081238 43.5106383,42.3404255 C43.5203095,42.2630561 43.5299807,42.2147002 43.5299807,42.1760155 C43.5299807,42.1083172 43.5106383,42.0502901 43.4816248,42.0019342 C43.4526112,41.9535783 43.3945841,41.9245648 43.3075435,41.9245648 C43.0947776,41.9245648 42.8239845,42.1179884 42.4951644,42.5145068 C42.3017408,42.7466151 42.1083172,43.0270793 41.9052224,43.3462282 C41.7504836,43.5976789 41.6344294,43.8394584 41.5473888,44.0812379 C41.4603482,44.3133462 41.3249516,44.7485493 41.131528,45.3675048 L40.4545455,45.3675048 Z" id="Shape" fill="#000000"></path>
                <path d="M47.0309478,42.959381 C47.3791103,42.6499033 47.5435203,42.3500967 47.5435203,42.0502901 C47.5435203,41.9439072 47.5145068,41.8568665 47.4661509,41.7891683 C47.417795,41.72147 47.3404255,41.6924565 47.2340426,41.6924565 C47.0502901,41.6924565 46.8665377,41.7698259 46.6827853,41.934236 C46.5087041,42.0889749 46.344294,42.2727273 46.1992263,42.4758221 C46.0444874,42.7079304 45.9284333,42.9400387 45.8413926,43.1528046 C45.7930368,43.2688588 45.7446809,43.3945841 45.6866538,43.549323 C46.237911,43.4526112 46.6924565,43.2591876 47.0309478,42.959381 M45.6382979,42.3694391 C46.2088975,41.7698259 46.7988395,41.4700193 47.3984526,41.4700193 C47.6208897,41.4700193 47.8046422,41.5183752 47.9303675,41.6247582 C48.065764,41.7311412 48.1237911,41.8858801 48.1237911,42.0889749 C48.1237911,42.5048356 47.8820116,42.8529981 47.3984526,43.1528046 C46.9148936,43.44294 46.4119923,43.6266925 45.8704062,43.6943907 L45.6286267,43.7234043 C45.589942,43.8394584 45.5609284,43.9361702 45.5512573,44.0038685 C45.5415861,44.0715667 45.5319149,44.1586074 45.5319149,44.2649903 C45.5319149,44.516441 45.6092843,44.7098646 45.7736944,44.8549323 C45.9381044,45 46.1411992,45.0676983 46.3636364,45.0676983 C46.5764023,45.0676983 46.8085106,45 47.0502901,44.8549323 C47.1856867,44.7678917 47.3887814,44.622824 47.6499033,44.410058 L47.7659574,44.5067698 C47.6402321,44.6711799 47.4468085,44.8355899 47.2147002,45.0096712 C46.7891683,45.3191489 46.3539652,45.4738878 45.9284333,45.4738878 C45.6286267,45.4738878 45.3578337,45.3675048 45.1257253,45.1547389 C44.893617,44.9419729 44.7775629,44.6324952 44.7775629,44.2263056 C44.7775629,43.5880077 45.0580271,42.9690522 45.6382979,42.3694391" id="Shape" fill="#000000"></path>
                <path d="M50.0580271,41.4700193 C50.0676983,41.4893617 50.0773694,41.4990329 50.0773694,41.5183752 C50.0773694,41.5473888 50.0676983,41.5667311 50.0676983,41.5860735 L49.6324952,43.2495164 L49.729207,43.065764 C49.9323017,42.6595745 50.1740812,42.2920696 50.4545455,41.9632495 C50.7350097,41.6247582 50.9961315,41.4603482 51.2475822,41.4603482 C51.3829787,41.4603482 51.4893617,41.5087041 51.55706,41.5957447 C51.6344294,41.6827853 51.6731141,41.7891683 51.6731141,41.9052224 C51.6731141,42.0309478 51.6344294,42.1373308 51.55706,42.2243714 C51.4893617,42.311412 51.3829787,42.3500967 51.2572534,42.3500967 C51.1702128,42.3500967 51.1025145,42.3307544 51.0541586,42.3017408 C51.0058027,42.2630561 50.9767892,42.2243714 50.9477756,42.1856867 L50.8994197,42.0889749 C50.8897485,42.0696325 50.8704062,42.0599613 50.860735,42.0502901 C50.8510638,42.040619 50.8317215,42.0309478 50.8027079,42.0309478 C50.6866538,42.0309478 50.5319149,42.1856867 50.3191489,42.5048356 C50.106383,42.8143133 49.9226306,43.1528046 49.7582205,43.5203095 C49.6615087,43.7427466 49.5454545,44.032882 49.4197292,44.4003868 C49.3423598,44.6324952 49.2359768,44.9516441 49.1102515,45.377176 L48.44294,45.377176 L49.1586074,42.7852998 C49.1972921,42.6402321 49.2263056,42.5048356 49.2553191,42.3887814 C49.2843327,42.2727273 49.2940039,42.1760155 49.2940039,42.098646 C49.2940039,42.0116054 49.2746615,41.9439072 49.2263056,41.9052224 C49.1876209,41.8568665 49.1102515,41.8375242 49.0038685,41.8375242 C48.9651838,41.8375242 48.926499,41.8375242 48.8781431,41.8471954 C48.8297872,41.8568665 48.762089,41.8568665 48.6943907,41.8665377 L48.6943907,41.72147 L48.868472,41.6827853 C49.0909091,41.6344294 49.3326886,41.5860735 49.6034816,41.5377176 C49.8742747,41.4893617 50.0096712,41.4603482 50.0290135,41.4603482 C50.0290135,41.450677 50.0483559,41.4603482 50.0580271,41.4700193" id="Shape" fill="#000000"></path>
                <path d="M51.2959381,46.55706 C51.3539652,46.4893617 51.4410058,46.4603482 51.5473888,46.4603482 C51.615087,46.4603482 51.6827853,46.4700193 51.7408124,46.4990329 C51.7988395,46.5280464 51.8568665,46.5667311 51.9148936,46.615087 L51.9729207,46.6537718 C51.9922631,46.6634429 52.0116054,46.6827853 52.0309478,46.6827853 C52.0502901,46.6924565 52.0793037,46.6924565 52.098646,46.6924565 C52.2437137,46.6924565 52.4661509,46.5087041 52.7756286,46.131528 C53.0851064,45.7640232 53.2398453,45.4932302 53.2398453,45.3191489 C53.2398453,45.1547389 53.1818182,44.8452611 53.0754352,44.3713733 C52.9690522,43.8974855 52.8626692,43.4816248 52.7659574,43.1141199 C52.6305609,42.6015474 52.4951644,42.2437137 52.3791103,42.0599613 C52.2630561,41.8762089 52.0889749,41.7891683 51.8665377,41.7891683 C51.8471954,41.7891683 51.8181818,41.7891683 51.7794971,41.7988395 C51.7408124,41.7988395 51.6731141,41.8085106 51.5667311,41.8181818 L51.5667311,41.6731141 L52.7466151,41.450677 L52.8336557,41.4410058 C52.901354,41.4313346 53.0464217,41.7601547 53.2495164,42.4081238 C53.4332689,42.9980658 53.549323,43.4235977 53.5976789,43.6943907 L53.7717602,44.7195358 C54.0715667,44.2166344 54.2940039,43.8297872 54.4390716,43.5589942 C54.7098646,43.0270793 54.8549323,42.6595745 54.8549323,42.4468085 C54.8549323,42.3984526 54.8452611,42.3500967 54.8259188,42.3017408 C54.8065764,42.2533849 54.7678917,42.2147002 54.7098646,42.1760155 L54.6324952,42.1373308 C54.5841393,42.1179884 54.5357834,42.0696325 54.4680851,42.0116054 C54.410058,41.9439072 54.3810445,41.8665377 54.3810445,41.7601547 C54.3810445,41.6731141 54.410058,41.5957447 54.4680851,41.5377176 C54.5261122,41.4796905 54.6131528,41.450677 54.729207,41.450677 C54.8742747,41.450677 54.9903288,41.4893617 55.0773694,41.5764023 C55.1644101,41.6634429 55.212766,41.7988395 55.212766,42.0116054 C55.212766,42.3210832 55.0483559,42.8143133 54.7098646,43.4912959 C54.4487427,44.0135397 54.1586074,44.516441 53.8394584,45 C53.44294,45.6092843 53.0947776,46.0831721 52.8143133,46.4119923 C52.3597679,46.934236 51.9825919,47.1953578 51.6731141,47.1953578 C51.55706,47.1953578 51.450677,47.1566731 51.3636364,47.0889749 C51.2765957,47.0212766 51.2282398,46.9148936 51.2282398,46.7988395 C51.2088975,46.7021277 51.237911,46.6247582 51.2959381,46.55706" id="Shape" fill="#000000"></path>
                <path d="M58.0270793,41.6247582 C58.0174081,41.5473888 58.0174081,41.4603482 58.0174081,41.3829787 C58.0174081,40.8027079 58.1624758,40.3481625 58.4622824,40.0096712 C58.762089,39.6711799 59.0715667,39.5067698 59.4003868,39.5067698 C59.7001934,39.5067698 59.9226306,39.5841393 60.0773694,39.7485493 C60.2321083,39.9129594 60.3191489,40.0967118 60.3191489,40.3094778 C60.3191489,40.6576402 60.1353965,40.9864603 59.7678917,41.2959381 C59.5647969,41.4700193 59.245648,41.6537718 58.8104449,41.8762089 C58.868472,42.1760155 58.9748549,42.5531915 59.139265,43.0077369 C59.2940039,43.4622824 59.4390716,43.7814313 59.5744681,43.9651838 C59.8452611,43.6363636 60.0193424,43.4042553 60.0870406,43.27853 C60.2030948,43.0947776 60.2611219,42.9206963 60.2611219,42.7562863 C60.2611219,42.6402321 60.2321083,42.5628627 60.1644101,42.5241779 C60.0967118,42.4854932 59.9903288,42.4661509 59.8259188,42.4564797 L59.8259188,42.2920696 L61.4603482,42.2920696 L61.4603482,42.4371373 C61.237911,42.4758221 61.073501,42.5241779 60.9864603,42.6015474 C60.8897485,42.6692456 60.7640232,42.8239845 60.5996132,43.0754352 C60.377176,43.4042553 60.212766,43.6460348 60.1160542,43.7814313 C60.0193424,43.9168279 59.893617,44.0812379 59.7388781,44.2746615 C59.8646035,44.516441 60.0290135,44.7098646 60.212766,44.8646035 C60.3965184,45.0193424 60.5996132,45.0967118 60.8317215,45.0967118 C60.9477756,45.0967118 61.073501,45.0676983 61.1798839,45.0096712 C61.2475822,44.9709865 61.3346228,44.9129594 61.4313346,44.8355899 L61.5377176,44.9419729 C61.3829787,45.1160542 61.237911,45.2417795 61.1218569,45.3288201 C60.8994197,45.4738878 60.6673114,45.5415861 60.4158607,45.5415861 C60.1257253,45.5415861 59.8646035,45.4545455 59.622824,45.270793 C59.4874275,45.1644101 59.3423598,45.0193424 59.1972921,44.8355899 C58.8104449,45.0870406 58.5299807,45.2611219 58.3462282,45.3384913 C58.0560928,45.4738878 57.7562863,45.5319149 57.4371373,45.5319149 C56.9439072,45.5319149 56.55706,45.4061896 56.2669246,45.1450677 C55.9767892,44.893617 55.8317215,44.5647969 55.8317215,44.1586074 C55.8317215,43.8974855 55.8994197,43.655706 56.0251451,43.4332689 C56.1605416,43.2108317 56.3346228,43.0077369 56.5473888,42.8336557 C56.7117988,42.7079304 56.8568665,42.6015474 56.9922631,42.5338491 C57.1373308,42.4564797 57.4951644,42.2920696 58.0851064,42.0212766 C58.0464217,41.8375242 58.0270793,41.7021277 58.0270793,41.6247582 M56.9729207,44.7775629 C57.1953578,44.9806576 57.4564797,45.0773694 57.7659574,45.0773694 C58.0174081,45.0773694 58.2495164,45.0290135 58.4719536,44.9226306 C58.6943907,44.8162476 58.868472,44.7001934 58.9941973,44.5744681 C58.8491296,44.3810445 58.6750484,44.0522244 58.4912959,43.5880077 C58.2978723,43.1334623 58.1624758,42.7079304 58.0754352,42.3210832 C57.6789168,42.5048356 57.3791103,42.6789168 57.1760155,42.8529981 C56.8181818,43.1528046 56.6344294,43.5009671 56.6344294,43.8974855 C56.6441006,44.2843327 56.7601547,44.5744681 56.9729207,44.7775629 M59.4294004,41.073501 C59.6131528,40.860735 59.7098646,40.6092843 59.7098646,40.2901354 C59.7098646,40.1450677 59.6808511,40.0193424 59.622824,39.9226306 C59.5647969,39.8259188 59.4584139,39.7678917 59.3133462,39.7678917 C59.0618956,39.7678917 58.8878143,39.9129594 58.8007737,40.212766 C58.7524178,40.3868472 58.7234043,40.6382979 58.7234043,40.9574468 C58.7234043,41.0251451 58.7234043,41.0928433 58.7234043,41.1605416 C58.7330754,41.2282398 58.7427466,41.3636364 58.762089,41.5764023 C59.0909091,41.3733075 59.3133462,41.2088975 59.4294004,41.073501" id="Shape" fill="#000000"></path>
                <path d="M62.3307544,45.2224371 C62.5918762,45.2030948 62.7756286,45.1644101 62.8820116,45.106383 C63.0560928,45.0096712 63.1818182,44.8355899 63.2591876,44.5647969 L64.5357834,39.9129594 C63.8588008,39.9129594 63.4139265,39.9613153 63.1914894,40.0676983 C62.9690522,40.1644101 62.7176015,40.4738878 62.4274662,40.9961315 L62.2727273,40.967118 L62.6402321,39.6131528 L67.3404255,39.6131528 L66.9535783,41.0541586 L66.7988395,41.0348162 L66.8181818,40.7253385 C66.8181818,40.4545455 66.7601547,40.2514507 66.6344294,40.1257253 C66.5183752,39.9903288 66.2765957,39.9226306 65.9090909,39.9226306 L65.4158607,39.9226306 L64.1972921,44.3133462 C64.1682785,44.410058 64.1489362,44.4970986 64.1295938,44.5647969 C64.1005803,44.6808511 64.0909091,44.7678917 64.0909091,44.8355899 C64.0909091,45.0096712 64.139265,45.1160542 64.2553191,45.1547389 C64.3617021,45.1934236 64.5647969,45.2224371 64.8839458,45.2321083 L64.8839458,45.377176 L62.3307544,45.377176 L62.3307544,45.2224371 Z" id="Shape" fill="#000000"></path>
                <path d="M68.2205029,42.959381 C68.5686654,42.6499033 68.7330754,42.3500967 68.7330754,42.0502901 C68.7330754,41.9439072 68.7040619,41.8568665 68.655706,41.7891683 C68.6073501,41.72147 68.5299807,41.6924565 68.4235977,41.6924565 C68.2398453,41.6924565 68.0560928,41.7698259 67.8723404,41.934236 C67.6982592,42.0889749 67.5338491,42.2727273 67.3887814,42.4758221 C67.2340426,42.7079304 67.1179884,42.9400387 67.0309478,43.1528046 C66.9825919,43.2688588 66.934236,43.3945841 66.8762089,43.549323 C67.4371373,43.4526112 67.8820116,43.2591876 68.2205029,42.959381 M66.827853,42.3694391 C67.3984526,41.7698259 67.9883946,41.4700193 68.5880077,41.4700193 C68.8104449,41.4700193 68.9941973,41.5183752 69.1199226,41.6247582 C69.2553191,41.7311412 69.3133462,41.8858801 69.3133462,42.0889749 C69.3133462,42.5048356 69.0715667,42.8529981 68.5880077,43.1528046 C68.1044487,43.44294 67.5918762,43.6266925 67.0599613,43.6943907 L66.8181818,43.7234043 C66.7794971,43.8394584 66.7504836,43.9361702 66.7408124,44.0038685 C66.7311412,44.0715667 66.72147,44.1586074 66.72147,44.2649903 C66.72147,44.516441 66.7988395,44.7098646 66.9632495,44.8549323 C67.1276596,45 67.3307544,45.0676983 67.5531915,45.0676983 C67.7659574,45.0676983 67.9980658,45 68.2398453,44.8549323 C68.3752418,44.7678917 68.5783366,44.622824 68.8394584,44.410058 L68.9555126,44.5067698 C68.8297872,44.6711799 68.6363636,44.8355899 68.4042553,45.0096712 C67.9787234,45.3191489 67.5435203,45.4738878 67.1179884,45.4738878 C66.8181818,45.4738878 66.5473888,45.3675048 66.3152805,45.1547389 C66.0831721,44.9419729 65.967118,44.6324952 65.967118,44.2263056 C65.967118,43.5880077 66.2572534,42.9690522 66.827853,42.3694391" id="Shape" fill="#000000"></path>
                <path d="M72.9206963,41.7117988 C73.0754352,41.8665377 73.1528046,42.0212766 73.1528046,42.1760155 C73.1528046,42.311412 73.1141199,42.417795 73.0367505,42.4854932 C72.959381,42.5628627 72.8626692,42.6015474 72.7562863,42.6015474 C72.6499033,42.6015474 72.5628627,42.5725338 72.4854932,42.5048356 C72.417795,42.4371373 72.3791103,42.3597679 72.3791103,42.2630561 C72.3791103,42.1856867 72.3984526,42.1083172 72.4468085,42.0212766 C72.4951644,41.934236 72.5241779,41.8762089 72.5241779,41.8568665 C72.5241779,41.8085106 72.4951644,41.7601547 72.4371373,41.7311412 C72.3791103,41.6924565 72.2823985,41.6731141 72.1566731,41.6731141 C71.6924565,41.6731141 71.2959381,41.934236 70.9477756,42.4564797 C70.6092843,42.9787234 70.4448743,43.5299807 70.4448743,44.1102515 C70.4448743,44.4390716 70.5125725,44.6905222 70.6479691,44.8742747 C70.7833656,45.0580271 70.9961315,45.1547389 71.2669246,45.1547389 C71.4893617,45.1547389 71.7021277,45.0870406 71.9052224,44.9613153 C72.1179884,44.8355899 72.311412,44.6711799 72.4854932,44.4680851 L72.5145068,44.4294004 L72.6402321,44.5261122 C72.4371373,44.7775629 72.2437137,44.9806576 72.0599613,45.1160542 C71.7311412,45.3578337 71.3636364,45.4738878 70.9574468,45.4738878 C70.5705996,45.4738878 70.2611219,45.3481625 70.0193424,45.106383 C69.7775629,44.8646035 69.6615087,44.5261122 69.6615087,44.1005803 C69.6615087,43.4526112 69.9226306,42.8529981 70.4545455,42.3017408 C70.9767892,41.7601547 71.5473888,41.4796905 72.1566731,41.4796905 C72.5048356,41.4796905 72.7562863,41.55706 72.9206963,41.7117988" id="Shape" fill="#000000"></path>
                <path d="M73.9555126,39.5938104 C74.139265,39.5647969 74.2843327,39.5454545 74.4003868,39.5357834 C74.516441,39.516441 74.6131528,39.5067698 74.7001934,39.4874275 C75.0386847,39.4197292 75.2224371,39.3907157 75.2514507,39.3810445 C75.2804642,39.3713733 75.2998066,39.3713733 75.3094778,39.3713733 C75.3481625,39.3907157 75.3578337,39.410058 75.3578337,39.4390716 L74.3423598,43.2882012 C74.7001934,42.7562863 75,42.3597679 75.2321083,42.1179884 C75.6382979,41.6924565 76.0058027,41.4796905 76.3346228,41.4796905 C76.4700193,41.4796905 76.6054159,41.5280464 76.7311412,41.615087 C76.8568665,41.7021277 76.9245648,41.8568665 76.9245648,42.0889749 C76.9245648,42.1470019 76.9148936,42.2147002 76.9052224,42.3017408 C76.8955513,42.3887814 76.8762089,42.4661509 76.8568665,42.5338491 L76.2765957,44.5938104 C76.2572534,44.6518375 76.2475822,44.7098646 76.237911,44.7582205 C76.2282398,44.8065764 76.2185687,44.8549323 76.2185687,44.9032882 C76.2185687,44.9516441 76.2282398,44.9903288 76.2572534,45.0193424 C76.2765957,45.0386847 76.3152805,45.0580271 76.3539652,45.0580271 C76.4410058,45.0580271 76.5473888,45 76.6731141,44.8742747 C76.7504836,44.7969052 76.8858801,44.622824 77.0889749,44.3617021 L77.205029,44.4680851 C77.0019342,44.7678917 76.8375242,44.9806576 76.6924565,45.1257253 C76.4410058,45.3675048 76.1895551,45.4932302 75.9381044,45.4932302 C75.8220503,45.4932302 75.7253385,45.4545455 75.6479691,45.3868472 C75.5705996,45.3191489 75.5319149,45.212766 75.5319149,45.0773694 C75.5319149,45.0386847 75.5319149,45.0096712 75.5319149,44.9709865 C75.5415861,44.9323017 75.5415861,44.9032882 75.5609284,44.8549323 L76.2282398,42.3307544 C76.237911,42.311412 76.237911,42.2823985 76.237911,42.2630561 C76.2475822,42.2340426 76.2475822,42.2147002 76.2475822,42.1856867 C76.2475822,42.1179884 76.2282398,42.0599613 76.1798839,42.0212766 C76.131528,41.9825919 76.073501,41.9632495 76.0058027,41.9632495 C75.8123791,41.9632495 75.5705996,42.1179884 75.2804642,42.4274662 C74.9903288,42.7369439 74.7388781,43.0464217 74.5357834,43.3752418 C74.4003868,43.5976789 74.2940039,43.8201161 74.2166344,44.0135397 C74.1489362,44.2166344 74.0135397,44.6808511 73.8104449,45.3965184 L73.1431335,45.3965184 L74.516441,40.1740812 C74.5261122,40.1353965 74.5261122,40.106383 74.5357834,40.0773694 C74.5357834,40.0483559 74.5357834,40.0290135 74.5357834,40 C74.5357834,39.8742747 74.4970986,39.8065764 74.4197292,39.7775629 C74.3423598,39.7485493 74.1876209,39.7485493 73.9555126,39.7582205 L73.9555126,39.5938104 Z" id="Shape" fill="#000000"></path>
                <path d="M77.3404255,45.3675048 L78.0851064,42.7079304 C78.1431335,42.4854932 78.1818182,42.3500967 78.1914894,42.3017408 C78.2011605,42.2533849 78.2108317,42.205029 78.2108317,42.1470019 C78.2108317,42.0599613 78.1818182,42.0019342 78.1334623,41.9535783 C78.0851064,41.9052224 77.9980658,41.8762089 77.8626692,41.8762089 C77.8239845,41.8762089 77.794971,41.8762089 77.7562863,41.8858801 C77.7272727,41.8858801 77.688588,41.8955513 77.6499033,41.8955513 L77.6499033,41.7504836 C77.8336557,41.72147 77.9690522,41.7021277 78.0464217,41.6827853 C78.1237911,41.6731141 78.2108317,41.6537718 78.3075435,41.6344294 L79.0812379,41.4700193 C79.1005803,41.4796905 79.1102515,41.4990329 79.1199226,41.5087041 L78.549323,43.3655706 C78.8974855,42.8336557 79.1876209,42.4274662 79.4294004,42.1663443 C79.8452611,41.7021277 80.212766,41.4700193 80.5415861,41.4700193 C80.6673114,41.4700193 80.7736944,41.4990329 80.8704062,41.5473888 C81.0444874,41.6441006 81.131528,41.8085106 81.131528,42.0599613 C81.131528,42.1276596 81.1218569,42.205029 81.1121857,42.2727273 C81.1025145,42.3500967 81.0831721,42.4274662 81.0541586,42.5145068 L80.4932302,44.5744681 C80.483559,44.6131528 80.4642166,44.6711799 80.4545455,44.7388781 C80.4448743,44.7969052 80.4352031,44.8452611 80.4352031,44.8646035 C80.4352031,44.9032882 80.4448743,44.9419729 80.4642166,44.9806576 C80.483559,45.0193424 80.5222437,45.0290135 80.5609284,45.0290135 C80.6382979,45.0290135 80.7253385,44.9903288 80.8220503,44.9032882 C80.9187621,44.8162476 81.0831721,44.622824 81.2959381,44.3423598 L81.4216634,44.4584139 C81.1895551,44.7775629 80.9961315,45 80.860735,45.1257253 C80.6286267,45.3481625 80.3965184,45.4642166 80.1837524,45.4642166 C80.0870406,45.4642166 79.9903288,45.4352031 79.9032882,45.3675048 C79.8162476,45.2998066 79.7678917,45.1837524 79.7678917,45.0096712 C79.7678917,44.9613153 79.7678917,44.9129594 79.7775629,44.8549323 C79.787234,44.7969052 79.7969052,44.7485493 79.8065764,44.7098646 L80.3481625,42.6208897 C80.377176,42.5048356 80.3965184,42.4081238 80.4061896,42.3404255 C80.4158607,42.2630561 80.4255319,42.2147002 80.4255319,42.1760155 C80.4255319,42.1083172 80.4061896,42.0502901 80.377176,42.0019342 C80.3481625,41.9535783 80.2901354,41.9245648 80.2030948,41.9245648 C79.9903288,41.9245648 79.7195358,42.1179884 79.3907157,42.5145068 C79.1972921,42.7466151 79.0038685,43.0270793 78.8007737,43.3462282 C78.6460348,43.5976789 78.5299807,43.8394584 78.44294,44.0812379 C78.3558994,44.3133462 78.2205029,44.7485493 78.0270793,45.3675048 L77.3404255,45.3675048 Z" id="Shape" fill="#000000"></path>
                <path d="M85.212766,41.8471954 C85.4061896,42.098646 85.5125725,42.4081238 85.5125725,42.7562863 C85.5125725,43.3655706 85.2417795,43.9651838 84.7098646,44.5454545 C84.1586074,45.1547389 83.5686654,45.4545455 82.9400387,45.4545455 C82.5435203,45.4545455 82.2243714,45.3384913 81.9922631,45.106383 C81.7504836,44.8742747 81.6344294,44.5551257 81.6344294,44.139265 C81.6344294,43.5106383 81.9052224,42.9110251 82.4371373,42.3307544 C82.9787234,41.7408124 83.5686654,41.450677 84.2069632,41.450677 C84.6711799,41.4603482 85.0193424,41.5860735 85.212766,41.8471954 M82.5435203,45.0386847 C82.6595745,45.1934236 82.8433269,45.270793 83.065764,45.270793 C83.5299807,45.270793 83.9458414,44.9129594 84.3133462,44.2069632 C84.622824,43.5976789 84.7775629,43.0464217 84.7775629,42.5338491 C84.7775629,42.3210832 84.7485493,42.1470019 84.7001934,42.0116054 C84.6034816,41.7601547 84.4197292,41.6344294 84.1489362,41.6344294 C83.7137331,41.6344294 83.2978723,41.9632495 82.9110251,42.6208897 C82.5531915,43.2398453 82.3694391,43.8394584 82.3694391,44.4294004 C82.3694391,44.6808511 82.4274662,44.8742747 82.5435203,45.0386847" id="Shape" fill="#000000"></path>
                <path d="M87.1953578,40.1450677 C87.205029,40.106383 87.2147002,40.0676983 87.2147002,40.0290135 C87.2147002,39.9903288 87.2147002,39.9613153 87.2147002,39.9419729 C87.2147002,39.8452611 87.1760155,39.787234 87.0889749,39.7678917 C87.0116054,39.7485493 86.8568665,39.7388781 86.615087,39.7388781 L86.615087,39.5938104 C86.7408124,39.5744681 86.8955513,39.5551257 87.0599613,39.5357834 C87.2340426,39.516441 87.3404255,39.4970986 87.3887814,39.4874275 C87.5531915,39.4584139 87.7466151,39.4197292 87.9787234,39.3617021 C87.9980658,39.3617021 88.0174081,39.3713733 88.0367505,39.4003868 L86.6827853,44.5744681 C86.6537718,44.7001934 86.6344294,44.7678917 86.6247582,44.7969052 C86.615087,44.8259188 86.615087,44.8452611 86.615087,44.8742747 C86.615087,44.9323017 86.6247582,44.9806576 86.6441006,45.0193424 C86.6634429,45.0580271 86.7021277,45.0773694 86.7601547,45.0773694 C86.8665377,45.0773694 87.0019342,44.9806576 87.1663443,44.8065764 C87.3307544,44.622824 87.4758221,44.4487427 87.5918762,44.2746615 L87.7079304,44.3520309 C87.4564797,44.7195358 87.2727273,44.9709865 87.1276596,45.106383 C86.8858801,45.3481625 86.6537718,45.4642166 86.4119923,45.4642166 C86.3056093,45.4642166 86.2185687,45.4352031 86.131528,45.3868472 C86.0058027,45.3094778 85.9477756,45.1740812 85.9477756,44.9903288 C85.9477756,44.9226306 85.9574468,44.8259188 85.9864603,44.7001934 C86.0058027,44.6324952 86.0154739,44.5454545 86.0444874,44.4487427 L87.1953578,40.1450677 Z" id="Shape" fill="#000000"></path>
                <path d="M91.6634429,41.8471954 C91.8568665,42.098646 91.9632495,42.4081238 91.9632495,42.7562863 C91.9632495,43.3655706 91.6924565,43.9651838 91.1605416,44.5454545 C90.6092843,45.1547389 90.0193424,45.4545455 89.3907157,45.4545455 C88.9941973,45.4545455 88.6750484,45.3384913 88.44294,45.106383 C88.2011605,44.8742747 88.0851064,44.5551257 88.0851064,44.139265 C88.0851064,43.5106383 88.3558994,42.9110251 88.8878143,42.3307544 C89.4294004,41.7408124 90.0193424,41.450677 90.6576402,41.450677 C91.1218569,41.4603482 91.4700193,41.5860735 91.6634429,41.8471954 M88.9941973,45.0386847 C89.1102515,45.1934236 89.2940039,45.270793 89.516441,45.270793 C89.9806576,45.270793 90.3965184,44.9129594 90.7640232,44.2069632 C91.073501,43.5976789 91.2282398,43.0464217 91.2282398,42.5338491 C91.2282398,42.3210832 91.1992263,42.1470019 91.1508704,42.0116054 C91.0541586,41.7601547 90.8704062,41.6344294 90.5996132,41.6344294 C90.1644101,41.6344294 89.7485493,41.9632495 89.3617021,42.6208897 C89.0038685,43.2398453 88.8201161,43.8394584 88.8201161,44.4294004 C88.8201161,44.6808511 88.8781431,44.8742747 88.9941973,45.0386847" id="Shape" fill="#000000"></path>
                <path d="M92.2727273,45.5996132 C92.4371373,45.4061896 92.6982592,45.212766 93.065764,45.0193424 C92.9980658,44.9709865 92.9303675,44.9226306 92.8916828,44.8742747 C92.8433269,44.8259188 92.8239845,44.7582205 92.8239845,44.6711799 C92.8239845,44.5551257 92.901354,44.4197292 93.065764,44.2649903 C93.1528046,44.1779497 93.3075435,44.0618956 93.5106383,43.926499 C93.3268859,43.8588008 93.172147,43.762089 93.0367505,43.6363636 C92.8723404,43.4622824 92.794971,43.2495164 92.794971,42.9787234 C92.794971,42.5435203 92.959381,42.1856867 93.2978723,41.8955513 C93.6363636,41.6054159 94.0522244,41.4603482 94.5551257,41.4603482 C94.8162476,41.4603482 95.0386847,41.4990329 95.2224371,41.5860735 C95.4061896,41.6634429 95.5125725,41.7311412 95.5415861,41.7891683 L96.1218569,41.7891683 L96.1218569,42.1373308 L95.6866538,42.1373308 C95.7059961,42.205029 95.7156673,42.2533849 95.7253385,42.311412 C95.7350097,42.3597679 95.7350097,42.4371373 95.7350097,42.5338491 C95.7350097,42.9980658 95.5512573,43.3655706 95.1934236,43.6363636 C94.8355899,43.9071567 94.4487427,44.032882 94.032882,44.032882 C93.9941973,44.032882 93.9458414,44.032882 93.9168279,44.032882 C93.8781431,44.0232108 93.8297872,44.0232108 93.7814313,44.0038685 C93.7427466,44.0038685 93.6750484,44.0425532 93.6073501,44.1295938 C93.5299807,44.2166344 93.4912959,44.2843327 93.4912959,44.3520309 C93.4912959,44.4487427 93.8104449,44.6131528 94.4390716,44.8549323 C95.0676983,45.0967118 95.3868472,45.4448743 95.3868472,45.8994197 C95.3868472,46.2475822 95.2321083,46.5473888 94.9129594,46.8085106 C94.5938104,47.0696325 94.1199226,47.205029 93.4816248,47.205029 C93.0367505,47.205029 92.688588,47.1083172 92.4274662,46.9245648 C92.1663443,46.7311412 92.040619,46.4990329 92.040619,46.2282398 C92.0212766,45.9961315 92.1083172,45.7930368 92.2727273,45.5996132 M94.4874275,46.7601547 C94.7098646,46.5957447 94.8259188,46.4023211 94.8259188,46.1702128 C94.8259188,45.9961315 94.7678917,45.8510638 94.6518375,45.7350097 C94.5841393,45.6673114 94.4874275,45.5996132 94.3423598,45.5319149 C94.2263056,45.4738878 94.0232108,45.3965184 93.7427466,45.2901354 C93.4622824,45.1837524 93.3075435,45.1257253 93.2591876,45.1257253 C93.1818182,45.1257253 93.0367505,45.2224371 92.8239845,45.4255319 C92.6112186,45.6286267 92.5048356,45.8510638 92.5048356,46.1025145 C92.5048356,46.4796905 92.6692456,46.7504836 92.9980658,46.8858801 C93.172147,46.9632495 93.384913,47.0019342 93.6363636,47.0019342 C93.9748549,47.0019342 94.2649903,46.9245648 94.4874275,46.7601547 M93.5686654,43.5880077 C93.6653772,43.762089 93.8297872,43.8491296 94.0618956,43.8491296 C94.3230174,43.8491296 94.5454545,43.6847195 94.7485493,43.3558994 C94.9516441,43.0270793 95.0580271,42.6595745 95.0580271,42.2630561 C95.0580271,42.0696325 95.0193424,41.9245648 94.9323017,41.8181818 C94.8452611,41.7117988 94.729207,41.6537718 94.5551257,41.6537718 C94.2359768,41.6537718 93.9748549,41.827853 93.7717602,42.1663443 C93.5783366,42.5048356 93.4816248,42.8336557 93.4816248,43.1528046 C93.4816248,43.3365571 93.5106383,43.4816248 93.5686654,43.5880077" id="Shape" fill="#000000"></path>
                <path d="M96.0154739,46.55706 C96.073501,46.4893617 96.1605416,46.4603482 96.2669246,46.4603482 C96.3346228,46.4603482 96.4023211,46.4700193 96.4603482,46.4990329 C96.5183752,46.5280464 96.5764023,46.5667311 96.6344294,46.615087 L96.6924565,46.6537718 C96.7117988,46.6634429 96.7311412,46.6827853 96.7504836,46.6827853 C96.7698259,46.6924565 96.7988395,46.6924565 96.827853,46.6924565 C96.9729207,46.6924565 97.1953578,46.5087041 97.5048356,46.131528 C97.8143133,45.7640232 97.9787234,45.4932302 97.9787234,45.3191489 C97.9787234,45.1547389 97.9206963,44.8452611 97.8143133,44.3713733 C97.7079304,43.8974855 97.6015474,43.4816248 97.5048356,43.1141199 C97.3597679,42.6015474 97.2340426,42.2437137 97.1179884,42.0599613 C97.0019342,41.8762089 96.827853,41.7891683 96.6054159,41.7891683 C96.5860735,41.7891683 96.55706,41.7891683 96.5183752,41.7988395 C96.4796905,41.7988395 96.4119923,41.8085106 96.3056093,41.8181818 L96.3056093,41.6731141 L97.4854932,41.450677 L97.5725338,41.4410058 C97.6402321,41.4313346 97.7852998,41.7601547 97.9883946,42.4081238 C98.172147,42.9980658 98.2882012,43.4235977 98.3365571,43.6943907 L98.5106383,44.7195358 C98.8104449,44.2166344 99.032882,43.8297872 99.1779497,43.5589942 C99.4584139,43.0270793 99.5938104,42.6595745 99.5938104,42.4468085 C99.5938104,42.3984526 99.5841393,42.3500967 99.5647969,42.3017408 C99.5454545,42.2533849 99.5067698,42.2147002 99.4390716,42.1760155 L99.3713733,42.1373308 C99.3230174,42.1179884 99.2746615,42.0696325 99.2069632,42.0116054 C99.1489362,41.9439072 99.1199226,41.8665377 99.1199226,41.7601547 C99.1199226,41.6731141 99.1489362,41.5957447 99.2069632,41.5377176 C99.2649903,41.4796905 99.3520309,41.450677 99.4680851,41.450677 C99.6131528,41.450677 99.729207,41.4893617 99.8162476,41.5764023 C99.9032882,41.6634429 99.9516441,41.7988395 99.9516441,42.0116054 C99.9516441,42.3210832 99.787234,42.8143133 99.4487427,43.4912959 C99.1876209,44.0135397 98.8974855,44.516441 98.5783366,45 C98.1818182,45.6092843 97.8336557,46.0831721 97.5531915,46.4119923 C97.098646,46.934236 96.72147,47.1953578 96.4119923,47.1953578 C96.2959381,47.1953578 96.1895551,47.1566731 96.1025145,47.0889749 C96.0154739,47.0212766 95.967118,46.9148936 95.967118,46.7988395 C95.9284333,46.7021277 95.9574468,46.6247582 96.0154739,46.55706" id="Shape" fill="#000000"></path>
            </g>
        </g>
    </g>
</svg>