<?xml version="1.0" encoding="UTF-8"?>
<svg width="200px" height="35px" viewBox="0 0 200 35" version="1.1" xmlns="http://www.w3.org/2000/svg" xmlns:xlink="http://www.w3.org/1999/xlink">
    <!-- Generator: sketchtool 49.3 (51167) - http://www.bohemiancoding.com/sketch -->
    <title>361CE306-1188-41BB-9F54-49D0C3FEE53D</title>
    <desc>Created with sketchtool.</desc>
    <defs></defs>
    <g id="Page-1" stroke="none" stroke-width="1" fill="none" fill-rule="evenodd">
        <g id="AFR_supply-of-equipment" transform="translate(-700.000000, -3123.000000)" fill-rule="nonzero">
            <g id="111" transform="translate(700.000000, 3123.000000)">
                <rect id="Rectangle-path" fill="#D47D21" transform="translate(8.533895, 17.244137) rotate(-45.000000) translate(-8.533895, -17.244137) " x="2.73430166" y="11.4445442" width="11.5991858" height="11.5991858"></rect>
                <rect id="Rectangle-path" fill="#D47D21" transform="translate(26.598643, 17.240844) rotate(-44.991897) translate(-26.598643, -17.240844) " x="20.7990503" y="11.4412506" width="11.5991859" height="11.5991859"></rect>
                <rect id="Rectangle-path" fill="#D47D21" transform="translate(17.562893, 8.208517) rotate(-45.000000) translate(-17.562893, -8.208517) " x="11.7632999" y="2.40892381" width="11.5991858" height="11.5991858"></rect>
                <rect id="Rectangle-path" fill="#D47D21" transform="translate(17.569540, 26.275044) rotate(-45.008103) translate(-17.569540, -26.275044) " x="11.7699466" y="20.475451" width="11.5991859" height="11.5991859"></rect>
                <g id="Group" transform="translate(37.609842, 2.460457)">
                    <polygon id="Shape" fill="#D47D21" points="0.210896309 22.3198594 0.210896309 1.23022847 17.1528998 1.23022847 17.1528998 5.23725835 5.3427065 5.23725835 5.3427065 9.84182777 16.4147627 9.84182777 16.4147627 13.8488576 5.3427065 13.8488576 5.3427065 22.3198594"></polygon>
                    <polygon id="Shape" fill="#D47D21" points="25.6239016 22.3198594 25.6239016 5.23725835 18.5588752 5.23725835 18.5588752 1.23022847 37.8207381 1.23022847 37.8207381 5.23725835 30.7908612 5.23725835 30.7908612 22.3198594"></polygon>
                    <path d="M57.8558875,7.2056239 L52.4428822,7.2056239 C52.3022847,5.94024605 51.7750439,5.09666081 50.7908612,4.60456942 C50.1230228,4.25307557 49.1739895,4.07732865 47.9086116,4.07732865 C46.9244288,4.07732865 46.115993,4.32337434 45.5184534,4.78031634 C44.8857645,5.27240773 44.6045694,5.86994728 44.6045694,6.60808436 C44.6045694,7.69771529 45.3075571,8.3655536 46.6783831,8.64674868 L52.7943761,9.84182777 C56.6608084,10.5799649 58.5588752,12.6186292 58.5588752,15.9226714 C58.5588752,20.7732865 55.43058,23.198594 49.2091388,23.198594 C46.2917399,23.198594 44.0421793,22.8119508 42.5307557,22.0035149 C40.2460457,20.8435852 39.086116,18.7697715 39.086116,15.7469244 L44.56942,15.7469244 C44.6045694,18.0667838 46.1511424,19.2267135 49.2091388,19.2267135 C51.7750439,19.2267135 53.0755712,18.3128295 53.0755712,16.5202109 C53.0755712,15.711775 52.7943761,15.1493849 52.2671353,14.797891 C51.8453427,14.4815466 51.1072056,14.2355009 50.0175747,14.0246046 L45.5536028,13.2161687 C43.655536,12.8646749 42.2144112,12.3374341 41.3005272,11.599297 C40.0351494,10.5799649 39.4024605,9.0685413 39.4024605,7.06502636 C39.4024605,2.53075571 42.3901582,0.246045694 48.3304042,0.246045694 C54.4463972,0.316344464 57.6098418,2.60105448 57.8558875,7.2056239" id="Shape" fill="#1F2C56"></path>
                    <polygon id="Shape" fill="#1F2C56" points="66.2214411 22.3198594 66.2214411 14.9384886 58.4885764 1.23022847 64.0773286 1.23022847 68.6115993 10.4042179 73.1458699 1.23022847 78.7346221 1.23022847 71.0017575 14.9384886 71.0017575 22.3198594"></polygon>
                    <path d="M97.4340949,7.2056239 L92.0210896,7.2056239 C91.8804921,5.94024605 91.3532513,5.09666081 90.3690685,4.60456942 C89.7012302,4.25307557 88.7521968,4.07732865 87.486819,4.07732865 C86.5026362,4.07732865 85.6942004,4.32337434 85.0615114,4.78031634 C84.4639719,5.27240773 84.1476274,5.86994728 84.1476274,6.60808436 C84.1476274,7.69771529 84.8506151,8.3655536 86.2214411,8.64674868 L92.3374341,9.84182777 C96.2038664,10.5799649 98.1019332,12.6186292 98.1019332,15.9226714 C98.1019332,20.7732865 94.973638,23.198594 88.7521968,23.198594 C85.8347979,23.198594 83.5852373,22.8119508 82.0738137,22.0035149 C79.7891037,20.8435852 78.629174,18.7697715 78.629174,15.7469244 L84.112478,15.7469244 C84.1476274,18.0667838 85.6942004,19.2267135 88.7521968,19.2267135 C91.3181019,19.2267135 92.6186292,18.3128295 92.6186292,16.5202109 C92.6186292,15.711775 92.3374341,15.1493849 91.8101933,14.797891 C91.3884007,14.4815466 90.6502636,14.2355009 89.5606327,14.0246046 L85.0966608,13.2161687 C83.1634446,12.8646749 81.7574692,12.3374341 80.8435852,11.599297 C79.5782074,10.5799649 78.9455185,9.0685413 78.9455185,7.06502636 C78.9455185,2.53075571 81.9332162,0.246045694 87.8734622,0.246045694 C93.9894552,0.316344464 97.1880492,2.60105448 97.4340949,7.2056239" id="Shape" fill="#1F2C56"></path>
                    <polygon id="Shape" fill="#1F2C56" points="105.096661 22.3198594 105.096661 5.23725835 98.5940246 5.23725835 98.5940246 1.23022847 116.344464 1.23022847 116.344464 5.23725835 109.841828 5.23725835 109.841828 22.3198594"></polygon>
                    <polygon id="Shape" fill="#1F2C56" points="118.207381 22.3198594 118.207381 1.23022847 134.586995 1.23022847 134.586995 5.23725835 122.987698 5.23725835 122.987698 9.59578207 133.989455 9.59578207 133.989455 13.4622144 122.987698 13.4622144 122.987698 18.2776801 134.657293 18.2776801 134.657293 22.3198594"></polygon>
                    <polygon id="Shape" fill="#1F2C56" points="149.841828 16.4147627 155.043937 1.23022847 162.003515 1.23022847 162.003515 22.3198594 157.398946 22.3198594 157.398946 5.41300527 151.810193 22.3198594 147.838313 22.3198594 142.249561 5.41300527 142.249561 22.3198594 137.644991 22.3198594 137.644991 1.23022847 144.639719 1.23022847"></polygon>
                </g>
                <g id="Group" transform="translate(62.917399, 27.065026)" fill="#1F2C56">
                    <path d="M3.97188049,4.35852373 L4.85061511,4.46397188 C4.74516696,4.95606327 4.49912127,5.30755712 4.11247803,5.5887522 C3.7258348,5.86994728 3.23374341,6.01054482 2.63620387,6.01054482 C1.89806678,6.01054482 1.33567663,5.83479789 0.878734622,5.44815466 C0.421792619,5.06151142 0.210896309,4.53427065 0.210896309,3.83128295 C0.210896309,3.37434095 0.316344464,2.98769772 0.492091388,2.63620387 C0.667838313,2.28471002 0.984182777,2.03866432 1.37082601,1.8629174 C1.75746924,1.68717047 2.17926186,1.6168717 2.63620387,1.6168717 C3.19859402,1.6168717 3.69068541,1.72231986 4.04217926,1.96836555 C4.39367311,2.21441125 4.6397188,2.53075571 4.74516696,2.95254833 L3.86643234,3.05799649 C3.79613357,2.77680141 3.62038664,2.5659051 3.40949033,2.42530756 C3.19859402,2.28471002 2.95254833,2.21441125 2.63620387,2.21441125 C2.17926186,2.21441125 1.82776801,2.35500879 1.51142355,2.60105448 C1.23022847,2.84710018 1.08963093,3.26889279 1.08963093,3.83128295 C1.08963093,4.39367311 1.23022847,4.81546573 1.51142355,5.06151142 C1.79261863,5.30755712 2.14411248,5.44815466 2.60105448,5.44815466 C2.95254833,5.44815466 3.23374341,5.37785589 3.4797891,5.20210896 C3.76098418,4.99121265 3.90158172,4.71001757 3.97188049,4.35852373 Z" id="Shape"></path>
                    <path d="M6.32688928,3.79613357 C6.32688928,3.0228471 6.60808436,2.46045694 7.13532513,2.07381371 C7.59226714,1.75746924 8.15465729,1.6168717 8.82249561,1.6168717 C9.56063269,1.6168717 10.1581722,1.79261863 10.6151142,2.17926186 C11.0720562,2.5659051 11.3181019,3.09314587 11.3181019,3.76098418 C11.3181019,4.28822496 11.2126538,4.71001757 11.0017575,5.02636204 C10.7908612,5.3427065 10.5096661,5.5887522 10.0878735,5.76449912 C9.70123023,5.94024605 9.27943761,6.01054482 8.78734622,6.01054482 C8.04920914,6.01054482 7.4516696,5.83479789 6.99472759,5.44815466 C6.57293497,5.06151142 6.32688928,4.49912127 6.32688928,3.79613357 Z M7.24077329,3.79613357 C7.24077329,4.32337434 7.38137083,4.74516696 7.69771529,4.99121265 C7.97891037,5.27240773 8.3655536,5.37785589 8.82249561,5.37785589 C9.27943761,5.37785589 9.63093146,5.23725835 9.94727592,4.99121265 C10.228471,4.71001757 10.4042179,4.32337434 10.4042179,3.76098418 C10.4042179,3.23374341 10.2636204,2.84710018 9.94727592,2.5659051 C9.63093146,2.28471002 9.27943761,2.17926186 8.82249561,2.17926186 C8.3655536,2.17926186 7.97891037,2.3198594 7.69771529,2.5659051 C7.41652021,2.88224956 7.24077329,3.26889279 7.24077329,3.79613357 Z" id="Shape"></path>
                    <path d="M13.3919156,5.90509666 L13.3919156,1.72231986 L14.2003515,1.72231986 L14.2003515,2.3198594 C14.5869947,1.8629174 15.1493849,1.6168717 15.887522,1.6168717 C16.2038664,1.6168717 16.5202109,1.65202109 16.7662566,1.75746924 C17.0474517,1.8629174 17.2231986,1.96836555 17.3637961,2.10896309 C17.5043937,2.24956063 17.5746924,2.42530756 17.6449912,2.63620387 C17.6801406,2.77680141 17.6801406,2.98769772 17.6801406,3.33919156 L17.6801406,5.90509666 L16.7662566,5.90509666 L16.7662566,3.33919156 C16.7662566,3.05799649 16.7311072,2.84710018 16.6608084,2.70650264 C16.5905097,2.5659051 16.4499121,2.46045694 16.2741652,2.35500879 C16.0984183,2.28471002 15.887522,2.21441125 15.6414763,2.21441125 C15.254833,2.21441125 14.9384886,2.3198594 14.6572935,2.49560633 C14.3760984,2.67135325 14.2355009,3.05799649 14.2355009,3.58523726 L14.2355009,5.86994728 L13.3919156,5.86994728 L13.3919156,5.90509666 Z" id="Shape"></path>
                    <path d="M22.1089631,5.27240773 L22.2495606,5.90509666 C22.0035149,5.94024605 21.7574692,5.97539543 21.5817223,5.97539543 C21.2653779,5.97539543 20.9841828,5.94024605 20.8084359,5.86994728 C20.6326889,5.79964851 20.4920914,5.69420035 20.4217926,5.55360281 C20.3514938,5.41300527 20.3163445,5.13181019 20.3163445,4.71001757 L20.3163445,2.28471002 L19.6485062,2.28471002 L19.6485062,1.72231986 L20.3163445,1.72231986 L20.3163445,0.667838313 L21.2302285,0.246045694 L21.2302285,1.72231986 L22.1441125,1.72231986 L22.1441125,2.28471002 L21.2302285,2.28471002 L21.2302285,4.74516696 C21.2302285,4.95606327 21.2302285,5.06151142 21.2653779,5.13181019 C21.3005272,5.20210896 21.3356766,5.23725835 21.4059754,5.27240773 C21.4762742,5.30755712 21.5817223,5.30755712 21.7223199,5.30755712 C21.827768,5.30755712 21.9332162,5.27240773 22.1089631,5.27240773 Z" id="Shape"></path>
                    <path d="M24.0070299,5.90509666 L24.0070299,1.72231986 L24.8154657,1.72231986 L24.8154657,2.35500879 C25.026362,2.07381371 25.202109,1.8629174 25.3778559,1.75746924 C25.5536028,1.65202109 25.7293497,1.6168717 25.940246,1.6168717 C26.2565905,1.6168717 26.5377856,1.68717047 26.8541301,1.8629174 L26.5377856,2.53075571 C26.3268893,2.42530756 26.0808436,2.39015817 25.8699473,2.39015817 C25.659051,2.39015817 25.483304,2.42530756 25.3427065,2.53075571 C25.202109,2.63620387 25.0615114,2.74165202 24.9912127,2.91739895 C24.8857645,3.16344464 24.8506151,3.44463972 24.8506151,3.76098418 L24.8506151,5.94024605 L24.0070299,5.94024605 L24.0070299,5.90509666 Z" id="Shape"></path>
                    <path d="M28.1195079,3.79613357 C28.1195079,3.0228471 28.400703,2.46045694 28.9279438,2.07381371 C29.3848858,1.75746924 29.9472759,1.6168717 30.6151142,1.6168717 C31.3532513,1.6168717 31.9507909,1.79261863 32.4077329,2.17926186 C32.8646749,2.5659051 33.1107206,3.09314587 33.1107206,3.76098418 C33.1107206,4.28822496 33.0052724,4.71001757 32.7943761,5.02636204 C32.5834798,5.3427065 32.3022847,5.5887522 31.8804921,5.76449912 C31.4938489,5.94024605 31.0720562,6.01054482 30.5799649,6.01054482 C29.8418278,6.01054482 29.2442882,5.83479789 28.7873462,5.44815466 C28.3655536,5.06151142 28.1195079,4.49912127 28.1195079,3.79613357 Z M29.0685413,3.79613357 C29.0685413,4.32337434 29.2091388,4.74516696 29.5254833,4.99121265 C29.8066784,5.27240773 30.1933216,5.37785589 30.6502636,5.37785589 C31.1072056,5.37785589 31.4586995,5.23725835 31.7750439,4.99121265 C32.056239,4.71001757 32.2319859,4.32337434 32.2319859,3.76098418 C32.2319859,3.23374341 32.0913884,2.84710018 31.7750439,2.5659051 C31.4586995,2.28471002 31.1072056,2.17926186 30.6502636,2.17926186 C30.1933216,2.17926186 29.8066784,2.3198594 29.5254833,2.5659051 C29.2091388,2.88224956 29.0685413,3.26889279 29.0685413,3.79613357 Z" id="Shape"></path>
                    <polygon id="Shape" points="35.1845343 5.90509666 35.1845343 0.105448155 36.0984183 0.105448155 36.0984183 5.90509666"></polygon>
                    <path d="M46.572935,5.23725835 C46.2917399,5.48330404 45.940246,5.69420035 45.5887522,5.83479789 C45.2372583,5.97539543 44.8506151,6.0456942 44.4639719,6.0456942 C43.7258348,6.0456942 43.1282953,5.83479789 42.6713533,5.44815466 C42.3198594,5.13181019 42.1441125,4.74516696 42.1441125,4.35852373 C42.1441125,4.00702988 42.28471,3.69068541 42.5659051,3.37434095 C42.8471002,3.09314587 43.3040422,2.84710018 43.8664323,2.60105448 C43.5500879,2.28471002 43.3040422,2.07381371 43.198594,1.8629174 C43.0931459,1.68717047 43.0228471,1.51142355 43.0228471,1.33567663 C43.0228471,0.984182777 43.198594,0.702987698 43.5500879,0.421792619 C43.9015817,0.175746924 44.3233743,0.0351493849 44.8506151,0.0351493849 C45.3427065,0.0351493849 45.7644991,0.14059754 46.0808436,0.386643234 C46.397188,0.632688928 46.572935,0.913884007 46.572935,1.26537786 C46.572935,1.82776801 46.115993,2.28471002 45.1669596,2.67135325 L46.5026362,4.00702988 C46.6432337,3.76098418 46.7838313,3.51493849 46.8541301,3.19859402 L47.8031634,3.33919156 C47.6274165,3.83128295 47.4165202,4.25307557 47.1353251,4.60456942 C47.486819,4.95606327 47.8734622,5.23725835 48.2952548,5.48330404 L47.6977153,6.0456942 C47.3462214,5.86994728 46.9595782,5.5887522 46.572935,5.23725835 Z M46.0105448,4.67486819 L44.3585237,3.05799649 C43.8664323,3.30404218 43.5500879,3.51493849 43.3743409,3.69068541 C43.198594,3.90158172 43.1282953,4.07732865 43.1282953,4.28822496 C43.1282953,4.53427065 43.2337434,4.78031634 43.4797891,5.02636204 C43.7258348,5.27240773 44.0421793,5.41300527 44.4991213,5.41300527 C44.7803163,5.41300527 45.0615114,5.3427065 45.3427065,5.20210896 C45.6239016,5.02636204 45.8347979,4.8857645 46.0105448,4.67486819 Z M44.745167,2.21441125 C45.1318102,2.03866432 45.3778559,1.8629174 45.5184534,1.72231986 C45.6239016,1.58172232 45.6942004,1.44112478 45.6942004,1.26537786 C45.6942004,1.05448155 45.6239016,0.913884007 45.4481547,0.773286467 C45.2724077,0.632688928 45.0966608,0.597539543 44.8506151,0.597539543 C44.6045694,0.597539543 44.3936731,0.667838313 44.2530756,0.773286467 C44.0773286,0.913884007 44.0070299,1.05448155 44.0070299,1.23022847 C44.0070299,1.33567663 44.0421793,1.4059754 44.112478,1.51142355 C44.1827768,1.6168717 44.2530756,1.72231986 44.3585237,1.82776801 L44.745167,2.21441125 Z" id="Shape"></path>
                    <path d="M54.1300527,0.913884007 L54.1300527,0.105448155 L55.0439367,0.105448155 L55.0439367,0.913884007 L54.1300527,0.913884007 Z M54.1300527,5.90509666 L54.1300527,1.72231986 L55.0439367,1.72231986 L55.0439367,5.90509666 L54.1300527,5.90509666 Z" id="Shape"></path>
                    <path d="M57.4340949,5.90509666 L57.4340949,1.72231986 L58.2425308,1.72231986 L58.2425308,2.3198594 C58.629174,1.8629174 59.1915641,1.6168717 59.9297012,1.6168717 C60.2460457,1.6168717 60.5623902,1.65202109 60.8084359,1.75746924 C61.0896309,1.8629174 61.2653779,1.96836555 61.4059754,2.10896309 C61.5465729,2.24956063 61.6168717,2.42530756 61.6871705,2.63620387 C61.7223199,2.77680141 61.7223199,2.98769772 61.7223199,3.33919156 L61.7223199,5.90509666 L60.8084359,5.90509666 L60.8084359,3.33919156 C60.8084359,3.05799649 60.7732865,2.84710018 60.7029877,2.70650264 C60.6326889,2.5659051 60.4920914,2.46045694 60.3163445,2.35500879 C60.1405975,2.28471002 59.9297012,2.21441125 59.6836555,2.21441125 C59.2970123,2.21441125 58.9806678,2.3198594 58.6994728,2.49560633 C58.4182777,2.67135325 58.2776801,3.05799649 58.2776801,3.58523726 L58.2776801,5.86994728 L57.4340949,5.86994728 L57.4340949,5.90509666 Z" id="Shape"></path>
                    <path d="M63.831283,4.6397188 L64.7100176,4.53427065 C64.745167,4.81546573 64.8857645,5.02636204 65.1318102,5.16695958 C65.3778559,5.30755712 65.6942004,5.37785589 66.0808436,5.37785589 C66.5026362,5.37785589 66.8189807,5.30755712 66.9947276,5.16695958 C67.2056239,5.02636204 67.3110721,4.8857645 67.3110721,4.71001757 C67.3110721,4.53427065 67.2056239,4.4288225 67.029877,4.32337434 C66.9244288,4.25307557 66.6080844,4.1827768 66.115993,4.07732865 C65.4481547,3.93673111 64.9912127,3.83128295 64.745167,3.7258348 C64.4991213,3.62038664 64.288225,3.4797891 64.1476274,3.33919156 C64.0070299,3.16344464 63.9367311,2.98769772 63.9367311,2.77680141 C63.9367311,2.60105448 64.0070299,2.42530756 64.112478,2.24956063 C64.2179262,2.07381371 64.3585237,1.96836555 64.56942,1.8629174 C64.7100176,1.79261863 64.8857645,1.72231986 65.1318102,1.65202109 C65.3778559,1.58172232 65.6239016,1.58172232 65.9050967,1.58172232 C66.3268893,1.58172232 66.6783831,1.6168717 66.9947276,1.72231986 C67.3110721,1.82776801 67.5571178,1.93321617 67.6977153,2.10896309 C67.8383128,2.28471002 67.943761,2.49560633 68.0140598,2.74165202 L67.1353251,2.84710018 C67.1001757,2.63620387 66.9947276,2.46045694 66.7838313,2.35500879 C66.6080844,2.24956063 66.3268893,2.17926186 65.9753954,2.17926186 C65.5536028,2.17926186 65.2724077,2.24956063 65.0966608,2.35500879 C64.9209139,2.46045694 64.8154657,2.60105448 64.8154657,2.74165202 C64.8154657,2.84710018 64.8506151,2.91739895 64.9209139,2.98769772 C64.9912127,3.05799649 65.0966608,3.12829525 65.2724077,3.16344464 C65.3778559,3.19859402 65.6239016,3.23374341 66.0808436,3.33919156 C66.7135325,3.4797891 67.1704745,3.58523726 67.4165202,3.65553603 C67.6625659,3.7258348 67.8734622,3.86643234 68.0140598,4.04217926 C68.1546573,4.21792619 68.2249561,4.39367311 68.2249561,4.6397188 C68.2249561,4.8857645 68.1195079,5.09666081 67.9789104,5.30755712 C67.8031634,5.51845343 67.5571178,5.69420035 67.2056239,5.79964851 C66.8541301,5.90509666 66.5026362,5.97539543 66.0808436,5.97539543 C65.3778559,5.97539543 64.8506151,5.86994728 64.4991213,5.62390158 C64.1476274,5.44815466 63.9367311,5.09666081 63.831283,4.6397188 Z" id="Shape"></path>
                    <path d="M70.3339192,7.52196837 L70.3339192,1.72231986 L71.142355,1.72231986 L71.142355,2.28471002 C71.3532513,2.07381371 71.5641476,1.89806678 71.8101933,1.79261863 C72.056239,1.68717047 72.3374341,1.6168717 72.6889279,1.6168717 C73.1458699,1.6168717 73.5325132,1.72231986 73.884007,1.89806678 C74.2355009,2.07381371 74.4815466,2.35500879 74.6572935,2.67135325 C74.8330404,3.0228471 74.9384886,3.37434095 74.9384886,3.76098418 C74.9384886,4.1827768 74.8330404,4.56942004 74.6572935,4.92091388 C74.4463972,5.27240773 74.1652021,5.51845343 73.8137083,5.69420035 C73.4622144,5.86994728 73.0404218,5.97539543 72.6537786,5.97539543 C72.3374341,5.97539543 72.0913884,5.94024605 71.8453427,5.83479789 C71.599297,5.72934974 71.4235501,5.62390158 71.2478032,5.44815466 L71.2478032,7.48681898 L70.3339192,7.48681898 L70.3339192,7.52196837 Z M71.1775044,3.83128295 C71.1775044,4.35852373 71.3181019,4.78031634 71.599297,5.02636204 C71.8804921,5.27240773 72.1968366,5.41300527 72.6186292,5.41300527 C73.0052724,5.41300527 73.3567663,5.27240773 73.6379613,5.02636204 C73.9191564,4.74516696 74.059754,4.35852373 74.059754,3.79613357 C74.059754,3.26889279 73.9191564,2.84710018 73.6379613,2.60105448 C73.3567663,2.3198594 73.0404218,2.21441125 72.6537786,2.21441125 C72.2671353,2.21441125 71.9156415,2.35500879 71.6344464,2.63620387 C71.3181019,2.88224956 71.1775044,3.30404218 71.1775044,3.83128295 Z" id="Shape"></path>
                    <path d="M80.7381371,4.56942004 L81.6871705,4.67486819 C81.5465729,5.09666081 81.2653779,5.44815466 80.8787346,5.65905097 C80.4920914,5.86994728 79.9648506,6.01054482 79.3673111,6.01054482 C78.5940246,6.01054482 77.9613357,5.83479789 77.5043937,5.44815466 C77.0474517,5.06151142 76.8365554,4.53427065 76.8365554,3.86643234 C76.8365554,3.16344464 77.0826011,2.60105448 77.5395431,2.21441125 C77.9964851,1.82776801 78.5940246,1.6168717 79.3321617,1.6168717 C80.0351494,1.6168717 80.6326889,1.79261863 81.0896309,2.17926186 C81.5465729,2.5659051 81.7574692,3.09314587 81.7574692,3.79613357 C81.7574692,3.83128295 81.7574692,3.90158172 81.7574692,3.97188049 L77.7855888,3.97188049 C77.8207381,4.4288225 77.9964851,4.78031634 78.2776801,5.02636204 C78.5588752,5.27240773 78.9455185,5.37785589 79.4024605,5.37785589 C79.7188049,5.37785589 80,5.30755712 80.2460457,5.16695958 C80.4217926,5.06151142 80.5975395,4.85061511 80.7381371,4.56942004 Z M77.7504394,3.40949033 L80.7381371,3.40949033 C80.7029877,3.05799649 80.5975395,2.77680141 80.3866432,2.60105448 C80.1054482,2.3198594 79.7188049,2.17926186 79.2618629,2.17926186 C78.8400703,2.17926186 78.4885764,2.28471002 78.2073814,2.49560633 C77.9613357,2.74165202 77.7855888,3.0228471 77.7504394,3.40949033 Z" id="Shape"></path>
                    <path d="M87.3110721,4.35852373 L88.1898067,4.46397188 C88.0843585,4.95606327 87.8383128,5.30755712 87.4516696,5.5887522 C87.0650264,5.86994728 86.572935,6.01054482 85.9753954,6.01054482 C85.2372583,6.01054482 84.6748682,5.83479789 84.2179262,5.44815466 C83.7609842,5.06151142 83.5500879,4.53427065 83.5500879,3.83128295 C83.5500879,3.37434095 83.655536,2.98769772 83.831283,2.63620387 C84.0070299,2.28471002 84.3233743,2.03866432 84.7100176,1.8629174 C85.0966608,1.68717047 85.5184534,1.6168717 85.9753954,1.6168717 C86.5377856,1.6168717 87.029877,1.72231986 87.3813708,1.96836555 C87.7328647,2.21441125 87.9789104,2.53075571 88.0843585,2.95254833 L87.2056239,3.05799649 C87.1353251,2.77680141 86.9595782,2.5659051 86.7486819,2.42530756 C86.5377856,2.28471002 86.2917399,2.21441125 85.9753954,2.21441125 C85.5184534,2.21441125 85.1669596,2.35500879 84.8506151,2.60105448 C84.5342707,2.84710018 84.4288225,3.26889279 84.4288225,3.83128295 C84.4288225,4.39367311 84.56942,4.81546573 84.8506151,5.06151142 C85.1318102,5.30755712 85.483304,5.44815466 85.940246,5.44815466 C86.2917399,5.44815466 86.572935,5.37785589 86.8189807,5.20210896 C87.0650264,4.99121265 87.2407733,4.71001757 87.3110721,4.35852373 Z" id="Shape"></path>
                    <path d="M91.9507909,5.27240773 L92.0913884,5.90509666 C91.8453427,5.94024605 91.599297,5.97539543 91.4235501,5.97539543 C91.1072056,5.97539543 90.8260105,5.94024605 90.6502636,5.86994728 C90.4745167,5.79964851 90.3339192,5.69420035 90.2636204,5.55360281 C90.1933216,5.41300527 90.1581722,5.13181019 90.1581722,4.71001757 L90.1581722,2.28471002 L89.4903339,2.28471002 L89.4903339,1.72231986 L90.1581722,1.72231986 L90.1581722,0.667838313 L91.0720562,0.246045694 L91.0720562,1.72231986 L91.9859402,1.72231986 L91.9859402,2.28471002 L91.0369069,2.28471002 L91.0369069,4.74516696 C91.0369069,4.95606327 91.0369069,5.06151142 91.0720562,5.13181019 C91.1072056,5.20210896 91.142355,5.23725835 91.2126538,5.27240773 C91.2829525,5.30755712 91.3884007,5.30755712 91.5289982,5.30755712 C91.6695958,5.30755712 91.7750439,5.27240773 91.9507909,5.27240773 Z" id="Shape"></path>
                    <path d="M93.884007,0.913884007 L93.884007,0.105448155 L94.797891,0.105448155 L94.797891,0.913884007 L93.884007,0.913884007 Z M93.884007,5.90509666 L93.884007,1.72231986 L94.797891,1.72231986 L94.797891,5.90509666 L93.884007,5.90509666 Z" id="Shape"></path>
                    <path d="M96.8365554,3.79613357 C96.8365554,3.0228471 97.1177504,2.46045694 97.6449912,2.07381371 C98.1019332,1.75746924 98.6643234,1.6168717 99.3321617,1.6168717 C100.070299,1.6168717 100.667838,1.79261863 101.12478,2.17926186 C101.581722,2.5659051 101.827768,3.09314587 101.827768,3.76098418 C101.827768,4.28822496 101.72232,4.71001757 101.511424,5.02636204 C101.300527,5.3427065 101.019332,5.5887522 100.59754,5.76449912 C100.210896,5.94024605 99.7891037,6.01054482 99.2970123,6.01054482 C98.5588752,6.01054482 97.9613357,5.83479789 97.5043937,5.44815466 C97.0474517,5.06151142 96.8365554,4.49912127 96.8365554,3.79613357 Z M97.7504394,3.79613357 C97.7504394,4.32337434 97.8910369,4.74516696 98.2073814,4.99121265 C98.4885764,5.27240773 98.8752197,5.37785589 99.3321617,5.37785589 C99.7891037,5.37785589 100.140598,5.23725835 100.456942,4.99121265 C100.738137,4.71001757 100.913884,4.32337434 100.913884,3.76098418 C100.913884,3.23374341 100.773286,2.84710018 100.456942,2.5659051 C100.140598,2.28471002 99.7891037,2.17926186 99.3321617,2.17926186 C98.8752197,2.17926186 98.4885764,2.3198594 98.2073814,2.5659051 C97.9261863,2.88224956 97.7504394,3.26889279 97.7504394,3.79613357 Z" id="Shape"></path>
                    <path d="M103.901582,5.90509666 L103.901582,1.72231986 L104.710018,1.72231986 L104.710018,2.3198594 C105.096661,1.8629174 105.659051,1.6168717 106.397188,1.6168717 C106.713533,1.6168717 107.029877,1.65202109 107.275923,1.75746924 C107.557118,1.8629174 107.732865,1.96836555 107.873462,2.10896309 C108.01406,2.24956063 108.084359,2.42530756 108.154657,2.63620387 C108.189807,2.77680141 108.189807,2.98769772 108.189807,3.33919156 L108.189807,5.90509666 L107.275923,5.90509666 L107.275923,3.33919156 C107.275923,3.05799649 107.240773,2.84710018 107.170475,2.70650264 C107.100176,2.5659051 106.959578,2.46045694 106.783831,2.35500879 C106.608084,2.28471002 106.397188,2.21441125 106.151142,2.21441125 C105.764499,2.21441125 105.448155,2.3198594 105.16696,2.49560633 C104.885764,2.67135325 104.745167,3.05799649 104.745167,3.58523726 L104.745167,5.86994728 L103.901582,5.86994728 L103.901582,5.90509666 Z" id="Shape"></path>
                </g>
            </g>
        </g>
    </g>
</svg>