<svg xmlns="http://www.w3.org/2000/svg" width="70" height="11" viewBox="0 0 70 11">
    <path fill="#474747" fill-rule="nonzero" d="M5.508 6.816h2.353v1.482c-.592.415-1.351.622-2.2.622-1.882 0-3.218-1.392-3.218-3.29 0-1.792 1.35-3.26 3.05-3.26 1.23 0 1.958.386 2.777 1.053L9.742 1.69C8.634.771 7.481.267 5.57.267 2.352.267 0 2.682 0 5.63c0 3.097 2.276 5.364 5.584 5.364 1.943 0 3.445-.741 4.538-1.645V4.846H5.508v1.97zm8.164-2.341v-1.6h-2.306v7.942h2.306V7.883c0-1.897.941-2.8 2.474-2.8h.121V2.725c-1.365-.059-2.124.653-2.595 1.749zm6.677-1.749c-2.367 0-4.02 1.867-4.02 4.135 0 2.46 1.805 4.134 4.248 4.134 1.472 0 2.564-.563 3.323-1.482l-1.32-1.141c-.637.578-1.199.815-1.973.815-1.032 0-1.76-.533-1.988-1.556h5.66c.015-.207.03-.415.03-.593 0-2.252-1.243-4.312-3.96-4.312zm-1.76 3.498c.182-1.023.804-1.69 1.76-1.69.971 0 1.578.682 1.715 1.69h-3.475zm10.303-3.498c-2.367 0-4.02 1.867-4.02 4.135 0 2.46 1.805 4.134 4.248 4.134 1.472 0 2.564-.563 3.323-1.482l-1.32-1.141c-.637.578-1.199.815-1.973.815-1.031 0-1.76-.533-1.987-1.556h5.66c.015-.207.03-.415.03-.593 0-2.252-1.244-4.312-3.96-4.312zm-1.76 3.498c.182-1.023.804-1.69 1.76-1.69.971 0 1.579.682 1.715 1.69h-3.475zm11.366-3.498c-1.168 0-1.851.608-2.382 1.275V2.875h-2.307v7.942h2.307v-4.43c0-1.067.561-1.616 1.441-1.616s1.396.549 1.396 1.616v4.43h2.307V5.675c0-1.822-1.017-2.949-2.762-2.949zm4.112 8.09h2.307V0H42.61v10.817zm7.086-8.03c-1.38 0-2.26.252-3.156.637l.577 1.719c.743-.267 1.365-.43 2.246-.43 1.153 0 1.745.519 1.745 1.452v.134a5.907 5.907 0 0 0-1.988-.327c-1.928 0-3.278.8-3.278 2.534 0 1.6 1.26 2.46 2.792 2.46 1.123 0 1.897-.4 2.458-1.008v.86h2.231V6.208c0-1.066-.273-1.94-.88-2.533-.577-.563-1.487-.89-2.747-.89zm1.442 5.23c0 .816-.728 1.393-1.806 1.393-.744 0-1.26-.355-1.26-.963 0-.74.608-1.126 1.594-1.126.562 0 1.077.119 1.472.296v.4zm8.255-5.29c-1.199 0-1.973.549-2.534 1.29V0h-2.307v10.817h2.307V9.78c.546.637 1.305 1.185 2.534 1.185 1.927 0 3.703-1.452 3.703-4.104 0-2.682-1.806-4.135-3.703-4.135zM58.8 9.054c-1.077 0-1.972-.875-1.972-2.193 0-1.349.895-2.223 1.972-2.223 1.078 0 1.988.874 1.988 2.193 0 1.363-.91 2.223-1.988 2.223zm8.74-3.038c-.88-.296-1.653-.504-1.653-.948 0-.341.288-.578.85-.578.591 0 1.395.281 2.2.74l.88-1.555a5.728 5.728 0 0 0-3.035-.919c-1.64 0-2.974.904-2.974 2.52 0 1.57 1.29 2.088 2.428 2.414.895.267 1.684.43 1.684.92 0 .384-.303.622-.97.622-.76 0-1.686-.327-2.565-.949l-.987 1.482a5.786 5.786 0 0 0 3.49 1.2c1.76 0 3.111-.8 3.111-2.563 0-1.482-1.32-2.015-2.458-2.386z"/>
</svg>
