<svg xmlns="http://www.w3.org/2000/svg" width="120" height="31" viewBox="0 0 120 31">
    <g fill="none" fill-rule="nonzero">
        <path fill="#24541F" d="M119.976 13.787v.637s-.645.274-.645 1.092l.005 13.658c0 .481-.36.875-.808.875h-2.498l-5.49-9.321s.116.77.116 1.744v7.577h-3.04V13.787h1.972c1.005 0 1.737.445 2.266 1.34.448.756 4.595 7.785 4.595 7.785s-.15-.476-.15-1.76v-7.365h3.677zm-58.403 0v15.387c0 .481-.365.875-.813.875h-2.492l-5.49-9.321s.115.77.115 1.744v7.577h-3.045V13.787h1.968c1.005 0 1.737.445 2.266 1.34l4.6 7.785s-.15-.476-.15-1.76v-7.365h3.041zm-37.621 0h-4.066v6.232H16.33v-6.232h-4.72v.637s.645.264.645 1.092v14.533h4.075v-7.054h3.556v7.054h4.066V13.787zm13.164 0h-9.055v14.807c0 .844.746 1.455 1.525 1.455h7.53c.448 0 .813-.394.813-.875v-2.096h-5.196c-.337 0-.611-.3-.611-.663v-3.42h4.629v-2.971h-4.63v-3.26h5.804v-2.097c.004-.486-.361-.88-.809-.88zm8.584 0h-4.066v15.387c0 .481.366.875.813.875H45.7V13.787zm57.652 0h-9.06v14.807c0 .813.746 1.455 1.53 1.455h7.53c.448 0 .813-.394.813-.875v-2.096H98.97c-.337 0-.611-.3-.611-.663v-3.42h4.633v-2.971h-4.633v-3.26h5.812v-2.097c0-.486-.37-.88-.818-.88zm-28.614 0h-9.06v14.807c0 .813.745 1.455 1.53 1.455h7.53c.447 0 .813-.394.813-.875v-2.096h-5.197c-.336 0-.61-.3-.61-.663v-3.42h4.633v-2.971h-4.634v-3.26h5.808v-2.097c0-.486-.366-.88-.813-.88zm17.206 0h-2.935c-.707 0-1.246.192-1.81.885-.557.694-4.142 5.134-4.142 5.134v-6.019H78.99v15.387c0 .481.366.875.813.875h3.253v-7.37l3.585 6.03c.534.9 1.068 1.345 2.285 1.345h3.34l-5.707-9.595 5.384-6.672z"/>
        <path fill="#FA3000" d="M4.032 19.708c-.202.16-.471-.046-.394-.3l2.155-7.132-5.639-4.41c-.202-.16-.096-.496.15-.491H7.27S9.32.605 9.426.243c.077-.253.409-.259.486 0 .106.363 2.155 7.127 2.155 7.127h6.967c.246 0 .357.331.15.492L15.82 10.49h-3.979L10.61 6.423l-1.226 4.073h-3.98l3.22 2.515L7.39 17.08c0 .005-3.157 2.469-3.359 2.63"/>
    </g>
</svg>
