<svg xmlns="http://www.w3.org/2000/svg" width="80" height="35" viewBox="0 0 80 35">
    <g fill="none" fill-rule="nonzero">
        <path fill="#CC2131" d="M40.16.04c13.504 0 26.012 2.976 34.535 7.381h.11c.333.12.554.477.554.953 0 .119 0 .119-.11.238l-1.44 5.238v.239c0 .476.332.952.775 1.071h.11c1.551.477 3.1 1.191 4.539 1.786.553.238.886.715.664 1.191v.119l-4.206 15.12c-.111.476-.442.953-.996.953H5.516c-.443 0-.775-.477-.885-.952L.425 18.256v-.119c-.222-.477.11-.953.664-1.19 1.439-.596 2.988-1.31 4.538-1.787h.11c.444-.119.776-.595.776-1.071v-.239l-1.55-5.238v-.238c0-.477.221-.834.554-.953h.11C14.15 3.016 26.657.04 40.161.04z"/>
        <path fill="#FFF" d="M15.146 17.065c.11 0-2.768.476-3.1.238-.11-.119-.332-.357-.443-.714-.996-2.858-.553-4.405-.221-5.238.443-1.43 1.881-2.381 2.878-2.739 2.213-.833 9.186-.595 9.297-.595.664 0 .664.476.554.833-.222.834-2.214 8.573-2.214 8.573h3.32l1.55-6.072c.222-1.31 1.218-3.334 2.546-3.334h3.653c-.554.595-1.44.833-2.989 6.667l-2.324 9.644c-.443 1.191.332 2.024.553 2.143.11.119.11.358 0 .477s-1.439 1.428-4.76 1.428c-.885.119-.664-1.666-.332-2.738.332-1.31 1.66-6.667 1.66-6.667h-3.32s-.553 2.024-.885 3.214c-.222.952-.886 2.262-1.882 3.215-.664.476-6.862 5.239-10.404 2.62-1.329-.953-2.214-2.977-2.546-4.764-.11-.952-.11-2.618.221-2.618.443-.596 2.878-1.668 3.542-1.668.332 0 0 1.31.111 3.096.11 1.429.664 3.334 1.55 4.286.332.238.775.477 1.217.596.443.119.886.119 1.218 0 1.439-.477 2.878-3.81 3.21-5.358.553-2.024 2.435-9.406 2.656-10.12.222-.953.554-1.786.332-2.262-.11-.238-.664-.357-.885-.357a5.003 5.003 0 0 0-1.882 0c-.443.12-3.21.714-2.767 4.881.11 1.072.775 2.143.996 2.739.222.475.111.594-.11.594z"/>
        <path fill="#FFF" d="M34.848 25.638a3.186 3.186 0 0 0 2.103 0c.664-.238.775-.358 1.329-.596 0 0 .774-.476.22.596a7.643 7.643 0 0 1-2.434 2.261c-1.107.596-2.324.715-3.431.715-5.202-.476-2.878-7.262-2.546-8.215 2.434-6.43 7.637-6.668 9.076-6.668 2.324.239 3.542 5.239-5.092 7.501 0 0-1.328 3.453.775 4.406zm1.218-6.31s1.66-3.572.996-3.81c-1.329-.715-2.546 3.81-2.768 4.285.443 0 1.107-.238 1.772-.475zm23.908-3.335l-1.993 7.62c-.11.715-.664 2.024 0 2.5.11.12.333.12.443.239.332 0 .332.238-.332.714-.332.238-3.874 1.905-4.649 1.31-.886-.357-.332-2.262 0-3.215.332-.952 1.218-4.881 1.993-7.5.11-.596.332-1.43-.554-1.31-.553.119-2.102.952-2.545 2.738-.554 2.143-1.328 4.644-1.328 4.762-.665 2.5 0 2.738-.443 3.215-.111.119-.443.357-.775.476-.332.238-2.656 1.31-3.21.833-.774-.595-.332-2.381 0-3.333.332-.952 1.66-5.953 2.103-7.382.222-.833.11-1.19-.221-1.667a.409.409 0 0 1 .22-.714c.775-.715 3.986-1.786 4.54-1.548.442.238.22 1.31 0 2.024 0 0 1.881-1.786 4.537-2.262 3.1-.476 2.325 2.024 2.214 2.5z"/>
        <path fill="#FFF" d="M41.931 15.28c-.11 0-.442.356-.11.714.332.476.332.833.11 1.667-.331 1.428-1.88 6.548-2.213 7.5-.332.953-.775 2.858.222 3.215.774.596 4.095-.952 4.537-1.31.776-.356.776-.714.443-.714-.22-.119-.331-.119-.443-.238-.664-.476-.22-1.786 0-2.5l2.104-7.62c.11-.834.553-1.905 0-2.262-.664-.239-3.874.833-4.65 1.547zm2.325-3.334c.221.476 2.214-.477 3.21-1.072.111-.119.554-.476.664-.833.222-.834.333-1.191.443-1.786.11-.238.11-.595-.221-.715-.443-.119-3.1.239-3.763 1.43-.222.475-.997 2.738-.333 2.976zm17.599 6.071c.111-.119.332-.595.664-.595h3.875c1.217 0-5.203 6.549-7.195 10.002-.332.595.221.595.553.595h8.413c2.103 0 1.77.357 2.878-1.31 0 0 3.431-4.762 2.878-6.429-.332-1.31-2.325-1.667-3.1-.952-.442.475-.664 1.428-.553 1.666 1.882-.595 2.213 1.191 1.882 1.905-.664 1.072-.885 1.429-1.771 1.429h-5.866c-.11-.119-.222-.238 0-.476.331-.476 6.087-8.93 6.309-9.287.11-.238.443-.833-.333-.833h-6.42c-.663 0-.996.238-1.55.833-.442.595-.995 2.381-1.328 3.572 0 0 0 .476.664-.12z"/>
    </g>
</svg>
