<?xml version="1.0" encoding="UTF-8"?>
<svg width="68px" height="90px" viewBox="0 0 68 90" version="1.1" xmlns="http://www.w3.org/2000/svg" xmlns:xlink="http://www.w3.org/1999/xlink">
    <!-- Generator: sketchtool 49.3 (51167) - http://www.bohemiancoding.com/sketch -->
    <title>D51708A0-BC81-4C26-9B48-A472FA1D2FBB</title>
    <desc>Created with sketchtool.</desc>
    <defs></defs>
    <g id="Page-1" stroke="none" stroke-width="1" fill="none" fill-rule="evenodd">
        <g id="AFR_index_2" transform="translate(-40.000000, -2073.000000)" fill="#000000" fill-rule="nonzero">
            <path d="M107.978696,2079.79754 C107.74777,2076.54032 105.535154,2072.80996 100.011243,2073.00752 C97.6745163,2073.09263 94.6938423,2073.74508 91.5381936,2074.43604 C88.0102149,2075.20906 84.0590416,2076.06718 80.5290283,2076.22219 L80.5290283,2074.92842 L58.1760077,2074.92842 L58.1760077,2077.58182 L45.9450713,2077.58182 L45.9450713,2086.68987 L47.42727,2086.68987 L47.42727,2087.44567 L47.4059068,2087.44567 L47.4059068,2087.56623 C46.7446651,2087.8418 45.2034633,2088.17918 44.3163822,2088.37269 C43.7772159,2088.49021 43.2644993,2088.60267 42.8423219,2088.70905 C41.0844363,2089.15077 40.0773144,2090.69073 40.0773144,2092.93279 C40.0773144,2093.1881 40.0681588,2100.59613 40.0559512,2110.25026 C40.0335707,2128.30529 40,2154.21513 40,2155.88376 C40,2157.82999 40,2163 45.3855591,2163 L69.3530267,2163 L93.3204942,2163 C95.3316862,2163 98.705036,2162.07501 98.705036,2155.88376 C98.705036,2154.21412 98.6714653,2128.30529 98.6490848,2110.25026 C98.6368773,2100.59613 98.6277216,2093.1881 98.6277216,2092.93279 C98.6277216,2090.68972 97.6195824,2089.15077 95.8627141,2088.70905 C95.6226325,2088.64826 95.3479629,2088.58544 95.0610858,2088.5206 C97.1261944,2088.51452 98.9766538,2088.41524 102.239118,2088.07483 C106.117047,2087.67059 108.238106,2083.46406 107.978696,2079.79754 Z M60.3387767,2077.08234 L78.3662594,2077.08234 L78.3662594,2077.58182 L60.3387767,2077.58182 L60.3387767,2077.08234 Z M48.1078402,2079.73573 L58.1749905,2079.73573 L80.528011,2079.73573 L90.5951612,2079.73573 L90.5951612,2084.53595 L48.1078402,2084.53595 L48.1078402,2079.73573 Z M49.5900389,2086.68987 L89.1149971,2086.68987 L89.1149971,2087.44567 L49.5900389,2087.44567 L49.5900389,2086.68987 Z M96.4649527,2092.93178 C96.4649527,2093.18709 96.4741084,2100.59613 96.4863159,2110.25229 C96.5086964,2128.3063 96.5422671,2154.21513 96.5422671,2155.88376 C96.5422671,2160.84608 94.2014716,2160.84608 93.3204942,2160.84608 L69.3520094,2160.84608 L45.3855591,2160.84608 C43.3448656,2160.84608 42.1627689,2160.03456 42.1627689,2155.88376 C42.1627689,2154.21513 42.1953224,2128.3063 42.2187201,2110.25229 C42.2309277,2100.59714 42.2400833,2093.18709 42.2400833,2092.93178 C42.2400833,2091.70386 42.6215689,2090.98555 43.3723326,2090.79711 C43.7751813,2090.69479 44.2634829,2090.58841 44.7792514,2090.47696 C47.2543298,2089.93595 49.0010252,2089.54792 49.4598252,2088.55302 L89.2441936,2088.55302 C89.7029936,2089.54792 91.4496889,2089.93696 93.9257847,2090.47696 C94.4405359,2090.58942 94.9288374,2090.6958 95.3327035,2090.79711 C96.0844844,2090.98555 96.4649527,2091.70386 96.4649527,2092.93178 Z M102.013279,2085.93306 C97.71826,2086.38087 96.0254813,2086.40417 92.7599647,2086.34642 L92.7599647,2077.58283 L86.9685049,2077.58283 C88.6877333,2077.26471 90.3896676,2076.89491 92.0030973,2076.54133 C95.0600685,2075.87165 97.9481686,2075.23945 100.090592,2075.16144 C105.091613,2074.9649 105.73963,2078.78035 105.822031,2079.95052 C106.011248,2082.62721 104.525997,2085.67066 102.013279,2085.93306 Z" id="1"></path>
        </g>
    </g>
</svg>