<?xml version="1.0" encoding="UTF-8"?>
<svg width="35px" height="74px" viewBox="0 0 35 74" version="1.1" xmlns="http://www.w3.org/2000/svg" xmlns:xlink="http://www.w3.org/1999/xlink">
    <!-- Generator: sketchtool 49.3 (51167) - http://www.bohemiancoding.com/sketch -->
    <title>4C0ED604-F052-40C5-ADCA-38E7FEF2B737</title>
    <desc>Created with sketchtool.</desc>
    <defs></defs>
    <g id="Page-1" stroke="none" stroke-width="1" fill="none" fill-rule="evenodd">
        <g id="AFR_index_2" transform="translate(-1255.000000, -2089.000000)" fill="#000000" fill-rule="nonzero">
            <path d="M1272.5,2089 C1280.71687,2089.0012 1287.36823,2091.18818 1287.36823,2094.69764 C1287.36823,2095.97707 1287.67234,2096.79136 1288.44268,2097.99785 C1288.41664,2097.9572 1288.82015,2098.58256 1288.93138,2098.76073 C1289.58102,2099.81177 1289.89459,2100.65715 1289.89459,2101.73689 C1289.89459,2102.44715 1289.94666,2122.16709 1289.94784,2122.62386 C1289.95139,2124.32897 1289.95612,2125.95994 1289.95967,2127.53113 C1289.99754,2143.52638 1290.01174,2152.71435 1289.98926,2153.43059 C1289.95849,2154.46131 1289.54197,2155.15842 1288.6391,2156.18196 C1288.13383,2156.75591 1288.15277,2156.73319 1288.0368,2156.89342 C1287.92084,2157.05484 1287.88771,2157.13137 1287.88771,2157.13256 C1287.88771,2160.73649 1281.00442,2163 1272.5,2163 C1263.99558,2163 1257.11229,2160.73649 1257.11229,2157.13256 C1257.11229,2157.13137 1257.07916,2157.05484 1256.9632,2156.89342 C1256.84723,2156.73319 1256.86617,2156.75591 1256.3609,2156.18196 C1255.45803,2155.15842 1255.04151,2154.46131 1255.01074,2153.43059 C1254.98826,2152.71435 1255.00246,2143.52638 1255.04033,2127.53113 C1255.04388,2125.95994 1255.04861,2124.32897 1255.05216,2122.62267 C1255.05334,2122.16709 1255.10541,2102.44715 1255.10541,2101.73689 C1255.10541,2100.65835 1255.4178,2099.81655 1256.06744,2098.77507 C1256.17748,2098.59691 1256.57389,2097.98829 1256.55851,2098.011 C1257.32766,2096.81288 1257.63177,2095.99501 1257.63177,2094.69764 C1257.63177,2091.18818 1264.28313,2089.0012 1272.5,2089 Z M1285.60393,2097.54706 C1281.70375,2100.02222 1276.97881,2100.24343 1272.5,2100.39409 C1267.62241,2100.32832 1263.68319,2099.97917 1259.39962,2097.55065 C1259.05883,2098.60408 1259.30378,2097.99905 1258.54409,2099.31196 C1258.54764,2099.30717 1258.16662,2099.89428 1258.07077,2100.04733 C1257.63768,2100.74324 1257.47202,2101.18805 1257.47202,2101.73689 C1257.47202,2102.45074 1257.41995,2122.18742 1257.41877,2122.62865 C1257.41522,2124.33495 1257.41049,2125.96592 1257.40694,2127.53711 C1257.36907,2143.3243 1257.35606,2152.68565 1257.37617,2153.35765 C1257.38445,2153.64463 1257.57733,2153.96747 1258.12757,2154.59045 C1258.72041,2155.26364 1258.68846,2155.22657 1258.87424,2155.48246 C1259.25881,2156.01456 1259.47891,2156.5347 1259.47891,2157.13256 C1259.47891,2157.68738 1260.6208,2158.57581 1262.82174,2159.29922 C1265.34218,2160.12786 1268.79862,2160.60854 1272.5,2160.60854 C1276.20138,2160.60854 1279.65782,2160.12786 1282.17826,2159.29922 C1284.3792,2158.57581 1285.52109,2157.68738 1285.52109,2157.13256 C1285.52109,2156.5347 1285.74119,2156.01456 1286.12576,2155.48246 C1286.31154,2155.22657 1286.27959,2155.26364 1286.87243,2154.59045 C1287.42267,2153.96747 1287.61555,2153.64463 1287.62383,2153.35765 C1287.64394,2152.68565 1287.63093,2143.3243 1287.59306,2127.53711 C1287.58951,2125.96592 1287.58478,2124.33495 1287.58123,2122.62984 C1287.58005,2122.18742 1287.52798,2102.45074 1287.52798,2101.73689 C1287.52798,2101.18566 1287.36113,2100.73368 1286.92449,2100.02939 C1286.82865,2099.87395 1286.43934,2099.2713 1286.45354,2099.29402 C1285.69741,2097.9835 1285.93998,2098.58495 1285.60393,2097.54706 Z M1272.5,2091.39146 C1268.93825,2091.39265 1265.61198,2091.8542 1263.18975,2092.65175 C1261.08465,2093.34408 1259.99838,2094.18826 1259.99838,2094.69764 C1259.99838,2095.20583 1261.08465,2096.05121 1263.18975,2096.74353 C1265.61198,2097.53989 1268.93825,2098.00263 1272.5,2098.00263 C1276.06175,2098.00263 1279.38802,2097.53989 1281.81025,2096.74353 C1283.91535,2096.05121 1285.00162,2095.20583 1285.00162,2094.69764 C1285.00162,2094.18826 1283.91535,2093.34408 1281.81025,2092.65175 C1279.38802,2091.8542 1276.06175,2091.39265 1272.5,2091.39146 Z" id="13"></path>
        </g>
    </g>
</svg>