<?xml version="1.0" encoding="UTF-8"?>
<svg width="41px" height="90px" viewBox="0 0 41 90" version="1.1" xmlns="http://www.w3.org/2000/svg" xmlns:xlink="http://www.w3.org/1999/xlink">
    <!-- Generator: sketchtool 49.3 (51167) - http://www.bohemiancoding.com/sketch -->
    <title>835C6BF6-79E2-4F7E-8F64-44DE580AC984</title>
    <desc>Created with sketchtool.</desc>
    <defs></defs>
    <g id="Page-1" stroke="none" stroke-width="1" fill="none" fill-rule="evenodd">
        <g id="AFR_index_2" transform="translate(-1054.000000, -2073.000000)" fill="#000000" fill-rule="nonzero">
            <path d="M1058.76288,2163 L1090.23599,2163 C1092.86251,2163 1095,2161.24388 1095,2159.08612 L1095,2101.09688 C1095,2096.481 1092.44673,2092.09688 1087.99709,2089.06612 C1086.88496,2088.309 1085.90917,2087.75662 1085.04944,2087.27063 C1082.86688,2086.0365 1081.93278,2085.48637 1081.77728,2083.43325 L1081.90686,2083.43325 C1083.35139,2083.43325 1084.52774,2082.25988 1084.52774,2080.8165 L1084.52774,2075.61787 C1084.52774,2074.1745 1083.35139,2073 1081.90686,2073 L1067.09314,2073 C1065.64861,2073 1064.47226,2074.1745 1064.47226,2075.61787 L1064.47226,2080.8165 C1064.47226,2082.171 1065.51227,2083.27575 1066.83511,2083.40737 C1066.70665,2085.56288 1065.7196,2086.17825 1063.52126,2087.48438 C1062.68406,2087.98275 1061.73532,2088.54637 1060.67051,2089.3035 C1056.43158,2092.31738 1054,2096.616 1054,2101.09688 L1054,2159.08612 C1054,2161.24388 1056.13637,2163 1058.76288,2163 Z M1090.23599,2160.75 L1058.76288,2160.75 C1057.40286,2160.75 1056.25243,2159.98725 1056.25243,2159.08612 L1056.25243,2118.56588 C1065.14945,2118.60525 1069.56979,2119.66163 1074.23577,2120.781 C1078.82288,2121.88238 1083.57449,2123.0175 1092.74532,2123.058 L1092.74532,2159.085 C1092.74532,2159.98725 1091.59601,2160.75 1090.23599,2160.75 Z M1066.72581,2080.81538 L1066.72581,2075.61675 C1066.72581,2075.41425 1066.89032,2075.24888 1067.09314,2075.24888 L1081.90574,2075.24888 C1082.10856,2075.24888 1082.27306,2075.41313 1082.27306,2075.61675 L1082.27306,2080.81538 C1082.27306,2081.01788 1082.10856,2081.18212 1081.90574,2081.18212 L1067.09314,2081.18212 C1066.89032,2081.18212 1066.72581,2081.01788 1066.72581,2080.81538 Z M1061.97757,2091.135 C1062.96688,2090.43188 1063.87507,2089.893 1064.67508,2089.41712 C1067.03455,2088.01425 1068.90161,2086.86337 1069.08077,2083.43325 L1079.51246,2083.43325 C1079.71416,2086.83637 1081.50798,2087.85338 1083.93844,2089.22813 C1084.76099,2089.69275 1085.69396,2090.22037 1086.72834,2090.92463 C1090.55374,2093.529 1092.74757,2097.237 1092.74757,2101.09688 L1092.74757,2120.80912 C1083.85055,2120.76975 1079.43021,2119.71337 1074.76423,2118.594 C1070.17712,2117.49262 1065.42551,2116.3575 1056.25468,2116.317 L1056.25468,2101.09688 C1056.25355,2097.29775 1058.28513,2093.75963 1061.97757,2091.135 Z" id="11"></path>
        </g>
    </g>
</svg>