<?xml version="1.0" encoding="UTF-8"?>
<svg width="31px" height="90px" viewBox="0 0 31 90" version="1.1" xmlns="http://www.w3.org/2000/svg" xmlns:xlink="http://www.w3.org/1999/xlink">
    <!-- Generator: sketchtool 49.3 (51167) - http://www.bohemiancoding.com/sketch -->
    <title>1F567CA5-5A43-4045-8ACB-04C4DE14E6D0</title>
    <desc>Created with sketchtool.</desc>
    <defs></defs>
    <g id="Page-1" stroke="none" stroke-width="1" fill="none" fill-rule="evenodd">
        <g id="AFR_index_2" transform="translate(-853.000000, -2073.000000)" fill="#000000" fill-rule="nonzero">
            <path d="M880.235253,2092.3996 C879.282739,2088.56182 878.298005,2084.59545 878.190268,2083.99209 L878.190268,2082.04748 L879.353221,2082.04748 L879.353221,2074.47577 L878.077497,2073 L858.982915,2073 L857.755522,2074.45203 L857.755522,2082.04649 L858.809731,2082.04649 L858.809731,2083.9911 C858.701994,2084.59446 857.71726,2088.56083 856.764746,2092.39862 C854.109588,2103.09199 853,2107.68249 853,2108.42928 L853,2112.9822 L853,2114.44609 L853.055379,2114.44609 C853.121833,2114.65974 853.272866,2114.94758 853.626283,2115.34718 C853,2116.00692 853,2116.34322 853,2116.56775 L853,2122.45994 C853,2122.66271 853,2123.02967 853.626283,2123.73689 C853,2124.39664 853,2124.73294 853,2124.95747 L853,2130.84965 L853.055379,2130.84965 C853.121833,2131.0633 853.272866,2131.35114 853.626283,2131.75074 C853,2132.41048 853,2132.74679 853,2132.97132 L853,2138.8635 C853,2139.06627 853,2139.43225 853.626283,2140.13947 C853,2140.79921 853,2141.13551 853,2141.36004 L853,2147.25223 L853.055379,2147.25223 C853.121833,2147.46588 853.272866,2147.75371 853.626283,2148.15331 C853,2148.81306 853,2149.15035 853,2149.37389 L853,2156.95846 C853,2159.49159 854.310965,2163 856.76978,2163 L868.446635,2163 L868.554371,2163 L880.230219,2163 C882.689034,2163 883.999999,2159.49159 883.999999,2156.95846 L883.999999,2149.37389 C883.999999,2149.14936 883.999999,2148.81306 883.373716,2148.15331 C883.72814,2147.75371 883.878166,2147.46588 883.944621,2147.25223 L883.999999,2147.25223 L883.999999,2141.36004 C883.999999,2141.13551 883.999999,2140.79921 883.373716,2140.13947 C883.999999,2139.43225 883.999999,2139.06627 883.999999,2138.8635 L883.999999,2132.97132 C883.999999,2132.74679 883.999999,2132.41048 883.373716,2131.75074 C883.72814,2131.35114 883.878166,2131.0633 883.944621,2130.84965 L883.999999,2130.84965 L883.999999,2124.95747 C883.999999,2124.73294 883.999999,2124.39664 883.373716,2123.73689 C883.999999,2123.02967 883.999999,2122.66271 883.999999,2122.45994 L883.999999,2116.56775 C883.999999,2116.34322 883.999999,2116.00692 883.373716,2115.34718 C883.72814,2114.94758 883.878166,2114.65974 883.944621,2114.44609 L883.999999,2114.44609 L883.999999,2112.9822 L883.999999,2108.42928 C884.001006,2107.68348 882.890411,2103.09298 880.235253,2092.3996 Z M859.896161,2075.21167 L859.987787,2075.10287 L877.086722,2075.10287 L877.212582,2075.24728 L877.212582,2079.94362 L859.896161,2079.94362 L859.896161,2075.21167 Z M855.641061,2116.37191 L881.357931,2116.37191 C881.554274,2116.54204 881.745582,2116.71612 881.85936,2116.83976 L881.85936,2122.23145 C881.78183,2122.33037 881.654962,2122.46489 881.501916,2122.61622 L855.498084,2122.61622 C855.345037,2122.46588 855.218169,2122.33037 855.140639,2122.23145 L855.140639,2116.83976 C855.254417,2116.71612 855.444719,2116.54105 855.641061,2116.37191 Z M881.860367,2130.24431 C881.778809,2130.34718 881.643887,2130.49159 881.481778,2130.64985 L855.518221,2130.64985 C855.35712,2130.49159 855.22119,2130.34718 855.139632,2130.24431 L855.139632,2125.22849 C855.263479,2125.09496 855.475932,2124.90109 855.689392,2124.7181 L881.309601,2124.7181 C881.515005,2124.89318 881.730479,2125.08803 881.85936,2125.2275 L881.85936,2130.24431 L881.860367,2130.24431 Z M881.860367,2138.63403 C881.785857,2138.72799 881.669059,2138.8546 881.524067,2138.99703 L855.475932,2138.99703 C855.330941,2138.85361 855.214142,2138.72799 855.139632,2138.63403 L855.139632,2133.24233 C855.258445,2133.11375 855.459822,2132.92977 855.665227,2132.75272 L881.332759,2132.75272 C881.538164,2132.92878 881.739541,2133.11375 881.858353,2133.24233 L881.858353,2138.63403 L881.860367,2138.63403 Z M881.860367,2146.64688 C881.763706,2146.76855 881.594549,2146.94758 881.3972,2147.13551 L855.6028,2147.13551 C855.407464,2146.94955 855.236293,2146.76855 855.139632,2146.64688 L855.139632,2141.63106 C855.268514,2141.49258 855.492042,2141.28882 855.714564,2141.0999 L881.285435,2141.0999 C881.507957,2141.28783 881.730479,2141.49159 881.85936,2141.63106 L881.85936,2146.64688 L881.860367,2146.64688 Z M881.860367,2156.95846 C881.860367,2158.95054 880.829316,2160.89713 880.231226,2160.89713 L868.554371,2160.89713 L868.446635,2160.89713 L856.76978,2160.89713 C856.17169,2160.89713 855.140639,2158.95054 855.140639,2156.95846 L855.140639,2149.64392 C855.241328,2149.5361 855.401423,2149.38773 855.570579,2149.23739 L881.431434,2149.23739 C881.59757,2149.38378 881.757665,2149.53215 881.861374,2149.64392 L881.861374,2156.95846 L881.860367,2156.95846 Z M881.860367,2113.84174 C881.774782,2113.94955 881.630797,2114.10287 881.460633,2114.26805 L855.540373,2114.26805 C855.370209,2114.10287 855.226224,2113.94857 855.140639,2113.84174 L855.140639,2112.9822 L855.140639,2108.45697 C855.20508,2107.55589 857.395056,2098.73492 858.844972,2092.89812 C860.78222,2085.09397 860.951377,2084.35608 860.951377,2084.05836 L860.951377,2082.04748 L876.050636,2082.04748 L876.050636,2084.05836 C876.050636,2084.35608 876.219793,2085.09397 878.157041,2092.89812 C879.60595,2098.73492 881.795926,2107.55589 881.861374,2108.43027 L881.861374,2112.98318 L881.861374,2113.84174 L881.860367,2113.84174 Z" id="9"></path>
        </g>
    </g>
</svg>