<?xml version="1.0" encoding="UTF-8"?>
<svg width="25px" height="76px" viewBox="0 0 25 76" version="1.1" xmlns="http://www.w3.org/2000/svg" xmlns:xlink="http://www.w3.org/1999/xlink">
    <!-- Generator: sketchtool 49.3 (51167) - http://www.bohemiancoding.com/sketch -->
    <title>BCCAA200-E61E-49BB-B243-4252691F3211</title>
    <desc>Created with sketchtool.</desc>
    <defs></defs>
    <g id="Page-1" stroke="none" stroke-width="1" fill="none" fill-rule="evenodd">
        <g id="AFR_index_2" transform="translate(-656.000000, -2087.000000)" fill="#000000" fill-rule="nonzero">
            <path d="M680.205967,2129.91187 L673.623767,2094.07824 L673.721367,2094.07824 C674.834617,2094.07824 675.740937,2093.18546 675.740937,2092.08884 L675.740937,2088.9894 C675.740937,2087.89278 674.834617,2087 673.721367,2087 L663.70693,2087 C662.59368,2087 661.68736,2087.89278 661.68736,2088.9894 L661.68736,2092.08884 C661.68736,2093.07594 662.423544,2093.89153 663.382148,2094.04589 L656.790824,2129.92925 C656.266282,2133.04607 656,2136.22848 656,2139.3856 L656,2158.19953 C656,2160.84627 658.186397,2163 660.873276,2163 L676.126724,2163 C678.813603,2163 681,2160.84627 681,2158.19953 L681,2139.3856 C681,2136.22848 680.733718,2133.04607 680.205967,2129.91187 Z M658.463908,2140.59914 L678.536092,2140.59914 L678.536092,2151.29353 L658.463908,2151.29353 L658.463908,2140.59914 Z M664.151267,2089.4271 L673.277029,2089.4271 L673.277029,2091.65114 L664.151267,2091.65114 L664.151267,2089.4271 Z M665.879291,2094.07824 L671.120709,2094.07824 L677.778954,2130.32586 C678.213968,2132.91349 678.451776,2135.54689 678.510627,2138.17205 L658.489373,2138.17205 C658.548224,2135.54714 658.785581,2132.91581 659.217838,2130.34324 L665.879291,2094.07824 Z M676.126724,2160.5729 L660.873276,2160.5729 C659.545075,2160.5729 658.463908,2159.50789 658.463908,2158.19953 L658.463908,2153.72063 L678.536092,2153.72063 L678.536092,2158.19953 C678.536092,2159.50789 677.454925,2160.5729 676.126724,2160.5729 Z" id="7"></path>
        </g>
    </g>
</svg>