<?xml version="1.0" encoding="UTF-8"?>
<svg width="39px" height="68px" viewBox="0 0 39 68" version="1.1" xmlns="http://www.w3.org/2000/svg" xmlns:xlink="http://www.w3.org/1999/xlink">
    <!-- Generator: sketchtool 49.3 (51167) - http://www.bohemiancoding.com/sketch -->
    <title>97D0D6AA-4DE4-49D6-86AA-9B3D5B16A386</title>
    <desc>Created with sketchtool.</desc>
    <defs></defs>
    <g id="Page-1" stroke="none" stroke-width="1" fill="none" fill-rule="evenodd">
        <g id="AFR_index_2" transform="translate(-950.000000, -2095.000000)" fill="#000000" fill-rule="nonzero">
            <path d="M988.864647,2119.39953 L980.588618,2104.06667 L980.970588,2104.06667 C982.237594,2104.06667 983.264706,2103.05185 983.264706,2101.8 L983.264706,2097.26667 C983.264706,2096.01482 982.237594,2095 980.970588,2095 L958.029412,2095 C956.762406,2095 955.735294,2096.01482 955.735294,2097.26667 L955.735294,2101.8 C955.735294,2103.05185 956.762406,2104.06667 958.029412,2104.06667 L958.411382,2104.06667 L950.135353,2119.39953 C950.046799,2119.56388 950.000328,2119.74715 950,2119.93333 L950,2157.33333 C950.003792,2160.46139 952.569351,2162.99625 955.735294,2163 L983.264706,2163 C986.430649,2162.99625 988.996208,2160.46139 989,2157.33333 L989,2119.93333 C988.999672,2119.74715 988.953201,2119.56388 988.864647,2119.39953 Z M958.029412,2097.26667 L980.970588,2097.26667 L980.970588,2101.8 L958.029412,2101.8 L958.029412,2097.26667 Z M977.988235,2104.06667 L980.549618,2108.81193 C980.434912,2108.77 980.320206,2108.72693 980.2055,2108.68047 C978.288928,2107.89624 976.135572,2107.89624 974.219,2108.68047 C972.849108,2109.25014 971.304627,2109.25014 969.934735,2108.68047 C968.015781,2107.89623 965.860307,2107.89623 963.941353,2108.68047 C963.268834,2108.98309 962.535016,2109.12927 961.796353,2109.10773 C961.057309,2109.1294 960.323088,2108.98323 959.650206,2108.68047 C959.339549,2108.55387 959.022547,2108.44303 958.700441,2108.3484 L961.011765,2104.06667 L977.988235,2104.06667 Z M986.705882,2157.33333 C986.705882,2159.2111 985.165215,2160.73333 983.264706,2160.73333 L955.735294,2160.73333 C953.834785,2160.73333 952.294118,2159.2111 952.294118,2157.33333 L952.294118,2120.21667 L957.577471,2110.4292 C957.997775,2110.49902 958.40797,2110.61889 958.799088,2110.7862 C959.742848,2111.19575 960.765817,2111.39651 961.796353,2111.3744 C962.82652,2111.39653 963.849119,2111.19577 964.792471,2110.7862 C966.164341,2110.21647 967.7106,2110.21647 969.082471,2110.7862 C970.999837,2111.57043 973.153898,2111.57043 975.071265,2110.7862 C976.440359,2110.21652 977.984141,2110.21652 979.353235,2110.7862 C980.166322,2111.1384 981.039923,2111.33419 981.927235,2111.36307 L986.705882,2120.21667 L986.705882,2157.33333 Z" id="10"></path>
        </g>
    </g>
</svg>