<?xml version="1.0" encoding="UTF-8"?>
<svg width="44px" height="74px" viewBox="0 0 44 74" version="1.1" xmlns="http://www.w3.org/2000/svg" xmlns:xlink="http://www.w3.org/1999/xlink">
    <!-- Generator: sketchtool 49.3 (51167) - http://www.bohemiancoding.com/sketch -->
    <title>D07310C3-C2A1-4FEA-B0DB-E8DF957299DF</title>
    <desc>Created with sketchtool.</desc>
    <defs></defs>
    <g id="Page-1" stroke="none" stroke-width="1" fill="none" fill-rule="evenodd">
        <g id="AFR_index_2" transform="translate(-449.000000, -2089.000000)" fill="#000000" fill-rule="nonzero">
            <path d="M490.175309,2094.81037 C491.044444,2094.15259 491.696296,2093.0563 491.696296,2091.74074 L491.696296,2091.52148 C491.696296,2090.0963 490.609877,2089 489.197531,2089 L452.802469,2089 C451.390123,2089 450.303704,2090.0963 450.303704,2091.52148 L450.303704,2091.74074 C450.303704,2092.94667 450.846914,2094.04296 451.824691,2094.81037 C451.390123,2095.57778 451.064198,2096.23556 450.62963,2096.7837 C449.651852,2098.42815 449,2099.52444 449,2100.94963 L449,2155.43556 C449,2156.53185 449.54321,2157.40889 450.412346,2157.95704 C450.62963,2159.93037 451.933333,2161.24593 453.237037,2162.56148 L453.345679,2162.67111 C453.562963,2162.89037 453.780247,2163 454.106173,2163 L487.893827,2163 C488.219753,2163 488.437037,2162.89037 488.654321,2162.67111 L488.762963,2162.56148 C490.175309,2161.24593 491.37037,2160.04 491.587654,2157.95704 C492.45679,2157.40889 493,2156.53185 493,2155.43556 L493,2101.05926 C493,2099.63407 492.348148,2098.42815 491.37037,2096.89333 C491.044444,2096.23556 490.609877,2095.57778 490.175309,2094.81037 Z M452.476543,2091.63111 C452.476543,2091.41185 452.585185,2091.30222 452.802469,2091.30222 L489.197531,2091.30222 C489.414815,2091.30222 489.523457,2091.41185 489.523457,2091.63111 L489.523457,2091.85037 C489.523457,2092.72741 488.762963,2093.49481 487.893827,2093.49481 L454.106173,2093.49481 C453.237037,2093.49481 452.476543,2092.72741 452.476543,2091.85037 L452.476543,2091.63111 Z M451.17284,2101.05926 C451.17284,2100.18222 451.716049,2099.30519 452.476543,2097.98963 C452.911111,2097.33185 453.345679,2096.56444 453.780247,2095.68741 L453.997531,2095.68741 L487.785185,2095.68741 L488.219753,2095.68741 C488.762963,2096.56444 489.197531,2097.44148 489.523457,2097.98963 C490.283951,2099.30519 490.82716,2100.18222 490.82716,2101.05926 L490.82716,2155.54519 C490.82716,2155.9837 490.501235,2156.31259 490.066667,2156.31259 L451.933333,2156.31259 C451.498765,2156.31259 451.17284,2155.9837 451.17284,2155.54519 L451.17284,2101.05926 Z M487.459259,2160.80741 L454.540741,2160.80741 C453.562963,2159.93037 453.019753,2159.27259 452.693827,2158.50519 L489.306173,2158.50519 C489.088889,2159.16296 488.437037,2159.82074 487.459259,2160.80741 Z" id="5"></path>
        </g>
    </g>
</svg>