<?xml version="1.0" encoding="UTF-8"?>
<svg width="32px" height="86px" viewBox="0 0 32 86" version="1.1" xmlns="http://www.w3.org/2000/svg" xmlns:xlink="http://www.w3.org/1999/xlink">
    <!-- Generator: sketchtool 49.3 (51167) - http://www.bohemiancoding.com/sketch -->
    <title>E3197EB1-1AC3-43F1-8FAB-8BD7739B32DB</title>
    <desc>Created with sketchtool.</desc>
    <defs></defs>
    <g id="Page-1" stroke="none" stroke-width="1" fill="none" fill-rule="evenodd">
        <g id="AFR_index_2" transform="translate(-164.000000, -2077.000000)" fill="#000000" fill-rule="nonzero">
            <path d="M185.570326,2092.36339 L185.570326,2086.33372 L188.514306,2086.33372 L188.514306,2077 L171.485636,2077 L171.485636,2086.33372 L174.430752,2086.33372 L174.430752,2092.36339 C172.784389,2094.57082 164,2107.14441 164,2123.98756 L164,2156.79518 L164.007931,2156.93368 C164.064548,2157.40309 164.628436,2161.55115 167.129681,2162.70623 C167.482962,2162.86914 167.934752,2162.99968 168.474859,2162.99968 C169.178023,2162.99968 170.032905,2162.77888 171.018008,2162.12046 C174.380941,2159.87387 175.293576,2159.90055 177.755202,2159.96469 C178.23417,2159.97775 178.759552,2159.99194 179.357413,2159.99194 L180.643712,2159.99194 C181.240437,2159.99194 181.766955,2159.97775 182.245923,2159.96469 C184.701879,2159.89828 185.619048,2159.87274 188.983117,2162.12046 C190.724592,2163.28518 192.058442,2163.08141 192.871443,2162.70623 C195.371564,2161.55115 195.935452,2157.40252 195.992069,2156.93368 L196,2123.98756 C195.999954,2107.14441 187.215554,2094.5708 185.570326,2092.36339 Z M173.804588,2084.00879 L173.804588,2079.3249 L186.195354,2079.3249 L186.195354,2084.00879 L173.804588,2084.00879 Z M176.500591,2093.47702 L176.749693,2093.15973 L176.749693,2086.3337 L183.251362,2086.3337 L183.251362,2093.1603 L183.500464,2093.47759 C183.597837,2093.60077 192.784204,2105.45464 193.615305,2121.66263 L166.38575,2121.66263 C167.216862,2105.48246 176.403218,2093.60077 176.500591,2093.47702 Z M193.681001,2156.72195 C193.5406,2157.78734 192.923492,2160.1219 191.90102,2160.59415 C191.499053,2160.77919 190.951015,2160.64126 190.26937,2160.18605 C186.453511,2157.63636 185.035877,2157.56201 182.182476,2157.6409 C181.722767,2157.65339 181.217757,2157.66701 180.643677,2157.66701 L179.357389,2157.66701 C178.783309,2157.66701 178.278311,2157.65339 177.817454,2157.6409 C174.971984,2157.56144 173.547544,2157.6358 169.731696,2160.18605 C169.048916,2160.64069 168.502014,2160.77749 168.101183,2160.59472 C167.074189,2160.12247 166.466136,2157.8265 166.318941,2156.72081 L166.318941,2150.30402 L193.681001,2150.30402 L193.68099,2156.72195 L193.681001,2156.72195 Z M193.681001,2147.97912 L166.318941,2147.97912 L166.318941,2123.98756 L193.681001,2123.98756 L193.681001,2147.97912 Z" id="2"></path>
        </g>
    </g>
</svg>