<?xml version="1.0" encoding="UTF-8"?>
<svg width="31px" height="90px" viewBox="0 0 31 90" version="1.1" xmlns="http://www.w3.org/2000/svg" xmlns:xlink="http://www.w3.org/1999/xlink">
    <!-- Generator: sketchtool 49.3 (51167) - http://www.bohemiancoding.com/sketch -->
    <title>AF277C80-2184-444C-B8E0-FC2E519BFF7A</title>
    <desc>Created with sketchtool.</desc>
    <defs></defs>
    <g id="Page-1" stroke="none" stroke-width="1" fill="none" fill-rule="evenodd">
        <g id="AFR_index_2" transform="translate(-559.000000, -2073.000000)" fill="#000000" fill-rule="nonzero">
            <path d="M580.625,2091.125 L580.625,2081 C581.375,2080.625 582,2079.75 582,2078.875 L582,2075.375 C582,2074.125 581,2073 579.625,2073 L569.5,2073 C568.25,2073 567.125,2074 567.125,2075.375 L567.125,2078.875 C567.125,2079.875 567.875,2080.875 568.75,2081.125 L568.75,2090.75 C568.75,2094.625 567.125,2098.25 564.25,2100.75 C561,2103.625 559,2107.875 559,2112.375 L559,2159.125 C559,2161.25 560.75,2163 562.875,2163 L586.125,2163 C588.25,2163 590,2161.25 590,2159.125 L590,2112.375 C590,2108.125 588.25,2104 585,2101 C582.125,2098.25 580.625,2094.875 580.625,2091.125 Z M569.625,2075.5 L579.5,2075.5 L579.5,2078.625 L579.375,2078.625 L570.125,2078.625 L569.75,2078.625 L569.75,2075.5 L569.625,2075.5 Z M587.5,2159 C587.5,2159.75 586.875,2160.375 586.125,2160.375 L563,2160.375 C562.25,2160.375 561.625,2159.75 561.625,2159 L561.625,2112.375 C561.625,2108.625 563.25,2105.125 566,2102.625 C569.375,2099.625 571.375,2095.25 571.375,2090.75 L571.375,2081.25 L578.125,2081.25 L578.125,2091.25 C578.125,2095.625 580,2099.75 583.375,2102.875 C586,2105.375 587.5,2108.75 587.5,2112.375 L587.5,2159 Z" id="6"></path>
        </g>
    </g>
</svg>