<?xml version="1.0" encoding="UTF-8"?>
<svg width="41px" height="62px" viewBox="0 0 41 62" version="1.1" xmlns="http://www.w3.org/2000/svg" xmlns:xlink="http://www.w3.org/1999/xlink">
    <!-- Generator: sketchtool 49.3 (51167) - http://www.bohemiancoding.com/sketch -->
    <title>539C5F2B-8FCF-4B87-9A55-CE0CD7A6A9C9</title>
    <desc>Created with sketchtool.</desc>
    <defs></defs>
    <g id="Page-1" stroke="none" stroke-width="1" fill="none" fill-rule="evenodd">
        <g id="AFR_index_2" transform="translate(-746.000000, -2103.000000)" fill="#000000" fill-rule="nonzero">
            <path d="M766.498877,2103 C777.499945,2103 786.408352,2105.90383 786.408352,2110.24776 L786.407229,2110.259 L786.453258,2123.31666 L786.454381,2123.55724 L786.355586,2123.77759 C786.30282,2123.89675 786.30282,2123.89675 786.144524,2124.252 L786.136665,2124.26999 L786.177081,2124.3588 C786.383653,2124.82422 786.590225,2125.28965 786.796796,2125.75394 L787,2126.2115 L786.796796,2126.66905 C786.68902,2126.91188 786.68902,2126.91188 786.36569,2127.63924 C786.163609,2128.09454 786.239951,2127.92254 786.136665,2128.153 L786.177081,2128.24181 C786.383653,2128.70723 786.590225,2129.17266 786.796796,2129.63808 L787,2130.09451 L786.796796,2130.55206 C786.68902,2130.79489 786.68902,2130.79489 786.36569,2131.52337 C786.163609,2131.97755 786.239951,2131.80667 786.136665,2132.03714 C786.239951,2132.2676 786.163609,2132.09559 786.36569,2132.5509 C786.68902,2133.27826 786.68902,2133.27826 786.796796,2133.52109 L787,2133.97864 L786.796796,2134.43619 C786.671057,2134.71837 786.751889,2134.53625 786.554299,2134.98143 C786.163609,2135.86056 786.30282,2135.54803 786.136665,2135.92015 L786.177081,2136.00896 C786.383653,2136.47438 786.590225,2136.9398 786.796796,2137.4041 L787,2137.86165 L786.796796,2138.3192 C786.736172,2138.45523 786.736172,2138.45523 786.555422,2138.86332 C786.436418,2139.12976 786.484693,2139.02183 786.410597,2139.18821 L786.410597,2157.75224 C786.410597,2162.09617 777.502191,2165 766.5,2165 C755.498932,2165 746.589403,2162.09617 746.589403,2157.75224 L746.589403,2139.18821 C746.515307,2139.02071 746.563582,2139.12976 746.445701,2138.86332 C746.263828,2138.45523 746.263828,2138.45523 746.203204,2138.3192 L746,2137.86165 L746.203204,2137.4041 C746.330066,2137.12192 746.248111,2137.30404 746.446824,2136.85886 C746.837514,2135.97973 746.698302,2136.29226 746.863335,2135.92015 L746.824042,2135.83133 C746.616347,2135.36591 746.410898,2134.90049 746.203204,2134.43619 L746,2133.97864 L746.203204,2133.52109 C746.31098,2133.27826 746.31098,2133.27826 746.635433,2132.5509 C746.837514,2132.09559 746.761172,2132.2676 746.863335,2132.03714 L746.824042,2131.9472 C746.61747,2131.4829 746.410898,2131.01748 746.203204,2130.55206 L746,2130.09451 L746.203204,2129.63808 C746.328943,2129.35478 746.248111,2129.5369 746.446824,2129.09171 C746.837514,2128.21258 746.698302,2128.52511 746.863335,2128.153 C746.761172,2127.92254 746.837514,2128.09454 746.635433,2127.63924 C746.31098,2126.91188 746.31098,2126.91188 746.203204,2126.66905 L746,2126.2115 L746.203204,2125.75394 C746.330066,2125.47177 746.248111,2125.65277 746.446824,2125.2087 C746.837514,2124.32957 746.698302,2124.6421 746.863335,2124.26999 L746.855476,2124.252 C746.69718,2123.89675 746.69718,2123.89675 746.644414,2123.77759 L746.546742,2123.55724 L746.547864,2123.31666 L746.58828,2110.24439 C747.646961,2103.54861 761.529929,2103.08207 766.498877,2103 Z M748.822399,2113.70694 L748.794332,2123.08283 C748.845975,2123.19975 748.807804,2123.11431 748.906599,2123.33802 C749.064896,2123.6944 749.064896,2123.6944 749.117662,2123.81244 L749.320865,2124.26999 L749.117662,2124.72754 C748.991922,2125.00972 749.072755,2124.82872 748.875164,2125.27278 C748.484474,2126.15191 748.623686,2125.83938 748.458653,2126.2115 L748.497946,2126.30031 C748.704518,2126.76573 748.91109,2127.23115 749.117662,2127.69657 L749.320865,2128.153 L749.117662,2128.61055 C749.009885,2128.85338 749.009885,2128.85338 748.686555,2129.58074 C748.484474,2130.03605 748.560816,2129.86404 748.458653,2130.09563 C748.560816,2130.32497 748.484474,2130.15409 748.686555,2130.60827 C749.009885,2131.33675 749.009885,2131.33675 749.117662,2131.57958 L749.320865,2132.03714 L749.117662,2132.49356 C748.991922,2132.77686 749.072755,2132.59474 748.875164,2133.03993 C748.484474,2133.91906 748.623686,2133.60653 748.458653,2133.97864 C748.560816,2134.2091 748.484474,2134.03822 748.686555,2134.4924 C749.009885,2135.21976 749.009885,2135.21976 749.117662,2135.46259 L749.320865,2135.92015 L749.117662,2136.3777 C748.991922,2136.661 749.072755,2136.47888 748.875164,2136.92406 C748.484474,2137.80207 748.623686,2137.48954 748.458653,2137.86165 C748.551835,2138.07188 748.645016,2138.2821 748.738198,2138.49233 L748.834748,2138.71043 L748.834748,2157.75224 C748.834748,2160.17153 756.749589,2162.75159 766.5,2162.75159 C776.251533,2162.75159 784.165252,2160.17153 784.165252,2157.75224 L784.165252,2138.71043 L784.262924,2138.49233 C784.322426,2138.3563 784.322426,2138.3563 784.504299,2137.94821 L784.54247,2137.86165 L784.503176,2137.77284 C784.296605,2137.30742 784.090033,2136.84199 783.882338,2136.3777 L783.679135,2135.92015 L783.882338,2135.46259 C783.990115,2135.21976 783.990115,2135.21976 784.314567,2134.4924 C784.516648,2134.03822 784.440307,2134.2091 784.54247,2133.97864 L784.503176,2133.88983 C784.296605,2133.42441 784.08891,2132.95898 783.882338,2132.49356 L783.679135,2132.03714 L783.882338,2131.57958 C784.008078,2131.29628 783.927245,2131.4784 784.125958,2131.03322 C784.516648,2130.15409 784.377437,2130.46662 784.54247,2130.09563 C784.440307,2129.86404 784.516648,2130.03605 784.314567,2129.58074 C783.990115,2128.85338 783.990115,2128.85338 783.882338,2128.61055 L783.679135,2128.153 L783.882338,2127.69657 C784.008078,2127.41327 783.927245,2127.59539 784.125958,2127.15021 C784.516648,2126.27108 784.377437,2126.58361 784.54247,2126.2115 L784.503176,2126.12268 C784.296605,2125.65726 784.090033,2125.19184 783.882338,2124.72754 L783.679135,2124.26999 L783.882338,2123.81244 C783.935104,2123.6944 783.935104,2123.6944 784.093401,2123.33802 C784.193319,2123.11431 784.155148,2123.19975 784.206791,2123.08395 L784.174233,2113.70694 C779.40512,2117.09418 772.120099,2117.40221 766.498877,2117.49552 C762.020537,2117.45842 752.307174,2116.76704 748.822399,2113.70694 Z M766.498877,2105.24841 C756.747344,2105.24841 748.833625,2107.82847 748.833625,2110.24776 C748.833625,2112.66818 756.747344,2115.24711 766.498877,2115.24711 C771.079381,2115.16392 775.77103,2114.82328 780.128122,2113.28649 C781.567388,2112.77835 783.813855,2111.98803 784.161884,2110.25451 L784.161884,2110.25226 L784.163007,2110.25226 L784.163007,2110.24776 C784.163007,2107.82847 776.249288,2105.24841 766.498877,2105.24841 Z" id="8"></path>
        </g>
    </g>
</svg>