<?xml version="1.0" encoding="UTF-8"?>
<svg width="30px" height="90px" viewBox="0 0 30 90" version="1.1" xmlns="http://www.w3.org/2000/svg" xmlns:xlink="http://www.w3.org/1999/xlink">
    <!-- Generator: sketchtool 49.3 (51167) - http://www.bohemiancoding.com/sketch -->
    <title>0746C349-4ADD-4784-BE7F-CCAB1CB3B35C</title>
    <desc>Created with sketchtool.</desc>
    <defs></defs>
    <g id="Page-1" stroke="none" stroke-width="1" fill="none" fill-rule="evenodd">
        <g id="AFR_index_2" transform="translate(-353.000000, -2073.000000)" fill="#000000" fill-rule="nonzero">
            <path d="M382.97044,2104.20091 C383.023462,2103.93267 383.148515,2103.30374 381.821955,2099.40564 C381.158674,2097.45659 380.001185,2095.05544 379.068791,2093.69713 C378.251446,2092.50559 375.16114,2087.16479 374.33379,2085.10824 C373.884601,2083.99306 373.845584,2082.61767 373.881599,2081.72753 L374.929042,2081.72753 L374.929042,2074.56427 L374.075681,2073 L361.961563,2073 L361.139215,2074.54116 L361.139215,2081.72753 L362.11963,2081.72753 C362.155645,2082.61767 362.116628,2083.99306 361.667438,2085.10824 C360.841089,2087.16378 357.750784,2092.50559 356.933438,2093.69713 C356.001044,2095.05544 354.842555,2097.45558 354.179274,2099.40564 C352.852714,2103.30475 352.973765,2103.90956 353.03179,2104.1989 C353.113824,2104.61584 353.312908,2104.89815 353.500988,2105.09105 C353.50599,2107.87698 353.538003,2123.32172 353.543006,2126.07551 C353.353926,2126.34777 353.206864,2126.70443 353.169848,2127.14146 C352.987771,2129.33263 353.31591,2129.75761 353.456969,2129.94046 C353.539004,2130.04494 353.626041,2130.12933 353.714078,2130.19966 C353.708075,2130.58143 353.746091,2131.07975 354.02621,2131.51477 L354.106244,2131.63935 C354.153263,2131.71269 354.19128,2131.76995 354.221292,2131.81717 C354.231296,2132.21603 354.251305,2132.60182 354.375357,2132.93838 C354.446387,2133.13128 354.563437,2133.34527 354.675484,2133.54018 C354.69049,2133.5663 354.705497,2133.59242 354.719503,2133.61653 C354.718502,2133.6306 354.717502,2133.64567 354.716501,2133.66074 C354.700495,2133.95812 354.680486,2134.32884 354.811542,2134.67243 C354.880571,2134.85227 354.975611,2135.20792 354.987616,2135.3315 C354.994619,2135.39981 354.993619,2135.47114 354.994619,2135.5475 C354.99762,2135.78159 355.003623,2136.04079 355.057646,2136.34018 C355.112669,2136.64258 355.141681,2136.84151 355.149684,2137.04144 C355.147684,2137.11679 355.127675,2137.20319 355.112669,2137.28758 C355.078654,2137.47947 355.040638,2137.69748 355.049642,2137.91851 C355.060647,2138.20986 355.141681,2138.42587 355.21071,2138.58159 C355.216713,2138.70818 355.219714,2138.89605 355.219714,2139.01561 C355.124674,2139.37628 355.077654,2139.64252 355.105666,2139.8977 C355.126675,2140.08256 355.176696,2140.22221 355.207709,2140.27445 C355.207709,2140.36588 355.212711,2140.46534 355.218714,2140.5648 C355.219714,2140.58188 355.220714,2140.59795 355.221715,2140.61403 C355.076654,2140.91041 354.970609,2141.30223 355.003623,2141.66893 C355.014627,2141.79451 355.045641,2141.95425 355.076654,2142.10294 L355.098663,2142.1572 C355.098663,2142.20542 355.094661,2142.331 355.082656,2142.43549 C354.964606,2142.66254 354.833551,2142.98303 354.788532,2143.26132 C354.73751,2143.56373 354.794534,2143.81791 354.85556,2143.99775 C354.850558,2144.03592 354.844556,2144.07611 354.836552,2144.11328 C354.650474,2144.38756 354.541427,2144.70403 354.510414,2145.05666 C354.498409,2145.1943 354.511415,2145.4083 354.534425,2145.61727 C354.536425,2145.63636 354.538426,2145.65544 354.540427,2145.67353 C354.497409,2145.77801 354.440385,2145.90862 354.389363,2146.02818 L354.289321,2146.26327 C354.176273,2146.53352 354.154264,2146.83894 354.141258,2147.11824 C353.974188,2147.31616 353.79011,2147.56933 353.703073,2147.81045 C353.609033,2148.06765 353.60103,2148.33991 353.594027,2148.62825 C353.593027,2148.65337 353.593027,2148.67949 353.592026,2148.7036 C353.352925,2149.10748 353.163845,2149.48021 353.180853,2149.88107 C353.181853,2149.9735 353.169848,2150.2317 353.157843,2150.52205 C353.107822,2151.73267 353.108822,2151.86328 353.170848,2152.07727 L353.196859,2152.18577 C353.233875,2152.34351 353.284897,2152.56353 353.362929,2152.81068 C353.466973,2153.14121 354.430381,2155.8307 355.269735,2157.99877 C355.58987,2158.82561 356.660323,2160.92938 357.193548,2161.5141 C357.818812,2162.19928 358.705187,2162.61019 359.903693,2162.77194 L360.374892,2162.83925 C361.416332,2162.99498 362.492787,2163.15472 363.596253,2162.70061 C364.674709,2162.25554 365.688137,2161.80445 366.244372,2161.19863 C366.399438,2161.02985 366.455462,2161.01679 366.786602,2160.93843 C367.006695,2160.88618 367.641963,2160.87815 367.979105,2160.87312 C368.387278,2160.88015 368.798452,2160.91833 369.167608,2160.98464 C369.595788,2161.06099 369.663817,2161.09917 369.726844,2161.17251 C370.251065,2161.78234 371.165452,2162.19124 372.400974,2162.70161 C372.942202,2162.92565 373.477429,2163 374.004651,2163 C374.551883,2163 375.09111,2162.91963 375.621335,2162.84026 L376.092534,2162.77295 C377.29004,2162.61119 378.176414,2162.20029 378.801678,2161.5151 C379.332903,2160.9324 380.403355,2158.82863 380.725491,2158.00078 C381.498818,2156.01154 382.52025,2153.16633 382.633297,2152.81068 C382.712331,2152.56051 382.764353,2152.33848 382.800368,2152.18075 L382.823378,2152.08229 C382.885404,2151.86428 382.886404,2151.73367 382.837384,2150.53109 C382.825378,2150.23773 382.813373,2149.97752 382.814374,2149.89614 C382.831381,2149.49628 382.656307,2149.1346 382.4032,2148.70561 C382.4032,2148.68049 382.4022,2148.65337 382.401199,2148.62624 C382.393196,2148.33991 382.385193,2148.06966 382.292153,2147.81146 C382.204116,2147.56833 382.020038,2147.31415 381.853968,2147.11824 C381.840963,2146.83894 381.818953,2146.53252 381.705905,2146.26427 L381.592858,2145.99904 C381.545838,2145.88752 381.494816,2145.76897 381.454799,2145.67453 C381.4568,2145.65645 381.458801,2145.63836 381.460802,2145.61928 C381.483812,2145.4093 381.496817,2145.1933 381.484812,2145.05465 C381.454799,2144.70503 381.344753,2144.38956 381.159675,2144.11529 C381.152672,2144.08013 381.146669,2144.04095 381.140667,2143.99975 C381.198691,2143.82896 381.258717,2143.57177 381.207695,2143.26534 C381.161676,2142.98605 381.032621,2142.66857 380.913571,2142.4385 C380.902566,2142.34306 380.896564,2142.23857 380.892562,2142.23857 C380.892562,2142.23857 380.892562,2142.23857 380.892562,2142.23958 L380.918573,2142.10596 C380.950586,2141.95526 380.981599,2141.79351 380.992604,2141.66893 C381.025618,2141.30223 380.918573,2140.91041 380.774512,2140.61403 C380.775512,2140.59695 380.776513,2140.58088 380.777513,2140.5638 C380.783516,2140.46534 380.788518,2140.36588 380.789518,2140.3066 C380.819531,2140.22321 380.870553,2140.08357 380.890561,2139.89871 C380.918573,2139.64051 380.869552,2139.37226 380.776513,2139.02364 C380.776513,2138.90409 380.779514,2138.71119 380.785517,2138.5836 C380.845542,2138.44897 380.93458,2138.22594 380.946585,2137.92052 C380.954588,2137.69849 380.916572,2137.48249 380.883558,2137.2926 C380.868552,2137.20821 380.848543,2137.12181 380.846542,2137.0545 C380.853545,2136.84151 380.883558,2136.64258 380.938581,2136.34118 C380.996606,2136.0207 380.999607,2135.74642 381.001608,2135.54649 C381.002608,2135.47014 381.001608,2135.39881 381.008611,2135.3315 C381.020616,2135.20993 381.115656,2134.85428 381.184685,2134.67344 C381.31474,2134.33085 381.295732,2133.96113 381.279725,2133.66375 C381.278725,2133.64767 381.277725,2133.6316 381.276724,2133.61854 C381.29073,2133.59443 381.305736,2133.56831 381.321743,2133.54218 C381.43379,2133.34728 381.55084,2133.13228 381.62187,2132.94039 C381.746923,2132.60483 381.766931,2132.21904 381.775935,2131.81918 C381.804947,2131.77397 381.841963,2131.71771 381.886982,2131.64839 L381.973018,2131.51577 C382.252136,2131.08075 382.290152,2130.58344 382.283149,2130.20167 C382.369186,2130.13235 382.459224,2130.04595 382.541258,2129.93945 C382.681318,2129.75761 383.009456,2129.33364 382.827379,2127.14146 C382.790364,2126.70543 382.643302,2126.34878 382.454222,2126.07651 C382.459224,2123.32172 382.491237,2107.88502 382.496239,2105.09406 C382.683318,2104.90619 382.886404,2104.62187 382.97044,2104.20091 Z M363.266114,2075.13592 L372.802143,2075.13592 L372.802143,2079.59161 L363.266114,2079.59161 L363.266114,2075.13592 Z M358.684178,2094.90976 C359.561549,2093.63182 362.749896,2088.12123 363.640272,2085.90895 C364.216516,2084.47831 364.285545,2082.82664 364.247529,2081.72753 L371.7527,2081.72753 C371.715684,2082.82563 371.784713,2084.47731 372.360957,2085.90795 C373.251333,2088.12123 376.43968,2093.63182 377.317051,2094.90875 C378.139398,2096.10632 379.210851,2098.33667 379.809104,2100.09585 C380.454377,2101.99065 380.757505,2103.15103 380.850544,2103.59309 L355.167692,2103.59309 C355.266734,2103.06765 355.569862,2101.92333 356.191125,2100.09585 C356.791378,2098.33667 357.86183,2096.10732 358.684178,2094.90976 Z M355.668904,2125.42549 C355.6609,2121.73133 355.63589,2109.43422 355.628887,2105.73001 L380.372342,2105.73001 C380.364339,2109.43422 380.339328,2121.73133 380.332325,2125.42549 L355.668904,2125.42549 Z M380.152249,2130.03289 C380.157251,2130.14039 380.160252,2130.35237 380.190265,2130.35538 L380.10723,2130.48398 C379.881134,2130.8326 379.757082,2131.0255 379.694055,2131.30278 C379.661041,2131.44444 379.65804,2131.57304 379.654038,2131.75087 C379.652038,2131.86439 379.645035,2132.12962 379.63303,2132.19292 C379.600016,2132.28233 379.537989,2132.37878 379.485967,2132.4692 C379.358914,2132.68922 379.227858,2132.91728 379.177837,2133.18251 C379.139821,2133.38244 379.149825,2133.57333 379.16083,2133.77627 C379.164832,2133.84861 379.171835,2133.92697 379.170834,2133.99629 C379.06679,2134.29167 378.929732,2134.77893 378.896718,2135.12353 C378.884713,2135.24911 378.881712,2135.37871 378.879711,2135.51937 C378.878711,2135.64796 378.879711,2135.79163 378.850699,2135.95539 C378.78167,2136.33616 378.736651,2136.64058 378.725646,2136.98116 C378.717643,2137.2273 378.75766,2137.45737 378.793675,2137.66132 C378.801678,2137.70452 378.810682,2137.74772 378.816685,2137.78188 C378.768664,2137.88938 378.702636,2138.05916 378.680627,2138.27617 C378.679627,2138.2832 378.624604,2139.10301 378.681628,2139.39035 L378.708639,2139.49885 C378.719644,2139.54105 378.741653,2139.61338 378.75766,2139.68572 C378.715642,2139.81833 378.666621,2140.01424 378.666621,2140.27345 L378.659618,2140.43219 C378.63961,2140.75167 378.613599,2141.18669 378.864705,2141.56243 C378.857702,2141.59458 378.849699,2141.62774 378.843696,2141.66089 C378.808681,2141.82767 378.775667,2141.9854 378.775667,2142.1572 C378.775667,2143.05436 378.984756,2143.35275 379.023772,2143.40399 C379.034777,2143.42408 379.049783,2143.45523 379.06479,2143.48838 C379.01977,2143.63406 378.980754,2143.84202 379.01777,2144.10826 C379.068791,2144.53122 379.134819,2144.93711 379.365917,2145.26162 C379.362915,2145.3008 379.356913,2145.344 379.351911,2145.38619 C379.321898,2145.66147 379.290885,2145.94579 379.39793,2146.2482 C379.429944,2146.33661 379.542992,2146.60385 379.643034,2146.83894 L379.723068,2147.02681 C379.733072,2147.10719 379.734072,2147.20363 379.738074,2147.29004 C379.75308,2147.64569 379.768087,2148.0134 380.090223,2148.33891 C380.138243,2148.38713 380.217276,2148.47655 380.277302,2148.54888 C380.278302,2148.59309 380.279303,2148.64031 380.280303,2148.68552 C380.289307,2148.99596 380.29731,2149.2632 380.430367,2149.53346 C380.451375,2149.57565 380.492393,2149.64698 380.545415,2149.7364 C380.588433,2149.80773 380.65046,2149.90418 380.694478,2149.99359 C380.697479,2150.14831 380.706483,2150.37336 380.715487,2150.61749 C380.731494,2150.99324 380.751502,2151.42122 380.749501,2151.62216 L380.731494,2151.69248 C380.704482,2151.81103 380.666466,2151.97781 380.606441,2152.16468 C380.518404,2152.44498 379.522983,2155.22388 378.745655,2157.22217 C378.40351,2158.10225 377.470116,2159.79913 377.235016,2160.06939 C377.059942,2160.26128 376.7218,2160.53053 375.810414,2160.6531 L375.310203,2160.72544 C374.483854,2160.85001 373.770552,2160.9555 373.211316,2160.72443 C372.638074,2160.48733 371.571623,2160.04729 371.337524,2159.77502 C370.754278,2159.09687 370.02497,2158.96727 369.541766,2158.88087 C369.063564,2158.79547 368.537341,2158.74524 367.922081,2158.7372 C367.277809,2158.74524 366.71257,2158.76031 366.237369,2158.87384 C365.856208,2158.96325 365.279965,2159.09989 364.682713,2159.74991 C364.397592,2160.06035 363.269115,2160.52651 362.786911,2160.72544 C362.228676,2160.95651 361.515374,2160.85102 360.688025,2160.72644 L360.187813,2160.6541 C359.275428,2160.53154 358.937285,2160.26228 358.764212,2160.0724 C358.526111,2159.79813 357.592717,2158.10225 357.252573,2157.22417 C356.426224,2155.09026 355.479824,2152.44699 355.391787,2152.16568 C355.333762,2151.98082 355.295746,2151.81706 355.268735,2151.69851 C355.261732,2151.67038 355.255729,2151.64325 355.249727,2151.61914 C355.248726,2151.41419 355.268735,2150.98419 355.284742,2150.60945 C355.294746,2150.36934 355.302749,2150.14831 355.30575,2149.99359 C355.349769,2149.90418 355.411795,2149.80873 355.454813,2149.7374 C355.507836,2149.64899 355.549854,2149.57565 355.573864,2149.52843 C355.704919,2149.2622 355.711922,2148.99696 355.720926,2148.68954 C355.721926,2148.64332 355.722927,2148.5951 355.723927,2148.55089 C355.783952,2148.47755 355.864987,2148.38713 355.917009,2148.33489 C356.233142,2148.0144 356.249149,2147.64569 356.263155,2147.29004 C356.267157,2147.20363 356.267157,2147.10618 356.278161,2147.02681 L356.344189,2146.87109 C356.448233,2146.62696 356.571285,2146.33761 356.6053,2146.24116 C356.709343,2145.9468 356.67833,2145.66147 356.648318,2145.38519 C356.643316,2145.33998 356.637313,2145.29477 356.633311,2145.26362 C356.865409,2144.93711 356.934439,2144.51213 356.988461,2144.05803 C357.021475,2143.82896 356.982459,2143.63506 356.933438,2143.48537 C356.940441,2143.46628 356.945443,2143.45322 356.945443,2143.45121 C357.021475,2143.34371 357.223561,2143.05537 357.223561,2142.1572 C357.223561,2141.9854 357.190547,2141.82666 357.154532,2141.65989 C357.147529,2141.62372 357.138525,2141.58755 357.131522,2141.55239 C357.383628,2141.16559 357.357617,2140.74464 357.338609,2140.43319 L357.331606,2140.27445 C357.331606,2140.02228 357.286587,2139.83039 357.240568,2139.68773 C357.257575,2139.61539 357.278584,2139.54205 357.289589,2139.49985 L357.3176,2139.38834 C357.375625,2139.11205 357.318601,2138.28421 357.3176,2138.27316 C357.296592,2138.07122 357.236566,2137.90947 357.182543,2137.78389 C357.188546,2137.7437 357.19755,2137.7005 357.204553,2137.6583 C357.239568,2137.45636 357.279584,2137.2283 357.272581,2136.98216 C357.260576,2136.63455 357.215557,2136.33214 357.147529,2135.9574 C357.118516,2135.79364 357.120517,2135.65098 357.118516,2135.52238 C357.117516,2135.38072 357.114515,2135.24911 357.101509,2135.12453 C357.068495,2134.77993 356.931437,2134.29167 356.827393,2133.9973 C356.826393,2133.92798 356.833396,2133.84961 356.837398,2133.77627 C356.848402,2133.57433 356.858406,2133.38445 356.821391,2133.18653 C356.770369,2132.91628 356.639314,2132.68922 356.51226,2132.47021 C356.460238,2132.37878 356.398212,2132.28233 356.374202,2132.22406 C356.352193,2132.13264 356.34619,2131.8664 356.343189,2131.75187 C356.339187,2131.57304 356.336186,2131.44444 356.304172,2131.3058 C356.240145,2131.02449 356.122095,2130.84164 355.886996,2130.47695 L355.84798,2130.43676 C355.827971,2130.3594 355.839976,2130.13838 355.844978,2130.03188 C355.855983,2129.82894 355.865987,2129.63705 355.812965,2129.42607 C355.714923,2129.03425 355.47082,2128.80217 355.253728,2128.65549 C355.241723,2128.3782 355.248726,2127.95222 355.271736,2127.5604 L380.72249,2127.5604 C380.744499,2127.94218 380.750502,2128.37117 380.738497,2128.65348 C380.536411,2128.78911 380.279303,2129.02219 380.17826,2129.42607 C380.13124,2129.63705 380.141244,2129.82894 380.152249,2130.03289 Z" id="4"></path>
        </g>
    </g>
</svg>