<?xml version="1.0" encoding="UTF-8"?>
<svg width="25px" height="90px" viewBox="0 0 25 90" version="1.1" xmlns="http://www.w3.org/2000/svg" xmlns:xlink="http://www.w3.org/1999/xlink">
    <!-- Generator: sketchtool 49.3 (51167) - http://www.bohemiancoding.com/sketch -->
    <title>DA9B7B07-B968-4566-8B38-4EF65CCE90F8</title>
    <desc>Created with sketchtool.</desc>
    <defs></defs>
    <g id="Page-1" stroke="none" stroke-width="1" fill="none" fill-rule="evenodd">
        <g id="AFR_index_2" transform="translate(-262.000000, -2073.000000)" fill="#000000" fill-rule="nonzero">
            <path d="M286.999001,2133.12639 L286.999001,2130.08195 C286.999001,2129.65664 286.78512,2129.33865 286.506276,2129.05979 C286.71516,2128.86117 286.887063,2128.58832 286.887063,2128.20614 L286.887063,2125.1627 C286.887063,2124.6762 286.608219,2124.33012 286.270409,2124.02217 C286.377349,2123.85966 286.457304,2123.66205 286.457304,2123.41729 L286.457304,2122.38911 C286.837091,2122.11325 286.888063,2121.73107 286.888063,2121.5485 L286.888063,2119.52021 C286.888063,2119.37978 286.888063,2118.99157 286.558247,2118.60237 C286.320381,2118.01655 285.579795,2115.71843 285.268969,2114.65613 C285.385904,2114.49764 285.475854,2114.289 285.475854,2114.02117 L285.466859,2113.08928 C285.458863,2112.42722 285.450868,2111.62975 285.450868,2111.50135 C285.450868,2111.44919 285.444871,2111.33083 285.402894,2111.18738 C285.586791,2110.84733 285.814664,2110.38188 286.120493,2109.73588 L286.209443,2109.55031 C286.569241,2108.79697 286.628208,2108.31247 286.628208,2107.44277 L286.628208,2089.39583 L279.76705,2083.001 L279.76705,2081.49433 L280.663548,2081.49433 L280.663548,2074.53175 L279.920964,2073 L269.165987,2073 L268.447389,2074.50667 L268.447389,2081.49534 L269.230951,2081.49534 L269.230951,2083.00201 L262.370792,2089.39683 L262.370792,2107.44478 C262.370792,2108.31447 262.429759,2108.79898 262.789558,2109.55131 L262.878508,2109.73889 C263.185336,2110.38489 263.412209,2110.84933 263.596106,2111.18939 C263.55413,2111.33383 263.548133,2111.4522 263.548133,2111.50336 C263.548133,2111.63076 263.540138,2112.42923 263.532142,2113.09128 L263.523147,2114.02317 C263.523147,2114.289 263.612097,2114.49664 263.730031,2114.65613 C263.418206,2115.71642 262.679619,2118.01254 262.440753,2118.60237 C262.110938,2118.99057 262.110938,2119.37978 262.110938,2119.52122 L262.110938,2121.5495 C262.110938,2121.72906 262.16091,2122.10021 262.541697,2122.38108 L262.541697,2123.4183 C262.541697,2123.66306 262.620652,2123.86067 262.728592,2124.02317 C262.390781,2124.33113 262.111937,2124.6772 262.111937,2125.16371 L262.111937,2128.20714 C262.111937,2128.58933 262.283841,2128.86217 262.491725,2129.06079 C262.212881,2129.33965 262,2129.65764 262,2130.08296 L262,2133.12739 C262,2133.54569 262.204885,2133.83258 262.439754,2134.03521 C262.201887,2134.28197 262,2134.58692 262,2135.00221 L262,2138.04464 C262,2138.46294 262.204885,2138.75083 262.438754,2138.95245 C262.185896,2139.21928 262,2139.52322 262,2139.92045 L262,2142.96389 C262,2143.38218 262.204885,2143.67008 262.439754,2143.87271 C262.189894,2144.13753 262,2144.44648 262,2144.8387 L262,2147.88213 C262,2148.30043 262.205885,2148.58832 262.439754,2148.79095 C262.189894,2149.05577 262,2149.36473 262,2149.75795 L262,2152.80138 C262,2153.21968 262.204885,2153.50757 262.439754,2153.7092 C262.189894,2153.97402 262,2154.28298 262,2154.6762 L262,2158.20614 C262,2160.19631 262.883505,2163 264.845407,2163 L284.152595,2163 C286.116495,2163 287,2160.19731 287,2158.20614 L287,2154.6762 C287,2154.28298 286.810106,2153.97402 286.560246,2153.7092 C286.795115,2153.50657 287,2153.21968 287,2152.80138 L287,2149.75795 C287,2149.36473 286.810106,2149.05577 286.560246,2148.79095 C286.794115,2148.58832 287,2148.30143 287,2147.88213 L287,2144.8387 C287,2144.44548 286.810106,2144.13753 286.560246,2143.87271 C286.795115,2143.67008 287,2143.38218 287,2142.96389 L287,2139.92045 C287,2139.52322 286.813105,2139.21928 286.561246,2138.95245 C286.795115,2138.75083 287,2138.46294 287,2138.04464 L287,2135.00221 C287,2134.60899 286.810106,2134.30003 286.560246,2134.03521 C286.794115,2133.83258 286.999001,2133.54469 286.999001,2133.12639 Z M284.782242,2130.21637 C284.852203,2130.27455 284.92816,2130.33373 284.994123,2130.39091 L284.994123,2132.65694 C284.933157,2132.69205 284.864196,2132.74521 284.798233,2132.78935 L264.207764,2132.78935 C264.138802,2132.7422 264.066843,2132.69305 264.003878,2132.65694 L264.003878,2130.39091 C264.069841,2130.33373 264.145798,2130.27455 264.215759,2130.21637 C264.297713,2130.14716 264.378668,2130.07794 264.456624,2130.00772 L284.541377,2130.00772 C284.618334,2130.07794 284.699288,2130.14615 284.782242,2130.21637 Z M284.781243,2135.13361 C284.851203,2135.1928 284.927161,2135.25198 284.994123,2135.31016 L284.994123,2137.57619 C284.878188,2137.64239 284.745263,2137.72665 284.618334,2137.83198 L283.997681,2137.83198 L283.997681,2137.84502 L265.00032,2137.84502 L265.00032,2137.83198 L264.379667,2137.83198 C264.252738,2137.72665 264.119813,2137.64339 264.003878,2137.57619 L264.003878,2135.31718 C264.027864,2135.29612 264.054849,2135.27405 264.079835,2135.25198 C264.224754,2135.12659 264.386663,2134.97613 264.530583,2134.80259 L284.415447,2134.80259 C284.530383,2134.91594 284.651315,2135.02528 284.781243,2135.13361 Z M284.782242,2140.05286 C284.852203,2140.11104 284.92816,2140.17023 284.994123,2140.22841 L284.994123,2142.49443 C284.961142,2142.51349 284.924162,2142.54459 284.890181,2142.56565 L264.108819,2142.56565 C264.074838,2142.54459 264.037859,2142.51349 264.004877,2142.49443 L264.004877,2140.22841 C264.07084,2140.17023 264.146798,2140.11104 264.216759,2140.05286 C264.293716,2139.98766 264.368674,2139.92246 264.443632,2139.85625 L284.557368,2139.85625 C284.630327,2139.92246 284.704286,2139.98766 284.782242,2140.05286 Z M284.781243,2144.97011 C284.851203,2145.02929 284.927161,2145.08847 284.994123,2145.14665 L284.994123,2147.41368 C284.950148,2147.43876 284.900176,2147.47989 284.852203,2147.50998 L264.145798,2147.50998 C264.097825,2147.47989 264.047853,2147.43976 264.003878,2147.41368 L264.003878,2145.14665 C264.069841,2145.08847 264.146798,2145.02929 264.216759,2144.97011 C264.368674,2144.84271 264.512593,2144.71431 264.638522,2144.57789 L284.359479,2144.57789 C284.486408,2144.71431 284.629328,2144.84271 284.781243,2144.97011 Z M284.781243,2149.89036 C284.851203,2149.94954 284.927161,2150.00873 284.994123,2150.06691 L284.994123,2152.33293 C284.906173,2152.38409 284.806229,2152.45531 284.706284,2152.52754 L264.289718,2152.52754 C264.191773,2152.45431 264.091829,2152.38309 264.003878,2152.33293 L264.003878,2150.06691 C264.069841,2150.00873 264.146798,2149.94954 264.216759,2149.89036 C264.360678,2149.76999 264.493604,2149.64861 264.615535,2149.52222 L284.381466,2149.52222 C284.504398,2149.64861 284.638323,2149.76999 284.781243,2149.89036 Z M264.48161,2127.99448 C264.35668,2127.89217 264.230751,2127.80389 264.116815,2127.73869 L264.116815,2125.47166 C264.182778,2125.41348 264.258735,2125.3543 264.329695,2125.29511 C264.412649,2125.2259 264.491605,2125.15769 264.568562,2125.08747 L284.42844,2125.08747 C284.506396,2125.15769 284.586352,2125.2259 284.669305,2125.29612 C284.739266,2125.3553 284.815223,2125.41448 284.881187,2125.47267 L284.881187,2127.73869 C284.769249,2127.80389 284.64232,2127.89317 284.51739,2127.99448 L264.48161,2127.99448 Z M284.451427,2123.02207 C284.432438,2123.03812 284.414448,2123.05918 284.395459,2123.07624 L264.600544,2123.07624 C264.582554,2123.05918 264.564564,2123.03912 264.546574,2123.02307 L264.546574,2122.86358 L284.451427,2122.86358 L284.451427,2123.02207 Z M264.115815,2120.85134 L264.115815,2120.35982 L284.880187,2120.35982 L284.880187,2120.85134 L264.115815,2120.85134 Z M264.649516,2118.34758 C264.986328,2117.37055 265.337131,2116.1618 265.574998,2115.31016 L283.425002,2115.31016 C283.66087,2116.1628 284.012673,2117.37155 284.347485,2118.34758 L264.649516,2118.34758 Z M284.622331,2090.84131 L284.622331,2107.44478 C284.622331,2107.48089 284.620333,2107.50095 284.620333,2107.53406 L264.377669,2107.53406 C264.377669,2107.50095 264.37567,2107.48089 264.37567,2107.44478 L264.37567,2090.84131 L284.622331,2090.84131 Z M265.53502,2113.29792 L265.537019,2113.11135 C265.540018,2112.85856 265.543016,2112.59073 265.545015,2112.34196 L283.452986,2112.34196 C283.454985,2112.59173 283.457984,2112.85656 283.460982,2113.11135 L283.462981,2113.29792 L265.53502,2113.29792 Z M283.985688,2109.54629 C283.841769,2109.8372 283.69685,2110.12308 283.580915,2110.33073 L265.416087,2110.33073 C265.300152,2110.12208 265.154234,2109.83619 265.012313,2109.54629 L283.985688,2109.54629 Z M270.453266,2075.01224 L278.656672,2075.01224 L278.656672,2079.4841 L270.453266,2079.4841 L270.453266,2075.01224 Z M271.235828,2083.87872 L271.235828,2081.49534 L277.760174,2081.49534 L277.760174,2083.87872 L283.070201,2088.82807 L265.925802,2088.82807 L271.235828,2083.87872 Z M284.994123,2158.20614 C284.994123,2159.70178 284.376469,2160.87742 284.151595,2160.98776 L264.891381,2160.99579 C264.620533,2160.87742 264.002878,2159.70077 264.002878,2158.20614 L264.002878,2154.98415 C264.068841,2154.92597 264.145798,2154.86679 264.216759,2154.8076 C264.322699,2154.71933 264.425642,2154.63106 264.522587,2154.53977 L284.474414,2154.53977 C284.57136,2154.63005 284.673303,2154.71833 284.780243,2154.8076 C284.851203,2154.86779 284.927161,2154.92697 284.994123,2154.98415 L284.994123,2158.20614 Z" id="3"></path>
        </g>
    </g>
</svg>