<?xml version="1.0" encoding="UTF-8"?>
<svg width="33px" height="96px" viewBox="0 0 33 96" version="1.1" xmlns="http://www.w3.org/2000/svg" xmlns:xlink="http://www.w3.org/1999/xlink">
    <!-- Generator: sketchtool 49.3 (51167) - http://www.bohemiancoding.com/sketch -->
    <title>8EFEDC19-EF62-46DD-A023-22294520D441</title>
    <desc>Created with sketchtool.</desc>
    <defs></defs>
    <g id="Page-1" stroke="none" stroke-width="1" fill="none" fill-rule="evenodd">
        <g id="AFR_index_2" transform="translate(-1161.000000, -2067.000000)" fill="#000000" fill-rule="nonzero">
            <path d="M1182.44386,2084.03476 L1182.44386,2077.31032 C1183.23149,2076.93033 1183.78622,2076.04288 1183.78622,2075.00992 L1183.78622,2069.49761 C1183.78622,2068.11954 1182.79956,2067 1181.58742,2067 L1173.59679,2067 C1172.38358,2067 1171.39799,2068.12074 1171.39799,2069.49761 L1171.39799,2075.00992 C1171.39799,2075.9587 1171.8712,2076.774 1172.5572,2077.19729 L1172.55932,2084.11052 C1172.56461,2084.20071 1173.01983,2093.21953 1168.93558,2100.41896 C1165.0112,2107.337 1161,2116.87291 1161,2135.14145 L1161,2158.89704 C1161,2161.16016 1162.62078,2163 1164.61209,2163 L1190.38791,2163 C1192.37922,2163 1194,2161.16016 1194,2158.89704 L1194,2135.14145 C1194,2116.87291 1189.9888,2107.33821 1186.06548,2100.41896 C1181.995,2093.24238 1182.43645,2084.20071 1182.44386,2084.03476 Z M1173.51421,2069.49761 C1173.51421,2069.44591 1173.55126,2069.40502 1173.59573,2069.40502 L1181.58636,2069.40502 C1181.63082,2069.40502 1181.66788,2069.44591 1181.66788,2069.49761 L1181.66788,2075.00992 C1181.66788,2075.06163 1181.63082,2075.10251 1181.58636,2075.10251 L1173.59573,2075.10251 C1173.55126,2075.10251 1173.51421,2075.06163 1173.51421,2075.00992 L1173.51421,2069.49761 Z M1170.71516,2101.72248 C1175.17205,2093.86408 1174.69354,2084.35944 1174.67342,2084.03476 L1174.67342,2077.50753 L1180.32658,2077.50753 L1180.32869,2083.9578 C1180.30646,2084.35824 1179.82795,2093.86288 1184.2859,2101.72128 C1187.40889,2107.22637 1190.58164,2114.49675 1191.56618,2126.92229 C1184.86392,2126.85374 1181.47097,2125.84965 1177.89593,2124.78663 C1174.3823,2123.74165 1170.74586,2122.6654 1163.89115,2122.57521 C1165.19752,2112.74469 1167.97539,2106.55297 1170.71516,2101.72248 Z M1191.88272,2158.89704 C1191.88272,2159.83259 1191.21259,2160.59498 1190.38791,2160.59498 L1164.61209,2160.59498 C1163.78741,2160.59498 1163.11728,2159.83259 1163.11728,2158.89704 L1163.11728,2135.14145 C1163.11728,2131.37999 1163.30043,2128.02619 1163.61167,2124.97903 C1170.36475,2125.04156 1173.77146,2126.04806 1177.36026,2127.11469 C1180.93529,2128.17771 1184.63843,2129.2732 1191.72921,2129.32971 C1191.82661,2131.16234 1191.88377,2133.08876 1191.88377,2135.14145 L1191.88377,2158.89704 L1191.88272,2158.89704 Z" id="12"></path>
        </g>
    </g>
</svg>