<svg xmlns="http://www.w3.org/2000/svg" width="95" height="24" viewBox="0 0 95 24">
    <g fill="none" fill-rule="nonzero">
        <path fill="#1D1A1A" d="M21.843 18.693h-4.174v.517h1.848v3.797h.495V19.21h1.831zM26.492 18.693h-3.599v4.314h3.599v-.513h-3.107v-1.462h2.98v-.515h-2.98V19.21h3.107zM29.839 18.685c-.667 0-1.171.031-1.515.088-.36.067-.577.277-.664.648-.07.308-.109.806-.109 1.498 0 .723.049 1.22.14 1.492a.74.74 0 0 0 .559.506c.287.067.843.101 1.662.101.635 0 1.075-.029 1.325-.09.303-.073.483-.27.544-.59.028-.15.046-.421.06-.81h-.472c-.009.345-.028.558-.053.635l-.133.194a.837.837 0 0 1-.306.097 5.3 5.3 0 0 1-.487.033c-.256.01-.46.017-.618.017-.519 0-.913-.017-1.19-.05-.155-.015-.267-.062-.337-.139-.072-.071-.117-.194-.135-.36a8.129 8.129 0 0 1-.04-.579 18.78 18.78 0 0 1-.018-.685c0-.377.016-.668.05-.88.033-.208.086-.349.154-.416.074-.07.231-.113.472-.152.242-.029.604-.042 1.09-.042.665 0 1.084.042 1.265.13a.351.351 0 0 1 .2.202c.033.086.05.234.05.441l.003.148h.455a5.157 5.157 0 0 0-.043-.748.768.768 0 0 0-.189-.368.781.781 0 0 0-.357-.21c-.275-.071-.727-.111-1.363-.111M37.379 18.693h-.489v1.824h-3.379v-1.824h-.494v4.314h.494v-1.975h3.379v1.975h.489zM43.351 18.693h-.495v3.78h-.111l-3.217-3.78h-.818v4.314h.49v-3.765h.11l3.209 3.765h.832zM46.97 22.51c-.416 0-.778-.008-1.093-.033a2.15 2.15 0 0 1-.418-.065l-.202-.13c-.058-.073-.101-.22-.12-.441a10.573 10.573 0 0 1-.033-1.045c0-.46.018-.815.061-1.06.026-.152.067-.256.13-.318.064-.07.161-.117.306-.147.235-.048.611-.071 1.126-.071.504.002.845.009 1.022.013.18.01.335.022.478.048.24.047.381.185.416.423.037.233.056.635.056 1.2 0 .47-.023.833-.065 1.106-.037.248-.166.395-.376.437-.269.058-.697.084-1.288.084m.038-3.826c-.766.002-1.306.031-1.622.088-.346.061-.566.265-.664.604-.081.289-.12.778-.12 1.464 0 .582.016.99.058 1.237.032.245.106.43.217.567.082.108.175.18.28.23.108.05.252.081.434.107.109.009.328.015.663.027.335.01.642.015.919.015.562 0 .968-.023 1.211-.071.247-.049.426-.143.531-.275.103-.13.177-.326.221-.6.042-.275.062-.678.062-1.208 0-.416-.012-.758-.04-1.029a2.76 2.76 0 0 0-.088-.502.897.897 0 0 0-.17-.309c-.121-.137-.308-.23-.565-.275-.257-.047-.698-.07-1.327-.07M50.943 18.693h-.491v4.314h3.385v-.513h-2.894zM57.188 22.51c-.413 0-.771-.008-1.09-.033a2.124 2.124 0 0 1-.417-.065l-.205-.13c-.056-.073-.098-.22-.117-.441a11.16 11.16 0 0 1-.034-1.045c0-.46.021-.815.061-1.06.025-.152.067-.256.13-.318.062-.07.165-.117.303-.147.241-.048.617-.071 1.129-.071.505.002.847.009 1.021.013.179.01.339.022.481.048.241.047.379.185.417.423.032.233.051.635.051 1.2 0 .47-.02.833-.06 1.106-.042.248-.165.395-.379.437-.268.058-.697.084-1.291.084m.041-3.826c-.764.002-1.304.031-1.618.088-.349.061-.568.265-.668.604-.073.289-.12.778-.12 1.464 0 .582.02.99.057 1.237.038.245.108.43.219.567.085.108.174.18.28.23.109.05.254.081.437.107.104.009.325.015.662.027.337.01.639.015.917.015.562 0 .965-.023 1.213-.071.243-.049.422-.143.529-.275.103-.13.179-.326.219-.6a8.86 8.86 0 0 0 .066-1.208c0-.416-.015-.758-.042-1.029a2.49 2.49 0 0 0-.091-.502.871.871 0 0 0-.165-.309c-.12-.137-.308-.23-.564-.275-.26-.047-.702-.07-1.331-.07M62.756 18.674c-.773 0-1.288.05-1.551.152-.267.092-.43.306-.501.626-.074.332-.112.798-.112 1.397 0 .866.065 1.42.203 1.673.121.222.314.359.588.407.308.06.833.086 1.579.086.791 0 1.302-.042 1.526-.126a.83.83 0 0 0 .372-.264c.082-.112.141-.276.18-.498.031-.204.053-.64.057-1.298h-2.41v.51h1.912c-.001.446-.032.73-.084.858-.049.126-.178.207-.37.244-.215.042-.547.063-.996.063-.812 0-1.337-.022-1.576-.063a.526.526 0 0 1-.276-.126.558.558 0 0 1-.136-.265c-.042-.205-.067-.632-.067-1.28 0-.43.015-.748.04-.95.025-.196.075-.338.14-.412.075-.082.227-.14.45-.17.229-.034.598-.049 1.116-.049.391 0 .721.013.981.034.191.015.331.035.423.063l.203.122c.07.083.112.298.117.632h.506a2.734 2.734 0 0 0-.059-.597.941.941 0 0 0-.185-.376.967.967 0 0 0-.574-.318c-.115-.013-.33-.033-.646-.048a14.815 14.815 0 0 0-.85-.027M66.331 18.693h1v4.313h-1zM71.747 18.693h-3.603v4.314h3.603v-.513h-3.112v-1.462h2.976v-.515h-2.976V19.21h3.112zM74.952 18.685a8.06 8.06 0 0 0-1.161.07c-.196.023-.35.062-.46.106a1.019 1.019 0 0 0-.3.198c-.185.174-.275.456-.275.847 0 .352.061.62.176.791a.817.817 0 0 0 .42.32c.184.059.429.099.734.099.907 0 1.442 0 1.61.006.165.007.291.03.387.067l.189.198c.039.094.059.237.059.42 0 .368-.116.584-.351.644-.24.06-.635.096-1.181.096-.757 0-1.2-.037-1.34-.107l-.168-.192c-.028-.086-.042-.251-.047-.5l-.002-.097h-.478c0 .12-.003.181-.003.2 0 .278.027.486.074.629.058.138.15.253.29.348.113.078.261.126.457.16.192.026.494.037.901.037.77 0 1.303-.031 1.6-.105.293-.067.497-.217.607-.425.093-.183.141-.428.141-.746 0-.326-.057-.58-.171-.756a.75.75 0 0 0-.343-.296c-.143-.057-.343-.086-.604-.086-.645-.004-1.04-.004-1.204-.008-.476 0-.799-.038-.962-.104-.115-.042-.195-.103-.232-.182-.041-.082-.062-.225-.062-.417 0-.218.038-.368.12-.462.079-.1.246-.164.484-.208.236-.044.593-.061 1.072-.061.382 0 .672.025.862.066.193.053.318.135.376.238.041.073.062.216.062.426v.064h.491a2.698 2.698 0 0 0-.062-.61.79.79 0 0 0-.22-.343 1.1 1.1 0 0 0-.527-.252c-.224-.05-.544-.073-.959-.073M92.668 18.685c-.666 0-1.171.031-1.518.088-.356.067-.578.277-.664.648-.072.308-.106.806-.106 1.498 0 .723.047 1.22.145 1.492a.729.729 0 0 0 .553.506c.288.067.843.101 1.663.101.635 0 1.076-.029 1.319-.09.309-.073.487-.27.552-.59.023-.15.046-.421.057-.81h-.476c-.011.345-.025.558-.046.635l-.137.194a.838.838 0 0 1-.303.097 15.797 15.797 0 0 1-1.109.05c-.518 0-.914-.017-1.193-.05-.148-.015-.262-.062-.333-.139-.069-.071-.115-.194-.134-.36a6.308 6.308 0 0 1-.036-.579c-.015-.28-.021-.51-.021-.685 0-.377.015-.668.047-.88.034-.208.086-.349.155-.416.073-.07.233-.113.475-.152.243-.029.604-.042 1.086-.042.668 0 1.088.042 1.27.13a.355.355 0 0 1 .199.202c.035.086.051.234.051.441l.001.148h.456c-.005-.372-.016-.622-.043-.748a.763.763 0 0 0-.191-.368.804.804 0 0 0-.354-.21c-.276-.071-.732-.111-1.365-.111M33.676.183H18.275v15.832h15.48v-3.801H22.456V9.669h10.656V6.185H22.456V3.888h11.22zM51.778.183H34.937v4.052h6.184v11.78h4.447V4.235h6.21z"/>
        <path fill="#D57C19" d="M55.944 9.888l2.681-6.03h.844l2.681 6.03h-6.206zM62.365.183h-6.58l-7.384 15.831h4.841l1.193-2.672h9.202l1.194 2.672h4.808L62.365.183zM71.077.183h4.444v15.831h-4.444zM81.757 8.036V4.141h5.933c.976.01 1.564.02 1.771.038.21.013.388.056.535.128.21.12.359.307.444.563.083.252.124.64.124 1.157 0 .524-.04.92-.11 1.175-.077.26-.204.458-.388.593a1.084 1.084 0 0 1-.512.175c-.199.019-.818.04-1.852.066h-5.945M87.742.183H77.497v15.831h4.26v-4.02h5.952c.873 0 1.449.024 1.726.077.272.05.488.168.643.353.157.207.263.498.321.87.059.374.087 1.004.087 1.889v.831h4.175v-1.466c0-1.372-.028-2.269-.09-2.7-.061-.43-.203-.792-.428-1.088-.39-.507-1.022-.802-1.914-.873.755-.134 1.32-.38 1.693-.726.349-.323.588-.75.713-1.296.122-.542.185-1.384.185-2.543 0-1.367-.096-2.373-.295-3.014A2.727 2.727 0 0 0 93.438.802c-.442-.31-.9-.485-1.374-.538-.48-.045-1.919-.074-4.322-.081"/>
        <path fill="#1D1A1A" d="M15.555.183h-4.256v9.355c0 .69-.028 1.169-.079 1.426-.051.263-.155.47-.309.617-.369.36-1.307.54-2.815.54-1.433 0-2.311-.18-2.626-.526-.146-.161-.239-.387-.284-.684-.043-.298-.065-.88-.065-1.743H.881a68.185 68.185 0 0 0-.025 1.66c0 1.008.058 1.806.171 2.395.26 1.39 1.025 2.259 2.297 2.61 1.045.285 2.744.43 5.089.43 1.947 0 3.358-.106 4.237-.326.873-.223 1.541-.629 1.995-1.228.354-.474.593-1.056.722-1.76.125-.706.189-1.807.189-3.308V.183M86.728 18.693h-.493v4.312h3.388v-.516h-2.895zM82.164 18.691h-.494v4.311h3.389v-.513h-2.895z"/>
    </g>
</svg>
