<svg xmlns="http://www.w3.org/2000/svg" width="120" height="40" viewBox="0 0 120 40">
    <g fill="none" fill-rule="evenodd">
        <path fill="#000" d="M56.758.015C62.726.372 67.463 5.7 67.463 12.222c0 5.813-3.765 10.68-8.81 11.92l4.93 15.097h-8.295l-6.93-21.228h8.06v-.006c2.829-.167 5.075-2.693 5.075-5.783 0-3.09-2.246-5.616-5.075-5.783v-.006h-11.25L43.117 0h13.638l.004.015zM12.33 24.444H2.21L0 18.011h10.184L4.18 0h8.41l13.083 39.239h-8.41L12.33 24.444z"/>
        <path fill="#FEC151" d="M34.03 6.433V18.01h8.507l2.24 6.433H34.03v14.795h-8.358V0h17.536l2.165 6.433H34.03z"/>
        <path fill="#000" d="M77.25 8.362V1.627h3.816v.714h-3.063V4.6h2.884v.714h-2.884v2.335h3.063v.714H77.25zm8.105-.81h-.036c-.28.617-.73.926-1.352.926a1.65 1.65 0 0 1-.779-.183 1.724 1.724 0 0 1-.595-.521 2.466 2.466 0 0 1-.377-.82 4.16 4.16 0 0 1-.13-1.081c0-.399.044-.76.13-1.08.087-.322.212-.596.377-.82.164-.226.362-.4.595-.522a1.65 1.65 0 0 1 .78-.183c.322 0 .598.075.828.227.23.15.404.384.523.7h.036v-.811h.717v6.908h-.717v-2.74zm-1.19.231c.16 0 .314-.022.46-.067.147-.045.274-.111.381-.198a.95.95 0 0 0 .255-.318.948.948 0 0 0 .094-.43V4.918a.806.806 0 0 0-.094-.381.931.931 0 0 0-.255-.304 1.252 1.252 0 0 0-.38-.198 1.463 1.463 0 0 0-.462-.073c-.406 0-.725.137-.958.41-.233.274-.35.633-.35 1.076v.85c0 .443.117.802.35 1.075.233.274.552.41.958.41zm6.277-.231h-.036c-.048.116-.106.23-.175.342a1.163 1.163 0 0 1-.622.507c-.143.051-.31.077-.502.077-.477 0-.856-.165-1.137-.497-.28-.331-.42-.799-.42-1.404V3.384h.716v3.058c0 .894.352 1.341 1.056 1.341a1.5 1.5 0 0 0 .417-.057c.134-.039.254-.097.358-.174a.857.857 0 0 0 .25-.294.91.91 0 0 0 .095-.43V3.384h.716v4.978h-.716v-.81zm2.597-5.336c-.155 0-.267-.04-.336-.12a.466.466 0 0 1-.103-.314v-.126c0-.128.034-.233.103-.313.069-.08.18-.12.336-.12.155 0 .267.04.336.12.068.08.103.185.103.313v.126a.466.466 0 0 1-.103.313c-.069.08-.181.121-.336.121zm-.358 1.168h.716v4.978h-.716V3.384zm2.238 0h.717v.81h.036c.119-.315.294-.548.524-.7.23-.15.505-.226.828-.226.286 0 .546.06.779.183.233.122.431.296.596.521.164.225.29.499.376.82.086.322.13.682.13 1.081 0 .399-.044.759-.13 1.08a2.466 2.466 0 0 1-.376.82 1.724 1.724 0 0 1-.596.522 1.65 1.65 0 0 1-.78.183c-.626 0-1.077-.309-1.351-.926h-.036v2.74h-.717V3.384zm1.908 4.4c.406 0 .725-.137.958-.41.233-.274.35-.633.35-1.076v-.85c0-.443-.117-.802-.35-1.075-.233-.274-.552-.41-.958-.41-.161 0-.315.024-.461.072a1.252 1.252 0 0 0-.38.198.931.931 0 0 0-.256.304.806.806 0 0 0-.094.38V6.77c0 .161.031.304.094.43a.95.95 0 0 0 .255.318c.108.087.234.153.38.198.147.045.3.067.462.067zm3.286.578V3.384h.717v.81h.036c.053-.129.115-.25.183-.362a1.128 1.128 0 0 1 .596-.492 1.35 1.35 0 0 1 .465-.072c.305 0 .586.079.842.236.257.158.448.417.573.777h.018c.084-.27.24-.507.47-.71.23-.202.542-.303.936-.303.472 0 .84.165 1.106.497.266.331.399.799.399 1.404v3.193h-.717V5.304c0-.444-.08-.779-.241-1.004-.162-.225-.418-.338-.77-.338-.144 0-.28.02-.408.058a1.076 1.076 0 0 0-.345.174.833.833 0 0 0-.242.294.925.925 0 0 0-.09.42v3.454h-.716V5.304c0-.444-.08-.779-.241-1.004-.162-.225-.412-.338-.753-.338-.143 0-.28.02-.412.058a1.068 1.068 0 0 0-.349.174.878.878 0 0 0-.246.294.888.888 0 0 0-.094.42v3.454h-.717zm9.556.116c-.317 0-.602-.06-.856-.183a1.862 1.862 0 0 1-.653-.526 2.472 2.472 0 0 1-.421-.82 3.635 3.635 0 0 1-.148-1.076c0-.392.05-.75.148-1.071.098-.322.239-.597.42-.825.183-.228.4-.404.654-.526s.54-.183.856-.183c.31 0 .588.06.832.183.245.122.454.291.627.507.173.215.306.47.399.767.092.296.139.62.139.974v.367h-3.323v.232c0 .212.032.41.094.593.063.183.153.342.269.478.116.135.26.24.43.318.17.077.363.116.577.116.293 0 .548-.074.766-.222a1.43 1.43 0 0 0 .506-.637l.51.396a1.87 1.87 0 0 1-.698.825c-.316.209-.693.313-1.128.313zm0-4.564a1.21 1.21 0 0 0-.954.425 1.496 1.496 0 0 0-.273.477 1.777 1.777 0 0 0-.099.603v.068h2.553v-.106c0-.444-.112-.8-.336-1.066-.224-.267-.521-.4-.891-.4zm3.179 4.448V3.384h.716v.81h.036c.113-.283.273-.508.48-.675.205-.168.481-.251.827-.251.478 0 .856.165 1.133.497.278.331.417.799.417 1.404v3.193h-.717V5.304c0-.894-.349-1.342-1.047-1.342a1.5 1.5 0 0 0-.417.058 1.17 1.17 0 0 0-.363.174.838.838 0 0 0-.349.714v3.454h-.716zm6.107 0c-.25 0-.44-.075-.568-.226-.129-.152-.193-.35-.193-.594V4.06h-.761v-.675h.43c.155 0 .26-.034.318-.102.056-.067.085-.185.085-.352v-.926h.644v1.38h1.012v.675h-1.012v3.628h.94v.675h-.895zM80.797 18.507c-.066.083-.15.178-.25.284a1.859 1.859 0 0 1-.372.295c-.147.09-.32.167-.52.231s-.425.097-.676.097c-.31 0-.585-.049-.824-.145a1.677 1.677 0 0 1-.967-.994 2.063 2.063 0 0 1-.125-.724c0-.25.036-.472.107-.665a1.82 1.82 0 0 1 .291-.517c.123-.15.26-.284.412-.4.152-.116.31-.222.47-.318a3.59 3.59 0 0 1-.515-.748 1.824 1.824 0 0 1-.192-.835c0-.225.039-.437.116-.637.078-.2.187-.371.327-.516.14-.145.31-.259.51-.342.2-.084.423-.126.668-.126.22 0 .424.036.609.106a1.327 1.327 0 0 1 .784.753c.074.18.111.376.111.588 0 .226-.037.427-.112.604-.074.176-.177.339-.309.487a2.819 2.819 0 0 1-.456.41 6.933 6.933 0 0 1-.556.362l1.406 1.63c.09-.244.159-.505.206-.781.048-.277.078-.56.09-.85h1.218v.657h-.636a6.04 6.04 0 0 1-.17.796 4.489 4.489 0 0 1-.26.69l1.218 1.399h-.931l-.672-.791zm-1.576-5.413a.83.83 0 0 0-.631.26.905.905 0 0 0-.247.647v.115c0 .193.056.388.166.584.11.196.255.404.434.623.144-.084.282-.173.417-.266.134-.093.253-.194.358-.304.104-.11.19-.223.255-.342a.777.777 0 0 0 .099-.381v-.116c0-.264-.085-.467-.256-.608a.903.903 0 0 0-.595-.212zm-.18 5.644c.305 0 .568-.062.789-.188.22-.125.409-.294.564-.506l-1.675-1.95c-.119.071-.234.145-.344.222a1.326 1.326 0 0 0-.493.642c-.05.138-.076.3-.076.487v.145c0 .354.112.634.336.84.224.205.524.308.9.308zm8.293.676c-.507 0-.94-.105-1.298-.314a2.83 2.83 0 0 1-.914-.864l.556-.501c.22.315.465.555.734.719.269.164.585.246.95.246.447 0 .789-.116 1.025-.348.235-.231.353-.54.353-.926 0-.322-.09-.57-.268-.743-.18-.174-.475-.312-.887-.415l-.51-.125c-.574-.142-1.01-.356-1.312-.642-.302-.286-.453-.69-.453-1.21 0-.297.051-.56.153-.792.101-.232.243-.425.425-.58.182-.153.4-.27.654-.351.254-.08.533-.12.837-.12.472 0 .876.092 1.214.279.337.186.622.46.855.82l-.564.444a2.003 2.003 0 0 0-.627-.608c-.245-.148-.55-.222-.914-.222-.4 0-.715.092-.944.275-.23.183-.345.458-.345.825 0 .322.097.565.29.729.195.164.489.294.883.39l.51.126c.615.148 1.06.373 1.335.675.274.303.412.705.412 1.206 0 .31-.05.589-.148.84-.099.25-.24.463-.426.637-.185.173-.41.308-.676.405a2.624 2.624 0 0 1-.9.145zm5.114 0c-.317 0-.602-.061-.855-.184a1.862 1.862 0 0 1-.654-.526 2.472 2.472 0 0 1-.421-.82 3.635 3.635 0 0 1-.148-1.076c0-.392.05-.749.148-1.07.098-.322.239-.597.42-.826.183-.228.4-.403.655-.525.253-.123.538-.184.855-.184.31 0 .588.061.833.184.244.122.453.29.626.506.174.216.306.471.399.767.093.296.139.621.139.975V17h-3.323v.232c0 .212.032.41.094.593.063.184.153.343.27.478.115.135.259.241.429.318.17.078.363.116.578.116.292 0 .547-.074.765-.222a1.43 1.43 0 0 0 .506-.637l.51.396a1.87 1.87 0 0 1-.698.825c-.316.21-.692.314-1.128.314zm0-4.564a1.21 1.21 0 0 0-.954.425 1.496 1.496 0 0 0-.273.477 1.777 1.777 0 0 0-.099.603v.067h2.553v-.106c0-.444-.112-.799-.336-1.066-.224-.267-.521-.4-.891-.4zm3.179 4.448v-4.979h.716v.917h.045c.084-.238.233-.45.448-.637s.51-.28.886-.28H98v.772h-.42c-.389 0-.692.079-.91.236-.218.158-.327.356-.327.594v3.377h-.716zm4.307 0l-1.62-4.979h.716l.806 2.47.501 1.698h.045l.502-1.698.823-2.47h.69l-1.63 4.979h-.833zm3.744-6.147c-.156 0-.268-.04-.336-.12a.466.466 0 0 1-.103-.314v-.125c0-.129.034-.233.103-.314.068-.08.18-.12.336-.12.155 0 .267.04.335.12.07.08.103.185.103.314v.125a.466.466 0 0 1-.103.314c-.068.08-.18.12-.335.12zm-.359 1.168h.717v4.979h-.717v-4.979zm3.959 5.095c-.323 0-.612-.061-.869-.184a1.792 1.792 0 0 1-.65-.52 2.386 2.386 0 0 1-.402-.82 3.906 3.906 0 0 1-.14-1.082c0-.398.047-.759.14-1.08.092-.322.227-.595.403-.82.176-.226.392-.4.649-.521.257-.123.546-.184.869-.184.46 0 .828.108 1.106.323.277.216.485.497.622.845l-.6.328a1.168 1.168 0 0 0-.412-.598c-.191-.142-.43-.213-.716-.213a1.34 1.34 0 0 0-.565.111 1.107 1.107 0 0 0-.403.309c-.107.132-.188.29-.241.473-.054.183-.08.384-.08.603v.849c0 .437.108.796.326 1.076.218.28.539.42.963.42.579 0 .997-.29 1.253-.869l.52.376c-.15.36-.372.647-.667.86-.296.212-.665.318-1.106.318zm4.522 0c-.316 0-.601-.061-.855-.184a1.862 1.862 0 0 1-.654-.526 2.472 2.472 0 0 1-.42-.82 3.635 3.635 0 0 1-.149-1.076c0-.392.05-.749.148-1.07.099-.322.239-.597.421-.826.182-.228.4-.403.654-.525.254-.123.539-.184.855-.184.31 0 .588.061.833.184.245.122.454.29.627.506.173.216.306.471.398.767.093.296.139.621.139.975V17h-3.322v.232c0 .212.031.41.094.593.062.184.152.343.268.478.117.135.26.241.43.318.17.078.363.116.578.116.292 0 .548-.074.765-.222a1.43 1.43 0 0 0 .506-.637l.51.396a1.87 1.87 0 0 1-.698.825c-.316.21-.692.314-1.128.314zm0-4.564a1.21 1.21 0 0 0-.954.425 1.496 1.496 0 0 0-.273.477 1.777 1.777 0 0 0-.098.603v.067h2.552v-.106c0-.444-.112-.799-.336-1.066-.224-.267-.52-.4-.891-.4z"/>
    </g>
</svg>
