<?xml version="1.0" encoding="UTF-8"?>
<svg width="177px" height="60px" viewBox="0 0 177 60" version="1.1" xmlns="http://www.w3.org/2000/svg" xmlns:xlink="http://www.w3.org/1999/xlink">
    <!-- Generator: sketchtool 49.3 (51167) - http://www.bohemiancoding.com/sketch -->
    <title>7241C884-BC74-4634-B46E-C452F6E334D8</title>
    <desc>Created with sketchtool.</desc>
    <defs></defs>
    <g id="Page-1" stroke="none" stroke-width="1" fill="none" fill-rule="evenodd">
        <g id="AFR_services" transform="translate(-191.000000, -1465.000000)" fill-rule="nonzero">
            <g id="2-copy" transform="translate(191.000000, 1465.000000)">
                <path d="M0.385321101,40.6788991 L0.385321101,0.550458716 L13.5963303,15.0825688 L23.7247706,3.57798165 L26.4770642,0.440366972 L26.4770642,40.6788991 L0.385321101,40.6788991 Z M3.57798165,37.4862385 L23.3394495,37.4862385 L23.3394495,8.80733945 L13.5963303,19.8165138 L3.57798165,8.69724771 L3.57798165,37.4862385 Z" id="Shape" fill="#BC0033"></path>
                <path d="M96.0550459,10.9541284 C96.0550459,10.1284404 95.9449541,10.0183486 95.8348624,9.90825688 C95.7247706,9.79816514 95.559633,9.74311927 95.3944954,9.74311927 L94.0183486,9.74311927 C93.853211,9.74311927 93.6880734,9.79816514 93.5779817,9.90825688 C93.4678899,10.0183486 93.3577982,10.1284404 93.3577982,10.2385321 L91.3211009,22.2385321 L92.7522936,22.2385321 L93.2477064,19.3761468 L93.4678899,17.8348624 L93.5229358,17.6146789 L93.5229358,17.559633 L94.5137615,11.2844037 C94.5137615,11.2293578 94.5137615,11.2293578 94.5688073,11.1743119 C94.5688073,11.1192661 94.6238532,11.1192661 94.6788991,11.1192661 L94.733945,11.1192661 C94.7889908,11.1192661 94.7889908,11.1743119 94.8440367,11.2293578 C94.8440367,11.2844037 94.8990826,11.2844037 94.8990826,11.3394495 L96,17.8899083 L94.4036697,17.8899083 L94.1834862,19.3211009 L96.2201835,19.3211009 L96.7706422,22.3486239 L98.146789,22.3486239 L96.0550459,10.9541284 Z" id="Shape" fill="#262424"></path>
                <path d="M72.7706422,28.6238532 C72.7706422,28.4587156 72.6605505,28.3486239 72.5504587,28.2385321 C72.440367,28.1284404 72.2752294,28.0733945 72.1100917,28.0733945 L70.733945,28.0733945 C70.5688073,28.0733945 70.4036697,28.1284404 70.293578,28.2385321 C70.1834862,28.3486239 70.0733945,28.4587156 70.0733945,28.6238532 L68.0917431,40.6238532 L69.4678899,40.6238532 L69.9633028,37.7614679 L70.1834862,36.2201835 L70.2385321,36 L70.2385321,35.9449541 L71.2293578,29.6697248 C71.2293578,29.6697248 71.2293578,29.6146789 71.2844037,29.559633 C71.2844037,29.5045872 71.3394495,29.5045872 71.3944954,29.5045872 L71.4495413,29.5045872 C71.5045872,29.5045872 71.5045872,29.559633 71.559633,29.6146789 C71.559633,29.6697248 71.6146789,29.6697248 71.6146789,29.7247706 L72.7155963,36.2752294 L71.0091743,36.2752294 L70.7889908,37.6513761 L72.8256881,37.6513761 L73.3761468,40.6788991 L74.8073394,40.6788991 L72.7706422,28.6238532 Z" id="Shape" fill="#262424"></path>
                <path d="M105.798165,28.6238532 C105.798165,28.4587156 105.688073,28.3486239 105.577982,28.2385321 C105.46789,28.1284404 105.302752,28.0733945 105.137615,28.0733945 L103.761468,28.0733945 C103.59633,28.0733945 103.431193,28.1284404 103.321101,28.2385321 C103.211009,28.3486239 103.100917,28.4587156 103.100917,28.6238532 L101.06422,40.6238532 L102.495413,40.6238532 L102.990826,37.7614679 L103.211009,36.2201835 L103.266055,36 L103.266055,35.9449541 L104.256881,29.6697248 C104.256881,29.6697248 104.256881,29.6146789 104.311927,29.559633 C104.311927,29.5045872 104.366972,29.5045872 104.422018,29.5045872 L104.477064,29.5045872 C104.53211,29.5045872 104.53211,29.559633 104.587156,29.6146789 C104.587156,29.6697248 104.642202,29.6697248 104.642202,29.7247706 L105.743119,36.2752294 L104.036697,36.2752294 L103.816514,37.6513761 L105.853211,37.6513761 L106.40367,40.6788991 L107.834862,40.6788991 L105.798165,28.6238532 Z" id="Shape" fill="#262424"></path>
                <path d="M153.963303,28.6238532 C153.963303,28.4587156 153.853211,28.3486239 153.743119,28.2385321 C153.633028,28.1284404 153.46789,28.0733945 153.302752,28.0733945 L151.926606,28.0733945 C151.761468,28.0733945 151.59633,28.1284404 151.486239,28.2385321 C151.376147,28.3486239 151.266055,28.4587156 151.266055,28.6238532 L149.284404,40.6238532 L150.66055,40.6238532 L151.155963,37.7614679 L151.376147,36.2201835 L151.431193,36 L151.431193,35.9449541 L152.422018,29.6697248 C152.422018,29.6697248 152.422018,29.6146789 152.477064,29.559633 C152.477064,29.5045872 152.53211,29.5045872 152.587156,29.5045872 L152.642202,29.5045872 C152.697248,29.5045872 152.752294,29.559633 152.752294,29.6146789 C152.752294,29.6697248 152.807339,29.6697248 152.807339,29.7247706 L153.908257,36.2752294 L152.311927,36.2752294 L152.091743,37.6513761 L154.12844,37.6513761 L154.678899,40.6788991 L156.055046,40.6788991 L153.963303,28.6238532 Z" id="Shape" fill="#262424"></path>
                <polygon id="Shape" fill="#262424" points="33.9082569 9.74311927 36.3853211 9.74311927 37.706422 18.9357798 38.9724771 9.74311927 41.4495413 9.74311927 41.9449541 22.1834862 40.7889908 22.1834862 40.1284404 10.733945 38.3119266 22.1284404 37.1009174 22.1284404 35.0642202 10.7889908 34.5688073 22.1834862 33.3577982 22.1834862"></polygon>
                <polygon id="Shape" fill="#262424" points="133.045872 28.293578 135.522936 28.293578 136.844037 37.4311927 138.110092 28.293578 140.587156 28.293578 141.137615 40.6788991 139.926606 40.6788991 139.321101 29.2844037 137.504587 40.6788991 136.293578 40.6788991 134.256881 29.2844037 133.706422 40.6788991 132.550459 40.6788991"></polygon>
                <path d="M52.2385321,35.2293578 C52.9541284,34.8990826 53.4495413,34.1834862 53.4495413,33.412844 L53.4495413,30.2201835 C53.4495413,29.1743119 52.6238532,28.3486239 51.5779817,28.3486239 L48.1651376,28.3486239 L48.1651376,40.733945 L51.6880734,40.733945 C52.733945,40.733945 53.559633,39.9082569 53.559633,38.8623853 L53.559633,37.0458716 C53.559633,36.2201835 53.0091743,35.5045872 52.2385321,35.2293578 Z M52.1834862,38.9174312 C52.1834862,39.1926606 52.0183486,39.3577982 51.6880734,39.3577982 L49.5412844,39.3577982 L49.5412844,29.7247706 L51.5779817,29.7247706 C51.853211,29.7247706 52.0183486,29.9449541 52.0183486,30.2201835 L52.0183486,33.412844 C52.0183486,33.7431193 51.9082569,34.3486239 51.4678899,34.5137615 L50.3669725,34.5137615 L50.3669725,35.8899083 L51.4678899,35.8899083 C51.9082569,36.0550459 52.1284404,36.6605505 52.1284404,37.0458716 L52.1284404,38.9174312 L52.1834862,38.9174312 Z" id="Shape" fill="#262424"></path>
                <path d="M65.8348624,35.2293578 C66.5504587,34.8990826 67.0458716,34.1834862 67.0458716,33.412844 L67.0458716,30.2201835 C67.0458716,29.1743119 66.2201835,28.3486239 65.1743119,28.3486239 L61.7614679,28.3486239 L61.7614679,40.733945 L65.2844037,40.733945 C66.3302752,40.733945 67.1559633,39.9082569 67.1559633,38.8623853 L67.1559633,37.0458716 C67.1559633,36.2201835 66.6055046,35.5045872 65.8348624,35.2293578 Z M65.7247706,38.9174312 C65.7247706,39.1926606 65.559633,39.3577982 65.2293578,39.3577982 L63.0825688,39.3577982 L63.0825688,29.7247706 L65.1192661,29.7247706 C65.3944954,29.7247706 65.559633,29.9449541 65.559633,30.2201835 L65.559633,33.412844 C65.559633,33.7431193 65.4495413,34.3486239 65.0091743,34.5137615 L63.9082569,34.5137615 L63.9082569,35.8899083 L65.0091743,35.8899083 C65.4495413,36.0550459 65.6697248,36.6605505 65.6697248,37.0458716 L65.6697248,38.9174312 L65.7247706,38.9174312 Z" id="Shape" fill="#262424"></path>
                <path d="M75.3577982,16.6788991 C76.0733945,16.3486239 76.5688073,15.6330275 76.5688073,14.8623853 L76.5688073,11.6697248 C76.5688073,10.6238532 75.7431193,9.79816514 74.6972477,9.79816514 L71.2844037,9.79816514 L71.2844037,22.1834862 L74.8073394,22.1834862 C75.853211,22.1834862 76.6788991,21.3577982 76.6788991,20.3119266 L76.6788991,18.4954128 C76.6788991,17.6697248 76.1284404,16.9541284 75.3577982,16.6788991 Z M75.2477064,20.3669725 C75.2477064,20.6422018 75.0825688,20.8623853 74.7522936,20.8623853 L72.6605505,20.8623853 L72.6605505,11.2293578 L74.6972477,11.2293578 C74.9724771,11.2293578 75.1376147,11.4495413 75.1376147,11.7247706 L75.1376147,14.9174312 C75.1376147,15.2477064 75.0275229,15.853211 74.587156,16.0183486 L73.4862385,16.0183486 L73.4862385,17.3944954 L74.587156,17.3944954 C75.0275229,17.559633 75.2477064,18.1651376 75.2477064,18.5504587 L75.2477064,20.3669725 Z" id="Shape" fill="#262424"></path>
                <path d="M48.8807339,20.0917431 C48.8807339,21.3027523 47.8899083,22.293578 46.6788991,22.293578 L45.6880734,22.293578 C44.4770642,22.293578 43.4862385,21.3027523 43.4862385,20.0917431 L43.4862385,11.9449541 C43.4862385,10.733945 44.4770642,9.74311927 45.6880734,9.74311927 L46.6238532,9.74311927 C47.8348624,9.74311927 48.8256881,10.733945 48.8256881,11.9449541 L48.8256881,20.0917431 L48.8807339,20.0917431 Z M47.4495413,11.9449541 C47.4495413,11.4495413 47.1192661,11.1192661 46.6238532,11.1192661 L45.6880734,11.1192661 C45.1926606,11.1192661 44.8623853,11.4495413 44.8623853,11.9449541 L44.8623853,20.0917431 C44.8623853,20.587156 45.1926606,20.9174312 45.6880734,20.9174312 L46.6238532,20.9174312 C47.1192661,20.9174312 47.4495413,20.587156 47.4495413,20.0917431 L47.4495413,11.9449541 Z" id="Shape" fill="#262424"></path>
                <path d="M61.0458716,11.8899083 C61.9816514,10.3486239 62.9174312,9.90825688 63.7431193,9.85321101 L63.7431193,11.2293578 C63.5779817,11.2844037 62.9174312,11.3394495 62.587156,11.8899083 L60.5504587,15.3027523 L60.5504587,15.4678899 L63.7431193,22.2385321 L62.3119266,22.2385321 L59.3944954,16.1284404 L58.5688073,16.1284404 L58.5688073,22.2385321 L57.1926606,22.2385321 L57.1926606,9.90825688 L58.5688073,9.90825688 L58.5688073,14.7522936 L59.3944954,14.7522936 L61.0458716,11.8899083 Z" id="Shape" fill="#262424"></path>
                <path d="M88.293578,11.8899083 C89.1743119,10.3486239 90.1100917,9.90825688 90.9908257,9.85321101 L90.9908257,11.2293578 C90.8256881,11.2844037 90.1651376,11.3394495 89.8348624,11.8899083 L87.7981651,15.3027523 L87.7981651,15.4678899 L90.9908257,22.2385321 L89.559633,22.2385321 L86.6422018,16.1284404 L85.8165138,16.1284404 L85.8165138,22.2385321 L84.440367,22.2385321 L84.440367,9.90825688 L85.8165138,9.90825688 L85.8165138,14.7522936 L86.6422018,14.7522936 L88.293578,11.8899083 Z" id="Shape" fill="#262424"></path>
                <path d="M69.6330275,20.0917431 C69.6330275,21.3027523 68.6422018,22.293578 67.4311927,22.293578 L66.4954128,22.293578 C65.2844037,22.293578 64.293578,21.3027523 64.293578,20.0917431 L64.293578,11.9449541 C64.293578,10.733945 65.2844037,9.74311927 66.4954128,9.74311927 L67.4311927,9.74311927 C68.6422018,9.74311927 69.6330275,10.733945 69.6330275,11.9449541 L69.6330275,20.0917431 Z M68.2568807,11.9449541 C68.2568807,11.4495413 67.9266055,11.1192661 67.4311927,11.1192661 L66.4954128,11.1192661 C66,11.1192661 65.6697248,11.4495413 65.6697248,11.9449541 L65.6697248,20.0917431 C65.6697248,20.587156 66,20.9174312 66.4954128,20.9174312 L67.4311927,20.9174312 C67.9266055,20.9174312 68.2568807,20.587156 68.2568807,20.0917431 L68.2568807,11.9449541 Z" id="Shape" fill="#262424"></path>
                <path d="M81.9082569,17.3394495 L83.2844037,17.3394495 L83.2844037,20.0917431 C83.2844037,21.3027523 82.293578,22.293578 81.0825688,22.293578 L80.146789,22.293578 C78.9357798,22.293578 77.9449541,21.3027523 77.9449541,20.0917431 L77.9449541,11.9449541 C77.9449541,10.733945 78.9357798,9.74311927 80.146789,9.74311927 L81.0825688,9.74311927 C82.293578,9.74311927 83.2844037,10.733945 83.2844037,11.9449541 L83.2844037,13.8715596 L81.9082569,13.8715596 L81.9082569,11.9449541 C81.9082569,11.4495413 81.5779817,11.1192661 81.0825688,11.1192661 L80.146789,11.1192661 C79.6513761,11.1192661 79.3211009,11.4495413 79.3211009,11.9449541 L79.3211009,20.0917431 C79.3211009,20.587156 79.6513761,20.9174312 80.146789,20.9174312 L81.0825688,20.9174312 C81.9082569,20.9174312 81.9082569,20.587156 81.9082569,20.0917431 L81.9082569,17.6697248 L81.9082569,17.3394495 Z" id="Shape" fill="#262424"></path>
                <path d="M54.1651376,17.3394495 L55.5412844,17.3394495 L55.5963303,20.0917431 C55.5963303,21.3027523 54.6055046,22.293578 53.3944954,22.293578 L52.4587156,22.293578 C51.2477064,22.293578 50.2568807,21.3027523 50.2568807,20.0917431 L50.2568807,11.9449541 C50.2568807,10.733945 51.2477064,9.74311927 52.4587156,9.74311927 L53.3944954,9.74311927 C54.6055046,9.74311927 55.5963303,10.733945 55.5963303,11.9449541 L55.5963303,13.8715596 L54.2201835,13.8715596 L54.2201835,11.9449541 C54.2201835,11.4495413 53.8899083,11.1192661 53.3944954,11.1192661 L52.4587156,11.1192661 C51.9633028,11.1192661 51.6330275,11.4495413 51.6330275,11.9449541 L51.6330275,20.0917431 C51.6330275,20.587156 51.9633028,20.9174312 52.4587156,20.9174312 L53.3944954,20.9174312 C54.2201835,20.9174312 54.2201835,20.587156 54.2201835,20.0917431 L54.2201835,17.6697248 L54.1651376,17.3394495 Z" id="Shape" fill="#262424"></path>
                <path d="M103.981651,22.1834862 L102.605505,22.1834862 L102.605505,16.8440367 L102.055046,16.8440367 L99.853211,22.1834862 L98.4220183,22.1834862 L100.623853,16.7889908 C99.5229358,16.6788991 98.6422018,15.7431193 98.6422018,14.587156 L98.6422018,11.9449541 C98.6422018,10.733945 99.6330275,9.79816514 100.844037,9.79816514 L103.926606,9.79816514 L103.926606,22.1834862 L103.981651,22.1834862 Z M100.899083,11.2293578 C100.40367,11.2293578 100.073394,11.5045872 100.073394,11.9449541 L100.073394,14.587156 C100.073394,15.0825688 100.40367,15.412844 100.899083,15.412844 L102.605505,15.412844 L102.605505,11.1743119 L100.899083,11.1743119 L100.899083,11.2293578 Z" id="Shape" fill="#262424"></path>
                <polygon id="Shape" fill="#262424" points="38.6422018 28.3486239 38.6422018 40.6788991 37.266055 40.6788991 37.266055 29.7247706 34.6788991 29.7247706 34.6788991 40.6788991 33.3027523 40.6788991 33.3027523 28.3486239"></polygon>
                <polygon id="Shape" fill="#262424" points="45.0275229 40.6788991 45.0275229 32.0917431 41.8348624 40.1834862 41.8348624 40.6788991 40.4587156 40.6788991 40.4587156 28.3486239 41.8348624 28.3486239 41.8348624 36.9357798 45.0275229 28.8440367 45.0275229 28.3486239 46.4036697 28.3486239 46.4036697 40.6788991"></polygon>
                <path d="M60.3302752,38.6422018 C60.3302752,39.853211 59.3394495,40.8440367 58.1284404,40.8440367 L57.1926606,40.8440367 C55.9816514,40.8440367 54.9908257,39.853211 54.9908257,38.6422018 L54.9908257,30.4954128 C54.9908257,29.2844037 55.9816514,28.293578 57.1926606,28.293578 L58.1284404,28.293578 C59.3394495,28.293578 60.3302752,29.2844037 60.3302752,30.4954128 L60.3302752,38.6422018 Z M58.9541284,30.4954128 C58.9541284,30 58.6238532,29.6697248 58.1284404,29.6697248 L57.1926606,29.6697248 C56.6972477,29.6697248 56.3669725,30 56.3669725,30.4954128 L56.3669725,38.6422018 C56.3669725,39.1376147 56.6972477,39.4678899 57.1926606,39.4678899 L58.1284404,39.4678899 C58.6238532,39.4678899 58.9541284,39.1376147 58.9541284,38.6422018 L58.9541284,30.4954128 Z" id="Shape" fill="#262424"></path>
                <polygon id="Shape" fill="#262424" points="92.9724771 28.3486239 92.9724771 40.6788991 91.5963303 40.6788991 91.5963303 35.7798165 89.0642202 35.7798165 89.0642202 40.6788991 87.6880734 40.6788991 87.6880734 28.3486239 89.0642202 28.3486239 89.0642202 34.4036697 91.5963303 34.4036697 91.5963303 28.3486239"></polygon>
                <polygon id="Shape" fill="#262424" points="100.018349 28.3486239 100.018349 40.6788991 98.6422018 40.6788991 98.6422018 35.7798165 96.1100917 35.7798165 96.1100917 40.6788991 94.6788991 40.6788991 94.6788991 28.3486239 96.0550459 28.3486239 96.0550459 34.4036697 98.587156 34.4036697 98.587156 28.3486239"></polygon>
                <polygon id="Shape" fill="#262424" points="162.165138 28.3486239 162.165138 40.6788991 160.788991 40.6788991 160.788991 35.7798165 158.256881 35.7798165 158.256881 40.6788991 156.880734 40.6788991 156.880734 28.3486239 158.256881 28.3486239 158.256881 34.4036697 160.788991 34.4036697 160.788991 28.3486239"></polygon>
                <path d="M113.834862,40.6788991 L112.458716,40.6788991 L112.458716,35.3394495 L111.908257,35.3394495 L109.706422,40.6788991 L108.275229,40.6788991 L110.477064,35.2844037 C109.376147,35.1743119 108.495413,34.2385321 108.495413,33.0825688 L108.495413,30.440367 C108.495413,29.2293578 109.486239,28.293578 110.697248,28.293578 L113.779817,28.293578 L113.779817,40.6788991 L113.834862,40.6788991 Z M110.752294,29.7247706 C110.256881,29.7247706 109.926606,30 109.926606,30.4954128 L109.926606,33.1376147 C109.926606,33.6330275 110.256881,33.9633028 110.752294,33.9633028 L112.458716,33.9633028 L112.458716,29.7247706 L110.752294,29.7247706 Z" id="Shape" fill="#262424"></path>
                <path d="M122.366972,30.3853211 C123.247706,28.8440367 124.183486,28.4036697 125.06422,28.3486239 L125.06422,29.7247706 C124.899083,29.7798165 124.238532,29.8348624 123.908257,30.3853211 L121.87156,33.7981651 L121.87156,33.9633028 L125.06422,40.6788991 L123.633028,40.6788991 L120.715596,34.5688073 L119.889908,34.5688073 L119.889908,40.6788991 L118.513761,40.6788991 L118.513761,28.3486239 L119.889908,28.3486239 L119.889908,33.1926606 L120.715596,33.1926606 L122.366972,30.3853211 Z" id="Shape" fill="#262424"></path>
                <path d="M130.954128,38.6422018 C130.954128,39.853211 129.963303,40.8440367 128.752294,40.8440367 L127.816514,40.8440367 C126.605505,40.8440367 125.614679,39.853211 125.614679,38.6422018 L125.614679,30.4954128 C125.614679,29.2844037 126.605505,28.293578 127.816514,28.293578 L128.752294,28.293578 C129.963303,28.293578 130.954128,29.2844037 130.954128,30.4954128 L130.954128,38.6422018 Z M129.522936,30.4954128 C129.522936,30 129.192661,29.6697248 128.697248,29.6697248 L127.761468,29.6697248 C127.266055,29.6697248 126.93578,30 126.93578,30.4954128 L126.93578,38.6422018 C126.93578,39.1376147 127.266055,39.4678899 127.761468,39.4678899 L128.697248,39.4678899 C129.192661,39.4678899 129.522936,39.1376147 129.522936,38.6422018 L129.522936,30.4954128 Z" id="Shape" fill="#262424"></path>
                <polygon id="Shape" fill="#262424" points="148.293578 28.3486239 148.293578 40.6788991 146.917431 40.6788991 146.917431 29.7247706 144.385321 29.7247706 144.385321 40.6788991 143.009174 40.6788991 143.009174 28.3486239"></polygon>
                <polygon id="Shape" fill="#262424" points="168.605505 40.6788991 168.605505 32.0917431 165.412844 40.1834862 165.412844 40.6788991 164.036697 40.6788991 164.036697 28.3486239 165.412844 28.3486239 165.412844 36.9357798 168.605505 28.8440367 168.605505 28.3486239 169.981651 28.3486239 169.981651 40.6788991"></polygon>
                <path d="M176.917431,40.6788991 L175.541284,40.6788991 L175.541284,35.3394495 L174.990826,35.3394495 L172.788991,40.6788991 L171.357798,40.6788991 L173.559633,35.2844037 C172.458716,35.1743119 171.577982,34.2385321 171.577982,33.0825688 L171.577982,30.440367 C171.577982,29.2293578 172.568807,28.293578 173.779817,28.293578 L176.862385,28.293578 L176.862385,40.6788991 L176.917431,40.6788991 Z M173.834862,29.7247706 C173.33945,29.7247706 173.009174,30 173.009174,30.4954128 L173.009174,33.1376147 C173.009174,33.6330275 173.33945,33.9633028 173.834862,33.9633028 L175.541284,33.9633028 L175.541284,29.7247706 L173.834862,29.7247706 Z" id="Shape" fill="#262424"></path>
                <path d="M78.7155963,28.3486239 L75.6330275,28.3486239 L75.6330275,40.6788991 L77.0091743,40.6788991 L77.0091743,35.3944954 L77.0091743,34.0183486 L77.0091743,29.7247706 L78.7155963,29.7247706 C79.2110092,29.7247706 79.5412844,30 79.5412844,30.4954128 L79.5412844,33.5779817 C79.5412844,34.0733945 79.2110092,34.4036697 78.7155963,34.4036697 L78.0550459,34.4036697 L78.0550459,35.7798165 L78.7155963,35.7798165 C79.9266055,35.7798165 80.9174312,34.7889908 80.9174312,33.5779817 L80.9174312,30.4954128 C80.9174312,29.2293578 79.9266055,28.3486239 78.7155963,28.3486239 Z" id="Shape" fill="#262424"></path>
                <polygon id="Shape" fill="#262424" points="83.5045872 29.6697248 83.5045872 34.4036697 86.146789 34.4036697 86.146789 35.7798165 83.5045872 35.7798165 83.5045872 39.2477064 86.587156 39.2477064 86.587156 40.6238532 82.1284404 40.6238532 82.1284404 28.2385321 86.587156 28.2385321 86.587156 29.6146789 83.5045872 29.6146789"></polygon>
                <g id="Group" transform="translate(0.000000, 53.394495)" fill="#9B9C9F">
                    <path d="M0.990825688,0.440366972 L0.990825688,2.14678899 C0.990825688,2.36697248 0.990825688,2.64220183 1.1559633,2.86238532 C1.37614679,3.13761468 1.98165138,3.13761468 2.36697248,3.13761468 C2.75229358,3.13761468 3.19266055,3.13761468 3.52293578,3.08256881 L3.52293578,0.440366972 L4.12844037,0.440366972 L4.12844037,6.05504587 L3.52293578,6.05504587 L3.52293578,3.57798165 C3.24770642,3.57798165 2.64220183,3.63302752 2.31192661,3.63302752 C1.48623853,3.63302752 0.990825688,3.52293578 0.71559633,3.30275229 C0.385321101,3.02752294 0.385321101,2.53211009 0.385321101,2.25688073 L0.385321101,0.495412844 L0.990825688,0.495412844 L0.990825688,0.440366972 Z" id="Shape"></path>
                    <polygon id="Shape" points="14.8623853 2.86238532 14.8623853 3.35779817 11.8348624 3.35779817 11.8348624 5.50458716 15.1926606 5.50458716 15.1926606 6 11.2293578 6 11.2293578 0.385321101 15.0825688 0.385321101 15.0825688 0.880733945 11.7798165 0.880733945 11.7798165 2.80733945 14.8623853 2.80733945"></polygon>
                    <path d="M26.4770642,4.23853211 C26.4220183,4.78899083 26.2018349,5.28440367 25.8165138,5.66972477 C25.3211009,6.16513761 24.6605505,6.27522936 24.1100917,6.27522936 C23.559633,6.27522936 22.8440367,6.16513761 22.293578,5.55963303 C21.7431193,4.95412844 21.5229358,4.0733945 21.5229358,3.24770642 C21.5229358,2.47706422 21.6880734,1.5412844 22.293578,0.935779817 C22.6788991,0.550458716 23.2293578,0.275229358 24.1100917,0.275229358 C24.7155963,0.275229358 25.4311927,0.440366972 25.8715596,0.880733945 C26.146789,1.1559633 26.3669725,1.59633028 26.4220183,2.14678899 L25.8165138,2.14678899 C25.7614679,1.76146789 25.5963303,1.43119266 25.4311927,1.26605505 C25.2110092,1.04587156 24.8256881,0.825688073 24.1651376,0.825688073 C23.7247706,0.825688073 23.2293578,0.935779817 22.8440367,1.32110092 C22.4036697,1.76146789 22.1834862,2.42201835 22.1834862,3.19266055 C22.1834862,3.90825688 22.3486239,4.78899083 22.8990826,5.2293578 C23.1743119,5.44954128 23.559633,5.72477064 24.2201835,5.72477064 C24.8256881,5.72477064 25.2110092,5.50458716 25.4311927,5.28440367 C25.5963303,5.11926606 25.8715596,4.78899083 25.9266055,4.23853211 L26.4770642,4.23853211 Z" id="Shape"></path>
                    <polygon id="Shape" points="32.3669725 0.935779817 32.3669725 0.440366972 36.6605505 0.440366972 36.6605505 0.935779817 34.7889908 0.935779817 34.7889908 6.05504587 34.1834862 6.05504587 34.1834862 0.935779817"></polygon>
                    <polygon id="Shape" points="43.6513761 6.05504587 43.0458716 6.05504587 43.0458716 0.440366972 43.6513761 0.440366972 43.6513761 2.86238532 46.6788991 2.86238532 46.6788991 0.440366972 47.2844037 0.440366972 47.2844037 6.05504587 46.6788991 6.05504587 46.6788991 3.35779817 43.6513761 3.35779817"></polygon>
                    <path d="M54.2752294,6.05504587 L53.6146789,6.05504587 L55.7614679,0.440366972 L56.4220183,0.440366972 L58.5688073,6.05504587 L57.9082569,6.05504587 L57.3027523,4.4587156 L54.8807339,4.4587156 L54.2752294,6.05504587 Z M57.1376147,3.90825688 L56.0917431,0.990825688 L55.0458716,3.90825688 L57.1376147,3.90825688 Z" id="Shape"></path>
                    <path d="M66.6605505,3.74311927 L65.2844037,6.05504587 L64.5688073,6.05504587 L66.0550459,3.68807339 C65.6697248,3.63302752 65.2293578,3.46788991 65.0091743,3.24770642 C64.7889908,3.02752294 64.5688073,2.64220183 64.5688073,2.09174312 C64.5688073,1.5412844 64.7889908,1.1559633 65.0091743,0.880733945 C65.4495413,0.440366972 66,0.440366972 66.4954128,0.440366972 L68.7522936,0.440366972 L68.7522936,6.05504587 L68.146789,6.05504587 L68.146789,3.74311927 L66.6605505,3.74311927 Z M66.440367,0.935779817 C66.1651376,0.935779817 65.7247706,0.935779817 65.4495413,1.26605505 C65.2293578,1.43119266 65.1192661,1.76146789 65.1192661,2.09174312 C65.1192661,2.42201835 65.2293578,2.69724771 65.3944954,2.91743119 C65.559633,3.08256881 65.9449541,3.24770642 66.5504587,3.24770642 L68.146789,3.24770642 L68.146789,0.935779817 L66.440367,0.935779817 Z" id="Shape"></path>
                    <polygon id="Shape" points="83.8899083 6.05504587 83.2844037 6.05504587 83.2844037 0.440366972 87.4678899 0.440366972 87.4678899 6.05504587 86.8623853 6.05504587 86.8623853 0.935779817 83.8348624 0.935779817 83.8348624 6.05504587"></polygon>
                    <polygon id="Shape" points="98.3119266 0.440366972 98.9174312 0.440366972 98.9174312 6.05504587 98.3119266 6.05504587 98.3119266 1.26605505 95.1192661 6.05504587 94.5137615 6.05504587 94.5137615 0.440366972 95.1192661 0.440366972 95.1192661 5.2293578"></polygon>
                    <path d="M108.385321,0.440366972 C108.715596,0.440366972 109.321101,0.440366972 109.651376,0.825688073 C109.87156,1.04587156 110.036697,1.37614679 110.036697,1.81651376 C110.036697,2.20183486 109.926606,2.47706422 109.706422,2.69724771 C109.486239,2.91743119 109.266055,2.97247706 109.100917,3.02752294 C109.376147,3.08256881 109.706422,3.19266055 109.926606,3.41284404 C110.091743,3.57798165 110.311927,3.90825688 110.311927,4.40366972 C110.311927,4.95412844 110.091743,5.28440367 109.926606,5.50458716 C109.486239,5.94495413 108.770642,6 108.330275,6 L106.073394,6 L106.073394,0.385321101 L108.385321,0.385321101 L108.385321,0.440366972 Z M106.623853,2.86238532 L108.220183,2.86238532 C108.440367,2.86238532 108.880734,2.86238532 109.155963,2.58715596 C109.321101,2.42201835 109.431193,2.20183486 109.431193,1.87155963 C109.431193,1.5412844 109.321101,1.32110092 109.155963,1.21100917 C108.93578,0.990825688 108.605505,0.935779817 108.275229,0.935779817 L106.623853,0.935779817 L106.623853,2.86238532 Z M106.623853,5.55963303 L108.275229,5.55963303 C108.990826,5.55963303 109.266055,5.39449541 109.376147,5.28440367 C109.651376,5.06422018 109.706422,4.73394495 109.706422,4.51376147 C109.706422,4.01834862 109.486239,3.74311927 109.321101,3.63302752 C108.990826,3.41284404 108.440367,3.41284404 108.275229,3.41284404 L106.623853,3.41284404 L106.623853,5.55963303 Z" id="Shape"></path>
                    <path d="M117.798165,0.935779817 C118.12844,0.605504587 118.733945,0.275229358 119.614679,0.275229358 C120.440367,0.275229358 121.045872,0.550458716 121.431193,0.935779817 C121.926606,1.43119266 122.256881,2.25688073 122.256881,3.30275229 C122.256881,4.40366972 121.87156,5.17431193 121.431193,5.6146789 C120.880734,6.11009174 120.165138,6.27522936 119.614679,6.27522936 C119.009174,6.27522936 118.348624,6.16513761 117.798165,5.6146789 C117.412844,5.2293578 116.972477,4.4587156 116.972477,3.30275229 C116.972477,2.14678899 117.357798,1.37614679 117.798165,0.935779817 Z M118.238532,5.17431193 C118.568807,5.55963303 119.06422,5.72477064 119.669725,5.72477064 C120.330275,5.72477064 120.770642,5.44954128 120.990826,5.2293578 C121.541284,4.67889908 121.651376,3.79816514 121.651376,3.19266055 C121.651376,1.98165138 121.100917,1.43119266 120.93578,1.26605505 C120.550459,0.880733945 120.055046,0.825688073 119.614679,0.825688073 C119.119266,0.825688073 118.678899,0.990825688 118.348624,1.26605505 C117.743119,1.81651376 117.633028,2.75229358 117.633028,3.19266055 C117.633028,4.29357798 117.908257,4.89908257 118.238532,5.17431193 Z" id="Shape"></path>
                    <path d="M131.449541,0.440366972 C131.779817,0.440366972 132.385321,0.440366972 132.715596,0.825688073 C132.93578,1.04587156 133.100917,1.37614679 133.100917,1.81651376 C133.100917,2.20183486 132.990826,2.47706422 132.770642,2.69724771 C132.550459,2.91743119 132.330275,2.97247706 132.165138,3.02752294 C132.440367,3.08256881 132.770642,3.19266055 132.990826,3.41284404 C133.155963,3.57798165 133.376147,3.90825688 133.376147,4.40366972 C133.376147,4.95412844 133.155963,5.28440367 132.990826,5.50458716 C132.550459,5.94495413 131.834862,6 131.394495,6 L129.137615,6 L129.137615,0.385321101 L131.449541,0.385321101 L131.449541,0.440366972 Z M129.743119,2.86238532 L131.33945,2.86238532 C131.559633,2.86238532 132,2.86238532 132.275229,2.58715596 C132.440367,2.42201835 132.550459,2.20183486 132.550459,1.87155963 C132.550459,1.5412844 132.440367,1.32110092 132.275229,1.21100917 C132.055046,0.990825688 131.724771,0.935779817 131.394495,0.935779817 L129.743119,0.935779817 L129.743119,2.86238532 Z M129.743119,5.55963303 L131.394495,5.55963303 C132.110092,5.55963303 132.385321,5.39449541 132.495413,5.28440367 C132.770642,5.06422018 132.825688,4.73394495 132.825688,4.51376147 C132.825688,4.01834862 132.66055,3.74311927 132.440367,3.63302752 C132.165138,3.41284404 131.559633,3.41284404 131.394495,3.41284404 L129.743119,3.41284404 L129.743119,5.55963303 Z" id="Shape"></path>
                    <path d="M140.201835,6.05504587 L139.541284,6.05504587 L141.688073,0.440366972 L142.348624,0.440366972 L144.495413,6.05504587 L143.834862,6.05504587 L143.229358,4.4587156 L140.807339,4.4587156 L140.201835,6.05504587 Z M143.06422,3.90825688 L142.018349,0.990825688 L140.972477,3.90825688 L143.06422,3.90825688 Z" id="Shape"></path>
                    <path d="M153.082569,0.440366972 C153.46789,0.440366972 154.018349,0.440366972 154.458716,0.825688073 C154.678899,1.04587156 154.954128,1.37614679 154.954128,2.09174312 C154.954128,2.75229358 154.678899,3.13761468 154.513761,3.30275229 C154.073394,3.74311927 153.412844,3.74311927 153.082569,3.74311927 L151.486239,3.74311927 L151.486239,6.11009174 L150.880734,6.11009174 L150.880734,0.495412844 L153.082569,0.495412844 L153.082569,0.440366972 Z M151.486239,3.19266055 L152.972477,3.19266055 C153.302752,3.19266055 153.688073,3.19266055 153.963303,2.91743119 C154.12844,2.75229358 154.348624,2.47706422 154.348624,2.03669725 C154.348624,1.59633028 154.183486,1.26605505 153.963303,1.1559633 C153.688073,0.935779817 153.302752,0.935779817 152.972477,0.935779817 L151.486239,0.935779817 L151.486239,3.19266055 Z" id="Shape"></path>
                    <polygon id="Shape" points="162.165138 6.05504587 161.559633 6.05504587 161.559633 0.440366972 162.165138 0.440366972 162.165138 2.86238532 165.192661 2.86238532 165.192661 0.440366972 165.798165 0.440366972 165.798165 6.05504587 165.192661 6.05504587 165.192661 3.35779817 162.165138 3.35779817"></polygon>
                    <path d="M174.825688,3.74311927 L173.394495,6.05504587 L172.678899,6.05504587 L174.165138,3.68807339 C173.779817,3.63302752 173.33945,3.46788991 173.119266,3.24770642 C172.899083,3.02752294 172.678899,2.64220183 172.678899,2.09174312 C172.678899,1.5412844 172.899083,1.1559633 173.119266,0.880733945 C173.559633,0.440366972 174.110092,0.440366972 174.605505,0.440366972 L176.862385,0.440366972 L176.862385,6.05504587 L176.256881,6.05504587 L176.256881,3.74311927 L174.825688,3.74311927 Z M174.66055,0.935779817 C174.385321,0.935779817 173.944954,0.935779817 173.669725,1.26605505 C173.449541,1.43119266 173.33945,1.76146789 173.33945,2.09174312 C173.33945,2.42201835 173.449541,2.69724771 173.614679,2.91743119 C173.779817,3.08256881 174.165138,3.24770642 174.770642,3.24770642 L176.366972,3.24770642 L176.366972,0.935779817 L174.66055,0.935779817 Z" id="Shape"></path>
                </g>
                <rect id="Rectangle-path" fill="#9B9C9F" x="0.385321101" y="48.7155963" width="176.477064" height="1"></rect>
            </g>
        </g>
    </g>
</svg>