<svg xmlns="http://www.w3.org/2000/svg" xmlns:xlink="http://www.w3.org/1999/xlink" width="184" height="38" viewBox="0 0 184 38">
    <defs>
        <path id="a" d="M.732.04h194.172v59.424H.732z"/>
        <path id="c" d="M.732.04h194.172v59.424H.732z"/>
        <path id="e" d="M.732.04h194.172v59.424H.732z"/>
        <path id="g" d="M.732.04h194.172v59.424H.732z"/>
        <path id="i" d="M.732.04h194.172v59.424H.732z"/>
        <path id="k" d="M.732.04h194.172v59.424H.732z"/>
        <path id="m" d="M.732.04h194.172v59.424H.732z"/>
        <path id="o" d="M.732.04h194.172v59.424H.732z"/>
        <path id="q" d="M.732.04h194.172v59.424H.732z"/>
        <path id="s" d="M.732.04h194.172v59.424H.732z"/>
        <path id="u" d="M.732.04h194.172v59.424H.732z"/>
        <path id="w" d="M.732.04h194.172v59.424H.732z"/>
        <path id="y" d="M.732.04h194.172v59.424H.732z"/>
        <path id="A" d="M.732.04h194.172v59.424H.732z"/>
        <path id="C" d="M.732.04h194.172v59.424H.732z"/>
        <path id="E" d="M.732.04h194.172v59.424H.732z"/>
        <path id="G" d="M.732.04h194.172v59.424H.732z"/>
        <path id="I" d="M.732.04h194.172v59.424H.732z"/>
        <path id="K" d="M.732.04h194.172v59.424H.732z"/>
        <path id="M" d="M.732.04h194.172v59.424H.732z"/>
        <path id="O" d="M.732.04h194.172v59.424H.732z"/>
        <path id="Q" d="M.732.04h194.172v59.424H.732z"/>
        <path id="S" d="M.732.04h194.172v59.424H.732z"/>
    </defs>
    <g fill="none" fill-rule="evenodd">
        <g transform="translate(-6 -2)">
            <mask id="b" fill="#fff">
                <use xlink:href="#a"/>
            </mask>
            <path fill="#D71921" d="M181.587 25.379c-2.94 0-5.329 2.567-5.329 5.733 0 3.165 2.389 5.735 5.329 5.735 2.944 0 5.333-2.57 5.333-5.735 0-3.166-2.389-5.733-5.333-5.733m.788 3.577v7.592c-.238.05-.379.055-.652.067v-8.161c.008-.736-.873-.742-.986.17-.178.923-.129 2.892.027 4.157.024.208.117.858-.051.897-.438.135-.763-1.842-.779-2.109-.059-.878-.066-1.723.021-2.55.18-1.024.412-1.71.844-1.854.369-.1.743-.087 1.021.007.582.218.555.988.555 1.784m1.467 7.094a2.194 2.194 0 0 1-1.25-1.953c-.004-1.87-.004-4.04-.002-5.95-.047-.597-.189-1.024-.824-1.223-.375-.102-.941-.06-1.281.167-.5.362-.664 1.483-.724 1.912-.128.913-.083 1.963.013 2.88.045.419.359 2.486 1.023 2.403.342-.105.23-1.183.131-2.021a35.387 35.387 0 0 1-.084-2.474c.02-.396.036-.71.088-.989.035-.31.563-.28.59-.006-.002 1.763-.002 4.011-.002 5.828-.031.98-1.043 1.208-1.65.193-.98-2.228-1.031-4.731-.762-6.675.119-.67.541-1.737 1.259-1.982.46-.19 1.427-.179 2.009.018.576.243.915.78.913 1.98 0 1.84-.002 4.116 0 5.937.044.773.944 1.373 1.212 1.546-.233.166-.292.208-.659.41" mask="url(#b)"/>
        </g>
        <g transform="translate(-6 -2)">
            <mask id="d" fill="#fff">
                <use xlink:href="#c"/>
            </mask>
            <path fill="#D13D43" d="M181.588 23.203c4.049 0 7.352 3.551 7.352 7.908 0 4.353-3.303 7.906-7.352 7.906s-7.349-3.553-7.349-7.906c0-4.357 3.3-7.908 7.349-7.908m0-.34c4.225 0 7.668 3.706 7.668 8.248s-3.443 8.248-7.668 8.248c-4.221 0-7.668-3.706-7.668-8.248s3.447-8.248 7.668-8.248" mask="url(#d)"/>
        </g>
        <g transform="translate(-6 -2)">
            <mask id="f" fill="#fff">
                <use xlink:href="#e"/>
            </mask>
            <path fill="#D13D43" d="M106.716 32h-1.394l.584-3.769c.063-.414.431-.752.814-.752.385 0 .646.338.585.752l-.589 3.77zm-2.046 4.193h1.395l-.437 2.802c-.026.196.03.47.283.465H109.332c.146 0 .283-.135.308-.296l.41-2.632.004-.013 1.711-10.997c.153-.994-.442-1.806-1.319-1.806h-6.287c-.883 0-1.682.812-1.838 1.806-.707 4.543-1.414 9.1-2.118 13.642-.027.161.071.296.218.296H103.747c.142.004.451-.117.477-.3l.41-2.628-.002-.103.038-.236z" mask="url(#f)"/>
        </g>
        <g transform="translate(-6 -2)">
            <mask id="h" fill="#fff">
                <use xlink:href="#g"/>
            </mask>
            <path fill="#D13D43" d="M113.705 25.245c.105-.529.131-1.037.072-1.579l3.713-.04c.187.005.289.674.273.992-.166.198.938-.891 1.848-.897l2.156-.005c.881 0 1.477.812 1.319 1.806l-1.71 11v.01l-.41 2.632c-.025.16-.165.294-.311.294h-3.42c-.254.006-.307-.27-.281-.463l.292-1.88.971-6.235.41-2.65c.063-.414-.194-.75-.582-.75-.381 0-.749.336-.812.75l-.59 3.77-.647 4.192-.041.238-.103.685h.016l-.318 2.044c-.025.183-.337.304-.48.298H111.747c-.147 0-.246-.135-.224-.294.709-4.542 1.416-9.099 2.125-13.642l.057-.276z" mask="url(#h)"/>
        </g>
        <g transform="translate(-6 -2)">
            <mask id="j" fill="#fff">
                <use xlink:href="#i"/>
            </mask>
            <path fill="#D13D43" d="M158.934 32.303l.967-6.238.296-1.877c.036-.197.171-.471.424-.462h3.42c.146 0 .245.129.22.292l-.408 2.631-.006.013-1.709 11c-.152.993-1 1.802-1.881 1.802h-6.283c-.879 0-1.432-.809-1.276-1.803l2.122-13.643c.023-.163.166-.292.311-.292h3.327c.146-.01.414.111.382.294l-.314 2.044h-.016l-.105.686-.04.241-.651 4.19-.587 3.769c-.062.416.196.752.58.752.385 0 .752-.336.819-.752l.408-2.647z" mask="url(#j)"/>
        </g>
        <g transform="translate(-6 -2)">
            <mask id="l" fill="#fff">
                <use xlink:href="#k"/>
            </mask>
            <path fill="#D13D43" d="M130.264 23.717h4.247c.453 0 .192 1.142.151 1.424-.332 2.127-.332 3.358-1.731 2.348-.979-.007-.919-.007-2.858-.007h-.393c-.391-.027-.793.307-.863.748l-.191 1.235-.269 1.715-.128.82-.265 1.716-.191 1.233c-.067.414.194.75.581.75.383 0 .751-.336.817-.75l.409-2.647-.062.41h-.002l.138-.906c-.857-1.712.309-1.435 2.664-1.435.307 0 1.633-.202 1.555.293-.359 2.335-.723 4.664-1.09 6.996-.152.994-.998 1.803-1.877 1.803h-6.289c-.875 0-1.426-.809-1.273-1.803.425-2.733.852-5.464 1.273-8.196.205-1.317.414-2.63.617-3.945.153-.992.953-1.804 1.836-1.804h3.194v.002z" mask="url(#l)"/>
        </g>
        <g transform="translate(-6 -2)">
            <mask id="n" fill="#fff">
                <use xlink:href="#m"/>
            </mask>
            <path fill="#D13D43" d="M150.106 39.464c.504-.031.866-1.063 1.032-1.527.287-.796.762-2.19.578-2.57-.201-.388-1.106.29-1.586.302h-.402c-.402.03-.707-.323-.641-.764l1.319-8.44c.166-1.079.808-2.568.367-2.794l-2.513.044c-2.752 0-1.502.64-1.838 1.807-.424 2.724-.85 5.46-1.272 8.192-.205 1.315-.55 3.533-.759 4.849-.15.99.537.901 1.419.901h4.296z" mask="url(#n)"/>
        </g>
        <g transform="translate(-6 -2)">
            <mask id="p" fill="#fff">
                <use xlink:href="#o"/>
            </mask>
            <path fill="#D13D43" d="M139.951 29.697h3.625c.229 0 .388.207.345.459l-.448 2.868c-.037.254-.255.459-.482.459h-3.629l-.342 2.201h3.629c.228 0 .383.206.344.456l-.445 2.87c-.043.252-.262.456-.488.456h-6.047c-.881 0-1.428-.809-1.273-1.802.422-2.734.848-5.465 1.271-8.197.207-1.315.41-2.63.615-3.944.157-.993.956-1.805 1.838-1.805H144.51c.229 0 .383.204.342.457l-.445 2.868c-.037.248-.26.457-.485.457h-3.629l-.342 2.197z" mask="url(#p)"/>
        </g>
        <g transform="translate(-6 -2)">
            <mask id="r" fill="#fff">
                <use xlink:href="#q"/>
            </mask>
            <path fill="#D13D43" d="M164.549 35.673l.1.01h3.158c.205 0 .39-.159.42-.363l.201-1.28c.029-.19-.088-.343-.271-.363l.002-.013h-1.562c-.955 0-1.521-.372-1.652-1.214a1.966 1.966 0 0 1-.041-.82c.427-2.732-.089.567.337-2.163.204-1.317.408-2.63.616-3.946.152-.993.953-1.805 1.833-1.805h6.048c.229 0 .384.206.346.458l-.449 2.867a.552.552 0 0 1-.326.424l-.096-.012h-3.16a.443.443 0 0 0-.422.361l-.203 1.282c-.024.188.092.344.274.362l-.004.017h1.567c.949-.002 1.512.368 1.648 1.214.069.242.086.52.039.815-.423 2.734.09-.564-.333 2.167-.208 1.317-.41 2.63-.614 3.945-.154.996-.953 1.803-1.837 1.803H164.122c-.229 0-.384-.205-.347-.454l.448-2.865a.561.561 0 0 1 .326-.427" mask="url(#r)"/>
        </g>
        <g transform="translate(-6 -2)">
            <mask id="t" fill="#fff">
                <use xlink:href="#s"/>
            </mask>
            <path fill="#2D3392" fill-rule="nonzero" d="M50.61 7.352l-2.278 14.796-7.682.006c-.661-.072-1.184-.59-1.461-1.55-.273-.963 1.612-10.99 1.846-13.255l4.092.002-1.368 9.076c-.032.29.085.795.418.8.413.005.556-.333.695-1.065.135-.733 1.322-8.808 1.322-8.808l4.416-.002z" mask="url(#t)"/>
        </g>
        <g transform="translate(-6 -2)">
            <mask id="v" fill="#fff">
                <use xlink:href="#u"/>
            </mask>
            <path fill="#2D3392" fill-rule="nonzero" d="M63.515 7.364c-1.083-.047-12.082-.066-12.082-.066v.005l-.008-.006-2.34 14.863 4.03.004 1.67-10.735s-.043-.01.178.01c.835.078.731.883.731.883l-1.47 9.842 3.752-.004 1.547-10.714h.101c.433.031.887.196.795.87-.092.677-1.491 9.837-1.491 9.837l4.495-.012s1.797-11.34 1.891-12.243c.089-.898-.228-2.46-1.799-2.534" mask="url(#v)"/>
        </g>
        <g transform="translate(-6 -2)">
            <mask id="x" fill="#fff">
                <use xlink:href="#w"/>
            </mask>
            <path fill="#2D3392" fill-rule="nonzero" d="M29.249 8.852c-.187-.675-.715-1.503-1.679-1.503-.422 0-7.273-.055-7.273-.055l-.522 3.594-1.832 11.272 3.878-.066 1.727-10.542h.273c.4 0 .637.467.567.863-.07.393-1.523 9.7-1.523 9.7h4.498l1.873-11.546s.201-1.038.013-1.717" mask="url(#x)"/>
        </g>
        <g transform="translate(-6 -2)">
            <mask id="z" fill="#fff">
                <use xlink:href="#y"/>
            </mask>
            <path fill="#2D3392" fill-rule="nonzero" d="M80.796 11.678h3.413l.656-4.317h-3.369c.335-2.084.676-4.513.676-4.513h-4.696s-2.398 15.771-2.488 16.308c-.092.537-.145 1.43.158 2.088.21.452.722.902 1.128.902h6.457l.719-4.683h-2.276c-.248 0-.695-.202-.903-.476-.134-.185-.203-.708-.158-1.044.019-.134.32-2.012.683-4.265" mask="url(#z)"/>
        </g>
        <g transform="translate(-6 -2)">
            <mask id="B" fill="#fff">
                <use xlink:href="#A"/>
            </mask>
            <path fill="#2D3392" fill-rule="nonzero" d="M86.715 6.308h4.38l.621-4.085h-4.381z" mask="url(#B)"/>
        </g>
        <g transform="translate(-6 -2)">
            <mask id="D" fill="#fff">
                <use xlink:href="#C"/>
            </mask>
            <path fill="#2D3392" fill-rule="nonzero" d="M39.398 11.014l.611-3.641h-5.11l-4.405-.006s-1.406 9.253-1.652 10.768c-.355 2.157.033 3.987 1.308 3.987.748 0 7.799-.011 7.799-.011l.712-4.73-4.3.02c-.509 0-.871-.546-.781-1.197l.068-.503h5.07l.503-3.316h-5.117c.066-.461.134-.925.2-1.37h5.094v-.001z" mask="url(#D)"/>
        </g>
        <g transform="translate(-6 -2)">
            <mask id="F" fill="#fff">
                <use xlink:href="#E"/>
            </mask>
            <path fill="#2D3392" fill-rule="nonzero" d="M18.822 8.868c.226.788.032 1.892.032 1.892l-1.522 9.542c-.829 2.26-4.502 1.715-6.064 1.725.224-1.455.487-3.255.681-4.709.36.018 1.932.225 2.33-.271.237-.295.518-2.385.756-4.09.1-.673-.337-1.274-.877-1.28-.452-.004-.887.412-.997 1.06-.774 4.983-1.551 11.171-2.276 16.187l-4.502-.02 3.14-21.557s6.18-.043 7.58-.013c1.087.023 1.493.748 1.719 1.534" mask="url(#F)"/>
        </g>
        <g transform="translate(-6 -2)">
            <mask id="H" fill="#fff">
                <use xlink:href="#G"/>
            </mask>
            <path fill="#2D3392" fill-rule="nonzero" d="M99.672 7.37c1.102 0 1.965.456 1.825 1.45-.095.705-.358 2.443-.733 4.698l-3.589.007c.722-2.783-1.223-2.276-1.401-1.118-.133.82-.519 3.444-.609 4.097-.089.65.22.963.623.96l5.029-.018-.778 4.706h-7.983c-.853-.009-1.849-1.119-1.601-2.532.134-.757 1.219-8.134 1.859-12.256l7.358.007" mask="url(#H)"/>
        </g>
        <g transform="translate(-6 -2)">
            <mask id="J" fill="#fff">
                <use xlink:href="#I"/>
            </mask>
            <path fill="#2D3392" fill-rule="nonzero" d="M68.45 7.304c-1.193.016-1.942.733-2.162 2.073l-.317 2.518 3.729.005s-.137-.626-.07-1.081c.072-.461.417-.403.5-.412a9.362 9.362 0 0 1 1.179-.015c.734.015.513.441.466.75l-.263 1.686-4.099.01c-1.212.015-1.968.727-2.19 2.07l-.792 5c-.03.203-.046.402-.046.582.008.44.116.805.324 1.082.281.373.726.565 1.324.568.521 0 7.818.03 7.818.03l1.981-12.644c.102-.673.007-1.213-.286-1.6-.314-.417-.828-.63-1.536-.633l-5.558.01h-.002zm.67 8.57l1.63-.002c.231-.023.25.17.234.274-.101.654-.266 1.693-.357 2.266a.415.415 0 0 1-.355.315c-.442.016-1.107.013-1.607.032-.093.004-.27-.022-.2-.304.107-.685.269-1.742.368-2.34.012-.094.188-.238.287-.24z" mask="url(#J)"/>
        </g>
        <g transform="translate(-6 -2)">
            <mask id="L" fill="#fff">
                <use xlink:href="#K"/>
            </mask>
            <path fill="#2D3392" fill-rule="nonzero" d="M52.374 34.114h-.008.008z" mask="url(#L)"/>
        </g>
        <g transform="translate(-6 -2)">
            <mask id="N" fill="#fff">
                <use xlink:href="#M"/>
            </mask>
            <path fill="#2D3392" fill-rule="nonzero" d="M59.413 23.904l-.951 5.842h-.399l.09.126c.163.276.223.586.223.872 0 .179-.024.34-.06.48l.025-.119-.973 6.19-.008.05c-.16.675-.464 1.233-.891 1.653l-.589.46c-.258.158-.699.247-1.32.261l-7.847-.023.832-5.415.131-.874.695-.004a2.366 2.366 0 0 1-.35-1.595l.813-5.425c.381-2.46 2.954-2.46 3.924-2.46l5.575-.014 1.08-.005zm-6.656 1.094c-1.447 0-2.845.228-3.054 1.584-.124.803-.518 3.37-.811 5.41-.067.464.216 1.054.677 1.054.461 0 2.219.008 2.784-.009.688-.021.643 1.41-.08 1.418-.522.002-2.309.002-3.856.021l-.64 4.147 6.783.02s.709-.016.916-.146c.094-.061.255-.154.428-.328.226-.223.472-.578.603-1.126l.966-6.14s.137-.547-.35-.558c-.581-.017-2.612.031-3.132.004-.969-.059-.623-1.667.183-1.68h3.559l.602-3.687c0 .002-5.121.016-5.578.016z" mask="url(#N)"/>
        </g>
        <g transform="translate(-6 -2)">
            <mask id="P" fill="#fff">
                <use xlink:href="#O"/>
            </mask>
            <path fill="#2D3392" fill-rule="nonzero" d="M89.693 23.903l4.811.001h5.809l-2.251 15.787-7.949.009c-.636 0-1.2-.32-1.59-.897-.6-.889-.774-2.34-.49-4.074l1.525-9.945.135-.881zm8.974 4.498l.564-3.37h-4.727l-4.075-.003s-1.299 8.556-1.53 9.958c-.327 1.996.034 3.69 1.214 3.69.688 0 7.212-.013 7.212-.013l.661-4.372-3.977.02c-.472 0-.808-.511-.724-1.111.007-.067.03-.238.061-.463h4.689l.466-3.07h-4.732c.061-.426.125-.853.182-1.266h4.716z" mask="url(#P)"/>
        </g>
        <g transform="translate(-6 -2)">
            <mask id="R" fill="#fff">
                <use xlink:href="#Q"/>
            </mask>
            <path fill="#2D3392" fill-rule="nonzero" d="M60.025 23.922h7.542c.951 0 1.628.26 2.066.8.233.285.508.793.508 1.596v.028c-.006.572-.164 1.474-.406 2.84l-.437 2.554-4.754.015-.089.624s-.075.483-.128.849l5.382-.018-1.08 6.492h-8.116c-.69-.004-1.382-.439-1.855-1.153a3.405 3.405 0 0 1-.485-2.48v-.002c.061-.334.351-2.27.689-4.506l1.027-6.765.136-.874zm.734 1.075c-.59 3.797-1.596 10.6-1.72 11.298-.231 1.303.694 2.326 1.485 2.334h7.381l.723-4.338-4.655.013c-.368.002-.659-.288-.576-.882.081-.603.469-3.019.56-3.777.242-1.974 2.028-1.903 1.454 1.033l3.168-.01c.347-2.08.67-3.675.677-4.335.011-1.007-.666-1.334-1.689-1.334l-6.808-.002z" mask="url(#R)"/>
        </g>
        <g transform="translate(-6 -2)">
            <mask id="T" fill="#fff">
                <use xlink:href="#S"/>
            </mask>
            <path fill="#2D3392" fill-rule="nonzero" d="M85.817 7.311l5.708.054-4.894 32.38-6-.006 5.047-31.551.139-.877zm.074 31.364l4.572-30.247-3.916-.035-4.844 30.273 4.188.009z" mask="url(#T)"/>
        </g>
        <path fill="#2D3392" fill-rule="nonzero" d="M68.149 22.974l5.147-.006c.653 0 1.133.198 1.419.58.271.361.362.861.267 1.487l-1.84 11.614-3.545.006s-3.205.055-3.687.055c-.555-.004-.968-.176-1.228-.527-.191-.256-.29-.593-.297-1a3.41 3.41 0 0 1 .043-.54l.733-4.627c.205-1.245.903-1.907 2.026-1.92 0 0 3.268-.005 3.793-.008l.245-1.558c.044-.29.249-.657-.43-.67-.262-.014-.767 0-1.092-.014-.077 0-.395-.045-.466.381-.062.422.068 1 .068 1l-3.457-.003.298-2.33c.203-1.242.896-1.906 1.999-1.92h.004zm.352 8.158c-.092.553-.241 1.532-.343 2.166-.064.26.098.284.186.282.472.017 1.174.046 1.534-.004.107-.002.236-.118.282-.318l.335-2.094c.013-.099-.003-.28-.221-.256l-1.509.002-.264.222zm-.352-9.231h-.012c-1.529.021-2.571 1.032-2.86 2.78l-.006.048-.454 3.57h.027a3.997 3.997 0 0 0-.551 1.508l-.734 4.635-.058.751c.011.677.192 1.268.526 1.715.434.578 1.067.873 1.877.878l3.705-.055 4.26-.009 1.982-12.486c.184-1.224-.16-1.986-.482-2.414-.464-.614-1.163-.928-2.07-.932l-5.15.01z"/>
    </g>
</svg>
