<svg xmlns="http://www.w3.org/2000/svg" width="24" height="24" viewBox="0 0 24 24">
    <path fill="#09c1de" fill-rule="evenodd" d="M18.72 21.36V8.379h.96v12.98A2.643 2.643 0 0 1 17.04 24H2.64A2.643 2.643 0 0 1 0 21.36V6.958a2.643 2.643 0 0 1 2.64-2.64h12.98v.96H2.64a1.683 1.683 0 0 0-1.68 1.68V21.36a1.683 1.683 0 0 0 1.68 1.68h14.4a1.683 1.683 0 0 0 1.68-1.68zM23.882.164A.49.49 0 0 1 24 .487v4.431h-.96V1.636L10.178 14.497a.49.49 0 1 1-.678-.678L22.362.958H19.08V0h4.487a.475.475 0 0 1 .315.164z"/>
</svg>
