<svg xmlns="http://www.w3.org/2000/svg" width="68" height="90" viewBox="0 0 68 90">
    <path fill="#000" fill-rule="nonzero" d="M67.479 6.798C67.249 3.54 65.053-.19 59.57.008c-2.32.085-5.278.737-8.41 1.428-3.503.773-7.425 1.631-10.929 1.786V1.928H18.042v2.654H5.902v9.108h1.47v.756h-.02v.12c-.657.276-2.187.613-3.067.807-.536.117-1.045.23-1.464.336-1.745.442-2.744 1.982-2.744 4.224L.056 37.25C.033 55.305 0 81.215 0 82.884 0 84.83 0 90 5.346 90h47.582c1.997 0 5.345-.925 5.345-7.116 0-1.67-.033-27.579-.055-45.634l-.021-17.317c0-2.243-1.001-3.782-2.745-4.224-.238-.06-.511-.124-.796-.188 2.05-.006 3.887-.106 7.125-.446 3.85-.404 5.955-4.61 5.698-8.277zm-47.29-2.716h17.895v.5H20.19v-.5zM8.05 6.736h42.174v4.8H8.048v-4.8zm1.47 6.954h39.235v.756H9.52v-.756zm46.53 6.242l.022 17.32c.022 18.054.056 43.963.056 45.632 0 4.962-2.324 4.962-3.199 4.962H5.346c-2.026 0-3.2-.811-3.2-4.962 0-1.669.033-27.578.056-45.632l.022-17.32c0-1.228.378-1.946 1.124-2.135.4-.102.884-.209 1.396-.32 2.457-.541 4.19-.93 4.646-1.924h39.492c.456.995 2.19 1.384 4.647 1.924.511.112.996.219 1.397.32.746.189 1.124.907 1.124 2.135zm5.508-6.999c-4.263.448-5.943.471-9.185.413V4.583h-5.749c1.707-.318 3.396-.688 4.998-1.042 3.034-.67 5.901-1.302 8.028-1.38 4.964-.196 5.607 3.62 5.689 4.79.188 2.676-1.286 5.72-3.78 5.982z"/>
</svg>
