<svg xmlns="http://www.w3.org/2000/svg" width="30" height="90" viewBox="0 0 30 90">
    <path fill="#000" fill-rule="nonzero" d="M29.67 31.2c.053-.267.177-.896-1.136-4.794-.657-1.95-1.803-4.35-2.726-5.709-.81-1.191-3.868-6.532-4.688-8.589-.444-1.115-.483-2.49-.447-3.38h1.037V1.564L20.865 0H8.872l-.814 1.541v7.187h.97c.036.89-.003 2.265-.447 3.38-.818 2.056-3.878 7.398-4.687 8.59-.923 1.357-2.07 3.758-2.727 5.708C-.146 30.305-.026 30.91.031 31.199c.082.417.279.7.465.892l.042 20.985a2.189 2.189 0 0 0-.37 1.065c-.18 2.192.145 2.617.284 2.8.082.104.168.188.255.259-.006.381.032.88.309 1.315l.08.124.113.178c.01.399.03.785.153 1.121.07.193.186.407.297.602l.043.077-.003.044c-.016.297-.035.668.094 1.011.069.18.163.536.175.66.007.068.006.14.007.216.003.234.009.493.062.792.055.303.083.502.091.701-.002.076-.022.162-.036.247-.034.191-.072.41-.063.63.011.292.091.508.16.664.006.126.009.314.009.434-.095.36-.141.627-.113.882.02.185.07.324.1.376a4.99 4.99 0 0 0 .014.34c-.143.296-.248.688-.215 1.055.01.126.041.285.072.434l.022.054c0 .048-.004.174-.016.278a3.014 3.014 0 0 0-.291.826c-.05.303.006.557.066.737-.005.038-.01.078-.019.115-.184.275-.292.591-.323.944a3.295 3.295 0 0 0 .03.617l-.15.354-.099.235c-.111.27-.133.576-.146.855-.166.198-.348.451-.434.692-.093.258-.101.53-.108.818 0 .025 0 .051-.002.076-.237.403-.424.776-.407 1.177.001.093-.01.35-.023.641-.05 1.21-.048 1.341.013 1.555l.026.109c.037.158.087.378.164.625.103.33 1.057 3.02 1.888 5.188.317.827 1.377 2.93 1.905 3.515.619.685 1.496 1.096 2.683 1.258l.466.067c1.031.156 2.097.316 3.19-.138 1.067-.445 2.07-.897 2.62-1.502.154-.17.21-.182.538-.26.218-.053.847-.06 1.18-.066a7.44 7.44 0 0 1 1.177.112c.424.076.491.114.554.188.519.61 1.424 1.018 2.647 1.529a4.035 4.035 0 0 0 1.588.298c.541 0 1.075-.08 1.6-.16l.467-.067c1.185-.162 2.063-.573 2.682-1.258.526-.583 1.585-2.686 1.904-3.514.766-1.99 1.777-4.835 1.889-5.19.078-.25.13-.473.165-.63l.023-.099c.062-.218.063-.348.014-1.55-.012-.294-.024-.554-.023-.636.017-.4-.156-.761-.407-1.19 0-.026 0-.053-.002-.08-.008-.286-.016-.556-.108-.815-.087-.243-.27-.497-.434-.693-.012-.28-.034-.585-.146-.854L28.307 73l-.137-.324.006-.056a3.34 3.34 0 0 0 .024-.564 1.969 1.969 0 0 0-.322-.94A2.34 2.34 0 0 1 27.86 71c.058-.171.117-.428.067-.735a3.045 3.045 0 0 0-.292-.826c-.01-.096-.016-.2-.02-.2l.025-.133c.032-.15.063-.312.074-.437.032-.367-.074-.759-.216-1.055 0-.017.002-.033.003-.05.006-.099.01-.198.012-.257.03-.084.08-.223.1-.408.027-.258-.021-.527-.113-.875 0-.12.003-.313.009-.44.06-.135.147-.358.16-.663.007-.223-.03-.439-.063-.628-.015-.085-.035-.171-.037-.238.007-.213.037-.412.091-.714.058-.32.06-.595.063-.795 0-.076 0-.147.007-.215.011-.121.105-.477.174-.658.129-.342.11-.712.094-1.01a3.447 3.447 0 0 0-.003-.044l.045-.077c.11-.195.226-.41.297-.602.123-.335.143-.721.152-1.12l.11-.172.085-.132c.277-.435.314-.933.307-1.314.085-.07.175-.156.256-.263.139-.181.463-.605.283-2.798a2.188 2.188 0 0 0-.37-1.064l.042-20.983c.185-.188.387-.472.47-.893zM10.164 2.137h9.441v4.456h-9.44V2.136zM5.627 21.91c.869-1.278 4.025-6.789 4.907-9.001.57-1.43.639-3.082.601-4.181h7.43c-.036 1.098.032 2.75.602 4.18.882 2.213 4.038 7.724 4.907 9 .814 1.198 1.875 3.429 2.467 5.188.639 1.895.939 3.055 1.031 3.497H2.146c.098-.525.398-1.67 1.013-3.497.594-1.76 1.654-3.989 2.468-5.186zM2.642 52.425l-.04-19.695H27.1l-.04 19.695H2.642zm24.239 4.608c.005.107.008.32.037.322l-.082.129c-.224.349-.346.542-.409.819a2.12 2.12 0 0 0-.04.448 5.292 5.292 0 0 1-.02.442c-.033.09-.094.186-.146.276-.126.22-.255.448-.305.714-.038.2-.028.39-.017.593.004.073.011.151.01.22-.103.296-.239.783-.271 1.128a4.964 4.964 0 0 0-.017.395c-.001.129 0 .273-.029.436-.068.381-.113.686-.124 1.026a3.28 3.28 0 0 0 .068.68l.023.12a1.607 1.607 0 0 0-.135.495c-.001.007-.056.827 0 1.114l.028.109c.01.042.032.114.048.187-.042.132-.09.328-.09.587l-.007.16c-.02.319-.046.754.203 1.13-.007.032-.015.065-.02.098a2.394 2.394 0 0 0-.068.496c0 .897.207 1.196.246 1.247l.04.084a1.421 1.421 0 0 0-.046.62c.05.423.115.83.344 1.154-.003.039-.009.082-.014.124-.03.275-.06.56.046.862.032.089.144.356.243.59l.079.189c.01.08.01.177.015.263.015.356.03.723.348 1.049.048.048.126.138.186.21l.002.137c.01.31.017.577.15.847.02.043.06.114.113.203.043.072.104.168.148.258.003.154.011.38.02.623.016.376.036.804.034 1.005l-.018.07a5.49 5.49 0 0 1-.124.473c-.087.28-1.072 3.059-1.842 5.057-.339.88-1.263 2.577-1.495 2.847-.174.192-.508.462-1.41.584l-.496.072c-.818.125-1.524.23-2.078 0-.567-.238-1.623-.678-1.855-.95-.577-.678-1.3-.808-1.778-.894a9.672 9.672 0 0 0-1.603-.144c-.638.008-1.198.023-1.668.137-.377.09-.948.226-1.54.876-.281.31-1.399.777-1.876.975-.553.232-1.259.126-2.078.001l-.495-.072c-.903-.122-1.238-.392-1.41-.582-.235-.274-1.16-1.97-1.496-2.848a168.71 168.71 0 0 1-1.842-5.058 5.915 5.915 0 0 1-.122-.467l-.019-.08c0-.205.019-.635.035-1.01.01-.24.018-.46.02-.615.044-.09.106-.185.148-.257.053-.088.094-.161.118-.209.13-.266.137-.531.146-.838 0-.047.002-.095.003-.14.06-.072.14-.163.19-.215.314-.32.33-.69.344-1.045.003-.086.003-.184.014-.263l.066-.156c.103-.244.225-.533.258-.63.103-.294.073-.58.043-.856l-.015-.121c.23-.327.298-.752.352-1.206a1.254 1.254 0 0 0-.055-.573l.012-.034c.075-.107.275-.396.275-1.294 0-.172-.032-.33-.068-.497l-.023-.108c.25-.386.224-.807.205-1.119l-.007-.159c0-.252-.044-.444-.09-.586.017-.073.038-.146.049-.188l.027-.112c.058-.276.001-1.104 0-1.115a1.655 1.655 0 0 0-.133-.49c.006-.04.015-.083.022-.125.034-.202.074-.43.067-.676a6.86 6.86 0 0 0-.124-1.025c-.029-.163-.027-.306-.029-.435a4.194 4.194 0 0 0-.017-.397c-.032-.345-.168-.833-.27-1.128-.002-.069.005-.147.009-.22.01-.203.02-.393-.016-.59-.05-.27-.18-.498-.306-.717-.051-.091-.113-.188-.137-.246-.021-.091-.027-.358-.03-.472a2.146 2.146 0 0 0-.039-.446c-.063-.282-.18-.464-.413-.829l-.038-.04c-.02-.078-.008-.299-.003-.405.01-.203.02-.395-.032-.606a1.29 1.29 0 0 0-.554-.77c-.012-.278-.005-.704.018-1.096h25.196c.022.382.028.811.016 1.093-.2.136-.454.37-.555.773a2.164 2.164 0 0 0-.025.607z"/>
</svg>
