<svg xmlns="http://www.w3.org/2000/svg" width="31" height="90" viewBox="0 0 31 90">
    <path fill="#000" fill-rule="nonzero" d="M26.884 19.4c-.94-3.838-1.912-7.805-2.019-8.408V9.047h1.148V1.476L24.753 0H5.907L4.694 1.452v7.594h1.04v1.945c-.106.603-1.078 4.57-2.018 8.408C1.096 30.092 0 34.682 0 35.429V41.446h.055c.065.214.214.502.563.901-.618.66-.618.996-.618 1.22v5.893c0 .203 0 .57.618 1.277-.618.66-.618.996-.618 1.22v5.893h.055c.065.213.214.501.563.9C0 59.41 0 59.748 0 59.972v5.892c0 .203 0 .57.618 1.276C0 67.8 0 68.136 0 68.36v5.892h.055c.065.214.214.502.563.901C0 75.813 0 76.15 0 76.373v7.585C0 86.492 1.294 90 3.721 90H26.88c2.427 0 3.721-3.508 3.721-6.042v-7.584c0-.225 0-.56-.618-1.22.35-.4.498-.688.563-.902h.055V68.36c0-.224 0-.56-.618-1.22.618-.708.618-1.074.618-1.277v-5.892c0-.224 0-.56-.618-1.22.35-.4.498-.688.563-.901h.055v-5.893c0-.224 0-.56-.618-1.22.618-.707.618-1.074.618-1.277v-5.892c0-.225 0-.561-.618-1.22.35-.4.498-.688.563-.902h.055V35.43c.001-.746-1.095-5.336-3.716-16.03zM6.807 2.212l.09-.11h16.879l.124.145v4.697H6.807V2.212zm-4.2 41.16h25.385a6.9 6.9 0 0 1 .495.468v5.391a4.582 4.582 0 0 1-.353.385H2.466a4.432 4.432 0 0 1-.353-.385V43.84c.112-.124.3-.299.494-.468zm25.881 13.872c-.08.103-.214.248-.374.406H2.486a4.94 4.94 0 0 1-.374-.406v-5.016a7.46 7.46 0 0 1 .543-.51h25.29c.202.175.415.37.542.51v5.016h.001zm0 8.39c-.074.094-.189.22-.332.363H2.444a4.42 4.42 0 0 1-.332-.363v-5.392c.117-.128.316-.312.519-.49h25.336c.203.177.402.362.519.49v5.392h.002zm0 8.013c-.095.122-.262.3-.457.489H2.569a5.404 5.404 0 0 1-.457-.49v-5.015c.127-.138.348-.342.568-.531h25.24c.22.188.44.392.567.531v5.016h.001zm0 10.311c0 1.993-1.018 3.94-1.608 3.94H3.72c-.59 0-1.608-1.947-1.608-3.94v-7.314c.1-.108.257-.256.424-.407h25.528c.164.147.322.295.424.407v7.314h-.001zm0-43.116a4.966 4.966 0 0 1-.395.426H2.508a5.117 5.117 0 0 1-.395-.426V35.457c.064-.901 2.225-9.722 3.657-15.559 1.912-7.804 2.079-8.542 2.079-8.84v-2.01h14.904v2.01c0 .298.167 1.036 2.08 8.84 1.43 5.837 3.591 14.658 3.656 15.532v5.412h-.001z"/>
</svg>
