<svg xmlns="http://www.w3.org/2000/svg" width="55" height="90" viewBox="0 0 55 90">
    <path fill="#000" fill-rule="nonzero" d="M27.45 0C13.957 0 0 3.569 0 9.543v70.913C0 86.431 13.957 90 27.45 90c13.493 0 27.45-3.569 27.45-9.543V9.543C54.9 3.569 40.943 0 27.45 0zm0 1.591c12.227 0 25.85 3.266 25.85 7.953s-13.623 7.952-25.85 7.952c-12.227 0-25.85-3.266-25.85-7.953s13.623-7.952 25.85-7.952zm25.837 11.281c-.284 4.607-13.74 7.805-25.837 7.805S1.897 17.479 1.613 12.872c4.042 3.945 15.082 6.215 25.837 6.215 10.754 0 21.795-2.27 25.837-6.215zM34.348 70.085a78.543 78.543 0 0 1-6.898.298c-14.157 0-26.117-3.763-26.117-8.218V32.984c3.246 3.883 13.56 6.648 26.117 6.648 2.342 0 4.66-.099 6.9-.294l-.002 30.747zM27.45 88.409c-12.097 0-25.553-3.198-25.837-7.805 4.042 3.945 15.082 6.215 25.837 6.215 10.754 0 21.795-2.269 25.837-6.215-.284 4.607-13.74 7.805-25.837 7.805zm0-3.181c-12.227 0-25.85-3.266-25.85-7.953v-8.349c4.03 3.954 15.083 6.229 25.85 6.229 10.766 0 21.82-2.274 25.85-6.228v8.349c0 4.686-13.623 7.952-25.85 7.952zm0-11.664c-12.227 0-25.85-3.266-25.85-7.953v-.396c1.102 1.081 2.728 2.037 4.732 2.854l.263.107.291.115c4.692 1.841 11.515 3.024 19.29 3.141a77.292 77.292 0 0 0 4.747-.069c.247-.011.49-.024.737-.037a77.94 77.94 0 0 0 2.446-.172c.274-.023.556-.032.827-.058l.481-.047v-.02c7.862-.821 14.857-2.843 17.886-5.814v.396c0 4.687-13.623 7.953-25.85 7.953zm7.965-4.15v-2.096c7.862-.821 14.857-2.843 17.886-5.814v.396c0 3.675-8.376 6.475-17.886 7.514zm0-3.712v-2.096c7.862-.821 14.857-2.843 17.886-5.814v.396c0 3.675-8.376 6.476-17.886 7.514zm0-3.711v-2.096c7.862-.821 14.857-2.843 17.886-5.814v.396c0 3.675-8.376 6.475-17.886 7.514zm0-3.711V47.171c7.862-.821 14.856-2.843 17.886-5.814v9.409c0 3.674-8.376 6.475-17.886 7.514zm.001-12.725v-2.096c7.862-.821 14.856-2.843 17.886-5.814v.396c-.001 3.675-8.377 6.475-17.886 7.514zm0-3.711v-2.096c7.862-.821 14.856-2.843 17.885-5.814v.396c0 3.674-8.375 6.475-17.885 7.514zm-4.782-3.346a79.82 79.82 0 0 1-3.184.073c-.385 0-.768-.004-1.15-.01-11.915-.196-24.7-3.403-24.7-7.943v-.396c4.03 3.953 15.084 6.228 25.85 6.228 10.766 0 21.82-2.274 25.85-6.228v.396c0 4.283-11.376 7.378-22.666 7.88zM27.45 34.86c-12.227 0-25.85-3.266-25.85-7.953v-.396c4.03 3.953 15.084 6.228 25.85 6.228 10.766 0 21.82-2.274 25.85-6.228v.396c0 4.687-13.623 7.953-25.85 7.953zm0-3.711c-12.227 0-25.85-3.266-25.85-7.953V16.04c4.03 3.953 15.084 6.228 25.85 6.228 10.766 0 21.82-2.274 25.85-6.228v7.156c0 4.687-13.623 7.953-25.85 7.953zm0-15.456c-12.135 0-21.64-2.701-21.64-6.15 0-3.449 9.505-6.15 21.64-6.15 12.134 0 21.64 2.701 21.64 6.15 0 3.449-9.506 6.15-21.64 6.15zm0-11.664c-12.562 0-21 2.852-21 5.515s8.438 5.514 21 5.514 21-2.852 21-5.515-8.438-5.514-21-5.514zm0 9.544c-7.907 0-16.31-1.413-16.31-4.03s8.403-4.029 16.31-4.029c7.907 0 16.31 1.413 16.31 4.03s-8.403 4.029-16.31 4.029zm0-7.423c-9.235 0-15.67 1.789-15.67 3.394 0 1.605 6.435 3.393 15.67 3.393s15.67-1.789 15.67-3.394c0-1.605-6.435-3.393-15.67-3.393zm0 5.567c-3.798 0-10.98-.454-10.98-2.174s7.182-2.174 10.98-2.174 10.98.455 10.98 2.174c0 1.72-7.182 2.174-10.98 2.174zm0-3.711c-6.69 0-10.34 1.016-10.34 1.538s3.65 1.538 10.34 1.538c6.69 0 10.34-1.016 10.34-1.538s-3.65-1.538-10.34-1.538z"/>
</svg>
