<svg xmlns="http://www.w3.org/2000/svg" width="26" height="90" viewBox="0 0 26 90">
    <path fill="#000" fill-rule="nonzero" d="M25.199 60.126v-3.044c0-.425-.216-.743-.497-1.022.21-.199.384-.472.384-.854v-3.043c0-.487-.28-.833-.621-1.14.107-.163.188-.361.188-.606V49.39c.383-.276.434-.658.434-.84V46.52c0-.14 0-.528-.332-.918-.24-.585-.987-2.884-1.3-3.946.118-.158.209-.367.209-.635l-.01-.932c-.007-.662-.016-1.46-.016-1.588 0-.052-.006-.17-.048-.314.185-.34.415-.805.723-1.451l.09-.186c.363-.753.422-1.238.422-2.107V16.396L17.91 10V8.494h.904V1.532L18.064 0H7.224l-.725 1.507v6.988h.79v1.507L.374 16.397v18.048c0 .87.06 1.354.422 2.106l.09.188c.309.646.538 1.11.723 1.45a1.158 1.158 0 0 0-.048.314c0 .128-.009.926-.017 1.588l-.009.932c0 .266.09.474.209.633-.314 1.06-1.059 3.357-1.3 3.946-.332.389-.332.778-.332.92v2.028c0 .18.05.55.434.831v1.037c0 .245.08.443.188.605-.34.308-.621.654-.621 1.14v3.044c0 .382.173.655.383.854-.281.279-.496.597-.496 1.022v3.044c0 .419.207.706.443.908-.24.247-.443.552-.443.967v3.043c0 .418.207.706.442.907-.255.267-.442.571-.442.968v3.044c0 .418.207.706.443.909-.252.265-.443.573-.443.966v3.043c0 .418.208.706.443.909-.252.265-.443.574-.443.967v3.043c0 .419.207.707.443.908-.252.265-.443.574-.443.967v3.53C0 87.196.89 90 2.868 90H22.33c1.98 0 2.87-2.803 2.87-4.794v-3.53c0-.393-.191-.702-.443-.967.236-.202.443-.49.443-.908v-3.043c0-.393-.191-.702-.443-.967.235-.203.443-.49.443-.909V71.84c0-.394-.191-.701-.443-.966.236-.203.443-.49.443-.91V66.92c0-.397-.188-.7-.442-.968.235-.201.442-.49.442-.907v-3.043c0-.393-.191-.702-.443-.967.235-.202.442-.49.442-.909zm-2.235-2.91c.071.059.148.118.214.175v2.266c-.061.035-.13.088-.197.132H2.225a3.314 3.314 0 0 0-.205-.132V57.39c.066-.057.143-.116.213-.175.083-.069.165-.138.243-.208h20.246c.077.07.159.138.242.208zm0 4.918c.07.059.147.118.214.176v2.266c-.117.066-.25.15-.379.256h-.625v.013H3.024v-.013H2.4a2.74 2.74 0 0 0-.38-.256v-2.259l.077-.065c.147-.125.31-.276.455-.45h20.044c.116.114.238.223.368.332zm0 4.919c.071.058.148.117.214.175v2.266c-.033.02-.07.05-.105.072H2.126c-.035-.021-.072-.053-.105-.072v-2.266c.066-.058.143-.117.213-.175.078-.065.154-.13.23-.197h20.274c.073.066.148.132.226.197zm0 4.917c.07.06.147.118.214.177v2.267c-.044.025-.095.066-.143.096H2.163c-.048-.03-.099-.07-.143-.096v-2.267c.066-.059.144-.118.214-.177.154-.127.299-.256.426-.392h19.878c.128.136.272.265.425.392zm0 4.92c.07.06.147.119.214.177v2.266c-.089.051-.19.122-.29.195H2.308a2.986 2.986 0 0 0-.288-.195v-2.266c.066-.058.144-.117.214-.177.146-.12.28-.241.402-.368h19.925c.123.127.258.248.402.368zM2.5 54.994a2.768 2.768 0 0 0-.367-.255v-2.267c.066-.059.143-.118.214-.177a7.15 7.15 0 0 0 .241-.208h20.019c.078.07.159.139.243.21.07.058.147.117.213.176v2.266c-.113.065-.24.154-.366.255H2.5zm20.13-4.972c-.02.016-.037.037-.056.054H2.62c-.018-.017-.036-.037-.054-.053v-.16H22.63v.16zm-20.498-2.17v-.492h20.93v.491H2.133zm.538-2.504c.34-.977.693-2.186.933-3.038h17.992c.238.853.593 2.062.93 3.038H2.671zM22.803 17.84v16.604l-.002.09H2.397l-.002-.09V17.84h20.408zM3.563 40.298l.002-.187.008-.769h18.052l.008.77.002.186H3.563zm18.599-3.752c-.145.291-.292.577-.408.785H3.444a18.28 18.28 0 0 1-.408-.785h19.126zM8.52 2.012h8.269v4.472H8.52V2.012zm.789 8.867V8.495h6.576v2.384l5.353 4.95H3.957l5.353-4.95zm13.868 74.327c0 1.496-.623 2.671-.85 2.782l-19.413.008c-.274-.119-.896-1.295-.896-2.79v-3.222c.066-.058.144-.117.215-.176.107-.089.211-.177.309-.268h20.111c.098.09.2.178.308.268.072.06.149.119.216.176v3.222z"/>
</svg>
