<?xml version="1.0" encoding="UTF-8"?>
<svg width="50px" height="66px" viewBox="0 0 50 66" version="1.1" xmlns="http://www.w3.org/2000/svg" xmlns:xlink="http://www.w3.org/1999/xlink">
    <!-- Generator: sketchtool 49.3 (51167) - http://www.bohemiancoding.com/sketch -->
    <title>91570889-0E16-4A24-B762-88E5E03DA1D7</title>
    <desc>Created with sketchtool.</desc>
    <defs></defs>
    <g id="Page-1" stroke="none" stroke-width="1" fill="none" fill-rule="evenodd">
        <g id="AFR_supply-of-equipment" transform="translate(-1214.000000, -3108.000000)" fill-rule="nonzero">
            <g id="1_3-copy" transform="translate(1214.000000, 3108.000000)">
                <polygon id="Shape" fill="#DFBF00" points="15.2713115 0.081113101 15.2713115 25.6114616 27.5352459 25.6114616 27.5352459 17.4022868 35.5557377 17.4022868"></polygon>
                <rect id="Rectangle-path" fill="#005EA0" x="38.4163934" y="37.0766221" width="4.54098361" height="12.899628"></rect>
                <rect id="Rectangle-path" fill="#005EA0" x="0.771311475" y="20.827552" width="12.2393443" height="4.78567296"></rect>
                <rect id="Rectangle-path" fill="#005EA0" x="45.2393443" y="37.0766221" width="4.54098361" height="12.899628"></rect>
                <path d="M27.5114754,27.8217936 L15.2934426,27.8217936 L15.2713115,27.9928365 C15.2713115,40.1121918 24.6532787,49.9753685 36.1565574,49.9753685 L36.2016393,49.9753685 L36.2016393,37.0757405 L36.0172131,37.0757405 C31.3377049,37.0757405 27.5114754,33.044772 27.5114754,28.1118611 L27.5114754,27.8217936" id="Shape" fill="#CD123D"></path>
                <path d="M45.1934426,63.7963356 L45.0762295,64.1851495 L45.1934426,64.1851495 L45.1934426,63.7963356 M36.5483607,61.4890205 L36.1795082,61.4890205 L35.7409836,62.9719796 C35.6721311,63.2373605 35.5336066,63.4577766 35.35,63.6261744 C35.1639344,63.7963356 34.9803279,63.895082 34.7737705,63.895082 C34.5663934,63.895082 34.4278689,63.8210222 34.357377,63.6764293 C34.3114754,63.530073 34.3114754,63.3114203 34.404918,63.0204711 L34.8196721,61.4899022 L34.45,61.4899022 L34.0352459,62.9966662 C33.897541,63.4322083 33.897541,63.7496074 33.9901639,63.9435735 C34.0811475,64.1366579 34.2663934,64.2583276 34.5885246,64.2583276 C34.7737705,64.2583276 34.9336066,64.2098361 35.0959016,64.1137347 C35.257377,64.0396749 35.395082,63.9171236 35.5565574,63.7231575 L35.4409836,64.1860311 L35.8336066,64.1860311 C35.8557377,64.01587 35.9032787,63.8695137 35.9254098,63.7231575 C35.9721311,63.5768012 36.0172131,63.4322083 36.0409836,63.3361069 L36.5483607,61.4890205 M45.307377,61.4890205 L45.192623,61.4890205 L45.192623,61.8540295 L45.2147541,61.8540295 L45.307377,61.4890205 M46.2057377,61.4890205 L45.8606557,61.4890205 L45.1934426,63.7963356 L45.1934426,64.1851495 L45.4696721,64.1851495 L46.2057377,61.5383937 L46.2057377,61.4890205 M46.2286885,61.4890205 L46.2057377,61.4890205 L46.2057377,61.5392754 L46.2286885,61.4890205 M27.0508197,61.8769527 C27.142623,61.8302245 27.2352459,61.8064196 27.3491803,61.8064196 C27.5803279,61.8064196 27.7418033,61.902521 27.8106557,62.0735639 C27.9016393,62.2666483 27.9016393,62.5091059 27.7877049,62.85031 C27.6959016,63.1650641 27.557377,63.4322083 27.3737705,63.6041328 C27.2803279,63.7231575 27.1655738,63.7972172 27.05,63.8448271 C26.9581967,63.868632 26.8655738,63.895082 26.75,63.895082 C26.5196721,63.895082 26.3581967,63.7972172 26.2893443,63.6041328 C26.1967213,63.4322083 26.1967213,63.1650641 26.3122951,62.8256234 C26.3811475,62.5346742 26.5188525,62.2657666 26.7262295,62.0973688 C26.8204918,61.9986224 26.9352459,61.902521 27.0508197,61.8769527 M27.5344262,61.4396473 C27.3745902,61.4396473 27.2114754,61.4652156 27.0508197,61.5621986 C26.8901639,61.6344951 26.7270492,61.7588098 26.5901639,61.9272076 L26.6819672,61.5137071 L26.2901639,61.5137071 C26.2672131,61.6115718 26.242623,61.7323598 26.2196721,61.8549111 C26.197541,61.9756991 26.1508197,62.0973688 26.104918,62.2666483 L25.2754098,65.2061165 L25.642623,65.2061165 L26.0352459,63.8219038 C26.1040984,63.9682601 26.1959016,64.0890481 26.3122951,64.1613445 C26.4262295,64.2354043 26.5655738,64.2592093 26.7262295,64.2592093 C26.8418033,64.2592093 26.9344262,64.2354043 27.05,64.2107177 C27.257377,64.1604629 27.4172131,64.0405566 27.6032787,63.8695137 C27.8565574,63.6270561 28.0639344,63.285852 28.1795082,62.85031 C28.295082,62.4130045 28.3180328,62.0735639 28.1795082,61.8311062 C28.0647541,61.561317 27.8565574,61.4396473 27.5344262,61.4396473 M30.392623,61.4396473 C30.1852459,61.4396473 30.0245902,61.4899022 29.8631148,61.5621986 C29.702459,61.6600634 29.5393443,61.7808514 29.3786885,61.9756991 L29.4942623,61.4899022 L29.1245902,61.4899022 C29.0803279,61.68475 29.0557377,61.8311062 29.0098361,61.9756991 C28.9647541,62.1202921 28.9409836,62.2666483 28.9180328,62.3627497 L28.3885246,64.1860311 L28.7803279,64.1860311 L29.1959016,62.703072 C29.2647541,62.4359278 29.4032787,62.2172751 29.5885246,62.0488773 C29.7729508,61.8769527 29.9811475,61.8064196 30.2098361,61.8064196 C30.395082,61.8064196 30.5336066,61.8769527 30.5795082,62.023309 C30.6483607,62.144097 30.6254098,62.388318 30.5327869,62.6810304 L30.1172131,64.1860311 L30.4868852,64.1860311 L30.947541,62.6069707 C31.0385246,62.2181568 31.0622951,61.9272076 30.9696721,61.7323598 C30.8778689,61.5392754 30.6918033,61.4396473 30.392623,61.4396473 M32.5836066,61.8064196 L32.7909836,61.7808514 C32.9983607,61.7808514 33.1590164,61.8549111 33.2278689,61.9995041 C33.297541,62.144097 33.3204918,62.3389448 33.2278689,62.6069707 L33.2278689,62.6290123 L32.5836066,62.6290123 L31.8909836,62.6290123 C31.9606557,62.361868 32.0983607,62.1696652 32.2598361,62.0224273 C32.352459,61.9263259 32.4680328,61.8540295 32.5836066,61.8064196 M32.9508197,61.4396473 C32.8131148,61.4396473 32.697541,61.4396473 32.5836066,61.4899022 C32.3754098,61.540157 32.1909836,61.6600634 32.007377,61.8311062 C31.7303279,62.0982504 31.5459016,62.4376911 31.4081967,62.8749966 C31.292623,63.312302 31.292623,63.6517427 31.4081967,63.8959636 C31.5229508,64.1366579 31.7532787,64.2592093 32.0770492,64.2592093 C32.2606557,64.2592093 32.4434426,64.2354043 32.5836066,64.1869128 C32.6983607,64.1366579 32.7909836,64.0890481 32.8598361,64.0405566 C33.0901639,63.8959636 33.2516393,63.6517427 33.3663934,63.3607935 L32.9745902,63.3607935 C32.904918,63.5309547 32.7901639,63.6773109 32.6745902,63.7496074 L32.5836066,63.8219038 C32.4680328,63.8703954 32.352459,63.8959636 32.2139344,63.8959636 C32.007377,63.8959636 31.8467213,63.8219038 31.7770492,63.6517427 C31.6852459,63.4815815 31.6852459,63.2646921 31.7770492,62.9728613 L32.5836066,62.9728613 L33.5270492,62.9728613 L33.5270492,62.8988015 L33.5516393,62.826505 C33.6893443,62.3891996 33.6893443,62.0241907 33.5967213,61.8073013 C33.4827869,61.561317 33.2745902,61.4396473 32.9508197,61.4396473 M40.0508197,61.4396473 C39.8672131,61.4396473 39.7057377,61.4899022 39.5442623,61.5860036 C39.3836066,61.6838683 39.2221311,61.8302245 39.0598361,62.023309 C39.0598361,61.8302245 38.9918033,61.6838683 38.8991803,61.5860036 C38.7836066,61.4899022 38.6459016,61.4396473 38.4385246,61.4396473 C38.2770492,61.4396473 38.1385246,61.4899022 37.9778689,61.5860036 C37.8393443,61.6600634 37.7008197,61.8064196 37.5631148,61.9748175 L37.6786885,61.4890205 L37.2860656,61.4890205 C37.2631148,61.6838683 37.2172131,61.8302245 37.1713115,61.9748175 C37.1483607,62.1194104 37.102459,62.2657666 37.0795082,62.361868 L36.5721311,64.1851495 L36.9418033,64.1851495 L37.3565574,62.7021904 C37.447541,62.4350461 37.5639344,62.2163934 37.7483607,62.0479956 C37.9090164,61.8760711 38.0942623,61.805538 38.3016393,61.805538 C38.4868852,61.805538 38.5786885,61.8760711 38.6237705,62.0224273 C38.6721311,62.1687836 38.6721311,62.3874363 38.5786885,62.6801488 L38.1401639,64.1851495 L38.5327869,64.1851495 L38.947541,62.7021904 C39.0172131,62.4350461 39.1557377,62.2163934 39.3172131,62.0479956 C39.5008197,61.8760711 39.6852459,61.805538 39.892623,61.805538 C40.0532787,61.805538 40.1704918,61.8760711 40.2163934,62.0224273 C40.2622951,62.1687836 40.2393443,62.3874363 40.1704918,62.6801488 L39.7319672,64.1851495 L40.1016393,64.1851495 L40.5852459,62.5337925 C40.6762295,62.1925885 40.6762295,61.9263259 40.5852459,61.7314782 C40.4893443,61.5392754 40.3286885,61.4396473 40.0508197,61.4396473 M41.9647541,62.8494283 L42.2409836,62.8494283 L42.6795082,62.8494283 L42.6795082,62.8979198 L42.6565574,62.9719796 C42.5647541,63.2629288 42.4491803,63.4798182 42.2639344,63.650861 C42.1721311,63.7231575 42.0803279,63.7972172 41.9647541,63.8457088 C41.8737705,63.8695137 41.7811475,63.8959636 41.6647541,63.8959636 C41.5040984,63.8959636 41.3885246,63.8457088 41.3188525,63.7496074 C41.2508197,63.6773109 41.2278689,63.5309547 41.2737705,63.3845984 C41.3418033,63.191514 41.4352459,63.0451577 41.5729508,62.9728613 C41.6647541,62.9217248 41.804918,62.8732332 41.9647541,62.8494283 M42.5409836,61.4396473 C42.3336066,61.4396473 42.1491803,61.4652156 41.9647541,61.5621986 L41.8262295,61.6600634 C41.6188525,61.7808514 41.4581967,61.9995041 41.3885246,62.2419617 L41.7811475,62.2419617 C41.8262295,62.1194104 41.8959016,62.023309 41.9647541,61.9510125 L42.0114754,61.902521 C42.1270492,61.8302245 42.2647541,61.8064196 42.4262295,61.8064196 C42.6114754,61.8064196 42.7254098,61.8549111 42.7942623,61.9748175 C42.8647541,62.0726822 42.8418033,62.2657666 42.7942623,62.4844193 L42.3336066,62.4844193 C42.2180328,62.4844193 42.0803279,62.5082243 41.9647541,62.5082243 C41.7336066,62.5567158 41.5262295,62.606089 41.3663934,62.703072 C41.1352459,62.8494283 40.997541,63.068081 40.904918,63.3828351 C40.8122951,63.6499793 40.8368852,63.868632 40.952459,64.0149883 C41.0434426,64.1851495 41.2286885,64.2574459 41.504918,64.2574459 C41.6655738,64.2574459 41.8278689,64.233641 41.9655738,64.1595812 L41.9885246,64.1357763 C42.1270492,64.0634798 42.2877049,63.9426918 42.4491803,63.7707673 L42.3336066,64.1860311 L42.702459,64.1860311 C42.702459,64.1137347 42.7245902,64.01587 42.7483607,63.9171236 C42.7942623,63.8210222 42.8172131,63.6984709 42.8409836,63.6041328 L43.1393443,62.5091059 C43.2557377,62.1696652 43.2557377,61.902521 43.1393443,61.7085549 C43.0491803,61.5392754 42.8418033,61.4396473 42.5409836,61.4396473 M44.9385246,60.7845709 L44.5,61.0270285 L44.3622951,61.4881389 L43.8778689,61.4881389 L43.7631148,61.8531478 L44.2704918,61.8531478 L43.7868852,63.4798182 C43.7180328,63.7707673 43.6942623,63.9673784 43.7639344,64.0872847 C43.8098361,64.2098361 43.947541,64.2574459 44.154918,64.2574459 L44.3401639,64.2574459 C44.3868852,64.233641 44.4557377,64.233641 44.547541,64.2089544 L44.6393443,63.8201405 L44.4803279,63.868632 L44.3180328,63.8942003 C44.2262295,63.8942003 44.1795082,63.8439454 44.1557377,63.7698857 C44.1336066,63.6755476 44.1795082,63.4568949 44.2729508,63.1156909 L44.6401639,61.8531478 L45.195082,61.8531478 L45.195082,61.4881389 L44.7327869,61.4881389 L44.9385246,60.7845709 M46.2057377,60.3216972 L46.1836066,60.3216972 L46.0229508,60.8833173 L46.2065574,60.8833173 L46.2065574,60.3216972 M46.5532787,60.3216972 L46.2057377,60.3216972 L46.2057377,60.8833173 L46.4139344,60.8833173 L46.5532787,60.3216972 M47.6827869,60.3216972 L47.3131148,60.3216972 L46.2057377,64.1604629 L46.2057377,64.1860311 L46.2057377,64.1604629 L46.2057377,64.1860311 L46.5754098,64.1860311 L47.0131148,62.703072 L47.7278689,64.1860311 L48.257377,64.1860311 L47.4508197,62.6554622 L48.857377,61.4899022 L48.3737705,61.4899022 L47.0360656,62.5814024 L47.6827869,60.3216972" id="Shape" fill="#231F20"></path>
                <path d="M21.0344262,53.4729302 L19.2368852,53.4729302 L19.2368852,59.3756716 L21.0344262,59.3756716 L21.0344262,53.4729302 Z M49.4803279,53.4473619 C48.7434426,53.4473619 48.2811475,53.7885659 48.0967213,54.468329 L48.0967213,53.4729302 L46.4827869,53.4729302 L46.4827869,59.3756716 L48.304918,59.3756716 L48.304918,56.2898471 C48.304918,56.0473894 48.3516393,55.8287367 48.4204918,55.6823805 C48.5122951,55.5377876 48.65,55.4152363 48.8360656,55.3429398 C49.042623,55.2706433 49.3204918,55.2468384 49.7114754,55.2203885 L49.7114754,53.4729302 C49.6647541,53.4729302 49.5721311,53.4473619 49.4803279,53.4473619 Z M27.8803279,53.3265739 C27.2131148,53.3265739 26.6598361,53.5937181 26.1745902,54.1535749 C25.8065574,53.6184047 25.252459,53.3512605 24.5155738,53.3512605 C24.1467213,53.3512605 23.7770492,53.4253203 23.4327869,53.5937181 C23.0860656,53.7638793 22.8098361,54.0310236 22.5786885,54.347541 C22.3721311,54.6640584 22.2565574,55.0519906 22.2565574,55.4637278 L22.2565574,59.3765532 L24.1008197,59.3765532 L24.1008197,55.8534233 C24.1008197,55.6603389 24.1467213,55.4901777 24.2606557,55.3676264 C24.3770492,55.2212701 24.5155738,55.1727786 24.6991803,55.1727786 C24.8598361,55.1727786 24.9991803,55.2212701 25.1139344,55.3429398 C25.2303279,55.4637278 25.2754098,55.633889 25.2754098,55.8287367 L25.2754098,59.3756716 L27.1204918,59.3756716 L27.1204918,55.9027965 C27.1204918,55.6603389 27.1663934,55.489296 27.2811475,55.3676264 C27.3737705,55.2468384 27.5114754,55.1974652 27.6721311,55.1974652 C27.8581967,55.1974652 27.9967213,55.2477201 28.1336066,55.3438215 C28.25,55.4399229 28.2959016,55.5862791 28.2959016,55.7326353 L28.2959016,59.3765532 L30.1385246,59.3765532 L30.1385246,55.4637278 C30.1385246,55.1004822 30.047541,54.7610415 29.8393443,54.4198374 C29.6319672,54.1050833 29.3540984,53.8379391 28.9868852,53.6175231 C28.6409836,53.4253203 28.2713115,53.3265739 27.8803279,53.3265739 Z M36.8245902,53.3265739 C36.1795082,53.3265739 35.602459,53.5937181 35.1188525,54.1535749 C34.7729508,53.6184047 34.2196721,53.3512605 33.4819672,53.3512605 C33.1147541,53.3512605 32.745082,53.4253203 32.3991803,53.5937181 C32.0311475,53.7638793 31.7540984,54.0310236 31.5459016,54.347541 C31.3155738,54.6640584 31.2229508,55.0519906 31.2229508,55.4637278 L31.2229508,59.3765532 L33.045082,59.3765532 L33.045082,55.8534233 C33.045082,55.6603389 33.1147541,55.4901777 33.2295082,55.3676264 C33.345082,55.2212701 33.4827869,55.1727786 33.6442623,55.1727786 C33.8057377,55.1727786 33.9442623,55.2212701 34.0590164,55.3429398 C34.1754098,55.4637278 34.2434426,55.633889 34.2434426,55.8287367 L34.2434426,59.3756716 L36.0647541,59.3756716 L36.0647541,55.9027965 C36.0647541,55.6603389 36.1352459,55.489296 36.2270492,55.3676264 C36.3418033,55.2468384 36.4803279,55.1974652 36.6418033,55.1974652 C36.8262295,55.1974652 36.9647541,55.2477201 37.0795082,55.3438215 C37.1959016,55.4399229 37.2639344,55.5862791 37.2639344,55.7326353 L37.2639344,59.3765532 L39.1081967,59.3765532 L39.1081967,55.4637278 C39.1081967,55.1004822 38.9934426,54.7610415 38.7852459,54.4198374 C38.5770492,54.1050833 38.3,53.8379391 37.954918,53.6175231 C37.6081967,53.4253203 37.2393443,53.3265739 36.8245902,53.3265739 Z M42.795082,53.3265739 C42.5868852,53.3265739 42.3114754,53.3768288 42.0106557,53.4473619 C41.7114754,53.5452266 41.4122951,53.6915829 41.0885246,53.9102356 C40.7893443,54.1526932 40.5131148,54.468329 40.2819672,54.8800661 C40.052459,55.2953299 39.9147541,55.8049318 39.8901639,56.437085 L39.8672131,56.557873 C39.8672131,57.0189833 40.0057377,57.4809753 40.2819672,57.9420857 C40.5368852,58.403196 40.904918,58.7690867 41.342623,59.0856041 C41.7811475,59.3765532 42.2647541,59.5211462 42.795082,59.5211462 C43.1639344,59.4973412 43.5327869,59.4232814 43.9016393,59.3024935 C44.2704918,59.1579005 44.6393443,58.9154429 44.9852459,58.5742389 C45.3532787,58.2347982 45.6532787,57.7736878 45.9065574,57.2138311 L44.5696721,56.5093815 C44.3631148,56.9466869 44.1090164,57.2623226 43.8327869,57.4809753 C43.5336066,57.699628 43.2344262,57.7974928 42.9106557,57.7974928 C42.6344262,57.7736878 42.3565574,57.6511365 42.104918,57.4324838 C41.8278689,57.2138311 41.6901639,56.8505855 41.6663934,56.3392203 C41.6663934,55.9521697 41.7819672,55.5862791 42.0114754,55.2953299 C42.2196721,54.9805758 42.4959016,54.809533 42.842623,54.7857281 C42.9803279,54.7857281 43.0721311,54.809533 43.1409836,54.8342196 C43.2344262,54.8580245 43.3032787,54.8809478 43.395082,54.930321 C43.4877049,54.9805758 43.5344262,55.0043808 43.5565574,55.0043808 L42.0581967,56.0482711 L42.7508197,57.2138311 L45.5393443,55.1974652 C45.1934426,54.4930156 44.754918,53.9834137 44.2713115,53.7162695 C43.7860656,53.4473619 43.302459,53.3265739 42.795082,53.3265739 Z M16.9319672,51.9908527 L15.1557377,51.9908527 L15.1557377,57.4086789 C15.1557377,57.7736878 15.2467213,58.1131285 15.4098361,58.4040777 C15.595082,58.7205951 15.847541,58.9392478 16.1237705,59.1102907 C16.4229508,59.2786885 16.7229508,59.3774349 16.9991803,59.3774349 L18.245082,59.3774349 L18.245082,57.6035267 L17.7155738,57.6035267 C17.4606557,57.6035267 17.2540984,57.5550351 17.1163934,57.4333655 C16.9770492,57.3372641 16.8852459,57.1186114 16.8852459,56.8029756 L16.8852459,55.1983469 L18.2237705,55.1983469 L18.2237705,53.426202 L16.9336066,53.426202 L16.9336066,51.9908527 L16.9319672,51.9908527 Z M20.0655738,50.7045048 C19.7655738,50.7283097 19.5360656,50.8490977 19.3516393,51.0677504 C19.1655738,51.2881664 19.0745902,51.5288607 19.0745902,51.7977683 L19.0516393,51.8198099 L19.0286885,51.8453782 C19.0516393,52.1363273 19.1663934,52.378785 19.3737705,52.5983193 C19.5819672,52.816972 19.8131148,52.9130734 20.0893443,52.9130734 C20.4581967,52.9130734 20.7114754,52.7922854 20.895082,52.5753961 C21.0795082,52.35498 21.1729508,52.0878358 21.1729508,51.7730817 C21.1729508,51.5059375 21.0795082,51.2379116 20.8721311,51.0430638 C20.6655738,50.8244111 20.3893443,50.7045048 20.0655738,50.7045048 Z" id="Shape" fill="#231F20"></path>
            </g>
        </g>
    </g>
</svg>