<?xml version="1.0" encoding="UTF-8"?>
<svg width="112px" height="50px" viewBox="0 0 112 50" version="1.1" xmlns="http://www.w3.org/2000/svg" xmlns:xlink="http://www.w3.org/1999/xlink">
    <!-- Generator: sketchtool 49.3 (51167) - http://www.bohemiancoding.com/sketch -->
    <title>8DEBA0D9-5C72-4A5B-8553-BA4E2273D7C2</title>
    <desc>Created with sketchtool.</desc>
    <defs>
        <radialGradient cx="22.5138298%" cy="25.8131067%" fx="22.5138298%" fy="25.8131067%" r="72.5387825%" gradientTransform="translate(0.225138,0.258131),scale(0.890549,1.000000),translate(-0.225138,-0.258131)" id="radialGradient-1">
            <stop stop-color="#FFFFFC" offset="0%"></stop>
            <stop stop-color="#4B7DBF" offset="100%"></stop>
        </radialGradient>
        <radialGradient cx="22.5008109%" cy="25.8495333%" fx="22.5008109%" fy="25.8495333%" r="90.2079404%" gradientTransform="translate(0.225008,0.258495),scale(0.638158,1.000000),translate(-0.225008,-0.258495)" id="radialGradient-2">
            <stop stop-color="#FFFFFC" offset="0%"></stop>
            <stop stop-color="#4B7DBF" offset="100%"></stop>
        </radialGradient>
        <radialGradient cx="22.4966049%" cy="26.0099448%" fx="22.4966049%" fy="26.0099448%" r="92.9145062%" gradientTransform="translate(0.224966,0.260099),scale(1.000000,0.596685),translate(-0.224966,-0.260099)" id="radialGradient-3">
            <stop stop-color="#FFFFFC" offset="0%"></stop>
            <stop stop-color="#4B7DBF" offset="100%"></stop>
        </radialGradient>
    </defs>
    <g id="Page-1" stroke="none" stroke-width="1" fill="none" fill-rule="evenodd">
        <g id="AFR_supply-of-equipment" transform="translate(-700.000000, -3213.000000)">
            <g id="222" transform="translate(702.000000, 3215.000000)">
                <circle id="Oval" stroke="#000000" stroke-width="3.792" fill="#FFFFFF" fill-rule="nonzero" cx="22.697561" cy="23.0195122" r="22.5902439"></circle>
                <path d="M21.6780488,46.4682927 C21.6780488,46.4682927 31.3365854,39.3853659 32.6243902,24.4682927 C31.3902439,23.8243902 29.2439024,22.9121951 27.1512195,23.0731707 C24.5219512,28.4926829 18.6731707,36.8634146 6.86829268,39.8682927 C6.86829268,39.9219512 15.8292683,46.5756098 21.6780488,46.4682927 Z" id="Shape" fill="#000000" fill-rule="nonzero"></path>
                <path d="M42.6585366,14.2195122 C42.6585366,14.2195122 32.5707317,9.3902439 18.995122,15.7219512 C19.0487805,17.1170732 19.4780488,19.2634146 20.6585366,21.0341463 C26.6682927,20.604878 35.897561,21.5707317 44.3756098,30.3170732 C44.3219512,30.3170732 45.6097561,19.2097561 42.6585366,14.2195122 Z" id="Shape" fill="#000000" fill-rule="nonzero"></path>
                <path d="M3.91707317,12.0731707 C3.91707317,12.0731707 5.20487805,23.9317073 17.4926829,32.5170732 C18.6731707,31.7658537 20.497561,30.3707317 21.4097561,28.4926829 C18.0292683,23.502439 13.6829268,14.2731707 16.9560976,2.52195122 C17.0097561,2.57560976 7.7804878,5.31219512 3.91707317,12.0731707 Z" id="Shape" fill="#000000" fill-rule="nonzero"></path>
                <path d="M22.2146341,44.804878 C22.2146341,44.804878 31.4439024,38.6878049 32.7317073,23.7707317 C31.497561,23.1268293 29.3512195,22.2146341 27.2585366,22.3756098 C24.6292683,27.795122 19.3170732,35.4682927 7.51219512,38.4731707 C7.51219512,38.4195122 14.004878,45.1268293 22.2146341,44.804878 Z" id="Shape" fill="url(#radialGradient-1)" fill-rule="nonzero"></path>
                <path d="M43.9463415,12.8780488 C43.9463415,12.8780488 31.9804878,7.94146341 18.404878,14.3268293 C18.4585366,15.7219512 18.7804878,18.0292683 19.9073171,19.7463415 C26.4,18.7268293 37.0780488,20.1219512 45.5560976,28.8682927 C45.6097561,28.8146341 48.0243902,20.8731707 43.9463415,12.8780488 Z" id="Shape" fill="url(#radialGradient-2)" fill-rule="nonzero"></path>
                <path d="M4.29268293,11.4829268 C4.29268293,11.4829268 5.52682927,22.5365854 17.7609756,31.1219512 C18.9414634,30.3707317 20.7658537,28.9756098 21.6780488,27.097561 C18.297561,22.1073171 14.004878,13.6829268 17.3317073,1.98536585 C17.3853659,1.98536585 8.74634146,4.13170732 4.29268293,11.4829268 Z" id="Shape" fill="url(#radialGradient-3)" fill-rule="nonzero"></path>
                <g id="Group" transform="translate(53.121951, 30.585366)" fill="#000000" fill-rule="nonzero">
                    <path d="M12.0195122,4.29268293 C11.4829268,5.90243902 11.0536585,7.29756098 9.44390244,8.53170732 C7.99512195,9.65853659 6.17073171,10.302439 4.61463415,10.302439 C1.55609756,10.302439 -0.32195122,8.42439024 0.697560976,5.25853659 C1.71707317,2.03902439 4.77560976,0.0536585366 7.88780488,0.0536585366 C9.60487805,0.0536585366 11.7512195,0.912195122 12.0195122,2.62926829 L8.2097561,3.86341463 C8.10243902,3.3804878 7.67317073,3.11219512 7.08292683,3.11219512 C5.79512195,3.11219512 4.72195122,4.23902439 4.34634146,5.4195122 C4.02439024,6.49268293 4.34634146,7.56585366 5.52682927,7.56585366 C6.11707317,7.56585366 6.92195122,7.29756098 7.29756098,6.70731707 L5.63414634,6.70731707 L6.38536585,4.34634146 L12.0195122,4.34634146 L12.0195122,4.29268293 Z" id="Shape"></path>
                    <path d="M14.3268293,0.16097561 L18.7268293,0.16097561 C20.9804878,0.16097561 22.5902439,1.12682927 21.7853659,3.59512195 C21.302439,5.09756098 20.497561,5.74146341 19.0487805,6.17073171 L19.0487805,6.22439024 C19.2097561,6.38536585 19.3707317,6.54634146 19.4780488,6.81463415 L20.6585366,10.0341463 L16.4731707,10.0341463 L15.8829268,6.81463415 L15.8292683,6.81463415 L14.8097561,10.0341463 L11.2682927,10.0341463 L14.3268293,0.16097561 Z M16.5268293,4.56097561 L16.795122,4.56097561 C17.3853659,4.56097561 18.0292683,4.45365854 18.2439024,3.75609756 C18.5121951,3.00487805 17.9756098,2.89756098 17.3317073,2.89756098 L17.0634146,2.89756098 L16.5268293,4.56097561 Z" id="Shape"></path>
                    <path d="M33.3756098,5.15121951 C32.3560976,8.37073171 29.2439024,10.2487805 26.1853659,10.2487805 C23.1268293,10.2487805 21.2487805,8.31707317 22.2682927,5.15121951 C23.2341463,2.03902439 26.4,0 29.4585366,0 C32.5170732,0 34.3414634,2.03902439 33.3756098,5.15121951 Z M25.9170732,5.20487805 C25.5414634,6.33170732 26.0780488,7.13658537 27.204878,7.13658537 C28.3317073,7.13658537 29.3512195,6.33170732 29.6731707,5.20487805 C29.995122,4.13170732 29.5658537,3.27317073 28.4390244,3.27317073 C27.2585366,3.27317073 26.2390244,4.18536585 25.9170732,5.20487805 Z" id="Shape"></path>
                    <path d="M45.2341463,0.16097561 L43.3560976,6.06341463 C42.4439024,8.96097561 40.1902439,10.302439 37.4,10.302439 C34.6097561,10.302439 33.1609756,8.96097561 34.1268293,6.06341463 L36.004878,0.16097561 L39.6536585,0.16097561 L37.8829268,5.68780488 C37.6146341,6.49268293 37.4536585,7.13658537 38.4195122,7.13658537 C39.3853659,7.13658537 39.6536585,6.43902439 39.8682927,5.68780488 L41.6390244,0.16097561 L45.2341463,0.16097561 Z" id="Shape"></path>
                    <path d="M46.6829268,0.16097561 L51.297561,0.16097561 C53.6585366,0.16097561 55,1.34146341 54.195122,3.8097561 C53.5512195,5.84878049 51.8878049,7.08292683 49.8487805,7.08292683 L47.9707317,7.08292683 L47.004878,10.0878049 L43.5170732,10.0878049 L46.6829268,0.16097561 Z M48.7756098,4.61463415 L49.1512195,4.61463415 C49.795122,4.61463415 50.4926829,4.50731707 50.7609756,3.70243902 C51.0292683,2.95121951 50.2780488,2.89756098 49.6878049,2.89756098 L49.3658537,2.89756098 L48.7756098,4.61463415 Z" id="Shape"></path>
                </g>
                <g id="Group" transform="translate(50.975610, 11.804878)" fill="#4B7DBF" fill-rule="nonzero">
                    <polygon id="Shape" points="15.4 0.912195122 3.70243902 0.912195122 1.98536585 6.49268293 5.20487805 6.49268293 0.482926829 21.7317073 5.79512195 21.7317073 10.5170732 6.54634146 13.7365854 6.49268293"></polygon>
                    <path d="M24.2536585,0.536585366 C12.3414634,2.46829268 8.04878049,19.7463415 18.1902439,20.1219512 C26.6682927,20.0146341 30.102439,11.7512195 30.3170732,11.1073171 C33.2682927,3.59512195 28.0097561,-0.107317073 24.2536585,0.536585366 Z M20.2829268,14.4878049 C15.6146341,13.7365854 19.5317073,5.68780488 23.2878049,6.33170732 C27.4195122,7.02926829 24.5756098,15.2390244 20.2829268,14.4878049 Z" id="Shape"></path>
                    <path d="M43.6243902,11.4292683 C42.5512195,5.5804878 37.1853659,8.96097561 38.7414634,6.0097561 C39.7073171,4.18536585 43.1414634,5.52682927 43.4097561,6.22439024 C44.1609756,5.15121951 46.1463415,2.09268293 46.1463415,2.09268293 C39.4926829,-3.43414634 28.1707317,7.7804878 34.1804878,12.0195122 C35.7902439,13.2536585 36.8097561,11.9121951 37.6146341,13.3073171 C37.7219512,13.5219512 37.9365854,14.1658537 37.4536585,14.8634146 C36.9170732,15.5609756 33.7512195,16.5804878 31.9268293,13.4146341 C31.1756098,14.702439 30.0487805,16.5268293 28.8682927,18.297561 C38.795122,23.8780488 44.1073171,14.0585366 43.6243902,11.4292683 Z" id="Shape"></path>
                    <path d="M58.8097561,0.965853659 L52.6390244,0.965853659 L41.5317073,19.4780488 L47.1121951,19.4780488 L48.2926829,17.1170732 L54.0878049,17.1170732 L54.0878049,19.4780488 L58.8097561,19.4780488 L58.8097561,0.965853659 Z M54.0341463,13.2536585 L50.3317073,13.2536585 L53.5512195,6.70731707 L54.0878049,6.70731707 L54.0341463,13.2536585 Z" id="Shape"></path>
                </g>
                <path d="M43.0878049,2.09268293 C43.3560976,2.09268293 43.5707317,2.14634146 43.7317073,2.2 C43.9463415,2.30731707 44.1073171,2.52195122 44.1073171,2.7902439 C44.1073171,3.00487805 44.0536585,3.16585366 43.8926829,3.27317073 C43.8390244,3.32682927 43.6780488,3.3804878 43.5707317,3.3804878 C43.7317073,3.43414634 43.8926829,3.48780488 43.9463415,3.59512195 C44.0536585,3.70243902 44.0536585,3.86341463 44.0536585,3.97073171 L44.0536585,4.13170732 C44.0536585,4.18536585 44.0536585,4.23902439 44.0536585,4.29268293 C44.0536585,4.34634146 44.0536585,4.4 44.0536585,4.4 L44.0536585,4.45365854 L43.6780488,4.45365854 C43.6780488,4.45365854 43.6780488,4.45365854 43.6780488,4.45365854 C43.6780488,4.45365854 43.6780488,4.45365854 43.6780488,4.45365854 L43.6780488,4.4 L43.6780488,4.23902439 C43.6780488,3.97073171 43.6243902,3.8097561 43.4634146,3.70243902 C43.3560976,3.64878049 43.2487805,3.64878049 43.0341463,3.64878049 L42.7121951,3.64878049 L42.7121951,4.56097561 L42.2829268,4.56097561 L42.2829268,2.25365854 L43.0878049,2.25365854 L43.0878049,2.09268293 Z M43.5170732,2.46829268 C43.4097561,2.41463415 43.2487805,2.36097561 43.0341463,2.36097561 L42.6585366,2.36097561 L42.6585366,3.2195122 L43.0341463,3.2195122 C43.195122,3.2195122 43.3560976,3.2195122 43.4097561,3.16585366 C43.5707317,3.11219512 43.6243902,3.00487805 43.6243902,2.7902439 C43.6780488,2.62926829 43.6243902,2.52195122 43.5170732,2.46829268 Z" id="Shape" fill="#000000" fill-rule="nonzero"></path>
                <circle id="Oval" stroke="#000000" stroke-width="0.8" cx="43.1414634" cy="3.2195122" r="2.14634146"></circle>
            </g>
        </g>
    </g>
</svg>