<svg xmlns="http://www.w3.org/2000/svg" xmlns:xlink="http://www.w3.org/1999/xlink" width="70" height="36" viewBox="0 0 70 36">
    <defs>
        <path id="a" d="M.595.791h69.148v35.093H.595z"/>
        <path id="c" d="M.595.791h69.148v35.093H.595z"/>
        <path id="e" d="M.595.791h69.148v35.093H.595z"/>
        <path id="g" d="M.595.791h69.148v35.093H.595z"/>
        <path id="i" d="M.595.791h69.148v35.093H.595z"/>
        <path id="k" d="M.595.791h69.148v35.093H.595z"/>
        <path id="m" d="M.595.791h69.148v35.093H.595z"/>
        <path id="o" d="M.595.791h69.148v35.093H.595z"/>
        <path id="q" d="M.595.791h69.148v35.093H.595z"/>
        <path id="s" d="M.595.791h69.148v35.093H.595z"/>
        <path id="u" d="M.595.791h69.148v35.093H.595z"/>
        <path id="w" d="M.595.791h69.148v35.093H.595z"/>
        <path id="y" d="M.595.791h69.148v35.093H.595z"/>
        <path id="A" d="M.595.791h69.148v35.093H.595z"/>
        <path id="C" d="M.595.791h69.148v35.093H.595z"/>
        <path id="E" d="M.595.791h69.148v35.093H.595z"/>
        <path id="G" d="M.595.791h69.148v35.093H.595z"/>
        <path id="I" d="M.595.791h69.148v35.093H.595z"/>
        <path id="K" d="M.595.791h69.148v35.093H.595z"/>
        <path id="M" d="M.595.791h69.148v35.093H.595z"/>
        <path id="O" d="M.595.791h69.148v35.093H.595z"/>
        <path id="Q" d="M.595.791h69.148v35.093H.595z"/>
        <path id="S" d="M.595.791h69.148v35.093H.595z"/>
        <path id="U" d="M.595.791h69.148v35.093H.595z"/>
        <path id="W" d="M.595.791h69.148v35.093H.595z"/>
        <path id="Y" d="M.595.791h69.148v35.093H.595z"/>
        <path id="aa" d="M.595.791h69.148v35.093H.595z"/>
    </defs>
    <g fill="none" fill-rule="evenodd">
        <g>
            <mask id="b" fill="#fff">
                <use xlink:href="#a"/>
            </mask>
            <path fill="#231F20" fill-rule="nonzero" d="M2.168 32.993a.882.882 0 0 0-.22-.27.51.51 0 0 0-.321-.095.497.497 0 0 0-.198.039.5.5 0 0 0-.323.484.37.37 0 0 0 .049.19c.032.055.07.104.119.146a.75.75 0 0 0 .157.107l.167.086.208.098c.102.047.199.098.288.154.091.055.17.12.24.192a.85.85 0 0 1 .165.256c.04.097.06.213.06.346 0 .15-.026.287-.077.414a1.02 1.02 0 0 1-.213.33c-.09.091-.194.165-.314.219a.93.93 0 0 1-.382.08.942.942 0 0 1-.638-.239 1.03 1.03 0 0 1-.215-.275 1.234 1.234 0 0 1-.125-.358l.341-.103a.8.8 0 0 0 .206.444.574.574 0 0 0 .422.182.636.636 0 0 0 .448-.186.66.66 0 0 0 .147-.722.62.62 0 0 0-.13-.18.863.863 0 0 0-.186-.13c-.07-.037-.14-.074-.212-.11l-.191-.09a3.04 3.04 0 0 1-.263-.144 1.022 1.022 0 0 1-.218-.175.734.734 0 0 1-.202-.545.814.814 0 0 1 .264-.626.87.87 0 0 1 .281-.172.928.928 0 0 1 .333-.06c.175 0 .333.045.475.137.141.09.253.219.336.386l-.278.19z" mask="url(#b)"/>
        </g>
        <g>
            <mask id="d" fill="#fff">
                <use xlink:href="#c"/>
            </mask>
            <path fill="#231F20" fill-rule="nonzero" d="M3.902 35.708h-.35v-3.024h-.757v-.35h1.872v.35h-.765z" mask="url(#d)"/>
        </g>
        <g>
            <mask id="f" fill="#fff">
                <use xlink:href="#e"/>
            </mask>
            <path fill="#231F20" fill-rule="nonzero" d="M5.374 35.708h-.35v-3.372h.454c.15 0 .293.012.43.039.137.025.26.072.367.14a.736.736 0 0 1 .256.284c.063.12.095.277.095.468 0 .263-.07.477-.21.644a.82.82 0 0 1-.576.285l.999 1.513h-.43l-.947-1.48h-.088v1.48zm0-1.811h.108c.1 0 .197-.007.291-.02a.679.679 0 0 0 .254-.085.477.477 0 0 0 .18-.183.63.63 0 0 0 .07-.315.694.694 0 0 0-.067-.33.445.445 0 0 0-.176-.184.711.711 0 0 0-.254-.078 2.433 2.433 0 0 0-.302-.018h-.104v1.213z" mask="url(#f)"/>
        </g>
        <g>
            <mask id="h" fill="#fff">
                <use xlink:href="#g"/>
            </mask>
            <path fill="#231F20" fill-rule="nonzero" d="M7.28 32.336h1.625v.35H7.628v1h1.24v.35h-1.24v1.325h1.277v.349H7.28z" mask="url(#h)"/>
        </g>
        <g>
            <mask id="j" fill="#fff">
                <use xlink:href="#i"/>
            </mask>
            <path fill="#231F20" fill-rule="nonzero" d="M10.332 35.708h-.349v-3.024h-.757v-.35h1.871v.35h-.765z" mask="url(#j)"/>
        </g>
        <g>
            <mask id="l" fill="#fff">
                <use xlink:href="#k"/>
            </mask>
            <path fill="#231F20" fill-rule="nonzero" d="M13.846 33.073a1.357 1.357 0 0 0-.435-.328 1.173 1.173 0 0 0-1.014-.005 1.289 1.289 0 0 0-.402.307 1.461 1.461 0 0 0-.37.975 1.457 1.457 0 0 0 .372.975c.115.13.25.231.406.307a1.135 1.135 0 0 0 1.009-.009c.165-.084.31-.19.434-.326v.466a1.663 1.663 0 0 1-.445.244 1.483 1.483 0 0 1-1.12-.05 1.631 1.631 0 0 1-.52-.37 1.783 1.783 0 0 1-.485-1.224 1.816 1.816 0 0 1 .48-1.242c.149-.159.322-.286.52-.377.198-.092.41-.139.634-.139.35 0 .662.11.936.331v.465z" mask="url(#l)"/>
        </g>
        <g>
            <mask id="n" fill="#fff">
                <use xlink:href="#m"/>
            </mask>
            <path fill="#231F20" fill-rule="nonzero" d="M16.409 33.705v-1.369h.349v3.372h-.35v-1.654h-1.605v1.654h-.35v-3.372h.35v1.37z" mask="url(#n)"/>
        </g>
        <g>
            <mask id="p" fill="#fff">
                <use xlink:href="#o"/>
            </mask>
            <path fill="#231F20" fill-rule="nonzero" d="M19.628 34.863l1.015-2.702 1.015 2.702.823-2.527h.379l-1.202 3.548-1.015-2.715-1.015 2.715-1.202-3.548h.379z" mask="url(#p)"/>
        </g>
        <g>
            <mask id="r" fill="#fff">
                <use xlink:href="#q"/>
            </mask>
            <path fill="#231F20" fill-rule="nonzero" d="M23.575 35.708h-.35v-3.372h.454c.15 0 .293.012.43.039.137.025.26.072.366.14a.736.736 0 0 1 .256.284c.064.12.096.277.096.468 0 .263-.07.477-.21.644a.82.82 0 0 1-.576.285l.998 1.513h-.428l-.949-1.48h-.087v1.48zm0-1.811h.108c.1 0 .197-.007.291-.02a.7.7 0 0 0 .254-.085.477.477 0 0 0 .18-.183.63.63 0 0 0 .07-.315.694.694 0 0 0-.067-.33.445.445 0 0 0-.177-.184.711.711 0 0 0-.253-.078 2.433 2.433 0 0 0-.302-.018h-.104v1.213z" mask="url(#r)"/>
        </g>
        <g>
            <mask id="t" fill="#fff">
                <use xlink:href="#s"/>
            </mask>
            <path fill="#231F20" fill-rule="nonzero" d="M25.95 34.75l-.379.958h-.382l1.447-3.534 1.41 3.534h-.386l-.371-.957H25.95zm.678-1.698l-.536 1.351h1.06l-.524-1.351z" mask="url(#t)"/>
        </g>
        <g>
            <mask id="v" fill="#fff">
                <use xlink:href="#u"/>
            </mask>
            <path fill="#231F20" fill-rule="nonzero" d="M28.737 35.708h-.35v-3.372h.516c.136 0 .271.009.406.027a.82.82 0 0 1 .636.489 1.09 1.09 0 0 1 .013.834.849.849 0 0 1-.223.324.766.766 0 0 1-.353.184c-.13.026-.261.04-.392.04h-.253v1.474zm0-1.824h.233c.097 0 .188-.01.274-.026a.6.6 0 0 0 .227-.097.479.479 0 0 0 .156-.186.665.665 0 0 0 .058-.3.626.626 0 0 0-.071-.324.451.451 0 0 0-.187-.177.767.767 0 0 0-.262-.073 2.853 2.853 0 0 0-.3-.016h-.128v1.2z" mask="url(#v)"/>
        </g>
        <g>
            <mask id="x" fill="#fff">
                <use xlink:href="#w"/>
            </mask>
            <path fill="#231F20" fill-rule="nonzero" d="M30.829 35.708h-.35v-3.372h.516c.136 0 .271.009.406.027a.82.82 0 0 1 .636.489 1.09 1.09 0 0 1 .013.834.849.849 0 0 1-.223.324.766.766 0 0 1-.353.184c-.13.026-.261.04-.392.04h-.253v1.474zm0-1.824h.233c.097 0 .188-.01.274-.026a.6.6 0 0 0 .227-.097.479.479 0 0 0 .156-.186.665.665 0 0 0 .058-.3.626.626 0 0 0-.071-.324.451.451 0 0 0-.187-.177.767.767 0 0 0-.262-.073 2.865 2.865 0 0 0-.3-.016h-.128v1.2z" mask="url(#x)"/>
        </g>
        <g>
            <mask id="z" fill="#fff">
                <use xlink:href="#y"/>
            </mask>
            <path fill="#231F20" fill-rule="nonzero" d="M32.58 32.336h1v3.372h-1z" mask="url(#z)"/>
        </g>
        <g>
            <mask id="B" fill="#fff">
                <use xlink:href="#A"/>
            </mask>
            <path fill="#231F20" fill-rule="nonzero" d="M33.586 32.193l2.447 2.755v-2.612h.349v3.525l-2.446-2.751v2.598h-.35z" mask="url(#B)"/>
        </g>
        <g>
            <mask id="D" fill="#fff">
                <use xlink:href="#C"/>
            </mask>
            <path fill="#231F20" fill-rule="nonzero" d="M39.95 34.014c.003.114.002.223-.005.326a1.88 1.88 0 0 1-.047.304 1.511 1.511 0 0 1-.1.286 1.495 1.495 0 0 1-1.333.837c-.222 0-.43-.046-.626-.14a1.666 1.666 0 0 1-.511-.372 1.79 1.79 0 0 1-.348-.552 1.764 1.764 0 0 1-.13-.673 1.814 1.814 0 0 1 .48-1.239c.146-.159.318-.284.518-.375.2-.093.413-.139.637-.139.278 0 .526.064.746.19.22.128.414.306.58.54l-.254.255a1.577 1.577 0 0 0-.463-.468 1.12 1.12 0 0 0-.614-.167c-.18 0-.347.039-.503.114-.155.075-.29.179-.405.307a1.469 1.469 0 0 0-.277 1.502 1.383 1.383 0 0 0 .678.748c.156.08.316.12.482.12.136 0 .27-.025.404-.075.133-.05.253-.124.36-.217.106-.094.191-.206.256-.333a.936.936 0 0 0 .098-.43h-.931v-.349h1.309z" mask="url(#D)"/>
        </g>
        <g>
            <mask id="F" fill="#fff">
                <use xlink:href="#E"/>
            </mask>
            <path fill="#231F20" fill-rule="nonzero" d="M42.558 35.708h-.35v-3.024h-.757v-.35h1.873v.35h-.766z" mask="url(#F)"/>
        </g>
        <g>
            <mask id="H" fill="#fff">
                <use xlink:href="#G"/>
            </mask>
            <path fill="#231F20" fill-rule="nonzero" d="M43.68 32.336h1.628v.35h-1.277v1h1.238v.35h-1.238v1.325h1.277v.349h-1.627z" mask="url(#H)"/>
        </g>
        <g>
            <mask id="J" fill="#fff">
                <use xlink:href="#I"/>
            </mask>
            <path fill="#231F20" fill-rule="nonzero" d="M48.294 33.073a1.366 1.366 0 0 0-.435-.328 1.178 1.178 0 0 0-.522-.119 1.1 1.1 0 0 0-.492.114 1.289 1.289 0 0 0-.402.307 1.448 1.448 0 0 0-.27.445c-.068.17-.1.346-.1.53 0 .185.032.36.1.53.066.168.157.317.273.444.114.13.249.232.405.308a1.14 1.14 0 0 0 1.01-.009c.164-.084.31-.19.434-.326v.466a1.667 1.667 0 0 1-.446.244 1.489 1.489 0 0 1-1.12-.05 1.62 1.62 0 0 1-.52-.37 1.769 1.769 0 0 1-.485-1.224 1.816 1.816 0 0 1 .48-1.242c.15-.159.322-.286.52-.377.198-.092.41-.139.634-.139.35 0 .662.11.937.331v.465z" mask="url(#J)"/>
        </g>
        <g>
            <mask id="L" fill="#fff">
                <use xlink:href="#K"/>
            </mask>
            <path fill="#231F20" fill-rule="nonzero" d="M50.857 33.705v-1.369h.348v3.372h-.348v-1.654H49.25v1.654h-.35v-3.372h.35v1.37z" mask="url(#L)"/>
        </g>
        <g>
            <mask id="N" fill="#fff">
                <use xlink:href="#M"/>
            </mask>
            <path fill="#231F20" fill-rule="nonzero" d="M51.875 32.193l2.446 2.755v-2.612h.35v3.525l-2.447-2.751v2.598h-.35z" mask="url(#N)"/>
        </g>
        <g>
            <mask id="P" fill="#fff">
                <use xlink:href="#O"/>
            </mask>
            <path fill="#231F20" fill-rule="nonzero" d="M56.8 32.278c.224 0 .435.045.633.135.2.092.373.218.52.378a1.801 1.801 0 0 1 .48 1.236 1.799 1.799 0 0 1-.48 1.231c-.147.157-.32.28-.52.372-.198.091-.41.136-.634.136a1.5 1.5 0 0 1-.634-.136 1.631 1.631 0 0 1-.52-.372 1.783 1.783 0 0 1-.48-1.231c0-.242.044-.47.13-.68.085-.212.202-.398.35-.556.149-.161.322-.286.52-.378.199-.09.41-.135.634-.135m0 .35c-.18 0-.348.034-.505.108a1.296 1.296 0 0 0-.408.3 1.47 1.47 0 0 0-.373.987 1.438 1.438 0 0 0 .376.983c.116.125.252.227.41.301.156.075.323.112.5.112.179 0 .346-.037.502-.112a1.33 1.33 0 0 0 .41-.301c.116-.127.208-.276.274-.445.067-.167.1-.348.1-.538a1.47 1.47 0 0 0-.372-.988 1.312 1.312 0 0 0-.408-.3 1.168 1.168 0 0 0-.506-.108" mask="url(#P)"/>
        </g>
        <g>
            <mask id="R" fill="#fff">
                <use xlink:href="#Q"/>
            </mask>
            <path fill="#231F20" fill-rule="nonzero" d="M59.258 35.36h.866v.348h-1.215v-3.372h.35z" mask="url(#R)"/>
        </g>
        <g>
            <mask id="T" fill="#fff">
                <use xlink:href="#S"/>
            </mask>
            <path fill="#231F20" fill-rule="nonzero" d="M61.945 32.278c.224 0 .436.045.634.135.2.092.372.218.52.378.148.159.265.344.351.556.086.21.13.438.13.68a1.783 1.783 0 0 1-.481 1.231c-.148.157-.32.28-.52.372-.198.091-.41.136-.634.136-.224 0-.436-.045-.635-.136a1.614 1.614 0 0 1-.519-.372 1.799 1.799 0 0 1-.48-1.231 1.801 1.801 0 0 1 .48-1.236c.148-.161.32-.286.52-.378.198-.09.41-.135.634-.135m0 .35c-.181 0-.349.034-.506.108a1.296 1.296 0 0 0-.408.3 1.47 1.47 0 0 0-.372.987c0 .19.033.371.1.538.066.168.158.317.275.445.116.125.253.227.41.301.156.075.323.112.501.112s.345-.037.501-.112c.156-.074.294-.175.41-.301.116-.127.208-.276.274-.445.067-.167.1-.348.1-.538a1.47 1.47 0 0 0-.372-.988 1.309 1.309 0 0 0-.408-.3 1.17 1.17 0 0 0-.505-.108" mask="url(#T)"/>
        </g>
        <g>
            <mask id="V" fill="#fff">
                <use xlink:href="#U"/>
            </mask>
            <path fill="#231F20" fill-rule="nonzero" d="M66.97 34.014c.002.114 0 .223-.007.326a1.88 1.88 0 0 1-.046.304 1.511 1.511 0 0 1-.1.286 1.495 1.495 0 0 1-1.333.837c-.223 0-.43-.046-.627-.14a1.657 1.657 0 0 1-.511-.372 1.807 1.807 0 0 1-.477-1.225 1.83 1.83 0 0 1 .478-1.239c.147-.159.32-.284.52-.375.199-.093.412-.139.636-.139.278 0 .526.064.746.19.22.128.415.306.58.54l-.253.255a1.577 1.577 0 0 0-.463-.468 1.12 1.12 0 0 0-.614-.167c-.181 0-.348.039-.503.114a1.305 1.305 0 0 0-.406.307 1.469 1.469 0 0 0-.277 1.502 1.383 1.383 0 0 0 .678.748c.156.08.317.12.483.12.136 0 .27-.025.403-.075.133-.05.253-.124.36-.217.107-.094.191-.206.257-.333a.936.936 0 0 0 .097-.43h-.931v-.349h1.31z" mask="url(#V)"/>
        </g>
        <g>
            <mask id="X" fill="#fff">
                <use xlink:href="#W"/>
            </mask>
            <path fill="#231F20" fill-rule="nonzero" d="M67.182 32.336h.403l.799 1.503.798-1.503h.404l-1.027 1.924v1.45h-.35v-1.45z" mask="url(#X)"/>
        </g>
        <g>
            <mask id="Z" fill="#fff">
                <use xlink:href="#Y"/>
            </mask>
            <path fill="#231F20" fill-rule="nonzero" d="M.959 28.359h68.785v1H.959z" mask="url(#Z)"/>
        </g>
        <g>
            <mask id="ab" fill="#fff">
                <use xlink:href="#aa"/>
            </mask>
            <path fill="#00A551" fill-rule="nonzero" d="M16.27 8.507l-3.8.022-4.713 16.507-6.277-.043L6.213 8.507h-3.8L4.407 1.36l13.835-.008-1.972 7.155zm7.751 10.176c5.06.893 8.389-9.519 3.565-10.404-4.444-.82-9.094 9.423-3.565 10.404zm11.76-4.351c-.236.805-4.306 11.318-14.28 11.455-11.917-.5-6.906-22.428 7.172-24.912 4.416-.78 10.623 3.89 7.107 13.457zm15.752.445c-1.253-7.407-7.62-3.161-5.759-6.885 1.163-2.32 5.164-.599 5.523.24.852-1.33 3.232-5.266 3.232-5.266-7.862-7.06-21.179 7.266-14.105 12.612 1.924 1.603 3.08-.165 4.036 1.63.145.275.408 1.084-.2 1.958-.604.864-4.355 2.202-6.548-1.822-.886 1.657-2.243 3.94-3.606 6.221 11.703 7.13 17.988-5.38 17.427-8.688zM63.797 17.1l.035-8.378h-.623L59.41 17.08l4.387.021zm5.648 7.985l-5.599-.018-.008-3.03h-6.83l-1.377 2.98h-6.603L62.143 1.454l7.268-.005.034 23.635z" mask="url(#ab)"/>
        </g>
    </g>
</svg>
