<svg xmlns="http://www.w3.org/2000/svg" width="70" height="56" viewBox="0 0 70 56">
    <path fill="#CC2131" fill-rule="evenodd" d="M38.304 29.862c-.118.009-.199.035-.282.055a5.95 5.95 0 0 0-1.525.508 6.695 6.695 0 0 0-1.975 1.292c-.495.457-.96.98-1.353 1.617a10.411 10.411 0 0 0-1.355 3.078c-.026.071-.046.107-.046.176-1.012 3.667-.685 5.17-.05 5.773.344.35.822.404 1.19.373h.176c.409-.036.88-.21 1.35-.482.719-.42 1.42-1.121 1.985-2.014.065-.125.249-.656.332-.78.152.7.438 1.347 1.568.987.075-.045.187-.066.289-.139 1.29-.497 1.78-1.509 2.052-2.075.748-1.596.94-3.435 1.05-5.435.134-1.708-.686-3.377-3.406-2.934zm23.755-11.408a8.76 8.76 0 0 0 1.285-.802c.356-.248.72-.534 1.053-.877.545-.587 1.06-1.203 1.267-2.117.456-2.127-.938-3.064-2.194-2.645-.28.109-.303.167-.541-.026-.039-.157-.126-.12-.015-.546.132-.439.117-.743.132-1.01.056-1.14-1.731-.548-2.22-.16-.252.205-.639.902-.711 1.138-.2.656-.38 1.32-.541 1.989-.049.191-.083.361-.124.544-.086.426-.16.865-.235 1.293-.225 1.499-.21 2.347.214 3.017.49.85 2.302.367 2.63.202zM15.217 37.339a27.55 27.55 0 0 0 3.532-1.45c.978-.512 1.992-1.095 2.951-1.793 1.565-1.203 3.006-2.672 3.98-4.608 1.468-2.909-.597-6.377-4.653-5.85-1.763.222-2.19.36-2.517-.252.036-.21-.194-.314.093-.952.4-.87 1.401-1.112 2.734-1.1 5.031.586 4.19-4.331.177-3.974-1.306.132-2.667.509-3.691 1.029-1.144.576-2.623 1.933-3.455 3.286-1.518 2.45-2.725 5.803-3.072 6.79-.934 2.632-1.826 6.181-1.072 7.861.86 2.126 4.144 1.276 4.993 1.013zM2.76 22.495c.183-.012.441-.077.679-.18.6-.166 1.396-.435 2.27-.74a26.283 26.283 0 0 0 3.65-1.646 23.403 23.403 0 0 0 3.04-1.944c1.64-1.3 3.1-2.905 4.082-4.97 1.474-3.103-.41-5.728-2.732-5.2 1.618-.537 3.077-1.766 3.733-3.318.88-2.87-.605-4.045-2.956-4.195-.84-.08-1.827.008-2.817.191-.048-.006-.122.02-.164.013-1.263.227-2.39.564-3.436 1.143-1.189.648-2.253 1.587-3.192 2.99a16.24 16.24 0 0 0-1.668 3.185c-.18.475-.367.904-.526 1.364a45.68 45.68 0 0 0-1.113 3.184C.437 16.045-.302 19.657.513 21.407c.135.363.346.634.634.81.394.298.924.408 1.613.278zM9.801 5.658c.194-.562.637-1.149 1.46-1.492 0 0 .029 0 .047-.026 1.22-.465 1.63.85 1.044 1.89-.437.758-.921 1.278-1.522 1.647a3.853 3.853 0 0 1-.735.295c-.892.263-.795-1.02-.294-2.314zm50.457-.5c.935-.082 1.6-.6 1.88-1.736.255-1.115-.118-1.37-1.075-1.351-1.507.02-1.97.593-2.329 1.868-.28.869.255 1.363 1.524 1.219zM24.3 35.332c-1.263.463-2.213.706-4.946 2.967-1.184.971-2.298 2.137-3.693 4.32-1.146 1.786-1.484 5.102 1.018 3.018 3.823-3.16 5.049-3.903 7.137-4.901 1.654-.791 1.918-.03 1.163 1.845a11.796 11.796 0 0 1-1.427 2.505c-.47.6-.939 1.1-1.33 1.427-1.2 1.029-.506-1.077-.17-2.318.14-.502-.165-.749-.416-.788-.71-.11-1.508.563-1.508.563l-1.348 1.265c-1.258 1.357-1.908 2.879-2.423 4.506-1.311 4.29-1.454 6.063.228 6.248.538.067 1.273-.173 2.223-.813.04-.019.096-.04.132-.073a27.01 27.01 0 0 0 2.794-2.156c.805-.712 1.528-1.462 2.24-2.24.8-.894 1.543-1.844 2.224-2.845 1.786-2.604 2.679-4.196 3.628-7.354 1.255-4.052-.921-6.873-5.526-5.176zM61.32 22.418c-.264-.059-.566-.02-.94.016-.853.126-1.23.93-1.536 2.237-.108.255-.21.684-.422.997-.329.465-.711.646-.955.453-.13-.09-.187-.372-.199-.591.005-.703-.066-1.185-.274-1.484-.27-.381-.71-.464-1.398-.323-.053.01-.09.02-.13.03-.696.173-1.098.892-1.402 1.893-.285.978-.467 2.247-.642 3.592-.027.151-.044.304-.048.457-.098 1.342-.045 2 .284 2.272.223.188.609.17 1.202.062a2.71 2.71 0 0 0 .31-.062c.493-.095.859-.397 1.264-1.581.096-.37.205-.825.337-1.407a3.39 3.39 0 0 1 .23-.548c.272-.48.51-.698.946-.556.051 0 .162.146.228.345.005.172.02.338.012.415-.077.854-.012 1.306.246 1.465.227.207.644.126 1.265-.073.972-.29 1.455-.71 2.05-3.838.036-.185.054-.374.1-.535.4-2.337.231-3.094-.528-3.236zm-9.359 2.955c-.322-.026-.69.023-1.128.102-1.03.208-1.483 1.161-1.83 2.688-.107.303-.233.807-.486 1.155-.387.564-.858.791-1.154.623-.136-.106-.206-.404-.25-.649.006-.807-.096-1.342-.339-1.659-.327-.424-.873-.461-1.7-.22-.06.006-.097.027-.148.027-.833.274-1.314 1.103-1.654 2.278-.345 1.156-.532 2.59-.719 4.136-.02.2-.045.368-.045.54-.107 1.519-.015 2.258.386 2.524.274.209.718.151 1.444-.026.104-.025.244-.05.363-.122.599-.136 1.043-.5 1.486-1.887.134-.444.267-.972.398-1.64.09-.247.165-.468.28-.647.303-.575.592-.84 1.125-.724.07.02.184.149.267.366.019.207.04.393.035.49-.085.965.006 1.464.32 1.642.285.196.776.054 1.523-.219 1.142-.43 1.74-.943 2.408-4.563.027-.198.054-.402.112-.606.427-2.697.225-3.531-.694-3.61zm16.934-14.149c-1.443.096-1.847.684-2.214 2.036-.253.933.268 1.385 1.46 1.209.905-.135 1.542-.71 1.783-1.88.246-1.175-.097-1.417-1.03-1.365zm-29.483 3.42c-1.073-.213-1.99.234-2.823 1.11-.405.415-.994 1.145-2.123 2.51-.36.429-1.376 1.863-2 2.7.323-1.035.765-2.713.82-3.46.043-.578.082-1.286-.63-1.39-.254-.069-1.228 0-1.811.273-.973.449-1.819 1.34-2.209 2.715-1.032 3.694-1.286 5.285-1.6 8.02-.107.981.035 3.038 2.693 2.082.59-.225 1.597-1.254 1.973-1.719.611-.607 1.005-1.135 1.79-2.09.727-.876 1.756-2.323 2.1-2.835-.076.538-.212.894-.237 1.366-.067.797-.125 2.877 1.55 2.216 1.156-.467 1.902-.99 2.47-2.993.27-.715.524-2.004.649-2.656.251-1.296.44-1.962.578-3.348.17-1.677-.34-2.34-1.19-2.5zm22.798.21c.128-.621.433-.998.844-1.203.037-.028.072-.028.136-.043.45-.129.714.52.538.944a3.068 3.068 0 0 1-.488.731c-.18.185-.364.321-.554.39-.398.16-.607-.15-.476-.82zM17.21 29.238c.537-1.397 1.426-2.147 2.469-2.499.093-.036.208-.05.335-.068 1.135-.127 1.499 1.366.894 2.307a7.113 7.113 0 0 1-1.415 1.467c-.482.38-.997.642-1.471.735-1.006.245-1.389-.49-.812-1.942zm33.832-8.159c.139-.047.276-.073.44-.115.944-.295 1.62-.664 2.09-1.542.49-.948.666-1.755 1.139-3.377.112 1.115.191 1.711.27 2.434.087.754.397 1.087 1.381.906.97-.174 1.378-.382 1.71-1.093.333-.732.045-2.876-.152-4.221-.197-1.325-.358-2.43-.665-3.009-.283-.526-.801-.693-1.675-.607-1.69.216-2.344.873-3.038 2.231-.153.328-.434.913-.64 1.378-.86 2.074-1.672 4.519-1.899 6.04-.097.565.29 1.173 1.039.975zm-9.81 3.413a4.75 4.75 0 0 0 .484-.147c1.069-.368 1.837-.8 2.385-1.804.571-1.094.803-2.017 1.389-3.912.063 1.301.134 1.979.208 2.8.063.87.392 1.224 1.488 1.029 1.085-.232 1.534-.463 1.926-1.291.403-.854.165-3.296 0-4.834-.181-1.515-.315-2.798-.632-3.46-.29-.581-.856-.785-1.824-.656-1.876.295-2.62 1.066-3.438 2.626-.18.372-.521 1.05-.74 1.575-1.048 2.412-2.034 5.229-2.352 6.968-.112.67.272 1.352 1.107 1.106zM31.052.422c-.914-.223-2.16.148-3.013.95-.427.365-.9.772-2.074 2.064-.368.415-1.433 1.523-2.095 2.33.345-1.066.822-2.813.896-3.594.035-.614.08-1.351-.66-1.58-.243-.125-1.25-.197-1.842.007-1.014.333-1.887 1.175-2.307 2.579-1.095 3.793-1.384 5.457-1.71 8.332-.118 1.056 0 3.288 2.753 2.653.605-.143 1.64-1.092 2.038-1.515.636-.57 1.037-1.077 1.857-1.976.76-.82 1.834-2.225 2.176-2.713-.067.544-.21.902-.26 1.422-.082.853-.154 3.058 1.58 2.612 1.19-.3 1.96-.755 2.565-2.805.288-.747.567-2.091.7-2.764.258-1.329.305-1.88.46-3.387.196-1.757-.178-2.38-1.064-2.616zM2.785 4.351c.215-.306.355-.74.42-1.325.046-.82-.088-1.228-.42-1.4-.208-.133-.472-.145-.794-.145-.137.012-.264.012-.373.055C.504 1.677.203 2.318.02 3.652c-.142.971.44 1.505 1.597 1.37a1.563 1.563 0 0 0 1.167-.67zm7.831 20.958c.207-.312.352-.752.424-1.337.044-.803-.096-1.212-.424-1.396-.212-.112-.487-.144-.793-.144-.14.032-.267.032-.384.061-1.111.146-1.408.788-1.597 2.133-.134.956.45 1.506 1.597 1.353a1.579 1.579 0 0 0 1.177-.67zM7.662 12.984c.538-1.497 1.444-2.31 2.529-2.714.097-.036.213-.07.356-.076 1.17-.183 1.571 1.4.955 2.395a7.52 7.52 0 0 1-1.44 1.617 4.24 4.24 0 0 1-1.53.805c-1.045.278-1.455-.493-.87-2.027zm25.763-2.369c.132-.026.275-.026.413-.043.934-.182 1.746-.512 2.142-1.364.387-.9.575-1.444 1.064-3.05-.03 1.339-.046 1.574.106 2.337.14.795.478 1.19 1.459 1.158.957-.03 1.506-.34 1.896-.972.174-.265.318-.658.471-1.073.167-.514.302-1.107.487-1.643.035 1.23.043 1.086.093 1.915.017.49.234.86.632 1.073.257.127.598.167 1.025.12.055 0 .131-.022.21-.022.669-.117 1.32-.416 1.502-1.554.331-2.05.143-4.287.143-4.287-.102-1.977-.455-2.759-1.225-2.872a9.566 9.566 0 0 0-.797-.061c-.12 0-.27-.013-.421.016-.348.016-.822.085-1.283.373-.352.22-.654.525-.88.89-.634.932-.745 1.516-1.165 2.691-.114-2.805-.428-4.017-2.262-4.05-1.678-.025-2.278.574-2.84 1.872-.151.313-.367.884-.522 1.333-.682 2.045-1.284 4.482-1.372 6.04-.052.588.39 1.282 1.124 1.173zM14.202 41.82c.084-.658.044-1.043-.164-1.284-.211-.238-.544-.3-.977-.3-.074.017-.14.017-.203.017-1.286.104-1.644.79-1.905 2.193-.178 1 .383 1.572 1.58 1.402.103 0 .23-.037.325-.08.549-.157.96-.537 1.18-1.263.065-.197.108-.412.164-.685zm23.33-5.788c-.177.463-.628 1.114-1.093 1.57-.148.128-.293.275-.418.35-.667.483-1.418-.19-.616-2.111.27-.684.652-1.228 1.068-1.593.223-.214.444-.358.704-.447.617-.202.988.489.355 2.23zm9.3-27.642c.163.05.332.05.53.023 1.258-.173 1.407-.591 1.793-1.207.371-.577.585-1.076.949-2.374.024.69.02.973.083 1.687.039.403.173.687.349.897.27.316.679.407 1.027.39.576-.074 1.324-.118 1.693-.79.374-.667.424-1.094.727-2.445 0 1.316.009 1.279.128 2.06.111.777.792.926 1.27.867 1.01-.137 1.66-.21 1.849-1.473.21-1.236.05-2.706-.207-3.953C56.756.837 56.49.03 55.21 0c-.799 0-1.837.035-2.373.982-.433.792-.492 1.01-.877 2.029C51.85.664 51.484.043 50.31 0h-.334c-1.363.074-2.079.395-2.89 2.47a22.613 22.613 0 0 0-.65 1.949c-.263.84-.425 1.713-.484 2.597-.068.757.367 1.245.88 1.374z"/>
</svg>
