<svg xmlns="http://www.w3.org/2000/svg" width="149" height="36" viewBox="0 0 149 36">
    <g fill="none" fill-rule="nonzero">
        <path fill="#152B53" d="M79.904 26.458c-.482.27-.693.396-.693.754 0 .178.179.597.866.597.375 0 .71-.175.906-.313l-1.08-1.038zm19.571-.695c-.786 0-.974.54-.974 1.072 0 .496.278.96 1.006.96.735 0 .941-.614.941-1.008 0-.528-.246-1.024-.973-1.024zm-43.583-.019c-.885 0-1.047.59-1.047 1.014 0 .429.162 1.02 1.047 1.02.88 0 1.043-.591 1.043-1.02 0-.423-.162-1.014-1.043-1.014zm15.086 0c-.883 0-1.047.59-1.047 1.014 0 .429.164 1.02 1.047 1.02.882 0 1.044-.591 1.044-1.02 0-.423-.162-1.014-1.044-1.014zm46.703 0c-.882 0-1.046.59-1.046 1.014 0 .429.164 1.02 1.046 1.02s1.044-.591 1.044-1.02c.001-.423-.162-1.014-1.044-1.014zm-13.69-.021c-.54 0-.825.264-.892.702h1.773c-.065-.537-.513-.702-.88-.702zm-23.684-1.136c-.256 0-.476.125-.476.365 0 .15.149.33.427.565.307-.15.537-.326.537-.558.001-.25-.21-.372-.488-.372zm5.826.503h1.146v3.339h-1.146V25.09zm27.498 0h1.141v3.339h-1.141V25.09zm-62.339 3.428c-1.633 0-2.008-.962-2.008-1.664 0-1.08.61-1.851 2.082-1.851.686 0 1.816.236 1.92 1.278h-1.159c-.047-.21-.217-.54-.706-.54-.017 0-.036 0-.055.003-.719 0-.906.552-.906.966 0 .364.016 1.084.883 1.084.578 0 .775-.426.775-.584h1.16c-.039.346-.393 1.308-1.986 1.308zm4.6 0c-1.17 0-2.226-.552-2.226-1.758s1.055-1.756 2.226-1.756c1.168 0 2.22.551 2.22 1.756 0 1.206-1.052 1.758-2.22 1.758zm3.96-2.939h.015c.155-.202.483-.576 1.308-.576.848 0 1.51.382 1.51 1.116v2.312h-1.142v-2.03c0-.243-.018-.658-.746-.658-.507 0-.897.264-.897.769v1.918h-1.145v-3.343h1.096v.492zm7.386.09h.017c.236-.341.499-.666 1.194-.666l.218.011v.893c-.097-.012-.218-.012-.327-.012-.89 0-1.054.426-1.054.797v1.74h-1.143V25.09h1.094v.58zm3.74 2.849c-1.17 0-2.225-.552-2.225-1.758s1.055-1.756 2.225-1.756c1.168 0 2.22.551 2.22 1.756 0 1.206-1.052 1.758-2.22 1.758zm18.33-2.939h.016c.158-.202.484-.576 1.31-.576.85 0 1.51.382 1.51 1.116v2.312H91v-2.03c0-.243-.017-.658-.744-.658-.506 0-.897.264-.897.769v1.918h-1.144v-3.343h1.095v.492h-.002zm5.578 2.273c.587 0 .727-.22.727-.347 0-.56-2.697-.137-2.697-1.388 0-.49.4-1.114 1.757-1.114.85 0 1.864.164 1.953 1.103h-1.118c-.05-.214-.148-.438-.769-.438-.62 0-.702.18-.702.324 0 .526 2.72.144 2.72 1.376 0 .975-1.225 1.15-1.904 1.15-.988 0-2.06-.265-2.091-1.157h1.175c0 .284.23.491.949.491zm3.617-2.28h.017c.21-.262.53-.57 1.298-.57.959 0 1.81.566 1.81 1.72 0 .917-.541 1.796-1.832 1.796-.803 0-1.086-.331-1.226-.515h-.017v1.733H97.41v-4.648h1.094v.484h-.001zm5.585 2.946c-1.223 0-2.164-.452-2.164-1.826 0-.403.18-1.69 2.082-1.69.86 0 2.045.316 2.045 1.84V27h-2.982c.03.25.098.817 1.02.817.32 0 .646-.125.736-.367H106c-.303.803-1.17 1.068-1.913 1.068zm4.319 0c-1.631 0-2.007-.962-2.007-1.664 0-1.08.612-1.851 2.083-1.851.685 0 1.814.236 1.921 1.278h-1.161c-.047-.21-.217-.54-.706-.54-.019 0-.036 0-.055.003-.72 0-.908.552-.908.966 0 .364.019 1.084.884 1.084.578 0 .776-.426.776-.584h1.162c-.041.346-.395 1.308-1.989 1.308zm9.274 0c-1.17 0-2.224-.552-2.224-1.758s1.053-1.756 2.224-1.756c1.168 0 2.222.551 2.222 1.756 0 1.206-1.054 1.758-2.222 1.758zm3.96-2.939h.015c.157-.202.483-.576 1.309-.576.85 0 1.51.382 1.51 1.116v2.312h-1.142v-2.03c0-.243-.016-.658-.744-.658-.507 0-.898.264-.898.769v1.918h-1.144v-3.343h1.094v.492zm-58.5.138v-.628h.588v-.904h1.145v.904h.71v.628h-.71v1.816c0 .195.008.27.473.27l.237-.012v.665c-.18.007-.36.014-.54.014h-.147c-.99 0-1.168-.29-1.168-.722v-2.03h-.588v-.001zm47.449 0v-.628h.588v-.904h1.141v.904h.713v.628h-.713v1.816c0 .195.009.27.477.27l.237-.012v.665c-.181.007-.362.014-.542.014h-.148c-.988 0-1.165-.29-1.165-.722v-2.03h-.588v-.001zm-36.715-1.794h1.144v4.51h-1.144v-4.51zm6.021 4.624c-1.12 0-1.83-.61-1.83-1.278 0-.434.156-.863 1.127-1.311l.123-.056c-.246-.216-.53-.554-.53-.943 0-.617.647-1.036 1.56-1.036.646 0 1.44.32 1.44 1.043 0 .632-.737.965-.975 1.072l.834.793c.147-.176.26-.399.304-.742h1.012c-.073.61-.278.962-.67 1.356l1.062.987h-1.381l-.4-.384c-.343.26-.794.5-1.676.5zm6.237-4.668h1.146v.816h-1.146v-.816zm27.498 0h1.141v.816h-1.141v-.816zM34.744 21.99l-7.74 8.718 121.925-.01-8.14-8.705-56.23-.003c-.642.591-1.455.718-2.795.718-.454 0-1.025-.021-1.503-.046v-.672H34.744z"/>
        <path fill="#B66821" d="M48.575.885H35.33v16.743h4.142v-6.917h7.886V7.85h-7.886V3.978h9.102V.885zm13.364 0H49.432V3.98h3.815v13.65h4.141V3.978h4.551V.885zM16.656 18.702l-7.739 8.326 7.739 8.32 7.737-8.32-7.737-8.326zM8.012 9.406l-7.74 8.323 7.74 8.323 7.737-8.323-7.737-8.323zm17.284 0l-7.74 8.323 7.74 8.323 7.737-8.323-7.737-8.323zM16.656.113L8.917 8.436l7.739 8.323 7.737-8.323L16.656.113z"/>
        <path fill="#152B53" d="M71.235.568c-5.55 0-6.573 3.282-6.573 5.146 0 3.68 2.666 4.282 5.429 4.913l1.833.42c1.812.418 3.096.767 3.096 2.072 0 1.769-1.88 2.164-3.571 2.164-3.12 0-3.596-1.768-3.621-2.7H64.4c0 2.073 1.072 5.587 7.31 5.587 1.5 0 6.739-.442 6.739-5.472 0-3.004-2.14-3.934-4.477-4.493l-4.167-1c-.715-.164-1.81-.444-1.81-1.746 0-1.514 1.62-2.003 2.977-2.003 3.12 0 3.406 1.769 3.502 2.515H77.9C77.879 3.92 76.47.568 71.235.568M91.025 5.341H87.5l-2.597 9.126h-.047L82.14 5.34h-3.712l4.666 12.898c-.31 1.701-.976 1.863-2.19 1.863-.287 0-.5-.024-.643-.047v2.609c.478.022 1.048.047 1.502.047 1.34 0 2.152-.13 2.794-.72.748-.689 1.264-2.004 2.11-4.473L91.025 5.34M96.548 5.015c-3.952 0-5.12 2.329-5.12 4.133 0 4.642 7.858 3.078 7.858 5.155 0 .467-.405 1.281-2.122 1.281-2.094 0-2.76-.767-2.76-1.817h-3.429c.097 3.308 3.214 4.285 6.096 4.285 1.975 0 5.549-.65 5.549-4.26 0-4.574-7.931-3.156-7.931-5.105 0-.532.239-1.205 2.05-1.205 1.808 0 2.093.832 2.236 1.619h3.263c-.261-3.481-3.215-4.086-5.69-4.086M107.62 1.988h-3.334V5.34h-1.715v2.328h1.715v7.522c0 1.607.523 2.678 3.406 2.678h.427c.526 0 1.048-.025 1.574-.048v-2.467a7.33 7.33 0 0 1-.692.046c-1.355 0-1.38-.28-1.38-1.001v-6.73h2.072V5.34h-2.072V1.988"/>
        <path fill="#152B53" d="M113.07 10.299c.189-1.629 1.023-2.605 2.594-2.605 1.072 0 2.38.605 2.571 2.605h-5.166m2.642-5.284c-5.55 0-6.073 4.773-6.073 6.263 0 5.099 2.738 6.773 6.31 6.773 2.166 0 4.69-.977 5.572-3.957h-3.428c-.263.885-1.214 1.351-2.142 1.351-2.69 0-2.88-2.096-2.977-3.026h8.69v-.584c0-5.656-3.452-6.82-5.952-6.82M136.426 5.015c-2.025 0-2.954 1.372-3.382 1.977-.857-1.325-1.69-1.977-3.523-1.977-2.238 0-3.167 1.326-3.598 2.144h-.048V5.34h-3.19v12.387h3.334v-7.543c0-1.351.502-2.421 2.072-2.421 1.999 0 1.999 1.465 1.999 2.514v7.45h3.332v-7.43c0-1.464.596-2.536 2.264-2.536.976 0 1.81.605 1.81 2.444v7.522h3.332v-8.57c.002-2.724-1.926-4.143-4.402-4.143"/>
        <path fill="#DBDCDD" d="M51.366 25.003c-1.472 0-2.083.77-2.083 1.851 0 .703.375 1.664 2.01 1.664 1.592 0 1.945-.962 1.985-1.308h-1.16c0 .158-.197.584-.776.584-.867 0-.882-.72-.882-1.084 0-.415.187-.966.906-.966.019-.002.038-.002.055-.002.489 0 .659.328.705.54h1.16c-.104-1.043-1.234-1.28-1.92-1.28M55.892 27.779c-.885 0-1.047-.591-1.047-1.02 0-.423.162-1.014 1.047-1.014.88 0 1.043.591 1.043 1.015 0 .428-.162 1.019-1.043 1.019m0-2.776c-1.17 0-2.226.551-2.226 1.755 0 1.208 1.055 1.759 2.226 1.759 1.168 0 2.22-.552 2.22-1.759 0-1.204-1.052-1.755-2.22-1.755M61.175 25.003c-.825 0-1.153.374-1.307.576h-.017v-.491h-1.095v3.343H59.9v-1.918c0-.506.39-.769.897-.769.728 0 .746.415.746.658v2.03h1.142V26.12c0-.735-.661-1.117-1.51-1.117M64.873 24.185h-1.144v.907h-.588v.625h.588v2.03c0 .433.179.722 1.167.722h.148c.18 0 .358-.007.54-.012v-.666l-.237.014c-.465 0-.474-.076-.474-.273v-1.814h.71v-.625h-.71v-.908M68.449 25.003c-.695 0-.957.323-1.194.665h-.017v-.579h-1.095v3.343h1.143v-1.74c0-.37.165-.797 1.054-.797.109 0 .23 0 .327.012v-.893l-.218-.011M70.978 27.779c-.883 0-1.046-.591-1.046-1.02 0-.423.163-1.014 1.046-1.014s1.044.591 1.044 1.015c0 .428-.161 1.019-1.044 1.019m0-2.776c-1.17 0-2.225.551-2.225 1.755 0 1.208 1.055 1.759 2.225 1.759 1.169 0 2.222-.552 2.222-1.759 0-1.204-1.053-1.755-2.222-1.755M73.875 23.923h1.144v4.509h-1.144zM80.078 27.808c-.685 0-.866-.42-.866-.598 0-.357.21-.484.694-.753l1.079 1.038c-.198.138-.533.313-.907.313m.18-2.29c-.278-.232-.426-.416-.426-.566 0-.239.22-.365.476-.365.278 0 .488.119.488.37 0 .233-.23.41-.537.56m.088-1.594c-.913 0-1.56.42-1.56 1.036 0 .389.287.727.53.94l-.124.059c-.971.452-1.127.877-1.127 1.31 0 .672.712 1.28 1.833 1.28.882 0 1.332-.24 1.675-.501l.4.384h1.379l-1.06-.987c.39-.394.596-.746.668-1.358h-1.012c-.042.345-.157.568-.3.741l-.834-.79c.237-.107.971-.44.971-1.072 0-.723-.793-1.042-1.439-1.042M87.278 25.09h-1.145v3.339h1.145V25.09zm0-1.21h-1.145v.815h1.145v-.816zM90.633 25.003c-.825 0-1.152.374-1.31.576h-.016v-.491h-1.094v3.343h1.144v-1.918c0-.506.39-.769.897-.769.727 0 .744.415.744.658v2.03h1.144V26.12c.001-.735-.66-1.117-1.509-1.117M94.673 25.003c-1.355 0-1.757.625-1.757 1.114 0 1.251 2.697.829 2.697 1.388 0 .127-.14.347-.727.347-.72 0-.948-.209-.948-.491h-1.176c.032.892 1.103 1.157 2.09 1.157.68 0 1.906-.176 1.906-1.15 0-1.232-2.721-.85-2.721-1.376 0-.144.08-.324.702-.324s.718.224.77.438h1.117c-.089-.939-1.104-1.103-1.953-1.103M99.508 27.794c-.727 0-1.005-.464-1.005-.96 0-.532.187-1.072.972-1.072.727 0 .974.496.974 1.024 0 .395-.206 1.008-.94 1.008m.308-2.791c-.767 0-1.086.308-1.298.569h-.018v-.484h-1.094v4.648h1.144v-1.733h.017c.14.183.425.515 1.224.515 1.293 0 1.833-.878 1.833-1.796.001-1.154-.85-1.72-1.808-1.72M103.1 26.425c.067-.438.35-.702.893-.702.367 0 .817.165.881.702H103.1m.906-1.422c-1.902 0-2.082 1.286-2.082 1.689 0 1.374.94 1.826 2.164 1.826.743 0 1.61-.265 1.915-1.068h-1.18c-.089.24-.414.367-.735.367-.922 0-.988-.566-1.021-.817h2.983v-.157c0-1.525-1.183-1.84-2.044-1.84M108.482 25.003c-1.471 0-2.085.77-2.085 1.851 0 .703.378 1.664 2.009 1.664 1.594 0 1.947-.962 1.988-1.308h-1.16c0 .158-.197.584-.778.584-.865 0-.882-.72-.882-1.084 0-.415.188-.966.907-.966.018-.002.036-.002.054-.002.49 0 .66.328.707.54h1.16c-.105-1.043-1.234-1.28-1.92-1.28M112.32 24.185h-1.142v.907h-.59v.625h.59v2.03c0 .433.176.722 1.166.722h.147c.18 0 .36-.007.54-.012v-.666l-.235.014c-.468 0-.477-.076-.477-.273v-1.814h.712v-.625h-.712v-.908M114.774 25.09h-1.143v3.339h1.143V25.09zm0-1.21h-1.143v.815h1.143v-.816zM117.68 27.779c-.882 0-1.044-.591-1.044-1.02 0-.423.162-1.014 1.045-1.014.883 0 1.045.591 1.045 1.015.001.428-.162 1.019-1.045 1.019m0-2.776c-1.17 0-2.226.551-2.226 1.755 0 1.208 1.055 1.759 2.226 1.759 1.168 0 2.223-.552 2.223-1.759 0-1.204-1.055-1.755-2.223-1.755M122.964 25.003c-.825 0-1.152.374-1.31.576h-.015v-.491h-1.094v3.343h1.144v-1.918c0-.506.39-.769.897-.769.726 0 .745.415.745.658v2.03h1.144V26.12c0-.735-.661-1.117-1.511-1.117"/>
    </g>
</svg>
