<?xml version="1.0" encoding="utf-8"?>
<!-- Generator: Adobe Illustrator 16.0.0, SVG Export Plug-In . SVG Version: 6.00 Build 0)  -->
<!DOCTYPE svg PUBLIC "-//W3C//DTD SVG 1.1//EN" "http://www.w3.org/Graphics/SVG/1.1/DTD/svg11.dtd">
<svg version="1.1" id="Layer_1" xmlns="http://www.w3.org/2000/svg" xmlns:xlink="http://www.w3.org/1999/xlink" x="0px" y="0px"
	 width="147.41px" height="46.025px" viewBox="0 0 147.41 46.025" enable-background="new 0 0 147.41 46.025" xml:space="preserve">
<rect x="7.182" y="32.85" fill="#008C7B" width="35.998" height="10.637"/>
<polygon fill="#FB5244" points="50.394,32.766 43.199,43.486 27.281,22.838 34.963,12.553 "/>
<polygon fill="#00BFB0" points="25.454,0 0,32.766 7.196,43.486 33.127,10.011 "/>
<polygon fill="#00383D" points="50.394,32.766 43.199,43.486 34.998,32.849 "/>
<g>
	<path fill="#00383D" d="M64.712,17.796h-2.964l-0.835,1.871h-0.856l3.204-6.954l3.121,6.954h-0.855L64.712,17.796z M64.409,17.1
		l-1.169-2.656L62.051,17.1H64.409z"/>
	<path fill="#00383D" d="M67.367,13.031h3.173v0.696h-2.4v5.939h-0.772V13.031z"/>
	<path fill="#00383D" d="M75.197,13.727h-2.838v1.97h2.755v0.697h-2.755v2.577h2.838v0.696h-3.611v-6.636h3.611V13.727z"/>
	<path fill="#00383D" d="M77.393,15.727h3.569v-2.696h0.772v6.636h-0.772v-3.243h-3.569v3.243H76.62v-6.636h0.772V15.727z"/>
	<path fill="#00383D" d="M85.246,13.727v5.939h-0.772v-5.939h-1.69v-0.696h4.153v0.696H85.246z"/>
	<path fill="#00383D" d="M92.951,14.493c-0.22-0.209-0.554-0.458-0.908-0.617c-0.365-0.159-0.793-0.259-1.2-0.259
		c-1.607,0-2.797,1.234-2.797,2.766c0,1.801,1.534,2.706,2.808,2.706c0.469,0,0.929-0.129,1.294-0.308
		c0.396-0.189,0.679-0.438,0.804-0.557v0.915c-0.772,0.527-1.576,0.647-2.098,0.647c-2.067,0-3.602-1.493-3.602-3.413
		c0-1.98,1.556-3.452,3.643-3.452c0.418,0,1.222,0.05,2.057,0.657V14.493z"/>
	<path fill="#00383D" d="M96.087,13.727v5.939h-0.772v-5.939h-1.69v-0.696h4.153v0.696H96.087z"/>
	<path fill="#00383D" d="M100.077,13.031c0.386,0,1.085,0.03,1.597,0.418c0.219,0.159,0.626,0.567,0.626,1.373
		c0,0.329-0.073,0.905-0.688,1.304c0.971,0.229,1.325,1.034,1.325,1.671s-0.334,1.154-0.71,1.433
		c-0.553,0.418-1.189,0.438-1.67,0.438h-1.732v-6.636H100.077z M99.597,15.946h0.585c0.406,0,1.367-0.08,1.367-1.104
		c0-1.094-1.128-1.114-1.347-1.114h-0.605V15.946z M99.597,18.97h0.887c0.449,0,0.888-0.03,1.222-0.279
		c0.271-0.189,0.459-0.517,0.459-0.915c0-0.527-0.323-0.836-0.595-0.975c-0.261-0.139-0.626-0.199-1.18-0.199h-0.793V18.97z"/>
	<path fill="#00383D" d="M103.983,16.354c0-1.979,1.618-3.432,3.622-3.432s3.621,1.453,3.621,3.432c0,1.97-1.606,3.433-3.621,3.433
		S103.983,18.323,103.983,16.354z M104.777,16.354c0,1.522,1.263,2.736,2.828,2.736s2.828-1.213,2.828-2.736
		c0-1.522-1.263-2.736-2.828-2.736S104.777,14.832,104.777,16.354z"/>
</g>
<g>
	<path fill="#00383D" d="M60.871,24.967h0.772v5.939h3.528v-5.939h0.772v5.939h0.793v2.089h-0.73v-1.393h-5.135V24.967z"/>
	<path fill="#00383D" d="M72.627,26.539l-4.843,5.362v-6.935h0.772v5.084l4.843-5.362v6.914h-0.773V26.539z"/>
	<path fill="#00383D" d="M78.206,30.667h-0.188c-2.589,0-3.194-1.512-3.194-2.586c0-1.075,0.605-2.587,3.194-2.587h0.188v-0.796
		h0.772v0.796h0.188c2.589,0,3.194,1.512,3.194,2.587c0,1.074-0.605,2.586-3.194,2.586h-0.188v0.936h-0.772V30.667z M78.206,26.19
		h-0.209c-1.899,0-2.379,1.045-2.379,1.891s0.479,1.89,2.379,1.89h0.209V26.19z M78.979,29.971h0.209
		c1.899,0,2.379-1.044,2.379-1.89s-0.479-1.891-2.379-1.891h-0.209V29.971z"/>
	<path fill="#00383D" d="M85.048,24.967c0.699,0,1.284,0.079,1.754,0.468c0.511,0.418,0.637,1.005,0.637,1.423
		c0,0.935-0.616,1.86-2.202,1.86h-0.679v2.885h-0.772v-6.636H85.048z M84.558,28.021h0.637c0.918,0,1.472-0.438,1.472-1.204
		c0-1.055-1.033-1.154-1.534-1.154h-0.574V28.021z"/>
	<path fill="#00383D" d="M88.171,28.29c0-1.98,1.618-3.433,3.622-3.433s3.621,1.452,3.621,3.433c0,1.97-1.606,3.432-3.621,3.432
		S88.171,30.26,88.171,28.29z M88.965,28.29c0,1.521,1.263,2.735,2.828,2.735s2.828-1.214,2.828-2.735
		c0-1.522-1.263-2.736-2.828-2.736S88.965,26.768,88.965,28.29z"/>
	<path fill="#00383D" d="M98.093,24.967c0.386,0,1.085,0.029,1.597,0.418c0.219,0.159,0.626,0.566,0.626,1.373
		c0,0.328-0.073,0.905-0.688,1.303c0.971,0.229,1.325,1.035,1.325,1.672s-0.334,1.154-0.71,1.433
		c-0.553,0.418-1.189,0.438-1.67,0.438H96.84v-6.636H98.093z M97.612,27.882h0.585c0.406,0,1.367-0.08,1.367-1.104
		c0-1.095-1.128-1.114-1.347-1.114h-0.605V27.882z M97.612,30.906h0.887c0.449,0,0.888-0.03,1.222-0.278
		c0.271-0.189,0.459-0.518,0.459-0.916c0-0.527-0.323-0.835-0.595-0.975c-0.261-0.14-0.626-0.199-1.18-0.199h-0.793V30.906z"/>
	<path fill="#00383D" d="M101.999,28.29c0-1.98,1.618-3.433,3.622-3.433s3.621,1.452,3.621,3.433c0,1.97-1.606,3.432-3.621,3.432
		S101.999,30.26,101.999,28.29z M102.793,28.29c0,1.521,1.263,2.735,2.828,2.735s2.828-1.214,2.828-2.735
		c0-1.522-1.263-2.736-2.828-2.736S102.793,26.768,102.793,28.29z"/>
	<path fill="#00383D" d="M115.51,26.539l-4.843,5.362v-6.935h0.772v5.084l4.843-5.362v6.914h-0.772V26.539z M112.588,23.235
		c0.167,0.548,0.804,0.558,0.887,0.558c0.084,0,0.721-0.01,0.887-0.558l0.731,0.229c-0.063,0.169-0.429,0.965-1.618,0.965
		s-1.555-0.796-1.617-0.965L112.588,23.235z"/>
</g>
<g>
	<defs>
		<rect id="SVGID_1_" y="0" width="147.41" height="46.025"/>
	</defs>
	<clipPath id="SVGID_2_">
		<use xlink:href="#SVGID_1_"  overflow="visible"/>
	</clipPath>
	<g clip-path="url(#SVGID_2_)">
		<path fill="#00383D" d="M62.583,37.6v5.939h-0.772V37.6H60.12v-0.696h4.154V37.6H62.583z"/>
		<path fill="#00383D" d="M66.583,36.903c0.699,0,1.284,0.079,1.753,0.468c0.511,0.418,0.637,1.005,0.637,1.423
			c0,0.935-0.616,1.86-2.203,1.86h-0.678v2.885H65.32v-6.636H66.583z M66.093,39.957h0.637c0.918,0,1.472-0.438,1.472-1.203
			c0-1.055-1.033-1.154-1.534-1.154h-0.574V39.957z"/>
		<path fill="#00383D" d="M73.422,41.669h-2.964l-0.835,1.87h-0.856l3.204-6.954l3.121,6.954h-0.855L73.422,41.669z M73.119,40.973
			l-1.169-2.656l-1.189,2.656H73.119z"/>
		<path fill="#00383D" d="M76.85,39.6h3.569v-2.696h0.772v6.636h-0.772v-3.243H76.85v3.243h-0.772v-6.636h0.772V39.6z"/>
		<path fill="#00383D" d="M88.314,38.365c-0.22-0.208-0.554-0.457-0.908-0.616c-0.365-0.159-0.793-0.259-1.2-0.259
			c-1.607,0-2.797,1.233-2.797,2.766c0,1.801,1.534,2.706,2.808,2.706c0.469,0,0.929-0.129,1.294-0.309
			c0.396-0.188,0.679-0.438,0.804-0.557v0.915c-0.772,0.527-1.576,0.646-2.098,0.646c-2.067,0-3.602-1.492-3.602-3.412
			c0-1.979,1.556-3.452,3.643-3.452c0.418,0,1.222,0.05,2.057,0.656V38.365z"/>
		<path fill="#00383D" d="M92.744,42.604h-0.188c-2.589,0-3.194-1.512-3.194-2.586c0-1.075,0.605-2.587,3.194-2.587h0.188v-0.796
			h0.772v0.796h0.188c2.589,0,3.194,1.512,3.194,2.587c0,1.074-0.605,2.586-3.194,2.586h-0.188v0.936h-0.772V42.604z M92.744,38.127
			h-0.209c-1.899,0-2.379,1.045-2.379,1.891s0.479,1.89,2.379,1.89h0.209V38.127z M93.517,41.907h0.209
			c1.899,0,2.38-1.044,2.38-1.89s-0.48-1.891-2.38-1.891h-0.209V41.907z"/>
		<path fill="#00383D" d="M97.947,40.227c0-1.98,1.618-3.433,3.622-3.433s3.622,1.452,3.622,3.433c0,1.97-1.607,3.432-3.622,3.432
			S97.947,42.196,97.947,40.227z M98.741,40.227c0,1.521,1.263,2.735,2.828,2.735s2.828-1.214,2.828-2.735
			c0-1.522-1.263-2.736-2.828-2.736S98.741,38.704,98.741,40.227z"/>
		<path fill="#00383D" d="M107.878,36.903c0.699,0,1.284,0.079,1.754,0.468c0.511,0.418,0.637,1.005,0.637,1.423
			c0,0.935-0.616,1.86-2.202,1.86h-0.679v2.885h-0.772v-6.636H107.878z M107.388,39.957h0.637c0.918,0,1.472-0.438,1.472-1.203
			c0-1.055-1.033-1.154-1.534-1.154h-0.574V39.957z"/>
		<path fill="#00383D" d="M111.033,43.539l1.159-7.004l2.672,5.602l2.724-5.611l1.086,7.014h-0.794l-0.657-4.616l-2.369,4.895
			l-2.338-4.895l-0.688,4.616H111.033z"/>
		<path fill="#00383D" d="M123.918,41.669h-2.964l-0.835,1.87h-0.855l3.204-6.954l3.12,6.954h-0.855L123.918,41.669z
			 M123.615,40.973l-1.169-2.656l-1.189,2.656H123.615z"/>
		<path fill="#00383D" d="M126.573,36.903h0.772v5.939h3.527v-5.939h0.772v5.939h0.794v2.089h-0.731v-1.393h-5.135V36.903z"/>
		<path fill="#00383D" d="M138.33,38.476l-4.843,5.362v-6.935h0.772v5.084l4.843-5.362v6.914h-0.772V38.476z"/>
		<path fill="#00383D" d="M145.745,38.476l-4.843,5.362v-6.935h0.772v5.084l4.843-5.362v6.914h-0.772V38.476z"/>
	</g>
</g>
</svg>
