<svg xmlns="http://www.w3.org/2000/svg" xmlns:xlink="http://www.w3.org/1999/xlink" width="179" height="37" viewBox="0 0 179 37">
    <defs>
        <path id="a" d="M.788.866h178.526v36.756H.788z"/>
        <path id="c" d="M.788.866h178.526v36.756H.788z"/>
        <path id="e" d="M.788.866h178.526v36.756H.788z"/>
        <path id="g" d="M.788.866h178.526v36.756H.788z"/>
        <path id="i" d="M.788.866h178.526v36.756H.788z"/>
        <path id="k" d="M.788.866h178.526v36.756H.788z"/>
        <path id="m" d="M.788.866h178.526v36.756H.788z"/>
        <path id="o" d="M.788.866h178.526v36.756H.788z"/>
        <path id="q" d="M.788.866h178.526v36.756H.788z"/>
        <path id="s" d="M.788.866h178.526v36.756H.788z"/>
        <path id="u" d="M.788.866h178.526v36.756H.788z"/>
        <path id="w" d="M.788.866h178.526v36.756H.788z"/>
        <path id="y" d="M.788.866h178.526v36.756H.788z"/>
        <path id="A" d="M.788.866h178.526v36.756H.788z"/>
        <path id="C" d="M.788.866h178.526v36.756H.788z"/>
        <path id="E" d="M.788.866h178.526v36.756H.788z"/>
        <path id="G" d="M.788.866h178.526v36.756H.788z"/>
        <path id="I" d="M.788.866h178.526v36.756H.788z"/>
        <path id="K" d="M.788.866h178.526v36.756H.788z"/>
        <path id="M" d="M.788.866h178.526v36.756H.788z"/>
        <path id="O" d="M.788.866h178.526v36.756H.788z"/>
        <path id="Q" d="M.788.866h178.526v36.756H.788z"/>
        <path id="S" d="M.788.866h178.526v36.756H.788z"/>
        <path id="U" d="M.788.866h178.526v36.756H.788z"/>
        <path id="W" d="M.788.866h178.526v36.756H.788z"/>
        <path id="Y" d="M.788.866h178.526v36.756H.788z"/>
        <path id="aa" d="M.788.866h178.526v36.756H.788z"/>
        <path id="ac" d="M.788.866h178.526v36.756H.788z"/>
        <path id="ae" d="M.788.866h178.526v36.756H.788z"/>
        <path id="ag" d="M.788.866h178.526v36.756H.788z"/>
        <path id="ai" d="M.788.866h178.526v36.756H.788z"/>
        <path id="ak" d="M.788.866h178.526v36.756H.788z"/>
        <path id="am" d="M.788.866h178.526v36.756H.788z"/>
        <path id="ao" d="M.788.866h178.526v36.756H.788z"/>
        <path id="aq" d="M.788.866h178.526v36.756H.788z"/>
        <path id="as" d="M.788.866h178.526v36.756H.788z"/>
        <path id="au" d="M.788.866h178.526v36.756H.788z"/>
        <path id="aw" d="M.788.866h178.526v36.756H.788z"/>
        <path id="ay" d="M.788.866h178.526v36.756H.788z"/>
        <path id="aA" d="M.788.866h178.526v36.756H.788z"/>
        <path id="aC" d="M.788.866h178.526v36.756H.788z"/>
        <path id="aE" d="M.788.866h178.526v36.756H.788z"/>
        <path id="aG" d="M.788.866h178.526v36.756H.788z"/>
    </defs>
    <g fill="none" fill-rule="evenodd">
        <g transform="translate(-1 -1)">
            <mask id="b" fill="#fff">
                <use xlink:href="#a"/>
            </mask>
            <path fill="#D0D2D3" fill-rule="nonzero" d="M93.244 10.828c-1.403-.904-2.876-1.283-4.56-1.283-1.685 0-3.158.379-4.562 1.283-1.403.906-2.455 2.038-3.227 3.473-.843 1.434-1.194 3.094-1.263 4.905.07 1.813.42 3.472 1.263 4.906.772 1.434 1.824 2.643 3.227 3.472 1.404.906 2.877 1.284 4.561 1.358 1.685-.074 3.158-.452 4.561-1.358 1.403-.83 2.456-2.038 3.228-3.472.843-1.434 1.194-3.093 1.264-4.906-.07-1.811-.421-3.472-1.264-4.905-.772-1.435-1.894-2.567-3.228-3.473m-.702 4.152c1.053 1.131 1.615 2.567 1.615 4.152 0 1.734-.562 3.169-1.615 4.226-1.052 1.058-2.314 1.735-3.859 1.735-1.543 0-2.876-.677-3.86-1.735-1.052-1.057-1.613-2.49-1.613-4.226 0-1.585.561-3.02 1.614-4.152.983-1.057 2.316-1.661 3.86-1.661s2.806.604 3.858 1.661" mask="url(#b)"/>
        </g>
        <g transform="translate(-1 -1)">
            <mask id="d" fill="#fff">
                <use xlink:href="#c"/>
            </mask>
            <path fill="#231F20" fill-rule="nonzero" d="M93.175 10.828c-1.334-.904-2.877-1.283-4.492-1.283-1.754 0-3.227.379-4.561 1.283-1.403.906-2.455 2.038-3.296 3.473-.774 1.434-1.194 3.094-1.264 4.905.07 1.813.49 3.472 1.264 4.906.841 1.434 1.893 2.643 3.296 3.472 1.334.906 2.808 1.284 4.561 1.358 1.685-.074 3.158-.452 4.561-1.358 1.334-.83 2.387-2.038 3.157-3.472.842-1.434 1.264-3.093 1.264-4.906 0-1.811-.422-3.472-1.264-4.905-.77-1.435-1.823-2.567-3.226-3.473m-.633 4.152c.984 1.131 1.545 2.567 1.615 4.152-.07 1.734-.631 3.169-1.615 4.226-1.052 1.058-2.314 1.735-3.928 1.735-1.545 0-2.807-.677-3.86-1.735-.983-1.057-1.544-2.49-1.614-4.226.07-1.585.631-3.02 1.615-4.152 1.052-1.057 2.314-1.661 3.859-1.661 1.614 0 2.876.604 3.928 1.661" mask="url(#d)"/>
        </g>
        <g transform="translate(-1 -1)">
            <mask id="f" fill="#fff">
                <use xlink:href="#e"/>
            </mask>
            <path stroke="#231F20" stroke-linecap="round" stroke-linejoin="round" stroke-width=".173" d="M96.262 14.376c.841 1.435 1.192 3.02 1.192 4.83 0 1.737-.35 3.398-1.192 4.832-.774 1.434-1.825 2.566-3.157 3.396-1.333.906-2.878 1.282-4.491 1.359-1.685-.077-3.157-.453-4.492-1.359-1.403-.831-2.456-1.963-3.227-3.396a10.193 10.193 0 0 1-1.194-4.832c0-1.81.422-3.395 1.194-4.83.771-1.435 1.824-2.567 3.227-3.472a8.296 8.296 0 0 1 4.492-1.283c1.613 0 3.158.377 4.49 1.283 1.334.905 2.384 2.039 3.158 3.472" mask="url(#f)"/>
        </g>
        <g transform="translate(-1 -1)">
            <mask id="h" fill="#fff">
                <use xlink:href="#g"/>
            </mask>
            <path fill="#231F20" fill-rule="nonzero" d="M86.508 1.32l-.563 3.018c-.84.151-1.684.379-2.456.68l-1.892-2.264-3.229 1.963.983 2.942c-.702.529-1.263 1.208-1.825 1.888l-2.737-.981-1.894 3.47 2.245 2.04-.63 2.566-2.878.605v4.075l2.948.604.632 2.491-2.317 2.114 1.894 3.471 2.878-1.057 1.684 1.811-.983 3.096 3.229 2.038 2.035-2.417 2.244.605.632 3.168h3.718l.562-3.168 2.245-.68 2.035 2.492 3.298-2.038-.982-3.096 1.613-1.811 2.878 1.057 1.893-3.471-2.244-2.19.56-2.415 3.019-.604v-4.075l-2.947-.605-.56-2.49 2.173-2.115-1.893-3.471-2.736.981-1.755-1.888.982-2.942-3.298-1.963-1.825 2.264-2.455-.68-.562-3.019h-3.72zm11.86 11.698a13.482 13.482 0 0 1 0 12.53c-1.052 1.887-2.456 3.396-4.14 4.452-1.755 1.132-3.79 1.66-5.895 1.735-2.105-.074-4.07-.603-5.825-1.735-1.754-1.058-3.086-2.566-4.139-4.452a14.449 14.449 0 0 1-1.614-6.265c.07-2.264.633-4.378 1.614-6.265 1.053-1.888 2.456-3.396 4.14-4.453 1.753-1.132 3.718-1.66 5.824-1.66 2.104 0 4.14.527 5.825 1.66 1.753 1.056 3.157 2.565 4.21 4.453z" mask="url(#h)"/>
        </g>
        <g transform="translate(-1 -1)">
            <mask id="j" fill="#fff">
                <use xlink:href="#i"/>
            </mask>
            <path stroke="#231F20" stroke-linecap="round" stroke-linejoin="round" stroke-width=".173" d="M98.367 13.018c-1.051-1.888-2.455-3.396-4.21-4.453-1.684-1.132-3.72-1.66-5.825-1.66s-4.07.527-5.825 1.66c-1.683 1.057-3.086 2.566-4.139 4.453-.982 1.887-1.545 4-1.614 6.265.07 2.264.633 4.376 1.614 6.265 1.053 1.887 2.386 3.396 4.14 4.452 1.753 1.132 3.718 1.66 5.824 1.735 2.104-.074 4.14-.603 5.895-1.735 1.684-1.058 3.088-2.566 4.14-4.452a13.493 13.493 0 0 0 0-12.53" mask="url(#j)"/>
        </g>
        <g transform="translate(-1 -1)">
            <mask id="l" fill="#fff">
                <use xlink:href="#k"/>
            </mask>
            <path fill="#D0D2D3" fill-rule="nonzero" d="M88.473 18.905H77.387v.527h11.086v15.02h.35v-15.02h11.018v-.527H88.823V3.961h-.35z" mask="url(#l)"/>
        </g>
        <g transform="translate(-1 -1)">
            <mask id="n" fill="#fff">
                <use xlink:href="#m"/>
            </mask>
            <path fill="#231F20" fill-rule="nonzero" d="M99.841 19.434v-.529H88.752V3.961h-.28v14.944H75.328v.529h13.146v15.018h.28V19.434z" mask="url(#n)"/>
        </g>
        <g transform="translate(-1 -1)">
            <mask id="p" fill="#fff">
                <use xlink:href="#o"/>
            </mask>
            <path stroke="#231F20" stroke-width=".69" d="M99.841 19.434v-.529H88.752V3.961h-.28v14.944H75.328v.529h13.146v15.018h.28V19.434z" mask="url(#p)"/>
        </g>
        <g transform="translate(-1 -1)">
            <mask id="r" fill="#fff">
                <use xlink:href="#q"/>
            </mask>
            <path stroke="#231F20" stroke-linecap="round" stroke-linejoin="round" stroke-width=".173" d="M99.841 19.434H88.752v15.018h-.28V19.434H75.328v-.529h13.146V3.961h.28v14.944H99.84v.529" mask="url(#r)"/>
        </g>
        <g transform="translate(-1 -1)">
            <mask id="t" fill="#fff">
                <use xlink:href="#s"/>
            </mask>
            <path fill="#231F20" fill-rule="nonzero" d="M110.085 18.226c-.42.83-.7 1.735-.841 2.942-.212 1.133-.212 2.265-.212 3.472 0 1.209 0 2.342.142 3.549.14 1.206.422 2.188.843 3.019.419.831 1.121 1.207 2.035 1.284.489 0 .98-.226 1.403-.605.35-.453.63-1.132.772-1.887v2.265h.77v-7.7h-3.087v1.51h2.105l-.14 2.265c-.07.829-.28 1.434-.562 1.961-.351.453-.772.754-1.404.68-.631-.075-1.052-.454-1.262-1.208a6.795 6.795 0 0 1-.491-2.491l-.07-2.566.07-2.793c.141-.906.28-1.737.562-2.415.351-.604.771-.981 1.473-.981.632 0 1.052.302 1.334.905.28.529.42 1.282.42 2.188h1.053c0-1.434-.28-2.49-.771-3.32-.421-.831-1.123-1.284-2.036-1.284-.984.077-1.615.454-2.106 1.21" mask="url(#t)"/>
        </g>
        <g transform="translate(-1 -1)">
            <mask id="v" fill="#fff">
                <use xlink:href="#u"/>
            </mask>
            <path stroke="#231F20" stroke-linecap="round" stroke-linejoin="round" stroke-width=".173" d="M109.244 21.17c-.212 1.13-.212 2.263-.212 3.473 0 1.207 0 2.34.14 3.546.143 1.207.423 2.19.844 3.019.42.831 1.122 1.207 2.035 1.284.49 0 .98-.226 1.403-.605.352-.453.63-1.132.773-1.887v2.265h.77v-7.7h-3.087v1.51h2.105l-.14 2.265c-.07.829-.28 1.434-.562 1.961-.351.453-.772.754-1.404.68-.631-.075-1.052-.454-1.262-1.208a6.795 6.795 0 0 1-.491-2.491l-.07-2.566.07-2.793c.141-.906.28-1.737.562-2.415.351-.604.771-.98 1.473-.98.631 0 1.051.3 1.334.904.28.529.42 1.285.42 2.188h1.053c0-1.434-.281-2.49-.771-3.32-.421-.831-1.123-1.284-2.036-1.284-.984.076-1.615.453-2.105 1.208-.421.831-.703 1.737-.842 2.947" mask="url(#v)"/>
        </g>
        <g transform="translate(-1 -1)">
            <mask id="x" fill="#fff">
                <use xlink:href="#w"/>
            </mask>
            <path fill="#231F20" fill-rule="nonzero" d="M119.698 17.32h-1.403l-2.666 14.792h1.123l.7-4.303h3.019l.773 4.303h1.121l-2.667-14.793zm-.7 1.208l1.261 7.848h-2.524l1.192-7.848h.07z" mask="url(#x)"/>
        </g>
        <g transform="translate(-1 -1)">
            <mask id="z" fill="#fff">
                <use xlink:href="#y"/>
            </mask>
            <path stroke="#231F20" stroke-linecap="round" stroke-linejoin="round" stroke-width=".173" d="M118.295 17.32l-2.666 14.792h1.122l.702-4.303h3.018l.773 4.303h1.121L119.7 17.32h-1.404m1.964 9.057h-2.524l1.192-7.85h.07l1.262 7.85" mask="url(#z)"/>
        </g>
        <g transform="translate(-1 -1)">
            <mask id="B" fill="#fff">
                <use xlink:href="#A"/>
            </mask>
            <path fill="#231F20" fill-rule="nonzero" d="M122.927 32.112h4.912V30.68h-3.86V17.396h-1.052z" mask="url(#B)"/>
        </g>
        <g transform="translate(-1 -1)">
            <mask id="D" fill="#fff">
                <use xlink:href="#C"/>
            </mask>
            <path stroke="#231F20" stroke-linecap="round" stroke-linejoin="round" stroke-width=".173" d="M127.839 32.112V30.68h-3.86V17.396h-1.052v14.716h4.912" mask="url(#D)"/>
        </g>
        <g transform="translate(-1 -1)">
            <mask id="F" fill="#fff">
                <use xlink:href="#E"/>
            </mask>
            <path fill="#231F20" fill-rule="nonzero" d="M131.838 17.32h-1.404l-2.736 14.792h1.264l.632-4.303h3.016l.7 4.303h1.196l-2.668-14.793zm-.702 1.208l1.264 7.848h-2.527l1.263-7.848z" mask="url(#F)"/>
        </g>
        <g transform="translate(-1 -1)">
            <mask id="H" fill="#fff">
                <use xlink:href="#G"/>
            </mask>
            <path stroke="#231F20" stroke-linecap="round" stroke-linejoin="round" stroke-width=".173" d="M130.434 17.32l-2.736 14.792h1.263l.632-4.303h3.016l.702 4.303h1.194l-2.668-14.793h-1.403m1.966 9.057h-2.527l1.263-7.85 1.264 7.85" mask="url(#H)"/>
        </g>
        <g transform="translate(-1 -1)">
            <mask id="J" fill="#fff">
                <use xlink:href="#I"/>
            </mask>
            <path fill="#231F20" fill-rule="nonzero" d="M136.68 17.396h-1.685v14.716h1.052V18.075l.351 2.189 2.668 11.848h1.683V17.396h-1.053v12l.071 1.736h-.07l-.28-1.66z" mask="url(#J)"/>
        </g>
        <g transform="translate(-1 -1)">
            <mask id="L" fill="#fff">
                <use xlink:href="#K"/>
            </mask>
            <path stroke="#231F20" stroke-linecap="round" stroke-linejoin="round" stroke-width=".173" d="M134.995 17.396v14.716h1.052V18.075l.351 2.189 2.668 11.848h1.683V17.396h-1.053v12l.071 1.736h-.07l-.28-1.66-2.737-12.076h-1.685" mask="url(#L)"/>
        </g>
        <g transform="translate(-1 -1)">
            <mask id="N" fill="#fff">
                <use xlink:href="#M"/>
            </mask>
            <path fill="#231F20" fill-rule="nonzero" d="M146.924 18.451c-.42-.678-1.192-1.056-2.104-1.13h-2.597v14.793h2.736c.843 0 1.475-.379 1.965-1.133.42-.679.701-1.66.913-2.717.14-1.132.21-2.34.21-3.546 0-1.284 0-2.416-.14-3.549-.211-1.134-.492-2.038-.983-2.718zm-3.648.378h1.613c.843 0 1.334.527 1.684 1.585.282.98.35 2.34.35 3.999.07 2.19 0 3.775-.35 4.832-.351.904-.912 1.435-1.684 1.357h-1.613V18.829z" mask="url(#N)"/>
        </g>
        <g transform="translate(-1 -1)">
            <mask id="P" fill="#fff">
                <use xlink:href="#O"/>
            </mask>
            <path stroke="#231F20" stroke-linecap="round" stroke-linejoin="round" stroke-width=".173" d="M144.819 17.32h-2.596v14.792h2.735c.843 0 1.475-.378 1.966-1.132.42-.679.7-1.66.912-2.717.14-1.132.21-2.34.21-3.546 0-1.284 0-2.416-.14-3.549-.211-1.132-.492-2.037-.983-2.717-.42-.678-1.191-1.056-2.104-1.132m.07 1.51c.843 0 1.334.527 1.684 1.585.282.98.352 2.34.352 3.999.069 2.19 0 3.775-.352 4.832-.351.904-.911 1.435-1.683 1.357h-1.613V18.829h1.613" mask="url(#P)"/>
        </g>
        <g transform="translate(-1 -1)">
            <mask id="R" fill="#fff">
                <use xlink:href="#Q"/>
            </mask>
            <path fill="#231F20" fill-rule="nonzero" d="M154.152 18.15c-.562-.603-1.333-.906-2.386-.83h-2.386v14.792h1.051v-6.49h1.755c.633.074 1.053.3 1.335.829.21.53.352 1.132.352 1.887l.068 1.889c0 .753.07 1.358.211 1.887h1.192v-.301l-.28-.379-.07-.605-.14-3.245c-.141-.98-.21-1.66-.491-2.111-.21-.379-.632-.607-1.192-.682v-.074c.49-.077.982-.376 1.262-.982.28-.525.491-1.282.561-2.188 0-1.66-.352-2.794-.842-3.398zm-3.72.679h1.404l.842.074c.28.153.562.378.843.755.21.376.352.907.352 1.735 0 .905-.07 1.435-.352 1.887l-.772.681-.7.224h-1.617V18.83z" mask="url(#R)"/>
        </g>
        <g transform="translate(-1 -1)">
            <mask id="T" fill="#fff">
                <use xlink:href="#S"/>
            </mask>
            <path stroke="#231F20" stroke-linecap="round" stroke-linejoin="round" stroke-width=".173" d="M151.766 17.32h-2.386v14.792h1.051v-6.49h1.755c.633.074 1.053.3 1.335.829.21.53.352 1.132.352 1.887l.068 1.889c0 .753.07 1.358.211 1.887h1.192v-.301l-.28-.379-.07-.605-.14-3.245c-.141-.98-.21-1.66-.491-2.111-.21-.379-.632-.607-1.192-.682v-.074c.49-.077.982-.376 1.262-.982.28-.525.491-1.282.561-2.188 0-1.66-.35-2.793-.84-3.397-.564-.602-1.335-.906-2.388-.83m.07 1.509l.842.074c.28.153.562.378.843.755.21.376.352.907.352 1.735 0 .905-.07 1.435-.352 1.887l-.772.681-.7.224h-1.617v-5.357h1.405" mask="url(#T)"/>
        </g>
        <g transform="translate(-1 -1)">
            <mask id="V" fill="#fff">
                <use xlink:href="#U"/>
            </mask>
            <path fill="#231F20" fill-rule="nonzero" d="M156.608 17.395h1.053v14.719h-1.053z" mask="url(#V)"/>
        </g>
        <g transform="translate(-1 -1)">
            <mask id="X" fill="#fff">
                <use xlink:href="#W"/>
            </mask>
            <path stroke="#231F20" stroke-linecap="round" stroke-linejoin="round" stroke-width=".173" d="M156.608 17.395h1.053v14.719h-1.053z" mask="url(#X)"/>
        </g>
        <g transform="translate(-1 -1)">
            <mask id="Z" fill="#fff">
                <use xlink:href="#Y"/>
            </mask>
            <path fill="#231F20" fill-rule="nonzero" d="M160.958 17.396h-1.684v14.716h.982V18.075l.352 2.189 2.736 11.848h1.684V17.396h-1.052v12l.07 1.736h-.07l-.28-1.66z" mask="url(#Z)"/>
        </g>
        <g transform="translate(-1 -1)">
            <mask id="ab" fill="#fff">
                <use xlink:href="#aa"/>
            </mask>
            <path stroke="#231F20" stroke-linecap="round" stroke-linejoin="round" stroke-width=".173" d="M159.274 17.396v14.716h.982V18.075l.35 2.189 2.738 11.848h1.684V17.396h-1.052v12l.07 1.736h-.07l-.28-1.66-2.738-12.076h-1.684" mask="url(#ab)"/>
        </g>
        <g transform="translate(-1 -1)">
            <mask id="ad" fill="#fff">
                <use xlink:href="#ac"/>
            </mask>
            <path fill="#231F20" fill-rule="nonzero" d="M169.309 17.017c-.985 0-1.685.379-2.105 1.132-.421.755-.702 1.736-.913 2.794-.07 1.13-.14 2.262-.14 3.472 0 1.434.07 2.64.14 3.925.211 1.207.492 2.187.913 2.941.42.756 1.121 1.132 2.035 1.209.91-.077 1.542-.453 2.034-1.209.492-.754.772-1.735.91-2.941l.212-3.925c0-1.209-.07-2.342-.211-3.472-.14-1.058-.42-2.039-.84-2.794-.492-.753-1.195-1.132-2.035-1.132m-.07 1.51c.84 0 1.403.605 1.613 1.66a14.91 14.91 0 0 1 .42 4.228c.072 2.188-.14 3.773-.35 4.905-.28 1.132-.842 1.66-1.683 1.66-.843 0-1.404-.602-1.615-1.66-.28-1.132-.42-2.717-.351-4.905-.07-1.663.069-3.096.35-4.151.281-1.132.773-1.736 1.616-1.736" mask="url(#ad)"/>
        </g>
        <g transform="translate(-1 -1)">
            <mask id="af" fill="#fff">
                <use xlink:href="#ae"/>
            </mask>
            <path stroke="#231F20" stroke-linecap="round" stroke-linejoin="round" stroke-width=".173" d="M167.204 18.15c-.421.754-.7 1.735-.912 2.793-.07 1.13-.14 2.262-.14 3.472 0 1.434.068 2.64.14 3.925.211 1.207.49 2.187.912 2.941.42.754 1.122 1.132 2.035 1.209.91-.077 1.543-.455 2.034-1.209.492-.754.772-1.735.912-2.941l.211-3.925a27.86 27.86 0 0 0-.211-3.472c-.14-1.058-.42-2.039-.841-2.794-.492-.753-1.194-1.13-2.035-1.13-.983 0-1.685.377-2.105 1.13m3.648 2.038a14.91 14.91 0 0 1 .42 4.228c.072 2.188-.14 3.773-.35 4.905-.28 1.132-.842 1.66-1.683 1.66-.843 0-1.404-.602-1.615-1.66-.28-1.132-.42-2.717-.351-4.905-.07-1.663.07-3.096.35-4.151.282-1.133.773-1.736 1.616-1.736.84 0 1.403.604 1.613 1.66" mask="url(#af)"/>
        </g>
        <g transform="translate(-1 -1)">
            <mask id="ah" fill="#fff">
                <use xlink:href="#ag"/>
            </mask>
            <path fill="#231F20" fill-rule="nonzero" d="M16.549 17.923c-.632-.527-1.474-.83-2.596-.754h-2.667v14.718h1.123v-6.565h2.035c.631.074 1.122.376 1.403.906.28.452.421 1.13.421 1.886v1.887l.351 1.887h1.263v-.378l-.21-.377-.14-.527-.211-3.247c-.07-.98-.21-1.66-.492-2.036-.21-.455-.701-.68-1.403-.756.632-.15 1.123-.527 1.474-1.132.35-.527.561-1.282.561-2.113.07-1.663-.28-2.794-.912-3.4m-.702 1.512c.28.377.421.98.421 1.735 0 .904-.14 1.509-.35 1.887l-.843.754-.772.074H12.41v-5.283h1.614l.982.076c.28.077.562.378.842.757" mask="url(#ah)"/>
        </g>
        <g transform="translate(-1 -1)">
            <mask id="aj" fill="#fff">
                <use xlink:href="#ai"/>
            </mask>
            <path stroke="#231F20" stroke-linecap="round" stroke-linejoin="round" stroke-width=".345" d="M13.954 17.17h-2.667v14.717h1.123v-6.565h2.035c.631.074 1.122.376 1.403.903.28.453.421 1.132.421 1.89V30l.351 1.887h1.263v-.378l-.21-.377-.14-.527-.211-3.247c-.07-.98-.21-1.66-.491-2.036-.211-.453-.702-.68-1.404-.756.632-.15 1.123-.527 1.474-1.132.35-.527.561-1.282.561-2.113.07-1.66-.28-2.792-.912-3.397-.632-.53-1.474-.832-2.596-.756m2.315 4.002c0 .903-.14 1.508-.35 1.887l-.843.753-.772.075H12.41v-5.284h1.614l.982.076c.28.075.561.377.842.753.28.38.421.983.421 1.74" mask="url(#aj)"/>
        </g>
        <g transform="translate(-1 -1)">
            <mask id="al" fill="#fff">
                <use xlink:href="#ak"/>
            </mask>
            <path fill="#231F20" fill-rule="nonzero" d="M22.584 16.792c-.982.074-1.754.453-2.245 1.207-.421.68-.772 1.661-.912 2.793-.21 1.056-.28 2.188-.21 3.397l.21 3.924a7.93 7.93 0 0 0 .912 2.867c.491.754 1.263 1.132 2.245 1.208.983-.074 1.755-.453 2.246-1.208.491-.754.842-1.735.982-2.867l.21-3.924c0-1.133 0-2.265-.21-3.397-.14-1.133-.491-2.113-.912-2.793-.561-.754-1.263-1.133-2.316-1.207m0 1.51c.913 0 1.544.603 1.825 1.735.28 1.132.491 2.489.42 4.152.071 2.113-.14 3.772-.35 4.828-.35 1.132-.912 1.737-1.895 1.737-.912 0-1.543-.605-1.824-1.737-.28-1.056-.421-2.64-.421-4.828 0-1.663.14-3.02.491-4.152.28-1.132.911-1.736 1.754-1.736" mask="url(#al)"/>
        </g>
        <g transform="translate(-1 -1)">
            <mask id="an" fill="#fff">
                <use xlink:href="#am"/>
            </mask>
            <path stroke="#231F20" stroke-linecap="round" stroke-linejoin="round" stroke-width=".345" d="M20.339 18c-.421.679-.772 1.66-.912 2.792-.21 1.056-.28 2.188-.21 3.397l.21 3.924a7.93 7.93 0 0 0 .912 2.867c.491.754 1.263 1.132 2.245 1.208.983-.074 1.755-.453 2.246-1.208.491-.753.842-1.735.982-2.867l.21-3.924c0-1.133 0-2.265-.21-3.397-.14-1.133-.491-2.113-.912-2.793-.561-.754-1.263-1.132-2.316-1.207-.983.074-1.755.452-2.245 1.207m4.069 2.038c.28 1.132.491 2.489.42 4.152.071 2.113-.14 3.772-.35 4.83-.35 1.132-.912 1.735-1.895 1.735-.912 0-1.543-.603-1.824-1.735-.28-1.058-.421-2.643-.421-4.83 0-1.663.14-3.02.491-4.152.28-1.133.912-1.736 1.754-1.736.913 0 1.544.604 1.825 1.736" mask="url(#an)"/>
        </g>
        <g transform="translate(-1 -1)">
            <mask id="ap" fill="#fff">
                <use xlink:href="#ao"/>
            </mask>
            <path fill="#231F20" fill-rule="nonzero" d="M31.777 24.038c.561-.301.982-.754 1.263-1.208.21-.53.35-1.284.28-2.038 0-1.133-.28-2.038-.631-2.643-.351-.753-1.053-1.056-2.035-.98h-2.947v14.718h2.736c1.053 0 1.825-.3 2.316-1.058.561-.753.842-1.887.842-3.32 0-.905-.21-1.66-.421-2.34-.212-.604-.773-.98-1.403-1.131zm-2.948-5.436h1.053c.842-.074 1.403.076 1.754.453s.491.982.421 1.888c0 1.056-.14 1.735-.49 2.113-.422.377-.983.453-1.685.377h-1.053v-4.83zm2.246 6.341c.42.075.631.301.912.68.28.376.351 1.055.351 1.96.07.983-.07 1.664-.35 2.116-.282.453-.703.68-1.334.68h-1.825v-5.436h2.246z" mask="url(#ap)"/>
        </g>
        <g transform="translate(-1 -1)">
            <mask id="ar" fill="#fff">
                <use xlink:href="#aq"/>
            </mask>
            <path stroke="#231F20" stroke-linecap="round" stroke-linejoin="round" stroke-width=".345" d="M29.881 18.602c.842-.075 1.403.076 1.754.453s.491.98.421 1.886c0 1.058-.14 1.737-.49 2.115-.422.377-.983.453-1.685.377h-1.053v-4.83h1.053m2.106 7.02c.28.376.351 1.055.351 1.96.07.983-.07 1.661-.35 2.114-.282.453-.703.68-1.334.68h-1.825v-5.434h2.246c.42.075.63.301.912.68m-.21-1.585c.561-.301.982-.754 1.263-1.208.21-.53.35-1.284.28-2.038 0-1.133-.28-2.039-.631-2.643-.351-.754-1.053-1.056-2.035-.98h-2.947v14.718h2.736c1.053 0 1.825-.3 2.316-1.058.561-.753.842-1.887.842-3.32 0-.905-.21-1.66-.421-2.34-.212-.604-.773-.98-1.403-1.131" mask="url(#ar)"/>
        </g>
        <g transform="translate(-1 -1)">
            <mask id="at" fill="#fff">
                <use xlink:href="#as"/>
            </mask>
            <path fill="#231F20" fill-rule="nonzero" d="M35.495 17.169h1.123v14.718h-1.123z" mask="url(#at)"/>
        </g>
        <g transform="translate(-1 -1)">
            <mask id="av" fill="#fff">
                <use xlink:href="#au"/>
            </mask>
            <path stroke="#231F20" stroke-linecap="round" stroke-linejoin="round" stroke-width=".345" d="M35.496 17.169h1.123v14.718h-1.123z" mask="url(#av)"/>
        </g>
        <g transform="translate(-1 -1)">
            <mask id="ax" fill="#fff">
                <use xlink:href="#aw"/>
            </mask>
            <path fill="#231F20" fill-rule="nonzero" d="M40.687 17.17h-1.824v14.717h1.122V17.85c.07.83.21 1.585.421 2.188l2.877 11.85h1.895V17.167h-1.193v13.585l-.35-1.584-2.948-12z" mask="url(#ax)"/>
        </g>
        <g transform="translate(-1 -1)">
            <mask id="az" fill="#fff">
                <use xlink:href="#ay"/>
            </mask>
            <path stroke="#231F20" stroke-linecap="round" stroke-linejoin="round" stroke-width=".345" d="M38.864 17.17v14.717h1.122V17.85c.07.83.21 1.585.421 2.188l2.877 11.85h1.895V17.167h-1.193v13.585l-.35-1.584-2.948-12h-1.824" mask="url(#az)"/>
        </g>
        <g transform="translate(-1 -1)">
            <mask id="aB" fill="#fff">
                <use xlink:href="#aA"/>
            </mask>
            <path fill="#231F20" fill-rule="nonzero" d="M50.231 16.792c-.982.074-1.754.453-2.245 1.207-.421.68-.772 1.661-.912 2.793-.21 1.056-.281 2.188-.21 3.397l.21 3.924a7.93 7.93 0 0 0 .912 2.867c.49.754 1.263 1.132 2.245 1.208 1.053-.074 1.754-.453 2.246-1.208.49-.754.771-1.735.982-2.867l.21-3.924c.07-1.133-.07-2.265-.21-3.397-.14-1.133-.421-2.113-.912-2.793-.562-.754-1.263-1.133-2.316-1.207m0 1.51c.912 0 1.544.603 1.825 1.735.28 1.132.49 2.489.42 4.152.07 2.113-.14 3.772-.35 4.828-.351 1.132-.983 1.737-1.895 1.737s-1.544-.605-1.824-1.737c-.28-1.056-.421-2.64-.421-4.828 0-1.663.14-3.02.49-4.152.28-1.132.912-1.736 1.755-1.736" mask="url(#aB)"/>
        </g>
        <g transform="translate(-1 -1)">
            <mask id="aD" fill="#fff">
                <use xlink:href="#aC"/>
            </mask>
            <path stroke="#231F20" stroke-linecap="round" stroke-linejoin="round" stroke-width=".345" d="M47.986 18c-.421.679-.772 1.66-.912 2.792-.21 1.056-.281 2.188-.21 3.397l.21 3.924a7.93 7.93 0 0 0 .912 2.867c.49.754 1.263 1.132 2.245 1.208 1.053-.074 1.754-.453 2.246-1.208.49-.754.771-1.735.982-2.867l.21-3.924c.07-1.133-.07-2.265-.21-3.397-.14-1.133-.421-2.113-.912-2.793-.562-.754-1.263-1.132-2.316-1.207-.982.074-1.755.452-2.245 1.207m4.07 2.038c.28 1.132.49 2.489.42 4.152.07 2.113-.14 3.772-.35 4.83-.351 1.132-.983 1.735-1.895 1.735s-1.544-.603-1.824-1.735c-.28-1.058-.421-2.643-.421-4.83 0-1.663.14-3.02.49-4.152.282-1.133.913-1.736 1.755-1.736.912 0 1.544.604 1.825 1.736" mask="url(#aD)"/>
        </g>
        <g transform="translate(-1 -1)">
            <mask id="aF" fill="#fff">
                <use xlink:href="#aE"/>
            </mask>
            <path fill="#231F20" fill-rule="nonzero" d="M63.562 17.923c-.35-.528-.912-.754-1.543-.754-.562 0-1.053.378-1.404.905a4.085 4.085 0 0 0-.561 2.113c0 .68.14 1.284.28 1.737l.702 1.585a7.333 7.333 0 0 0-1.543 1.81c-.351.604-.562 1.51-.632 2.642.07 1.284.35 2.34.842 3.094.561.756 1.263 1.132 2.245 1.208 1.053 0 1.825-.604 2.456-1.737l.632 1.359h1.403l-1.333-2.717c.421-1.282.702-2.566.702-4.077h-.983l-.42 2.795-2.036-4.077 1.264-1.585c.35-.68.49-1.284.56-2.113-.07-.98-.28-1.659-.63-2.188zm-.701 1.057c.14.301.21.679.21 1.133 0 .527-.14 1.055-.35 1.434l-.773 1.132-.631-1.284c-.14-.453-.21-.83-.21-1.359 0-.376.07-.753.21-1.055.21-.301.491-.453.772-.453.282-.001.561.15.772.452zm.912 10.341l-.702 1.056c-.35.226-.631.378-.982.378-.632 0-1.123-.3-1.474-.754-.35-.53-.49-1.132-.561-2.038 0-.83.21-1.434.42-1.886.282-.605.632-1.058 1.053-1.511l2.246 4.755z" mask="url(#aF)"/>
        </g>
        <g transform="translate(-1 -1)">
            <mask id="aH" fill="#fff">
                <use xlink:href="#aG"/>
            </mask>
            <path stroke="#231F20" stroke-linecap="round" stroke-linejoin="round" stroke-width=".345" d="M62.019 17.168c-.562 0-1.053.379-1.404.906a4.082 4.082 0 0 0-.561 2.113c0 .68.14 1.284.28 1.737l.702 1.585a7.333 7.333 0 0 0-1.543 1.81c-.351.604-.562 1.51-.632 2.642.07 1.282.35 2.34.842 3.094.561.756 1.263 1.132 2.245 1.208 1.053 0 1.825-.604 2.456-1.737l.632 1.359h1.403l-1.333-2.717c.421-1.282.702-2.566.702-4.077h-.983l-.42 2.795-2.036-4.077 1.264-1.585c.35-.68.49-1.284.56-2.113-.07-.983-.28-1.66-.63-2.19-.351-.526-.913-.753-1.544-.753m1.053 13.209c-.35.226-.631.378-.982.378-.632 0-1.123-.3-1.474-.754-.35-.53-.49-1.132-.561-2.038 0-.83.21-1.434.42-1.886.282-.605.632-1.058 1.053-1.511l2.246 4.756-.702 1.055m0-10.264c0 .527-.14 1.055-.35 1.434l-.773 1.132-.631-1.284c-.14-.453-.21-.83-.21-1.359 0-.376.07-.753.21-1.055.21-.301.491-.453.772-.453.28 0 .561.152.772.453.139.3.21.678.21 1.132" mask="url(#aH)"/>
        </g>
        <path stroke="#231F20" stroke-linecap="round" stroke-linejoin="round" stroke-width="1.035" d="M68.001 12.847H12.778l-2.737.076-1.474.377c-.842.226-1.754.755-2.876 1.435-1.053.678-1.895 1.81-2.737 3.247-.772 1.358-1.193 3.168-1.193 5.51 0 2.187.35 3.924.982 5.357.562 1.359 1.334 2.414 2.246 3.246.912.753 1.894 1.284 2.736 1.66l2.316.527.982.077h66.24l.562.68-.21.226H10.742l-2.176-.379c-1.052-.226-2.245-.753-3.368-1.508-1.263-.756-2.245-1.964-3.087-3.623C1.34 28.17.919 25.98.989 23.34c.07-2.114.491-4 1.053-5.358.631-1.435 1.403-2.492 2.245-3.322a9.929 9.929 0 0 1 2.667-1.736c.912-.378 1.613-.68 2.175-.755l.982-.151h60.486v.83h-2.596M172.483 12.923c-.912-.378-1.615-.68-2.175-.754l-.913-.152h-63.081v.831H166.519l2.875.075 1.473.377c.844.226 1.756.755 2.808 1.435 1.052.68 1.966 1.812 2.736 3.246.772 1.36 1.264 3.17 1.264 5.51 0 2.188-.35 3.925-.982 5.358-.633 1.359-1.335 2.417-2.317 3.246a10.607 10.607 0 0 1-2.737 1.66l-2.245.53-1.052.074H99.645l-.56.68.14.226H168.693l2.175-.379c1.053-.226 2.247-.753 3.439-1.508 1.123-.756 2.176-1.964 3.02-3.623.771-1.585 1.191-3.773 1.122-6.415-.07-2.114-.421-4-1.053-5.36-.632-1.433-1.403-2.49-2.315-3.32-.844-.832-1.758-1.36-2.599-1.737"/>
    </g>
</svg>
