<svg width="103" height="32" viewBox="0 0 103 32" fill="none" xmlns="http://www.w3.org/2000/svg">
<path d="M54.7553 8.04004C54.7553 9.19319 53.8312 10.1221 52.684 10.1221C51.5369 10.1221 50.6128 9.19319 50.6128 8.04004C50.6128 6.88689 51.505 5.95796 52.684 5.95796C53.863 5.98999 54.7553 6.91892 54.7553 8.04004ZM46.2154 12.2362C46.2154 12.4284 46.2154 12.7487 46.2154 12.7487C46.2154 12.7487 45.2276 11.4675 43.1245 11.4675C39.6512 11.4675 36.9427 14.1261 36.9427 17.8098C36.9427 21.4615 39.6194 24.1522 43.1245 24.1522C45.2595 24.1522 46.2154 22.8388 46.2154 22.8388V23.3834C46.2154 23.6396 46.4066 23.8318 46.6615 23.8318H49.2426V11.7878C49.2426 11.7878 46.8846 11.7878 46.6615 11.7878C46.4066 11.7878 46.2154 12.012 46.2154 12.2362ZM46.2154 19.956C45.7374 20.6607 44.7815 21.2693 43.6344 21.2693C41.595 21.2693 40.0336 19.988 40.0336 17.8098C40.0336 15.6316 41.595 14.3503 43.6344 14.3503C44.7496 14.3503 45.7693 14.991 46.2154 15.6637V19.956ZM51.1545 11.7878H54.2136V23.8318H51.1545V11.7878ZM96.849 11.4675C94.7459 11.4675 93.7581 12.7487 93.7581 12.7487V5.98999H90.699V23.8318C90.699 23.8318 93.057 23.8318 93.2801 23.8318C93.535 23.8318 93.7262 23.6076 93.7262 23.3834V22.8388C93.7262 22.8388 94.714 24.1522 96.8171 24.1522C100.29 24.1522 102.999 21.4615 102.999 17.8098C102.999 14.1582 100.29 11.4675 96.849 11.4675ZM96.3391 21.2372C95.1601 21.2372 94.236 20.6286 93.7581 19.9239V15.6316C94.236 14.991 95.2557 14.3183 96.3391 14.3183C98.3785 14.3183 99.9399 15.5996 99.9399 17.7778C99.9399 19.956 98.3785 21.2372 96.3391 21.2372ZM89.1058 16.6887V23.8639H86.0467V17.041C86.0467 15.0551 85.4094 14.2543 83.6887 14.2543C82.7646 14.2543 81.8087 14.7347 81.2032 15.4394V23.8318H78.1442V11.7878H80.5659C80.8209 11.7878 81.0121 12.012 81.0121 12.2362V12.7487C81.9043 11.8198 83.0833 11.4675 84.2623 11.4675C85.6006 11.4675 86.7159 11.8519 87.6081 12.6206C88.6915 13.5175 89.1058 14.6707 89.1058 16.6887ZM70.7196 11.4675C68.6166 11.4675 67.6287 12.7487 67.6287 12.7487V5.98999H64.5697V23.8318C64.5697 23.8318 66.9277 23.8318 67.1508 23.8318C67.4057 23.8318 67.5969 23.6076 67.5969 23.3834V22.8388C67.5969 22.8388 68.5847 24.1522 70.6878 24.1522C74.1611 24.1522 76.8696 21.4615 76.8696 17.8098C76.9015 14.1582 74.1929 11.4675 70.7196 11.4675ZM70.2098 21.2372C69.0308 21.2372 68.1067 20.6286 67.6287 19.9239V15.6316C68.1067 14.991 69.1264 14.3183 70.2098 14.3183C72.2492 14.3183 73.8106 15.5996 73.8106 17.7778C73.8106 19.956 72.2492 21.2372 70.2098 21.2372ZM61.9249 11.4675C62.849 11.4675 63.327 11.6276 63.327 11.6276V14.4785C63.327 14.4785 60.7778 13.6136 59.1845 15.4394V23.8639H56.1255V11.7878C56.1255 11.7878 58.4835 11.7878 58.7065 11.7878C58.9614 11.7878 59.1526 12.012 59.1526 12.2362V12.7487C59.7262 12.0761 60.9689 11.4675 61.9249 11.4675ZM30.1554 22.7427C29.9961 22.3584 29.8368 21.9419 29.6775 21.5896C29.4226 21.013 29.1676 20.4685 28.9446 19.956L28.9127 19.9239C26.714 15.1191 24.356 10.2502 21.8705 5.44545L21.7749 5.25325C21.52 4.77277 21.2651 4.26026 21.0102 3.74775C20.6915 3.17117 20.3729 2.56256 19.863 1.98599C18.8434 0.704705 17.3776 0 15.8162 0C14.2229 0 12.789 0.704705 11.7375 1.92192C11.2595 2.4985 10.909 3.10711 10.5903 3.68368C10.3354 4.1962 10.0805 4.70871 9.82555 5.18919L9.72995 5.38138C7.27635 10.1862 4.88647 15.0551 2.68778 19.8599L2.65591 19.9239C2.43286 20.4364 2.17794 20.981 1.92302 21.5576C1.76369 21.9099 1.60437 22.2943 1.44504 22.7107C1.0308 23.8959 0.903337 25.017 1.06266 26.1702C1.41318 28.5726 3.00643 30.5906 5.20512 31.4875C6.03361 31.8398 6.89396 32 7.78619 32C8.04111 32 8.35976 31.968 8.61468 31.9359C9.66622 31.8078 10.7496 31.4555 11.8012 30.8468C13.1076 30.1101 14.3504 29.0531 15.7524 27.5155C17.1545 29.0531 18.4291 30.1101 19.7037 30.8468C20.7553 31.4555 21.8387 31.8078 22.8902 31.9359C23.1451 31.968 23.4638 32 23.7187 32C24.6109 32 25.5031 31.8398 26.2998 31.4875C28.5303 30.5906 30.0917 28.5405 30.4422 26.1702C30.6972 25.049 30.5697 23.9279 30.1554 22.7427ZM15.7843 24.4084C14.0636 22.2302 12.9483 20.1802 12.5659 18.4504C12.4066 17.7137 12.3748 17.0731 12.4703 16.4965C12.5341 15.984 12.7253 15.5355 12.9802 15.1512C13.5856 14.2863 14.6053 13.7417 15.7843 13.7417C16.9633 13.7417 18.0149 14.2543 18.5884 15.1512C18.8434 15.5355 19.0345 15.984 19.0983 16.4965C19.1939 17.0731 19.162 17.7457 19.0027 18.4504C18.6203 20.1481 17.505 22.1982 15.7843 24.4084ZM28.4985 25.9139C28.2754 27.5796 27.1601 29.021 25.5987 29.6617C24.834 29.982 24.0055 30.0781 23.177 29.982C22.3804 29.8859 21.5837 29.6296 20.7553 29.1491C19.6081 28.5085 18.461 27.5155 17.1226 26.042C19.2257 23.4474 20.5003 21.0771 20.9783 18.963C21.2014 17.97 21.2332 17.0731 21.1376 16.2402C21.0102 15.4394 20.7234 14.7027 20.2773 14.0621C19.2895 12.6206 17.6325 11.7878 15.7843 11.7878C13.9361 11.7878 12.2792 12.6527 11.2913 14.0621C10.8452 14.7027 10.5584 15.4394 10.431 16.2402C10.3035 17.0731 10.3354 18.002 10.5903 18.963C11.0683 21.0771 12.3748 23.4795 14.446 26.0741C13.1395 27.5475 11.9605 28.5405 10.8134 29.1812C9.98487 29.6617 9.18825 29.9179 8.39162 30.014C7.53127 30.1101 6.70278 29.982 5.96988 29.6937C4.40849 29.0531 3.29322 27.6116 3.07016 25.9459C2.97456 25.1451 3.0383 24.3443 3.35695 23.4474C3.45254 23.1271 3.61187 22.8068 3.77119 22.4224C3.99425 21.9099 4.24917 21.3654 4.50409 20.8208L4.53595 20.7568C6.73464 15.984 9.09265 11.1151 11.5463 6.37437L11.6419 6.18218C11.8968 5.7017 12.1517 5.18919 12.4066 4.70871C12.6615 4.1962 12.9483 3.71572 13.2988 3.2993C13.968 2.53053 14.8602 2.11411 15.848 2.11411C16.8359 2.11411 17.7281 2.53053 18.3972 3.2993C18.7478 3.71572 19.0345 4.1962 19.2895 4.70871C19.5444 5.18919 19.7993 5.7017 20.0542 6.18218L20.1498 6.37437C22.5716 11.1471 24.9296 16.016 27.1283 20.7888V20.8208C27.3832 21.3333 27.6062 21.9099 27.8612 22.4224C28.0205 22.8068 28.1798 23.1271 28.2754 23.4474C28.5303 24.2803 28.6259 25.0811 28.4985 25.9139Z" fill="#484564"/>
</svg>
