<svg width="83" height="19" viewBox="0 0 83 19" fill="none" xmlns="http://www.w3.org/2000/svg">
<path fill-rule="evenodd" clip-rule="evenodd" d="M63.4001 12.0796C64.5087 10.6452 65.5815 9.25873 66.6525 7.8707C67.2973 7.03484 67.9387 6.19604 68.5831 5.35984C68.6269 5.30313 68.6703 5.25283 68.7597 5.25352C69.4479 5.25888 70.1359 5.25646 70.8622 5.25646C70.5985 5.60238 70.3545 5.9229 70.1099 6.24307C69.1152 7.54431 68.1212 8.84607 67.1232 10.1449C67.0618 10.2248 67.0703 10.2822 67.1102 10.361C67.5113 11.1504 67.9095 11.9413 68.3101 12.7311C68.7845 13.6669 69.2603 14.6018 69.7347 15.5378C70.2401 16.5344 70.7408 17.5337 71.2522 18.5268C71.345 18.7075 71.3037 18.7293 71.1298 18.7265C70.5461 18.7173 69.9621 18.7201 69.3782 18.7246C69.2719 18.7255 69.2159 18.6925 69.1651 18.5901C68.0867 16.4245 67.0036 14.2611 65.9215 12.0972C65.885 12.0242 65.8513 11.9496 65.8094 11.861C65.5402 12.1081 65.3317 12.4068 65.0983 12.6805C64.547 13.3269 64.0051 13.9822 63.4538 14.6288C63.3894 14.7045 63.4011 14.7796 63.4009 14.8586C63.3994 16.0754 63.3966 17.2925 63.4035 18.5094C63.4044 18.6767 63.3735 18.7327 63.2014 18.7277C62.724 18.7137 62.2462 18.7173 61.7686 18.7258C61.6354 18.7282 61.6056 18.6866 61.6058 18.5524C61.6089 12.4262 61.6089 6.29994 61.6056 0.173528C61.6056 0.0378188 61.6376 -0.00038544 61.7695 0.00186142C62.247 0.0105055 62.725 0.0143088 63.2022 0.00030502C63.3755 -0.00470876 63.4035 0.0538977 63.4034 0.219687C63.3987 4.06412 63.3999 7.90874 63.4001 11.753V12.0796Z" fill="#484564"/>
<path fill-rule="evenodd" clip-rule="evenodd" d="M49.7063 7.09142C49.9501 6.85354 50.154 6.65093 50.3615 6.45264C50.9194 5.91983 51.5245 5.46049 52.2583 5.22867C53.387 4.87168 54.4981 4.90625 55.5676 5.46032C56.3969 5.89009 56.8897 6.60995 57.1497 7.51998C57.2561 7.89184 57.3093 8.27044 57.3093 8.6582C57.3091 11.9353 57.3076 15.2123 57.3131 18.4894C57.3134 18.6735 57.2766 18.7352 57.09 18.7288C56.6327 18.7131 56.1745 18.7127 55.7172 18.7271C55.5452 18.7324 55.5142 18.6792 55.5143 18.5108C55.5193 15.2199 55.5288 11.9289 55.5104 8.63797C55.506 7.83565 55.2007 7.15279 54.4457 6.80963C53.9643 6.59076 53.444 6.55498 52.926 6.64297C51.8168 6.83106 50.9364 7.45446 50.1205 8.22497C49.7889 8.53805 49.694 8.86807 49.6965 9.3198C49.7148 12.3823 49.7047 15.4454 49.7096 18.5082C49.7098 18.6733 49.6828 18.733 49.5091 18.7278C49.045 18.7132 48.5803 18.7141 48.1162 18.7271C47.9492 18.7317 47.9107 18.6849 47.911 18.5124C47.9157 12.6219 47.9148 6.73131 47.9148 0.840876C47.9148 0.619421 47.9215 0.397964 47.9123 0.1772C47.9069 0.0477153 47.9336 -0.00138108 48.0722 0.00138458C48.5564 0.0112392 49.0409 0.0119309 49.5249 0.00103999C49.6753 -0.00224447 49.71 0.039763 49.7096 0.194834C49.7043 2.4004 49.7061 4.60596 49.7063 6.81153V7.09142Z" fill="#484564"/>
<path fill-rule="evenodd" clip-rule="evenodd" d="M40.5178 18.9947C39.1134 18.9966 37.961 18.714 36.9048 18.0455C36.282 17.6513 35.7711 17.1321 35.3191 16.543C35.2515 16.4548 35.2714 16.4036 35.3543 16.3402C35.7593 16.0306 36.1627 15.7192 36.5598 15.3989C36.656 15.3213 36.6832 15.3634 36.7399 15.4402C37.1332 15.9702 37.577 16.4465 38.1368 16.7869C38.9995 17.3119 39.9311 17.4663 40.9178 17.3517C41.4682 17.2877 41.9795 17.1282 42.4086 16.7587C43.0938 16.1694 43.354 15.3429 43.0157 14.494C42.839 14.0511 42.5005 13.7593 42.1175 13.5069C41.4805 13.0872 40.7536 12.9093 40.0583 12.6482C39.2377 12.3402 38.3879 12.1073 37.5877 11.7519C36.5077 11.2727 35.7252 10.4171 35.6539 9.0045C35.6157 8.2499 35.7255 7.52675 36.0909 6.86446C36.3024 6.48119 36.5707 6.14754 36.9214 5.88477C37.7082 5.29508 38.5934 5.04355 39.5488 5.0069C40.6704 4.96368 41.7057 5.25826 42.6838 5.82374C43.2348 6.14218 43.7045 6.55276 44.1192 7.03958C44.1888 7.12136 44.2482 7.21229 44.3154 7.29665C44.3754 7.37168 44.3142 7.41231 44.2731 7.44965C43.9261 7.76463 43.5727 8.07218 43.2306 8.39304C43.1358 8.48224 43.0989 8.4793 43.0074 8.38301C42.6636 8.02083 42.3431 7.63428 41.9309 7.34419C41.128 6.77923 40.2512 6.51801 39.2881 6.63004C38.576 6.71302 37.9066 6.93015 37.6059 7.69738C37.2959 8.48795 37.3641 9.19311 38.033 9.75738C38.5155 10.1647 39.0864 10.3659 39.6603 10.5704C40.5858 10.8999 41.5025 11.2573 42.4343 11.5665C43.1767 11.8131 43.7931 12.2383 44.2665 12.8688C44.8047 13.5861 44.9928 14.4169 44.9364 15.3261C44.8969 15.96 44.7383 16.5416 44.4118 17.0739C44.0542 17.6567 43.5571 18.0778 42.9784 18.4026C42.2678 18.8014 41.3146 19.0174 40.5178 18.9947Z" fill="#484564"/>
<path fill-rule="evenodd" clip-rule="evenodd" d="M29.9171 7.9389C30.0409 7.73438 30.155 7.53851 30.2761 7.34731C30.6236 6.79946 31.0074 6.28602 31.5136 5.88218C32.0903 5.42146 32.7489 5.18652 33.4601 5.09282C33.6497 5.06793 33.8398 5.03958 34.0332 5.04632C34.1218 5.04926 34.144 5.07571 34.1433 5.16474C34.1398 5.71086 34.1397 6.25715 34.1435 6.80361C34.1442 6.89437 34.1171 6.91235 34.0325 6.91961C33.7579 6.9433 33.4835 6.97303 33.2142 7.04322C32.4389 7.24531 31.8047 7.67025 31.3062 8.32251C30.6343 9.20159 30.2258 10.216 29.8958 11.2718C29.876 11.3347 29.8826 11.4078 29.8826 11.4761C29.882 13.8203 29.8805 16.1644 29.8858 18.5084C29.8861 18.6728 29.8609 18.7328 29.6854 18.7275C29.2082 18.7128 28.7302 18.719 28.2527 18.7268C28.1235 18.7288 28.0878 18.6917 28.088 18.5541C28.0917 14.177 28.0917 9.80009 28.0882 5.42302C28.0882 5.28886 28.119 5.25083 28.2501 5.25308C28.7408 5.26172 29.232 5.26155 29.7228 5.25308C29.8521 5.25083 29.8863 5.28593 29.8855 5.42146C29.8788 6.18904 29.8815 6.95661 29.8836 7.72418C29.8838 7.78815 29.8603 7.85834 29.9171 7.9389Z" fill="#484564"/>
<path fill-rule="evenodd" clip-rule="evenodd" d="M9.86038 15.0308C9.56382 15.769 9.01614 16.2335 8.33262 16.5343C7.62505 16.8457 6.87651 16.9437 6.11138 16.9599C4.80554 16.9876 3.49987 16.9606 2.1942 16.9777C2.03928 16.9796 1.99599 16.9383 1.99716 16.7738C2.00445 15.6473 2.00097 14.521 2.00097 13.3944H1.99998C1.99998 12.2611 2.00213 11.1278 1.99732 9.99421C1.99666 9.86369 2.02104 9.81666 2.15721 9.81753C3.29752 9.82306 4.43866 9.7973 5.5783 9.82825C6.42884 9.85159 7.27325 9.96154 8.0601 10.3507C8.79604 10.7146 9.39712 11.2315 9.78093 11.9908C10.0583 12.5395 10.1234 13.1383 10.1133 13.7489C10.1059 14.1922 10.0256 14.6197 9.86038 15.0308ZM2.00097 4.90886C2.00081 3.92692 2.00379 2.94498 1.99782 1.96338C1.99682 1.81678 2.02021 1.76613 2.17778 1.76699C3.56406 1.77495 4.95084 1.75524 6.33696 1.77892C6.92792 1.78912 7.51923 1.8645 8.08067 2.0984C8.87549 2.42946 9.36528 3.02536 9.55519 3.89182C9.68954 4.5045 9.71757 5.11648 9.5474 5.72899C9.33012 6.51143 8.82025 7.04303 8.17024 7.4377C7.40296 7.90326 6.55357 8.04986 5.67749 8.05297C4.51661 8.05729 3.35574 8.05124 2.19486 8.05764C2.04244 8.05833 1.9955 8.02186 1.99682 7.85416C2.00545 6.8724 2.00097 5.89046 2.00097 4.90886ZM12.0003 12.6351C11.7719 11.4465 11.173 10.5018 10.2498 9.78105C9.79884 9.4289 9.30109 9.16111 8.74495 9.02938C8.70564 9.02005 8.6592 9.01054 8.65522 8.96421C8.65058 8.90681 8.70796 8.91528 8.74163 8.90076C9.03289 8.77439 9.32564 8.65441 9.60313 8.49381C10.1976 8.14996 10.696 7.7003 11.0564 7.0961C11.5255 6.30985 11.6761 5.44184 11.6509 4.52939C11.5993 2.65575 10.7063 1.35364 9.12776 0.537492C8.28103 0.099421 7.35502 0.0131555 6.42685 0.00831461C4.35705 -0.00257635 2.28742 0.00762288 0.21778 0.000708108C0.0408042 0.000189309 -0.000329741 0.047386 1.98436e-06 0.229426C0.00597304 3.27863 0.00414881 6.32783 0.00414881 9.37686H0.00348509V18.4204C0.00348509 18.7409 0.00348552 18.7409 0.319454 18.7409C2.13714 18.7409 3.95467 18.7471 5.77219 18.7376C6.4388 18.7344 7.10639 18.7039 7.7642 18.5736C8.69486 18.3895 9.59931 18.1348 10.3891 17.5527C11.0566 17.0609 11.5445 16.4283 11.8124 15.621C12.1362 14.6446 12.1951 13.6483 12.0003 12.6351Z" fill="#484564"/>
<path fill-rule="evenodd" clip-rule="evenodd" d="M80.9148 13.326C80.9146 13.8927 80.9146 14.4597 80.9148 15.0264C80.9148 15.1084 80.9144 15.1806 80.8509 15.2529C80.0838 16.1278 79.1722 16.7811 78.1006 17.1769C77.5673 17.3739 77.0077 17.4889 76.4496 17.3274C75.7539 17.1264 75.1753 16.7224 74.9178 15.9895C74.6909 15.3431 74.7775 14.6978 75.1459 14.1147C75.6511 13.3153 76.4199 12.8821 77.2329 12.5178C78.3698 12.0089 79.5627 11.7069 80.7781 11.4887C80.9113 11.4647 80.9169 11.5182 80.9163 11.6254C80.9129 12.1921 80.9148 12.7592 80.9148 13.326ZM82.9769 18.5433C82.7709 17.5904 82.7062 16.6233 82.7062 15.6495C82.7061 13.3471 82.7082 11.0447 82.7046 8.74219C82.7036 8.12467 82.5424 7.54242 82.2478 7.01186C81.6446 5.92447 80.6797 5.37057 79.5388 5.12992C78.7572 4.965 77.9641 4.95843 77.1706 5.08549C75.5181 5.35017 74.2844 6.24394 73.4455 7.74365C73.4005 7.82421 73.3712 7.86553 73.4833 7.92292C73.927 8.14974 74.3662 8.38675 74.8012 8.63103C74.927 8.70156 74.9701 8.67978 75.0285 8.54493C75.3212 7.8676 75.7647 7.31993 76.4166 7.00304C77.3754 6.53662 78.3849 6.48683 79.3968 6.76015C80.1516 6.96415 80.6514 7.4686 80.8398 8.28873C80.9501 8.76881 80.8942 9.25027 80.9163 9.73104C80.9209 9.82958 80.8599 9.81679 80.8038 9.8282C80.4737 9.89389 80.1432 9.95734 79.8143 10.0291C78.214 10.3785 76.6332 10.7967 75.1811 11.6111C74.5422 11.9693 73.9822 12.44 73.5896 13.0906C73.0754 13.942 72.9495 14.8755 73.0479 15.864C73.1489 16.8757 73.5931 17.6773 74.3612 18.2817C74.9172 18.7189 75.5612 18.9279 76.2557 18.9756C77.0621 19.031 77.8455 18.9407 78.606 18.6365C79.4618 18.2938 80.1763 17.746 80.805 17.0622C80.8554 17.0074 80.8902 16.9198 80.9858 16.9196C81.0456 17.4777 81.104 18.0316 81.166 18.5848C81.1732 18.6486 81.1392 18.7433 81.2647 18.7423C81.8409 18.7385 82.417 18.7405 83 18.7405C82.9915 18.6641 82.9897 18.6024 82.9769 18.5433Z" fill="#484564"/>
<path fill-rule="evenodd" clip-rule="evenodd" d="M16.7694 10.566C16.8618 9.61953 17.0809 8.71833 17.618 7.92724C18.1118 7.20012 18.7802 6.78556 19.6289 6.66213C20.1474 6.58675 20.6543 6.60145 21.1568 6.74839C21.6413 6.88998 22.0266 7.18698 22.359 7.57509C22.9969 8.31984 23.221 9.22123 23.2913 10.184C23.3009 10.3143 23.2998 10.4461 23.3159 10.5754C23.3343 10.7242 23.2776 10.7545 23.1417 10.7536C22.1079 10.7474 21.0739 10.7501 20.0399 10.7501C19.0059 10.7501 17.9721 10.7472 16.9381 10.7536C16.7937 10.7546 16.7557 10.708 16.7694 10.566ZM25.3999 15.7957C25.1352 15.6566 24.871 15.5167 24.6055 15.3793C24.4471 15.2972 24.2633 15.1284 24.1339 15.1649C24.004 15.2014 23.9292 15.4453 23.8282 15.5969C22.87 17.0325 21.5484 17.5442 20.0212 17.3546C19.0069 17.2285 18.2445 16.6223 17.6558 15.7733C16.9864 14.8072 16.7298 13.7079 16.7019 12.5337C16.6979 12.3702 16.7474 12.3474 16.8877 12.3481C18.2211 12.3536 19.5546 12.3513 20.888 12.3513H22.8981C23.5746 12.3513 24.2513 12.3456 24.9279 12.356C25.081 12.3581 25.1123 12.3135 25.109 12.1624C25.0989 11.6925 25.1178 11.2216 25.1027 10.7521C25.0662 9.62403 24.9053 8.52107 24.3847 7.51095C23.8848 6.54077 23.1659 5.80466 22.1784 5.38508C21.3881 5.04918 20.5607 4.9567 19.7122 5.0236C18.5848 5.11263 17.5983 5.53704 16.7882 6.36391C16.0469 7.1206 15.5542 8.03788 15.2732 9.07601C15.0556 9.87971 14.9461 10.7002 14.9265 11.5374C14.9056 12.4281 14.9345 13.3103 15.1161 14.1843C15.3624 15.3691 15.8192 16.4397 16.6364 17.3235C17.2128 17.9463 17.8797 18.4226 18.6701 18.6999C19.6838 19.0553 20.7195 19.0633 21.7624 18.8885C22.5557 18.7552 23.2963 18.4663 23.9214 17.9325C24.5615 17.3862 25.0568 16.7061 25.4683 15.9588C25.5277 15.8514 25.4655 15.8301 25.3999 15.7957Z" fill="#484564"/>
</svg>
