<svg width="106" height="37" viewBox="0 0 106 37" fill="none" xmlns="http://www.w3.org/2000/svg">
<path fill-rule="evenodd" clip-rule="evenodd" d="M69.6892 26.436C65.3047 29.5154 60.1251 32.7379 54.5601 36.1276L54.3433 36.247C54.2711 36.2947 54.247 36.3902 54.2951 36.4857C54.3433 36.5573 54.4397 36.5812 54.5361 36.5334L54.7288 36.4379C59.4506 34.0031 64.8951 31.0908 70.3397 28.107C70.3638 28.0831 70.3879 28.0831 70.4361 28.0592C70.1229 27.5579 69.8579 27.0089 69.6892 26.436ZM98.4056 3.40053C91.5156 -4.1427 47.1642 2.63665 28.3011 6.71859L27.8674 6.81407C27.7711 6.83794 27.7229 6.90956 27.7229 7.00504C27.747 7.10053 27.8192 7.14827 27.9156 7.14827L28.3492 7.05278C43.9601 4.30762 76.4588 0.488268 83.4692 7.36311C85.6133 9.46375 85.0833 12.1612 82.6261 15.336C83.9511 16.1954 84.9147 17.5321 85.3483 19.2031C94.9847 12.8296 101.465 6.76633 98.4056 3.40053Z" fill="#484564"/>
<path fill-rule="evenodd" clip-rule="evenodd" d="M72.4837 24.4546C72.5801 27.1043 74.2664 29.2765 76.4828 29.2765C80.771 29.2765 82.5778 24.0727 82.4574 20.5875C82.361 17.9378 80.6264 15.7656 78.4342 15.7656C74.7242 15.7656 72.3633 20.9456 72.4837 24.4546ZM70.2192 24.3114C70.0505 19.7759 73.6401 15.1688 78.8437 15.1688C82.3128 15.1688 84.6014 17.4604 84.7219 20.9695C84.8905 25.7436 81.5419 30.112 76.0974 30.112C72.6283 30.112 70.3396 27.8204 70.2192 24.3114ZM21.0014 23.1178C20.8087 23.1895 20.5678 23.2611 20.2787 23.3088C19.9896 23.3804 19.4355 23.4759 18.6646 23.5953C18.1346 23.6907 17.7492 23.7862 17.5323 23.9533C17.3155 24.0965 17.1951 24.2875 17.171 24.5024C17.1228 24.7411 17.1951 24.932 17.4119 25.0753C17.6287 25.2185 17.966 25.2901 18.4478 25.2901C18.8092 25.2901 19.1705 25.2424 19.5319 25.123C19.8933 25.0036 20.1823 24.8604 20.4233 24.6695C20.5919 24.5262 20.7123 24.3353 20.8087 24.1204C20.8328 23.9533 20.9051 23.6191 21.0014 23.1178ZM25.5305 20.3249C25.5064 20.7307 25.4342 21.1127 25.3378 21.7333L24.5669 25.9824C24.4946 26.3643 24.6392 26.6507 25.0005 26.8656L24.9764 27.0327H20.5919L20.5437 25.9585C19.9173 26.3404 19.1464 26.6507 18.4478 26.8417C17.7492 27.0088 17.1951 27.1043 16.3519 27.1043C14.9305 27.1043 14.1355 26.9611 13.5814 26.4836C13.0033 25.9824 12.7383 25.6482 12.7623 24.9559C12.7864 24.5501 12.9792 24.0488 13.2923 23.6907C13.6055 23.3327 14.0151 23.094 14.4487 22.8791C14.9064 22.6643 15.4364 22.5211 16.2073 22.4017C16.9783 22.2824 18.0623 22.163 19.5078 22.0436C20.2546 21.972 20.7364 21.8049 20.9533 21.7333C21.2664 21.614 21.3628 21.4946 21.411 21.2559C21.4833 20.8262 21.3628 20.5636 20.7605 20.4443C19.1946 20.134 16.2314 20.6353 14.7137 21.0172L15.5328 18.7972C17.5323 18.5107 19.4355 18.3198 21.411 18.3198C24.5428 18.2959 25.5546 19.1791 25.5305 20.3249ZM38.2023 27.0327L39.7201 18.5346H43.9119L42.3942 27.0327H38.2023ZM39.961 16.5772C40.0814 15.8849 41.1896 15.312 42.4423 15.312C43.6951 15.312 44.5864 15.8849 44.466 16.5772C44.3455 17.2695 43.2133 17.8424 41.9846 17.8424C40.7319 17.8424 39.8164 17.2695 39.961 16.5772ZM58.8001 23.1417C58.6073 23.2133 58.3664 23.2849 58.0773 23.3327C57.7883 23.4043 57.2342 23.4998 56.4392 23.6191C55.9092 23.7146 55.5237 23.8101 55.3069 23.9772C55.1142 24.1204 54.9937 24.3114 54.9455 24.5262C54.8973 24.7649 54.9937 24.9559 55.1864 25.0991C55.4033 25.2424 55.7405 25.314 56.2464 25.314C56.6078 25.314 56.9692 25.2662 57.3305 25.1469C57.6919 25.0275 57.981 24.8843 58.2219 24.6933C58.3905 24.5501 58.511 24.3591 58.5833 24.1443C58.6314 23.9772 58.7037 23.643 58.8001 23.1417ZM63.3051 20.3488C63.281 20.7546 63.2087 21.1365 63.0883 21.7572L62.3414 26.0062C62.2692 26.3882 62.4137 26.6746 62.7751 26.8895L62.751 27.0327H58.3664L58.3423 25.9585C57.6919 26.3404 56.921 26.6507 56.2464 26.8417C55.5478 27.0327 54.9937 27.1043 54.1505 27.1043C52.7292 27.1043 51.9342 26.9611 51.3801 26.4836C50.8019 25.9824 50.5369 25.6482 50.561 24.9559C50.5851 24.5501 50.7778 24.0488 51.091 23.6907C51.4042 23.3327 51.8137 23.094 52.2473 22.8791C52.7051 22.6643 53.2351 22.5211 54.006 22.3778C54.7769 22.2585 55.861 22.1391 57.3064 22.0198C58.0533 21.9482 58.511 21.7811 58.7278 21.7095C59.041 21.5901 59.1614 21.4707 59.2096 21.2082C59.2819 20.7785 59.1373 20.5159 58.5592 20.3965C56.9692 20.0862 54.0301 20.5875 52.5123 20.9695L53.3314 18.7495C55.3551 18.463 57.2101 18.272 59.2096 18.272C62.3173 18.3198 63.3292 19.203 63.3051 20.3488ZM12.1842 23.9772C10.811 24.2398 10.0642 24.3591 8.71507 24.3591C6.71552 24.3591 5.12552 23.3804 5.1978 21.5662C5.27007 20.3727 6.69143 17.8185 10.3533 17.8185C11.5096 17.8185 12.401 18.0095 13.6055 18.7017L14.1355 15.7656C12.4973 15.1449 11.4133 15.0495 9.99189 15.0733C5.1978 15.1211 0.596433 17.2694 0.0423417 21.6617C-0.53584 26.1256 4.95689 27.2475 7.39007 27.2236C8.78734 27.2236 10.2569 27.152 11.6301 27.0327L12.1842 23.9772ZM46.2246 18.4869L46.5137 16.7682L50.8983 15.8133L50.4405 18.4869H52.5846L52.1751 20.2056H50.1033L48.8505 27.0327C48.8505 27.0327 44.6346 27.0088 44.6105 27.0327L45.8633 20.2295H44.2733L44.5864 18.5107H46.2246V18.4869ZM67.5692 27.0327H63.281L65.4251 15.1927L69.5928 15.312L67.5692 27.0327ZM32.6614 20.5398C32.1073 20.5398 31.6255 20.7069 31.1678 21.0411C30.7342 21.3753 30.4451 21.8527 30.3487 22.4972C30.2283 23.2372 30.3005 23.7624 30.5896 24.0965C30.8787 24.4307 31.3123 24.5978 31.8905 24.5978C32.276 24.5978 32.6614 24.5262 32.9505 24.383C33.3119 24.192 33.5528 24.0011 33.7696 23.6907C34.0105 23.3565 34.1551 22.9985 34.2273 22.5688C34.3478 21.9004 34.2514 21.3991 33.9383 21.0649C33.6251 20.7069 33.2155 20.5398 32.6614 20.5398ZM25.0246 29.9688L27.0723 18.5824H30.7583L30.4692 20.0385C30.7823 19.6088 31.2883 19.2507 32.011 18.9643C32.7096 18.6778 33.5287 18.463 34.396 18.463C35.3596 18.463 35.9378 18.5107 36.6605 18.8927C37.3833 19.2746 37.8651 19.7998 38.1542 20.5159C38.4192 21.2082 38.4914 21.972 38.3469 22.8314C38.106 24.2398 37.4073 25.3378 36.2751 26.1495C35.1428 26.9611 34.131 27.1759 32.7096 27.1759C32.2037 27.1759 31.7701 27.1282 31.4087 27.0327C31.0714 26.9372 30.7823 26.8417 30.5655 26.6985C30.3728 26.5553 30.156 26.3882 29.8669 26.0778L29.1923 29.9688H25.0246ZM101.104 21.5901C101.08 20.8978 100.742 20.4443 100.02 20.4443C98.3092 20.4443 96.4783 23.7862 96.1651 25.123C98.9596 25.123 101.152 23.452 101.104 21.5901ZM101.465 26.8178L101.802 27.0327C100.959 28.7275 99.2487 30.0882 97.2492 30.0882C95.611 30.0882 94.2619 29.014 94.1896 26.9849C94.0692 23.3565 97.4901 19.9669 100.309 19.9669C101.513 19.9669 102.646 20.492 102.694 21.7811C102.79 24.6695 98.6946 25.5527 95.9964 25.6243C95.9001 25.9346 95.876 26.2211 95.9001 26.6985C95.9483 27.892 96.671 28.9185 98.1887 28.9185C99.4896 28.8707 100.791 27.8443 101.465 26.8178Z" fill="#484564"/>
<path fill-rule="evenodd" clip-rule="evenodd" d="M84.6497 21.4946C84.9388 21.4469 85.4206 21.3991 85.6133 21.3991C85.9265 21.3991 86.2156 21.4469 86.2156 21.7572C86.2156 21.9481 85.9024 23.2372 85.8301 23.5236L85.1797 26.3881C84.9147 27.5578 84.6256 28.7752 84.3847 29.7539H86.0711L87.0106 25.2423C89.9015 22.2823 91.0097 21.3036 91.6842 21.3036C91.9974 21.3036 92.1902 21.4707 92.2142 21.8288C92.2383 22.3539 91.9011 23.5475 91.7806 23.8817L90.817 27.1759C90.6002 27.9159 90.4315 28.5843 90.4556 29.0617C90.4797 29.7778 90.9374 30.112 91.5879 30.112C92.8165 30.112 93.7079 28.8468 94.4788 27.6056L94.262 27.1998C93.9488 27.701 93.2261 28.7991 92.6479 28.7991C92.4552 28.7991 92.2865 28.6798 92.2865 28.3694C92.2624 27.9875 92.4311 27.4146 92.5515 27.0327L93.6115 23.1656C93.9006 22.0914 94.0452 21.423 94.0211 21.041C93.997 20.3249 93.5633 19.9907 92.9129 19.9907C91.8047 19.9907 90.3352 20.7785 87.2274 24.3352H87.1792L87.5647 22.6165C87.7815 21.6617 87.9742 20.683 88.1911 20.0146C87.107 20.3965 85.5892 20.8262 84.6256 21.0172L84.6497 21.4946Z" fill="#484564"/>
<path fill-rule="evenodd" clip-rule="evenodd" d="M102.959 18.4153C102.959 17.5559 103.657 16.9353 104.477 16.9353C105.296 16.9353 105.97 17.5559 105.97 18.4153C105.97 19.2747 105.272 19.8953 104.477 19.8953C103.633 19.8953 102.959 19.2747 102.959 18.4153ZM104.477 19.6566C105.151 19.6566 105.681 19.1314 105.681 18.4153C105.681 17.723 105.151 17.1979 104.477 17.1979C103.802 17.1979 103.272 17.723 103.272 18.4153C103.248 19.1314 103.778 19.6566 104.477 19.6566ZM104.139 19.2747H103.874V17.5798H104.525C104.934 17.5798 105.127 17.723 105.127 18.0572C105.127 18.3676 104.934 18.4869 104.669 18.5347L105.151 19.2747H104.862L104.404 18.5347H104.115V19.2747H104.139ZM104.452 18.3198C104.669 18.3198 104.862 18.2959 104.862 18.0334C104.862 17.8185 104.669 17.7947 104.477 17.7947H104.115V18.3198H104.452Z" fill="#484564"/>
</svg>
