<svg width="106" height="28" viewBox="0 0 106 28" fill="none" xmlns="http://www.w3.org/2000/svg">
<path d="M12.217 7.64931C13.1075 7.82837 13.9123 8.31232 14.4996 9.02186C15.0868 9.73139 15.4216 10.6244 15.4492 11.5547V23.3836C15.4492 25.2319 14.0239 26.3577 12.2802 25.8872L3.17092 23.422C1.42724 22.9516 0.00187133 21.0625 0.00187133 19.2046V8.9479C-0.0133302 8.52946 0.0642441 8.11295 0.228752 7.72972C0.393259 7.34649 0.640412 7.00653 0.951594 6.73546C1.26278 6.46439 1.62988 6.26927 2.02525 6.16478C2.42062 6.0603 2.83395 6.04919 3.23412 6.13228L12.217 7.64931ZM21.3192 6.97721C19.6364 7.6373 18.2579 9.68961 18.2579 11.5379V23.4052C18.2579 25.2535 19.5568 26.0456 21.1437 25.1719L25.2022 22.9324C26.789 22.0562 28.088 19.8263 28.088 17.978V7.68531C28.088 5.83704 26.7094 4.86489 25.0266 5.52499L21.3192 6.97721ZM4.44884 2.57976C2.71686 3.09103 2.75431 3.75353 4.5331 4.05358L13.5768 5.5802C15.3533 5.88024 18.1853 5.5802 19.8705 4.9273L23.5919 3.46789C25.2747 2.80779 25.1904 2.07328 23.4046 1.83325L15.3697 0.755489C13.2257 0.543898 11.0622 0.710327 8.97305 1.24756L4.44884 2.57976Z" fill="#484564"/>
<path d="M37.7324 9.51535C37.7868 11.1536 39.1228 12.1511 41.2206 12.1511C43.3848 12.1511 44.7571 11.0811 44.7571 9.38839C44.7571 8.05841 43.9954 7.30878 42.2483 6.93397L41.1903 6.71029C40.1868 6.48056 39.7636 6.17829 39.7636 5.64025C39.7636 4.9934 40.3682 4.56417 41.2689 4.56417C42.1818 4.56417 42.8286 5.01153 42.8891 5.74907H44.5999C44.5697 4.17122 43.2941 3.12537 41.2629 3.12537C39.3163 3.12537 37.9258 4.18936 37.9258 5.79743C37.9258 7.07301 38.7178 7.88914 40.3258 8.23372L41.4624 8.48158C42.5143 8.71735 42.9314 9.03171 42.9314 9.59998C42.9314 10.2408 42.2664 10.7063 41.2931 10.7063C40.3258 10.7063 39.5762 10.2347 39.4916 9.51535H37.7324ZM47.7073 12V9.33398L48.5234 8.35463L51.1108 12H53.2932L49.8413 7.14555L53.0695 3.27651H51.0383L47.7617 7.25437H47.7073V3.27651H45.8816V12H47.7073ZM58.3713 12V8.74154L61.4122 3.27651H59.4534L57.4947 7.00046H57.4524L55.4998 3.27651H53.5108L56.5456 8.74154V12H58.3713ZM66.2182 12C68.0802 12 69.2349 11.0388 69.2349 9.50326C69.2349 8.34859 68.3643 7.4841 67.1795 7.39342V7.34505C68.1044 7.20601 68.8178 6.40802 68.8178 5.45285C68.8178 4.11682 67.79 3.27651 66.1517 3.27651H62.3008V12H66.2182ZM64.1265 4.63672H65.6802C66.5326 4.63672 67.0223 5.03571 67.0223 5.73698C67.0223 6.47452 66.4661 6.90374 65.4928 6.90374H64.1265V4.63672ZM64.1265 10.6398V8.10677H65.7104C66.7865 8.10677 67.3729 8.54204 67.3729 9.35817C67.3729 10.1924 66.8046 10.6398 65.7527 10.6398H64.1265ZM74.2163 3.12537C71.6289 3.12537 70.0087 4.8604 70.0087 7.64128C70.0087 10.4161 71.6289 12.1511 74.2163 12.1511C76.7977 12.1511 78.4239 10.4161 78.4239 7.64128C78.4239 4.8604 76.7977 3.12537 74.2163 3.12537ZM74.2163 4.64881C75.643 4.64881 76.5558 5.80952 76.5558 7.64128C76.5558 9.46698 75.643 10.6217 74.2163 10.6217C72.7835 10.6217 71.8707 9.46698 71.8707 7.64128C71.8707 5.80952 72.7896 4.64881 74.2163 4.64881ZM78.6536 12H80.6244L82.5468 8.94708H82.5952L84.5055 12H86.5851L83.768 7.65941V7.61709L86.6214 3.27651H84.5841L82.7161 6.42011H82.6677L80.8178 3.27651H78.6717L81.4224 7.58082V7.62919L78.6536 12ZM43.4332 19.605C43.3002 18.4624 42.3148 17.4226 40.7007 17.4226C38.9173 17.4226 37.7263 18.7405 37.7263 20.7415C37.7263 22.7909 38.9233 24.0605 40.7127 24.0605C42.1999 24.0605 43.2699 23.1839 43.4453 21.9143H42.4115C42.2301 22.7002 41.6256 23.1234 40.7188 23.1234C39.5823 23.1234 38.7964 22.2227 38.7964 20.7415C38.7964 19.3027 39.5702 18.3597 40.7067 18.3597C41.6861 18.3597 42.2664 18.9098 42.3994 19.605H43.4332ZM47.139 24.0605C48.9707 24.0605 50.1435 22.7607 50.1435 20.7415C50.1435 18.7163 48.9707 17.4226 47.139 17.4226C45.3072 17.4226 44.1344 18.7163 44.1344 20.7415C44.1344 22.7607 45.3072 24.0605 47.139 24.0605ZM47.139 23.1234C45.9299 23.1234 45.2045 22.2347 45.2045 20.7415C45.2045 19.2483 45.9239 18.3597 47.139 18.3597C48.3541 18.3597 49.0735 19.2423 49.0735 20.7415C49.0735 22.2347 48.3541 23.1234 47.139 23.1234ZM51.2499 24H52.3018V19.9556C52.3018 19.0428 52.9426 18.3597 53.8131 18.3597C54.6292 18.3597 55.1673 18.8796 55.1673 19.6655V24H56.2192V19.9012C56.2192 19.0065 56.8418 18.3597 57.7124 18.3597C58.5829 18.3597 59.0847 18.8916 59.0847 19.7924V24H60.1366V19.5506C60.1366 18.2569 59.3023 17.4226 58.0146 17.4226C57.1018 17.4226 56.334 17.8821 55.9653 18.6559H55.9411C55.6569 17.87 54.998 17.4226 54.1154 17.4226C53.269 17.4226 52.5738 17.8458 52.2655 18.541H52.2413V17.4831H51.2499V24ZM61.5391 24H62.591V19.9556C62.591 19.0428 63.2318 18.3597 64.1023 18.3597C64.9185 18.3597 65.4565 18.8796 65.4565 19.6655V24H66.5084V19.9012C66.5084 19.0065 67.1311 18.3597 68.0016 18.3597C68.8722 18.3597 69.3739 18.8916 69.3739 19.7924V24H70.4258V19.5506C70.4258 18.2569 69.5916 17.4226 68.3039 17.4226C67.391 17.4226 66.6233 17.8821 66.2545 18.6559H66.2303C65.9462 17.87 65.2872 17.4226 64.4046 17.4226C63.5583 17.4226 62.863 17.8458 62.5547 18.541H62.5305V17.4831H61.5391V24ZM77.2632 17.4831H76.2113V21.2675C76.2113 22.3859 75.5039 23.1234 74.4339 23.1234C73.4122 23.1234 72.85 22.5491 72.85 21.4791V17.4831H71.7981V21.6604C71.7981 23.1416 72.6868 24.0605 74.1135 24.0605C75.111 24.0605 75.8425 23.6735 76.2475 22.9239H76.2717V24H77.2632V17.4831ZM78.6959 24H79.7478V20.2156C79.7478 19.0972 80.4551 18.3597 81.5252 18.3597C82.5529 18.3597 83.109 18.94 83.109 20.004V24H84.1609V19.8226C84.1609 18.3415 83.2723 17.4226 81.8395 17.4226C80.8299 17.4226 80.1226 17.8035 79.7115 18.541H79.6874V17.4831H78.6959V24ZM85.6239 24H86.6758V17.4831H85.6239V24ZM86.1499 16.4312C86.5186 16.4312 86.8149 16.1289 86.8149 15.7662C86.8149 15.3974 86.5186 15.1012 86.1499 15.1012C85.7872 15.1012 85.4849 15.3974 85.4849 15.7662C85.4849 16.1289 85.7872 16.4312 86.1499 16.4312ZM88.5076 16.014V17.4831H87.6008V18.3536H88.5076V22.3073C88.5076 23.5587 88.967 24.0484 90.1459 24.0484C90.3937 24.0484 90.696 24.0242 90.823 23.994V23.1053C90.7504 23.1174 90.4965 23.1355 90.3696 23.1355C89.8134 23.1355 89.5595 22.8635 89.5595 22.265V18.3536H90.829V17.4831H89.5595V16.014H88.5076ZM92.5519 26.3637C93.7066 26.3637 94.2265 25.9103 94.7827 24.399L97.3338 17.4831H96.2275L94.4018 22.93H94.3776L92.5519 17.4831H91.4335L93.8457 24.006L93.7187 24.393C93.4527 25.1789 93.1263 25.469 92.5217 25.469C92.3827 25.469 92.2134 25.4569 92.0925 25.4328V26.3214C92.2194 26.3456 92.4189 26.3637 92.5519 26.3637ZM98.15 24.0605C98.5429 24.0605 98.8391 23.7582 98.8391 23.3713C98.8391 22.9783 98.5429 22.6821 98.15 22.6821C97.7631 22.6821 97.4608 22.9783 97.4608 23.3713C97.4608 23.7582 97.7631 24.0605 98.15 24.0605Z" fill="#484564"/>
</svg>
