<svg width="100" height="30" viewBox="0 0 100 30" fill="none" xmlns="http://www.w3.org/2000/svg">
<path d="M35.4719 11.769C35.4719 8.79011 37.6371 6.71005 41.5719 6.71005C43.9727 6.71005 45.9373 7.47899 47.0017 8.23225C47.154 8.33981 47.4258 8.60074 47.2628 9.08603C47.054 9.60871 46.671 10.3947 46.3963 10.9054C46.2363 11.2029 45.8279 11.1637 45.6187 11.0573C44.8605 10.672 43.617 10.02 42.4747 9.8998C42.1854 9.86821 41.8944 9.85559 41.6035 9.86201C40.5975 9.88453 39.757 10.2349 39.461 11.0049C39.403 11.1505 39.3706 11.3052 39.3654 11.462C39.3377 12.4766 40.7454 12.8435 42.4507 13.1374C45.6209 13.6822 48.0194 14.6146 48.0194 17.8878C48.0194 20.6674 45.8171 23.1795 41.5021 23.1025C38.6575 23.0448 36.6394 22.0807 35.5581 21.1451C35.5212 21.1133 35.1095 20.6927 35.3302 20.1869C35.5827 19.5358 36.009 18.7896 36.3434 18.3933C36.5294 18.1388 37.0202 18.0984 37.2753 18.257C38.1668 18.8127 39.6337 19.7037 41.3248 19.7628C41.4582 19.7674 41.5905 19.7682 41.7204 19.7648C43.2415 19.7278 44.1617 19.1492 44.1425 18.1746C44.1261 17.316 42.92 16.8145 40.9995 16.4514C37.9365 15.8726 35.4723 14.8598 35.4723 11.769H35.4719ZM63.299 16.0105C61.139 16.0389 59.1586 16.6311 59.1015 18.3244C59.1009 19.6681 60.1875 20.3281 61.7126 20.2416C63.1756 20.1003 64.2912 19.4638 64.7828 18.6193C64.9646 18.3063 64.9922 17.1351 64.9812 16.6345C64.9784 16.528 64.7684 16.3263 64.6764 16.2876C64.2175 16.0936 63.8778 16.0336 63.2988 16.0101L63.299 16.0105ZM56.1118 9.18755C57.1219 8.2809 59.1245 6.86967 62.3162 6.94405C66.5282 7.0319 68.7533 9.01266 68.9605 13.7509C69.0459 15.705 68.9044 21.1553 68.8707 22.5133C68.8657 22.7081 68.8 22.8428 68.5383 22.8478C67.8446 22.8757 66.2422 22.8647 65.5059 22.855C65.1343 22.8369 65.0912 22.652 65.0864 22.4584C65.0832 22.3317 65.0724 21.9562 65.0646 21.65C65.0604 21.4876 64.9083 21.4922 64.8694 21.5338C63.8814 22.5921 62.2633 23.1031 60.5426 23.1031C57.9273 23.1031 55.32 21.5598 55.328 18.5035C55.336 15.3735 57.5485 13.8296 59.9791 13.4655C61.5354 13.2331 63.2898 13.4398 64.6183 13.9693C64.7033 14.0034 64.8768 13.954 64.8782 13.8332C64.8836 13.4343 64.8644 12.6742 64.788 12.314C64.593 11.3961 63.8297 10.6575 62.226 10.4585C61.8958 10.4177 61.5633 10.4042 61.2304 10.4307C59.9556 10.5312 58.4215 11.5284 57.7862 11.9017C57.6367 11.9893 57.4026 11.9252 57.3269 11.8273C56.9561 11.3468 56.0242 9.94162 55.9509 9.71707C55.8775 9.49312 55.9809 9.30455 56.1114 9.18675L56.1118 9.18755ZM70.3493 15.0142C70.3243 10.6488 73.3564 6.96616 78.28 6.9338C81.3523 6.91369 83.5842 8.31086 83.9778 8.96984C84.0578 9.12463 84.0167 9.25389 83.9614 9.40969C83.7013 9.96052 83.0443 11.0248 82.5762 11.6279C82.3768 11.8848 82.1603 11.6647 81.9088 11.4968C81.2108 11.0304 79.8845 10.4601 78.5793 10.4601C76.2112 10.4605 74.4479 12.0892 74.4675 15.0858C74.4859 17.9613 76.175 19.5416 78.5875 19.5989C79.8486 19.6307 81.0705 18.9036 81.7279 18.3079C81.9343 18.1272 82.1479 18.2176 82.3838 18.4026C82.8467 18.8772 83.5107 19.61 83.8788 20.1144C84.1199 20.3946 83.9395 20.6688 83.8528 20.779C82.8539 22.0469 80.9248 23.1139 78.3718 23.1284C73.0262 23.166 70.3744 19.3957 70.3497 15.0148L70.3493 15.0142ZM95.8666 22.9316C96.1175 22.9127 98.7951 22.542 99.617 22.3532C99.821 22.3066 99.8936 22.1345 99.7795 21.9641C99.3206 21.2737 98.1139 19.3133 96.8502 17.5583C95.6878 15.9446 94.4627 14.5253 94.0665 13.9793C93.9699 13.8466 93.9751 13.716 94.0803 13.613C94.8341 12.8732 97.9869 9.77235 99.1723 8.49179C99.6312 7.99363 99.3557 7.77933 98.9659 7.66294C98.2129 7.43778 96.9951 7.15714 96.3025 7.01059C96.0105 6.94867 95.6588 6.97039 95.4034 7.23374C94.2182 8.34242 90.6011 11.9841 89.5213 13.0727C89.3269 13.2691 89.2137 13.2255 89.2127 12.9448C89.2038 10.8461 89.1626 1.86039 89.0878 0.38241C89.0826 0.187008 88.8483 0.0386475 88.7163 0.0316114C88.0373 -0.003971 86.322 -0.0142237 85.646 0.0255804C85.4566 0.0470906 85.2757 0.240683 85.2592 0.404322C85.1033 2.76764 85.3254 20.1162 85.4179 22.543C85.4246 22.7185 85.5548 22.8546 85.721 22.8645C86.3953 22.9037 88.0633 22.9011 88.8421 22.8864C89.2253 22.8864 89.2722 22.6162 89.2722 22.6162L89.3299 17.9609C89.3299 17.9609 89.3694 17.7539 89.4333 17.6855C89.7079 17.389 90.4674 16.5724 90.7913 16.2568C90.869 16.181 90.9917 16.1864 91.071 16.2936C91.4558 16.8143 92.5531 18.5069 93.5701 20.0187C94.5046 21.4074 95.377 22.6399 95.4379 22.727C95.5786 22.928 95.7429 22.936 95.8668 22.9322V22.9316H95.8666ZM50.3275 22.9155C50.5629 22.9234 52.3496 22.9214 53.1412 22.9204C53.4077 22.9256 53.5462 22.7231 53.555 22.5444C53.7232 19.1418 53.6512 2.94153 53.545 0.383415C53.5362 0.162281 53.4418 0.0792559 53.2913 0.0591528C52.6119 -0.0321151 50.6812 -0.010806 50.0623 0.151627C49.9413 0.183189 49.8699 0.275461 49.8661 0.39407C49.7146 6.98787 49.8168 22.1898 49.8489 22.4777C49.8807 22.766 50.0311 22.9055 50.3279 22.9155H50.3275Z" fill="#484564"/>
<path d="M2.5117 16.1502C1.41066 16.1586 0.477965 15.5004 0.134066 14.4732C0.121308 14.4344 0.109415 14.3953 0.0983938 14.356C-0.276368 13.0404 0.450309 11.6642 1.75276 11.2235L22.6432 4.20292C22.8913 4.13094 23.148 4.09334 23.4062 4.09115C24.5365 4.08231 25.4948 4.75495 25.8471 5.80393L25.8784 5.90525C26.2692 7.27548 25.2982 8.49855 24.1348 8.89056C24.134 8.89116 23.9224 8.96293 3.36022 16.0052C3.08691 16.0987 2.80044 16.1476 2.5117 16.1502Z" fill="#484564"/>
<path d="M5.99375 26.456C4.88409 26.464 3.94819 25.8151 3.6083 24.8025C3.5954 24.764 3.58337 24.7252 3.57222 24.6861C3.19225 23.3549 3.91813 21.9642 5.22498 21.5229L26.1162 14.438C26.3862 14.3475 26.665 14.3013 26.9453 14.2987C28.058 14.2902 29.0356 14.9721 29.3805 15.9962L29.4125 16.1027C29.6144 16.8105 29.4951 17.606 29.0939 18.2338C28.7949 18.7006 27.8518 19.1115 27.8518 19.1115L6.88115 26.3042C6.59514 26.4013 6.29568 26.4527 5.99375 26.4564V26.456Z" fill="#484564"/>
<path d="M23.3843 26.5008C22.8428 26.506 22.3136 26.3392 21.8724 26.0242C21.4312 25.7092 21.1007 25.2622 20.9283 24.7472L13.9562 3.9727L13.9213 3.8561C13.5435 2.53131 14.27 1.14943 15.572 0.709168C15.8326 0.621318 16.1019 0.575483 16.3731 0.573071C16.7759 0.570055 17.1657 0.661122 17.5328 0.843054C17.8353 0.993081 18.1051 1.2016 18.3269 1.45663C18.5487 1.71166 18.7181 2.00816 18.8252 2.32907L25.7968 23.1018L25.8171 23.1685C26.2087 24.544 25.4838 25.9267 24.1817 26.3669C23.9245 26.4531 23.6555 26.4983 23.3843 26.5008Z" fill="#484564"/>
<path d="M13.0206 29.9998C12.4788 30.005 11.9493 29.838 11.5079 29.5227C11.0665 29.2074 10.736 28.7601 10.5637 28.2448L3.59329 7.47112C3.48528 7.15063 3.44136 6.81192 3.46402 6.47438C3.48668 6.13684 3.57549 5.8071 3.72536 5.50404C3.87523 5.20098 4.08322 4.93054 4.33742 4.70821C4.59162 4.48589 4.88704 4.31604 5.20677 4.20839C5.46434 4.12202 5.73382 4.0767 6.00539 4.0741C6.54698 4.06874 7.07635 4.23552 7.51762 4.55054C7.9589 4.86556 8.28941 5.31264 8.46178 5.82769L15.4323 26.6022C15.5404 26.9228 15.5843 27.2617 15.5616 27.5994C15.5388 27.9371 15.4499 28.267 15.2998 28.5701C15.1498 28.8733 14.9416 29.1437 14.6871 29.366C14.4327 29.5883 14.137 29.7581 13.8171 29.8655C13.56 29.9519 13.291 29.9972 13.0198 29.9996H13.0206V29.9998Z" fill="#484564"/>
<path d="M19.9471 21.8223L24.8086 20.1549L23.2194 15.4207L18.3523 17.0705L19.9471 21.8223Z" fill="#484564"/>
<path d="M9.5995 25.3714L14.4606 23.7043L12.8593 18.9338L7.99344 20.5843L9.5995 25.3714Z" fill="#484564"/>
<path d="M16.4861 11.5104L21.3479 9.84525L19.7774 5.16626L14.9065 6.80325L16.4861 11.5104Z" fill="#484564"/>
<path d="M6.13727 15.0545L10.9991 13.3893L9.40932 8.65063L4.53842 10.2874L6.13727 15.0545Z" fill="#484564"/>
</svg>
