<svg width="127" height="19" viewBox="0 0 127 19" fill="none" xmlns="http://www.w3.org/2000/svg">
<path d="M82.7688 15.8133C81.6298 17.2181 80.5097 17.9774 78.8202 17.9774C76.6561 17.9774 75.0615 16.7625 75.0615 14.5034C75.0615 10.46 79.5796 10.1752 82.503 10.1752H83.642C83.7369 9.79557 83.7369 9.51082 83.7369 9.13115C83.7369 7.91622 82.4271 7.53655 81.2881 7.53655C79.8833 7.53655 78.5545 7.91622 77.3395 8.48572L77.8141 5.94195C79.124 5.46737 80.5477 5.18262 81.9525 5.18262C84.4013 5.18262 86.6604 6.13178 86.6604 8.94132C86.6604 10.5359 85.4454 15.3387 85.1607 17.5977H82.522L82.7688 15.8133ZM79.6555 15.6235C82.0094 15.6235 82.7688 14.0289 83.2244 12.0546H82.0854C80.5857 12.0546 78.0419 12.3393 78.0419 14.4085C78.0609 15.2438 78.8202 15.6235 79.6555 15.6235Z" fill="#484564"/>
<path d="M0.874608 5.54312H3.22854L3.79804 2.99936L7.19606 1.86035L6.34181 5.52414H9.15135L8.67677 7.87807H5.86723L4.72823 13.1554C4.63331 13.4402 4.5384 13.9148 4.5384 14.3704C4.5384 15.1297 5.01298 15.5853 5.75333 15.5853C6.32283 15.5853 6.89233 15.4904 7.25301 15.3006L6.68351 17.7494C6.11401 17.8443 5.54451 18.0342 4.994 18.0342C2.82989 18.0342 1.33021 17.1799 1.33021 14.826C1.33021 13.8768 1.52004 12.9466 1.70988 11.9975L2.65904 7.85909H0.400024L0.874608 5.54312Z" fill="#484564"/>
<path d="M10.4802 5.5433H13.6884L11.0497 17.6926H7.84149L10.4802 5.5433ZM11.6002 0.284912H14.8084L14.144 3.30326H10.9548L11.6002 0.284912Z" fill="#484564"/>
<path d="M23.1801 8.27684C22.5156 7.89718 21.7753 7.61243 20.8261 7.61243C18.2823 7.61243 16.8776 9.96636 16.8776 12.2254C16.8776 13.82 17.4471 15.4336 19.6112 15.4336C20.3705 15.4336 21.3956 15.2437 22.155 14.7692L21.7753 17.3129C20.8261 17.7875 19.801 17.8824 18.7569 17.8824C15.6437 17.8824 13.5745 15.8132 13.5745 12.605C13.5745 8.37176 16.403 5.16357 20.7312 5.16357C21.9461 5.16357 23.0851 5.35341 23.9394 5.63816L23.1801 8.27684Z" fill="#484564"/>
<path d="M27.6981 9.96626L32.1212 5.54314H36.2595L30.4317 11.1053L34.0954 17.6925H30.5266L27.4133 11.2002H27.3184L26.0085 17.6925H22.8953L26.673 0H29.7672L27.6981 9.96626Z" fill="#484564"/>
<path d="M47.5547 5.54312H49.8137L50.3832 2.99936L53.7812 1.86035L53.0219 5.42922H55.8504L55.3758 7.78316H52.5473L51.4083 13.0605C51.3134 13.4402 51.2185 13.8199 51.2185 14.2755C51.2185 15.0348 51.693 15.4904 52.4334 15.4904C53.0029 15.4904 53.5724 15.3955 53.9331 15.2056L53.3636 17.6545C52.7941 17.7494 52.2246 17.9392 51.6741 17.9392C49.51 17.9392 48.0103 17.085 48.0103 14.7311C48.0103 13.7819 48.2001 12.8517 48.3899 11.9025L49.3391 7.76417H47.0801L47.5547 5.54312Z" fill="#484564"/>
<path d="M46.5296 9.8903C46.5296 6.77703 44.5553 5.27734 41.537 5.27734C37.5884 5.27734 34.665 8.94113 34.665 12.7188C34.665 16.2877 37.0189 17.9962 40.4929 17.9962C41.8027 17.9962 43.1316 17.7114 44.3465 17.3318L44.7262 14.788C43.5112 15.3575 42.2773 15.6422 40.9675 15.6422C38.9932 15.6422 37.7593 14.8829 37.5694 13.0036C37.5694 12.9086 37.5694 12.8137 37.5694 12.6239C37.5694 12.6239 37.5694 12.6239 37.5694 12.529C37.5694 11.6747 37.7593 10.8395 38.044 10.0801C38.6135 8.58044 39.5437 7.44144 41.3471 7.44144C42.657 7.44144 43.3214 8.20078 43.3214 9.51063C43.3214 9.79538 43.3214 10.0801 43.2265 10.3649H38.8983C38.6135 11.314 38.6135 11.9595 38.5186 12.529H45.9601C46.4347 11.6747 46.5296 10.8205 46.5296 9.8903Z" fill="#484564"/>
<path d="M57.2552 6.87194C57.3501 6.39736 57.445 5.92278 57.5399 5.56209H60.4633L60.1786 7.15669C61.0328 5.94176 62.4376 5.27734 63.9373 5.27734C65.3421 5.27734 66.8607 6.13159 67.0506 7.63128H67.1455C67.9997 6.03668 69.6892 5.27734 71.3788 5.27734C73.1632 5.27734 74.7768 6.77703 74.7768 8.58045C74.7768 9.71945 74.492 10.9344 74.2073 11.8835L72.8974 17.7114H69.6893L70.9991 11.7886C71.1889 11.0293 71.3788 9.90928 71.3788 9.14995C71.3788 8.20078 70.7144 7.65026 69.8791 7.65026C67.715 7.65026 67.1455 10.194 66.7658 11.8835L65.5509 17.6165H62.3427L63.6525 11.6937C63.8424 10.9344 64.0322 9.81436 64.0322 9.05503C64.0322 8.10586 63.3678 7.55535 62.5325 7.55535C60.3684 7.55535 59.7989 10.0991 59.4193 11.7886L58.2043 17.5216H54.9961L57.2552 6.87194Z" fill="#484564"/>
<path d="M95.9432 7.9919C95.5636 7.80207 94.7283 7.51732 93.874 7.51732C92.9249 7.51732 91.7099 7.80207 91.7099 8.73225C91.7099 10.2319 95.8483 10.8014 95.8483 13.8198C95.8483 17.028 93.1147 17.9582 90.3811 17.9582C89.0712 17.9582 87.8373 17.7683 86.7173 17.1988L87.3817 14.6551C88.3309 15.1296 89.1662 15.6042 90.4001 15.6042C91.4442 15.6042 92.5642 15.2246 92.5642 14.2944C92.5642 12.3201 88.4258 12.1303 88.4258 9.11192C88.4258 6.2834 91.1594 5.2583 93.7032 5.2583C94.8422 5.2583 96.0571 5.44813 96.6266 5.63797L95.9432 7.9919Z" fill="#484564"/>
<path d="M97.9175 5.54312H100.177L100.746 2.99936L104.144 1.86035L103.385 5.42922H106.213L105.739 7.78316H102.91L101.771 13.0605C101.676 13.3453 101.676 13.8199 101.676 14.2755C101.676 15.0348 102.151 15.4904 102.891 15.4904C103.461 15.4904 104.03 15.3955 104.391 15.2056L103.821 17.6545C103.252 17.7494 102.682 17.9392 102.132 17.9392C99.9677 17.9392 98.468 17.085 98.468 14.7311C98.468 13.7819 98.6578 12.8517 98.8477 11.9025L99.7968 7.76417H97.5378L97.9175 5.54312Z" fill="#484564"/>
<path d="M119.293 7.15669C119.388 6.58719 119.483 6.11261 119.578 5.56209H122.596L122.121 7.82111H122.216C122.786 6.51126 124.38 5.27734 125.785 5.27734C126.165 5.27734 126.639 5.27734 127 5.37226L126.336 8.48553C125.956 8.39061 125.481 8.2957 125.121 8.2957C122.862 8.2957 121.818 10.27 121.362 12.2442L120.223 17.7114H117.11L119.293 7.15669Z" fill="#484564"/>
<path d="M117.129 9.8903C117.129 6.77703 115.154 5.27734 112.136 5.27734C108.187 5.27734 105.264 8.94113 105.264 12.7188C105.264 16.2877 107.618 17.9962 111.092 17.9962C112.402 17.9962 113.731 17.7114 114.946 17.3318L115.325 14.788C114.11 15.3575 112.876 15.6422 111.567 15.6422C109.592 15.6422 108.358 14.8829 108.168 13.0036C108.168 12.9086 108.168 12.8137 108.168 12.6239C108.168 12.6239 108.168 12.6239 108.168 12.529C108.168 11.6747 108.358 10.8395 108.643 10.0801C109.213 8.58044 110.143 7.44144 111.946 7.44144C113.256 7.44144 113.92 8.20078 113.92 9.51063C113.92 9.79538 113.92 10.0801 113.826 10.3649H109.497C109.213 11.314 109.213 11.9595 109.118 12.529H116.559C117.034 11.6747 117.129 10.8205 117.129 9.8903Z" fill="#484564"/>
</svg>
